# type_plates_name_top_to_side_and_side_to_side_outofplane_annen_box_pair.xml
v -523.113293391372 -853.908275869384 499.457332690923
v 326.663362880594 -853.908275869384 -153.211776194265
v 990.203914605729 -191.336948458396 -348.754451130921
v 144.811253589058 -163.946885294805 313.531644668714
v -523.113293391372 -853.908275869384 499.457332690923
cstype bspline
deg 1
curv 0 5 1 2 3 4 5
parm u 0 0 1 2 3 4
end
v -489.277395012999 -853.908275869384 527.352810792483
v 366.504485351492 -853.908275869384 -129.928597369457
v 1014.3149312865 -207.044077505096 -320.83567474506
v 163.608364258715 -179.481847929361 345.613369501887
v -489.277395012999 -853.908275869384 527.352810792483
cstype bspline
deg 1
curv 0 5 6 7 8 9 10
parm u 0 0 1 2 3 4
end
v -1030.65176906689 -853.908275869384 81.0251611675777
v -270.953474182814 -853.908275869384 -502.459458566318
v 628.538664394157 44.2699872423545 -767.536096918775
v -137.145406455682 69.0775542240008 -167.694227828895
v -1030.65176906689 -853.908275869384 81.0251611675777
cstype bspline
deg 1
curv 0 5 11 12 13 14 15
parm u 0 0 1 2 3 4
end
v -996.815870688522 -853.908275869384 108.920639269134
v -231.112351711919 -853.908275869384 -479.176279741514
v 652.649681074931 28.5628581956553 -739.617320532918
v -118.348295786032 53.5425915894157 -135.612502995718
v -996.815870688522 -853.908275869384 108.920639269134
cstype bspline
deg 1
curv 0 5 16 17 18 19 20
parm u 0 0 1 2 3 4
end
v -477.245977778788 -893.908275869384 579.97493184073
v -1120.12804696778 -893.908275869384 49.9608479111558
v -327.744953429024 -893.908275869384 -558.627260197698
v 429.236373516938 -893.908275869384 -116.246862525653
v -477.245977778788 -893.908275869384 579.97493184073
cstype bspline
deg 1
curv 0 5 21 22 23 24 25
parm u 0 0 1 2 3 4
end
v -438.523547445449 -853.908275869384 569.196027944818
v -1081.40561663444 -853.908275869384 39.1819440152431
v -331.84354902093 -853.908275869384 -536.517568453924
v 425.13777792504 -853.908275869384 -94.1371707818762
v -438.523547445449 -853.908275869384 569.196027944818
cstype bspline
deg 1
curv 0 5 26 27 28 29 30
parm u 0 0 1 2 3 4
end
v 429.236373516978 -893.908275869792 -116.246862525877
v -327.744953429079 -893.90827586886 -558.627260197416
v 634.048596779929 66.480396082683 -842.063868639405
v 1092.15791371458 -231.955055804923 -311.607117308115
v 429.236373516978 -893.908275869792 -116.246862525877
cstype bspline
deg 1
curv 0 5 31 32 33 34 35
parm u 0 0 1 2 3 4
end
v 425.24251347228 -854.930436215684 -94.7021620361083
v -331.738813473777 -854.930436214752 -537.082559707647
v 592.372139373005 67.8306808124471 -809.414261497561
v 1050.48145630766 -230.604771075188 -278.957510166274
v 425.24251347228 -854.930436215684 -94.7021620361083
cstype bspline
deg 1
curv 0 5 36 37 38 39 40
parm u 0 0 1 2 3 4
end
v 232.373000974316 -131.24681330967 269.830349096239
v 1058.0562911444 -155.911470720137 -383.559581139554
v 1029.24261266567 550.272543540108 62.0508546184611
v 153.080855273303 590.898724122439 764.050330605616
v 232.373000974316 -131.24681330967 269.830349096239
cstype bspline
deg 1
curv 0 5 41 42 43 44 45
parm u 0 0 1 2 3 4
end
v 252.350491808538 -146.825696159183 301.005158844469
v 1082.28857953495 -171.617452089529 -355.751730504573
v 1053.58705053819 531.817931119353 88.1242866659268
v 173.353372169793 572.632919984491 793.386272534754
v 252.350491808538 -146.825696159183 301.005158844469
cstype bspline
deg 1
curv 0 5 46 47 48 49 50
parm u 0 0 1 2 3 4
end
v -67.2893615390749 102.436429433175 -197.791797127036
v 694.571965286086 79.6782498210378 -800.677340664071
v 664.076044577905 827.091729851643 -329.050626093453
v -151.006898174019 864.885786191619 324.011201668658
v -67.2893615390749 102.436429433175 -197.791797127036
cstype bspline
deg 1
curv 0 5 51 52 53 54 55
parm u 0 0 1 2 3 4
end
v -47.3118707048489 86.8575465836329 -166.616987378817
v 718.804253676644 63.9722684516164 -772.869490029105
v 688.420482450427 808.637117430859 -302.977194045998
v -130.734381277533 846.619982053642 353.347143597788
v -47.3118707048489 86.8575465836329 -166.616987378817
cstype bspline
deg 1
curv 0 5 56 57 58 59 60
parm u 0 0 1 2 3 4
end
v 168.742931840978 546.857997248851 865.448327483711
v -216.434889192293 893.908275869791 308.065430830229
v -128.190400206771 90.2301390192006 -241.95360736279
v 251.381925643469 -205.768635121203 350.367777853717
v 168.742931840978 546.857997248851 865.448327483711
cstype bspline
deg 1
curv 0 5 61 62 63 64 65
parm u 0 0 1 2 3 4
end
v 203.762147514524 545.234213777585 837.390185428441
v -181.415673518746 892.284492398525 280.007288774956
v -97.2632328535074 125.874289305182 -244.506423167761
v 282.309092996715 -170.124484835222 347.814962048717
v 203.762147514524 545.234213777585 837.390185428441
cstype bspline
deg 1
curv 0 5 66 67 68 69 70
parm u 0 0 1 2 3 4
end
v 251.381925643254 -205.768635121436 350.367777853709
v -128.190400206564 90.2301390194334 -241.953607362811
v 659.714567547253 66.6939886176842 -865.448327483711
v 1120.12804696778 -231.719657401089 -337.09916541932
v 251.381925643254 -205.768635121436 350.367777853709
cstype bspline
deg 1
curv 0 5 71 72 73 74 75
parm u 0 0 1 2 3 4
end
v 282.250476573205 -170.192041381408 347.819800413981
v -97.3218492766173 125.80673275952 -244.501584802536
v 658.22353270026 103.23722187517 -842.389116616527
v 1118.63701212078 -195.176424143661 -314.039954552129
v 282.250476573205 -170.192041381408 347.819800413981
cstype bspline
deg 1
curv 0 5 76 77 78 79 80
parm u 0 0 1 2 3 4
end
