v 2142.01 -530.17 1172.49
v 2142.01 -530.17 -318.768
v 2142.01 530.17 -318.768
v 2142.01 530.17 1172.49
v 2142.01 -530.17 1172.49
curv 0 5 1 2 3 4 5
end
v 2223.42 -530.17 1172.49
v 2223.42 -530.17 -364.483
v 2223.42 530.17 -364.483
v 2223.42 530.17 1172.49
v 2223.42 -530.17 1172.49
curv 0 5 6 7 8 9 10
end
v 868.698 -530.17 -1094.99
v 2142.01 -530.17 -318.768
v 2142.01 530.17 -318.768
v 868.698 530.17 -1094.99
v 868.698 -530.17 -1094.99
curv 0 5 11 12 13 14 15
end
v 868.698 -530.17 -1190.33
v 2223.42 -530.17 -364.483
v 2223.42 530.17 -364.483
v 868.698 530.17 -1190.33
v 868.698 -530.17 -1190.33
curv 0 5 16 17 18 19 20
end
v 868.698 97.4481 396.264
v 2142.01 97.4481 1172.49
v 2142.01 97.4481 -318.768
v 868.698 97.4481 -1094.99
v 868.698 97.4481 396.264
curv 0 5 21 22 23 24 25
end
v 868.698 -4.39627e-10 396.264
v 2142.01 -3.0559e-10 1172.49
v 2142.01 -1.45519e-11 -318.768
v 868.698 -1.48589e-10 -1094.99
v 868.698 -4.39627e-10 396.264
curv 0 5 26 27 28 29 30
end
v -632.906 -530.17 1190.33
v -632.906 -530.17 -400.176
v -632.906 530.17 -400.176
v -632.906 530.17 1190.33
v -632.906 -530.17 1190.33
curv 0 5 31 32 33 34 35
end
v -714.314 -530.17 1190.33
v -714.314 -530.17 -318.768
v -714.314 530.17 -318.768
v -714.314 530.17 1190.33
v -714.314 -530.17 1190.33
curv 0 5 36 37 38 39 40
end
v -2223.42 -530.17 -400.176
v -632.906 -530.17 -400.176
v -632.906 530.17 -400.176
v -2223.42 530.17 -400.176
v -2223.42 -530.17 -400.176
curv 0 5 41 42 43 44 45
end
v -2223.42 -530.17 -318.768
v -714.314 -530.17 -318.768
v -714.314 530.17 -318.768
v -2223.42 530.17 -318.768
v -2223.42 -530.17 -318.768
curv 0 5 46 47 48 49 50
end
v -2223.42 -3.0559e-10 1190.33
v -714.314 -3.0559e-10 1190.33
v -714.314 -1.45519e-11 -318.768
v -2223.42 -1.45519e-11 -318.768
v -2223.42 -3.0559e-10 1190.33
curv 0 5 51 52 53 54 55
end
v -2223.42 97.4481 1190.33
v -714.314 97.4481 1190.33
v -714.314 97.4481 -318.768
v -2223.42 97.4481 -318.768
v -2223.42 97.4481 1190.33
curv 0 5 56 57 58 59 60
end
