# type_plates_name_top_to_side_and_side_to_side_outofplane_annen_grid_small.xml
v -1248.63112944301 1951.61231024805 108.664226868686
v -1347.3118199583 2499.99999999971 -3.29240552989594
v -2500.00000000074 2499.99999999971 -13.5459624115454
v -2500.00000000074 1453.56584610805 198.41482305308
v -1248.63112944301 1951.61231024805 108.664226868686
cstype bspline
deg 1
curv 0 5 1 2 3 4 5
parm u 0 0 1 2 3 4
end
v -1248.23562632364 1957.95719498048 148.196430591273
v -1345.77457420259 2499.99999999971 37.5351444247007
v -2500.00000000074 2499.99999999971 27.2679132145814
v -2500.00000000074 1459.75332007631 237.975393024498
v -1248.23562632364 1957.95719498048 148.196430591273
cstype bspline
deg 1
curv 0 5 6 7 8 9 10
parm u 0 0 1 2 3 4
end
v -1251.9929059576 1897.68079002239 -227.359504773273
v -1360.37840888183 2499.99999999971 -350.326580143936
v -2500.00000000074 2499.99999999971 -360.463905233591
v -2500.00000000074 1400.9723173777 -137.850021703901
v -1251.9929059576 1897.68079002239 -227.359504773273
cstype bspline
deg 1
curv 0 5 11 12 13 14 15
parm u 0 0 1 2 3 4
end
v -1251.59740283823 1904.02567475481 -187.82730105069
v -1358.84116312612 2499.99999999971 -309.499030189343
v -2500.00000000074 2499.99999999971 -319.650029607468
v -2500.00000000074 1407.15979134597 -98.2894517324906
v -1251.59740283823 1904.02567475481 -187.82730105069
cstype bspline
deg 1
curv 0 5 16 17 18 19 20
parm u 0 0 1 2 3 4
end
v -2500.00000000074 1426.70545910941 305.890225903334
v -2500.00000000074 1349.36203450598 -188.616898739286
v -1207.56301845821 1863.75366108857 -281.312979290255
v -1202.61922946324 1943.06472024512 212.839567241823
v -2500.00000000074 1426.70545910941 305.890225903334
cstype bspline
deg 1
curv 0 5 21 22 23 24 25
parm u 0 0 1 2 3 4
end
v -2500.00000000074 1469.03453102874 297.316247981604
v -2500.00000000074 1391.69110642531 -197.190876661015
v -1252.59798715988 1888.15875595185 -286.656962136017
v -1247.65419816491 1967.46981510842 207.495584396061
v -2500.00000000074 1469.03453102874 297.316247981604
cstype bspline
deg 1
curv 0 5 26 27 28 29 30
parm u 0 0 1 2 3 4
end
v -1202.61922946505 1943.06472024611 212.839567241603
v -1207.56301845655 1863.75366108767 -281.312979290063
v -1322.05360465133 2499.99999999971 -411.206481299153
v -1302.83803270496 2499.99999999971 99.1378931332542
v -1202.61922946505 1943.06472024611 212.839567241603
cstype bspline
deg 1
curv 0 5 31 32 33 34 35
parm u 0 0 1 2 3 4
end
v -1247.64015523127 1967.46220504145 207.497250772182
v -1252.58394422277 1888.15114588299 -286.655295759484
v -1362.68427751539 2499.99999999971 -411.567905075821
v -1343.46870556902 2499.99999999971 98.7764693565863
v -1247.64015523127 1967.46220504145 207.497250772182
cstype bspline
deg 1
curv 0 5 36 37 38 39 40
parm u 0 0 1 2 3 4
end
v -1223.82823302722 949.766050986014 246.066854448077
v -1384.9164174194 1858.40918976396 148.544606607384
v -2500.00000000074 1409.62926772941 196.710960277808
v -2500.00000000074 441.508951488373 300.616735153352
v -1223.82823302722 949.766050986014 246.066854448077
cstype bspline
deg 1
curv 0 5 41 42 43 44 45
parm u 0 0 1 2 3 4
end
v -1223.31128684517 952.112334053425 286.044757617846
v -1385.06965857073 1864.53576947119 188.116780607927
v -2500.00000000074 1415.81752133537 236.276514983073
v -2500.00000000074 443.649351951346 340.616735154671
v -1223.31128684517 952.112334053425 286.044757617846
cstype bspline
deg 1
curv 0 5 46 47 48 49 50
parm u 0 0 1 2 3 4
end
v -1228.22227557465 929.822644913016 -93.745322494967
v -1383.61386763309 1806.33326225253 -187.818872397239
v -2500.00000000074 1357.0291120788 -139.59625471696
v -2500.00000000074 423.315547553022 -39.383264857853
v -1228.22227557465 929.822644913016 -93.745322494967
cstype bspline
deg 1
curv 0 5 51 52 53 54 55
parm u 0 0 1 2 3 4
end
v -1227.7053293926 932.168927980427 -53.7674193251944
v -1383.76710878443 1812.45984195978 -148.246698396693
v -2500.00000000074 1363.21736568476 -100.030700011691
v -2500.00000000074 425.455948015995 0.616735143467594
v -1227.7053293926 932.168927980427 -53.7674193251944
cstype bspline
deg 1
curv 0 5 56 57 58 59 60
parm u 0 0 1 2 3 4
end
v -2500.00000000074 403.963624803 405.220683766184
v -2500.00000000074 377.208619015713 -94.7793162502888
v -1183.95601879733 901.345505607474 -151.033532207278
v -1177.49419152388 930.674043949271 348.690257414931
v -2500.00000000074 403.963624803 405.220683766184
cstype bspline
deg 1
curv 0 5 61 62 63 64 65
parm u 0 0 1 2 3 4
end
v -2500.00000000074 446.859952645827 400.616735156646
v -2500.00000000074 420.104946858541 -99.3832648598266
v -1229.0284641148 926.290965928245 -153.710862019261
v -1222.56663684135 955.619504270042 346.012927602948
v -2500.00000000074 446.859952645827 400.616735156646
cstype bspline
deg 1
curv 0 5 66 67 68 69 70
parm u 0 0 1 2 3 4
end
v -1177.49419152256 930.674043948544 348.690257415007
v -1183.95601879859 901.345505608173 -151.033532207355
v -1345.47197920243 1812.40158199162 -248.814754214194
v -1347.38749359405 1888.98382833193 245.837420792601
v -1177.49419152256 930.674043948544 348.690257415007
cstype bspline
deg 1
curv 0 5 71 72 73 74 75
parm u 0 0 1 2 3 4
end
v -1222.53011122443 955.599289073813 346.015097246113
v -1228.99193850046 926.270750733427 -153.708692376247
v -1383.3840059061 1797.14339269171 -247.177133398052
v -1385.29952029772 1873.72563903203 247.475041608742
v -1222.53011122443 955.599289073813 346.015097246113
cstype bspline
deg 1
curv 0 5 76 77 78 79 80
parm u 0 0 1 2 3 4
end
v -1214.84656290932 -176.459172536226 287.253101577228
v -1394.12638572854 840.61358829042 287.253101577228
v -2500.00000000074 397.651178114858 287.253101577228
v -2500.00000000074 -691.230474700205 287.253101577228
v -1214.84656290932 -176.459172536226 287.253101577228
cstype bspline
deg 1
curv 0 5 81 82 83 84 85
parm u 0 0 1 2 3 4
end
v -1214.32782180927 -178.388476326771 327.253101577228
v -1394.31191366661 842.679674743515 327.253101577228
v -2500.00000000074 399.791578577759 327.253101577228
v -2500.00000000074 -693.367561486812 327.253101577228
v -1214.32782180927 -178.388476326771 327.253101577228
cstype bspline
deg 1
curv 0 5 86 87 88 89 90
parm u 0 0 1 2 3 4
end
v -1219.2558622598 -160.060090316634 -52.746898422772
v -1392.5493982549 823.051853438927 -52.746898422772
v -2500.00000000074 379.457774180104 -52.746898422772
v -2500.00000000074 -673.065237014074 -52.746898422772
v -1219.2558622598 -160.060090316634 -52.746898422772
cstype bspline
deg 1
curv 0 5 91 92 93 94 95
parm u 0 0 1 2 3 4
end
v -1218.73712115974 -161.989394107193 -12.746898422772
v -1392.73492619298 825.117939892036 -12.746898422772
v -2500.00000000074 381.598174643019 -12.746898422772
v -2500.00000000074 -675.20232380068 -12.746898422772
v -1218.73712115974 -161.989394107193 -12.746898422772
cstype bspline
deg 1
curv 0 5 96 97 98 99 100
parm u 0 0 1 2 3 4
end
v -2500.00000000074 -739.715684741561 387.253101577228
v -2500.00000000074 -713.002099909005 -112.746898422772
v -1174.99235259125 -182.267097886273 -112.746898422772
v -1168.50808883851 -206.383395267199 387.253101577228
v -2500.00000000074 -739.715684741561 387.253101577228
cstype bspline
deg 1
curv 0 5 101 102 103 104 105
parm u 0 0 1 2 3 4
end
v -2500.00000000074 -696.573191666714 387.253101577228
v -2500.00000000074 -669.859606834158 -112.746898422772
v -1220.06435466544 -157.178303715584 -112.746898422772
v -1213.5800909127 -181.29460109651 387.253101577228
v -2500.00000000074 -696.573191666714 387.253101577228
cstype bspline
deg 1
curv 0 5 106 107 108 109 110
parm u 0 0 1 2 3 4
end
v -1168.50808883976 -206.383395266501 387.253101577228
v -1174.99235259008 -182.267097886914 -112.746898422772
v -1354.33271476827 835.149108911544 -112.746898422772
v -1356.65181399421 860.975189575503 387.253101577228
v -1168.50808883976 -206.383395266501 387.253101577228
cstype bspline
deg 1
curv 0 5 111 112 113 114 115
parm u 0 0 1 2 3 4
end
v -1213.54402651347 -181.314675915623 387.253101577228
v -1220.02829026379 -157.19837853605 -112.746898422772
v -1392.27110634779 819.952723759241 -112.746898422772
v -1394.59020557372 845.778804423186 387.253101577228
v -1213.54402651347 -181.314675915623 387.253101577228
cstype bspline
deg 1
curv 0 5 116 117 118 119 120
parm u 0 0 1 2 3 4
end
v -1223.05621533947 -1207.87758378957 218.301807552104
v -1385.84016491276 -289.662035713482 316.61028641454
v -2500.00000000074 -733.430001538407 269.603537833919
v -2500.00000000074 -1693.73155311156 166.861228448349
v -1223.05621533947 -1207.87758378957 218.301807552104
cstype bspline
deg 1
curv 0 5 121 122 123 124 125
parm u 0 0 1 2 3 4
end
v -1222.57661725888 -1213.87985987123 257.887710916379
v -1386.0322396363 -291.875606498346 356.601826402338
v -2500.00000000074 -735.567069287834 309.603181513802
v -2500.00000000074 -1699.91630757161 206.427811617565
v -1222.57661725888 -1213.87985987123 257.887710916379
cstype bspline
deg 1
curv 0 5 126 127 128 129 130
parm u 0 0 1 2 3 4
end
v -1227.13279902452 -1156.8582370956 -118.178371044257
v -1384.20752976264 -270.846684042073 -23.3178034817277
v -2500.00000000074 -715.264925668278 -70.3934334450817
v -2500.00000000074 -1641.16114020116 -169.454728489983
v -1227.13279902452 -1156.8582370956 -118.178371044257
cstype bspline
deg 1
curv 0 5 131 132 133 134 135
parm u 0 0 1 2 3 4
end
v -1226.65320094393 -1162.86051317722 -78.5924676799762
v -1384.39960448619 -273.060254826938 16.6737365060696
v -2500.00000000074 -717.401993417705 -30.3937897652006
v -2500.00000000074 -1647.34589466122 -129.888145320772
v -1226.65320094393 -1162.86051317722 -78.5924676799762
cstype bspline
deg 1
curv 0 5 136 137 138 139 140
parm u 0 0 1 2 3 4
end
v -2500.00000000074 -1751.8216258162 261.216912389135
v -2500.00000000074 -1674.51219506562 -233.365377226058
v -1182.72180913621 -1173.3117151223 -180.29996135358
v -1176.72683312627 -1248.3401661419 314.523830699987
v -2500.00000000074 -1751.8216258162 261.216912389135
cstype bspline
deg 1
curv 0 5 141 142 143 144 145
parm u 0 0 1 2 3 4
end
v -2500.00000000074 -1709.19343926168 265.777686371387
v -2500.00000000074 -1631.8840085111 -228.804603243806
v -1227.87894749299 -1147.86500137606 -177.558303745633
v -1221.88397148306 -1222.89345239569 317.265488307936
v -2500.00000000074 -1709.19343926168 265.777686371387
cstype bspline
deg 1
curv 0 5 146 147 148 149 150
parm u 0 0 1 2 3 4
end
v -1176.7268331278 -1248.34016614105 314.523830700079
v -1182.72180913476 -1173.31171512311 -180.29996135367
v -1345.98099212596 -252.415517545349 -81.7044795370523
v -1348.38192617025 -280.085152356231 418.189770310399
v -1176.7268331278 -1248.34016614105 314.523830700079
cstype bspline
deg 1
curv 0 5 151 152 153 154 155
parm u 0 0 1 2 3 4
end
v -1221.85224628443 -1222.91133001322 317.263562153278
v -1227.84722229138 -1147.88287899528 -177.560229900469
v -1383.91941767733 -267.526327864762 -83.3051134634182
v -1386.32035172162 -295.195962675658 416.58913638403
v -1221.85224628443 -1222.91133001322 317.263562153278
cstype bspline
deg 1
curv 0 5 156 157 158 159 160
parm u 0 0 1 2 3 4
end
v -1196.8270810344 -2460.00000000029 -5.60777561646759
v -1401.68387386022 -1321.68442612968 227.106978283071
v -2500.00000000074 -1734.84044801965 152.580880362368
v -2500.00000000074 -2460.00000000029 5.43688461227063
v -1196.8270810344 -2460.00000000029 -5.60777561646759
cstype bspline
deg 1
curv 0 5 161 162 163 164 165
parm u 0 0 1 2 3 4
end
v -1198.19767661399 -2460.00000000029 35.2204124783518
v -1401.92522757892 -1327.95921731036 266.652361750685
v -2500.00000000074 -1741.02444863472 192.142640855184
v -2500.00000000074 -2460.00000000029 46.2534566258568
v -1198.19767661399 -2460.00000000029 35.2204124783518
cstype bspline
deg 1
curv 0 5 166 167 168 169 170
parm u 0 0 1 2 3 4
end
v -1185.17701860782 -2460.00000000029 -352.647374422401
v -1399.63236725126 -1268.34870109397 -109.028781191617
v -2500.00000000074 -1682.27644279142 -183.694083826505
v -2500.00000000074 -2460.00000000029 -341.503977503181
v -1185.17701860782 -2460.00000000029 -352.647374422401
cstype bspline
deg 1
curv 0 5 171 172 173 174 175
parm u 0 0 1 2 3 4
end
v -1186.54761418742 -2460.00000000029 -311.819186327589
v -1399.87372096996 -1274.62349227464 -69.4833977240105
v -2500.00000000074 -1688.46044340651 -144.132323333696
v -2500.00000000074 -2460.00000000029 -300.687405489602
v -1186.54761418742 -2460.00000000029 -311.819186327589
cstype bspline
deg 1
curv 0 5 176 177 178 179 180
parm u 0 0 1 2 3 4
end
v -2500.00000000074 -2500.00000000029 99.3618114381725
v -2500.00000000074 -2500.00000000029 -410.845338731612
v -1135.29390741356 -2500.00000000029 -422.411505343383
v -1152.42635215867 -2500.00000000029 87.940845841818
v -2500.00000000074 -2500.00000000029 99.3618114381725
cstype bspline
deg 1
curv 0 5 181 182 183 184 185
parm u 0 0 1 2 3 4
end
v -2500.00000000074 -2460.00000000029 107.478314646229
v -2500.00000000074 -2460.00000000029 -402.728835523555
v -1184.19448544039 -2460.00000000029 -413.880559614741
v -1201.3269301855 -2460.00000000029 96.4717915704605
v -2500.00000000074 -2460.00000000029 107.478314646229
cstype bspline
deg 1
curv 0 5 186 187 188 189 190
parm u 0 0 1 2 3 4
end
v -1152.42635215858 -2500.00000000035 87.9408458418027
v -1135.29390741365 -2500.00000000022 -422.411505343368
v -1361.21778604409 -1244.62220165241 -165.764805518226
v -1364.23470752784 -1323.05709141081 328.552487826907
v -1152.42635215858 -2500.00000000035 87.9408458418027
cstype bspline
deg 1
curv 0 5 191 192 193 194 195
parm u 0 0 1 2 3 4
end
v -1200.0682866078 -2461.02955312909 96.2522150237989
v -1182.93584186287 -2461.02955312896 -414.100136161376
v -1399.27033667321 -1258.93651432297 -168.346856393033
v -1402.28725815697 -1337.37140408136 325.970436952101
v -1200.0682866078 -2461.02955312909 96.2522150237989
cstype bspline
deg 1
curv 0 5 196 197 198 199 200
parm u 0 0 1 2 3 4
end
v -98.5642055138451 -2500.00000000029 -3.51497063906629
v 2.66554893701687 -1937.48477320997 111.484388553814
v -1341.15458655827 -1431.9769616586 202.669129105389
v -1149.05731822524 -2500.00000000029 -12.4181172082327
v -98.5642055138451 -2500.00000000029 -3.51497063906629
cstype bspline
deg 1
curv 0 5 201 202 203 204 205
parm u 0 0 1 2 3 4
end
v -97.0315612533086 -2500.00000000029 37.3145908518588
v 3.05871046985703 -1943.81667027398 151.019471121933
v -1341.43082273367 -1438.05704989673 242.249633567956
v -1150.42713412677 -2500.00000000029 28.3868453320458
v -97.0315612533086 -2500.00000000029 37.3145908518588
cstype bspline
deg 1
curv 0 5 206 207 208 209 210
parm u 0 0 1 2 3 4
end
v -111.591681728438 -2500.00000000029 -350.566243311965
v -0.676324092077266 -1883.66364816579 -224.563813275231
v -1338.80657906724 -1380.29621163468 -133.765158826472
v -1137.41388306215 -2500.00000000029 -359.260298800635
v -111.591681728438 -2500.00000000029 -350.566243311965
cstype bspline
deg 1
curv 0 5 211 212 213 214 215
parm u 0 0 1 2 3 4
end
v -110.059037467901 -2500.00000000029 -309.736681821036
v -0.283162559237098 -1889.99554522982 -185.028730707109
v -1339.08281524265 -1386.37629987279 -94.1846543639015
v -1138.78369896369 -2500.00000000029 -318.455336260353
v -110.059037467901 -2500.00000000029 -309.736681821036
cstype bspline
deg 1
curv 0 5 216 217 218 219 220
parm u 0 0 1 2 3 4
end
v -54.1026044010578 -2500.00000000029 98.9032806673162
v -73.260657657811 -2500.00000000029 -411.466237969297
v 43.8683645005367 -1849.13545112782 -278.404940288912
v 48.7828836607223 -1928.28416442945 215.783591812344
v -54.1026044010578 -2500.00000000029 98.9032806673162
cstype bspline
deg 1
curv 0 5 221 222 223 224 225
parm u 0 0 1 2 3 4
end
v -94.732594862493 -2500.00000000029 98.5589330882556
v -113.890648119246 -2500.00000000029 -411.810585548358
v -1.2667341668639 -1874.16951327624 -283.867195735974
v 3.64778499332897 -1953.31822657786 210.321336365282
v -94.732594862493 -2500.00000000029 98.5589330882556
cstype bspline
deg 1
curv 0 5 226 227 228 229 230
parm u 0 0 1 2 3 4
end
v 48.7828836615226 -1928.28416442902 215.783591812433
v 43.8683644997291 -1849.13545112828 -278.404940289016
v -1346.49632590026 -1326.11887075583 -184.061925016759
v -1349.94927809294 -1402.11997373222 310.694380765383
v 48.7828836615226 -1928.28416442902 215.783591812433
cstype bspline
deg 1
curv 0 5 231 232 233 234 235
parm u 0 0 1 2 3 4
end
v 3.65204135703243 -1953.31586579711 210.321851470952
v -1.26247780472477 -1874.16715249635 -283.866680630489
v -1338.39222480412 -1371.1760792775 -193.135915520326
v -1341.84517699679 -1447.17718225389 301.620390261817
v 3.65204135703243 -1953.31586579711 210.321851470952
cstype bspline
deg 1
curv 0 5 236 237 238 239 240
parm u 0 0 1 2 3 4
end
v -134.176187627978 -1847.29524071851 150.374685335927
v 25.0210307909438 -949.302806479129 246.517981792522
v -1323.49997288841 -412.189186127056 303.412500675117
v -1136.7060460483 -1465.85079740924 190.760736081011
v -134.176187627978 -1847.29524071851 150.374685335927
cstype bspline
deg 1
curv 0 5 241 242 243 244 245
parm u 0 0 1 2 3 4
end
v -134.333908859728 -1853.41998510808 189.947622168944
v 25.534026779249 -951.644199657487 286.495982012747
v -1323.72123093267 -414.238127174074 343.421479300429
v -1136.15707468524 -1472.24442552449 230.305204412309
v -134.333908859728 -1853.41998510808 189.947622168944
cstype bspline
deg 1
curv 0 5 246 247 248 249 250
parm u 0 0 1 2 3 4
end
v -132.835557158047 -1795.23491340702 -185.995277744697
v 20.6605648903569 -929.400964463057 -93.2950200793705
v -1321.61927951218 -394.773187227431 -36.6638176400168
v -1141.37230263423 -1411.50495842966 -145.367244735027
v -132.835557158047 -1795.23491340702 -185.995277744697
cstype bspline
deg 1
curv 0 5 251 252 253 254 255
parm u 0 0 1 2 3 4
end
v -132.993278389797 -1801.35965779661 -146.422340911683
v 21.1735608786548 -931.742357641429 -53.31701985915
v -1321.84053755645 -396.822128274434 3.34516098529522
v -1140.82333127117 -1417.89858654491 -105.822776403729
v -132.993278389797 -1801.35965779661 -146.422340911683
cstype bspline
deg 1
curv 0 5 256 257 258 259 260
parm u 0 0 1 2 3 4
end
v -96.5196464405308 -1877.08475837957 247.774181972973
v -94.5481310435862 -1800.52545350978 -246.887528439712
v 64.932971034621 -900.93170122747 -150.572787336757
v 71.345420887912 -930.199115959826 349.152215415722
v -96.5196464405308 -1877.08475837957 247.774181972973
cstype bspline
deg 1
curv 0 5 261 262 263 264 265
parm u 0 0 1 2 3 4
end
v -134.570490707367 -1862.60710169244 249.307027418469
v -132.598975310408 -1786.04779682265 -245.354682994216
v 19.8887473859068 -925.90198111278 -153.26342364442
v 26.3011972392123 -955.169395845121 346.46157910806
v -134.570490707367 -1862.60710169244 249.307027418469
cstype bspline
deg 1
curv 0 5 266 267 268 269 270
parm u 0 0 1 2 3 4
end
v 71.3454208895346 -930.199115958923 349.152215415819
v 64.9329710330567 -900.931701228328 -150.572787336849
v -1329.47003731786 -345.543356514594 -91.7424924640884
v -1332.23576287116 -371.155119602277 408.369740352286
v 71.3454208895346 -930.199115958923 349.152215415819
cstype bspline
deg 1
curv 0 5 271 272 273 274 275
parm u 0 0 1 2 3 4
end
v 26.3159265684153 -955.161230636731 346.462458938252
v 19.9034767119228 -925.893815906151 -153.262543814418
v -1321.28739244579 -391.699775656889 -96.6772855779775
v -1324.05311799907 -417.311538744587 403.434947238395
v 26.3159265684153 -955.161230636731 346.462458938252
cstype bspline
deg 1
curv 0 5 276 277 278 279 280
parm u 0 0 1 2 3 4
end
v -144.122845026861 -840.585689028478 287.253101577228
v 35.1564738898451 176.484213107717 287.253101577228
v -1333.04609405469 724.523608643867 287.253101577228
v -1126.52680689884 -447.081417780952 287.253101577228
v -144.122845026861 -840.585689028478 287.253101577228
cstype bspline
deg 1
curv 0 5 281 282 283 284 285
parm u 0 0 1 2 3 4
end
v -144.307827440236 -842.648680664235 327.253101577228
v 35.6757604116137 178.416611131397 327.253101577228
v -1333.2598110242 726.749614353786 327.253101577228
v -1125.92924890624 -449.457857859641 327.253101577228
v -144.307827440236 -842.648680664235 327.253101577228
cstype bspline
deg 1
curv 0 5 286 287 288 289 290
parm u 0 0 1 2 3 4
end
v -142.550494513169 -823.050260124743 -52.746898422772
v 30.7425384548042 160.058829906484 -52.746898422772
v -1331.22949981388 705.602560109561 -52.746898422772
v -1131.60604983605 -426.881677112295 -52.746898422772
v -142.550494513169 -823.050260124743 -52.746898422772
cstype bspline
deg 1
curv 0 5 291 292 293 294 295
parm u 0 0 1 2 3 4
end
v -142.735476926551 -825.113251760456 -12.746898422772
v 31.2618249765655 161.99122793015 -12.746898422772
v -1331.44321678339 707.82856581948 -12.746898422772
v -1131.00849184344 -429.258117190941 -12.746898422772
v -142.735476926551 -825.113251760456 -12.746898422772
cstype bspline
deg 1
curv 0 5 296 297 298 299 300
parm u 0 0 1 2 3 4
end
v -106.646897774488 -860.93948685909 387.253101577228
v -104.334617607296 -835.152091412398 -112.746898422772
v 75.0052477243444 182.261296724726 -112.746898422772
v 81.4963292456669 206.41627201614 387.253101577228
v -106.646897774488 -860.93948685909 387.253101577228
cstype bspline
deg 1
curv 0 5 301 302 303 304 305
parm u 0 0 1 2 3 4
end
v -144.585301060302 -845.743168117842 387.253101577228
v -142.273020893103 -819.955772671135 -112.746898422772
v 29.9608508723177 157.144587590607 -112.746898422772
v 36.4519323936402 181.299562882021 387.253101577228
v -144.585301060302 -845.743168117842 387.253101577228
cstype bspline
deg 1
curv 0 5 306 307 308 309 310
parm u 0 0 1 2 3 4
end
v 81.4963292482789 206.41627201761 387.253101577228
v 75.0052477218778 182.261296723358 -112.746898422772
v -1339.09143605677 748.683776818521 -112.746898422772
v -1341.76289817561 776.50884819252 387.253101577228
v 81.4963292482789 206.41627201761 387.253101577228
cstype bspline
deg 1
curv 0 5 311 312 313 314 315
parm u 0 0 1 2 3 4
end
v 36.4694138704217 181.30931053542 387.253101577228
v 29.9783323439988 157.154335241154 -112.746898422772
v -1330.90892435961 702.263551544675 -112.746898422772
v -1333.58038647846 730.088622918673 387.253101577228
v 36.4694138704217 181.30931053542 387.253101577228
cstype bspline
deg 1
curv 0 5 316 317 318 319 320
parm u 0 0 1 2 3 4
end
v -134.683854949304 289.246712530585 316.958635697928
v 25.5693031263072 1193.18279968287 219.941583170605
v -1322.55428152785 1735.75270804208 161.709000085156
v -1136.8724703116 688.385364533213 274.120147316503
v -134.683854949304 289.246712530585 316.958635697928
cstype bspline
deg 1
curv 0 5 321 322 323 324 325
parm u 0 0 1 2 3 4
end
v -134.87084232788 291.461583895638 356.950642935687
v 26.0522718678549 1199.17667622367 259.527999848537
v -1322.73107045279 1742.01211265518 201.266918342343
v -1136.27697880269 690.288600380183 314.145601564351
v -134.87084232788 291.461583895638 356.950642935687
cstype bspline
deg 1
curv 0 5 326 327 328 329 330
parm u 0 0 1 2 3 4
end
v -133.094462231398 270.420305927677 -22.9734258230212
v 21.4640688230575 1142.23484908607 -116.542958591806
v -1321.05157566581 1682.54776883074 -174.533305100927
v -1141.93414813741 672.207859834089 -66.0962137902145
v -133.094462231398 270.420305927677 -22.9734258230212
cstype bspline
deg 1
curv 0 5 331 332 333 334 335
parm u 0 0 1 2 3 4
end
v -133.281449609975 272.63517729273 17.0185814147378
v 21.9470375646124 1148.22872562685 -76.9565419138701
v -1321.22836459076 1688.80717344383 -134.975386843739
v -1141.3386566285 674.111095681059 -26.0707595423676
v -133.281449609975 272.63517729273 17.0185814147378
cstype bspline
deg 1
curv 0 5 336 337 338 339 340
parm u 0 0 1 2 3 4
end
v -97.2129457861301 279.674287155925 418.560327321164
v -94.8756035539263 251.988395092791 -81.3397631508135
v 65.758738925957 1158.07461983374 -178.587584218464
v 71.7958481953319 1232.9980765932 316.242624255724
v -97.2129457861301 279.674287155925 418.560327321164
cstype bspline
deg 1
curv 0 5 341 342 343 344 345
parm u 0 0 1 2 3 4
end
v -135.151323395738 294.783890943218 416.938653792323
v -132.813981163534 267.097998880097 -82.9614366796571
v 20.737728591499 1133.23338964742 -175.921441149188
v 26.7748378608812 1208.15684640686 318.908767325002
v -135.151323395738 294.783890943218 416.938653792323
cstype bspline
deg 1
curv 0 5 346 347 348 349 350
parm u 0 0 1 2 3 4
end
v 71.7958481956593 1232.99807659339 316.242624255706
v 65.7587389256441 1158.07461983357 -178.587584218445
v -1328.98561545004 1719.40766463176 -238.833964760762
v -1331.19547701186 1797.65022229553 255.640013454059
v 71.7958481956593 1232.99807659339 316.242624255706
cstype bspline
deg 1
curv 0 5 351 352 353 354 355
parm u 0 0 1 2 3 4
end
v 26.7867889532499 1208.16344065775 318.908059581619
v 20.7496796832347 1133.23998389793 -175.92214889253
v -1320.7863922784 1673.15866191109 -233.870182486705
v -1322.99625384021 1751.40121957485 260.603795728118
v 26.7867889532499 1208.16344065775 318.908059581619
cstype bspline
deg 1
curv 0 5 356 357 358 359 360
parm u 0 0 1 2 3 4
end
v -152.348805122354 1311.02132665945 228.643166053477
v 54.4146955814358 2459.99999999971 -5.92778774292023
v -1299.45013355547 2459.99999999971 6.11530446186737
v -1165.33390202543 1714.19073386573 155.989915271838
v -152.348805122354 1311.02132665945 228.643166053477
cstype bspline
deg 1
curv 0 5 361 362 363 364 365
parm u 0 0 1 2 3 4
end
v -152.584271897969 1317.30251671559 268.186847892234
v 53.048902477989 2459.99999999971 34.8982370815079
v -1297.91391719121 2459.99999999971 46.915514916318
v -1164.87770669902 1720.19664149123 195.583204454581
v -152.584271897969 1317.30251671559 268.186847892234
cstype bspline
deg 1
curv 0 5 366 367 368 369 370
parm u 0 0 1 2 3 4
end
v -150.347337529602 1257.63121118231 -107.478129575888
v 66.0239369607443 2459.99999999971 -352.948998750493
v -1312.50797265174 2459.99999999971 -340.686484400897
v -1169.21156229994 1663.14051904889 -180.553042781406
v -150.347337529602 1257.63121118231 -107.478129575888
cstype bspline
deg 1
curv 0 5 371 372 373 374 375
parm u 0 0 1 2 3 4
end
v -150.582804305217 1263.91240123844 -67.9344477371383
v 64.6581438572975 2459.99999999971 -312.122973926072
v -1310.97175628748 2459.99999999971 -299.886273946453
v -1168.75536697352 1669.1464266744 -140.95975359867
v -150.582804305217 1263.91240123844 -67.9344477371383
cstype bspline
deg 1
curv 0 5 376 377 378 379 380
parm u 0 0 1 2 3 4
end
v -115.023771874927 1311.63459902341 330.22161457223
v -112.080437179706 1233.11972332172 -164.074408412131
v 115.899948406368 2499.99999999852 -422.715688482183
v 98.8275346135924 2500.00000000035 87.6096218226982
v -115.023771874927 1311.63459902341 330.22161457223
cstype bspline
deg 1
curv 0 5 381 382 383 384 385
parm u 0 0 1 2 3 4
end
v -152.937472061392 1326.72430179978 327.502370650354
v -149.994137366179 1248.2094260981 -166.793652334008
v 67.9619132746666 2459.38476922871 -414.062432899698
v 50.8894994818911 2459.38476923053 96.262877405187
v -152.937472061392 1326.72430179978 327.502370650354
cstype bspline
deg 1
curv 0 5 386 387 388 389 390
parm u 0 0 1 2 3 4
end
v 98.8275346128576 2499.99999999971 87.6096218228313
v 115.899948407787 2499.99999999971 -422.715688482441
v -1322.00535513509 2499.99999999971 -409.92502742113
v -1302.80265058175 2499.99999999971 100.077603259407
v 98.8275346128576 2499.99999999971 87.6096218228313
cstype bspline
deg 1
curv 0 5 391 392 393 394 395
parm u 0 0 1 2 3 4
end
v 51.6156545145641 2459.99999999971 96.1317997531117
v 68.688068309486 2459.99999999971 -414.19351055216
v -1314.81229719814 2459.99999999971 -401.886800082558
v -1295.60959264481 2459.99999999971 108.115830597979
v 51.6156545145641 2459.99999999971 96.1317997531117
cstype bspline
deg 1
curv 0 5 396 397 398 399 400
parm u 0 0 1 2 3 4
end
v 1251.36887055699 1951.61231024805 108.664226868683
v 1152.6881800417 2499.99999999971 -3.29240552989697
v 102.181184165267 2499.99999999971 -12.6370257171128
v -92.648696218479 1416.69154258004 205.059766775829
v 1251.36887055699 1951.61231024805 108.664226868683
cstype bspline
deg 1
curv 0 5 401 402 403 404 405
parm u 0 0 1 2 3 4
end
v 1251.76437367636 1957.95719498048 148.196430591273
v 1154.22542579741 2499.99999999971 37.5351444247034
v 100.816203698116 2499.99999999971 28.1647079393987
v -92.9203201312703 1422.77090987208 244.63981813973
v 1251.76437367636 1957.95719498048 148.196430591273
cstype bspline
deg 1
curv 0 5 406 407 408 409 410
parm u 0 0 1 2 3 4
end
v 1248.0070940424 1897.68079002239 -227.359504773277
v 1139.62159111817 2499.99999999971 -350.326580143937
v 113.78351813605 2499.99999999971 -359.451761797397
v -90.3398929597752 1365.0169205977 -131.37066981728
v 1248.0070940424 1897.68079002239 -227.359504773277
cstype bspline
deg 1
curv 0 5 411 412 413 414 415
parm u 0 0 1 2 3 4
end
v 1248.40259716177 1904.02567475481 -187.82730105069
v 1141.15883687388 2499.99999999971 -309.49903018934
v 112.418537668898 2499.99999999971 -318.650028140889
v -90.6115168725664 1371.09628788974 -91.7906184533797
v 1248.40259716177 1904.02567475481 -187.82730105069
cstype bspline
deg 1
curv 0 5 416 417 418 419 420
parm u 0 0 1 2 3 4
end
v -101.527445368309 1386.29740168669 313.171970691152
v -98.1321464584471 1310.30531053621 -181.578671357526
v 1292.43698154176 1863.75366108856 -281.312979290254
v 1297.38077053675 1943.06472024511 212.839567241823
v -101.527445368309 1386.29740168669 313.171970691152
cstype bspline
deg 1
curv 0 5 421 422 423 424 425
parm u 0 0 1 2 3 4
end
v -93.3277560004499 1431.88996081013 304.009895185568
v -89.9324570905956 1355.89786965965 -190.740746863111
v 1247.40201283986 1888.15875595175 -286.656962135996
v 1252.34580183485 1967.4698151083 207.495584396081
v -93.3277560004499 1431.88996081013 304.009895185568
cstype bspline
deg 1
curv 0 5 426 427 428 429 430
parm u 0 0 1 2 3 4
end
v 1297.38077053496 1943.06472024608 212.839567241607
v 1292.43698154346 1863.75366108763 -281.312979290052
v 1177.94639534866 2499.99999999971 -411.206481299151
v 1197.16196729503 2499.99999999971 99.1378931332531
v 1297.38077053496 1943.06472024608 212.839567241607
cstype bspline
deg 1
curv 0 5 431 432 433 434 435
parm u 0 0 1 2 3 4
end
v 1252.35984476878 1967.46220504117 207.497250772237
v 1247.41605577728 1888.15114588273 -286.65529575943
v 1137.31572248461 2499.99999999971 -411.567905075819
v 1156.53129443098 2499.99999999971 98.7764693565853
v 1252.35984476878 1967.46220504117 207.497250772237
cstype bspline
deg 1
curv 0 5 436 437 438 439 440
parm u 0 0 1 2 3 4
end
v 1276.17176697277 949.766050986029 246.066854448075
v 1115.0835825806 1858.40918976396 148.544606607383
v 112.59227970225 1454.9434982464 191.847504614527
v -72.1687378427596 412.766524865845 303.701583244973
v 1276.17176697277 949.766050986029 246.066854448075
cstype bspline
deg 1
curv 0 5 441 442 443 444 445
parm u 0 0 1 2 3 4
end
v 1276.68871315483 952.11233405344 286.044757617846
v 1114.93034142927 1864.53576947119 188.116780607927
v 113.149463478316 1461.35599772548 231.38899160753
v -72.384136170178 414.821139283449 343.710790434045
v 1276.68871315483 952.11233405344 286.044757617846
cstype bspline
deg 1
curv 0 5 446 447 448 449 450
parm u 0 0 1 2 3 4
end
v 1271.77772442534 929.822644913031 -93.745322494967
v 1116.3861323669 1806.33326225253 -187.818872397237
v 107.85621760568 1400.43725267422 -144.25513482598
v -70.3378520596452 395.30230231637 -36.3766778621441
v 1271.77772442534 929.822644913031 -93.745322494967
cstype bspline
deg 1
curv 0 5 451 452 453 454 455
parm u 0 0 1 2 3 4
end
v 1272.2946706074 932.168927980441 -53.7674193251962
v 1116.23289121557 1812.45984195978 -148.246698396694
v 108.413401381746 1406.84975215331 -104.713647832981
v -70.5532503870709 397.356916733959 3.63252932692987
v 1272.2946706074 932.168927980441 -53.7674193251962
cstype bspline
deg 1
curv 0 5 456 457 458 459 460
parm u 0 0 1 2 3 4
end
v -80.8897945160279 371.747889113438 408.678312868532
v -78.1973154232182 346.065208893604 -91.4367769948706
v 1316.04398120271 901.345505607489 -151.033532207284
v 1322.50580847613 930.674043949257 348.690257414928
v -80.8897945160279 371.747889113438 408.678312868532
cstype bspline
deg 1
curv 0 5 461 462 463 464 465
parm u 0 0 1 2 3 4
end
v -72.7072336613201 417.903060909826 403.72460121765
v -70.0147545685031 392.220380689978 -96.3904886457488
v 1270.97153588523 926.290965928274 -153.710862019266
v 1277.43336315865 955.619504270042 346.012927602944
v -72.7072336613201 417.903060909826 403.72460121765
cstype bspline
deg 1
curv 0 5 466 467 468 469 470
parm u 0 0 1 2 3 4
end
v 1322.50580847744 930.674043948544 348.690257415005
v 1316.04398120139 901.345505608217 -151.03353220736
v 1154.52802079757 1812.40158199161 -248.814754214194
v 1152.61250640595 1888.98382833193 245.8374207926
v 1322.50580847744 930.674043948544 348.690257415005
cstype bspline
deg 1
curv 0 5 471 472 473 474 475
parm u 0 0 1 2 3 4
end
v 1277.46988877556 955.599289073813 346.015097246113
v 1271.00806149954 926.270750733456 -153.70869237625
v 1116.6159940939 1797.14339269171 -247.177133398053
v 1114.70047970227 1873.72563903203 247.47504160874
v 1277.46988877556 955.599289073813 346.015097246113
cstype bspline
deg 1
curv 0 5 476 477 478 479 480
parm u 0 0 1 2 3 4
end
v 1285.15343709067 -176.459172536212 287.253101577228
v 1105.87361427146 840.613588290405 287.253101577228
v 123.476922586546 447.110388032175 287.253101577228
v -83.042109529677 -724.493191526752 287.253101577228
v 1285.15343709067 -176.459172536212 287.253101577228
cstype bspline
deg 1
curv 0 5 481 482 483 484 485
parm u 0 0 1 2 3 4
end
v 1285.67217819073 -178.388476326771 327.253101577228
v 1105.68808633339 842.6796747435 327.253101577228
v 124.075109268771 449.490394731358 327.253101577228
v -83.255197946215 -726.715631391431 327.253101577228
v 1285.67217819073 -178.388476326771 327.253101577228
cstype bspline
deg 1
curv 0 5 486 487 488 489 490
parm u 0 0 1 2 3 4
end
v 1280.7441377402 -160.06009031662 -52.746898422772
v 1107.4506017451 823.051853438912 -52.746898422772
v 118.392335787517 426.880331089182 -52.746898422772
v -81.2308579890814 -705.602452676947 -52.746898422772
v 1280.7441377402 -160.06009031662 -52.746898422772
cstype bspline
deg 1
curv 0 5 491 492 493 494 495
parm u 0 0 1 2 3 4
end
v 1281.26287884025 -161.989394107179 -12.746898422772
v 1107.26507380702 825.117939892036 -12.746898422772
v 118.990522469758 429.260337788364 -12.746898422772
v -81.4439464056268 -707.824892541626 -12.746898422772
v 1281.26287884025 -161.989394107179 -12.746898422772
cstype bspline
deg 1
curv 0 5 496 497 498 499 500
parm u 0 0 1 2 3 4
end
v -91.7573029236373 -776.46929325664 387.253101577228
v -89.0936977168749 -748.688794948102 -112.746898422772
v 1325.00764740875 -182.267097886303 -112.746898422772
v 1331.49191116148 -206.383395267228 387.253101577228
v -91.7573029236373 -776.46929325664 387.253101577228
cstype bspline
deg 1
curv 0 5 501 502 503 504 505
parm u 0 0 1 2 3 4
end
v -83.5748305710295 -730.04929118845 387.253101577228
v -80.9112253642743 -702.268792879928 -112.746898422772
v 1279.93564533482 -157.178303715467 -112.746898422772
v 1286.41990908756 -181.294601096393 387.253101577228
v -83.5748305710295 -730.04929118845 387.253101577228
cstype bspline
deg 1
curv 0 5 506 507 508 509 510
parm u 0 0 1 2 3 4
end
v 1331.49191116025 -206.383395266545 387.253101577228
v 1325.00764740993 -182.267097886957 -112.746898422772
v 1145.66728523173 835.149108911544 -112.746898422772
v 1143.34818600579 860.975189575489 387.253101577228
v 1331.49191116025 -206.383395266545 387.253101577228
cstype bspline
deg 1
curv 0 5 511 512 513 514 515
parm u 0 0 1 2 3 4
end
v 1286.45597348647 -181.314675915361 387.253101577228
v 1279.97170973615 -157.198378535773 -112.746898422772
v 1107.72889365221 819.952723759241 -112.746898422772
v 1105.40979442628 845.778804423186 387.253101577228
v 1286.45597348647 -181.314675915361 387.253101577228
cstype bspline
deg 1
curv 0 5 516 517 518 519 520
parm u 0 0 1 2 3 4
end
v 1276.94378466052 -1207.87758378958 218.301807552102
v 1114.15983508724 -289.662035713496 316.61028641454
v 111.800857677808 -688.899910229229 274.32045065243
v -71.1313475606585 -1720.79574181771 163.995763456966
v 1276.94378466052 -1207.87758378958 218.301807552102
cstype bspline
deg 1
curv 0 5 521 522 523 524 525
parm u 0 0 1 2 3 4
end
v 1277.42338274112 -1213.87985987123 257.887710916379
v 1113.9677603637 -291.875606498361 356.601826402336
v 112.391791507944 -690.801610039998 314.345026013659
v -71.311881344227 -1727.04918611077 203.555073978405
v 1277.42338274112 -1213.87985987123 257.887710916379
cstype bspline
deg 1
curv 0 5 526 527 528 529 530
parm u 0 0 1 2 3 4
end
v 1272.86720097548 -1156.8582370956 -118.178371044257
v 1115.79247023736 -270.846684042088 -23.3178034817295
v 106.777920121596 -672.735461837845 -65.8884399180472
v -69.5968104004205 -1667.64146532668 -172.258375975283
v 1272.86720097548 -1156.8582370956 -118.178371044257
cstype bspline
deg 1
curv 0 5 531 532 533 534 535
parm u 0 0 1 2 3 4
end
v 1273.34679905607 -1162.86051317723 -78.592467679978
v 1115.60039551381 -273.060254826953 16.6737365060696
v 107.368853951746 -674.637161648599 -25.8638645568147
v -69.7773441839745 -1673.89490961975 -132.699065453842
v 1273.34679905607 -1162.86051317723 -78.592467679978
cstype bspline
deg 1
curv 0 5 536 537 538 539 540
parm u 0 0 1 2 3 4
end
v -79.6863101091003 -1782.14082273924 258.006818109455
v -77.4296378146246 -1703.97276907596 -236.484563408555
v 1317.27819086379 -1173.31171512231 -180.299961353584
v 1323.27316687373 -1248.34016614192 314.523830699985
v -79.6863101091003 -1782.14082273924 258.006818109455
cstype bspline
deg 1
curv 0 5 541 542 543 544 545
parm u 0 0 1 2 3 4
end
v -71.5826820195653 -1736.42935255039 262.894039760565
v -69.3260097250823 -1658.26129888711 -231.597341757445
v 1272.12105250699 -1147.86500137609 -177.558303745636
v 1278.1160285169 -1222.8934523957 317.265488307932
v -71.5826820195653 -1736.42935255039 262.894039760565
cstype bspline
deg 1
curv 0 5 546 547 548 549 550
parm u 0 0 1 2 3 4
end
v 1323.2731668722 -1248.34016614108 314.523830700075
v 1317.27819086525 -1173.31171512314 -180.299961353673
v 1154.01900787404 -252.415517545363 -81.7044795370523
v 1151.61807382975 -280.085152356231 418.189770310399
v 1323.2731668722 -1248.34016614108 314.523830700075
cstype bspline
deg 1
curv 0 5 551 552 553 554 555
parm u 0 0 1 2 3 4
end
v 1278.14775371556 -1222.91133001324 317.263562153276
v 1272.15277770862 -1147.88287899531 -177.560229900474
v 1116.08058232267 -267.526327864776 -83.30511346342
v 1113.67964827838 -295.195962675672 416.589136384028
v 1278.14775371556 -1222.91133001324 317.263562153276
cstype bspline
deg 1
curv 0 5 556 557 558 559 560
parm u 0 0 1 2 3 4
end
v 1303.1729189656 -2460.00000000029 -5.60777561646424
v 1098.31612613978 -1321.68442612968 227.106978283075
v 85.496563930501 -1702.67901526054 158.382238590459
v -50.7035777529163 -2460.00000000029 5.86660792872905
v 1303.1729189656 -2460.00000000029 -5.60777561646424
cstype bspline
deg 1
curv 0 5 561 562 563 564 565
parm u 0 0 1 2 3 4
end
v 1301.802323386 -2460.00000000029 35.2204124783515
v 1098.07477242108 -1327.95921731036 266.652361750685
v 85.9465140525572 -1708.69375713667 197.974530390292
v -49.1719083701682 -2460.00000000029 46.6701987272563
v 1301.802323386 -2460.00000000029 35.2204124783515
cstype bspline
deg 1
curv 0 5 566 567 568 569 570
parm u 0 0 1 2 3 4
end
v 1314.82298139217 -2460.00000000029 -352.647374422402
v 1100.36763274874 -1268.34870109397 -109.028781191617
v 81.6719878929944 -1651.5537093134 -178.152241708115
v -63.7227675063041 -2460.00000000029 -340.963913858756
v 1314.82298139217 -2460.00000000029 -352.647374422402
cstype bspline
deg 1
curv 0 5 571 572 573 574 575
parm u 0 0 1 2 3 4
end
v 1313.45238581258 -2460.00000000029 -311.819186327589
v 1100.12627903004 -1274.62349227464 -69.4833977240105
v 82.1219380150578 -1657.56845118952 -138.559949908287
v -62.1910981235487 -2460.00000000029 -300.160323060233
v 1313.45238581258 -2460.00000000029 -311.819186327589
cstype bspline
deg 1
curv 0 5 576 577 578 579 580
parm u 0 0 1 2 3 4
end
v -54.0681910484418 -2500.00000000029 99.8200505487407
v -73.2140583328292 -2500.00000000029 -410.224834432854
v 1364.70609258646 -2500.00000000029 -422.411505343384
v 1347.57364784135 -2500.00000000029 87.9408458418173
v -54.0681910484418 -2500.00000000029 99.8200505487407
cstype bspline
deg 1
curv 0 5 581 582 583 584 585
parm u 0 0 1 2 3 4
end
v -46.8744042960461 -2460.00000000029 107.875584925047
v -66.0202715804262 -2460.00000000029 -402.169300056547
v 1315.80551455963 -2460.00000000029 -413.880559614742
v 1298.67306981452 -2460.00000000029 96.4717915704599
v -46.8744042960461 -2460.00000000029 107.875584925047
cstype bspline
deg 1
curv 0 5 586 587 588 589 590
parm u 0 0 1 2 3 4
end
v 1347.57364784142 -2500.00000000035 87.9408458418027
v 1364.70609258635 -2500.00000000022 -422.411505343368
v 1138.78221395591 -1244.62220165243 -165.76480551823
v 1135.76529247216 -1323.05709141082 328.552487826904
v 1347.57364784142 -2500.00000000035 87.9408458418027
cstype bspline
deg 1
curv 0 5 591 592 593 594 595
parm u 0 0 1 2 3 4
end
v 1299.9317133922 -2461.02955312909 96.2522150237989
v 1317.06415813713 -2461.02955312896 -414.100136161376
v 1100.72966332679 -1258.93651432297 -168.346856393033
v 1097.71274184303 -1337.37140408136 325.970436952101
v 1299.9317133922 -2461.02955312909 96.2522150237989
cstype bspline
deg 1
curv 0 5 596 597 598 599 600
parm u 0 0 1 2 3 4
end
v 2459.99999999926 -2500.00000000029 -3.01862687528416
v 2459.99999999926 -1921.43517869766 114.379453829008
v 1158.84541344174 -1431.97696165861 202.669129105386
v 1350.94268177477 -2500.00000000029 -12.4181172082322
v 2459.99999999926 -2500.00000000029 -3.01862687528416
cstype bspline
deg 1
curv 0 5 601 602 603 604 605
parm u 0 0 1 2 3 4
end
v 2459.99999999926 -2500.00000000029 37.7979451382946
v 2459.99999999926 -1927.61917931274 153.941214321813
v 1158.56917726633 -1438.05704989674 242.249633567952
v 1349.57286587323 -2500.00000000029 28.3868453320462
v 2459.99999999926 -2500.00000000029 37.7979451382946
cstype bspline
deg 1
curv 0 5 606 607 608 609 610
parm u 0 0 1 2 3 4
end
v 2459.99999999926 -2500.00000000029 -349.959488990739
v 2459.99999999926 -1868.87117346944 -221.895510359865
v 1161.19342093277 -1380.29621163469 -133.765158826472
v 1362.58611693785 -2500.00000000029 -359.260298800634
v 2459.99999999926 -2500.00000000029 -349.959488990739
cstype bspline
deg 1
curv 0 5 611 612 613 614 615
parm u 0 0 1 2 3 4
end
v 2459.99999999926 -2500.00000000029 -309.14291697716
v 2459.99999999926 -1875.05517408453 -182.333749867064
v 1160.91718475736 -1386.37629987281 -94.1846543639088
v 1361.21630103631 -2500.00000000029 -318.455336260356
v 2459.99999999926 -2500.00000000029 -309.14291697716
cstype bspline
deg 1
curv 0 5 616 617 618 619 620
parm u 0 0 1 2 3 4
end
v 2499.99999999926 -2500.00000000029 99.3618114381736
v 2499.99999999926 -2500.00000000029 -410.845338731611
v 2499.99999999926 -1832.63339080998 -275.428258120535
v 2499.99999999926 -1909.93339849537 219.09374804022
v 2499.99999999926 -2500.00000000029 99.3618114381736
cstype bspline
deg 1
curv 0 5 621 622 623 624 625
parm u 0 0 1 2 3 4
end
v 2459.99999999926 -2500.00000000029 99.0228031586733
v 2459.99999999926 -2500.00000000029 -411.184347011111
v 2459.99999999926 -1859.60172257309 -281.239480181813
v 2459.99999999926 -1936.9017302585 213.282525978934
v 2459.99999999926 -2500.00000000029 99.0228031586733
cstype bspline
deg 1
curv 0 5 626 627 628 629 630
parm u 0 0 1 2 3 4
end
v 2499.99999999775 -1909.9333984964 219.093748039997
v 2500.00000000074 -1832.63339080897 -275.428258120316
v 1153.50367409975 -1326.11887075582 -184.061925016756
v 1150.05072190706 -1402.1199737322 310.694380765387
v 2499.99999999775 -1909.9333984964 219.093748039997
cstype bspline
deg 1
curv 0 5 631 632 633 634 635
parm u 0 0 1 2 3 4
end
v 2460.00623585668 -1936.89752599171 213.28343192774
v 2460.00623585963 -1859.59751830429 -281.238574232578
v 1161.60777519589 -1371.17607927752 -193.135915520329
v 1158.15482300321 -1447.1771822539 301.620390261813
v 2460.00623585668 -1936.89752599171 213.28343192774
cstype bspline
deg 1
curv 0 5 636 637 638 639 640
parm u 0 0 1 2 3 4
end
v 2459.99999999926 -1883.12757345226 146.580878836755
v 2459.99999999926 -923.405040591722 249.261239223478
v 1176.50002711158 -412.189186127041 303.412500675121
v 1363.29395395169 -1465.85079740919 190.760736081019
v 2459.99999999926 -1883.12757345226 146.580878836755
cstype bspline
deg 1
curv 0 5 641 642 643 644 645
parm u 0 0 1 2 3 4
end
v 2459.99999999926 -1889.31232791231 186.147462005971
v 2459.99999999926 -925.542108341149 289.26088290336
v 1176.27876906731 -414.23812717406 343.421479300427
v 1363.84292531475 -1472.24442552446 230.305204412311
v 2459.99999999926 -1889.31232791231 186.147462005971
cstype bspline
deg 1
curv 0 5 646 647 648 649 650
parm u 0 0 1 2 3 4
end
v 2459.99999999926 -1830.55716054187 -189.735078101577
v 2459.99999999926 -905.239964721579 -90.7357320555195
v 1178.38072048781 -394.773187227416 -36.663817640015
v 1358.62769736577 -1411.50495842966 -145.367244735027
v 2459.99999999926 -1830.55716054187 -189.735078101577
cstype bspline
deg 1
curv 0 5 651 652 653 654 655
parm u 0 0 1 2 3 4
end
v 2459.99999999926 -1836.74191500193 -150.168494932364
v 2459.99999999926 -907.377032471006 -50.7360883756385
v 1178.15946244355 -396.82212827442 3.34516098529704
v 1359.17666872882 -1417.89858654489 -105.822776403725
v 2459.99999999926 -1836.74191500193 -150.168494932364
cstype bspline
deg 1
curv 0 5 656 657 658 659 660
parm u 0 0 1 2 3 4
end
v 2499.99999999926 -1913.80873472345 243.885971256576
v 2499.99999999926 -1836.49930397286 -250.696318358615
v 2499.99999999926 -875.069009393614 -147.833245174468
v 2499.99999999926 -901.782356259384 352.162300824281
v 2499.99999999926 -1913.80873472345 243.885971256576
cstype bspline
deg 1
curv 0 5 661 662 663 664 665
parm u 0 0 1 2 3 4
end
v 2459.99999999926 -1898.58945960237 245.497336759797
v 2459.99999999926 -1821.28002885179 -249.084952855398
v 2459.99999999926 -902.052281681899 -150.737114678095
v 2459.99999999926 -928.76562854767 349.258431320654
v 2459.99999999926 -1898.58945960237 245.497336759797
cstype bspline
deg 1
curv 0 5 666 667 668 669 670
parm u 0 0 1 2 3 4
end
v 2499.99999999828 -901.782356260039 352.162300824212
v 2500.0000000002 -875.069009392988 -147.833245174399
v 1170.52996268212 -345.543356514594 -91.7424924640866
v 1167.76423712884 -371.155119602277 408.369740352288
v 2499.99999999828 -901.782356260039 352.162300824212
cstype bspline
deg 1
curv 0 5 671 672 673 674 675
parm u 0 0 1 2 3 4
end
v 2460.01670138305 -928.754362098014 349.259643786631
v 2460.01670138496 -902.041015230949 -150.735902211978
v 1178.7126075542 -391.699775656889 -96.6772855779757
v 1175.94688200092 -417.311538744587 403.434947238397
v 2460.01670138305 -928.754362098014 349.259643786631
cstype bspline
deg 1
curv 0 5 676 677 678 679 680
parm u 0 0 1 2 3 4
end
v 2459.99999999926 -882.292345192749 287.253101577228
v 2459.99999999926 206.58846045137 287.253101577228
v 1166.95390594532 724.523608643853 287.253101577228
v 1373.47319310116 -447.081417780952 287.253101577228
v 2459.99999999926 -882.292345192749 287.253101577228
cstype bspline
deg 1
curv 0 5 681 682 683 684 685
parm u 0 0 1 2 3 4
end
v 2459.99999999926 -884.42943197937 327.253101577228
v 2459.99999999926 208.728860914271 327.253101577228
v 1166.7401889758 726.749614353772 327.253101577228
v 1374.07075109378 -449.457857859641 327.253101577228
v 2459.99999999926 -884.42943197937 327.253101577228
cstype bspline
deg 1
curv 0 5 686 687 688 689 690
parm u 0 0 1 2 3 4
end
v 2459.99999999926 -864.127107506618 -52.746898422772
v 2459.99999999926 188.395056516631 -52.746898422772
v 1168.77050018613 705.602560109546 -52.746898422772
v 1368.39395016397 -426.881677112295 -52.746898422772
v 2459.99999999926 -864.127107506618 -52.746898422772
cstype bspline
deg 1
curv 0 5 691 692 693 694 695
parm u 0 0 1 2 3 4
end
v 2459.99999999926 -866.26419429321 -12.746898422772
v 2459.99999999926 190.535456979531 -12.746898422772
v 1168.55678321663 707.828565819465 -12.746898422772
v 1368.99150815657 -429.258117190941 -12.746898422772
v 2459.99999999926 -866.26419429321 -12.746898422772
cstype bspline
deg 1
curv 0 5 696 697 698 699 700
parm u 0 0 1 2 3 4
end
v 2499.99999999926 -903.65715842598 387.253101577228
v 2499.99999999926 -876.943573593424 -112.746898422772
v 2499.99999999926 212.304969777018 -112.746898422772
v 2499.99999999926 239.059975565673 387.253101577228
v 2499.99999999926 -903.65715842598 387.253101577228
cstype bspline
deg 1
curv 0 5 701 702 703 704 705
parm u 0 0 1 2 3 4
end
v 2459.99999999926 -887.635062159272 387.253101577228
v 2459.99999999926 -860.921477326716 -112.746898422772
v 2459.99999999926 185.163965052096 -112.746898422772
v 2459.99999999926 211.91897084075 387.253101577228
v 2459.99999999926 -887.635062159272 387.253101577228
cstype bspline
deg 1
curv 0 5 706 707 708 709 710
parm u 0 0 1 2 3 4
end
v 2499.9999999982 239.059975564945 387.253101577228
v 2500.00000000027 212.304969777688 -112.746898422772
v 1160.90856394323 748.683776818536 -112.746898422772
v 1158.23710182438 776.508848192549 387.253101577228
v 2499.9999999982 239.059975564945 387.253101577228
cstype bspline
deg 1
curv 0 5 711 712 713 714 715
parm u 0 0 1 2 3 4
end
v 2460.01898911899 211.931855435469 387.253101577228
v 2460.01898912106 185.176849648211 -112.746898422772
v 1169.09107564039 702.26355154466 -112.746898422772
v 1166.41961352154 730.088622918673 387.253101577228
v 2460.01898911899 211.931855435469 387.253101577228
cstype bspline
deg 1
curv 0 5 716 717 718 719 720
parm u 0 0 1 2 3 4
end
v 2459.99999999926 251.537257791962 321.005891032849
v 2459.99999999926 1219.57202036989 217.109298404087
v 1177.44571847216 1735.7527080421 161.709000085154
v 1363.12752968841 688.385364533213 274.120147316504
v 2459.99999999926 251.537257791962 321.005891032849
cstype bspline
deg 1
curv 0 5 721 722 723 724 725
parm u 0 0 1 2 3 4
end
v 2459.99999999926 253.67765825495 361.005891034166
v 2459.99999999926 1225.76027397584 256.674853109353
v 1177.26892954722 1742.0121126552 201.266918342341
v 1363.72302119733 690.288600380183 314.145601564351
v 2459.99999999926 253.67765825495 361.005891034166
cstype bspline
deg 1
curv 0 5 726 727 728 729 730
parm u 0 0 1 2 3 4
end
v 2459.99999999926 233.343853856597 -18.9941089783545
v 2459.99999999926 1166.97186471928 -119.197916590679
v 1178.9484243342 1682.54776883073 -174.533305100925
v 1358.06585186259 672.207859834103 -66.0962137902164
v 2459.99999999926 233.343853856597 -18.9941089783545
cstype bspline
deg 1
curv 0 5 731 732 733 734 735
parm u 0 0 1 2 3 4
end
v 2459.99999999926 235.484254319599 21.0058910229643
v 2459.99999999926 1173.16011832524 -79.6323618854106
v 1178.77163540926 1688.80717344383 -134.975386843736
v 1358.6613433715 674.111095681073 -26.0707595423658
v 2459.99999999926 235.484254319599 21.0058910229643
cstype bspline
deg 1
curv 0 5 736 737 738 739 740
parm u 0 0 1 2 3 4
end
v 2499.99999999926 240.957579000198 422.715688482441
v 2499.99999999926 214.202573212911 -77.2843115340322
v 2499.99999999926 1184.54008142778 -181.428051718457
v 2499.99999999926 1261.89325150099 313.1413820975
v 2499.99999999926 240.957579000198 422.715688482441
cstype bspline
deg 1
curv 0 5 741 742 743 744 745
parm u 0 0 1 2 3 4
end
v 2459.99999999926 256.888258949417 421.005891036143
v 2459.99999999926 230.133253162145 -78.9941089803317
v 2459.99999999926 1157.67458202923 -178.544649226438
v 2459.99999999926 1235.02775210244 316.024784589522
v 2459.99999999926 256.888258949417 421.005891036143
cstype bspline
deg 1
curv 0 5 746 747 748 749 750
parm u 0 0 1 2 3 4
end
v 2499.99999999982 1261.89325150139 313.141382097461
v 2499.9999999987 1184.5400814274 -181.428051718417
v 1171.01438454998 1719.40766463174 -238.833964760758
v 1168.80452298815 1797.65022229552 255.640013454062
v 2499.99999999982 1261.89325150139 313.141382097461
cstype bspline
deg 1
curv 0 5 751 752 753 754 755
parm u 0 0 1 2 3 4
end
v 2460.01387419639 1235.0370705333 316.023784467159
v 2460.01387419526 1157.68390045932 -178.54564934872
v 1179.21360772163 1673.15866191106 -233.8701824867
v 1177.0037461598 1751.40121957484 260.603795728121
v 2460.01387419639 1235.0370705333 316.023784467159
cstype bspline
deg 1
curv 0 5 756 757 758 759 760
parm u 0 0 1 2 3 4
end
v 2459.99999999926 1266.30635375445 236.701039696897
v 2459.99999999926 2459.99999999971 -5.08793662934383
v 1200.54986644452 2459.99999999971 6.11530446186842
v 1334.66609797458 1714.19073386569 155.989915271845
v 2459.99999999926 1266.30635375445 236.701039696897
cstype bspline
deg 1
curv 0 5 761 762 763 764 765
parm u 0 0 1 2 3 4
end
v 2459.99999999926 1272.49382772272 276.261609668315
v 2459.99999999926 2459.99999999971 35.7259389967866
v 1202.08608280878 2459.99999999971 46.9155149163191
v 1335.122293301 1720.1966414912 195.583204454588
v 2459.99999999926 1272.49382772272 276.261609668315
cstype bspline
deg 1
curv 0 5 766 767 768 769 770
parm u 0 0 1 2 3 4
end
v 2459.99999999926 1213.71282502412 -99.5638050600876
v 2459.99999999926 2459.99999999971 -352.00587945139
v 1187.49202734825 2459.99999999971 -340.686484400899
v 1330.78843770007 1663.14051904886 -180.553042781402
v 2459.99999999926 1213.71282502412 -99.5638050600876
cstype bspline
deg 1
curv 0 5 771 772 773 774 775
parm u 0 0 1 2 3 4
end
v 2459.99999999926 1219.90029899239 -60.0032350886734
v 2459.99999999926 2459.99999999971 -311.192003825263
v 1189.02824371251 2459.99999999971 -299.886273946452
v 1331.24463302648 1669.14642667437 -140.959753598666
v 2459.99999999926 1219.90029899239 -60.0032350886734
cstype bspline
deg 1
curv 0 5 776 777 778 779 780
parm u 0 0 1 2 3 4
end
v 2499.99999999926 1265.85498581597 338.4713420059
v 2499.99999999926 1188.51156121252 -156.035782636716
v 2499.99999999926 2499.99999999971 -421.684718672769
v 2499.99999999926 2499.99999999971 88.4887266537614
v 2499.99999999926 1265.85498581597 338.4713420059
cstype bspline
deg 1
curv 0 5 781 782 783 784 785
parm u 0 0 1 2 3 4
end
v 2459.99999999926 1281.77503867513 335.602464625422
v 2459.99999999926 1204.4316140717 -158.904660017194
v 2459.99999999926 2459.32517241137 -413.090002984999
v 2459.99999999926 2459.32517241137 97.0834423415315
v 2459.99999999926 1281.77503867513 335.602464625422
cstype bspline
deg 1
curv 0 5 786 787 788 789 790
parm u 0 0 1 2 3 4
end
v 2499.99999999926 2499.99999999971 88.4887266537608
v 2499.99999999926 2499.99999999971 -421.68471867277
v 1177.99464486491 2499.99999999971 -409.925027421129
v 1197.19734941825 2499.99999999971 100.077603259405
v 2499.99999999926 2499.99999999971 88.4887266537608
cstype bspline
deg 1
curv 0 5 791 792 793 794 795
parm u 0 0 1 2 3 4
end
v 2460.66363166369 2459.99999999971 96.9408492045991
v 2460.66363166369 2459.99999999971 -413.232596121931
v 1185.18770280185 2459.99999999971 -401.886800082557
v 1204.39040735518 2459.99999999971 108.115830597977
v 2460.66363166369 2459.99999999971 96.9408492045991
cstype bspline
deg 1
curv 0 5 796 797 798 799 800
parm u 0 0 1 2 3 4
end
