# type_plates_name_top_to_side_and_side_to_side_outofplane_annen_box.xml
v -509.128226764773 -441.492915046489 630.50180109026
v 340.648429507193 -441.492915046489 -22.1673077949273
v 1004.18898123233 221.078412364499 -217.709982731583
v 158.796320215657 248.46847552809 444.576113068051
v -509.128226764773 -441.492915046489 630.50180109026
cstype bspline
deg 1
curv 0 5 1 2 3 4 5
parm u 0 0 1 2 3 4
end
v -475.2923283864 -441.492915046489 658.39727919182
v 380.489551978091 -441.492915046489 1.1158710298804
v 1028.2999979131 205.3712833178 -189.791206345723
v 177.593430885314 232.933512893534 476.657837901224
v -475.2923283864 -441.492915046489 658.39727919182
cstype bspline
deg 1
curv 0 5 6 7 8 9 10
parm u 0 0 1 2 3 4
end
v -1016.66670244029 -441.492915046489 212.069629566915
v -256.968407556215 -441.492915046489 -371.414990166981
v 642.523731020756 456.68534806525 -636.491628519438
v -123.160339829083 481.492915046896 -36.649759429558
v -1016.66670244029 -441.492915046489 212.069629566915
cstype bspline
deg 1
curv 0 5 11 12 13 14 15
parm u 0 0 1 2 3 4
end
v -982.830804061923 -441.492915046489 239.965107668471
v -217.12728508532 -441.492915046489 -348.131811342177
v 666.63474770153 440.978219018551 -608.572852133581
v -104.363229159433 465.957952412311 -4.56803459638115
v -982.830804061923 -441.492915046489 239.965107668471
cstype bspline
deg 1
curv 0 5 16 17 18 19 20
parm u 0 0 1 2 3 4
end
v -463.260911152189 -481.492915046489 711.019400240068
v -1106.14298034118 -481.492915046489 181.005316310493
v -313.759886802425 -481.492915046489 -427.582791798361
v 443.221440143538 -481.492915046489 14.7976058736839
v -463.260911152189 -481.492915046489 711.019400240068
cstype bspline
deg 1
curv 0 5 21 22 23 24 25
parm u 0 0 1 2 3 4
end
v -424.53848081885 -441.492915046489 700.240496344155
v -1067.42055000784 -441.492915046489 170.22641241458
v -317.858482394331 -441.492915046489 -405.473100054587
v 439.122844551639 -441.492915046489 36.907297617461
v -424.53848081885 -441.492915046489 700.240496344155
cstype bspline
deg 1
curv 0 5 26 27 28 29 30
parm u 0 0 1 2 3 4
end
v 443.221440143578 -481.492915046896 14.7976058734602
v -313.75988680248 -481.492915045965 -427.582791798079
v 648.033663406528 478.895756905578 -711.019400240068
v 1106.14298034118 180.460305017972 -180.562648908777
v 443.221440143578 -481.492915046896 14.7976058734602
cstype bspline
deg 1
curv 0 5 31 32 33 34 35
parm u 0 0 1 2 3 4
end
v 439.227580098879 -442.515075392788 36.3423063632289
v -317.753746847178 -442.515075391857 -406.03809130831
v 606.357205999604 480.246041635342 -678.369793098224
v 1064.46652293426 181.810589747707 -147.913041766937
v 439.227580098879 -442.515075392788 36.3423063632289
cstype bspline
deg 1
curv 0 5 36 37 38 39 40
parm u 0 0 1 2 3 4
end
