# type_plates_name_top_to_side_and_side_to_side_outofplane_annen_corner.xml
v 2142.00812383331 -530.170014651827 1172.48735988095
v 2142.00812383328 -530.170014651827 -318.768161457628
v 2142.00812383328 530.170014651827 -318.768161457628
v 2142.00812383331 530.170014651827 1172.48735988095
v 2142.00812383331 -530.170014651827 1172.48735988095
cstype bspline
deg 1
curv 0 5 1 2 3 4 5
parm u 0 0 1 2 3 4
end
v 2223.41611737943 -530.170014651827 1172.48735988095
v 2223.4161173794 -530.170014651827 -364.483096862165
v 2223.4161173794 530.170014651827 -364.483096862165
v 2223.41611737943 530.170014651827 1172.48735988095
v 2223.41611737943 -530.170014651827 1172.48735988095
cstype bspline
deg 1
curv 0 5 6 7 8 9 10
parm u 0 0 1 2 3 4
end
v 868.697507990728 -530.170014651827 -1094.99177969239
v 2142.00812383328 -530.170014651827 -318.768161457628
v 2142.00812383328 530.170014651827 -318.768161457628
v 868.697507990728 530.170014651827 -1094.99177969239
v 868.697507990728 -530.170014651827 -1094.99177969239
cstype bspline
deg 1
curv 0 5 11 12 13 14 15
parm u 0 0 1 2 3 4
end
v 868.697507990728 -530.170014651827 -1190.33388895175
v 2223.4161173794 -530.170014651827 -364.483096862165
v 2223.4161173794 530.170014651827 -364.483096862165
v 868.697507990728 530.170014651827 -1190.33388895175
v 868.697507990728 -530.170014651827 -1190.33388895175
cstype bspline
deg 1
curv 0 5 16 17 18 19 20
parm u 0 0 1 2 3 4
end
v 868.697507990739 97.4481444578238 396.263741646029
v 2142.00812383329 97.4481444579578 1172.48735988079
v 2142.00812383328 97.4481444582489 -318.768161457628
v 868.697507990728 97.4481444581148 -1094.99177969239
v 868.697507990739 97.4481444578238 396.263741646029
cstype bspline
deg 1
curv 0 5 21 22 23 24 25
parm u 0 0 1 2 3 4
end
v 868.697507990739 -4.39627001469489e-10 396.263741646029
v 2142.00812383329 -3.05590219795704e-10 1172.48735988079
v 2142.00812383328 -1.45519152283669e-11 -318.768161457628
v 868.697507990728 -1.48588696902152e-10 -1094.99177969239
v 868.697507990739 -4.39627001469489e-10 396.263741646029
cstype bspline
deg 1
curv 0 5 26 27 28 29 30
parm u 0 0 1 2 3 4
end
v -632.906073423899 -530.170014651827 1190.33388895175
v -632.906073423932 -530.170014651827 -400.176155003755
v -632.906073423932 530.170014651827 -400.176155003755
v -632.906073423899 530.170014651827 1190.33388895175
v -632.906073423899 -530.170014651827 1190.33388895175
cstype bspline
deg 1
curv 0 5 31 32 33 34 35
parm u 0 0 1 2 3 4
end
v -714.314066970026 -530.170014651827 1190.33388895175
v -714.314066970057 -530.170014651827 -318.768161457628
v -714.314066970057 530.170014651827 -318.768161457628
v -714.314066970026 530.170014651827 1190.33388895175
v -714.314066970026 -530.170014651827 1190.33388895175
cstype bspline
deg 1
curv 0 5 36 37 38 39 40
parm u 0 0 1 2 3 4
end
v -2223.41611737943 -530.170014651827 -400.176155003755
v -632.906073423932 -530.170014651827 -400.176155003755
v -632.906073423932 530.170014651827 -400.176155003755
v -2223.41611737943 530.170014651827 -400.176155003755
v -2223.41611737943 -530.170014651827 -400.176155003755
cstype bspline
deg 1
curv 0 5 41 42 43 44 45
parm u 0 0 1 2 3 4
end
v -2223.41611737943 -530.170014651827 -318.768161457628
v -714.314066970057 -530.170014651827 -318.768161457628
v -714.314066970057 530.170014651827 -318.768161457628
v -2223.41611737943 530.170014651827 -318.768161457628
v -2223.41611737943 -530.170014651827 -318.768161457628
cstype bspline
deg 1
curv 0 5 46 47 48 49 50
parm u 0 0 1 2 3 4
end
v -2223.41611737942 -3.05590219795704e-10 1190.33388895159
v -714.314066970046 -3.05590219795704e-10 1190.33388895159
v -714.314066970057 -1.45519152283669e-11 -318.768161457628
v -2223.41611737943 -1.45519152283669e-11 -318.768161457628
v -2223.41611737942 -3.05590219795704e-10 1190.33388895159
cstype bspline
deg 1
curv 0 5 51 52 53 54 55
parm u 0 0 1 2 3 4
end
v -2223.41611737942 97.4481444579578 1190.33388895159
v -714.314066970046 97.4481444579578 1190.33388895159
v -714.314066970057 97.4481444582489 -318.768161457628
v -2223.41611737943 97.4481444582489 -318.768161457628
v -2223.41611737942 97.4481444579578 1190.33388895159
cstype bspline
deg 1
curv 0 5 56 57 58 59 60
parm u 0 0 1 2 3 4
end
