# type_plates_name_cross_brussels_sports_tower.xml
v -196.937021928024 -186.963938695109 305.937792623638
v -167.572372383909 327.277017659626 -192.843678728816
v 31.5786551082401 332.904970346631 -175.316716716701
v 2.21400556412482 -181.335986008105 323.464754635753
v -196.937021928024 -186.963938695109 305.937792623638
cstype bspline
deg 1
curv 0 5 1 2 3 4 5
parm u 0 0 1 2 3 4
end
v -180.451387020035 -326.22128264343 163.334791259222
v -151.086737475918 188.019673711306 -335.446680093231
v 48.0642900162311 193.64762639831 -317.919718081117
v 18.699640472114 -320.593329956426 180.861753271337
v -180.451387020035 -326.22128264343 163.334791259222
cstype bspline
deg 1
curv 0 5 6 7 8 9 10
parm u 0 0 1 2 3 4
end
v -6.46300374759085 -332.904970346631 -312.327098082633
v -95.8776257493646 44.1192123778219 384.984080689766
v 102.80612401384 50.6030722704445 406.955133029738
v 192.220746015613 -326.421110454009 -290.356045742661
v -6.46300374759085 -332.904970346631 -312.327098082633
cstype bspline
deg 1
curv 0 5 11 12 13 14 15
parm u 0 0 1 2 3 4
end
v -1.74672783517963 -156.770670042665 -406.955133029738
v -91.1613498369534 220.253512681787 290.356045742661
v 107.522399926251 226.73737257441 312.327098082633
v 196.937021928024 -150.286810150043 -384.984080689766
v -1.74672783517963 -156.770670042665 -406.955133029738
cstype bspline
deg 1
curv 0 5 16 17 18 19 20
parm u 0 0 1 2 3 4
end
