# type_plates_name_cross_vda_corner.xml
v 671.508756603364 1356.9351648585 289.582146282077
v -1.81898940354586e-12 969.23940347036 289.582146282077
v -1.81898940354586e-12 193.847880694072 289.582146282077
v 671.508756603364 -193.847880694072 289.582146282077
v 1343.01751320673 193.847880694072 289.582146282077
v 1343.01751320673 969.23940347036 289.582146282077
v 671.508756603364 1356.9351648585 289.582146282077
cstype bspline
deg 1
curv 0 7 1 2 3 4 5 6 7
parm u 0 0 1 2 3 4 5 6
end
v 671.508756603364 1356.9351648585 199.582146282077
v -1.81898940354586e-12 969.23940347036 199.582146282077
v -1.81898940354586e-12 193.847880694072 199.582146282077
v 671.508756603364 -193.847880694072 199.582146282077
v 1343.01751320673 193.847880694072 199.582146282077
v 1343.01751320673 969.23940347036 199.582146282077
v 671.508756603364 1356.9351648585 199.582146282077
cstype bspline
deg 1
curv 0 7 8 9 10 11 12 13 14
parm u 0 0 1 2 3 4 5 6
end
v 671.508756603364 1356.9351648585 -231.244622212942
v -1.81898940354586e-12 969.23940347036 -231.244622212942
v -1.81898940354586e-12 193.847880694072 -231.244622212942
v 671.508756603364 -193.847880694072 -231.244622212942
v 1343.01751320673 193.847880694072 -231.244622212942
v 1343.01751320673 969.23940347036 -231.244622212942
v 671.508756603364 1356.9351648585 -231.244622212942
cstype bspline
deg 1
curv 0 7 15 16 17 18 19 20 21
parm u 0 0 1 2 3 4 5 6
end
v 671.508756603364 1356.9351648585 -321.244622212942
v -1.81898940354586e-12 969.23940347036 -321.244622212942
v -1.81898940354586e-12 193.847880694072 -321.244622212942
v 671.508756603364 -193.847880694072 -321.244622212942
v 1343.01751320673 193.847880694072 -321.244622212942
v 1343.01751320673 969.23940347036 -321.244622212942
v 671.508756603364 1356.9351648585 -321.244622212942
cstype bspline
deg 1
curv 0 7 22 23 24 25 26 27 28
parm u 0 0 1 2 3 4 5 6
end
v -1.81898940354586e-12 193.847880694072 -231.244622212942
v -671.508756603367 -193.847880694072 -231.244622212942
v -671.508756603367 -969.23940347036 -231.244622212942
v -1.81898940354586e-12 -1356.9351648585 -231.244622212942
v 671.508756603364 -969.23940347036 -231.244622212942
v 671.508756603364 -193.847880694072 -231.244622212942
v -1.81898940354586e-12 193.847880694072 -231.244622212942
cstype bspline
deg 1
curv 0 7 29 30 31 32 33 34 35
parm u 0 0 1 2 3 4 5 6
end
v -1.81898940354586e-12 193.847880694072 -321.244622212942
v -671.508756603367 -193.847880694072 -321.244622212942
v -671.508756603367 -969.23940347036 -321.244622212942
v -1.81898940354586e-12 -1356.9351648585 -321.244622212942
v 671.508756603364 -969.23940347036 -321.244622212942
v 671.508756603364 -193.847880694072 -321.244622212942
v -1.81898940354586e-12 193.847880694072 -321.244622212942
cstype bspline
deg 1
curv 0 7 36 37 38 39 40 41 42
parm u 0 0 1 2 3 4 5 6
end
v -1.81898940354586e-12 193.847880694072 289.582146282077
v -671.508756603367 -193.847880694072 289.582146282077
v -671.508756603367 -969.23940347036 289.582146282077
v -1.81898940354586e-12 -1356.9351648585 289.582146282077
v 671.508756603364 -969.23940347036 289.582146282077
v 671.508756603364 -193.847880694072 289.582146282077
v -1.81898940354586e-12 193.847880694072 289.582146282077
cstype bspline
deg 1
curv 0 7 43 44 45 46 47 48 49
parm u 0 0 1 2 3 4 5 6
end
v -1.81898940354586e-12 193.847880694072 199.582146282077
v -671.508756603367 -193.847880694072 199.582146282077
v -671.508756603367 -969.23940347036 199.582146282077
v -1.81898940354586e-12 -1356.9351648585 199.582146282077
v 671.508756603364 -969.23940347036 199.582146282077
v 671.508756603364 -193.847880694072 199.582146282077
v -1.81898940354586e-12 193.847880694072 199.582146282077
cstype bspline
deg 1
curv 0 7 50 51 52 53 54 55 56
parm u 0 0 1 2 3 4 5 6
end
v -671.508756603367 1356.9351648585 289.582146282077
v -1343.01751320673 969.239403470361 289.582146282077
v -1343.01751320673 193.847880694073 289.582146282077
v -671.508756603367 -193.847880694071 289.582146282077
v -3.63797880709171e-12 193.847880694072 289.582146282077
v -1.81898940354586e-12 969.23940347036 289.582146282077
v -671.508756603367 1356.9351648585 289.582146282077
cstype bspline
deg 1
curv 0 7 57 58 59 60 61 62 63
parm u 0 0 1 2 3 4 5 6
end
v -671.508756603367 1356.9351648585 199.582146282077
v -1343.01751320673 969.239403470361 199.582146282077
v -1343.01751320673 193.847880694073 199.582146282077
v -671.508756603367 -193.847880694071 199.582146282077
v -3.63797880709171e-12 193.847880694072 199.582146282077
v -1.81898940354586e-12 969.23940347036 199.582146282077
v -671.508756603367 1356.9351648585 199.582146282077
cstype bspline
deg 1
curv 0 7 64 65 66 67 68 69 70
parm u 0 0 1 2 3 4 5 6
end
v -671.508756603367 1356.9351648585 -231.244622212942
v -1343.01751320673 969.239403470361 -231.244622212942
v -1343.01751320673 193.847880694073 -231.244622212942
v -671.508756603367 -193.847880694071 -231.244622212942
v -3.63797880709171e-12 193.847880694072 -231.244622212942
v -1.81898940354586e-12 969.23940347036 -231.244622212942
v -671.508756603367 1356.9351648585 -231.244622212942
cstype bspline
deg 1
curv 0 7 71 72 73 74 75 76 77
parm u 0 0 1 2 3 4 5 6
end
v -671.508756603367 1356.9351648585 -321.244622212942
v -1343.01751320673 969.239403470361 -321.244622212942
v -1343.01751320673 193.847880694073 -321.244622212942
v -671.508756603367 -193.847880694071 -321.244622212942
v -3.63797880709171e-12 193.847880694072 -321.244622212942
v -1.81898940354586e-12 969.23940347036 -321.244622212942
v -671.508756603367 1356.9351648585 -321.244622212942
cstype bspline
deg 1
curv 0 7 78 79 80 81 82 83 84
parm u 0 0 1 2 3 4 5 6
end
v -318.135553394934 449.829518917929 -438.086452771339
v 273.135553394931 791.200051587105 -438.086452771339
v 273.135553394931 791.200051587105 438.08645277134
v -318.135553394934 449.829518917929 438.08645277134
v -318.135553394934 449.829518917929 -438.086452771339
cstype bspline
deg 1
curv 0 5 85 86 87 88 89
parm u 0 0 1 2 3 4
end
v -363.135553394934 527.771805258528 -438.086452771339
v 228.135553394931 869.142337927704 -438.086452771339
v 228.135553394931 869.142337927704 438.08645277134
v -363.135553394934 527.771805258528 438.08645277134
v -363.135553394934 527.771805258528 -438.086452771339
cstype bspline
deg 1
curv 0 5 90 91 92 93 94
parm u 0 0 1 2 3 4
end
v 653.889931696613 131.714123164288 -438.086452771339
v 62.6188249067482 -209.656409504888 -438.086452771339
v 62.6188249067482 -209.656409504888 438.08645277134
v 653.889931696613 131.714123164288 438.08645277134
v 653.889931696613 131.714123164288 -438.086452771339
cstype bspline
deg 1
curv 0 5 95 96 97 98 99
parm u 0 0 1 2 3 4
end
v 698.889931696613 53.7718368236888 -438.086452771339
v 107.618824906748 -287.598695845487 -438.086452771339
v 107.618824906748 -287.598695845487 438.08645277134
v 698.889931696613 53.7718368236888 438.08645277134
v 698.889931696613 53.7718368236888 -438.086452771339
cstype bspline
deg 1
curv 0 5 100 101 102 103 104
parm u 0 0 1 2 3 4
end
v -204.040255137398 -318.135553394932 -438.086452771339
v -545.410787806573 273.135553394932 -438.086452771339
v -545.410787806573 273.135553394932 438.08645277134
v -204.040255137398 -318.135553394932 438.08645277134
v -204.040255137398 -318.135553394932 -438.086452771339
cstype bspline
deg 1
curv 0 5 105 106 107 108 109
parm u 0 0 1 2 3 4
end
v -281.982541477997 -363.135553394932 -438.086452771339
v -623.353074147172 228.135553394932 -438.086452771339
v -623.353074147172 228.135553394932 438.08645277134
v -281.982541477997 -363.135553394932 438.08645277134
v -281.982541477997 -363.135553394932 -438.086452771339
cstype bspline
deg 1
curv 0 5 110 111 112 113 114
parm u 0 0 1 2 3 4
end
