v -487.708 -262.546 -45.2995
v -487.708 -131.041 -45.2995
v -664.561 -131.041 -45.2995
v -664.561 -262.546 -45.2995
v -487.708 -262.546 -45.2995
curv 0 5 1 2 3 4 5
end
v -487.708 -262.546 -30.2995
v -487.708 -131.041 -30.2995
v -664.561 -131.041 -30.2995
v -664.561 -262.546 -30.2995
v -487.708 -262.546 -30.2995
curv 0 5 6 7 8 9 10
end
v -568.635 -304.546 -126.226
v -568.635 -173.041 -126.226
v -568.635 -173.041 50.6273
v -568.635 -304.546 50.6273
v -568.635 -304.546 -126.226
curv 0 5 11 12 13 14 15
end
v -583.635 -304.546 -126.226
v -583.635 -173.041 -126.226
v -583.635 -173.041 50.6273
v -583.635 -304.546 50.6273
v -583.635 -304.546 -126.226
curv 0 5 16 17 18 19 20
end
v -336.394 -173.591 -122.3
v -429.028 -80.6028 -130.404
v -444.442 -80.6028 45.7764
v -351.808 -173.591 53.8808
v -336.394 -173.591 -122.3
curv 0 5 21 22 23 24 25
end
v -325.828 -162.984 -121.375
v -418.462 -69.9962 -129.48
v -433.875 -69.9962 46.7008
v -341.241 -162.984 54.8052
v -325.828 -162.984 -121.375
curv 0 5 26 27 28 29 30
end
v -200.708 -262.546 -45.2995
v -200.708 -131.041 -45.2995
v -377.561 -131.041 -45.2995
v -377.561 -262.546 -45.2995
v -200.708 -262.546 -45.2995
curv 0 5 31 32 33 34 35
end
v -200.708 -262.546 -30.2995
v -200.708 -131.041 -30.2995
v -377.561 -131.041 -30.2995
v -377.561 -262.546 -30.2995
v -200.708 -262.546 -30.2995
curv 0 5 36 37 38 39 40
end
v 73.2922 -262.546 -45.2995
v 73.2922 -131.041 -45.2995
v -103.561 -131.041 -45.2995
v -103.561 -262.546 -45.2995
v 73.2922 -262.546 -45.2995
curv 0 5 41 42 43 44 45
end
v 73.2922 -262.546 -30.2995
v 73.2922 -131.041 -30.2995
v -103.561 -131.041 -30.2995
v -103.561 -262.546 -30.2995
v 73.2922 -262.546 -30.2995
curv 0 5 46 47 48 49 50
end
v 25.0535 -251.411 -88.4909
v -55.847 -185.658 -168.648
v -121.215 -97.2317 -30.1385
v -40.3144 -162.984 50.0188
v 25.0535 -251.411 -88.4909
curv 0 5 51 52 53 54 55
end
v 14.6081 -262.017 -86.6491
v -66.2925 -196.265 -166.806
v -131.66 -107.838 -28.2967
v -50.7599 -173.591 51.8606
v 14.6081 -262.017 -86.6491
curv 0 5 56 57 58 59 60
end
v 210.887 -189.017 -92.4604
v 123.308 -123.265 -165.262
v 70.2609 -34.8383 -21.582
v 157.84 -100.591 51.2194
v 210.887 -189.017 -92.4604
curv 0 5 61 62 63 64 65
end
v 221.132 -178.411 -95.2056
v 133.553 -112.658 -168.007
v 80.5061 -24.2317 -24.3272
v 168.085 -89.984 48.4742
v 221.132 -178.411 -95.2056
curv 0 5 66 67 68 69 70
end
v 347.292 -262.546 -45.2995
v 347.292 -133.041 -45.2995
v 170.439 -133.041 -45.2995
v 170.439 -262.546 -45.2995
v 347.292 -262.546 -45.2995
curv 0 5 71 72 73 74 75
end
v 347.292 -262.546 -30.2995
v 347.292 -131.041 -30.2995
v 170.439 -131.041 -30.2995
v 170.439 -262.546 -30.2995
v 347.292 -262.546 -30.2995
curv 0 5 76 77 78 79 80
end
v 420.386 -22.3539 53.5545
v 516.294 -177.886 53.5545
v 516.294 -177.886 -132.788
v 420.386 -22.3539 -132.788
v 420.386 -22.3539 53.5545
curv 0 5 81 82 83 84 85
end
v 402.626 -29.0559 53.5545
v 500.433 -187.667 53.5545
v 500.433 -187.667 -132.788
v 402.626 -29.0559 -132.788
v 402.626 -29.0559 53.5545
curv 0 5 86 87 88 89 90
end
v 478.787 -131.041 -48.9337
v 478.787 -305.804 -48.9337
v 665.129 -305.804 -48.9337
v 665.129 -131.041 -48.9337
v 478.787 -131.041 -48.9337
curv 0 5 91 92 93 94 95
end
v 478.787 -131.041 -30.2995
v 478.787 -317.383 -30.2995
v 665.129 -317.383 -30.2995
v 665.129 -131.041 -30.2995
v 478.787 -131.041 -30.2995
curv 0 5 96 97 98 99 100
end
v -665.129 30.5092 -6.76224
v -585.911 30.5092 -6.76224
v -585.911 317.383 -6.76224
v -665.129 317.383 -6.76224
v -665.129 30.5092 -6.76224
curv 0 5 101 102 103 104 105
end
v -665.129 30.5092 -73.0167
v -585.911 30.5092 -73.0167
v -585.911 317.383 -73.0167
v -665.129 317.383 -73.0167
v -665.129 30.5092 -73.0167
curv 0 5 106 107 108 109 110
end
v -643.89 140.819 -183.327
v -564.673 140.819 -183.327
v -564.673 140.819 103.548
v -643.89 140.819 103.548
v -643.89 140.819 -183.327
curv 0 5 111 112 113 114 115
end
v -643.89 207.074 -183.327
v -564.673 207.074 -183.327
v -564.673 207.074 103.548
v -643.89 207.074 103.548
v -643.89 207.074 -183.327
curv 0 5 116 117 118 119 120
end
v -367.387 227.338 -153.727
v -288.169 227.338 -153.727
v -288.169 100.029 103.351
v -367.387 100.029 103.351
v -367.387 227.338 -153.727
curv 0 5 121 122 123 124 125
end
v -367.387 167.965 -183.13
v -288.169 167.965 -183.13
v -288.169 40.6556 73.9482
v -367.387 40.6556 73.9482
v -367.387 167.965 -183.13
curv 0 5 126 127 128 129 130
end
v -339.815 30.5092 -83.1616
v -260.597 30.5092 -83.1616
v -260.597 317.383 -83.1616
v -339.815 317.383 -83.1616
v -339.815 30.5092 -83.1616
curv 0 5 131 132 133 134 135
end
v -339.815 30.5092 -16.9071
v -260.597 30.5092 -16.9071
v -260.597 317.383 -16.9071
v -339.815 317.383 -16.9071
v -339.815 30.5092 -16.9071
curv 0 5 136 137 138 139 140
end
v -265.929 274.933 -186.51
v -186.711 274.933 -186.51
v -186.711 314.188 97.6653
v -265.929 314.188 97.6653
v -265.929 274.933 -186.51
curv 0 5 141 142 143 144 145
end
v -265.929 209.302 -177.444
v -186.711 209.302 -177.444
v -186.711 248.557 106.731
v -265.929 248.557 106.731
v -265.929 209.302 -177.444
curv 0 5 146 147 148 149 150
end
v -10.2908 207.074 -183.327
v 38.7866 207.074 -183.327
v 38.7866 207.074 103.548
v -10.2908 207.074 103.548
v -10.2908 207.074 -183.327
curv 0 5 151 152 153 154 155
end
v -10.2908 140.819 -183.327
v 38.7866 140.819 -183.327
v 38.7866 140.819 103.548
v -10.2908 140.819 103.548
v -10.2908 140.819 -183.327
curv 0 5 156 157 158 159 160
end
v -22.061 30.5092 -6.76224
v 27.0163 30.5092 -6.76224
v 27.0163 317.383 -6.76224
v -22.061 317.383 -6.76224
v -22.061 30.5092 -6.76224
curv 0 5 161 162 163 164 165
end
v -22.061 30.5092 -73.0167
v 27.0163 30.5092 -73.0167
v 27.0163 317.383 -73.0167
v -22.061 317.383 -73.0167
v -22.061 30.5092 -73.0167
curv 0 5 166 167 168 169 170
end
v 512.584 240.495 146.12
v 283.142 49.4571 91.2732
v 276.798 60.0939 78.203
v 505.023 250.118 132.759
v 512.584 240.495 146.12
curv 0 5 171 172 173 174 175
end
v 522.731 231.763 134.088
v 293.289 40.7243 79.2412
v 286.945 51.3611 66.171
v 515.17 241.386 120.727
v 522.731 231.763 134.088
curv 0 5 176 177 178 179 180
end
v 625.313 214.565 45.4429
v 397.484 200.278 177.727
v 391.699 210.087 163.537
v 615.633 224.13 33.5148
v 625.313 214.565 45.4429
curv 0 5 181 182 183 184 185
end
v 629.463 229.718 54.2265
v 401.634 215.431 186.51
v 395.849 225.24 172.321
v 619.783 239.283 42.2984
v 629.463 229.718 54.2265
curv 0 5 186 187 188 189 190
end
v 584.572 103.667 -31.8755
v 586.119 283.288 131.612
v 577.002 291.769 118.332
v 575.482 115.37 -42.2232
v 584.572 103.667 -31.8755
curv 0 5 191 192 193 194 195
end
v 600.102 109.719 -38.6721
v 601.649 289.341 124.816
v 592.532 297.822 111.535
v 591.012 121.422 -49.0198
v 600.102 109.719 -38.6721
curv 0 5 196 197 198 199 200
end
