# type_plates_name_cross_square_reciprocal_two_sides.xml
v -1539.03319208269 -993.468152603493 37.152007032772
v -119.866886463948 -993.468152603494 -228.31669937916
v -88.6089277061837 -993.468152603493 -61.2151134671823
v -1507.77523332493 -993.468152603492 204.25359294475
v -1539.03319208269 -993.468152603493 37.152007032772
cstype bspline
deg 1
curv 0 5 1 2 3 4 5
parm u 0 0 1 2 3 4
end
v -1539.03319208269 -1163.46815260349 37.1520070327725
v -119.866886463948 -1163.46815260349 -228.316699379163
v -88.6089277061837 -1163.46815260349 -61.2151134671851
v -1507.77523332493 -1163.46815260349 204.25359294475
v -1539.03319208269 -1163.46815260349 37.1520070327725
cstype bspline
deg 1
curv 0 5 6 7 8 9 10
parm u 0 0 1 2 3 4
end
v -868.993315670132 -1337.69157268783 16.6508272046392
v -868.993315670137 572.362336466449 -222.570497252122
v -868.993315670145 593.499201562433 -53.8896360558558
v -868.993315670139 -1316.60214142734 185.337625410987
v -868.993315670132 -1337.69157268783 16.6508272046392
cstype bspline
deg 1
curv 0 5 11 12 13 14 15
parm u 0 0 1 2 3 4
end
v -698.993315670135 -1337.69157268782 16.6508272046464
v -698.993315670137 572.36233646645 -222.570497252115
v -698.993315670145 593.499201562435 -53.8896360558487
v -698.993315670139 -1316.60214142734 185.337625410994
v -698.993315670135 -1337.69157268782 16.6508272046464
cstype bspline
deg 1
curv 0 5 16 17 18 19 20
parm u 0 0 1 2 3 4
end
v 722.45562182006 1313.24467199143 219.206995540411
v 722.455621820071 -593.499201562435 -45.2789221656036
v 722.455621820071 -570.142003635151 -213.666692817114
v 722.45562182006 1336.60186991872 50.8192248889005
v 722.45562182006 1313.24467199143 219.206995540411
cstype bspline
deg 1
curv 0 5 21 22 23 24 25
parm u 0 0 1 2 3 4
end
v 892.455621820067 1313.24467199143 219.206995540411
v 892.455621820071 -593.499201562435 -45.278922165602
v 892.455621820071 -570.142003635151 -213.666692817112
v 892.45562182006 1336.60186991872 50.8192248889007
v 892.455621820067 1313.24467199143 219.206995540411
cstype bspline
deg 1
curv 0 5 26 27 28 29 30
parm u 0 0 1 2 3 4
end
v 578.968771015276 302.566770421689 37.1520070327759
v 1998.13507663401 302.56677042169 -228.316699379158
v 2029.39303539179 302.566770421693 -61.2151134671819
v 610.22672977304 302.566770421692 204.253592944754
v 578.968771015276 302.566770421689 37.1520070327759
cstype bspline
deg 1
curv 0 5 31 32 33 34 35
parm u 0 0 1 2 3 4
end
v 578.968771015276 472.566770421689 37.1520070327728
v 1998.13507663401 472.56677042169 -228.316699379162
v 2029.39303539179 472.566770421693 -61.2151134671851
v 610.22672977304 472.566770421692 204.253592944751
v 578.968771015276 472.566770421689 37.1520070327728
cstype bspline
deg 1
curv 0 5 36 37 38 39 40
parm u 0 0 1 2 3 4
end
v 578.968771015276 -993.468152603489 37.1520070327743
v 1998.13507663401 -993.468152603491 -228.31669937916
v 2029.39303539179 -993.468152603493 -61.2151134671835
v 610.22672977304 -993.468152603491 204.253592944752
v 578.968771015276 -993.468152603489 37.1520070327743
cstype bspline
deg 1
curv 0 5 41 42 43 44 45
parm u 0 0 1 2 3 4
end
v 578.968771015276 -1163.46815260349 37.1520070327724
v 1998.13507663401 -1163.46815260349 -228.316699379162
v 2029.39303539179 -1163.46815260349 -61.2151134671853
v 610.22672977304 -1163.46815260349 204.25359294475
v 578.968771015276 -1163.46815260349 37.1520070327724
cstype bspline
deg 1
curv 0 5 46 47 48 49 50
parm u 0 0 1 2 3 4
end
v 1249.00864742784 161.41443570979 16.6508272046391
v 1249.00864742784 2071.46834486407 -222.57049725212
v 1249.00864742783 2092.60520996005 -53.8896360558535
v 1249.00864742783 182.503866970278 185.337625410987
v 1249.00864742784 161.41443570979 16.6508272046391
cstype bspline
deg 1
curv 0 5 51 52 53 54 55
parm u 0 0 1 2 3 4
end
v 1419.00864742784 161.414435709791 16.6508272046499
v 1419.00864742784 2071.46834486407 -222.570497252111
v 1419.00864742783 2092.60520996005 -53.8896360558438
v 1419.00864742783 182.503866970279 185.337625410998
v 1419.00864742784 161.414435709791 16.6508272046499
cstype bspline
deg 1
curv 0 5 56 57 58 59 60
parm u 0 0 1 2 3 4
end
v 1249.00864742783 -1337.69157268783 16.6508272046428
v 1249.00864742783 572.36233646645 -222.570497252117
v 1249.00864742783 593.499201562433 -53.8896360558504
v 1249.00864742783 -1316.60214142734 185.337625410991
v 1249.00864742783 -1337.69157268783 16.6508272046428
cstype bspline
deg 1
curv 0 5 61 62 63 64 65
parm u 0 0 1 2 3 4
end
v 1419.00864742782 -1337.69157268783 16.6508272046429
v 1419.00864742783 572.36233646645 -222.570497252114
v 1419.00864742783 593.499201562434 -53.889636055847
v 1419.00864742783 -1316.60214142734 185.337625410991
v 1419.00864742782 -1337.69157268783 16.6508272046429
cstype bspline
deg 1
curv 0 5 66 67 68 69 70
parm u 0 0 1 2 3 4
end
v -1539.03319208269 302.566770421689 37.1520070327732
v -119.866886463944 302.566770421691 -228.31669937916
v -88.6089277061801 302.566770421692 -61.2151134671821
v -1507.77523332493 302.56677042169 204.253592944751
v -1539.03319208269 302.566770421689 37.1520070327732
cstype bspline
deg 1
curv 0 5 71 72 73 74 75
parm u 0 0 1 2 3 4
end
v -1539.03319208269 472.566770421689 37.1520070327723
v -119.866886463944 472.566770421691 -228.316699379164
v -88.6089277061801 472.566770421692 -61.2151134671859
v -1507.77523332493 472.56677042169 204.25359294475
v -1539.03319208269 472.566770421689 37.1520070327723
cstype bspline
deg 1
curv 0 5 76 77 78 79 80
parm u 0 0 1 2 3 4
end
v -1395.54634127792 1313.24467199143 219.2069955404
v -1395.5463412779 -593.499201562436 -45.2789221656074
v -1395.5463412779 -570.14200363515 -213.666692817118
v -1395.54634127791 1336.60186991872 50.81922488889
v -1395.54634127792 1313.24467199143 219.2069955404
cstype bspline
deg 1
curv 0 5 81 82 83 84 85
parm u 0 0 1 2 3 4
end
v -1225.54634127791 1313.24467199143 219.20699554041
v -1225.5463412779 -593.499201562436 -45.2789221656019
v -1225.5463412779 -570.14200363515 -213.666692817112
v -1225.54634127791 1336.60186991872 50.8192248888992
v -1225.54634127791 1313.24467199143 219.20699554041
cstype bspline
deg 1
curv 0 5 86 87 88 89 90
parm u 0 0 1 2 3 4
end
v -1395.54634127791 -185.861336406182 219.206995540397
v -1395.5463412779 -2092.60520996005 -45.2789221656083
v -1395.5463412779 -2069.24801203277 -213.666692817119
v -1395.5463412779 -162.504138478897 50.8192248888868
v -1395.54634127791 -185.861336406182 219.206995540397
cstype bspline
deg 1
curv 0 5 91 92 93 94 95
parm u 0 0 1 2 3 4
end
v -1225.5463412779 -185.861336406182 219.206995540406
v -1225.5463412779 -2092.60520996005 -45.278922165602
v -1225.5463412779 -2069.24801203277 -213.666692817112
v -1225.5463412779 -162.504138478898 50.8192248888959
v -1225.5463412779 -185.861336406182 219.206995540406
cstype bspline
deg 1
curv 0 5 96 97 98 99 100
parm u 0 0 1 2 3 4
end
v -868.993315670141 161.414435709791 16.6508272046442
v -868.993315670135 2071.46834486407 -222.570497252114
v -868.993315670134 2092.60520996005 -53.8896360558474
v -868.993315670139 182.50386697028 185.337625410992
v -868.993315670141 161.414435709791 16.6508272046442
cstype bspline
deg 1
curv 0 5 101 102 103 104 105
parm u 0 0 1 2 3 4
end
v -698.993315670139 161.41443570979 16.6508272046424
v -698.993315670135 2071.46834486407 -222.570497252117
v -698.993315670139 2092.60520996005 -53.8896360558506
v -698.993315670139 182.503866970279 185.33762541099
v -698.993315670139 161.41443570979 16.6508272046424
cstype bspline
deg 1
curv 0 5 106 107 108 109 110
parm u 0 0 1 2 3 4
end
v 722.455621820071 -185.861336406182 219.206995540412
v 722.45562182006 -2092.60520996005 -45.2789221655885
v 722.455621820056 -2069.24801203277 -213.666692817099
v 722.455621820067 -162.504138478897 50.8192248889015
v 722.455621820071 -185.861336406182 219.206995540412
cstype bspline
deg 1
curv 0 5 111 112 113 114 115
parm u 0 0 1 2 3 4
end
v 892.455621820074 -185.861336406182 219.206995540408
v 892.45562182006 -2092.60520996005 -45.2789221655958
v 892.45562182006 -2069.24801203277 -213.666692817106
v 892.455621820067 -162.504138478898 50.8192248888977
v 892.455621820074 -185.861336406182 219.206995540408
cstype bspline
deg 1
curv 0 5 116 117 118 119 120
parm u 0 0 1 2 3 4
end
v 190.007665878842 161.414435709788 16.6508272046359
v 190.007665878842 2071.46834486406 -222.570497252116
v 190.007665878838 2092.60520996005 -53.8896360558495
v 190.007665878838 182.503866970278 185.337625410984
v 190.007665878842 161.414435709788 16.6508272046359
cstype bspline
deg 1
curv 0 5 121 122 123 124 125
parm u 0 0 1 2 3 4
end
v 360.007665878838 161.414435709789 16.6508272046394
v 360.007665878842 2071.46834486406 -222.570497252117
v 360.007665878842 2092.60520996005 -53.8896360558506
v 360.007665878838 182.503866970279 185.337625410987
v 360.007665878838 161.414435709789 16.6508272046394
cstype bspline
deg 1
curv 0 5 126 127 128 129 130
parm u 0 0 1 2 3 4
end
v -483.660056816654 -1130.51843072317 37.1510785971181
v 935.506248802096 -1130.51843072317 -228.317627814819
v 966.764207559852 -1130.51843072317 -61.2160419028401
v -452.402098058898 -1130.51843072318 204.252664509097
v -483.660056816654 -1130.51843072317 37.1510785971181
cstype bspline
deg 1
curv 0 5 131 132 133 134 135
parm u 0 0 1 2 3 4
end
v -483.660056816654 -960.518430723174 37.1510785971199
v 935.506248802096 -960.518430723172 -228.317627814817
v 966.764207559852 -960.518430723173 -61.2160419028376
v -452.402098058898 -960.518430723176 204.252664509099
v -483.660056816654 -960.518430723174 37.1510785971199
cstype bspline
deg 1
curv 0 5 136 137 138 139 140
parm u 0 0 1 2 3 4
end
v -337.3797692996 1346.08892839576 219.206314467501
v -337.379769299594 -560.654945158108 -45.2796032385131
v -337.37976929959 -537.297747230826 -213.667373890024
v -337.379769299596 1369.44612632304 50.8185438159909
v -337.3797692996 1346.08892839576 219.206314467501
cstype bspline
deg 1
curv 0 5 141 142 143 144 145
parm u 0 0 1 2 3 4
end
v -167.379769299583 1346.08892839576 219.206314467505
v -167.379769299594 -560.65494515811 -45.2796032385006
v -167.379769299594 -537.297747230826 -213.667373890011
v -167.379769299598 1369.44612632304 50.8185438159945
v -167.379769299583 1346.08892839576 219.206314467505
cstype bspline
deg 1
curv 0 5 146 147 148 149 150
parm u 0 0 1 2 3 4
end
v 189.173256308164 -1304.8473162835 16.65014613174
v 189.173256308164 605.206592870774 -222.571178325012
v 189.173256308164 626.34345796676 -53.890317128746
v 189.173256308164 -1283.75788502301 185.336944338088
v 189.173256308164 -1304.8473162835 16.65014613174
cstype bspline
deg 1
curv 0 5 151 152 153 154 155
parm u 0 0 1 2 3 4
end
v 359.173256308157 -1304.8473162835 16.65014613174
v 359.173256308164 605.206592870774 -222.571178325014
v 359.173256308164 626.34345796676 -53.8903171287474
v 359.173256308164 -1283.75788502301 185.336944338088
v 359.173256308157 -1304.8473162835 16.65014613174
cstype bspline
deg 1
curv 0 5 156 157 158 159 160
parm u 0 0 1 2 3 4
end
v -480.866620104387 335.411026826018 37.1513259598702
v 938.299685514354 335.411026826018 -228.317380452063
v 969.557644272118 335.411026826016 -61.2157945400854
v -449.60866134663 335.411026826016 204.252911871849
v -480.866620104387 335.411026826018 37.1513259598702
cstype bspline
deg 1
curv 0 5 161 162 163 164 165
parm u 0 0 1 2 3 4
end
v -480.866620104385 505.411026826015 37.1513259598724
v 938.299685514354 505.411026826018 -228.317380452061
v 969.557644272118 505.411026826016 -61.2157945400834
v -449.608661346629 505.411026826016 204.252911871851
v -480.866620104385 505.411026826015 37.1513259598724
cstype bspline
deg 1
curv 0 5 166 167 168 169 170
parm u 0 0 1 2 3 4
end
v -338.21424202382 -120.172778014867 219.205909130525
v -338.214242023825 -2026.91665156874 -45.2800085754898
v -338.214242023834 -2003.55945364145 -213.667779227
v -338.214242023829 -96.8155800875836 50.8181384790141
v -338.21424202382 -120.172778014867 219.205909130525
cstype bspline
deg 1
curv 0 5 171 172 173 174 175
parm u 0 0 1 2 3 4
end
v -168.214242023823 -120.172778014867 219.205909130515
v -168.214242023827 -2026.91665156873 -45.2800085754978
v -168.214242023827 -2003.55945364145 -213.667779227008
v -168.214242023831 -96.8155800875829 50.818138479005
v -168.214242023823 -120.172778014867 219.205909130515
cstype bspline
deg 1
curv 0 5 176 177 178 179 180
parm u 0 0 1 2 3 4
end
v -631.928049513092 -260.450691090917 234.716995972418
v -2029.39303539179 -260.4506910909 -68.5841963151512
v -1993.33625029467 -260.450691090894 -234.716397433598
v -595.87126441597 -260.450691090911 68.584794853971
v -631.928049513092 -260.450691090917 234.716995972418
cstype bspline
deg 1
curv 0 5 181 182 183 184 185
parm u 0 0 1 2 3 4
end
v -631.928049513095 -430.450691090911 234.716995972411
v -2029.39303539179 -430.4506910909 -68.5841963151531
v -1993.33625029467 -430.450691090895 -234.7163974336
v -595.871264415971 -430.450691090911 68.584794853965
v -631.928049513095 -430.450691090911 234.716995972411
cstype bspline
deg 1
curv 0 5 186 187 188 189 190
parm u 0 0 1 2 3 4
end
v 1486.07391358488 -260.450691090912 234.716995972414
v 88.6089277061765 -260.450691090899 -68.5841963151523
v 124.665712803304 -260.450691090897 -234.716397433598
v 1522.130698682 -260.45069109091 68.5847948539669
v 1486.07391358488 -260.450691090912 234.716995972414
cstype bspline
deg 1
curv 0 5 191 192 193 194 195
parm u 0 0 1 2 3 4
end
v 1486.07391358488 -430.450691090911 234.716995972412
v 88.6089277061765 -430.450691090899 -68.5841963151542
v 124.665712803304 -430.450691090896 -234.7163974336
v 1522.130698682 -430.45069109091 68.5847948539646
v 1486.07391358488 -430.450691090911 234.716995972412
cstype bspline
deg 1
curv 0 5 196 197 198 199 200
parm u 0 0 1 2 3 4
end
v 426.238503328987 -227.606564978147 234.716397433594
v -971.226482549706 -227.606564978134 -68.5847948539695
v -935.169697452582 -227.606564978132 -234.716995972416
v 462.295288426114 -227.606564978146 68.5841963151488
v 426.238503328987 -227.606564978147 234.716397433594
cstype bspline
deg 1
curv 0 5 201 202 203 204 205
parm u 0 0 1 2 3 4
end
v 426.238503328987 -397.606564978147 234.716397433593
v -971.226482549708 -397.606564978134 -68.5847948539711
v -935.169697452584 -397.606564978132 -234.716995972418
v 462.295288426114 -397.606564978146 68.5841963151474
v 426.238503328987 -397.606564978147 234.716397433593
cstype bspline
deg 1
curv 0 5 206 207 208 209 210
parm u 0 0 1 2 3 4
end
v -631.928049513093 1035.58423193429 234.716995972412
v -2029.39303539179 1035.58423193428 -68.5841963151539
v -1993.33625029467 1035.58423193428 -234.7163974336
v -595.87126441597 1035.58423193429 68.5847948539653
v -631.928049513093 1035.58423193429 234.716995972412
cstype bspline
deg 1
curv 0 5 211 212 213 214 215
parm u 0 0 1 2 3 4
end
v -631.928049513095 1205.58423193429 234.716995972413
v -2029.39303539179 1205.58423193428 -68.5841963151524
v -1993.33625029467 1205.58423193428 -234.716397433599
v -595.871264415971 1205.58423193429 68.5847948539667
v -631.928049513095 1205.58423193429 234.716995972413
cstype bspline
deg 1
curv 0 5 216 217 218 219 220
parm u 0 0 1 2 3 4
end
v 1486.07391358488 1035.5842319343 234.716995972415
v 88.6089277061765 1035.58423193428 -68.5841963151537
v 124.665712803304 1035.58423193428 -234.716397433599
v 1522.130698682 1035.58423193429 68.5847948539681
v 1486.07391358488 1035.5842319343 234.716995972415
cstype bspline
deg 1
curv 0 5 221 222 223 224 225
parm u 0 0 1 2 3 4
end
v 1486.07391358488 1205.5842319343 234.716995972413
v 88.6089277061765 1205.58423193428 -68.5841963151545
v 124.665712803304 1205.58423193428 -234.7163974336
v 1522.130698682 1205.58423193429 68.584794853966
v 1486.07391358488 1205.5842319343 234.716995972413
cstype bspline
deg 1
curv 0 5 226 227 228 229 230
parm u 0 0 1 2 3 4
end
v 427.072976053223 1238.65514143248 234.716802770584
v -970.392009825475 1238.65514143249 -68.5843895169829
v -934.335224728351 1238.65514143249 -234.716590635429
v 463.129761150351 1238.65514143248 68.5846016521379
v 427.072976053223 1238.65514143248 234.716802770584
cstype bspline
deg 1
curv 0 5 231 232 233 234 235
parm u 0 0 1 2 3 4
end
v 427.072976053223 1068.65514143248 234.716802770581
v -970.392009825475 1068.65514143249 -68.5843895169839
v -934.335224728351 1068.65514143249 -234.71659063543
v 463.129761150351 1068.65514143248 68.5846016521349
v 427.072976053223 1068.65514143248 234.716802770581
cstype bspline
deg 1
curv 0 5 236 237 238 239 240
parm u 0 0 1 2 3 4
end
