# type_plates_name_cross_corners.xml
v -487.707780261317 -262.545668944569 -45.2995080427285
v -487.707780261317 -131.041055779523 -45.2995080427285
v -664.561369343444 -131.041055779523 -45.2995080427285
v -664.561369343444 -262.545668944569 -45.2995080427285
v -487.707780261317 -262.545668944569 -45.2995080427285
cstype bspline
deg 1
curv 0 5 1 2 3 4 5
parm u 0 0 1 2 3 4
end
v -487.707780261317 -262.545668944569 -30.2995080427318
v -487.707780261317 -131.041055779523 -30.2995080427318
v -664.561369343444 -131.041055779523 -30.2995080427318
v -664.561369343444 -262.545668944569 -30.2995080427318
v -487.707780261317 -262.545668944569 -30.2995080427318
cstype bspline
deg 1
curv 0 5 6 7 8 9 10
parm u 0 0 1 2 3 4
end
v -568.634574802383 -304.545668944569 -126.226302583794
v -568.634574802383 -173.041055779523 -126.226302583794
v -568.634574802381 -173.041055779523 50.6272864983331
v -568.634574802381 -304.545668944569 50.6272864983331
v -568.634574802383 -304.545668944569 -126.226302583794
cstype bspline
deg 1
curv 0 5 11 12 13 14 15
parm u 0 0 1 2 3 4
end
v -583.63457480238 -304.545668944569 -126.226302583794
v -583.63457480238 -173.041055779523 -126.226302583794
v -583.634574802378 -173.041055779523 50.6272864983333
v -583.634574802378 -304.545668944569 50.6272864983333
v -583.63457480238 -304.545668944569 -126.226302583794
cstype bspline
deg 1
curv 0 5 16 17 18 19 20
parm u 0 0 1 2 3 4
end
v -336.393813513703 -173.590565084103 -122.299814509037
v -429.027770573056 -80.6027613577858 -130.404235609278
v -444.441576487097 -80.6027613577844 45.7763721728334
v -351.807619427744 -173.590565084102 53.8807932730743
v -336.393813513703 -173.590565084103 -122.299814509037
cstype bspline
deg 1
curv 0 5 21 22 23 24 25
parm u 0 0 1 2 3 4
end
v -325.827573117664 -162.983963366308 -121.375388258294
v -418.461530177017 -69.9961596399899 -129.479809358535
v -433.875336091058 -69.9961596399885 46.7007984235764
v -341.241379031704 -162.983963366306 54.8052195238174
v -325.827573117664 -162.983963366308 -121.375388258294
cstype bspline
deg 1
curv 0 5 26 27 28 29 30
parm u 0 0 1 2 3 4
end
v -200.707780261317 -262.545668944569 -45.2995080427285
v -200.707780261317 -131.041055779523 -45.2995080427285
v -377.561369343444 -131.041055779523 -45.2995080427285
v -377.561369343444 -262.545668944569 -45.2995080427285
v -200.707780261317 -262.545668944569 -45.2995080427285
cstype bspline
deg 1
curv 0 5 31 32 33 34 35
parm u 0 0 1 2 3 4
end
v -200.707780261317 -262.545668944569 -30.2995080427318
v -200.707780261317 -131.041055779523 -30.2995080427318
v -377.561369343444 -131.041055779523 -30.2995080427318
v -377.561369343444 -262.545668944569 -30.2995080427318
v -200.707780261317 -262.545668944569 -30.2995080427318
cstype bspline
deg 1
curv 0 5 36 37 38 39 40
parm u 0 0 1 2 3 4
end
v 73.292219738683 -262.545668944569 -45.2995080427285
v 73.292219738683 -131.041055779523 -45.2995080427285
v -103.561369343444 -131.041055779523 -45.2995080427285
v -103.561369343444 -262.545668944569 -45.2995080427285
v 73.292219738683 -262.545668944569 -45.2995080427285
cstype bspline
deg 1
curv 0 5 41 42 43 44 45
parm u 0 0 1 2 3 4
end
v 73.292219738683 -262.545668944569 -30.2995080427318
v 73.292219738683 -131.041055779523 -30.2995080427318
v -103.561369343444 -131.041055779523 -30.2995080427318
v -103.561369343444 -262.545668944569 -30.2995080427318
v 73.292219738683 -262.545668944569 -30.2995080427318
cstype bspline
deg 1
curv 0 5 46 47 48 49 50
parm u 0 0 1 2 3 4
end
v 25.0535393293782 -251.41075790737 -88.4908725072808
v -55.8470046338517 -185.658451324848 -168.648214337084
v -121.214933644482 -97.2316567837837 -30.1385473990558
v -40.3143896812525 -162.983963366306 50.0187944307469
v 25.0535393293782 -251.41075790737 -88.4908725072808
cstype bspline
deg 1
curv 0 5 51 52 53 54 55
parm u 0 0 1 2 3 4
end
v 14.6080757245802 -262.017359625166 -86.6490554477464
v -66.2924682386497 -196.265053042644 -166.806397277549
v -131.66039724928 -107.83825850158 -28.2967303395215
v -50.7598532860504 -173.590565084102 51.8606114902812
v 14.6080757245802 -262.017359625166 -86.6490554477464
cstype bspline
deg 1
curv 0 5 56 57 58 59 60
parm u 0 0 1 2 3 4
end
v 210.887044295196 -189.017359625166 -92.4604133075807
v 123.308178662434 -123.265053042644 -165.261785253753
v 70.2609072565206 -34.8382585015796 -21.5819990108387
v 157.839772889283 -100.590565084102 51.2193729353336
v 210.887044295196 -189.017359625166 -92.4604133075807
cstype bspline
deg 1
curv 0 5 61 62 63 64 65
parm u 0 0 1 2 3 4
end
v 221.132234823577 -178.41075790737 -95.2056038359636
v 133.553369190815 -112.658451324848 -168.006975782136
v 80.5060977849016 -24.2316567837836 -24.3271895392216
v 168.084963417664 -89.9839633663061 48.4741824069509
v 221.132234823577 -178.41075790737 -95.2056038359636
cstype bspline
deg 1
curv 0 5 66 67 68 69 70
parm u 0 0 1 2 3 4
end
v 347.292219738683 -262.545668944569 -45.2995080427285
v 347.292219738683 -133.041055779523 -45.2995080427285
v 170.438630656556 -133.041055779523 -45.2995080427285
v 170.438630656556 -262.545668944569 -45.2995080427285
v 347.292219738683 -262.545668944569 -45.2995080427285
cstype bspline
deg 1
curv 0 5 71 72 73 74 75
parm u 0 0 1 2 3 4
end
v 347.292219738683 -262.545668944569 -30.2995080427318
v 347.292219738683 -131.041055779523 -30.2995080427318
v 170.438630656556 -131.041055779523 -30.2995080427318
v 170.438630656556 -262.545668944569 -30.2995080427318
v 347.292219738683 -262.545668944569 -30.2995080427318
cstype bspline
deg 1
curv 0 5 76 77 78 79 80
parm u 0 0 1 2 3 4
end
v 420.38578550407 -22.3538706323275 53.5545307002301
v 516.293746412234 -177.886079022053 53.5545307002301
v 516.293746412234 -177.886079022052 -132.787777617463
v 420.38578550407 -22.3538706323273 -132.787777617463
v 420.38578550407 -22.3538706323275 53.5545307002301
cstype bspline
deg 1
curv 0 5 81 82 83 84 85
parm u 0 0 1 2 3 4
end
v 402.6263327505 -29.0559426272005 53.5545307002301
v 500.432669406191 -187.666712687622 53.5545307002301
v 500.432669406192 -187.666712687622 -132.787777617463
v 402.626332750501 -29.0559426272003 -132.787777617463
v 402.6263327505 -29.0559426272005 53.5545307002301
cstype bspline
deg 1
curv 0 5 86 87 88 89 90
parm u 0 0 1 2 3 4
end
v 478.786583010232 -131.041055779523 -48.9337388745011
v 478.786583010232 -305.804214080174 -48.9337388745011
v 665.128891327925 -305.804214080174 -48.9337388745011
v 665.128891327925 -131.041055779523 -48.9337388745011
v 478.786583010232 -131.041055779523 -48.9337388745011
cstype bspline
deg 1
curv 0 5 91 92 93 94 95
parm u 0 0 1 2 3 4
end
v 478.786583010232 -131.041055779523 -30.2995080427318
v 478.786583010232 -317.383364097216 -30.2995080427318
v 665.128891327925 -317.383364097216 -30.2995080427318
v 665.128891327925 -131.041055779523 -30.2995080427318
v 478.786583010232 -131.041055779523 -30.2995080427318
cstype bspline
deg 1
curv 0 5 96 97 98 99 100
parm u 0 0 1 2 3 4
end
v -665.128891327925 30.5092361155159 -6.76224383932862
v -585.911470614508 30.5092361155159 -6.76224383932862
v -585.911470614508 317.383364097216 -6.76224383932862
v -665.128891327925 317.383364097216 -6.76224383932862
v -665.128891327925 30.5092361155159 -6.76224383932862
cstype bspline
deg 1
curv 0 5 101 102 103 104 105
parm u 0 0 1 2 3 4
end
v -665.128891327925 30.5092361155159 -73.0167311465315
v -585.911470614508 30.5092361155159 -73.0167311465315
v -585.911470614508 317.383364097216 -73.0167311465315
v -665.128891327925 317.383364097216 -73.0167311465315
v -665.128891327925 30.5092361155159 -73.0167311465315
cstype bspline
deg 1
curv 0 5 106 107 108 109 110
parm u 0 0 1 2 3 4
end
v -643.889953211684 140.819056452764 -183.32655148378
v -564.672532498267 140.819056452764 -183.32655148378
v -564.672532498267 140.819056452765 103.54757649792
v -643.889953211684 140.819056452765 103.54757649792
v -643.889953211684 140.819056452764 -183.32655148378
cstype bspline
deg 1
curv 0 5 111 112 113 114 115
parm u 0 0 1 2 3 4
end
v -643.889953211684 207.073543759967 -183.32655148378
v -564.672532498267 207.073543759967 -183.32655148378
v -564.672532498267 207.073543759968 103.54757649792
v -643.889953211684 207.073543759968 103.54757649792
v -643.889953211684 207.073543759967 -183.32655148378
cstype bspline
deg 1
curv 0 5 116 117 118 119 120
parm u 0 0 1 2 3 4
end
v -367.386778077897 227.338036256142 -153.727202199559
v -288.16935736448 227.338036256142 -153.727202199559
v -288.16935736448 100.028594089549 103.350745591556
v -367.386778077897 100.028594089549 103.350745591556
v -367.386778077897 227.338036256142 -153.727202199559
cstype bspline
deg 1
curv 0 5 121 122 123 124 125
parm u 0 0 1 2 3 4
end
v -367.386778077897 167.965071016228 -183.129720577416
v -288.16935736448 167.965071016228 -183.129720577416
v -288.16935736448 40.6556288496342 73.9482272136993
v -367.386778077897 40.6556288496342 73.9482272136993
v -367.386778077897 167.965071016228 -183.129720577416
cstype bspline
deg 1
curv 0 5 126 127 128 129 130
parm u 0 0 1 2 3 4
end
v -339.814762161263 30.5092361155159 -83.1615760885957
v -260.597341447847 30.5092361155159 -83.1615760885957
v -260.597341447847 317.383364097216 -83.1615760885957
v -339.814762161263 317.383364097216 -83.1615760885957
v -339.814762161263 30.5092361155159 -83.1615760885957
cstype bspline
deg 1
curv 0 5 131 132 133 134 135
parm u 0 0 1 2 3 4
end
v -339.814762161263 30.5092361155159 -16.9070887813928
v -260.597341447847 30.5092361155159 -16.9070887813928
v -260.597341447847 317.383364097216 -16.9070887813928
v -339.814762161263 317.383364097216 -16.9070887813928
v -339.814762161263 30.5092361155159 -16.9070887813928
cstype bspline
deg 1
curv 0 5 136 137 138 139 140
parm u 0 0 1 2 3 4
end
v -265.928647716543 274.933011100753 -186.51036454735
v -186.711227003126 274.933011100753 -186.51036454735
v -186.711227003126 314.188223254699 97.665274141137
v -265.928647716543 314.188223254699 97.665274141137
v -265.928647716543 274.933011100753 -186.51036454735
cstype bspline
deg 1
curv 0 5 141 142 143 144 145
parm u 0 0 1 2 3 4
end
v -265.928647716543 209.301748431769 -177.444249126997
v -186.711227003126 209.301748431769 -177.444249126997
v -186.711227003126 248.556960585715 106.73138956149
v -265.928647716543 248.556960585715 106.73138956149
v -265.928647716543 209.301748431769 -177.444249126997
cstype bspline
deg 1
curv 0 5 146 147 148 149 150
parm u 0 0 1 2 3 4
end
v -10.290798256154 207.073543759967 -183.32655148378
v 38.7865997491814 207.073543759967 -183.32655148378
v 38.7865997491814 207.073543759968 103.54757649792
v -10.290798256154 207.073543759968 103.54757649792
v -10.290798256154 207.073543759967 -183.32655148378
cstype bspline
deg 1
curv 0 5 151 152 153 154 155
parm u 0 0 1 2 3 4
end
v -10.290798256154 140.819056452764 -183.32655148378
v 38.7865997491814 140.819056452764 -183.32655148378
v 38.7865997491814 140.819056452765 103.54757649792
v -10.290798256154 140.819056452765 103.54757649792
v -10.290798256154 140.819056452764 -183.32655148378
cstype bspline
deg 1
curv 0 5 156 157 158 159 160
parm u 0 0 1 2 3 4
end
v -22.0610487237685 30.5092361155159 -6.76224383932862
v 27.016349281567 30.5092361155159 -6.76224383932862
v 27.016349281567 317.383364097216 -6.76224383932862
v -22.0610487237685 317.383364097216 -6.76224383932862
v -22.0610487237685 30.5092361155159 -6.76224383932862
cstype bspline
deg 1
curv 0 5 161 162 163 164 165
parm u 0 0 1 2 3 4
end
v -22.0610487237685 30.5092361155159 -73.0167311465315
v 27.016349281567 30.5092361155159 -73.0167311465315
v 27.016349281567 317.383364097216 -73.0167311465315
v -22.0610487237685 317.383364097216 -73.0167311465315
v -22.0610487237685 30.5092361155159 -73.0167311465315
cstype bspline
deg 1
curv 0 5 166 167 168 169 170
parm u 0 0 1 2 3 4
end
v 512.584141923621 240.495352165698 146.119871866189
v 283.141576803857 49.4571200688924 91.2732328029908
v 276.797799755576 60.0938768397723 78.2030492408764
v 505.022804835487 250.118345351065 132.758639099631
v 512.584141923621 240.495352165698 146.119871866189
cstype bspline
deg 1
curv 0 5 171 172 173 174 175
parm u 0 0 1 2 3 4
end
v 522.731434775506 231.762527328755 134.087822242565
v 293.288869655743 40.7242952319498 79.2411831793667
v 286.945092607461 51.3610520028296 66.1709996172523
v 515.170097687373 241.385520514122 120.726589476006
v 522.731434775506 231.762527328755 134.087822242565
cstype bspline
deg 1
curv 0 5 176 177 178 179 180
parm u 0 0 1 2 3 4
end
v 625.313029538264 214.564792690654 45.4428914408242
v 397.484300975703 200.277710697006 177.726743673542
v 391.699498524583 210.086751698433 163.537208573052
v 615.6334728163 224.129594635999 33.5147616586974
v 625.313029538264 214.564792690654 45.4428914408242
cstype bspline
deg 1
curv 0 5 181 182 183 184 185
parm u 0 0 1 2 3 4
end
v 629.462780010668 229.71826012758 54.2265123146328
v 401.634051448107 215.431178133932 186.51036454735
v 395.849248996986 225.240219135359 172.320829446861
v 619.783223288704 239.283062072924 42.298382532506
v 629.462780010668 229.71826012758 54.2265123146328
cstype bspline
deg 1
curv 0 5 186 187 188 189 190
parm u 0 0 1 2 3 4
end
v 584.572125247155 103.666524746536 -31.8754650181675
v 586.119247959283 283.288157805972 131.612274702223
v 577.001816455293 291.769203968609 118.331796897502
v 575.482446852362 115.369719195962 -42.2232128867527
v 584.572125247155 103.666524746536 -31.8754650181675
cstype bspline
deg 1
curv 0 5 191 192 193 194 195
parm u 0 0 1 2 3 4
end
v 600.101952383697 109.718869550992 -38.6720517701402
v 601.649075095825 289.340502610428 124.815687950251
v 592.531643591835 297.821548773065 111.535210145529
v 591.012273988904 121.422064000418 -49.0197996387254
v 600.101952383697 109.718869550992 -38.6720517701402
cstype bspline
deg 1
curv 0 5 196 197 198 199 200
parm u 0 0 1 2 3 4
end
