# type_plates_name_cross_and_sides_corner.xml
v -452.148466593946 -21.3987764690012 57.6622978372823
v -452.148466593946 -421.398776469001 57.6622978372823
v -52.1484665939465 -421.398776469001 57.6622978372823
v -52.1484665939465 -21.3987764690012 57.6622978372823
v -452.148466593946 -21.3987764690012 57.6622978372823
cstype bspline
deg 1
curv 0 5 1 2 3 4 5
parm u 0 0 1 2 3 4
end
v -452.148466593946 -21.3987764690012 17.6622978372823
v -452.148466593946 -396.543122116365 17.6622978372823
v -52.1484665939465 -396.543122116365 17.6622978372823
v -52.1484665939465 -21.3987764690012 17.6622978372823
v -452.148466593946 -21.3987764690012 17.6622978372823
cstype bspline
deg 1
curv 0 5 6 7 8 9 10
parm u 0 0 1 2 3 4
end
v -117.341563027841 -158.577638313968 199.711690554673
v 282.64407153809 -155.187632283011 199.711690554673
v 282.64407153809 -155.18763228301 -200.288309445327
v -117.341563027841 -158.577638313967 -200.288309445327
v -117.341563027841 -158.577638313968 199.711690554673
cstype bspline
deg 1
curv 0 5 11 12 13 14 15
parm u 0 0 1 2 3 4
end
v -117.002562424745 -198.57620177056 199.711690554673
v 282.983072141185 -195.186195739604 199.711690554673
v 282.983072141185 -195.186195739603 -200.288309445327
v -117.002562424745 -198.57620177056 -200.288309445327
v -117.002562424745 -198.57620177056 199.711690554673
cstype bspline
deg 1
curv 0 5 16 17 18 19 20
parm u 0 0 1 2 3 4
end
v 117.8540159302 178.484846106431 318.686994195978
v -169.196281371067 -100.086736829184 318.686994195978
v -169.196281371067 -100.086736829184 -81.3130058040223
v 117.854015930201 178.48484610643 -81.3130058040223
v 117.8540159302 178.484846106431 318.686994195978
cstype bspline
deg 1
curv 0 5 21 22 23 24 25
parm u 0 0 1 2 3 4
end
v 145.711174223761 149.779816376304 318.686994195978
v -141.339123077506 -128.791766559311 318.686994195978
v -141.339123077505 -128.791766559311 -81.3130058040223
v 145.711174223762 149.779816376304 -81.3130058040223
v 145.711174223761 149.779816376304 318.686994195978
cstype bspline
deg 1
curv 0 5 26 27 28 29 30
parm u 0 0 1 2 3 4
end
v -249.713212552835 327.007631675163 318.686994195978
v -246.323206521878 -72.9780028907676 318.686994195978
v -246.323206521877 -72.9780028907678 -81.3130058040223
v -249.713212552834 327.007631675163 -81.3130058040223
v -249.713212552835 327.007631675163 318.686994195978
cstype bspline
deg 1
curv 0 5 31 32 33 34 35
parm u 0 0 1 2 3 4
end
v -289.711776009428 326.668631072067 318.686994195978
v -286.321769978471 -73.3170034938635 318.686994195978
v -286.32176997847 -73.3170034938635 -81.3130058040223
v -289.711776009427 326.668631072067 -81.3130058040223
v -289.711776009428 326.668631072067 318.686994195978
cstype bspline
deg 1
curv 0 5 36 37 38 39 40
parm u 0 0 1 2 3 4
end
v -615.633079288316 197.521154432464 237.662297837282
v -405.683256215518 -142.950682569806 237.662297837282
v -405.683256215517 -142.950682569806 -162.337702162718
v -615.633079288315 197.521154432465 -162.337702162718
v -615.633079288316 197.521154432464 237.662297837282
cstype bspline
deg 1
curv 0 5 41 42 43 44 45
parm u 0 0 1 2 3 4
end
v -577.510866648786 211.907735891886 237.662297837282
v -371.636072515291 -121.955700262527 237.662297837282
v -371.63607251529 -121.955700262526 -162.337702162718
v -577.510866648786 211.907735891887 -162.337702162718
v -577.510866648786 211.907735891886 237.662297837282
cstype bspline
deg 1
curv 0 5 46 47 48 49 50
parm u 0 0 1 2 3 4
end
v -682.968706707116 591.812814603101 237.662297837282
v -615.633079288316 197.521154432465 237.662297837282
v -615.633079288315 197.521154432465 -162.337702162718
v -682.968706707115 591.812814603101 -162.337702162718
v -682.968706707116 591.812814603101 237.662297837282
cstype bspline
deg 1
curv 0 5 51 52 53 54 55
parm u 0 0 1 2 3 4
end
v -643.539540690052 598.546377344981 237.662297837282
v -577.510866648786 211.907735891886 237.662297837282
v -577.510866648785 211.907735891886 -162.337702162718
v -643.539540690051 598.546377344981 -162.337702162718
v -643.539540690052 598.546377344981 237.662297837282
cstype bspline
deg 1
curv 0 5 56 57 58 59 60
parm u 0 0 1 2 3 4
end
v -247.966713009169 120.93875691119 268.792387090861
v -251.408215568314 527.000448958128 268.792387090861
v 261.379164580834 317.770637574238 268.792387090861
v -22.0629042092089 42.7007055249501 268.792387090861
v -247.966713009169 120.93875691119 268.792387090861
cstype bspline
deg 1
curv 0 5 61 62 63 64 65
parm u 0 0 1 2 3 4
end
v -247.966713009169 120.93875691119 228.792387090861
v -251.408215568314 527.000448958128 228.792387090861
v 261.379164580834 317.770637574238 228.792387090861
v -22.0629042092089 42.7007055249501 228.792387090861
v -247.966713009169 120.93875691119 228.792387090861
cstype bspline
deg 1
curv 0 5 66 67 68 69 70
parm u 0 0 1 2 3 4
end
v 282.64407153809 -155.187632283011 199.711690554673
v 682.62970610402 -151.797626252054 199.711690554673
v 682.62970610402 -151.797626252054 -200.288309445327
v 282.64407153809 -155.18763228301 -200.288309445327
v 282.64407153809 -155.187632283011 199.711690554673
cstype bspline
deg 1
curv 0 5 71 72 73 74 75
parm u 0 0 1 2 3 4
end
v 282.983072141185 -195.186195739604 199.711690554673
v 682.968706707116 -191.796189708647 199.711690554673
v 682.968706707116 -191.796189708646 -200.288309445327
v 282.983072141185 -195.186195739603 -200.288309445327
v 282.983072141185 -195.186195739604 199.711690554673
cstype bspline
deg 1
curv 0 5 76 77 78 79 80
parm u 0 0 1 2 3 4
end
v -452.148466593946 -421.398776469001 57.6622978372823
v -452.148466593946 -598.546377344982 -300.97223410838
v -52.1484665939465 -598.546377344982 -300.97223410838
v -52.1484665939465 -421.398776469001 57.6622978372823
v -452.148466593946 -421.398776469001 57.6622978372823
cstype bspline
deg 1
curv 0 5 81 82 83 84 85
parm u 0 0 1 2 3 4
end
v -452.148466593946 -396.543122116365 17.6622978372823
v -452.148466593946 -562.682924150416 -318.686994195978
v -52.1484665939465 -562.682924150416 -318.686994195978
v -52.1484665939465 -396.543122116365 17.6622978372823
v -452.148466593946 -396.543122116365 17.6622978372823
cstype bspline
deg 1
curv 0 5 86 87 88 89 90
parm u 0 0 1 2 3 4
end
