# Rhino

mtllib cross_polylines.mtl
usemtl Default
v -76.766734588347134 426.24890704952793 -27.464460376600627
v -68.223811156399449 421.44695140486476 -29.454355153358023
v -66.513608749080703 427.6586960753333 -37.10219379410529
v -75.056532181028388 432.46065171999646 -35.112299017347894
cstype bspline
deg 1
curv 0 4 1 2 3 4 1
parm u 0 0 1 2 3 4 4
end
usemtl Default
v -75.785028584252615 427.48754259133341 -26.238884872561378
v -67.24210515230493 422.68558694667024 -28.228779649318774
v -65.531902744986184 428.89733161713878 -35.876618290066041
v -74.074826176933868 433.69928726180194 -33.886723513308638
cstype bspline
deg 1
curv 0 4 5 6 7 8 5
parm u 0 0 1 2 3 4 4
end
usemtl Default
v -70.275794255013807 434.43863938286125 -19.361079709933961
v -61.732870823066122 429.63668373819809 -21.350974486691356
v -60.022668415747376 435.84842840866662 -28.998813127438616
v -68.56559184769506 440.65038405332979 -27.00891835068122
cstype bspline
deg 1
curv 0 4 9 10 11 12 9
parm u 0 0 1 2 3 4 4
end
usemtl Default
v -69.294088250919287 435.67727492466673 -18.135504205894712
v -60.751164818971603 430.87531928000357 -20.125398982652108
v -59.040962411652856 437.0870639504721 -27.773237623399368
v -67.583885843600541 441.88901959513527 -25.783342846641972
cstype bspline
deg 1
curv 0 4 13 14 15 16 13
parm u 0 0 1 2 3 4 4
end
usemtl Default
v -46.791554242502492 445.32978292520482 -8.5281220731672924
v -46.791554242502492 437.01692807358035 -14.086579072715161
v -46.791554257497502 442.57538507312819 -22.399433924339682
v -46.791554257497502 450.88823992475267 -16.840976924791811
cstype bspline
deg 1
curv 0 4 17 18 19 20 17
parm u 0 0 1 2 3 4 4
end
usemtl Default
v -44.791554242502492 445.32978292687181 -8.5281220756603204
v -44.791554242502492 437.01692807524734 -14.086579075208185
v -44.791554257497502 442.57538507479518 -22.399433926832707
v -44.791554257497502 450.88823992641966 -16.840976927284839
cstype bspline
deg 1
curv 0 4 21 22 23 24 21
parm u 0 0 1 2 3 4 4
end
usemtl Default
v -34.415670492502493 445.32978292520482 -8.5281220731672924
v -34.415670492502493 437.01692807358035 -14.086579072715161
v -34.415670507497502 442.57538507312819 -22.399433924339682
v -34.415670507497502 450.88823992475267 -16.840976924791811
cstype bspline
deg 1
curv 0 4 25 26 27 28 25
parm u 0 0 1 2 3 4 4
end
usemtl Default
v -32.415670492502493 445.32978292687181 -8.5281220756603204
v -32.415670492502493 437.01692807524734 -14.086579075208185
v -32.415670507497502 442.57538507479518 -22.399433926832707
v -32.415670507497502 450.88823992641966 -16.840976927284839
cstype bspline
deg 1
curv 0 4 29 30 31 32 29
parm u 0 0 1 2 3 4 4
end
usemtl Default
v -22.039786742502489 445.32978292520482 -8.5281220731672924
v -22.039786742502489 437.01692807358035 -14.086579072715161
v -22.039786757497506 442.57538507312819 -22.399433924339682
v -22.039786757497506 450.88823992475267 -16.840976924791811
cstype bspline
deg 1
curv 0 4 33 34 35 36 33
parm u 0 0 1 2 3 4 4
end
usemtl Default
v -20.039786742502489 445.32978292687181 -8.5281220756603204
v -20.039786742502489 437.01692807524734 -14.086579075208185
v -20.039786757497506 442.57538507479518 -22.399433926832707
v -20.039786757497506 450.88823992641966 -16.840976927284839
cstype bspline
deg 1
curv 0 4 37 38 39 40 37
parm u 0 0 1 2 3 4 4
end
usemtl Default
v -71.257651366501847 473.85728026613305 3.4949381092193326
v -80.031813573210883 470.54408723890418 0.025524681176918307
v -78.323390809132547 475.14395368179459 -8.6878283110270367
v -69.549228602423511 478.45714670902345 -5.2184148829846224
cstype bspline
deg 1
curv 0 4 41 42 43 44 41
parm u 0 0 1 2 3 4 4
end
usemtl Default
v -70.361094190867448 472.20968831820545 2.8009453110270357
v -79.135256397576484 468.89649529097659 -0.66846811701537856
v -77.426833633498148 473.49636173386699 -9.3818211092193344
v -68.652671426789112 476.80955476109585 -5.9124076811769193
cstype bspline
deg 1
curv 0 4 45 46 47 48 45
parm u 0 0 1 2 3 4 4
end
usemtl Default
v -65.866049866501854 463.949201266133 -0.67850739078066624
v -74.64021207321089 460.63600823890414 -4.1479208188230814
v -72.931789309132554 465.23587468179454 -12.861273811027036
v -64.157627102423518 468.5490677090234 -9.3918603829846212
cstype bspline
deg 1
curv 0 4 49 50 51 52 49
parm u 0 0 1 2 3 4 4
end
usemtl Default
v -64.969492690867455 462.30160931820541 -1.372500188972964
v -73.743654897576491 458.98841629097655 -4.8419136170153791
v -72.035232133498155 463.58828273386695 -13.555266609219334
v -63.261069926789119 466.90147576109581 -10.085853181176919
cstype bspline
deg 1
curv 0 4 53 54 55 56 53
parm u 0 0 1 2 3 4 4
end
usemtl Default
v -60.474448366501846 454.04112226613302 -4.8519528907806659
v -69.248610573210883 450.72792923890415 -8.3213663188230811
v -67.540187809132547 455.32779568179456 -17.034719311027036
v -58.766025602423511 458.64098870902342 -13.565305882984621
cstype bspline
deg 1
curv 0 4 57 58 59 60 57
parm u 0 0 1 2 3 4 4
end
usemtl Default
v -59.577891190867454 452.39353031820542 -5.5459456889729637
v -68.352053397576483 449.08033729097656 -9.0153591170153788
v -66.643630633498148 453.68020373386696 -17.728712109219334
v -57.869468426789119 456.99339676109582 -14.259298681176919
cstype bspline
deg 1
curv 0 4 61 62 63 64 61
parm u 0 0 1 2 3 4 4
end
usemtl Default
v -136.80383878555142 446.50602211064916 -41.769391371760548
v -129.2217979614523 448.53021260497792 -35.571382838016547
v -124.84102534602552 453.9893484102123 -42.713278073311955
v -132.42306617012463 451.96515791588354 -48.911286607055956
cstype bspline
deg 1
curv 0 4 65 66 67 68 65
parm u 0 0 1 2 3 4 4
end
usemtl Default
v -137.76968532064114 448.13206625645432 -41.118913926688052
v -130.18764449654202 450.15625675078309 -34.92090539294405
v -125.80687188111524 455.61539255601747 -42.062800628239458
v -133.38891270521435 453.5912020616887 -48.26080916198346
cstype bspline
deg 1
curv 0 4 69 70 71 72 69
parm u 0 0 1 2 3 4 4
end
usemtl Default
v -130.45261411888475 435.81346244398253 -46.046808371760548
v -122.87057329478566 437.83765293831129 -39.848799838016546
v -118.48980067935886 443.29678874354568 -46.990695073311954
v -126.07184150345796 441.27259824921691 -53.188703607055956
cstype bspline
deg 1
curv 0 4 73 74 75 76 73
parm u 0 0 1 2 3 4 4
end
usemtl Default
v -131.41846065397448 437.4395065897877 -45.396330926688051
v -123.83641982987538 439.46369708411646 -39.19832239294405
v -119.45564721444859 444.92283288935084 -46.340217628239458
v -127.03768803854769 442.89864239502208 -52.538226161983459
cstype bspline
deg 1
curv 0 4 77 78 79 80 77
parm u 0 0 1 2 3 4 4
end
usemtl Default
v -152.07685344653603 463.4746189801233 -41.470488954805305
v -148.81796814335243 454.58225033563929 -44.680698678684806
v -143.01369533172411 459.14444760647655 -51.425828269000903
v -146.27258063490771 468.03681625096056 -48.215618545121401
cstype bspline
deg 1
curv 0 4 81 82 83 84 81
parm u 0 0 1 2 3 4 4
end
usemtl Default
v -150.58433766827588 463.5415923935235 -40.140860730999094
v -147.32545236509227 454.64922374903949 -43.351070454878595
v -141.52117955346395 459.21142101987675 -50.096200045194692
v -144.78006485664756 468.10378966436076 -46.885990321315191
cstype bspline
deg 1
curv 0 4 85 86 87 88 85
parm u 0 0 1 2 3 4 4
end
usemtl Default
v -141.4905635127144 468.93269989532155 -29.426226820276572
v -133.25257456532194 463.74732064303396 -27.135510750444851
v -128.41515764442909 468.07083521102061 -34.745150644281289
v -136.65314659182155 473.2562144633082 -37.035866714113013
cstype bspline
deg 1
curv 0 4 89 90 91 92 89
parm u 0 0 1 2 3 4 4
end
usemtl Default
v -140.89946502223756 470.40808545564607 -28.212208689052044
v -132.6614760748451 465.22270620335848 -25.92149261922032
v -127.82405915395226 469.54622077134513 -33.531132513056761
v -136.06204810134471 474.73160002363272 -35.821848582888485
cstype bspline
deg 1
curv 0 4 93 94 95 96 93
parm u 0 0 1 2 3 4 4
end
usemtl Default
v -138.49129484604771 476.41889322865484 -23.266227486943244
v -130.25330589865524 471.23351397636725 -20.97551141711152
v -125.41588897776241 475.5570285443539 -28.585151310947957
v -133.65387792515486 480.74240779664149 -30.875867380779681
cstype bspline
deg 1
curv 0 4 97 98 99 100 97
parm u 0 0 1 2 3 4 4
end
usemtl Default
v -137.90019635557093 477.89427878897936 -22.052209355718709
v -129.66220740817846 472.70889953669177 -19.761493285886985
v -124.82479048728563 477.03241410467842 -27.371133179723422
v -133.06277943467808 482.21779335696601 -29.661849249555146
cstype bspline
deg 1
curv 0 4 101 102 103 104 101
parm u 0 0 1 2 3 4 4
end
usemtl Default
v -119.79902784217006 486.96989480382598 -8.4814460541862644
v -118.53767782591444 477.61977986969788 -11.795710204052316
v -114.90203568138261 481.16398096754784 -20.410856446276117
v -116.16338569763823 490.51409590167594 -17.096592296410062
cstype bspline
deg 1
curv 0 4 105 106 107 108 105
parm u 0 0 1 2 3 4 4
end
usemtl Default
v -117.95304731861737 486.94623953245213 -7.7121630537238905
v -116.69169730236175 477.59612459832402 -11.026427203589943
v -113.05605515782992 481.14032569617399 -19.641573445813741
v -114.31740517408554 490.49044063030209 -16.327309295947689
cstype bspline
deg 1
curv 0 4 109 110 111 112 109
parm u 0 0 1 2 3 4 4
end
usemtl Default
v -107.56779534217007 486.81315805382599 -3.3842748041862611
v -106.30644532591445 477.46304311969789 -6.6985389540523128
v -102.67080318138262 481.00724421754785 -15.313685196276111
v -103.93215319763824 490.35735915167595 -11.99942104641006
cstype bspline
deg 1
curv 0 4 113 114 115 116 113
parm u 0 0 1 2 3 4 4
end
usemtl Default
v -105.72181481861737 486.78950278245213 -2.6149918037238882
v -104.46046480236176 477.43938784832403 -5.9292559535899398
v -100.82482265782993 480.983588946174 -14.544402195813738
v -102.08617267408555 490.3337038803021 -11.230138045947687
cstype bspline
deg 1
curv 0 4 117 118 119 120 117
parm u 0 0 1 2 3 4 4
end
usemtl Default
v -95.336562842170082 486.65642130382599 1.7128964458137381
v -94.075212825914463 477.30630636969789 -1.601367704052314
v -90.439570681382634 480.85050746754786 -10.216513946276113
v -91.700920697638253 490.20062240167596 -6.9022497964100609
cstype bspline
deg 1
curv 0 4 121 122 123 124 121
parm u 0 0 1 2 3 4 4
end
usemtl Default
v -93.490582318617385 486.63276603245214 2.4821794462761124
v -92.229232302361766 477.28265109832404 -0.83208470358994013
v -88.593590157829937 480.826852196174 -9.4472309458137396
v -89.854940174085556 490.1769671303021 -6.132966795947687
cstype bspline
deg 1
curv 0 4 125 126 127 128 125
parm u 0 0 1 2 3 4 4
end
usemtl Default
v -79.95731389794129 494.32232497785128 9.8769430233577005
v -71.164854076818287 489.57113092124212 10.2216245145631
v -69.217880785049957 492.49492746928206 0.85889474452218462
v -78.01034060617296 497.24612152589123 0.51421325331678513
cstype bspline
deg 1
curv 0 4 129 130 131 132 129
parm u 0 0 1 2 3 4 4
end
usemtl Default
v -79.087786548283376 495.98217519738455 10.576099255477818
v -70.295326727160372 491.23098114077538 10.920780746683217
v -68.348353435392042 494.15477768881533 1.5580509766423036
v -77.140813256515045 498.90597174542449 1.2133694854369041
cstype bspline
deg 1
curv 0 4 133 134 135 136 133
parm u 0 0 1 2 3 4 4
end
usemtl Default
v -74.376303564607966 504.97597631118464 14.364436023357699
v -65.583843743484962 500.22478225457547 14.709117514563099
v -63.636870451716625 503.14857880261542 5.3463877445221843
v -72.429330272839636 507.89977285922458 5.0017062533167849
cstype bspline
deg 1
curv 0 4 137 138 139 140 137
parm u 0 0 1 2 3 4 4
end
usemtl Default
v -73.506776214950051 506.63582653071791 15.063592255477817
v -64.714316393827048 501.88463247410874 15.408273746683216
v -62.76734310205871 504.80842902214869 6.0455439766423016
v -71.559802923181721 509.55962307875785 5.7008624854369021
cstype bspline
deg 1
curv 0 4 141 142 143 144 141
parm u 0 0 1 2 3 4 4
end
usemtl Default
v -143.27008150438451 510.74618496838264 -13.554921203513295
v -150.16402721169021 506.26812685714197 -19.248822163055323
v -145.09842150027151 508.90670504743878 -27.457204702272932
v -138.20447579296581 513.38476315867945 -21.763303742730905
cstype bspline
deg 1
curv 0 4 145 146 147 148 145
parm u 0 0 1 2 3 4 4
end
usemtl Default
v -142.23445316639516 509.03756095256119 -13.465043964393736
v -149.12839887370086 504.55950284132052 -19.158944923935763
v -144.06279316228216 507.19808103161733 -27.367327463153373
v -137.16884745497646 511.67613914285801 -21.673426503611346
cstype bspline
deg 1
curv 0 4 149 150 151 152 149
parm u 0 0 1 2 3 4 4
end
usemtl Default
v -135.76624983771785 498.3660419683826 -12.903699536846627
v -142.6601955450235 493.88798385714193 -18.597600496388655
v -137.5945898336048 496.52656204743874 -26.805983035606264
v -130.70064412629915 501.00462015867942 -21.112082076064237
cstype bspline
deg 1
curv 0 4 153 154 155 156 153
parm u 0 0 1 2 3 4 4
end
usemtl Default
v -134.7306214997285 496.65741795256116 -12.813822297727068
v -141.62456720703415 492.17935984132049 -18.507723257269095
v -136.55896149561545 494.8179380316173 -26.716105796486705
v -129.6650157883098 499.29599614285797 -21.022204836944677
cstype bspline
deg 1
curv 0 4 157 158 159 160 157
parm u 0 0 1 2 3 4 4
end
usemtl Default
v 58.905912406566173 671.66724578623484 -40.168643282590175
v 66.801666446044365 673.05372597605788 -46.146497482158132
v 62.420310685789119 667.50681071172994 -53.220071737967181
v 54.524556646310927 666.12033052190691 -47.242217538399224
cstype bspline
deg 1
curv 0 4 161 162 163 164 161
parm u 0 0 1 2 3 4 4
end
usemtl Default
v 58.046591980877551 673.3080919549368 -40.923091595366152
v 65.942346020355743 674.69457214475983 -46.90094579493411
v 61.560990260100496 669.1476568804319 -53.974520050743159
v 53.665236220622305 667.76117669060886 -47.996665851175202
cstype bspline
deg 1
curv 0 4 165 166 167 168 165
parm u 0 0 1 2 3 4 4
end
usemtl Default
v 64.245545739899498 661.47137811956816 -35.480662949256846
v 72.14129977937769 662.85785830939119 -41.458517148824804
v 67.759944019122443 657.31094304506325 -48.532091404633853
v 59.864189979644252 655.92446285524022 -42.554237205065895
cstype bspline
deg 1
curv 0 4 169 170 171 172 169
parm u 0 0 1 2 3 4 4
end
usemtl Default
v 63.386225314210876 663.11222428827011 -36.235111262032824
v 71.281979353689067 664.49870447809315 -42.212965461600781
v 66.900623593433821 658.95178921376521 -49.286539717409831
v 59.004869553955629 657.56530902394218 -43.308685517841873
cstype bspline
deg 1
curv 0 4 173 174 175 176 173
parm u 0 0 1 2 3 4 4
end
usemtl Default
v 2.789155610250682 677.60050104386528 -19.588690838356662
v -5.9990680756660373 682.05304814282431 -21.303901839325469
v -7.7113753605276569 675.75483095710888 -28.880211233995773
v 1.0768483253890622 671.30228385814985 -27.165000233026966
cstype bspline
deg 1
curv 0 4 177 178 179 180 177
parm u 0 0 1 2 3 4 4
end
usemtl Default
v 1.8984226938609894 676.3275943762244 -18.329205432670896
v -6.8898009920557302 680.78014147518343 -20.044416433639704
v -8.6021082769173507 674.481924289468 -27.620725828310007
v 0.18611540899936929 670.02937719050897 -25.9055148273412
cstype bspline
deg 1
curv 0 4 181 182 183 184 181
parm u 0 0 1 2 3 4 4
end
usemtl Default
v 8.5465822769173503 685.82818271053202 -27.729621171689999
v -0.2416414089993697 690.28072980949105 -29.444832172658806
v -1.9539486938609898 683.98251262377562 -37.02114156732911
v 6.8342749920557297 679.52996552481659 -35.305930566360303
cstype bspline
deg 1
curv 0 4 185 186 187 188 185
parm u 0 0 1 2 3 4 4
end
usemtl Default
v 7.6558493605276565 684.55527604289114 -26.47013576600423
v -1.1323743253890626 689.00782314185017 -28.185346766973037
v -2.8446816102506824 682.70960595613474 -35.761656161643344
v 5.9435420756660369 678.25705885717571 -34.046445160674537
cstype bspline
deg 1
curv 0 4 189 190 191 192 189
parm u 0 0 1 2 3 4 4
end
usemtl Default
v -75.785028568569274 684.27857182896423 -26.238884860546374
v -67.242105182127702 689.08052749807416 -28.228779773674201
v -65.531902746782507 682.86878266553299 -35.876618276515174
v -74.074826133224079 678.06682699642306 -33.886723363387347
cstype bspline
deg 1
curv 0 4 193 194 195 196 193
parm u 0 0 1 2 3 4 4
end
usemtl Default
v -76.766734586550811 685.517207334467 -27.464460390151483
v -68.223811200109239 690.31916300357693 -29.454355303279311
v -66.513608764764044 684.10741817103576 -37.102193806120283
v -75.056532151205616 679.30546250192583 -35.112298892992456
cstype bspline
deg 1
curv 0 4 197 198 199 200 197
parm u 0 0 1 2 3 4 4
end
usemtl Default
v -69.294088235235947 676.0888398289643 -18.135504193879708
v -60.751164848794382 680.89079549807423 -20.125399107007535
v -59.040962413449186 674.67905066553305 -27.773237609848511
v -67.583885799890751 669.87709499642312 -25.783342696720684
cstype bspline
deg 1
curv 0 4 201 202 203 204 201
parm u 0 0 1 2 3 4 4
end
usemtl Default
v -70.275794253217484 677.32747533446707 -19.361079723484817
v -61.732870866775919 682.129431003577 -21.350974636612644
v -60.022668431430724 675.91768617103583 -28.99881313945362
v -68.565591817872289 671.1157305019259 -27.008918226325793
cstype bspline
deg 1
curv 0 4 205 206 207 208 205
parm u 0 0 1 2 3 4 4
end
usemtl Default
v -129.26066207684235 662.11254496846061 -34.867758042686695
v -137.26877296084038 663.37750272326218 -40.721820046813356
v -132.85216554981767 658.02293162341527 -47.920580170166737
v -124.84405466581961 656.7579738686137 -42.066518166040076
cstype bspline
deg 1
curv 0 4 209 210 211 212 209
parm u 0 0 1 2 3 4 4
end
usemtl Default
v -130.06970445018234 660.44247370991809 -34.121894496499927
v -138.07781533418037 661.70743146471966 -39.975956500626587
v -133.66120792315766 656.35286036487275 -47.174716623979968
v -125.6530970391596 655.08790261007118 -41.320654619853308
cstype bspline
deg 1
curv 0 4 213 214 215 216 213
parm u 0 0 1 2 3 4 4
end
usemtl Default
v -123.84776807684233 673.28614863512723 -39.857954376020032
v -131.85587896084036 674.5511063899288 -45.712016380146693
v -127.43927154981763 669.1965352900819 -52.910776503500074
v -119.43116066581959 667.93157753528033 -47.056714499373413
cstype bspline
deg 1
curv 0 4 217 218 219 220 217
parm u 0 0 1 2 3 4 4
end
usemtl Default
v -124.65681045018235 671.61607737658471 -39.112090829833264
v -132.66492133418038 672.88103513138628 -44.966152833959924
v -128.24831392315767 667.52646403153938 -52.164912957313305
v -120.24020303915961 666.2615062767378 -46.310850953186645
cstype bspline
deg 1
curv 0 4 221 222 223 224 221
parm u 0 0 1 2 3 4 4
end
usemtl Default
v 85.337646478032852 648.29457302964988 -41.531577988519047
v 82.07876110582724 657.18694167103672 -44.741787650909373
v 76.274488294198946 652.62474440019946 -51.48691724122547
v 79.533373666404557 643.73237575881262 -48.276707578835143
cstype bspline
deg 1
curv 0 4 225 226 227 228 225
parm u 0 0 1 2 3 4 4
end
usemtl Default
v 83.845130705801054 648.22759959980044 -40.201949758774532
v 80.586245333595443 657.11996824118728 -43.412159421164858
v 74.781972521967148 652.55777097035002 -50.157289011480955
v 78.04085789417276 643.66540232896318 -46.947079349090629
cstype bspline
deg 1
curv 0 4 229 230 231 232 229
parm u 0 0 1 2 3 4 4
end
usemtl Default
v 72.839379838131904 640.10144113433671 -26.507872145143232
v 64.778730914885131 645.71008600481355 -24.618681404896641
v 59.93463217001834 641.29152876093144 -32.169248220210427
v 67.99528109326512 635.6828838904546 -34.058438960457018
cstype bspline
deg 1
curv 0 4 233 234 235 236 233
parm u 0 0 1 2 3 4 4
end
usemtl Default
v 72.159360829981679 638.70116323906859 -25.252166779789576
v 64.098711906734906 644.30980810954543 -23.362976039542986
v 59.254613161868114 639.89125086566332 -30.913542854856772
v 67.315262085114895 634.28260599518649 -32.802733595103362
cstype bspline
deg 1
curv 0 4 237 238 239 240 237
parm u 0 0 1 2 3 4 4
end
usemtl Default
v -5.9706058905023394 658.36140359476303 -5.0949803293606921
v 2.5663302297065158 662.04037253444312 -8.7808871676221543
v 0.85207807568230176 657.34227865902085 -17.440520733203517
v -7.6848580445265533 653.66330971934076 -13.754613894942054
cstype bspline
deg 1
curv 0 4 241 242 243 244 241
parm u 0 0 1 2 3 4 4
end
usemtl Default
v -6.9541110756823006 659.96630984097919 -5.7709932667964816
v 1.5828250445265546 663.64527878065928 -9.4569001050579438
v -0.13142710949765946 658.94718490523701 -18.116533670639306
v -8.6683632297065145 655.26821596555692 -14.430626832377843
cstype bspline
deg 1
curv 0 4 245 246 247 248 245
parm u 0 0 1 2 3 4 4
end
usemtl Default
v -0.35771939050234092 649.20216684476304 -1.2369593293606949
v 8.1792167297065141 652.88113578444313 -4.9228661676221561
v 6.4649645756823002 648.18304190902086 -13.582499733203516
v -2.071971544526555 644.50407296934077 -9.8965928949420565
cstype bspline
deg 1
curv 0 4 249 250 251 252 249
parm u 0 0 1 2 3 4 4
end
usemtl Default
v -1.3412245756823022 650.8070730909792 -1.9129722667964826
v 7.1957115445265529 654.48604203065929 -5.5988791050579456
v 5.481459390502339 649.78794815523702 -14.258512670639305
v -3.0554767297065162 646.10897921555693 -10.572605832377842
cstype bspline
deg 1
curv 0 4 253 254 255 256 253
parm u 0 0 1 2 3 4 4
end
usemtl Default
v 5.2551671094976591 640.04293009476305 2.6210616706393055
v 13.792103229706516 643.72189903444314 -1.0648451676221571
v 12.0778510756823 639.02380515902087 -9.7244787332035187
v 3.5409149554734451 635.34483621934078 -6.0385718949420557
cstype bspline
deg 1
curv 0 4 257 258 259 260 257
parm u 0 0 1 2 3 4 4
end
usemtl Default
v 4.2716619243176979 641.64783634097921 1.9450487332035178
v 12.808598044526555 645.3268052806593 -1.7408581050579448
v 11.094345890502339 640.62871140523703 -10.400491670639305
v 2.5574097702934839 636.94974246555694 -6.7145848323778434
cstype bspline
deg 1
curv 0 4 261 262 263 264 261
parm u 0 0 1 2 3 4 4
end
usemtl Default
v -44.791554255106554 666.4363322199107 -8.5281220446967296
v -44.791554255106554 674.74918695502186 -14.086579218494036
v -44.79155424489344 669.1907297812246 -22.399433953605268
v -44.79155424489344 660.87787504611345 -16.840976779807963
cstype bspline
deg 1
curv 0 4 265 266 267 268 265
parm u 0 0 1 2 3 4 4
end
usemtl Default
v -46.791554255106554 666.43633221877542 -8.5281220463947314
v -46.791554255106554 674.74918695388658 -14.086579220192034
v -46.79155424489344 669.19072978008933 -22.399433955303266
v -46.79155424489344 660.87787504497817 -16.840976781505965
cstype bspline
deg 1
curv 0 4 269 270 271 272 269
parm u 0 0 1 2 3 4 4
end
usemtl Default
v -32.415670505106554 666.4363322199107 -8.5281220446967296
v -32.415670505106554 674.74918695502186 -14.086579218494036
v -32.41567049489344 669.1907297812246 -22.399433953605268
v -32.41567049489344 660.87787504611345 -16.840976779807963
cstype bspline
deg 1
curv 0 4 273 274 275 276 273
parm u 0 0 1 2 3 4 4
end
usemtl Default
v -34.415670505106554 666.43633221877542 -8.5281220463947314
v -34.415670505106554 674.74918695388658 -14.086579220192034
v -34.41567049489344 669.19072978008933 -22.399433955303266
v -34.41567049489344 660.87787504497817 -16.840976781505965
cstype bspline
deg 1
curv 0 4 277 278 279 280 277
parm u 0 0 1 2 3 4 4
end
usemtl Default
v -20.039786755106554 666.4363322199107 -8.5281220446967296
v -20.039786755106554 674.74918695502186 -14.086579218494036
v -20.039786744893441 669.1907297812246 -22.399433953605268
v -20.039786744893441 660.87787504611345 -16.840976779807963
cstype bspline
deg 1
curv 0 4 281 282 283 284 281
parm u 0 0 1 2 3 4 4
end
usemtl Default
v -22.039786755106554 666.43633221877542 -8.5281220463947314
v -22.039786755106554 674.74918695388658 -14.086579220192034
v -22.039786744893441 669.19072978008933 -22.399433955303266
v -22.039786744893441 660.87787504497817 -16.840976781505965
cstype bspline
deg 1
curv 0 4 285 286 287 288 285
parm u 0 0 1 2 3 4 4
end
usemtl Default
v -70.361094190867448 639.55642668179462 2.8009453110270348
v -79.135256397576484 642.86961970902348 -0.66846811701537856
v -77.426833633498148 638.26975326613297 -9.3818211092193344
v -68.652671426789112 634.9565602389041 -5.9124076811769202
cstype bspline
deg 1
curv 0 4 289 290 291 292 289
parm u 0 0 1 2 3 4 4
end
usemtl Default
v -71.257651366501847 637.90883473386702 3.4949381092193326
v -80.031813573210883 641.22202776109589 0.025524681176919195
v -78.323390809132547 636.62216131820537 -8.6878283110270367
v -69.549228602423511 633.30896829097651 -5.2184148829846224
cstype bspline
deg 1
curv 0 4 293 294 295 296 293
parm u 0 0 1 2 3 4 4
end
usemtl Default
v -64.969492690867455 649.46450568179455 -1.3725001889729649
v -73.743654897576491 652.77769870902341 -4.8419136170153791
v -72.035232133498155 648.1778322661329 -13.555266609219334
v -63.261069926789119 644.86463923890403 -10.085853181176919
cstype bspline
deg 1
curv 0 4 297 298 299 300 297
parm u 0 0 1 2 3 4 4
end
usemtl Default
v -65.866049866501854 647.81691373386695 -0.67850739078066713
v -74.64021207321089 651.13010676109582 -4.1479208188230814
v -72.931789309132554 646.5302403182053 -12.861273811027036
v -64.157627102423518 643.21704729097644 -9.3918603829846212
cstype bspline
deg 1
curv 0 4 301 302 303 304 301
parm u 0 0 1 2 3 4 4
end
usemtl Default
v -59.577891190867454 659.37258468179459 -5.5459456889729637
v -68.352053397576483 662.68577770902345 -9.0153591170153788
v -66.643630633498148 658.08591126613294 -17.728712109219334
v -57.869468426789119 654.77271823890408 -14.259298681176919
cstype bspline
deg 1
curv 0 4 305 306 307 308 305
parm u 0 0 1 2 3 4 4
end
usemtl Default
v -60.474448366501846 657.724992733867 -4.8519528907806659
v -69.248610573210883 661.03818576109586 -8.3213663188230811
v -67.540187809132547 656.43831931820534 -17.034719311027036
v -58.766025602423511 653.12512629097648 -13.565305882984621
cstype bspline
deg 1
curv 0 4 309 310 311 312 309
parm u 0 0 1 2 3 4 4
end
usemtl Default
v -139.00845519040743 636.63805852117719 -24.328389973922413
v -130.77046606609574 641.82343750019425 -22.037673921747555
v -125.9330493505291 637.49992288554984 -29.647313919599853
v -134.1710384748408 632.31454390653278 -31.938029971774711
cstype bspline
deg 1
curv 0 4 313 314 315 316 313
parm u 0 0 1 2 3 4 4
end
usemtl Default
v -139.59955364947089 638.11344411445009 -25.542408080400151
v -131.3615645251592 643.29882309346715 -23.251692028225293
v -126.52414780959256 638.97530847882274 -30.861332026077591
v -134.76213693390426 633.78992949980568 -33.152048078252449
cstype bspline
deg 1
curv 0 4 317 318 319 320 317
parm u 0 0 1 2 3 4 4
end
usemtl Default
v -150.43074758127372 646.36455701217824 -39.199603840194015
v -147.14906353121884 655.30707683199057 -42.242939028417155
v -141.31649325388392 650.85457323172704 -49.03678445273971
v -144.5981773039388 641.91205341191471 -45.99344926451657
cstype bspline
deg 1
curv 0 4 321 322 323 324 321
parm u 0 0 1 2 3 4 4
end
usemtl Default
v -151.9168387461161 646.45545276827306 -40.534995547260294
v -148.63515469606122 655.39797258808539 -43.578330735483434
v -142.8025844187263 650.94546898782187 -50.372176159805989
v -146.08426846878118 642.00294916800954 -47.328840971582849
cstype bspline
deg 1
curv 0 4 325 326 327 328 325
parm u 0 0 1 2 3 4 4
end
usemtl Default
v 66.560550851241061 618.4017447502066 -13.17192315761006
v 73.532456690421895 622.72234025262139 -18.892498607170147
v 68.465729874173405 620.04687379973041 -27.088238880566031
v 61.493824034992564 615.72627829731562 -21.367663431005944
cstype bspline
deg 1
curv 0 4 329 330 331 332 329
parm u 0 0 1 2 3 4 4
end
usemtl Default
v 65.546237125826607 620.12423520026971 -13.107159619433972
v 72.518142965007428 624.4448307026845 -18.827735068994059
v 67.451416148758938 621.76936424979351 -27.023475342389943
v 60.479510309578103 617.44876874737872 -21.302899892829856
cstype bspline
deg 1
curv 0 4 333 334 335 336 333
parm u 0 0 1 2 3 4 4
end
usemtl Default
v 72.385259351241061 608.51032325020651 -13.543828407610061
v 79.357165190421895 612.8309187526213 -19.264403857170148
v 74.290438374173405 610.15545229973031 -27.460144130566032
v 67.318532534992571 605.83485679731552 -21.739568681005945
cstype bspline
deg 1
curv 0 4 337 338 339 340 337
parm u 0 0 1 2 3 4 4
end
usemtl Default
v 71.370945625826593 610.23281370026962 -13.479064869433973
v 78.342851465007428 614.55340920268441 -19.19964031899406
v 73.276124648758937 611.87794274979342 -27.395380592389944
v 66.304218809578103 607.55734724737863 -21.674805142829857
cstype bspline
deg 1
curv 0 4 341 342 343 344 341
parm u 0 0 1 2 3 4 4
end
usemtl Default
v 78.209967851241061 598.61890175020653 -13.915733657610058
v 85.181873690421895 602.93949725262132 -19.636309107170145
v 80.115146874173405 600.26403079973034 -27.83204938056603
v 73.14324103499257 595.94343529731555 -22.111473931005943
cstype bspline
deg 1
curv 0 4 345 346 347 348 345
parm u 0 0 1 2 3 4 4
end
usemtl Default
v 77.195654125826593 600.34139220026964 -13.85097011943397
v 84.167559965007428 604.66198770268443 -19.571545568994058
v 79.100833148758937 601.98652124979344 -27.767285842389942
v 72.128927309578103 597.66592574737865 -22.046710392829855
cstype bspline
deg 1
curv 0 4 349 350 351 352 349
parm u 0 0 1 2 3 4 4
end
usemtl Default
v 28.988771614623683 628.04529196299984 0.67882882892847585
v 27.77709315244309 637.34081846528022 -2.8032714495945683
v 24.129715756127904 633.66133709282701 -11.356519660573731
v 25.341394218308498 624.36581059054663 -7.8744193820506876
cstype bspline
deg 1
curv 0 4 353 354 355 356 353
parm u 0 0 1 2 3 4 4
end
usemtl Default
v 27.1423862438721 628.09202690717314 1.446081660573729
v 25.930707781691506 637.38755340945352 -2.0360186179493152
v 22.28333038537632 633.70807203700031 -10.589266828928478
v 23.495008847556914 624.41254553471992 -7.1071665504054344
cstype bspline
deg 1
curv 0 4 357 358 359 360 357
parm u 0 0 1 2 3 4 4
end
usemtl Default
v 40.837179614623693 627.74538996299987 -4.2446961710715243
v 39.625501152443093 637.04091646528025 -7.7267964495945698
v 35.9781237561279 633.36143509282704 -16.280044660573733
v 37.1898022183085 624.06590859054666 -12.797944382050687
cstype bspline
deg 1
curv 0 4 361 362 363 364 361
parm u 0 0 1 2 3 4 4
end
usemtl Default
v 38.990794243872102 627.79212490717316 -3.4774433394262694
v 37.779115781691502 637.08765140945354 -6.9595436179493149
v 34.131738385376309 633.40817003700033 -15.512791828928478
v 35.343416847556909 624.11264353471995 -12.030691550405432
cstype bspline
deg 1
curv 0 4 365 366 367 368 365
parm u 0 0 1 2 3 4 4
end
usemtl Default
v 52.685587614623685 627.44548796299978 -9.168221171071524
v 51.473909152443085 636.74101446528016 -12.650321449594568
v 47.826531756127906 633.06153309282695 -21.203569660573731
v 49.038210218308507 623.76600659054657 -17.721469382050685
cstype bspline
deg 1
curv 0 4 369 370 371 372 369
parm u 0 0 1 2 3 4 4
end
usemtl Default
v 50.839202243872094 627.49222290717307 -8.4009683394262691
v 49.627523781691494 636.78774940945345 -11.883068617949313
v 45.980146385376315 633.10826803700024 -20.436316828928476
v 47.191824847556916 623.81274153471986 -16.954216550405434
cstype bspline
deg 1
curv 0 4 373 374 375 376 373
parm u 0 0 1 2 3 4 4
end
usemtl Default
v 7.9323475885776782 607.88526909965265 13.912661764595253
v -0.93383839008906588 612.49388120950323 14.301815477967814
v -2.8834609667311035 609.53269339675433 4.9513963137658692
v 5.9827250119356412 604.92408128690374 4.5622426003933079
cstype bspline
deg 1
curv 0 4 377 378 379 380 377
parm u 0 0 1 2 3 4 4
end
usemtl Default
v 7.0935456333977696 606.21204393657911 14.61745168623413
v -1.7726403452689736 610.82065604642969 15.006605399606691
v -3.7222629219110113 607.85946823368079 5.6561862354047463
v 5.1439230567557326 603.2508561238302 5.267032522032185
cstype bspline
deg 1
curv 0 4 381 382 383 384 381
parm u 0 0 1 2 3 4 4
end
usemtl Default
v 13.773647921911012 619.53737676631931 9.0046027645952549
v 4.9074619432442663 624.14598887616989 9.3937564779678127
v 2.9578393666022293 621.18480106342099 0.043337313765868579
v 11.824025345268973 616.57618895357041 -0.34581639960669097
cstype bspline
deg 1
curv 0 4 385 386 387 388 385
parm u 0 0 1 2 3 4 4
end
usemtl Default
v 12.934845966731105 617.86415160324577 9.709392686234132
v 4.0686599880643595 622.47276371309636 10.09854639960669
v 2.1190374114223225 619.51157590034745 0.74812723540474568
v 10.985223390089066 614.90296379049687 0.35897352203218613
cstype bspline
deg 1
curv 0 4 389 390 391 392 389
parm u 0 0 1 2 3 4 4
end
usemtl Default
v -124.96437702499239 560.88305700000001 2.2578053343148876
v -124.96437702499239 550.88305700000001 2.2578053343148876
v -121.09740768243583 550.88305700000001 -6.9642632028262028
v -121.09740768243583 560.88305700000001 -6.9642632028262028
cstype bspline
deg 1
curv 0 4 393 394 395 396 393
parm u 0 0 1 2 3 4 4
end
usemtl Default
v -123.11996331756416 560.88305700000001 3.0311992028262016
v -123.11996331756416 550.88305700000001 3.0311992028262016
v -119.2529939750076 550.88305700000001 -6.1908693343148897
v -119.2529939750076 560.88305700000001 -6.1908693343148897
cstype bspline
deg 1
curv 0 4 397 398 399 400 397
parm u 0 0 1 2 3 4 4
end
usemtl Default
v -111.72139652499239 560.88305700000001 7.8108103343148887
v -111.72139652499239 550.88305700000001 7.8108103343148887
v -107.85442718243583 550.88305700000001 -1.4112582028262026
v -107.85442718243583 560.88305700000001 -1.4112582028262026
cstype bspline
deg 1
curv 0 4 401 402 403 404 401
parm u 0 0 1 2 3 4 4
end
usemtl Default
v -109.87698281756415 560.88305700000001 8.5842042028262018
v -109.87698281756415 550.88305700000001 8.5842042028262018
v -106.0100134750076 550.88305700000001 -0.63786433431488865
v -106.0100134750076 560.88305700000001 -0.63786433431488865
cstype bspline
deg 1
curv 0 4 405 406 407 408 405
parm u 0 0 1 2 3 4 4
end
usemtl Default
v -98.478416024992399 560.88305700000001 13.363815334314889
v -98.478416024992399 550.88305700000001 13.363815334314889
v -94.61144668243584 550.88305700000001 4.1417467971737985
v -94.61144668243584 560.88305700000001 4.1417467971737985
cstype bspline
deg 1
curv 0 4 409 410 411 412 409
parm u 0 0 1 2 3 4 4
end
usemtl Default
v -96.634002317564168 560.88305700000001 14.137209202826202
v -96.634002317564168 550.88305700000001 14.137209202826202
v -92.767032975007609 550.88305700000001 4.9151406656851115
v -92.767032975007609 560.88305700000001 4.9151406656851115
cstype bspline
deg 1
curv 0 4 413 414 415 416 413
parm u 0 0 1 2 3 4 4
end
usemtl Default
v -79.087786548283376 615.78393980261546 10.576099255477818
v -70.295326727160372 620.53513385922463 10.920780746683217
v -68.348353435392042 617.61133731118468 1.5580509766423045
v -77.140813256515045 612.86014325457552 1.213369485436905
cstype bspline
deg 1
curv 0 4 417 418 419 420 417
parm u 0 0 1 2 3 4 4
end
usemtl Default
v -79.95731389794129 617.44379002214862 9.8769430233576987
v -71.164854076818287 622.19498407875778 10.221624514563098
v -69.217880785049957 619.27118753071784 0.8588947445221855
v -78.01034060617296 614.51999347410867 0.51421325331678602
cstype bspline
deg 1
curv 0 4 421 422 423 424 421
parm u 0 0 1 2 3 4 4
end
usemtl Default
v -73.506776214950051 605.13028846928216 15.063592255477818
v -64.714316393827048 609.88148252589133 15.408273746683218
v -62.76734310205871 606.95768597785138 6.0455439766423043
v -71.559802923181721 602.20649192124222 5.7008624854369048
cstype bspline
deg 1
curv 0 4 425 426 427 428 425
parm u 0 0 1 2 3 4 4
end
usemtl Default
v -74.376303564607966 606.79013868881532 14.364436023357698
v -65.583843743484962 611.54133274542448 14.709117514563097
v -63.636870451716625 608.61753619738454 5.3463877445221835
v -72.429330272839636 603.86634214077537 5.001706253316784
cstype bspline
deg 1
curv 0 4 429 430 431 432 429
parm u 0 0 1 2 3 4 4
end
usemtl Default
v -117.95304731861737 624.81987546754794 -7.7121630537238905
v -116.69169730236175 634.16999040167593 -11.026427203589943
v -113.05605515782992 630.62578930382597 -19.641573445813741
v -114.31740517408554 621.27567436969798 -16.327309295947689
cstype bspline
deg 1
curv 0 4 433 434 435 436 433
parm u 0 0 1 2 3 4 4
end
usemtl Default
v -119.79902784217006 624.79622019617409 -8.4814460541862644
v -118.53767782591444 634.14633513030208 -11.795710204052316
v -114.90203568138261 630.60213403245211 -20.410856446276117
v -116.16338569763823 621.25201909832413 -17.096592296410062
cstype bspline
deg 1
curv 0 4 437 438 439 440 437
parm u 0 0 1 2 3 4 4
end
usemtl Default
v -105.72181481861737 624.97661221754788 -2.6149918037238882
v -104.46046480236176 634.32672715167587 -5.9292559535899398
v -100.82482265782993 630.7825260538259 -14.544402195813738
v -102.08617267408555 621.43241111969792 -11.230138045947687
cstype bspline
deg 1
curv 0 4 441 442 443 444 441
parm u 0 0 1 2 3 4 4
end
usemtl Default
v -107.56779534217007 624.95295694617403 -3.3842748041862611
v -106.30644532591445 634.30307188030201 -6.6985389540523128
v -102.67080318138262 630.75887078245205 -15.313685196276111
v -103.93215319763824 621.40875584832406 -11.99942104641006
cstype bspline
deg 1
curv 0 4 445 446 447 448 445
parm u 0 0 1 2 3 4 4
end
usemtl Default
v -93.490582318617385 625.13334896754782 2.4821794462761124
v -92.229232302361766 634.4834639016758 -0.83208470358994013
v -88.593590157829937 630.93926280382584 -9.4472309458137396
v -89.854940174085556 621.58914786969785 -6.132966795947687
cstype bspline
deg 1
curv 0 4 449 450 451 452 449
parm u 0 0 1 2 3 4 4
end
usemtl Default
v -95.336562842170082 625.10969369617396 1.7128964458137381
v -94.075212825914463 634.45980863030195 -1.601367704052314
v -90.439570681382634 630.91560753245199 -10.216513946276113
v -91.700920697638253 621.565492598324 -6.9022497964100609
cstype bspline
deg 1
curv 0 4 453 454 455 456 453
parm u 0 0 1 2 3 4 4
end
usemtl Default
v -142.23445301243402 602.72855404746804 -13.465043995906811
v -149.12839880908041 607.2066122052446 -19.158944810679834
v -144.06279330037131 604.56803396008593 -27.367327457359494
v -137.16884750372492 600.08997580230937 -21.67342664258647
cstype bspline
deg 1
curv 0 4 457 458 459 460 457
parm u 0 0 1 2 3 4 4
end
usemtl Default
v -143.27008136629536 601.01993003991413 -13.554921209307174
v -150.16402716294175 605.49798819769069 -19.248822024080198
v -145.09842165423265 602.85940995253202 -27.457204670759857
v -138.20447585758626 598.38135179475546 -21.763303855986834
cstype bspline
deg 1
curv 0 4 461 462 463 464 461
parm u 0 0 1 2 3 4 4
end
usemtl Default
v -134.7306213457673 615.10869704746801 -12.813822329240143
v -141.6245671424137 619.58675520524457 -18.507723144013166
v -136.55896163370466 616.9481769600859 -26.716105790692826
v -129.66501583705826 612.47011880230934 -21.022204975919802
cstype bspline
deg 1
curv 0 4 465 466 467 468 465
parm u 0 0 1 2 3 4 4
end
usemtl Default
v -135.76624969962864 613.4000730399141 -12.903699542640506
v -142.66019549627504 617.87813119769066 -18.59760035741353
v -137.594589987566 615.23955295253199 -26.805983004093189
v -130.7006441909196 610.76149479475544 -21.112082189320166
cstype bspline
deg 1
curv 0 4 469 470 471 472 469
parm u 0 0 1 2 3 4 4
end
usemtl Default
v 99.013835959276449 586.10660680904766 -26.079094014464431
v 98.021620759177054 595.95784138081922 -27.482192873642411
v 91.579078981823798 594.24723431110237 -34.936552597997867
v 92.571294181923193 584.39599973933082 -33.533453738819887
cstype bspline
deg 1
curv 0 4 473 474 475 476 473
parm u 0 0 1 2 3 4 4
end
usemtl Default
v 97.497140018176182 586.13947068889752 -24.775808402002134
v 96.504924818076788 595.99070526066907 -26.178907261180115
v 90.062383040723532 594.28009819095223 -33.63326698553557
v 91.054598240822926 584.42886361918067 -32.23016812635759
cstype bspline
deg 1
curv 0 4 477 478 479 480 477
parm u 0 0 1 2 3 4 4
end
usemtl Default
v 80.214429647082113 566.09346133411736 -9.8713285619874505
v 72.730063347511049 571.3490903837594 -5.8262544728755046
v 67.480593019120164 570.38195401248117 -14.282477537027397
v 74.964959318691228 565.12632496283913 -18.327551626139343
cstype bspline
deg 1
curv 0 4 481 482 483 484 481
parm u 0 0 1 2 3 4 4
end
usemtl Default
v 79.403816980879839 564.40298198751884 -9.1747751296392721
v 71.919450681308774 569.65861103716088 -5.1297010405273262
v 66.669980352917889 568.69147466588265 -13.585924104679219
v 74.154346652488954 563.43584561624061 -17.630998193791164
cstype bspline
deg 1
curv 0 4 485 486 487 488 485
parm u 0 0 1 2 3 4 4
end
usemtl Default
v 85.733381647082112 577.60287233411736 -14.613722895320784
v 78.249015347511047 582.8585013837594 -10.56864880620884
v 72.999545019120163 581.89136501248117 -19.024871870360734
v 80.483911318691227 576.63573596283914 -23.069945959472676
cstype bspline
deg 1
curv 0 4 489 490 491 492 489
parm u 0 0 1 2 3 4 4
end
usemtl Default
v 84.922768980879837 575.91239298751884 -13.917169462972602
v 77.438402681308773 581.16802203716088 -9.8720953738606578
v 72.188932352917888 580.20088566588265 -18.328318438012552
v 79.673298652488953 574.94525661624061 -22.373392527124494
cstype bspline
deg 1
curv 0 4 493 494 495 496 493
parm u 0 0 1 2 3 4 4
end
usemtl Default
v -49.177174260286705 519.45678347024341 20.583546627071691
v -49.177174260286705 509.65479037131905 18.603412467819567
v -49.177174239713295 511.63492453057114 8.8014193688951003
v -49.177174239713295 521.43691762949561 10.781553528147224
cstype bspline
deg 1
curv 0 4 497 498 499 500 497
parm u 0 0 1 2 3 4 4
end
usemtl Default
v -47.177174260286705 519.45678346942873 20.583546631104898
v -47.177174260286705 509.65479037050437 18.603412471852774
v -47.177174239713295 511.63492452975646 8.8014193729283079
v -47.177174239713295 521.43691762868093 10.781553532180432
cstype bspline
deg 1
curv 0 4 501 502 503 504 501
parm u 0 0 1 2 3 4 4
end
usemtl Default
v -34.363535510286709 519.45678347024341 20.583546627071691
v -34.363535510286709 509.65479037131905 18.603412467819567
v -34.3635354897133 511.63492453057114 8.8014193688951003
v -34.3635354897133 521.43691762949561 10.781553528147224
cstype bspline
deg 1
curv 0 4 505 506 507 508 505
parm u 0 0 1 2 3 4 4
end
usemtl Default
v -32.363535510286709 519.45678346942873 20.583546631104898
v -32.363535510286709 509.65479037050437 18.603412471852774
v -32.3635354897133 511.63492452975646 8.8014193729283079
v -32.3635354897133 521.43691762868093 10.781553532180432
cstype bspline
deg 1
curv 0 4 509 510 511 512 509
parm u 0 0 1 2 3 4 4
end
usemtl Default
v -19.549896760286707 519.45678347024341 20.583546627071691
v -19.549896760286707 509.65479037131905 18.603412467819567
v -19.549896739713297 511.63492453057114 8.8014193688951003
v -19.549896739713297 521.43691762949561 10.781553528147224
cstype bspline
deg 1
curv 0 4 513 514 515 516 513
parm u 0 0 1 2 3 4 4
end
usemtl Default
v -17.549896760286707 519.45678346942873 20.583546631104898
v -17.549896760286707 509.65479037050437 18.603412471852774
v -17.549896739713297 511.63492452975646 8.8014193729283079
v -17.549896739713297 521.43691762868093 10.781553532180432
cstype bspline
deg 1
curv 0 4 517 518 519 520 517
parm u 0 0 1 2 3 4 4
end
usemtl Default
v -1.6417471674590378 583.54808899231682 20.662608797598914
v 7.0888563282734882 587.90926689985929 18.481625106906449
v 5.1377567033505471 586.93463870783319 8.7223571968153699
v -3.592846792381978 582.57346080029072 10.903340887507834
cstype bspline
deg 1
curv 0 4 521 522 523 524 521
parm u 0 0 1 2 3 4 4
end
usemtl Default
v -2.5354982033505462 585.33728129216695 20.662608803184629
v 6.1951052923819798 589.69845919970942 18.481625112492164
v 4.2440056674590387 588.72383100768332 8.7223572024010849
v -4.4865978282734869 584.36265310014085 10.903340893093549
cstype bspline
deg 1
curv 0 4 525 526 527 528 525
parm u 0 0 1 2 3 4 4
end
usemtl Default
v 3.3956400825409623 573.46378799231672 20.662608797598914
v 12.126243578273488 577.82496589985919 18.481625106906449
v 10.175143953350549 576.85033770783309 8.7223571968153699
v 1.4445404576180221 572.48915980029062 10.903340887507834
cstype bspline
deg 1
curv 0 4 529 530 531 532 529
parm u 0 0 1 2 3 4 4
end
usemtl Default
v 2.5018890466494539 575.25298029216685 20.662608803184629
v 11.23249254238198 579.61415819970932 18.481625112492164
v 9.2813929174590406 578.63953000768322 8.7223572024010849
v 0.55078942172651357 574.27835210014075 10.903340893093549
cstype bspline
deg 1
curv 0 4 533 534 535 536 533
parm u 0 0 1 2 3 4 4
end
usemtl Default
v 8.4330273325409628 563.37948699231674 20.662608797598914
v 17.163630828273487 567.74066489985921 18.481625106906449
v 15.212531203350547 566.76603670783311 8.7223571968153699
v 6.4819277076180217 562.40485880029064 10.903340887507834
cstype bspline
deg 1
curv 0 4 537 538 539 540 537
parm u 0 0 1 2 3 4 4
end
usemtl Default
v 7.5392762966494544 565.16867929216687 20.662608803184629
v 16.269879792381978 569.52985719970934 18.481625112492164
v 14.318780167459039 568.55522900768324 8.7223572024010849
v 5.5881766717265133 564.19405110014077 10.903340893093549
cstype bspline
deg 1
curv 0 4 541 542 543 544 541
parm u 0 0 1 2 3 4 4
end
usemtl Default
v -47.177174260286705 592.30933153057128 20.583546631104898
v -47.177174260286705 602.1113246294957 18.603412471852774
v -47.177174239713295 600.1311904702435 8.8014193729283079
v -47.177174239713295 590.32919737131908 10.781553532180432
cstype bspline
deg 1
curv 0 4 545 546 547 548 545
parm u 0 0 1 2 3 4 4
end
usemtl Default
v -49.177174260286705 592.30933152975661 20.583546627071691
v -49.177174260286705 602.11132462868102 18.603412467819567
v -49.177174239713295 600.13119046942882 8.8014193688951003
v -49.177174239713295 590.3291973705044 10.781553528147224
cstype bspline
deg 1
curv 0 4 549 550 551 552 549
parm u 0 0 1 2 3 4 4
end
usemtl Default
v -32.363535510286709 592.30933153057128 20.583546631104898
v -32.363535510286709 602.1113246294957 18.603412471852774
v -32.3635354897133 600.1311904702435 8.8014193729283079
v -32.3635354897133 590.32919737131908 10.781553532180432
cstype bspline
deg 1
curv 0 4 553 554 555 556 553
parm u 0 0 1 2 3 4 4
end
usemtl Default
v -34.363535510286709 592.30933152975661 20.583546627071691
v -34.363535510286709 602.11132462868102 18.603412467819567
v -34.3635354897133 600.13119046942882 8.8014193688951003
v -34.3635354897133 590.3291973705044 10.781553528147224
cstype bspline
deg 1
curv 0 4 557 558 559 560 557
parm u 0 0 1 2 3 4 4
end
usemtl Default
v -17.549896760286707 592.30933153057128 20.583546631104898
v -17.549896760286707 602.1113246294957 18.603412471852774
v -17.549896739713297 600.1311904702435 8.8014193729283079
v -17.549896739713297 590.32919737131908 10.781553532180432
cstype bspline
deg 1
curv 0 4 561 562 563 564 561
parm u 0 0 1 2 3 4 4
end
usemtl Default
v -19.549896760286707 592.30933152975661 20.583546627071691
v -19.549896760286707 602.11132462868102 18.603412467819567
v -19.549896739713297 600.13119046942882 8.8014193688951003
v -19.549896739713297 590.3291973705044 10.781553528147224
cstype bspline
deg 1
curv 0 4 565 566 567 568 565
parm u 0 0 1 2 3 4 4
end
usemtl Default
v -72.056949025036559 568.58301305017892 20.654497714451708
v -80.857030317915545 572.81295841233202 18.49437469204733
v -78.910139683100411 571.87714415298854 8.730468274630244
v -70.110058390221425 567.64719879083543 10.890591297034621
cstype bspline
deg 1
curv 0 4 569 570 571 572 569
parm u 0 0 1 2 3 4 4
end
usemtl Default
v -72.923394316899603 566.78043918034484 20.654497725369755
v -81.723475609778589 571.01038454249795 18.494374702965377
v -79.776584974963455 570.07457028315446 8.7304682855482909
v -70.97650368208447 565.84462492100135 10.890591307952668
cstype bspline
deg 1
curv 0 4 573 574 575 576 573
parm u 0 0 1 2 3 4 4
end
usemtl Default
v -65.59397202503655 582.0287477168456 20.654497714451708
v -74.394053317915535 586.2586930789987 18.49437469204733
v -72.447162683100402 585.32287881965522 8.730468274630244
v -63.647081390221416 581.09293345750211 10.890591297034621
cstype bspline
deg 1
curv 0 4 577 578 579 580 577
parm u 0 0 1 2 3 4 4
end
usemtl Default
v -66.460417316899594 580.22617384701152 20.654497725369755
v -75.26049860977858 584.45611920916463 18.494374702965377
v -73.313607974963446 583.52030494982114 8.7304682855482909
v -64.513526682084461 579.29035958766804 10.890591307952668
cstype bspline
deg 1
curv 0 4 581 582 583 584 581
parm u 0 0 1 2 3 4 4
end
usemtl Default
v -72.923394345689445 544.98567519158223 20.654497723328156
v -81.723475597623207 540.75572974424585 18.494374700923778
v -79.776584962808073 541.69154400358934 8.7304682835066885
v -70.976503710874312 545.92148945092572 10.890591305911066
cstype bspline
deg 1
curv 0 4 585 586 587 588 585
parm u 0 0 1 2 3 4 4
end
usemtl Default
v -72.056949037191941 543.18310132974398 20.65449771649331
v -80.857030289125703 538.9531558824076 18.494374694088933
v -78.910139654310569 539.88897014175109 8.7304682766718429
v -70.110058402376808 544.11891558908746 10.89059129907622
cstype bspline
deg 1
curv 0 4 589 590 591 592 589
parm u 0 0 1 2 3 4 4
end
usemtl Default
v -66.460417345689436 531.53994085824888 20.654497723328156
v -75.260498597623197 527.30999541091251 18.494374700923778
v -73.313607962808064 528.24580967025599 8.7304682835066885
v -64.513526710874302 532.47575511759237 10.890591305911066
cstype bspline
deg 1
curv 0 4 593 594 595 596 593
parm u 0 0 1 2 3 4 4
end
usemtl Default
v -65.593972037191932 529.73736699641063 20.65449771649331
v -74.394053289125694 525.50742154907425 18.494374694088933
v -72.44716265431056 526.44323580841774 8.7304682766718429
v -63.647081402376799 530.67318125575412 10.89059129907622
cstype bspline
deg 1
curv 0 4 597 598 599 600 597
parm u 0 0 1 2 3 4 4
end
usemtl Default
v -151.90644376938513 575.9690290718155 -14.075450841495453
v -144.34902364716015 581.05500040742061 -9.9501270154678139
v -139.10410751303766 580.12616771903197 -18.413467052533694
v -146.66152763526264 575.04019638342686 -22.538790878561329
cstype bspline
deg 1
curv 0 4 601 602 603 604 601
parm u 0 0 1 2 3 4 4
end
usemtl Default
v -152.69069515362901 577.68098894763477 -14.749352280799641
v -145.13327503140403 582.76696028323988 -10.624028454772002
v -139.88835889728153 581.83812759485124 -19.087368491837882
v -147.44577901950652 576.75215625924614 -23.212692317865518
cstype bspline
deg 1
curv 0 4 605 606 607 608 605
parm u 0 0 1 2 3 4 4
end
usemtl Default
v -146.63357610271845 564.45876840514882 -9.5445145081621163
v -139.07615598049347 569.54473974075393 -5.4191906821344817
v -133.83123984637098 568.61590705236529 -13.882530719200361
v -141.38865996859596 563.52993571676018 -18.007854545227996
cstype bspline
deg 1
curv 0 4 609 610 611 612 609
parm u 0 0 1 2 3 4 4
end
usemtl Default
v -147.41782748696232 566.17072828096809 -10.218415947466305
v -139.86040736473734 571.2566996165732 -6.0930921214386702
v -134.61549123061485 570.32786692818456 -14.556432158504549
v -142.17291135283983 565.24189559257945 -18.681755984532185
cstype bspline
deg 1
curv 0 4 613 614 615 616 613
parm u 0 0 1 2 3 4 4
end
usemtl Default
v -164.22406782524592 586.14122275233251 -24.7063332390134
v -163.23185279583345 595.99245730893733 -26.109432325379576
v -156.78931119858561 594.28185017439034 -33.563792190516793
v -157.78152622799809 584.43061561778552 -32.160693104150617
cstype bspline
deg 1
curv 0 4 617 618 619 620 617
parm u 0 0 1 2 3 4 4
end
usemtl Default
v -165.7407638014144 586.1083588256098 -26.009618809483204
v -164.74854877200193 595.95959338221462 -27.412717895849379
v -158.30600717475409 594.24898624766763 -34.867077760986597
v -159.29822220416656 584.39775169106281 -33.463978674620421
cstype bspline
deg 1
curv 0 4 621 622 623 624 621
parm u 0 0 1 2 3 4 4
end
usemtl Default
v -165.74076385672237 525.65775621603075 -26.009618920075575
v -164.74854886724262 515.80652164882304 -27.412717960237472
v -158.30600708988936 517.51712871853988 -34.867077684592928
v -159.29822207936911 527.36836328574759 -33.46397864443103
cstype bspline
deg 1
curv 0 4 625 626 627 628 625
parm u 0 0 1 2 3 4 4
end
usemtl Default
v -164.22406791011065 525.62489228146023 -24.706333315407065
v -163.2318529206309 515.77365771425252 -26.109432355568963
v -156.78931114327764 517.48426478396937 -33.563792079924418
v -157.78152613275739 527.33549935117708 -32.160693039762521
cstype bspline
deg 1
curv 0 4 629 630 631 632 629
parm u 0 0 1 2 3 4 4
end
usemtl Default
v -152.69069513843834 534.08512577940326 -14.749352264760031
v -145.13327506565082 528.99915433587978 -10.624028481213664
v -139.88835893152833 529.92798702426842 -19.087368518279543
v -147.44577900431585 535.01395846779189 -23.212692301825907
cstype bspline
deg 1
curv 0 4 633 634 635 636 633
parm u 0 0 1 2 3 4 4
end
usemtl Default
v -151.90644373513834 535.7970856423982 -14.075450815053788
v -144.34902366235082 530.71111419887472 -9.9501270315074208
v -139.10410752822833 531.63994688726336 -18.413467068573301
v -146.66152760101585 536.72591833078684 -22.538790852119664
cstype bspline
deg 1
curv 0 4 637 638 639 640 637
parm u 0 0 1 2 3 4 4
end
usemtl Default
v -147.41782747177166 545.59538611273661 -10.218415931426698
v -139.86040739898414 540.50941466921313 -6.0930921478803315
v -134.61549126486165 541.43824735760177 -14.55643218494621
v -142.17291133764917 546.52421880112524 -18.681755968492578
cstype bspline
deg 1
curv 0 4 641 642 643 644 641
parm u 0 0 1 2 3 4 4
end
usemtl Default
v -146.63357606847165 547.30734597573155 -9.544514481720455
v -139.07615599568413 542.22137453220807 -5.4191906981740887
v -133.83123986156164 543.15020722059671 -13.882530735239968
v -141.38865993434916 548.23617866412019 -18.007854518786335
cstype bspline
deg 1
curv 0 4 645 646 647 648 645
parm u 0 0 1 2 3 4 4
end
usemtl Default
v 72.730063383212695 540.41702390196303 -5.8262545004836923
v 80.214429630638648 545.67265306035017 -9.8713285447877297
v 74.964959302247763 546.6397894316284 -18.327551608939622
v 67.48059305482181 541.38416027324126 -14.282477564635585
cstype bspline
deg 1
curv 0 4 649 650 651 652 649
parm u 0 0 1 2 3 4 4
end
usemtl Default
v 71.919450697752239 542.10750323503828 -5.129701057727047
v 79.403816945178193 547.36313239342542 -9.1747751020310844
v 74.154346616787308 548.33026876470365 -17.630998166182977
v 66.669980369361355 543.07463960631651 -13.585924121878939
cstype bspline
deg 1
curv 0 4 653 654 655 656 653
parm u 0 0 1 2 3 4 4
end
usemtl Default
v 78.249015383212694 528.90761323529637 -10.568648833817026
v 85.733381630638647 534.1632423936835 -14.613722878121063
v 80.483911302247762 535.13037876496173 -23.069945942272955
v 72.999545054821809 529.8747496065746 -19.024871897968918
cstype bspline
deg 1
curv 0 4 657 658 659 660 657
parm u 0 0 1 2 3 4 4
end
usemtl Default
v 77.438402697752238 530.59809256837161 -9.8720953910603804
v 84.922768945178191 535.85372172675875 -13.917169435364418
v 79.673298616787307 536.82085809803698 -22.37339249951631
v 72.188932369361353 531.56522893964984 -18.328318455212273
cstype bspline
deg 1
curv 0 4 661 662 663 664 661
parm u 0 0 1 2 3 4 4
end
usemtl Default
v 32.152027481394356 550.88305700000001 13.493381394651507
v 32.152027481394356 560.88305700000001 13.493381394651507
v 28.272930265117335 560.88305700000001 4.2764076620930886
v 28.272930265117335 550.88305700000001 4.2764076620930886
cstype bspline
deg 1
curv 0 4 665 666 667 668 665
parm u 0 0 1 2 3 4 4
end
usemtl Default
v 30.308632734882668 550.88305700000001 14.269200837906912
v 30.308632734882668 560.88305700000001 14.269200837906912
v 26.42953551860565 560.88305700000001 5.0522271053484928
v 26.42953551860565 550.88305700000001 5.0522271053484928
cstype bspline
deg 1
curv 0 4 669 670 671 672 669
parm u 0 0 1 2 3 4 4
end
usemtl Default
v 45.029517981394349 550.88305700000001 8.0737026446515081
v 45.029517981394349 560.88305700000001 8.0737026446515081
v 41.150420765117332 560.88305700000001 -1.1432710879069115
v 41.150420765117332 550.88305700000001 -1.1432710879069115
cstype bspline
deg 1
curv 0 4 673 674 675 676 673
parm u 0 0 1 2 3 4 4
end
usemtl Default
v 43.186123234882672 550.88305700000001 8.8495220879069123
v 43.186123234882672 560.88305700000001 8.8495220879069123
v 39.307026018605654 560.88305700000001 -0.36745164465150726
v 39.307026018605654 550.88305700000001 -0.36745164465150726
cstype bspline
deg 1
curv 0 4 677 678 679 680 677
parm u 0 0 1 2 3 4 4
end
usemtl Default
v 57.90700848139435 550.88305700000001 2.6540238946515071
v 57.90700848139435 560.88305700000001 2.6540238946515071
v 54.027911265117332 560.88305700000001 -6.5629498379069116
v 54.027911265117332 550.88305700000001 -6.5629498379069116
cstype bspline
deg 1
curv 0 4 681 682 683 684 681
parm u 0 0 1 2 3 4 4
end
usemtl Default
v 56.063613734882672 550.88305700000001 3.4298433379069113
v 56.063613734882672 560.88305700000001 3.4298433379069113
v 52.184516518605655 560.88305700000001 -5.7871303946515074
v 52.184516518605655 550.88305700000001 -5.7871303946515074
cstype bspline
deg 1
curv 0 4 685 686 687 688 685
parm u 0 0 1 2 3 4 4
end
usemtl Default
v 7.0888563151065611 523.85684780265899 18.481625104796962
v -1.6417471374032915 528.21802579672851 20.662608795489426
v -3.5928467623262317 529.19265398875461 10.903340885398345
v 5.13775669018362 524.83147599468509 8.7223571947058804
cstype bspline
deg 1
curv 0 4 689 690 691 692 689
parm u 0 0 1 2 3 4 4
end
usemtl Default
v 6.1951052623262335 522.06765551124533 18.481625114601655
v -2.5354981901836191 526.42883350531486 20.66260880529412
v -4.4865978151065598 527.40346169734096 10.903340895203039
v 4.2440056374032924 523.04228370327144 8.7223572045105744
cstype bspline
deg 1
curv 0 4 693 694 695 696 693
parm u 0 0 1 2 3 4 4
end
usemtl Default
v 12.126243565106559 533.941148552659 18.481625104796962
v 3.3956401125967086 538.30232654672852 20.662608795489426
v 1.4445404876737684 539.27695473875463 10.903340885398345
v 10.17514394018362 534.9157767446851 8.7223571947058804
cstype bspline
deg 1
curv 0 4 697 698 699 700 697
parm u 0 0 1 2 3 4 4
end
usemtl Default
v 11.232492512326232 532.15195626124535 18.481625114601655
v 2.501889059816381 536.51313425531487 20.66260880529412
v 0.55078943489344079 537.48776244734097 10.903340895203039
v 9.2813928874032925 533.12658445327145 8.7223572045105744
cstype bspline
deg 1
curv 0 4 701 702 703 704 701
parm u 0 0 1 2 3 4 4
end
usemtl Default
v 17.163630815106561 544.02544930265901 18.481625104796962
v 8.4330273625967092 548.38662729672853 20.662608795489426
v 6.4819277376737681 549.36125548875464 10.903340885398345
v 15.212531190183622 545.00007749468512 8.7223571947058804
cstype bspline
deg 1
curv 0 4 705 706 707 708 705
parm u 0 0 1 2 3 4 4
end
usemtl Default
v 16.269879762326234 542.23625701124536 18.481625114601655
v 7.5392763098163815 546.59743500531488 20.66260880529412
v 5.5881766848934404 547.57206319734098 10.903340895203039
v 14.318780137403294 543.21088520327146 8.7223572045105744
cstype bspline
deg 1
curv 0 4 709 710 711 712 709
parm u 0 0 1 2 3 4 4
end
usemtl Default
v 7.0935456333977687 505.55407106342091 14.617451686234132
v -1.7726403452689712 500.94545895357032 15.006605399606689
v -3.7222629219110108 503.90664676631923 5.6561862354047445
v 5.1439230567557299 508.51525887616981 5.2670325220321867
cstype bspline
deg 1
curv 0 4 713 714 715 716 713
parm u 0 0 1 2 3 4 4
end
usemtl Default
v 7.9323475885776773 503.88084590034737 13.912661764595255
v -0.93383839008906255 499.27223379049678 14.301815477967812
v -2.8834609667311022 502.23342160324569 4.9513963137658674
v 5.9827250119356385 506.84203371309627 4.5622426003933096
cstype bspline
deg 1
curv 0 4 717 718 719 720 717
parm u 0 0 1 2 3 4 4
end
usemtl Default
v 12.934845966731102 493.9019633967543 9.709392686234132
v 4.0686599880643612 489.29335128690371 10.09854639960669
v 2.119037411422322 492.25453909965262 0.74812723540474568
v 10.985223390089063 496.8631512095032 0.35897352203218613
cstype bspline
deg 1
curv 0 4 721 722 723 724 721
parm u 0 0 1 2 3 4 4
end
usemtl Default
v 13.773647921911012 492.22873823368076 9.0046027645952549
v 4.9074619432442717 487.62012612383018 9.3937564779678127
v 2.9578393666022316 490.58131393657908 0.043337313765868579
v 11.824025345268973 495.18992604642966 -0.34581639960669097
cstype bspline
deg 1
curv 0 4 725 726 727 728 725
parm u 0 0 1 2 3 4 4
end
usemtl Default
v 98.021620663936332 515.80827358814315 -27.482192809254322
v 99.013835903968484 525.65950814931182 -26.079093903872057
v 92.571294306720645 527.37011528385881 -33.53345376900927
v 91.579079066688493 517.51888072269014 -34.936552674391535
cstype bspline
deg 1
curv 0 4 729 730 731 732 729
parm u 0 0 1 2 3 4 4
end
usemtl Default
v 96.504924693279335 515.7754097161411 -26.178907230990731
v 97.497139933311487 525.62664427730977 -24.775808325608466
v 91.054598336063648 527.33725141185676 -32.23016819074568
v 90.062383096031496 517.48601685068809 -33.633267096127945
cstype bspline
deg 1
curv 0 4 733 734 735 736 733
parm u 0 0 1 2 3 4 4
end
usemtl Default
v 73.532456659531476 489.04377398652298 -18.892498463640962
v 66.560550681909945 493.36436945585569 -13.171923157818384
v 61.493824068311291 496.03983596346006 -21.367663538634417
v 68.465730045932816 491.71924049412735 -27.088238844456995
cstype bspline
deg 1
curv 0 4 737 738 739 740 737
parm u 0 0 1 2 3 4 4
end
usemtl Default
v 72.518142931688715 487.32128353653991 -18.827734961365586
v 65.546236954067183 491.64187900587262 -13.107159655543008
v 60.479510340468529 494.31734551347699 -21.302900036359041
v 67.451416318090054 489.99675004414428 -27.023475342181619
cstype bspline
deg 1
curv 0 4 741 742 743 744 741
parm u 0 0 1 2 3 4 4
end
usemtl Default
v 79.357165159531462 498.93519573652299 -19.264403713640963
v 72.38525918190993 503.2557912058557 -13.543828407818385
v 67.318532568311298 505.93125771346007 -21.739568788634418
v 74.29043854593283 501.61066224412735 -27.460144094456997
cstype bspline
deg 1
curv 0 4 745 746 747 748 745
parm u 0 0 1 2 3 4 4
end
usemtl Default
v 78.3428514316887 497.21270528653992 -19.199640211365587
v 71.370945454067169 501.53330075587263 -13.479064905543009
v 66.304218840468536 504.208767263477 -21.674805286359042
v 73.276124818090068 499.88817179414428 -27.39538059218162
cstype bspline
deg 1
curv 0 4 749 750 751 752 749
parm u 0 0 1 2 3 4 4
end
usemtl Default
v 85.181873659531476 508.82661748652293 -19.63630896364096
v 78.209967681909944 513.14721295585559 -13.915733657818382
v 73.143241068311283 515.82267946345996 -22.111474038634416
v 80.115147045932815 511.5020839941273 -27.832049344456994
cstype bspline
deg 1
curv 0 4 753 754 755 756 753
parm u 0 0 1 2 3 4 4
end
usemtl Default
v 84.167559931688714 507.10412703653992 -19.571545461365584
v 77.195653954067183 511.42472250587264 -13.850970155543006
v 72.128927340468522 514.10018901347701 -22.04671053635904
v 79.100833318090054 509.77959354414429 -27.767285842181618
cstype bspline
deg 1
curv 0 4 757 758 759 760 757
parm u 0 0 1 2 3 4 4
end
usemtl Default
v 64.302048823908137 467.03759994619594 -23.738453001499732
v 72.362697770989939 472.64624488500289 -25.627643437190198
v 67.518599231445108 477.06480217534812 -33.178210357039106
v 59.457950284363299 471.45615723654117 -31.289019921348643
cstype bspline
deg 1
curv 0 4 761 762 763 764 761
parm u 0 0 1 2 3 4 4
end
usemtl Default
v 63.622029768554889 468.43787782465193 -22.482747642960891
v 71.682678715636683 474.04652276345888 -24.371938078651358
v 66.838580176091853 478.46508005380412 -31.922504998500269
v 58.777931229010044 472.85643511499717 -30.033314562809803
cstype bspline
deg 1
curv 0 4 765 766 767 768 765
parm u 0 0 1 2 3 4 4
end
usemtl Default
v 27.777093066667877 474.42529626577277 -2.8032714211679979
v 28.988771696010925 483.72082277228435 0.67882878789183021
v 25.34139429969574 487.40030414473767 -7.8744194230873328
v 24.129715670352692 478.1047776382261 -11.356519632147162
cstype bspline
deg 1
curv 0 4 769 770 771 772 769
parm u 0 0 1 2 3 4 4
end
usemtl Default
v 25.930707700304264 474.37856135526238 -2.03601857691267
v 27.142386329647312 483.67408786177396 1.4460816321471581
v 23.495008933332127 487.35356923422728 -7.1071665788320049
v 22.283330303989079 478.0580427277157 -10.589266787891834
cstype bspline
deg 1
curv 0 4 773 774 775 776 773
parm u 0 0 1 2 3 4 4
end
usemtl Default
v 39.62550106666788 474.72519801577272 -7.7267964211679967
v 40.837179696010921 484.0207245222843 -4.2446962121081704
v 37.189802299695742 487.70020589473762 -12.797944423087333
v 35.978123670352701 478.40467938822604 -16.28004463214716
cstype bspline
deg 1
curv 0 4 777 778 779 780 777
parm u 0 0 1 2 3 4 4
end
usemtl Default
v 37.77911570030426 474.67846310526232 -6.9595435769126688
v 38.990794329647301 483.9739896117739 -3.4774433678528416
v 35.343416933332122 487.65347098422723 -12.030691578832005
v 34.131738303989081 478.35794447771565 -15.512791787891832
cstype bspline
deg 1
curv 0 4 781 782 783 784 781
parm u 0 0 1 2 3 4 4
end
usemtl Default
v 51.473909066667886 475.02509976577272 -12.650321421167998
v 52.685587696010927 484.3206262722843 -9.1682212121081683
v 49.038210299695734 488.00010764473762 -17.721469423087331
v 47.826531670352693 478.70458113822605 -21.203569632147161
cstype bspline
deg 1
curv 0 4 785 786 787 788 785
parm u 0 0 1 2 3 4 4
end
usemtl Default
v 49.627523700304266 474.97836485526233 -11.88306857691267
v 50.839202329647307 484.27389136177391 -8.4009683678528404
v 47.191824933332114 487.95337273422723 -16.954216578832003
v 45.980146303989073 478.65784622771565 -20.436316787891833
cstype bspline
deg 1
curv 0 4 789 790 791 792 789
parm u 0 0 1 2 3 4 4
end
usemtl Default
v 2.5663302297065163 449.72574246555689 -8.7808871676221543
v -5.9706058905023394 453.40471140523698 -5.0949803293606939
v -7.6848580445265551 458.10280528065925 -13.754613894942054
v 0.85207807568230054 454.42383634097916 -17.440520733203513
cstype bspline
deg 1
curv 0 4 793 794 795 796 793
parm u 0 0 1 2 3 4 4
end
usemtl Default
v 1.5828250445265559 448.12083621934073 -9.4569001050579438
v -6.9541110756822988 451.79980515902082 -5.7709932667964834
v -8.6683632297065145 456.49789903444309 -14.430626832377843
v -0.13142710949765979 452.818930094763 -18.116533670639303
cstype bspline
deg 1
curv 0 4 797 798 799 800 797
parm u 0 0 1 2 3 4 4
end
usemtl Default
v 8.1792167297065141 458.88497921555688 -4.9228661676221561
v -0.35771939050234058 462.56394815523697 -1.2369593293606949
v -2.0719715445265563 467.26204203065925 -9.8965928949420565
v 6.4649645756822984 463.58307309097916 -13.582499733203516
cstype bspline
deg 1
curv 0 4 801 802 803 804 801
parm u 0 0 1 2 3 4 4
end
usemtl Default
v 7.1957115445265547 457.28007296934072 -5.5988791050579456
v -1.3412245756823009 460.95904190902081 -1.9129722667964835
v -3.0554767297065166 465.65713578444308 -10.572605832377844
v 5.481459390502339 461.978166844763 -14.258512670639305
cstype bspline
deg 1
curv 0 4 805 806 807 808 805
parm u 0 0 1 2 3 4 4
end
usemtl Default
v 13.792103229706516 468.04421596555693 -1.0648451676221562
v 5.25516710949766 471.72318490523702 2.6210616706393051
v 3.5409149554734443 476.42127878065929 -6.0385718949420557
v 12.0778510756823 472.7423098409792 -9.724478733203517
cstype bspline
deg 1
curv 0 4 809 810 811 812 809
parm u 0 0 1 2 3 4 4
end
usemtl Default
v 12.808598044526555 466.43930971934077 -1.7408581050579439
v 4.2716619243176988 470.11827865902086 1.9450487332035173
v 2.557409770293483 474.81637253444313 -6.7145848323778434
v 11.094345890502339 471.13740359476304 -10.400491670639305
cstype bspline
deg 1
curv 0 4 813 814 815 816 813
parm u 0 0 1 2 3 4 4
end
usemtl Default
v 1.8984226915705682 435.43852075447853 -18.329205423489555
v -6.8898009745662518 430.98597358276504 -20.044416336939818
v -8.6021082807904321 437.28419060249962 -27.620725864762512
v 0.1861153853463875 441.73673777421311 -25.905514951312249
cstype bspline
deg 1
curv 0 4 817 818 819 820 817
parm u 0 0 1 2 3 4 4
end
usemtl Default
v 2.7891556141237652 434.16561406416702 -19.588690801904157
v -5.9990680520130555 429.71306689245353 -21.303901715354421
v -7.7113753582372366 436.01128391218811 -28.880211243177115
v 1.0768483078995847 440.4638310839016 -27.165000329726851
cstype bspline
deg 1
curv 0 4 821 822 823 824 821
parm u 0 0 1 2 3 4 4
end
usemtl Default
v 7.6558493582372362 427.21083908781191 -26.470135756822888
v -1.1323743078995852 422.75829191609841 -28.185346670273152
v -2.8446816141237656 429.05650893583299 -35.761656198095842
v 5.9435420520130551 433.50905610754648 -34.046445284645579
cstype bspline
deg 1
curv 0 4 825 826 827 828 825
parm u 0 0 1 2 3 4 4
end
usemtl Default
v 8.5465822807904317 425.93793239750039 -27.72962113523749
v -0.2416413853463879 421.4853852257869 -29.444832048687754
v -1.9539486915705686 427.78360224552148 -37.021141576510445
v 6.8342749745662514 432.23614941723497 -35.305930663060181
cstype bspline
deg 1
curv 0 4 829 830 831 832 829
parm u 0 0 1 2 3 4 4
end
usemtl Default
v 81.801105546739024 456.36974888728184 -43.554724623432755
v 85.082789871199822 465.31226869031047 -40.511389681788977
v 79.250219593864898 469.76477229057411 -47.305235106111532
v 75.9685352694041 460.82225248754548 -50.34857004775531
cstype bspline
deg 1
curv 0 4 833 834 835 836 833
parm u 0 0 1 2 3 4 4
end
usemtl Default
v 80.315014406135106 456.46064470942588 -42.21933289388847
v 83.596698730595904 465.40316451245451 -39.175997952244693
v 77.76412845326098 469.85566811271815 -45.969843376567248
v 74.482444128800182 460.91314830968952 -49.013178318211025
cstype bspline
deg 1
curv 0 4 837 838 839 840 837
parm u 0 0 1 2 3 4 4
end
usemtl Default
v 67.866523324364891 440.17923718274716 -45.59031283702474
v 59.58223475089396 440.7548218619508 -40.019023479207718
v 55.164494723508966 446.19793189462195 -47.150371614215217
v 63.44878329697989 445.6223472154183 -52.72166097203224
cstype bspline
deg 1
curv 0 4 841 842 843 844 841
parm u 0 0 1 2 3 4 4
end
usemtl Default
v 67.177926609824382 438.50542410537804 -46.441303052451445
v 58.893638036353451 439.08100878458168 -40.870013694634423
v 54.475898008968457 444.52411881725283 -48.001361829641922
v 62.760186582439381 443.94853413804918 -53.572651187458945
cstype bspline
deg 1
curv 0 4 845 846 847 848 845
parm u 0 0 1 2 3 4 4
end
usemtl Default
v 72.260594991031539 450.8601691827472 -40.159976170358078
v 63.976306417560615 451.43575386195084 -34.588686812541056
v 59.558566390175621 456.87886389462199 -41.720034947548555
v 67.842854963646531 456.30327921541834 -47.291324305365578
cstype bspline
deg 1
curv 0 4 849 850 851 852 849
parm u 0 0 1 2 3 4 4
end
usemtl Default
v 71.571998276491044 449.18635610537808 -41.010966385784783
v 63.28770970302012 449.76194078458172 -35.439677027967761
v 58.869969675635126 455.20505081725287 -42.571025162975261
v 67.154258249106036 454.62946613804922 -48.142314520792283
cstype bspline
deg 1
curv 0 4 853 854 855 856 853
parm u 0 0 1 2 3 4 4
end
usemtl Default
v -58.046424966804921 444.51868748766151 -16.310416296268365
v -8.7854842906205981 444.51868768225324 -16.310416587286689
v 8.3905566692178901 419.97317582316032 -40.597124110349142
v -77.410709959943858 420.08644155498973 -40.485051794586411
cstype bspline
deg 1
curv 0 4 857 858 859 860 857
parm u 0 0 1 2 3 4 4
end
usemtl Default
v -58.288430857410702 443.38646699383116 -14.617143445505597
v -8.5423242609265024 443.38646719033932 -14.617143739390116
v 8.8261887780299517 418.56590209216893 -39.176004379857375
v -77.869778920986619 418.68034891345542 -39.062763419099724
cstype bspline
deg 1
curv 0 4 861 862 863 864 861
parm u 0 0 1 2 3 4 4
end
usemtl Default
v -137.1586312138013 462.20944397629046 -38.396813741080067
v -128.19975170081477 484.57084751910418 -19.996774473898945
v -79.501714944122298 483.94680369989658 0.29735286794779014
v -58.046429110962585 444.51868229151125 -16.310421548569089
v -77.517544238787821 419.95164768671083 -40.61842696063907
v -118.11737950768401 430.15269192352076 -51.220688990354162
cstype bspline
deg 1
curv 0 6 865 866 867 868 869 870 865
parm u 0 0 1 2 3 4 5 6 6
end
usemtl Default
v -138.15453681507734 461.29708273817926 -36.880554205544598
v -129.11778546527222 483.85285473579734 -18.320579217250973
v -79.965963454728524 483.22299585910946 2.1626558657049593
v -58.288434983978902 443.38646182154025 -14.617148679868585
v -77.762967149518204 418.81511588258059 -38.929419968376621
v -119.08842580310204 429.19847899328352 -49.721171664943647
cstype bspline
deg 1
curv 0 6 871 872 873 874 875 876 871
parm u 0 0 1 2 3 4 5 6 6
end
usemtl Default
v -79.501716492855621 483.94680435630409 0.29735615785134634
v -62.842449590773626 515.74785138378866 13.692480105104814
v -3.8851556617050296 515.74785133575233 13.692480342891852
v 13.550642685796696 480.96729858420474 -0.95766025455264092
v -8.7854829369723912 444.51868661669516 -16.310414993709546
v -58.046433312017797 444.51868672916976 -16.310415161918979
cstype bspline
deg 1
curv 0 6 877 878 879 880 881 882 877
parm u 0 0 1 2 3 4 5 6 6
end
usemtl Default
v -79.965965038205098 483.22299658967586 2.1626591726549069
v -63.13917798497161 515.34382456767457 15.692480114771705
v -3.5873602185793878 515.34382451915371 15.692480354956579
v 14.024646723356419 480.21177468144811 0.89428340634945602
v -8.5423228755902869 443.38646611691729 -14.617142134052052
v -58.288439169966296 443.38646623049976 -14.617142303918172
cstype bspline
deg 1
curv 0 6 883 884 885 886 887 888 883
parm u 0 0 1 2 3 4 5 6 6
end
usemtl Default
v -155.35598421206038 461.39287582380626 -54.60817806606466
v -137.15863133231497 462.20944551804075 -38.396814099618325
v -118.20804872436585 430.30533753699035 -51.159625265226452
v -146.40699135759138 442.95088225660555 -63.690646804564992
cstype bspline
deg 1
curv 0 4 889 890 891 892 889
parm u 0 0 1 2 3 4 4
end
usemtl Default
v -156.52691655241355 460.47266061299257 -53.247843526564033
v -138.15453693362485 461.29708428091919 -36.880554564364658
v -118.99778448251436 429.04588064192876 -49.782216699927091
v -147.47354326032155 441.81556090027493 -62.436249556225448
cstype bspline
deg 1
curv 0 4 893 894 895 896 893
parm u 0 0 1 2 3 4 4
end
usemtl Default
v -137.1586302090225 462.20944569787719 -38.396813457445134
v -155.35485575592196 461.39292674568526 -54.607173553833121
v -170.70058818401833 521.96326916723183 -39.213074710671201
v -150.60001427144491 521.52775602366887 -21.940785955791593
v -128.19975300630998 484.57084602741685 -19.996773155669302
cstype bspline
deg 1
curv 0 5 897 898 899 900 901 897
parm u 0 0 1 2 3 4 5 5
end
usemtl Default
v -138.15453580530874 461.29708446483266 -36.8805539283847
v -156.52805043454208 460.47261002234563 -53.248854464584355
v -172.01903232394153 521.61625903899221 -37.709048365369867
v -151.74057139531084 521.17689167047524 -20.283902487084426
v -129.11778680678583 483.85285316901263 -18.320577939484011
cstype bspline
deg 1
curv 0 5 902 903 904 905 906 902
parm u 0 0 1 2 3 4 5 5
end
usemtl Default
v -150.59999441239592 521.5277276606987 -21.94078769382137
v -134.86175541172719 555.883056640625 -8.4170387858869411
v -82.134266180366978 555.883056640625 13.692489412312788
v -62.8424427197615 515.74786454558989 13.692486259169012
v -79.501716998649258 483.94680322258682 0.29735343260550973
v -128.19975113581233 484.570848666534 -19.996777495968285
cstype bspline
deg 1
curv 0 6 907 908 909 910 911 912 907
parm u 0 0 1 2 3 4 5 6 6
end
usemtl Default
v -151.74055139016622 521.1768630819854 -20.283904224637084
v -135.84158068467548 555.883056640625 -6.6220397869115324
v -82.625198629447141 555.883056640625 15.692489442681499
v -63.139171153822531 515.34383765490543 15.692486257796091
v -79.965965583436343 483.2229953800495 2.1626564070684586
v -129.11778497272326 483.85285589690739 -18.320582305489395
cstype bspline
deg 1
curv 0 6 913 914 915 916 917 918 913
parm u 0 0 1 2 3 4 5 6 6
end
usemtl Default
v 54.485905270262975 679.97994747979396 -52.442931365661785
v 79.599185819644788 668.81528383187253 -63.69067293770388
v 88.621018826641233 650.37648545390016 -54.67302845639113
v 70.417198737302115 649.55962017093589 -38.455898212232796
cstype bspline
deg 1
curv 0 4 919 920 921 922 919
parm u 0 0 1 2 3 4 4
end
usemtl Default
v 55.301699223076966 681.22674882227579 -51.076224591999718
v 80.665737722374971 669.95060518820299 -62.436275689364223
v 89.792800337796209 651.29673881555254 -53.313450454102004
v 71.408254790320655 650.47176378684412 -36.935318382928841
cstype bspline
deg 1
curv 0 4 923 924 925 926 923
parm u 0 0 1 2 3 4 4
end
usemtl Default
v -77.4107331687797 691.67971404221544 -40.485085931666731
v 8.39058964098842 691.79296480170024 -40.59714284484005
v -8.7854679441269568 667.24742971879596 -16.310410425992053
v -58.046434347761753 667.24742977534049 -16.310410341427822
cstype bspline
deg 1
curv 0 4 927 928 929 930 927
parm u 0 0 1 2 3 4 4
end
usemtl Default
v -77.869802144487267 693.08580682385764 -39.062797697957194
v 8.8262217374702203 693.20023851590395 -39.176023094751542
v -8.5423079123183996 668.3796502205555 -14.617137563371173
v -58.28844033428129 668.37965027765676 -14.617137477974246
cstype bspline
deg 1
curv 0 4 931 932 933 934 931
parm u 0 0 1 2 3 4 4
end
usemtl Default
v -146.47814355272436 668.94474649651625 -63.612751583304373
v -120.22157296525627 680.97442212306373 -51.69820611787064
v -136.38131993572154 647.61654816806299 -36.800383562746426
v -155.77317239740816 648.80264230484192 -54.225777620093652
cstype bspline
deg 1
curv 0 4 935 936 937 938 935
parm u 0 0 1 2 3 4 4
end
usemtl Default
v -147.55944560782001 670.03925288787991 -62.334924668221845
v -121.04871359963499 682.18537477452924 -50.305047393075739
v -137.36630884731926 648.50166137754263 -35.261703028176996
v -156.94580721519554 649.69923279373916 -52.855714491471481
cstype bspline
deg 1
curv 0 4 939 940 941 942 939
parm u 0 0 1 2 3 4 4
end
usemtl Default
v -8.7854760133908165 667.24741296703905 -16.310412567708674
v 8.4737117415083887 691.91174562140259 -40.714690101929691
v 54.420092511362284 680.1056168405554 -52.500711879908884
v 70.417199171766043 649.5596200567428 -38.455897664863372
v 60.726451312841043 629.60473897507291 -20.561257209874057
v 13.550642584550722 630.79881530020486 -0.95765982501691616
cstype bspline
deg 1
curv 0 6 943 944 945 946 947 948 943
parm u 0 0 1 2 3 4 5 6 6
end
usemtl Default
v -8.5423159438595988 668.37963352334327 -14.617139756773049
v 8.7430472524270364 693.0813723293129 -39.058429040635644
v 55.367558188295234 681.10099495834834 -51.018402646180519
v 71.40825524524729 650.47176361587253 -36.935317821700579
v 61.636092899237212 630.34923640082252 -18.890339849377987
v 14.024646663861454 631.5543392339805 0.89428383952902557
cstype bspline
deg 1
curv 0 6 949 950 951 952 953 954 949
parm u 0 0 1 2 3 4 5 6 6
end
usemtl Default
v -136.38134285428143 647.61650628617781 -36.800361261036109
v -120.16074243454219 681.09999779891029 -51.75428509910094
v -77.517543264378517 691.81447679536916 -40.618432765432125
v -58.046433069001907 667.2474243941349 -16.310417837284753
v -79.501715145581343 627.81930988917179 0.29735367139682278
v -128.19977048924588 627.19526583178049 -19.99678141627281
cstype bspline
deg 1
curv 0 6 955 956 957 958 959 960 955
parm u 0 0 1 2 3 4 5 6 6
end
usemtl Default
v -137.36633176508712 648.50161950172878 -35.261680726238225
v -121.10955020674149 682.0597981910206 -50.248960295724586
v -77.762966407009941 692.95100876453262 -38.929425979440154
v -58.288438984534622 668.37964478597428 -14.617144935673849
v -79.965963652492519 628.54311773674908 2.162656666293711
v -129.11780421903148 627.9132586222745 -18.320586149575711
cstype bspline
deg 1
curv 0 6 961 962 963 964 965 966 961
parm u 0 0 1 2 3 4 5 6 6
end
usemtl Default
v 70.417195258494047 649.55961668241582 -38.455904343973913
v 88.620244921029268 650.376447953254 -54.67234669281499
v 103.93696910434511 589.80189696058301 -39.251026245249584
v 83.909377171153366 590.23589148568078 -22.04148014719588
v 60.726450535427936 629.60473700147418 -20.561254667626251
cstype bspline
deg 1
curv 0 5 967 968 969 970 971 967
parm u 0 0 1 2 3 4 5 5
end
usemtl Default
v 71.40825135419729 650.47176029543846 -36.935324565994733
v 89.793560431672887 651.29677015130983 -53.314135273418941
v 105.25524993469469 590.14891059437923 -37.746859553550308
v 85.050826536597498 590.58673702737133 -20.385363622634571
v 61.636092152715008 630.34923445648678 -18.890337262202351
cstype bspline
deg 1
curv 0 5 972 973 974 975 976 972
parm u 0 0 1 2 3 4 5 5
end
usemtl Default
v -79.501716492855564 627.81930892494597 0.29735615785130576
v -58.046433312017733 667.24742655208047 -16.310415161918947
v -8.7854829637449257 667.24742666455472 -16.310414993709433
v 13.550642673750202 630.79881467301527 -0.95766024443066544
v -3.8851556617049718 596.0182619454979 13.69248034289182
v -62.842449590773711 596.01826189746157 13.692480105104831
cstype bspline
deg 1
curv 0 6 977 978 979 980 981 982 977
parm u 0 0 1 2 3 4 5 6 6
end
usemtl Default
v -79.96596503820507 628.54311669157414 2.1626591726547963
v -58.288439169966239 668.37964705075092 -14.617142303918079
v -8.5423228488176512 668.37964716433225 -14.617142134051925
v 14.02464673540311 631.55433862383234 0.89428339622770814
v -3.5873602185793345 596.42228876209629 15.692480354956551
v -63.139177984971724 596.4222887135752 15.69248011477179
cstype bspline
deg 1
curv 0 6 983 984 985 986 987 988 983
parm u 0 0 1 2 3 4 5 6 6
end
usemtl Default
v -150.60000071220341 590.23835693604894 -21.940778624616641
v -170.70063122262238 589.80284279118496 -39.213114433989801
v -155.76990747602602 648.80244459352798 -54.222837946563665
v -136.38135757886707 647.61655221269291 -36.800412269351526
v -128.19975632188604 627.19523760106404 -19.996768461160432
cstype bspline
deg 1
curv 0 5 989 990 991 992 993 989
parm u 0 0 1 2 3 4 5 5
end
usemtl Default
v -151.74055783284007 590.58922128824906 -20.283895160600636
v -172.01898027098173 590.14985498067176 -37.709006370637553
v -156.94907645030628 649.69943474047091 -52.8586463712426
v -137.366346482772 648.50166541849319 -35.261731737298298
v -129.1177900933169 627.91323048626055 -18.320573259070265
cstype bspline
deg 1
curv 0 5 994 995 996 997 998 994
parm u 0 0 1 2 3 4 5 5
end
usemtl Default
v -3.8851623598344522 596.01824843290422 13.692487762800642
v 13.550642363595315 630.7988142672632 -0.95766250558668808
v 60.726450346543487 629.60474078592006 -20.56125203953702
v 83.909372118605006 590.23590645745799 -22.041474997167516
v 67.43663152593777 555.883056640625 -7.8865644692251395
v 16.163469475472795 555.883056640625 13.692490213018296
cstype bspline
deg 1
curv 0 6 999 1000 1001 1002 1003 1004 999
parm u 0 0 1 2 3 4 5 6 6
end
usemtl Default
v -3.5873668622505068 596.42227535648954 15.692487748590352
v 14.024646407186275 631.5543381840871 0.89428112613588873
v 61.63609195187064 630.34923821942152 -18.890334664936105
v 85.050821628164329 590.58675174186965 -20.385358491282744
v 68.409845113613216 555.883056640625 -6.0858840148913522
v 16.663087530288784 555.883056640625 15.692490223473527
cstype bspline
deg 1
curv 0 6 1005 1006 1007 1008 1009 1010 1005
parm u 0 0 1 2 3 4 5 6 6
end
usemtl Default
v -150.59998807439314 590.23837178519307 -21.940782247623872
v -128.19973629905371 627.19526480096852 -19.996771312204281
v -79.501716996633121 627.81931005481465 0.29735343422656668
v -62.8424427215378 596.01824873905082 13.692486257740786
v -82.134266183773008 555.883056640625 13.69248941088458
v -134.86175541172722 555.883056640625 -8.4170387858869216
cstype bspline
deg 1
curv 0 6 1011 1012 1013 1014 1015 1016 1011
parm u 0 0 1 2 3 4 5 6 6
end
usemtl Default
v -151.74054505216338 590.58923636390682 -20.283898778439642
v -129.11777013123111 627.91325757840468 -18.320576121314581
v -79.965965585452523 628.54311790504926 2.162656405447263
v -63.139171152046401 596.42227562295443 15.692486259224296
v -82.625198626041197 555.883056640625 15.692489444109675
v -135.84158068467553 555.883056640625 -6.6220397869114507
cstype bspline
deg 1
curv 0 6 1017 1018 1019 1020 1021 1022 1017
parm u 0 0 1 2 3 4 5 6 6
end
usemtl Default
v 83.909369852571956 590.23589331666744 -22.04146211650405
v 103.94437823900093 589.80173599347461 -39.257395749689707
v 103.94437823900094 521.96437728777528 -39.257395749689714
v 83.909369852572027 521.53021996458256 -22.041462116504121
v 67.436632939129751 555.88305664062511 -7.8865618544784768
cstype bspline
deg 1
curv 0 5 1023 1024 1025 1026 1027 1023
parm u 0 0 1 2 3 4 5 5
end
usemtl Default
v 85.050819497961214 590.58673886993574 -20.385345708617201
v 105.24783979288094 590.14907075926749 -37.740494969296734
v 105.24783979288088 521.61704252198228 -37.740494969296748
v 85.050819497961299 521.17937441131403 -20.385345708617294
v 68.409846506935594 555.88305664062511 -6.0858814369082168
cstype bspline
deg 1
curv 0 5 1028 1029 1030 1031 1032 1028
parm u 0 0 1 2 3 4 5 5
end
usemtl Default
v -82.134264595549311 555.88305664453276 13.692482948303221
v -62.842435308236077 596.01826247182601 13.692482948303219
v -3.8851705753666135 596.01826247182555 13.692482948303226
v 16.16346766068132 555.883056640625 13.692482948303223
v -3.8851705753666144 515.74785080942445 13.692482948303219
v -62.842435304479508 515.74785080942434 13.692482948303223
cstype bspline
deg 1
curv 0 6 1033 1034 1035 1036 1037 1038 1033
parm u 0 0 1 2 3 4 5 6 6
end
usemtl Default
v -82.625197033418488 555.88305663671758 15.692482948303223
v -63.139163771903526 596.42228928598706 15.692482948303223
v -3.5873750195723311 596.42228928598661 15.692482948303223
v 16.663085712885497 555.883056640625 15.692482948303223
v -3.5873750195723311 515.34382399526339 15.692482948303223
v -63.139163775660137 515.34382399526339 15.692482948303223
cstype bspline
deg 1
curv 0 6 1039 1040 1041 1042 1043 1044 1039
parm u 0 0 1 2 3 4 5 6 6
end
usemtl Default
v -150.59997944160483 521.52775830460223 -21.940777339833286
v -170.70807274108182 521.96343220947097 -39.219512295002581
v -170.70807274108176 589.80268107177926 -39.219512295002566
v -150.59997944160489 590.23835497664777 -21.940777339833339
v -134.86175550554151 555.883056640625 -8.417038614023193
cstype bspline
deg 1
curv 0 5 1045 1046 1047 1048 1049 1045
parm u 0 0 1 2 3 4 5 5
end
usemtl Default
v -151.74053631101748 521.17689396351625 -20.283893776192528
v -172.01153429496173 521.61609745813507 -37.702611514609615
v -172.01153429496173 590.15001582311538 -37.702611514609572
v -151.74053631101754 590.58921931773375 -20.283893776192606
v -135.84158078947405 555.883056640625 -6.6220395949251838
cstype bspline
deg 1
curv 0 5 1050 1051 1052 1053 1054 1050
parm u 0 0 1 2 3 4 5 5
end
usemtl Default
v -3.8851623598345046 515.74786484834601 13.69248776280071
v 16.163469475472738 555.883056640625 13.692490213018321
v 67.436631525937884 555.883056640625 -7.8865644692251458
v 83.909372118605006 521.53020682379224 -22.041474997167441
v 60.72645034654353 482.16137249533011 -20.561252039537006
v 13.550642363595273 480.96729901398686 -0.95766250558659261
cstype bspline
deg 1
curv 0 6 1055 1056 1057 1058 1059 1060 1055
parm u 0 0 1 2 3 4 5 6 6
end
usemtl Default
v -3.5873668622505654 515.34383792476069 15.692487748590366
v 16.663087530288713 555.883056640625 15.692490223473499
v 68.409845113613301 555.883056640625 -6.0858840148913664
v 85.050821628164329 521.17936153938058 -20.385358491282659
v 61.63609195187064 481.41687506182893 -18.890334664936148
v 14.024646407186232 480.21177509716335 0.8942811261360033
cstype bspline
deg 1
curv 0 6 1061 1062 1063 1064 1065 1066 1061
parm u 0 0 1 2 3 4 5 6 6
end
usemtl Default
v 83.909378637906883 521.53022134473531 -22.041478019098967
v 103.93697035424879 521.96421564096158 -39.251022356899583
v 89.016277036065475 462.96036789979871 -54.271482599343841
v 69.470502902591591 464.15586542564915 -36.707781651942128
v 60.726455660416939 482.16138362293822 -20.561253967680013
cstype bspline
deg 1
curv 0 5 1067 1068 1069 1070 1071 1067
parm u 0 0 1 2 3 4 5 5
end
usemtl Default
v 85.050828000149494 521.17937580402895 -20.38536149918275
v 105.25525750130583 521.61720214312163 -37.746861086594222
v 90.195487311360267 462.06337522935667 -52.907328135585672
v 70.448216062836778 463.27119712265676 -35.162563238179828
v 61.636097359711272 481.41688632942464 -18.890336584286246
cstype bspline
deg 1
curv 0 5 1072 1073 1074 1075 1076 1072
parm u 0 0 1 2 3 4 5 5
end
usemtl Default
v -8.7854837434036757 444.51868676472839 -16.310417009241654
v 13.550642886052501 480.96729753757529 -0.95765874608032053
v 60.726460879149407 482.16137409721051 -20.561259980867
v 69.470498018206428 464.15587644070303 -36.707769790664614
v 56.31193319287302 432.17057049402018 -52.969552511998231
v 8.4736444790587413 419.85443918550544 -40.714610365335076
cstype bspline
deg 1
curv 0 6 1077 1078 1079 1080 1081 1082 1077
parm u 0 0 1 2 3 4 5 6 6
end
usemtl Default
v -8.5423236979231127 443.38646624279363 -14.617144164298715
v 14.024646919539656 480.21177360264028 0.89428493750730631
v 61.636102644506707 481.41687667599035 -18.890342694737143
v 70.448211167247109 463.27120816706122 -35.162551337571614
v 57.242351930872758 431.17094088327258 -51.482782031498786
v 8.7430991973789638 418.68464212363358 -39.058517861829088
cstype bspline
deg 1
curv 0 6 1083 1084 1085 1086 1087 1088 1083
parm u 0 0 1 2 3 4 5 6 6
end
usemtl Default
v 69.470493102733514 464.15586714595241 -36.707776139514486
v 89.019297324409749 462.96018338502904 -54.274197251009198
v 79.670356031511034 442.82135001305926 -63.612748713965175
v 56.353159774108562 432.27078094725664 -52.91860321126903
cstype bspline
deg 1
curv 0 4 1089 1090 1091 1092 1089
parm u 0 0 1 2 3 4 4
end
usemtl Default
v 70.448206228496446 463.27119885334162 -35.162557719074869
v 90.192461765974912 462.06356050114482 -52.904610039580902
v 80.75165808660681 441.72684362169548 -62.334921798882512
v 57.201108615808749 431.07068685283116 -51.533751712697679
cstype bspline
deg 1
curv 0 4 1093 1094 1095 1096 1093
parm u 0 0 1 2 3 4 4
end
