# type_plates_name_cross_vda_hexshell_reciprocal.xml
v -679.255694363932 -453.677635487853 -185.215577426994
v -511.898344114479 -562.075632169963 -116.08771568822
v -503.413433111365 -551.847387791822 -128.501572767955
v -667.712830300195 -445.430039018066 -196.366330400079
v -679.255694363932 -453.677635487853 -185.215577426994
cstype bspline
deg 1
curv 0 5 1 2 3 4 5
parm u 0 0 1 2 3 4
end
v -676.229798976654 -441.053904039532 -172.746200480814
v -508.872448727202 -549.451900721642 -103.61833874204
v -500.387537724088 -539.223656343501 -116.032195821775
v -664.686934912918 -432.806307569745 -183.896953453899
v -676.229798976654 -441.053904039532 -172.746200480814
cstype bspline
deg 1
curv 0 5 6 7 8 9 10
parm u 0 0 1 2 3 4
end
v -590.162960592783 -457.517537541787 -100.058103798981
v -469.432319483036 -668.266275091078 -184.723191684193
v -461.74549507329 -656.165849901072 -195.919713913076
v -580.187150824513 -449.412790417794 -112.859828690304
v -590.162960592783 -457.517537541787 -100.058103798981
cstype bspline
deg 1
curv 0 5 11 12 13 14 15
parm u 0 0 1 2 3 4
end
v -577.00607519269 -454.792346223125 -88.0802200607945
v -456.275434082943 -665.541083772416 -172.745307946006
v -448.588609673197 -653.44065858241 -183.94183017489
v -567.03026542442 -446.687599099132 -100.881944952118
v -577.00607519269 -454.792346223125 -88.0802200607945
cstype bspline
deg 1
curv 0 5 16 17 18 19 20
parm u 0 0 1 2 3 4
end
v -383.289559797139 -694.908663693097 -153.211383693738
v -247.957074359277 -567.000842098413 17.1680689185953
v -243.08807170953 -556.848092945685 3.0096529756795
v -377.615198732823 -683.994740014701 -166.355878068695
v -383.289559797139 -694.908663693097 -153.211383693738
cstype bspline
deg 1
curv 0 5 21 22 23 24 25
parm u 0 0 1 2 3 4
end
v -397.318198389406 -684.030296619507 -150.235072376055
v -261.985712951544 -556.122475024823 20.1443802362787
v -257.116710301797 -545.969725872095 5.98596429336294
v -391.64383732509 -673.116372941111 -163.379566751011
v -397.318198389406 -684.030296619507 -150.235072376055
cstype bspline
deg 1
curv 0 5 26 27 28 29 30
parm u 0 0 1 2 3 4
end
v -374.952949242038 -552.866141515135 -19.9433024601203
v -92.345960906869 -648.383306696635 -6.91831012398598
v -90.7217755414647 -637.008840664784 -21.0380469283471
v -368.612100761976 -543.085840908854 -33.845654332557
v -374.952949242038 -552.866141515135 -19.9433024601203
cstype bspline
deg 1
curv 0 5 31 32 33 34 35
parm u 0 0 1 2 3 4
end
v -370.932390495557 -539.431654299679 -8.65837177252388
v -88.3254021603878 -634.94881948118 4.36662056361047
v -86.7012167949835 -623.574353449329 -9.75311624075061
v -364.591542015494 -529.651353693398 -22.5607236449606
v -370.932390495557 -539.431654299679 -8.65837177252388
cstype bspline
deg 1
curv 0 5 36 37 38 39 40
parm u 0 0 1 2 3 4
end
v -168.619357845915 -549.631558229479 50.9840054959884
v -74.2287256833346 -764.978918778631 -120.003247523931
v -73.1453728649406 -751.273837698803 -131.948712603669
v -165.759640049871 -539.979162257745 35.8206811760876
v -168.619357845915 -549.631558229479 50.9840054959884
cstype bspline
deg 1
curv 0 5 41 42 43 44 45
parm u 0 0 1 2 3 4
end
v -151.710500704199 -546.390343357546 56.2361551811189
v -57.319868541619 -761.737703906698 -114.7510978388
v -56.236515723225 -748.03262282687 -126.696562918538
v -148.850782908155 -536.737947385812 41.0728308612181
v -151.710500704199 -546.390343357546 56.2361551811189
cstype bspline
deg 1
curv 0 5 46 47 48 49 50
parm u 0 0 1 2 3 4
end
v 14.4581588683572 -745.568186123269 -93.0846619065436
v 226.193768170328 -576.678660037175 18.1445124710506
v 222.638805384748 -566.296208711546 3.72912922759019
v 12.138189894358 -734.200650048576 -106.851276893798
v 14.4581588683572 -745.568186123269 -93.0846619065436
cstype bspline
deg 1
curv 0 5 51 52 53 54 55
parm u 0 0 1 2 3 4
end
v 2.19884146493151 -736.494072213549 -83.5259175561861
v 213.934450766902 -567.604546127455 27.7032568214081
v 210.379487981322 -557.222094801826 13.2878735779477
v -0.121127509067697 -725.126536138856 -97.2925325434404
v 2.19884146493151 -736.494072213549 -83.5259175561861
cstype bspline
deg 1
curv 0 5 56 57 58 59 60
parm u 0 0 1 2 3 4
end
v 92.2505753404845 -593.21844690099 34.9156617565313
v 356.220444081042 -610.918892529563 -57.6850944249145
v 349.734776237539 -600.240281561825 -70.8681690416776
v 90.5589930744497 -582.861302362385 20.0508196267174
v 92.2505753404845 -593.21844690099 34.9156617565313
cstype bspline
deg 1
curv 0 5 61 62 63 64 65
parm u 0 0 1 2 3 4
end
v 96.610875492921 -578.660805672073 44.5625713358118
v 360.580744233478 -596.361251300646 -48.0381848456341
v 354.095076389976 -585.682640332908 -61.2212594623971
v 94.9192932268863 -568.303661133468 29.6977292059978
v 96.610875492921 -578.660805672073 44.5625713358118
cstype bspline
deg 1
curv 0 5 66 67 68 69 70
parm u 0 0 1 2 3 4
end
v 302.043308191005 -533.065126999761 24.5056254811371
v 331.045928804449 -725.519513180301 -157.509135232599
v 324.918406633318 -712.763713348057 -168.837414350111
v 296.435906064971 -523.760718176412 9.91317493536656
v 302.043308191005 -533.065126999761 24.5056254811371
cstype bspline
deg 1
curv 0 5 71 72 73 74 75
parm u 0 0 1 2 3 4
end
v 318.937619692082 -527.64680891261 21.4685104008289
v 347.940240305527 -720.10119509315 -160.546250312907
v 341.812718134395 -707.345395260907 -171.87452943042
v 313.330217566048 -518.342400089261 6.87605985505832
v 318.937619692082 -527.64680891261 21.4685104008289
cstype bspline
deg 1
curv 0 5 76 77 78 79 80
parm u 0 0 1 2 3 4
end
v 403.760888786396 -679.211535088564 -143.947324148482
v 630.289525062178 -482.051016912408 -149.68394415013
v 619.828493189526 -473.388428122164 -161.659976857847
v 394.726843580568 -669.306960140249 -155.959493922089
v 403.760888786396 -679.211535088564 -143.947324148482
cstype bspline
deg 1
curv 0 5 81 82 83 84 85
parm u 0 0 1 2 3 4
end
v 396.065283161783 -669.979747672555 -130.547631794699
v 622.593919437565 -472.819229496399 -136.284251796346
v 612.132887564913 -464.156640706155 -148.260284504064
v 387.031237955955 -660.07517272424 -142.559801568306
v 396.065283161783 -669.979747672555 -130.547631794699
cstype bspline
deg 1
curv 0 5 86 87 88 89 90
parm u 0 0 1 2 3 4
end
v 523.366893578579 -520.562248407734 -93.4051032827496
v 658.186312093277 -498.218236378636 -199.211169225523
v 646.83676465725 -489.618865345055 -210.265050147203
v 514.305883353353 -511.583591485438 -106.255024579817
v 523.366893578579 -520.562248407734 -93.4051032827496
cstype bspline
deg 1
curv 0 5 91 92 93 94 95
parm u 0 0 1 2 3 4
end
v 527.202309015452 -504.991353780628 -85.2297238457969
v 662.02172753015 -482.64734175153 -191.03578978857
v 650.672180094123 -474.047970717948 -202.089670710251
v 518.141298790226 -496.012696858332 -98.0796451428643
v 527.202309015452 -504.991353780628 -85.2297238457969
cstype bspline
deg 1
curv 0 5 96 97 98 99 100
parm u 0 0 1 2 3 4
end
v -594.045425180338 -538.143436987094 -164.578646678596
v -490.038613056745 -408.881455928512 0.659580413271328
v -481.64720043405 -401.702661754937 -13.7719045126485
v -583.664765731708 -528.492362582207 -175.849765354899
v -594.045425180338 -538.143436987094 -164.578646678596
cstype bspline
deg 1
curv 0 5 101 102 103 104 105
parm u 0 0 1 2 3 4
end
v -607.077906200726 -525.811760539532 -166.022320618893
v -503.071094077133 -396.549779480951 -0.78409352702613
v -494.679681454437 -389.370985307376 -15.2155784529459
v -596.697246752096 -516.160686134646 -177.293439295196
v -607.077906200726 -525.811760539532 -166.022320618893
cstype bspline
deg 1
curv 0 5 106 107 108 109 110
parm u 0 0 1 2 3 4
end
v -606.840307512779 -388.042444765013 -64.4158601714526
v -337.534681582371 -512.368216524405 24.6854617582857
v -331.687591915582 -503.502486998753 9.89842320554078
v -596.411873460499 -381.291706986949 -77.6871344710282
v -606.840307512779 -388.042444765013 -64.4158601714526
cstype bspline
deg 1
curv 0 5 111 112 113 114 115
parm u 0 0 1 2 3 4
end
v -603.455026717286 -373.50242857882 -54.359628111634
v -334.149400786878 -497.828200338212 34.7416938181042
v -328.302311120089 -488.96247081256 19.9546552653593
v -593.026592665006 -366.751690800756 -67.6309024112097
v -603.455026717286 -373.50242857882 -54.359628111634
cstype bspline
deg 1
curv 0 5 116 117 118 119 120
parm u 0 0 1 2 3 4
end
v -417.521679351149 -398.146598898818 48.1894556378331
v -300.202981670308 -648.000848117812 -59.0993773175861
v -295.081992961368 -636.766927792175 -72.4556159638134
v -410.369530750524 -391.238450507349 32.9757059670828
v -417.521679351149 -398.146598898818 48.1894556378331
cstype bspline
deg 1
curv 0 5 121 122 123 124 125
parm u 0 0 1 2 3 4
end
v -402.183277800975 -394.710739907595 56.9603342071703
v -284.864580120134 -644.564989126589 -50.328498748249
v -279.743591411194 -633.331068800952 -63.6847373944763
v -395.03112920035 -387.802591516126 41.74658453642
v -402.183277800975 -394.710739907595 56.9603342071703
cstype bspline
deg 1
curv 0 5 126 127 128 129 130
parm u 0 0 1 2 3 4
end
v -207.930368853902 -639.568066079826 -22.9344480985167
v -13.9307649024745 -468.992030242327 115.447850576375
v -13.523889709651 -460.787665752399 99.2188626100133
v -204.083502350891 -628.3390558223 -36.7096480404216
v -207.930368853902 -639.568066079826 -22.9344480985167
cstype bspline
deg 1
curv 0 5 131 132 133 134 135
parm u 0 0 1 2 3 4
end
v -221.250751866439 -628.632531729218 -17.7400776009515
v -27.251147915012 -458.056495891719 120.64222107394
v -26.8442727221886 -449.852131401791 104.413233107578
v -217.403885363428 -617.403521471692 -31.5152775428564
v -221.250751866439 -628.632531729218 -17.7400776009515
cstype bspline
deg 1
curv 0 5 136 137 138 139 140
parm u 0 0 1 2 3 4
end
v -153.52126942378 -468.927266993507 104.176537862212
v 144.842532086572 -533.173538791365 68.4360977554398
v 142.202595428819 -523.854520554114 53.0224984885484
v -150.950184919319 -460.730330859504 88.1387201452256
v -153.52126942378 -468.927266993507 104.176537862212
cstype bspline
deg 1
curv 0 5 141 142 143 144 145
parm u 0 0 1 2 3 4
end
v -149.214781497928 -453.654257859092 112.67296968531
v 149.149020012424 -517.90052965695 76.9325295785383
v 146.509083354671 -508.581511419698 61.5189303116468
v -146.643696993468 -445.457321725089 96.6351519683241
v -149.214781497928 -453.654257859092 112.67296968531
cstype bspline
deg 1
curv 0 5 146 147 148 149 150
parm u 0 0 1 2 3 4
end
v 74.8631626861739 -434.197862536169 130.737041715251
v 146.268655470824 -668.890787822913 -34.2414441111713
v 143.503479648301 -657.154598233228 -47.8211294148218
v 73.3563002343282 -426.597450662944 114.250092187328
v 74.8631626861739 -434.197862536169 130.737041715251
cstype bspline
deg 1
curv 0 5 151 152 153 154 155
parm u 0 0 1 2 3 4
end
v 92.1931547413996 -429.374752393279 131.376560218006
v 163.598647526049 -664.067677680023 -33.6019256084168
v 160.833471703527 -652.331488090338 -47.1816109120673
v 90.6862922895539 -421.774340520054 114.889610690082
v 92.1931547413996 -429.374752393279 131.376560218006
cstype bspline
deg 1
curv 0 5 156 157 158 159 160
parm u 0 0 1 2 3 4
end
v 237.764219398144 -630.17788238268 -24.3822177657655
v 473.963706698268 -426.625120705425 9.83621977465577
v 465.804922425988 -419.030152936399 -4.56916230507034
v 233.593602025856 -619.145979183343 -38.209830428936
v 237.764219398144 -630.17788238268 -24.3822177657655
cstype bspline
deg 1
curv 0 5 161 162 163 164 165
parm u 0 0 1 2 3 4
end
v 227.587770893209 -620.220702988206 -13.3688407027266
v 463.787258193333 -416.667941310951 20.8495968376947
v 455.628473921053 -409.072973541925 6.44421475796855
v 223.417153520921 -609.188799788869 -27.1964533658971
v 227.587770893209 -620.220702988206 -13.3688407027266
cstype bspline
deg 1
curv 0 5 166 167 168 169 170
parm u 0 0 1 2 3 4
end
v 344.53937693722 -449.866376131749 56.7191724439872
v 583.627917536231 -454.792924256197 -88.2976216143898
v 573.580771117242 -446.772319095283 -101.071204171237
v 338.336054796551 -441.924975039929 41.614156216714
v 344.53937693722 -449.866376131749 56.7191724439872
cstype bspline
deg 1
curv 0 5 171 172 173 174 175
parm u 0 0 1 2 3 4
end
v 348.923240652351 -433.736795527541 63.3988706751575
v 588.011781251361 -438.663343651988 -81.6179233832195
v 577.964634832373 -430.642738491074 -94.3915059400668
v 342.719918511681 -425.795394435721 48.2938544478843
v 348.923240652351 -433.736795527541 63.3988706751575
cstype bspline
deg 1
curv 0 5 176 177 178 179 180
parm u 0 0 1 2 3 4
end
v 539.044513584878 -374.409311782299 -8.41756972060136
v 550.671004266066 -574.550838154778 -159.403440612224
v 541.061517176167 -564.645457087557 -171.037481551046
v 529.615793074063 -367.615695051111 -22.399111734293
v 539.044513584878 -374.409311782299 -8.41756972060136
cstype bspline
deg 1
curv 0 5 181 182 183 184 185
parm u 0 0 1 2 3 4
end
v 554.281189004674 -368.089324803472 -15.6218383676777
v 565.907679685862 -568.230851175951 -166.6077092593
v 556.298192595963 -558.32547010873 -178.241750198122
v 544.852468493859 -361.295708072284 -29.6033803813693
v 554.281189004674 -368.089324803472 -15.6218383676777
cstype bspline
deg 1
curv 0 5 186 187 188 189 190
parm u 0 0 1 2 3 4
end
v -648.399605034307 -237.876475621098 -34.9973959091257
v -527.933640848738 -490.765792830092 -75.5712060489891
v -519.007835517696 -481.948693805158 -88.6646183104885
v -637.326456941565 -233.567206243245 -48.8140487814271
v -648.399605034307 -237.876475621098 -34.9973959091257
cstype bspline
deg 1
curv 0 5 191 192 193 194 195
parm u 0 0 1 2 3 4
end
v -635.437000969155 -233.583233417874 -23.2696950588066
v -514.971036783587 -486.472550626867 -63.8435051986701
v -506.045231452545 -477.655451601934 -76.9369174601695
v -624.363852876414 -229.27396404002 -37.0863479311081
v -635.437000969155 -233.583233417874 -23.2696950588066
cstype bspline
deg 1
curv 0 5 196 197 198 199 200
parm u 0 0 1 2 3 4
end
v -735.70656451112 -255.483233304467 -135.207713170528
v -574.916047119119 -343.467567056911 -26.1017907343072
v -565.1697861062 -337.038862579572 -40.0137677029933
v -723.228615488577 -250.549304473383 -147.266077470182
v -735.70656451112 -255.483233304467 -135.207713170528
cstype bspline
deg 1
curv 0 5 201 202 203 204 205
parm u 0 0 1 2 3 4
end
v -733.256426006289 -240.011059951526 -126.341559943582
v -572.465908614287 -327.99539370397 -17.235637507361
v -562.719647601368 -321.566689226631 -31.1476144760471
v -720.778476983745 -235.077131120442 -138.399924243236
v -733.256426006289 -240.011059951526 -126.341559943582
cstype bspline
deg 1
curv 0 5 206 207 208 209 210
parm u 0 0 1 2 3 4
end
v -446.408463713347 -495.017045834972 -16.8939541715864
v -277.480822793643 -322.348299850647 135.980340375103
v -272.45119937172 -316.773684914974 119.429354434319
v -438.487126815406 -486.486676962693 -30.8280287811598
v -446.408463713347 -495.017045834972 -16.8939541715864
cstype bspline
deg 1
curv 0 5 211 212 213 214 215
parm u 0 0 1 2 3 4
end
v -459.386582259638 -482.54697019888 -16.6377264826632
v -290.458941339933 -309.878224214555 136.236568064026
v -285.42931791801 -304.303609278883 119.685582123242
v -451.465245361697 -474.016601326601 -30.5718010922366
v -459.386582259638 -482.54697019888 -16.6377264826632
cstype bspline
deg 1
curv 0 5 216 217 218 219 220
parm u 0 0 1 2 3 4
end
v -412.459564381942 -313.303987905115 92.0791260490956
v -109.556969857424 -408.890966712375 139.713908188834
v -107.723651238882 -401.813180226737 123.020032217043
v -405.311756953696 -307.903294776904 76.2210122041746
v -412.459564381942 -313.303987905115 92.0791260490956
cstype bspline
deg 1
curv 0 5 221 222 223 224 225
parm u 0 0 1 2 3 4
end
v -408.540975353101 -297.288156521606 99.2997773436863
v -105.638380828583 -392.875135328867 146.934559483425
v -103.805062210041 -385.797348843228 130.240683511633
v -401.393167924855 -291.887463393395 83.4416634987653
v -408.540975353101 -297.288156521606 99.2997773436863
cstype bspline
deg 1
curv 0 5 226 227 228 229 230
parm u 0 0 1 2 3 4
end
v -187.857538712832 -293.790280886065 169.120924540112
v -85.8669128944636 -563.623202364804 58.0056918284635
v -84.5437133828733 -553.78537937362 42.7548178078919
v -184.74745011937 -288.679965912909 151.923297133443
v -187.857538712832 -293.790280886065 169.120924540112
cstype bspline
deg 1
curv 0 5 231 232 233 234 235
parm u 0 0 1 2 3 4
end
v -171.008969955049 -289.234140413224 173.521755689562
v -69.0183441366799 -559.067061891963 62.4065229779138
v -67.6951446250897 -549.229238900779 47.1556489573422
v -167.898881361586 -284.123825440068 156.324128282894
v -171.008969955049 -289.234140413224 173.521755689562
cstype bspline
deg 1
curv 0 5 236 237 238 239 240
parm u 0 0 1 2 3 4
end
v 19.6793031939865 -536.610365703466 78.6127119685938
v 250.560469356789 -329.447737896926 145.182726144448
v 246.313446410276 -323.674073177449 128.429512654603
v 19.46631211912 -527.21708723604 63.022631718868
v 19.6793031939865 -536.610365703466 78.6127119685938
cstype bspline
deg 1
curv 0 5 241 242 243 244 245
parm u 0 0 1 2 3 4
end
v 7.52841669152131 -525.309619192889 85.587601609864
v 238.409582854324 -318.146991386349 152.157615785718
v 234.162559907811 -312.373326666873 135.404402295873
v 7.31542561665482 -515.916340725463 69.9975213601382
v 7.52841669152131 -525.309619192889 85.587601609864
cstype bspline
deg 1
curv 0 5 246 247 248 249 250
parm u 0 0 1 2 3 4
end
v 108.545315953095 -338.571512097403 167.436405272212
v 399.008398704865 -384.919527919182 68.3978501613327
v 391.916238609643 -378.204571308536 53.032255136512
v 106.556833446177 -332.670928615938 150.330620584358
v 108.545315953095 -338.571512097403 167.436405272212
cstype bspline
deg 1
curv 0 5 251 252 253 254 255
parm u 0 0 1 2 3 4
end
v 112.982706015643 -321.928016982646 172.661693761649
v 403.445788767414 -368.276032804425 73.6231386507699
v 396.353628672191 -361.561076193779 58.2575436259492
v 110.994223508726 -316.027433501181 155.555909073795
v 112.982706015643 -321.928016982646 172.661693761649
cstype bspline
deg 1
curv 0 5 256 257 258 259 260
parm u 0 0 1 2 3 4
end
v 336.259288634692 -284.840760793697 131.838207941863
v 388.453714546682 -528.897272381327 -10.4940581672463
v 381.447031962127 -519.581161377436 -24.4006628166267
v 330.183926913413 -279.879423639474 115.391925795726
v 336.259288634692 -284.840760793697 131.838207941863
cstype bspline
deg 1
curv 0 5 261 262 263 264 265
parm u 0 0 1 2 3 4
end
v 352.687541340298 -278.843295323418 127.578757158773
v 404.881967252288 -522.899806911048 -14.7535089503358
v 397.875284667733 -513.583695907157 -28.6601135997162
v 346.612179619019 -273.881958169195 111.132475012637
v 352.687541340298 -278.843295323418 127.578757158773
cstype bspline
deg 1
curv 0 5 266 267 268 269 270
parm u 0 0 1 2 3 4
end
v 471.946113457742 -477.128796313093 -28.649823287161
v 688.311886408349 -272.856556314649 -79.5615743869956
v 676.506399954191 -267.890197353753 -92.540205163734
v 463.851067152196 -468.659388278394 -42.5015358029419
v 471.946113457742 -477.128796313093 -28.649823287161
cstype bspline
deg 1
curv 0 5 271 272 273 274 275
parm u 0 0 1 2 3 4
end
v 464.001550422926 -465.835777884109 -17.1020246680104
v 680.367323373532 -261.563537885665 -68.013775767845
v 668.561836919374 -256.597178924769 -80.9924065445833
v 455.906504117379 -457.36636984941 -30.9537371837913
v 464.001550422926 -465.835777884109 -17.1020246680104
cstype bspline
deg 1
curv 0 5 276 277 278 279 280
parm u 0 0 1 2 3 4
end
v 581.525783816298 -296.518977079762 -11.0911629082417
v 727.609422405722 -303.363612931805 -147.243589400019
v 715.032458802015 -297.925093329008 -158.99636198816
v 571.462512766138 -291.198234596561 -25.1867395497621
v 581.525783816298 -296.518977079762 -11.0911629082417
cstype bspline
deg 1
curv 0 5 281 282 283 284 285
parm u 0 0 1 2 3 4
end
v 585.634204960835 -279.356469038968 -7.5458570753425
v 731.717843550259 -286.201104891011 -143.69828356712
v 719.140879946552 -280.762585288214 -155.451056155261
v 575.570933910674 -274.035726555766 -21.6414337168629
v 585.634204960835 -279.356469038968 -7.5458570753425
cstype bspline
deg 1
curv 0 5 286 287 288 289 290
parm u 0 0 1 2 3 4
end
v -661.367321804721 -329.432665820632 -86.887903749423
v -523.51501338895 -164.379069389774 65.7454113977944
v -514.523652846299 -161.543438647132 50.2064482941953
v -649.639164777252 -323.320208540157 -99.396621475477
v -661.367321804721 -329.432665820632 -86.887903749423
cstype bspline
deg 1
curv 0 5 291 292 293 294 295
parm u 0 0 1 2 3 4
end
v -672.73426022852 -316.105657784614 -91.0332104542967
v -534.88195181275 -151.052061353756 61.6001046929207
v -525.890591270099 -148.216430611115 46.0611415893216
v -661.006103201052 -309.993200504139 -103.541928180351
v -672.73426022852 -316.105657784614 -91.0332104542967
cstype bspline
deg 1
curv 0 5 296 297 298 299 300
parm u 0 0 1 2 3 4
end
v -642.97459468914 -155.053742121821 -9.28957413487524
v -373.153421055969 -256.771250330037 124.663217005603
v -366.632194134971 -252.399171179179 108.227363690883
v -632.003182126533 -152.359299267749 -23.5161316417093
v -642.97459468914 -155.053742121821 -9.28957413487524
cstype bspline
deg 1
curv 0 5 301 302 303 304 305
parm u 0 0 1 2 3 4
end
v -639.558472286305 -138.35850759262 -3.49308797998492
v -369.737298653134 -240.076015800836 130.459703160494
v -363.216071732136 -235.703936649978 114.023849845773
v -628.587059723699 -135.664064738548 -17.719645486819
v -639.558472286305 -138.35850759262 -3.49308797998492
cstype bspline
deg 1
curv 0 5 306 307 308 309 310
parm u 0 0 1 2 3 4
end
v -448.360200363659 -136.499243048142 115.716522721394
v -340.503467398014 -418.572161116407 78.1287465388461
v -334.677497012082 -411.313702473679 62.4817725122599
v -440.662128195746 -134.136808956171 99.4171263486345
v -448.360200363659 -136.499243048142 115.716522721394
cstype bspline
deg 1
curv 0 5 311 312 313 314 315
parm u 0 0 1 2 3 4
end
v -432.960597269079 -131.673259938683 123.689107719789
v -325.103864303434 -413.746178006949 86.1013315372406
v -319.277893917502 -406.487719364221 70.4543575106544
v -425.262525101166 -129.310825846712 107.389711347029
v -432.960597269079 -131.673259938683 123.689107719789
cstype bspline
deg 1
curv 0 5 316 317 318 319 320
parm u 0 0 1 2 3 4
end
v -234.290205618307 -401.87460071314 120.089151485511
v -15.8829475593884 -192.480856942272 213.954555231785
v -15.4695931361187 -189.164958822902 196.042368126491
v -230.077584536063 -394.916229003942 103.809784196068
v -234.290205618307 -401.87460071314 120.089151485511
cstype bspline
deg 1
curv 0 5 321 322 323 324 325
parm u 0 0 1 2 3 4
end
v -247.112270352459 -389.402911371346 122.102015344545
v -28.70501229354 -180.009167600478 215.967419090819
v -28.2916578702703 -176.693269481108 198.055231985525
v -242.899649270214 -382.444539662148 105.822648055102
v -247.112270352459 -389.402911371346 122.102015344545
cstype bspline
deg 1
curv 0 5 326 327 328 329 330
parm u 0 0 1 2 3 4
end
v -162.443020077521 -192.337015317031 201.746661570739
v 156.535519017988 -269.019691054461 184.500851370482
v 153.720248693926 -264.393376952845 167.09170335969
v -159.656032521889 -189.057488135951 184.034623351847
v -162.443020077521 -192.337015317031 201.746661570739
cstype bspline
deg 1
curv 0 5 331 332 333 334 335
parm u 0 0 1 2 3 4
end
v -158.136532151669 -175.28567168728 205.581481275061
v 160.84200694384 -251.968347424711 188.335671074804
v 158.026736619778 -247.342033323094 170.926523064012
v -155.349544596038 -172.006144506201 187.869443056169
v -158.136532151669 -175.28567168728 205.581481275061
cstype bspline
deg 1
curv 0 5 336 337 338 339 340
parm u 0 0 1 2 3 4
end
v 81.058784474112 -153.055394421129 217.571630719426
v 167.986586571312 -435.29737903471 118.755006022633
v 164.867398066171 -427.68049555254 102.533034520252
v 79.4719067949832 -150.413702283323 199.607779402304
v 81.058784474112 -153.055394421129 217.571630719426
cstype bspline
deg 1
curv 0 5 341 342 343 344 345
parm u 0 0 1 2 3 4
end
v 98.1778380803881 -147.5375269043 216.870815699489
v 185.105640177588 -429.779511517881 118.054191002696
v 181.986451672447 -422.162628035711 101.832219500315
v 96.5909604012593 -144.895834766494 198.906964382368
v 98.1778380803881 -147.5375269043 216.870815699489
cstype bspline
deg 1
curv 0 5 346 347 348 349 350
parm u 0 0 1 2 3 4
end
v 276.529445853608 -394.926104059133 110.783925186239
v 506.447465003476 -172.022564478296 82.7602866136888
v 497.672409414141 -169.037930372221 67.0711216364707
v 271.818160091368 -388.001680101656 94.5994461953669
v 276.529445853608 -394.926104059133 110.783925186239
cstype bspline
deg 1
curv 0 5 351 352 353 354 355
parm u 0 0 1 2 3 4
end
v 265.910462493011 -382.939588688091 119.003453253418
v 495.82848164288 -160.036049107254 90.9798146808682
v 487.053426053545 -157.05141500118 75.2906497036502
v 261.199176730771 -376.015164730614 102.818974262546
v 265.910462493011 -382.939588688091 119.003453253418
cstype bspline
deg 1
curv 0 5 356 357 358 359 360
parm u 0 0 1 2 3 4
end
v 375.204292611075 -183.945694925201 141.132611328714
v 630.733044812384 -228.80878596303 -18.8620412428596
v 619.932397425419 -224.919439773991 -32.9083738559629
v 368.504982524772 -180.776419049625 124.518301410335
v 375.204292611075 -183.945694925201 141.132611328714
cstype bspline
deg 1
curv 0 5 361 362 363 364 365
parm u 0 0 1 2 3 4
end
v 379.313272329131 -166.500796636568 142.803482172272
v 634.84202453044 -211.363887674397 -17.1911703993022
v 624.041377143475 -207.474541485358 -31.2375030124055
v 372.613962242829 -163.331520760992 126.189172253893
v 379.313272329131 -166.500796636568 142.803482172272
cstype bspline
deg 1
curv 0 5 366 367 368 369 370
parm u 0 0 1 2 3 4
end
v 573.860739710034 -128.665245648553 42.6533800258914
v 617.766207452234 -369.073573592911 -68.3431076736275
v 606.981908813438 -362.355723201086 -81.3200135402064
v 563.893437465898 -126.420932318904 27.6110427920181
v 573.860739710034 -128.665245648553 42.6533800258914
cstype bspline
deg 1
curv 0 5 371 372 373 374 375
parm u 0 0 1 2 3 4
end
v 588.261880172653 -122.082873167255 34.0930338942593
v 632.167347914854 -362.491201111613 -76.9034538052596
v 621.383049276057 -355.773350719789 -89.8803596718385
v 578.294577928518 -119.838559837606 19.0506966603861
v 588.261880172653 -122.082873167255 34.0930338942593
cstype bspline
deg 1
curv 0 5 376 377 378 379 380
parm u 0 0 1 2 3 4
end
v -669.742632375153 6.3497869432047 -16.3750221231255
v -575.435863883582 -258.842013374468 6.57784175795769
v -565.684689081487 -254.191134992763 -8.001459111656
v -658.300334905211 6.24520745038493 -30.5427289044021
v -669.742632375153 6.3497869432047 -16.3750221231255
cstype bspline
deg 1
curv 0 5 381 382 383 384 385
parm u 0 0 1 2 3 4
end
v -656.429536578788 12.0111498447408 -5.6647256559902
v -562.122768087218 -253.180650472932 17.288138225093
v -552.371593285122 -248.529772091227 2.70883735547932
v -644.987239108847 11.9065703519211 -19.8324324372668
v -656.429536578788 12.0111498447408 -5.6647256559902
cstype bspline
deg 1
curv 0 5 386 387 388 389 390
parm u 0 0 1 2 3 4
end
v -760.153911496547 -37.4577968731518 -114.030454477761
v -606.719640002472 -96.2309369394368 19.8160356862063
v -596.317029661596 -94.4689133636315 5.05535327025177
v -747.182409965668 -36.679789451331 -126.550196417727
v -760.153911496547 -37.4577968731518 -114.030454477761
cstype bspline
deg 1
curv 0 5 391 392 393 394 395
parm u 0 0 1 2 3 4
end
v -757.173150516879 -20.2008110181578 -109.869745021115
v -603.738879022804 -78.9739510844429 23.9767451428525
v -593.336268681928 -77.2119275086375 9.21606272689792
v -744.201648986 -19.422803596337 -122.389486961081
v -757.173150516879 -20.2008110181578 -109.869745021115
cstype bspline
deg 1
curv 0 5 396 397 398 399 400
parm u 0 0 1 2 3 4
end
v -487.312644860855 -246.868558815247 73.5516343252883
v -288.882267292643 -39.6054555809551 189.347267659257
v -283.702798108278 -38.9786855306788 171.895558696245
v -478.689804202271 -242.645142595763 58.1093323167347
v -487.312644860855 -246.868558815247 73.5516343252883
cstype bspline
deg 1
curv 0 5 401 402 403 404 405
parm u 0 0 1 2 3 4
end
v -499.237093627915 -233.738513946108 70.4841527302063
v -300.806716059703 -26.4754107118161 186.279786064175
v -295.627246875338 -25.8486406615398 168.828077101163
v -490.61425296933 -229.515097726624 55.0418507216527
v -499.237093627915 -233.738513946108 70.4841527302063
cstype bspline
deg 1
curv 0 5 406 407 408 409 410
parm u 0 0 1 2 3 4
end
v -427.339359903216 -38.3136805654802 139.648867014455
v -118.53289046142 -121.968676333207 218.345027649844
v -116.513261173483 -119.933161586821 200.335688639886
v -419.868333716496 -37.7549372912734 123.028760577277
v -427.339359903216 -38.3136805654802 139.648867014455
cstype bspline
deg 1
curv 0 5 411 412 413 414 415
parm u 0 0 1 2 3 4
end
v -423.25288663422 -20.9516156253843 142.069494461559
v -114.446417192423 -104.606611393111 220.765655096948
v -112.426787904487 -102.571096646726 202.75631608699
v -415.7818604475 -20.3928723511775 125.449388024381
v -423.25288663422 -20.9516156253843 142.069494461559
cstype bspline
deg 1
curv 0 5 416 417 418 419 420
parm u 0 0 1 2 3 4
end
v -196.032526393559 -0.108819813449047 213.321945974054
v -94.6903798434769 -299.677742886266 183.147605511769
v -93.1879832519536 -294.456063250834 165.761422944744
v -192.760037617581 -0.1195595364772 195.408723413881
v -196.032526393559 -0.108819813449047 213.321945974054
cstype bspline
deg 1
curv 0 5 421 422 423 424 425
parm u 0 0 1 2 3 4
end
v -179.141705133233 5.29474653646829 216.404417036981
v -77.7995585831515 -294.274176536348 186.230076574696
v -76.2971619916281 -289.052496900916 168.843894007671
v -175.869216357256 5.28400681344014 198.491194476808
v -179.141705133233 5.29474653646829 216.404417036981
cstype bspline
deg 1
curv 0 5 426 427 428 429 430
parm u 0 0 1 2 3 4
end
v 25.667500118055 -268.464567014912 196.778905192975
v 261.472563369556 -40.4065722917328 199.097090655737
v 257.004430747295 -39.7780170738657 181.432206988494
v 25.3503882381319 -263.821367439971 179.154829962192
v 25.667500118055 -268.464567014912 196.778905192975
cstype bspline
deg 1
curv 0 5 431 432 433 434 435
parm u 0 0 1 2 3 4
end
v 13.3827326189712 -255.798655708963 200.336879094411
v 249.187795870473 -27.7406609857843 202.655064557173
v 244.719663248211 -27.1121057679173 184.990180889931
v 13.0656207390481 -251.155456134022 182.712803863628
v 13.3827326189712 -255.798655708963 200.336879094411
cstype bspline
deg 1
curv 0 5 436 437 438 439 440
parm u 0 0 1 2 3 4
end
v 115.917007069139 -43.5940086897505 225.275362977571
v 422.014616110603 -116.6621190893 135.498455221518
v 414.561262732216 -114.730335770123 118.97709597682
v 113.855580992936 -42.9493244126604 207.17257824722
v 115.917007069139 -43.5940086897505 225.275362977571
cstype bspline
deg 1
curv 0 5 441 442 443 444 445
parm u 0 0 1 2 3 4
end
v 120.135803026162 -26.0959691931006 225.418102063623
v 426.233412067626 -99.1640795926497 135.64119430757
v 418.780058689239 -97.2322962734729 119.119835062872
v 118.074376949959 -25.4512849160105 207.315317333272
v 120.135803026162 -26.0959691931006 225.418102063623
cstype bspline
deg 1
curv 0 5 446 447 448 449 450
parm u 0 0 1 2 3 4
end
v 349.686177073264 -1.53046913114309 170.678283093163
v 427.274075239777 -281.645646456448 93.304390086565
v 419.624972456582 -276.713500194192 77.5718773363729
v 343.415191703832 -1.57373286005378 153.571454092076
v 349.686177073264 -1.53046913114309 170.678283093163
cstype bspline
deg 1
curv 0 5 451 452 453 454 455
parm u 0 0 1 2 3 4
end
v 365.606346801128 4.49542474651106 164.827061100173
v 443.194244967641 -275.619752578794 87.4531680935752
v 435.545142184446 -270.687606316537 71.7206553433831
v 359.335361431697 4.45216101760038 147.720232099086
v 365.606346801128 4.49542474651106 164.827061100173
cstype bspline
deg 1
curv 0 5 456 457 458 459 460
parm u 0 0 1 2 3 4
end
v 521.813910858737 -237.363267819205 49.7202054804746
v 710.027556829112 -36.2806255974926 -51.8021474777537
v 697.786145584712 -35.7576424832724 -65.2878569449872
v 512.932771661092 -233.250256052909 34.4219668365843
v 521.813910858737 -237.363267819205 49.7202054804746
cstype bspline
deg 1
curv 0 5 461 462 463 464 465
parm u 0 0 1 2 3 4
end
v 512.756702884226 -224.482642233747 58.4412414415118
v 700.970348854602 -23.4000000120346 -43.0811115167165
v 688.728937610201 -22.8770168978145 -56.56682098395
v 503.875563686581 -220.369630467451 43.1430027976214
v 512.756702884226 -224.482642233747 58.4412414415118
cstype bspline
deg 1
curv 0 5 466 467 468 469 470
parm u 0 0 1 2 3 4
end
v 606.452433677239 -45.8512150013308 25.2437833457136
v 756.768841663701 -87.6674962906622 -114.139028214131
v 743.778715607796 -86.3233479280884 -126.594904788632
v 595.9850578898 -45.2088665038685 10.4486543237091
v 606.452433677239 -45.8512150013308 25.2437833457136
cstype bspline
deg 1
curv 0 5 471 472 473 474 475
parm u 0 0 1 2 3 4
end
v 609.837503510085 -28.2477386100409 23.6131634733774
v 760.153911496547 -70.0640198993723 -115.769648086467
v 747.163785440641 -68.7198715367985 -128.225524660968
v 599.370127722646 -27.6053901125786 8.81803445137291
v 609.837503510085 -28.2477386100409 23.6131634733774
cstype bspline
deg 1
curv 0 5 476 477 478 479 480
parm u 0 0 1 2 3 4
end
v -696.255516632289 -94.4049736445095 -46.9000912174664
v -524.319323446421 98.1882505408683 75.6742970810936
v -515.197911396649 96.4572283237148 60.0722814108655
v -684.039950224007 -92.6700986995189 -60.2962648787017
v -696.255516632289 -94.4049736445095 -46.9000912174664
cstype bspline
deg 1
curv 0 5 481 482 483 484 485
parm u 0 0 1 2 3 4
end
v -706.027084251216 -81.1066131568747 -54.0882811571975
v -534.090891065349 111.486611028503 68.4861071413626
v -524.969479015576 109.75558881135 52.8840914711344
v -693.811517842934 -79.3717382118842 -67.4844548184327
v -706.027084251216 -81.1066131568747 -54.0882811571975
cstype bspline
deg 1
curv 0 5 486 487 488 489 490
parm u 0 0 1 2 3 4
end
v -645.668618173898 92.8375536254936 -1.77882036827714
v -383.402218198799 27.2699456917292 155.480157305443
v -376.656181816632 26.7037754614848 138.581138860542
v -634.680561475103 91.2108620131957 -16.1342580177441
v -645.668618173898 92.8375536254936 -1.77882036827714
cstype bspline
deg 1
curv 0 5 491 492 493 494 495
parm u 0 0 1 2 3 4
end
v -641.841088517295 110.400791634169 -0.839305930688624
v -379.574688542195 44.8331837004046 156.419671743031
v -372.828652160029 44.2670134701603 139.520653298131
v -630.853031818499 108.774100021871 -15.1947435801555
v -641.841088517295 110.400791634169 -0.839305930688624
cstype bspline
deg 1
curv 0 5 496 497 498 499 500
parm u 0 0 1 2 3 4
end
v -451.643311641043 142.91530540498 115.169019886246
v -362.101766478047 -145.186547148756 154.255493386604
v -355.876932263312 -142.652989132793 137.333693062702
v -443.871130280343 140.470240609769 98.9226640513417
v -451.643311641043 142.91530540498 115.169019886246
cstype bspline
deg 1
curv 0 5 501 502 503 504 505
parm u 0 0 1 2 3 4
end
v -435.943430674096 148.695750555054 121.809817390363
v -346.4018855111 -139.406101998683 160.896290890721
v -340.177051296364 -136.872543982719 143.974490566818
v -428.171249313395 146.250685759842 105.563461555459
v -435.943430674096 148.695750555054 121.809817390363
cstype bspline
deg 1
curv 0 5 506 507 508 509 510
parm u 0 0 1 2 3 4
end
v -247.453133158498 -118.044084616577 195.715295576712
v -14.3358407313275 110.506523041647 227.885234943922
v -13.9914720719084 108.488365566889 209.762218743304
v -243.009936978763 -116.043709142961 178.157913231191
v -247.453133158498 -118.044084616577 195.715295576712
cstype bspline
deg 1
curv 0 5 511 512 513 514 515
parm u 0 0 1 2 3 4
end
v -259.881593023366 -105.131654249292 194.04122048957
v -26.7643005961957 123.418953408931 226.211159856779
v -26.4199319367766 121.400795934173 208.088143656161
v -255.438396843632 -103.131278775676 176.483838144048
v -259.881593023366 -105.131654249292 194.04122048957
cstype bspline
deg 1
curv 0 5 516 517 518 519 520
parm u 0 0 1 2 3 4
end
v -162.857309530495 108.400790012486 215.040663527804
v 160.540592258484 28.9318255352761 220.931304054184
v 157.692624095424 28.3010599558648 202.928676621862
v -160.001809027097 106.368504057264 197.141923855674
v -162.857309530495 108.400790012486 215.040663527804
cstype bspline
deg 1
curv 0 5 521 522 523 524 525
parm u 0 0 1 2 3 4
end
v -158.550821604643 125.830219385442 213.748706300333
v 164.847080184336 46.3612549082325 219.639346826713
v 161.999112021276 45.7304893288213 201.636719394391
v -155.695321101246 123.797933430221 195.849966628202
v -158.550821604643 125.830219385442 213.748706300333
cstype bspline
deg 1
curv 0 5 526 527 528 529 530
parm u 0 0 1 2 3 4
end
v 81.1745840684693 150.279840830532 218.8177370155
v 179.391516867272 -152.131253566292 205.254552664399
v 176.105073769532 -149.480911441249 187.537606492448
v 79.6170835384254 147.606748399567 200.862033980452
v 81.1745840684693 150.279840830532 218.8177370155
cstype bspline
deg 1
curv 0 5 531 532 533 534 535
parm u 0 0 1 2 3 4
end
v 98.1227378286086 155.887631347978 216.512792409849
v 196.339670627411 -146.523463048847 202.949608058748
v 193.053227529671 -143.873120923804 185.232661886797
v 96.5652372985648 153.214538917013 198.557089374801
v 98.1227378286086 155.887631347978 216.512792409849
cstype bspline
deg 1
curv 0 5 536 537 538 539 540
parm u 0 0 1 2 3 4
end
v 298.845544025942 -116.112044630722 181.353187230234
v 509.887419726243 102.327600912096 91.1369470114619
v 501.034508032236 100.396280772813 75.3458363701527
v 293.748133841843 -114.156219548528 163.956673750101
v 298.845544025942 -116.112044630722 181.353187230234
cstype bspline
deg 1
curv 0 5 541 542 543 544 545
parm u 0 0 1 2 3 4
end
v 287.409065313771 -103.073476675278 186.170105367106
v 498.450941014073 115.36616886754 95.9538651483342
v 489.598029320065 113.434848728257 80.1627545070251
v 282.311655129673 -101.117651593084 168.773591886973
v 287.409065313771 -103.073476675278 186.170105367106
cstype bspline
deg 1
curv 0 5 546 547 548 549 550
parm u 0 0 1 2 3 4
end
v 379.315825345572 102.893445697053 153.045244099882
v 646.086333066928 18.0123341153297 4.08378026530806
v 635.066508597854 17.4143264901497 -10.3274971975769
v 372.596981108988 100.926951029797 136.232350668172
v 379.315825345572 102.893445697053 153.045244099882
cstype bspline
deg 1
curv 0 5 551 552 553 554 555
parm u 0 0 1 2 3 4
end
v 382.892355482824 120.193361995847 149.592516448869
v 649.66286320418 35.3122504141232 0.631052614295299
v 638.643038735106 34.7142427889432 -13.7802248485897
v 376.17351124624 118.22686732859 132.779623017159
v 382.892355482824 120.193361995847 149.592516448869
cstype bspline
deg 1
curv 0 5 556 557 558 559 560
parm u 0 0 1 2 3 4
end
v 575.294180707737 130.325710407329 39.5001404810514
v 653.575304526413 -132.422329105099 -14.9896462194145
v 642.187864745622 -130.050382188175 -28.9873628267744
v 565.341128534648 127.883182091401 24.5039778757703
v 575.294180707737 130.325710407329 39.5001404810514
cstype bspline
deg 1
curv 0 5 561 562 563 564 565
parm u 0 0 1 2 3 4
end
v 588.914195501744 136.465637013763 29.4603945540562
v 667.195319320421 -126.282402498665 -25.0293921464097
v 655.80787953963 -123.910455581741 -39.0271087537697
v 578.961143328656 134.023108697835 14.464231948775
v 588.914195501744 136.465637013763 29.4603945540562
cstype bspline
deg 1
curv 0 5 566 567 568 569 570
parm u 0 0 1 2 3 4
end
v -653.554848885424 250.983622246166 -44.8059430477759
v -591.345270951015 -3.48174491115567 38.0481512895711
v -581.306541000468 -3.40042559458136 22.9218491881354
v -642.390361691 246.46008424165 -58.4329005147968
v -653.554848885424 250.983622246166 -44.8059430477759
cstype bspline
deg 1
curv 0 5 571 572 573 574 575
parm u 0 0 1 2 3 4
end
v -639.56982577405 257.435858835071 -35.4899475789529
v -577.360247839641 2.97049167774959 47.3641467583942
v -567.321517889094 3.0518109943239 32.2378446569585
v -628.405338579626 252.912320830555 -49.1169050459737
v -639.56982577405 257.435858835071 -35.4899475789529
cstype bspline
deg 1
curv 0 5 576 577 578 579 580
parm u 0 0 1 2 3 4
end
v -749.104747059976 183.63991407055 -125.80049088477
v -601.28332750977 159.395344246026 14.3328133393744
v -590.922036022807 156.372849327367 -0.227982697134507
v -736.250937281584 180.208614839638 -137.998403212817
v -749.104747059976 183.63991407055 -125.80049088477
cstype bspline
deg 1
curv 0 5 581 582 583 584 585
parm u 0 0 1 2 3 4
end
v -745.318899464927 201.211431299627 -126.753979351038
v -597.497479914721 176.966861475103 13.3793248731066
v -587.136188427758 173.944366556444 -1.18147116340231
v -732.465089686535 197.780132068716 -138.951891679085
v -745.318899464927 201.211431299627 -126.753979351038
cstype bspline
deg 1
curv 0 5 586 587 588 589 590
parm u 0 0 1 2 3 4
end
v -499.548917647953 26.4454611821649 101.243392042221
v -278.393952552613 250.50730566149 162.880409764383
v -273.451501122165 246.069308070861 145.891654439255
v -490.708591843867 25.9565719524045 85.3409942028634
v -499.548917647953 26.4454611821649 101.243392042221
cstype bspline
deg 1
curv 0 5 591 592 593 594 595
parm u 0 0 1 2 3 4
end
v -510.561984616148 39.1069052801049 94.7318492673642
v -289.407019520809 263.168749759431 156.368866989526
v -284.46456809036 258.730752168801 139.380111664399
v -501.721658812062 38.6180160503445 78.8294514280069
v -510.561984616148 39.1069052801049 94.7318492673642
cstype bspline
deg 1
curv 0 5 596 597 598 599 600
parm u 0 0 1 2 3 4
end
v -416.747402505655 240.99825321848 113.341562469378
v -116.757459280515 180.613617684535 209.634963590492
v -114.730927046163 177.354899623127 191.821154027744
v -409.408236615522 236.670161152128 97.2330486179654
v -416.747402505655 240.99825321848 113.341562469378
cstype bspline
deg 1
curv 0 5 601 602 603 604 605
parm u 0 0 1 2 3 4
end
v -412.416127224373 258.26478711107 110.675692672519
v -112.426183999233 197.880151577125 206.969093793634
v -110.399651764881 194.621433515717 189.155284230885
v -405.076961334241 253.936695044718 94.5671788211067
v -412.416127224373 258.26478711107 110.675692672519
cstype bspline
deg 1
curv 0 5 606 607 608 609 610
parm u 0 0 1 2 3 4
end
v -191.171485829039 296.329677535069 170.591549287893
v -97.8671730248292 -0.173344600158633 227.91091465595
v -96.2800281327232 -0.155859905964616 209.757516961402
v -187.954989879236 291.169400363741 153.439106059243
v -191.171485829039 296.329677535069 170.591549287893
cstype bspline
deg 1
curv 0 5 611 612 613 614 615
parm u 0 0 1 2 3 4
end
v -174.145509449578 301.976274042218 172.0855627455
v -80.8411966453685 5.47325190698947 229.404928113557
v -79.2540517532626 5.49073660118349 211.251530419009
v -170.929013499775 296.815996870889 154.93311951685
v -174.145509449578 301.976274042218 172.0855627455
cstype bspline
deg 1
curv 0 5 616 617 618 619 620
parm u 0 0 1 2 3 4
end
v 29.2340116660923 32.8289073422969 232.706808846244
v 256.48221465636 254.907775954021 167.825597332576
v 252.071192536639 250.30214391978 150.756911804952
v 28.8631136384088 32.1714965727535 214.484635008008
v 29.2340116660923 32.8289073422969 232.706808846244
cstype bspline
deg 1
curv 0 5 621 622 623 624 625
parm u 0 0 1 2 3 4
end
v 16.6240324840514 45.6720264236126 232.500127227231
v 243.872235474319 267.750895035337 167.618915713562
v 239.461213354598 263.145263001096 150.550230185938
v 16.2531344563679 45.0146156540692 214.277953388995
v 16.6240324840514 45.6720264236126 232.500127227231
cstype bspline
deg 1
curv 0 5 626 627 628 629 630
parm u 0 0 1 2 3 4
end
v 112.396110117123 256.633730281186 194.050451282285
v 420.153262246848 165.358089476722 129.789012858693
v 412.777183765364 162.278651625215 113.409400705343
v 110.453299258479 251.942875828943 176.53634204132
v 112.396110117123 256.633730281186 194.050451282285
cstype bspline
deg 1
curv 0 5 631 632 633 634 635
parm u 0 0 1 2 3 4
end
v 116.358432685708 273.47960536436 189.099038095671
v 424.115584815433 182.203964559896 124.837599672078
v 416.73950633395 179.124526708389 108.457987518728
v 114.415621827064 268.788750912117 171.584928854706
v 116.358432685708 273.47960536436 189.099038095671
cstype bspline
deg 1
curv 0 5 636 637 638 639 640
parm u 0 0 1 2 3 4
end
v 339.198390634219 284.023429174622 131.507656606279
v 439.669950956524 -4.48739860962135 132.795658636428
v 431.833405041418 -4.44634966461877 116.37015468146
v 333.14329144112 278.948934310299 115.104990029243
v 339.198390634219 284.023429174622 131.507656606279
cstype bspline
deg 1
curv 0 5 641 642 643 644 645
parm u 0 0 1 2 3 4
end
v 354.709913140125 289.392213139139 124.120584906944
v 455.181473462431 0.881385354894962 125.408586937094
v 447.344927547324 0.922434299897534 108.983082982125
v 348.654813947027 284.317718274815 107.717918329908
v 354.709913140125 289.392213139139 124.120584906944
cstype bspline
deg 1
curv 0 5 646 647 648 649 650
parm u 0 0 1 2 3 4
end
v 540.348116625375 24.1798429761116 73.1483964817478
v 694.412655978836 204.279785441041 -67.8524003905636
v 682.410846191134 200.306210877687 -80.9290980716954
v 531.217440257877 23.5625953518304 57.444020154548
v 540.348116625375 24.1798429761116 73.1483964817478
cstype bspline
deg 1
curv 0 5 651 652 653 654 655
parm u 0 0 1 2 3 4
end
v 529.776578942371 37.6215610106509 78.7664750942956
v 683.841118295832 217.72150347558 -62.2343217780158
v 671.83930850813 213.747928912227 -75.3110194591476
v 520.645902574872 37.0043133863696 63.0620987670958
v 529.776578942371 37.6215610106509 78.7664750942956
cstype bspline
deg 1
curv 0 5 656 657 658 659 660
parm u 0 0 1 2 3 4
end
v 593.706525718764 209.504139478054 9.60818823488637
v 750.683149452024 135.14368738766 -114.035144533013
v 737.89183991737 132.253633813958 -126.425810383244
v 583.51317984372 205.383420167961 -4.82877519548492
v 593.706525718764 209.504139478054 9.60818823488637
cstype bspline
deg 1
curv 0 5 661 662 663 664 665
parm u 0 0 1 2 3 4
end
v 596.351982098874 226.044607228319 3.01922115776654
v 753.328605832134 151.684155137925 -120.624111610133
v 740.53729629748 148.794101564223 -133.014777460363
v 586.15863622383 221.923887918226 -11.4177422726048
v 596.351982098874 226.044607228319 3.01922115776654
cstype bspline
deg 1
curv 0 5 666 667 668 669 670
parm u 0 0 1 2 3 4
end
v -693.700257380628 147.790669602097 -50.6856809466698
v -491.370680271265 353.024553273888 27.5105656238255
v -482.658551214873 346.876881726836 12.8484469091858
v -681.684841137983 144.993701732695 -64.0711466726577
v -693.700257380628 147.790669602097 -50.6856809466698
cstype bspline
deg 1
curv 0 5 671 672 673 674 675
parm u 0 0 1 2 3 4
end
v -702.167384716105 160.00638682996 -60.838710410516
v -499.837807606742 365.24027050175 17.3575361599793
v -491.12567855035 359.092598954698 2.69541744533956
v -690.15196847346 157.209418960558 -74.224176136504
v -702.167384716105 160.00638682996 -60.838710410516
cstype bspline
deg 1
curv 0 5 676 677 678 679 680
parm u 0 0 1 2 3 4
end
v -614.251475983195 332.499632263384 -43.6561759679438
v -365.793174524119 307.871945326017 110.792342768705
v -359.308951706943 302.437076362168 94.7062347132048
v -603.785182894301 326.670052479094 -57.2669195403083
v -614.251475983195 332.499632263384 -43.6561759679438
cstype bspline
deg 1
curv 0 5 681 682 683 684 685
parm u 0 0 1 2 3 4
end
v -610.042918492936 349.524339387822 -47.7117143019153
v -361.58461703386 324.896652450455 106.736804434734
v -355.100394216684 319.461783486606 90.6506963792333
v -599.576625404042 343.694759603531 -61.3224578742798
v -610.042918492936 349.524339387822 -47.7117143019153
cstype bspline
deg 1
curv 0 5 686 687 688 689 690
parm u 0 0 1 2 3 4
end
v -426.565101222648 408.73684736936 44.9867043064747
v -360.313235823921 142.893934348744 154.06547196897
v -354.091826286415 140.461718287319 137.138831200362
v -419.199984873056 401.715381650786 29.9430917194701
v -426.565101222648 408.73684736936 44.9867043064747
cstype bspline
deg 1
curv 0 5 691 692 693 694 695
parm u 0 0 1 2 3 4
end
v -410.406074836734 414.840977640649 50.0488639138429
v -344.154209438007 148.998064620033 159.127631576338
v -337.932799900501 146.565848558608 142.20099080773
v -403.040958487142 407.819511922075 35.0052513268382
v -410.406074836734 414.840977640649 50.0488639138429
cstype bspline
deg 1
curv 0 5 696 697 698 699 700
parm u 0 0 1 2 3 4
end
v -244.522900033078 179.501299813879 187.017344394014
v -9.64448475751296 400.622913913534 152.639012917886
v -9.42811451404603 393.496968254995 135.854768460273
v -240.118045399565 176.31851950696 169.62004613759
v -244.522900033078 179.501299813879 187.017344394014
cstype bspline
deg 1
curv 0 5 701 702 703 704 705
parm u 0 0 1 2 3 4
end
v -256.718231110618 191.630298829918 181.710623864525
v -21.8398158350536 412.751912929573 147.332292388397
v -21.6234455915867 405.625967271034 130.548047930784
v -252.313376477106 188.447518522999 164.313325608101
v -256.718231110618 191.630298829918 181.710623864525
cstype bspline
deg 1
curv 0 5 706 707 708 709 710
parm u 0 0 1 2 3 4
end
v -154.753669536334 394.70693635753 141.321227070418
v 155.740544958354 323.273136853024 168.718345146486
v 153.017845009666 317.453781297715 151.671785623607
v -151.988767033155 387.625076462342 124.758877833302
v -154.753669536334 394.70693635753 141.321227070418
cstype bspline
deg 1
curv 0 5 711 712 713 714 715
parm u 0 0 1 2 3 4
end
v -150.447181610483 411.025166391336 135.062670502943
v 160.047032884206 339.59136688683 162.459788579011
v 157.324332935518 333.772011331521 145.413229056132
v -147.682279107303 403.943306496148 118.500321265827
v -150.447181610483 411.025166391336 135.062670502943
cstype bspline
deg 1
curv 0 5 716 717 718 719 720
parm u 0 0 1 2 3 4
end
v 75.0059030582116 436.528504661484 132.260615770761
v 177.876166141399 148.605422293524 206.367127211777
v 174.643116735446 145.993046863935 188.623909072306
v 73.586166029669 428.840857979039 115.823686255574
v 75.0059030582116 436.528504661484 132.260615770761
cstype bspline
deg 1
curv 0 5 721 722 723 724 725
parm u 0 0 1 2 3 4
end
v 91.8598757754049 441.56872919858 128.44751463602
v 194.730138858592 153.645646830619 202.554026077035
v 191.49708945264 151.03327140103 184.810807937564
v 90.4401387468623 433.881082516134 112.010585120833
v 91.8598757754049 441.56872919858 128.44751463602
cstype bspline
deg 1
curv 0 5 726 727 728 729 730
parm u 0 0 1 2 3 4
end
v 299.888801943907 175.333168875732 172.382821276391
v 482.989015247568 366.155797285075 32.5438814327474
v 474.587935875636 359.510968863031 17.8604772695821
v 294.78111556213 172.120635236023 155.184157431534
v 299.888801943907 175.333168875732 172.382821276391
cstype bspline
deg 1
curv 0 5 731 732 733 734 735
parm u 0 0 1 2 3 4
end
v 287.416579138565 188.24730572842 173.674613691585
v 470.516792442225 379.069934137762 33.8356738479417
v 462.115713070293 372.425105715719 19.1522696847765
v 282.308892756788 185.03477208871 156.475949846729
v 287.416579138565 188.24730572842 173.674613691585
cstype bspline
deg 1
curv 0 5 736 737 738 739 740
parm u 0 0 1 2 3 4
end
v 355.90318943837 377.857166503087 90.2585932494105
v 626.630340652717 262.958691840622 -23.1770196362179
v 615.968718931601 257.938329388761 -36.985852411801
v 349.650785160369 370.965501685 74.6022831123505
v 355.90318943837 377.857166503087 90.2585932494105
cstype bspline
deg 1
curv 0 5 741 742 743 744 745
parm u 0 0 1 2 3 4
end
v 359.129925906758 393.553703654247 82.0606122037
v 629.857077121104 278.655228991782 -31.3750006819284
v 619.195455399989 273.634866539921 -45.1838334575116
v 352.877521628756 386.66203883616 66.40430206664
v 359.129925906758 393.553703654247 82.0606122037
cstype bspline
deg 1
curv 0 5 746 747 748 749 750
parm u 0 0 1 2 3 4
end
v 542.742601344681 377.534864214675 -18.1867933988245
v 652.180003147237 116.131062278246 -7.94618415217599
v 640.830519288779 113.944534703682 -22.0410423277738
v 533.371422128964 370.622928813505 -32.0965316384272
v 542.742601344681 377.534864214675 -18.1867933988245
cstype bspline
deg 1
curv 0 5 751 752 753 754 755
parm u 0 0 1 2 3 4
end
v 555.814534947629 382.564544557585 -29.4928478621754
v 665.251936750186 121.160742621156 -19.2522386155268
v 653.902452891727 118.974215046593 -33.3470967911246
v 546.443355731913 375.652609156415 -43.4025861017781
v 555.814534947629 382.564544557585 -29.4928478621754
cstype bspline
deg 1
curv 0 5 756 757 758 759 760
parm u 0 0 1 2 3 4
end
v -602.509484646078 474.722927487782 -116.314677828421
v -572.93104461065 251.201259407599 14.029656759426
v -563.186991846924 246.733504373873 -0.6272844200696
v -592.224128202182 466.164588184415 -128.586237361111
v -602.509484646078 474.722927487782 -116.314677828421
cstype bspline
deg 1
curv 0 5 761 762 763 764 765
parm u 0 0 1 2 3 4
end
v -587.693932508394 481.264331554403 -108.459141710958
v -558.115492472967 257.74266347422 21.8851928768886
v -548.37143970924 253.274908440495 7.22825169739303
v -577.408576064498 472.705992251036 -120.730701243648
v -587.693932508394 481.264331554403 -108.459141710958
cstype bspline
deg 1
curv 0 5 766 767 768 769 770
parm u 0 0 1 2 3 4
end
v -704.437274259456 390.840905088029 -168.683910344726
v -559.331843719702 400.479974860894 -41.0900794180047
v -549.689926811191 392.987933688005 -54.4594427875652
v -692.277022181187 383.516151991971 -179.838856027286
v -704.437274259456 390.840905088029 -168.683910344726
cstype bspline
deg 1
curv 0 5 771 772 773 774 775
parm u 0 0 1 2 3 4
end
v -700.162236080234 407.227421063909 -174.783594167548
v -555.05680554048 416.866490836775 -47.1897632408268
v -545.414888631969 409.374449663885 -60.5591266103872
v -688.001984001964 399.902667967851 -185.938539850108
v -700.162236080234 407.227421063909 -174.783594167548
cstype bspline
deg 1
curv 0 5 776 777 778 779 780
parm u 0 0 1 2 3 4
end
v -481.088033578192 295.18830974967 61.2722632105649
v -248.021106377751 513.124647646977 61.5753927141743
v -243.676518269995 504.069221834739 46.3346484085312
v -472.55317005177 290.051128754466 46.0369688249209
v -481.088033578192 295.18830974967 61.2722632105649
cstype bspline
deg 1
curv 0 5 781 782 783 784 785
parm u 0 0 1 2 3 4
end
v -491.488854472329 306.324551896633 51.6906644101412
v -258.421927271888 524.26088979394 51.9937939137506
v -254.077339164132 515.205463981702 36.7530496081074
v -482.953990945907 301.187370901429 36.4553700244971
v -491.488854472329 306.324551896633 51.6906644101412
cstype bspline
deg 1
curv 0 5 786 787 788 789 790
parm u 0 0 1 2 3 4
end
v -383.187938473021 492.816863733454 19.4742476303711
v -104.558547426185 460.221810444923 115.829830933398
v -102.704879958773 452.05610455739 99.6843105082721
v -376.394391775956 484.073273272709 5.03703566054264
v -383.187938473021 492.816863733454 19.4742476303711
cstype bspline
deg 1
curv 0 5 791 792 793 794 795
parm u 0 0 1 2 3 4
end
v -378.761088465365 508.585482049908 12.0074092499237
v -100.131697418529 475.990428761377 108.362992552951
v -98.2780299511179 467.824722873844 92.2174721278247
v -371.9675417683 499.841891589163 -2.42980271990473
v -378.761088465365 508.585482049908 12.0074092499237
cstype bspline
deg 1
curv 0 5 796 797 798 799 800
parm u 0 0 1 2 3 4
end
v -174.433368171609 558.530420781907 49.5766990219481
v -94.6966564457416 296.833464989939 183.080404815756
v -93.1380350660501 291.680157331976 165.678786070304
v -171.477809869688 548.792347436118 34.5139810392848
v -174.433368171609 558.530420781907 49.5766990219481
cstype bspline
deg 1
curv 0 5 801 802 803 804 805
parm u 0 0 1 2 3 4
end
v -157.213476729984 563.772103739669 49.5667738550717
v -77.4767650041161 302.075147947702 183.070479648879
v -75.9181436244246 296.921840289738 165.668860903428
v -154.257918428063 554.03403039388 34.5040558724083
v -157.213476729984 563.772103739669 49.5667738550717
cstype bspline
deg 1
curv 0 5 806 807 808 809 810
parm u 0 0 1 2 3 4
end
v 29.4819345291482 328.42888720595 178.505413568342
v 236.517069702065 519.610316497606 58.3938566392274
v 232.420840332641 510.309216800454 43.302017102924
v 29.1164875856103 322.572885443317 161.249158386537
v 29.4819345291482 328.42888720595 178.505413568342
cstype bspline
deg 1
curv 0 5 811 812 813 814 815
parm u 0 0 1 2 3 4
end
v 16.4163075876292 340.234767662978 174.775724672546
v 223.451442760546 531.416196954634 54.6641677434313
v 219.355213391122 522.115097257482 39.572328207128
v 16.0508606440914 334.378765900345 157.519469490741
v 16.4163075876292 340.234767662978 174.775724672546
cstype bspline
deg 1
curv 0 5 816 817 818 819 820
parm u 0 0 1 2 3 4
end
v 98.7840609607251 524.564316277677 82.0027348401886
v 393.582800821343 428.356706652136 52.866119386332
v 386.714904317342 420.600793350909 37.8997300646732
v 97.1240054837794 515.108823335235 66.5216253354589
v 98.7840609607251 524.564316277677 82.0027348401886
cstype bspline
deg 1
curv 0 5 821 822 823 824 825
parm u 0 0 1 2 3 4
end
v 102.681433427283 539.372283130073 72.5404620923089
v 397.480173287901 443.164673504532 43.4038466384523
v 390.6122767839 435.408760203305 28.4374573167935
v 101.021377950337 529.916790187631 57.0593525875792
v 102.681433427283 539.372283130073 72.5404620923089
cstype bspline
deg 1
curv 0 5 826 827 828 829 830
parm u 0 0 1 2 3 4
end
v 307.041133889248 538.544723363631 21.8166830804473
v 422.968730701146 271.953132178465 100.670517268794
v 415.440887498155 267.115388580317 84.808954142932
v 301.568384763295 528.981005837794 7.35299286878967
v 307.041133889248 538.544723363631 21.8166830804473
cstype bspline
deg 1
curv 0 5 831 832 833 834 835
parm u 0 0 1 2 3 4
end
v 322.346120440912 542.678677970945 13.2921416876191
v 438.27371725281 276.087086785779 92.1459758759656
v 430.74587404982 271.249343187631 76.2844127501037
v 316.87337131496 533.114960445108 -1.1715485240386
v 322.346120440912 542.678677970945 13.2921416876191
cstype bspline
deg 1
curv 0 5 836 837 838 839 840
parm u 0 0 1 2 3 4
end
v 524.88570248719 281.919361946378 38.224950188172
v 643.524307100543 428.217694156665 -125.596412440409
v 632.38871742021 420.095923205807 -137.40105578538
v 516.077634046945 276.667756880551 23.2063639420626
v 524.88570248719 281.919361946378 38.224950188172
cstype bspline
deg 1
curv 0 5 841 842 843 844 845
parm u 0 0 1 2 3 4
end
v 512.637559446789 294.837351706045 40.8911333459885
v 631.276164060142 441.135683916331 -122.930229282593
v 620.140574379809 433.013912965474 -134.734872627563
v 503.829491006544 289.585746640217 25.8725470998791
v 512.637559446789 294.837351706045 40.8911333459885
cstype bspline
deg 1
curv 0 5 846 847 848 849 850
parm u 0 0 1 2 3 4
end
v 545.262089241336 446.875651345233 -55.6171328183559
v 709.731790294009 347.773394909427 -146.097075129159
v 697.733144594723 340.882788799014 -157.667285176365
v 535.983783899401 438.345886982805 -68.6838874389607
v 545.262089241336 446.875651345233 -55.6171328183559
cstype bspline
deg 1
curv 0 5 851 852 853 854 855
parm u 0 0 1 2 3 4
end
v 547.726754818956 460.954884380205 -66.5579107037461
v 712.196455871628 361.8526279444 -157.037853014549
v 700.197810172343 354.962021833986 -168.608063061755
v 538.44844947702 452.425120017778 -79.6246653243509
v 547.726754818956 460.954884380205 -66.5579107037461
cstype bspline
deg 1
curv 0 5 856 857 858 859 860
parm u 0 0 1 2 3 4
end
v -654.973144069363 376.21021938912 -96.6688863752415
v -429.82827815959 576.694239146048 -70.8230129460648
v -422.039820389879 566.625082176676 -83.7016171727254
v -643.829812502242 369.128466027484 -109.162362372625
v -654.973144069363 376.21021938912 -96.6688863752415
cstype bspline
deg 1
curv 0 5 861 862 863 864 865
parm u 0 0 1 2 3 4
end
v -662.646291943355 386.458401856913 -109.321852739327
v -437.501426033582 586.942421613841 -83.4759793101499
v -429.712968263871 576.873264644469 -96.3545835368105
v -651.502960376234 379.376648495276 -121.81532873671
v -662.646291943355 386.458401856913 -109.321852739327
cstype bspline
deg 1
curv 0 5 866 867 868 869 870
parm u 0 0 1 2 3 4
end
v -552.890549002919 541.82737249445 -129.460496892885
v -325.061820440358 556.114454488098 2.82335533983189
v -319.277017989238 546.305413486671 -11.3661797606576
v -543.210992280955 532.262570549106 -141.388626675012
v -552.890549002919 541.82737249445 -129.460496892885
cstype bspline
deg 1
curv 0 5 871 872 873 874 875
parm u 0 0 1 2 3 4
end
v -548.740798530516 556.980839931376 -138.244117766694
v -320.912069967954 571.267921925024 -5.96026553397667
v -315.127267516834 561.458880923597 -20.1498006344661
v -539.061241808551 547.416037986032 -150.172247548821
v -548.740798530516 556.980839931376 -138.244117766694
cstype bspline
deg 1
curv 0 5 876 877 878 879 880
parm u 0 0 1 2 3 4
end
v -378.251653626594 634.218703720591 -81.587783385015
v -335.89133038238 411.49236221236 79.4192812164389
v -330.074143967794 404.436148142202 63.7053791617921
v -371.653372172683 623.055570081472 -94.3328266155327
v -378.251653626594 634.218703720591 -81.587783385015
cstype bspline
deg 1
curv 0 5 881 882 883 884 885
parm u 0 0 1 2 3 4
end
v -361.579782639165 639.980690772719 -78.0033415889143
v -319.219459394951 417.254349264488 83.0037230125396
v -313.402272980365 410.19813519433 67.2898209578927
v -354.981501185254 628.8175571336 -90.748384819432
v -361.579782639165 639.980690772719 -78.0033415889143
cstype bspline
deg 1
curv 0 5 886 887 888 889 890
parm u 0 0 1 2 3 4
end
v -226.551343039005 453.220521548064 97.3827356771393
v -3.00565076613982 643.416357373706 5.82137750473123
v -2.90962086233674 632.026512811289 -8.38426678092912
v -222.45283428421 445.236042585399 81.537729004635
v -226.551343039005 453.220521548064 97.3827356771393
cstype bspline
deg 1
curv 0 5 891 892 893 894 895
parm u 0 0 1 2 3 4
end
v -238.730958473364 463.520512844582 89.0420434299239
v -15.1852662004995 653.716348670224 -2.5193147424842
v -15.0892362966964 642.326504107807 -16.7249590281446
v -234.63244971857 455.536033881917 73.1970367574196
v -238.730958473364 463.520512844582 89.0420434299239
cstype bspline
deg 1
curv 0 5 896 897 898 899 900
parm u 0 0 1 2 3 4
end
v -140.200700122165 633.947304347477 -1.13646172198094
v 143.278106848431 578.003773895862 40.6898778856852
v 140.787990893588 567.716857371549 25.9062441514692
v -137.651715517124 622.665939318766 -15.1765932043455
v -140.200700122165 633.947304347477 -1.13646172198094
cstype bspline
deg 1
curv 0 5 901 902 903 904 905
parm u 0 0 1 2 3 4
end
v -135.894212196313 647.944856249528 -11.6017712011077
v 147.584594774283 592.001325797912 30.2245684065584
v 145.09447881944 581.714409273599 15.4409346723425
v -133.345227591273 636.663491220817 -25.6419026834723
v -135.894212196313 647.944856249528 -11.6017712011077
cstype bspline
deg 1
curv 0 5 906 907 908 909 910
parm u 0 0 1 2 3 4
end
v 64.0504008081355 672.722959198796 -22.932202220858
v 163.764144035022 428.536608331901 123.712724128307
v 160.795161743965 420.998472933212 107.395201684569
v 62.8290965606271 660.904981221404 -36.6794860025586
v 64.0504008081355 672.722959198796 -22.932202220858
cstype bspline
deg 1
curv 0 5 911 912 913 914 915
parm u 0 0 1 2 3 4
end
v 80.9164998993408 676.671772910198 -27.8252147610301
v 180.630243126227 432.485422043303 118.819711588135
v 177.661260835171 424.947286644614 102.502189144397
v 79.6951956518324 664.853794932807 -41.5724985427307
v 80.9164998993408 676.671772910198 -27.8252147610301
cstype bspline
deg 1
curv 0 5 916 917 918 919 920
parm u 0 0 1 2 3 4
end
v 279.931032133705 444.149049976232 87.3179214556295
v 431.059434658121 593.009549533144 -81.3379266817352
v 423.500278097709 582.272681097842 -93.865715235608
v 275.181160101736 436.179308641568 71.6550354820165
v 279.931032133705 444.149049976232 87.3179214556295
cstype bspline
deg 1
curv 0 5 921 922 923 924 925
parm u 0 0 1 2 3 4
end
v 266.367738761624 455.839585461545 85.4825868895317
v 417.496141286041 604.700085018457 -83.173261247833
v 409.936984725629 593.963216583155 -95.7010498017058
v 261.617866729655 447.869844126881 69.8197009159187
v 266.367738761624 455.839585461545 85.4825868895317
cstype bspline
deg 1
curv 0 5 926 927 928 929 930
parm u 0 0 1 2 3 4
end
v 310.952035509465 614.087600895111 -32.1452591177331
v 574.430006970659 482.567301097375 -96.4678409059594
v 564.732701736288 473.526535852896 -108.790388259085
v 305.363448148133 602.99588693773 -45.4708631589294
v 310.952035509465 614.087600895111 -32.1452591177331
cstype bspline
deg 1
curv 0 5 931 932 933 934 935
parm u 0 0 1 2 3 4
end
v 314.399486109722 626.928292356843 -44.2791672739454
v 577.877457570916 495.407992559107 -108.601749062172
v 568.180152336545 486.367227314628 -120.924296415298
v 308.81089874839 615.836578399461 -57.6047713151418
v 314.399486109722 626.928292356843 -44.2791672739454
cstype bspline
deg 1
curv 0 5 936 937 938 939 940
parm u 0 0 1 2 3 4
end
v 482.015927047197 591.415472167263 -120.973344323945
v 613.764422909235 354.234490109672 -47.5677479676696
v 603.101060625351 347.683094177736 -60.8336155227744
v 473.61323384019 580.794293819577 -132.979647125263
v 482.015927047197 591.415472167263 -120.973344323945
cstype bspline
deg 1
curv 0 5 941 942 943 944 945
parm u 0 0 1 2 3 4
end
v 494.921283922811 594.848796415627 -133.042480519989
v 626.669779784849 357.667814358037 -59.636884163713
v 616.006417500965 351.1164184261 -72.9027517188179
v 486.518590715803 584.227618067941 -145.048783321307
v 494.921283922811 594.848796415627 -133.042480519989
cstype bspline
deg 1
curv 0 5 946 947 948 949 950
parm u 0 0 1 2 3 4
end
v -523.529721375949 661.826763071038 -222.359060977658
v -525.076844088076 482.205130011602 -58.8713212572676
v -515.959412584087 473.724083848965 -72.151799061989
v -514.440042981156 650.123568621612 -232.706808846244
v -523.529721375949 661.826763071038 -222.359060977658
cstype bspline
deg 1
curv 0 5 951 952 953 954 955
parm u 0 0 1 2 3 4
end
v -507.999894239407 667.879107875494 -215.562474225686
v -509.547016951534 488.257474816058 -52.0747345052949
v -500.429585447544 479.776428653421 -65.3552123100163
v -498.910215844613 656.175913426068 -225.910222094271
v -507.999894239407 667.879107875494 -215.562474225686
cstype bspline
deg 1
curv 0 5 956 957 958 959 960
parm u 0 0 1 2 3 4
end
v -436.011910915872 531.050280456332 -37.5671373413296
v -206.569345796109 722.088512553138 -92.4137764045274
v -200.225568747827 711.451755782258 -105.483959966642
v -428.450573827739 521.427287270965 -50.9283701078876
v -436.011910915872 531.050280456332 -37.5671373413296
cstype bspline
deg 1
curv 0 5 961 962 963 964 965
parm u 0 0 1 2 3 4
end
v -446.159203767758 539.783105293275 -49.5991869649537
v -216.716638647994 730.82133739008 -104.445826028151
v -210.372861599713 720.1845806192 -117.516009590266
v -438.597866679624 530.160112107908 -62.9604197315117
v -446.159203767758 539.783105293275 -49.5991869649537
cstype bspline
deg 1
curv 0 5 966 967 968 969 970
parm u 0 0 1 2 3 4
end
v -148.914589260026 760.648155688888 -122.434901716735
v -86.1798340319554 554.582392702204 61.2408514733513
v -84.7495991120828 544.934956027161 45.8863250657582
v -146.315751572684 747.162192505985 -134.367975490701
v -148.914589260026 760.648155688888 -122.434901716735
cstype bspline
deg 1
curv 0 5 971 972 973 974 975
parm u 0 0 1 2 3 4
end
v -131.477807851557 764.97891877863 -123.531781461199
v -68.7430526234869 558.913155791946 60.1439717288874
v -67.3128177036143 549.265719116903 44.7894453212944
v -128.878970164215 751.492955595727 -135.464855235165
v -131.477807851557 764.97891877863 -123.531781461199
cstype bspline
deg 1
curv 0 5 976 977 978 979 980
parm u 0 0 1 2 3 4
end
v 26.6328443950207 582.027989099191 48.3880869241286
v 204.804215620071 727.784749016891 -103.949456460457
v 202.959108140832 716.227932976209 -117.627937428663
v 26.0375708248372 571.493625429879 33.6409908016735
v 26.6328443950207 582.027989099191 48.3880869241286
cstype bspline
deg 1
curv 0 5 981 982 983 984 985
parm u 0 0 1 2 3 4
end
v 13.0322804896768 591.875169765965 41.9028965358223
v 191.203651714728 737.631929683665 -110.434646848763
v 189.358544235489 726.075113642982 -124.11312781697
v 12.4370069194934 581.340806096652 27.1558004133672
v 13.0322804896768 591.875169765965 41.9028965358223
cstype bspline
deg 1
curv 0 5 986 987 988 989 990
parm u 0 0 1 2 3 4
end
v 260.539223253207 739.71443118201 -135.999237990898
v 380.465463102297 517.133145851317 4.6932322999711
v 373.569254020648 507.901994497645 -9.37739980572564
v 255.923695087018 726.250370581529 -147.394270224997
v 260.539223253207 739.71443118201 -135.999237990898
cstype bspline
deg 1
curv 0 5 991 992 993 994 995
parm u 0 0 1 2 3 4
end
v 275.851914355652 742.193131067782 -145.130368155196
v 395.778154204742 519.61184573709 -4.43789786432706
v 388.881945123093 510.380694383418 -18.5085299700238
v 271.236386189463 728.729070467301 -156.525400389295
v 275.851914355652 742.193131067782 -145.130368155196
cstype bspline
deg 1
curv 0 5 996 997 998 999 1000
parm u 0 0 1 2 3 4
end
v 479.988636873236 512.170812556581 -46.9536417464907
v 564.131197790356 618.491347731934 -216.397222093019
v 555.033405103984 607.947031430431 -227.803036223807
v 471.673068253238 502.614895947904 -59.9346735197536
v 479.988636873236 512.170812556581 -46.9536417464907
cstype bspline
deg 1
curv 0 5 1001 1002 1003 1004 1005
parm u 0 0 1 2 3 4
end
v 466.167701350053 523.69668148094 -46.5847422987807
v 550.310262267173 630.017216656293 -216.028322645309
v 541.212469580801 619.47290035479 -227.434136776097
v 457.852132730056 514.140764872263 -59.5657740720436
v 466.167701350053 523.69668148094 -46.5847422987807
cstype bspline
deg 1
curv 0 5 1006 1007 1008 1009 1010
parm u 0 0 1 2 3 4
end
