# type_plates_name_cross_ibois_pavilion.xml
v -417.078857421864 -2480.71112740252 -1301.55877238631
v -834.156494140614 -2592.91571724627 -1055.77798014998
v -834.156494140614 -2430.43280709002 -851.462489427324
v -417.078857421864 -2165.69892037127 -905.44366008162
v -417.078857421864 -2480.71112740252 -1301.55877238631
cstype bspline
deg 1
curv 0 5 1 2 3 4 5
parm u 0 0 1 2 3 4
end
v -417.078857421864 -2463.32831490252 -1319.39950114607
v -834.156494140614 -2575.53046334002 -1073.61886149764
v -834.156494140614 -2409.13397896502 -864.382869065996
v -417.078857421864 -2144.40009224627 -918.363887132401
v -417.078857421864 -2463.32831490252 -1319.39950114607
cstype bspline
deg 1
curv 0 5 6 7 8 9 10
parm u 0 0 1 2 3 4
end
v -0.00122070311408606 -2592.91571724627 -1055.77798014998
v -417.078857421864 -2480.71112740252 -1301.55877238631
v -417.078857421864 -2165.69892037127 -905.44366008162
v -0.00122070311408606 -2430.43280709002 -851.462489427324
v -0.00122070311408606 -2592.91571724627 -1055.77798014998
cstype bspline
deg 1
curv 0 5 11 12 13 14 15
parm u 0 0 1 2 3 4
end
v -0.00122070311408606 -2575.53046334002 -1073.61886149764
v -417.078857421864 -2463.32831490252 -1319.39950114607
v -417.078857421864 -2144.40009224627 -918.363887132401
v -0.00122070311408606 -2409.13397896502 -864.382869065996
v -0.00122070311408606 -2575.53046334002 -1073.61886149764
cstype bspline
deg 1
curv 0 5 16 17 18 19 20
parm u 0 0 1 2 3 4
end
v 417.076416015636 -2480.71112740252 -1301.55877238631
v -0.00122070311408606 -2592.91571724627 -1055.77798014998
v -0.00122070311408606 -2430.43280709002 -851.462489427324
v 417.076416015636 -2165.69892037127 -905.44366008162
v 417.076416015636 -2480.71112740252 -1301.55877238631
cstype bspline
deg 1
curv 0 5 21 22 23 24 25
parm u 0 0 1 2 3 4
end
v 417.076416015636 -2463.32831490252 -1319.39950114607
v -0.00122070311408606 -2575.53046334002 -1073.61886149764
v -0.00122070311408606 -2409.13397896502 -864.382869065996
v 417.076416015636 -2144.40009224627 -918.363887132401
v 417.076416015636 -2463.32831490252 -1319.39950114607
cstype bspline
deg 1
curv 0 5 26 27 28 29 30
parm u 0 0 1 2 3 4
end
v 834.156494140636 -2592.91571724627 -1055.77798014998
v 417.076416015636 -2480.71112740252 -1301.55877238631
v 417.076416015636 -2165.69892037127 -905.44366008162
v 834.156494140636 -2430.43280709002 -851.462489427324
v 834.156494140636 -2592.91571724627 -1055.77798014998
cstype bspline
deg 1
curv 0 5 31 32 33 34 35
parm u 0 0 1 2 3 4
end
v 834.156494140636 -2575.53046334002 -1073.61886149764
v 417.076416015636 -2463.32831490252 -1319.39950114607
v 417.076416015636 -2144.40009224627 -918.363887132401
v 834.156494140636 -2409.13397896502 -864.382869065996
v 834.156494140636 -2575.53046334002 -1073.61886149764
cstype bspline
deg 1
curv 0 5 36 37 38 39 40
parm u 0 0 1 2 3 4
end
v -417.078857421864 -2686.69141465722 -1355.44060832381
v -417.078857421864 -2435.79901802752 -1003.53554850936
v -834.156494140614 -2310.85761177752 -1243.09258586287
v -834.156494140614 -2390.95646462525 -1355.44060832381
v -417.078857421864 -2686.69141465722 -1355.44060832381
cstype bspline
deg 1
curv 0 5 41 42 43 44 45
parm u 0 0 1 2 3 4
end
v -417.078857421864 -2717.03750490439 -1355.44060832381
v -417.078857421864 -2454.09491646502 -986.631099046464
v -834.156494140614 -2329.15351021502 -1226.18813639998
v -834.156494140614 -2421.30460804793 -1355.44060832381
v -417.078857421864 -2717.03750490439 -1355.44060832381
cstype bspline
deg 1
curv 0 5 46 47 48 49 50
parm u 0 0 1 2 3 4
end
v -0.00122070311408606 -2390.95646462525 -1355.44060832381
v -0.00122070311408606 -2310.85761177752 -1243.09258586287
v -417.078857421864 -2435.79901802752 -1003.53554850936
v -417.078857421864 -2686.69141465722 -1355.44060832381
v -0.00122070311408606 -2390.95646462525 -1355.44060832381
cstype bspline
deg 1
curv 0 5 51 52 53 54 55
parm u 0 0 1 2 3 4
end
v -0.00122070311408606 -2421.30460804793 -1355.44060832381
v -0.00122070311408606 -2329.15351021502 -1226.18813639998
v -417.078857421864 -2454.09491646502 -986.631099046464
v -417.078857421864 -2717.03750490439 -1355.44060832381
v -0.00122070311408606 -2421.30460804793 -1355.44060832381
cstype bspline
deg 1
curv 0 5 56 57 58 59 60
parm u 0 0 1 2 3 4
end
v 417.076416015636 -2686.69141465722 -1355.44060832381
v 417.076416015636 -2435.79901802752 -1003.53554850936
v -0.00122070311408606 -2310.85761177752 -1243.09258586287
v -0.00122070311408606 -2390.95646462525 -1355.44060832381
v 417.076416015636 -2686.69141465722 -1355.44060832381
cstype bspline
deg 1
curv 0 5 61 62 63 64 65
parm u 0 0 1 2 3 4
end
v 417.076416015636 -2717.03750490439 -1355.44060832381
v 417.076416015636 -2454.09491646502 -986.631099046464
v -0.00122070311408606 -2329.15351021502 -1226.18813639998
v -0.00122070311408606 -2421.30460804793 -1355.44060832381
v 417.076416015636 -2717.03750490439 -1355.44060832381
cstype bspline
deg 1
curv 0 5 66 67 68 69 70
parm u 0 0 1 2 3 4
end
v 834.156494140636 -2390.95646462525 -1355.44060832381
v 834.156494140636 -2310.85761177752 -1243.09258586287
v 417.076416015636 -2435.79901802752 -1003.53554850936
v 417.076416015636 -2686.69141465722 -1355.44060832381
v 834.156494140636 -2390.95646462525 -1355.44060832381
cstype bspline
deg 1
curv 0 5 71 72 73 74 75
parm u 0 0 1 2 3 4
end
v 834.156494140636 -2421.30460804793 -1355.44060832381
v 834.156494140636 -2329.15351021502 -1226.18813639998
v 417.076416015636 -2454.09491646502 -986.631099046464
v 417.076416015636 -2717.03750490439 -1355.44060832381
v 834.156494140636 -2421.30460804793 -1355.44060832381
cstype bspline
deg 1
curv 0 5 76 77 78 79 80
parm u 0 0 1 2 3 4
end
v -417.078857421864 -2276.31415474627 -824.754878343339
v -834.156494140614 -2359.53192818377 -567.708979905839
v -834.156494140614 -2174.64667427752 -383.417903245683
v -417.078857421864 -1917.86933052752 -467.461634935136
v -417.078857421864 -2276.31415474627 -824.754878343339
cstype bspline
deg 1
curv 0 5 81 82 83 84 85
parm u 0 0 1 2 3 4
end
v -417.078857421864 -2261.09442818377 -844.475184739824
v -834.156494140614 -2344.31220162127 -587.429286302323
v -834.156494140614 -2154.97626412127 -398.699885667558
v -417.078857421864 -1898.19892037127 -482.743617357011
v -417.078857421864 -2261.09442818377 -844.475184739824
cstype bspline
deg 1
curv 0 5 86 87 88 89 90
parm u 0 0 1 2 3 4
end
v -0.00122070311408606 -2359.53192818377 -567.708979905839
v -417.078857421864 -2276.31415474627 -824.754878343339
v -417.078857421864 -1917.86933052752 -467.461634935136
v -0.00122070311408606 -2174.64667427752 -383.417903245683
v -0.00122070311408606 -2359.53192818377 -567.708979905839
cstype bspline
deg 1
curv 0 5 91 92 93 94 95
parm u 0 0 1 2 3 4
end
v -0.00122070311408606 -2344.31220162127 -587.429286302323
v -417.078857421864 -2261.09442818377 -844.475184739824
v -417.078857421864 -1898.19892037127 -482.743617357011
v -0.00122070311408606 -2154.97626412127 -398.699885667558
v -0.00122070311408606 -2344.31220162127 -587.429286302323
cstype bspline
deg 1
curv 0 5 96 97 98 99 100
parm u 0 0 1 2 3 4
end
v 417.076416015636 -2276.31415474627 -824.754878343339
v -0.00122070311408606 -2359.53192818377 -567.708979905839
v -0.00122070311408606 -2174.64667427752 -383.417903245683
v 417.076416015636 -1917.86933052752 -467.461634935136
v 417.076416015636 -2276.31415474627 -824.754878343339
cstype bspline
deg 1
curv 0 5 101 102 103 104 105
parm u 0 0 1 2 3 4
end
v 417.076416015636 -2261.09442818377 -844.475184739824
v -0.00122070311408606 -2344.31220162127 -587.429286302323
v -0.00122070311408606 -2154.97626412127 -398.699885667558
v 417.076416015636 -1898.19892037127 -482.743617357011
v 417.076416015636 -2261.09442818377 -844.475184739824
cstype bspline
deg 1
curv 0 5 106 107 108 109 110
parm u 0 0 1 2 3 4
end
v 834.156494140636 -2359.53192818377 -567.708979905839
v 417.076416015636 -2276.31415474627 -824.754878343339
v 417.076416015636 -1917.86933052752 -467.461634935136
v 834.156494140636 -2174.64667427752 -383.417903245683
v 834.156494140636 -2359.53192818377 -567.708979905839
cstype bspline
deg 1
curv 0 5 111 112 113 114 115
parm u 0 0 1 2 3 4
end
v 834.156494140636 -2344.31220162127 -587.429286302323
v 417.076416015636 -2261.09442818377 -844.475184739824
v 417.076416015636 -1898.19892037127 -482.743617357011
v 834.156494140636 -2154.97626412127 -398.699885667558
v 834.156494140636 -2344.31220162127 -587.429286302323
cstype bspline
deg 1
curv 0 5 116 117 118 119 120
parm u 0 0 1 2 3 4
end
v -417.078857421864 -2198.45770943377 -533.640376390214
v -834.156494140614 -2100.17157662127 -785.310145677324
v -834.156494140614 -2273.82392037127 -980.221186937089
v -417.078857421864 -2535.12518990252 -911.522761644121
v -417.078857421864 -2198.45770943377 -533.640376390214
cstype bspline
deg 1
curv 0 5 121 122 123 124 125
parm u 0 0 1 2 3 4
end
v -417.078857421864 -2214.81757271502 -514.855433763261
v -834.156494140614 -2116.53143990252 -766.525355638261
v -834.156494140614 -2294.36591255877 -966.130305589433
v -417.078857421864 -2555.66718209002 -897.431880296464
v -417.078857421864 -2214.81757271502 -514.855433763261
cstype bspline
deg 1
curv 0 5 126 127 128 129 130
parm u 0 0 1 2 3 4
end
v -0.00122070311408606 -2100.17157662127 -785.310145677324
v -417.078857421864 -2198.45770943377 -533.640376390214
v -417.078857421864 -2535.12518990252 -911.522761644121
v -0.00122070311408606 -2273.82392037127 -980.221186937089
v -0.00122070311408606 -2100.17157662127 -785.310145677324
cstype bspline
deg 1
curv 0 5 131 132 133 134 135
parm u 0 0 1 2 3 4
end
v -0.00122070311408606 -2116.53143990252 -766.525355638261
v -417.078857421864 -2214.81757271502 -514.855433763261
v -417.078857421864 -2555.66718209002 -897.431880296464
v -0.00122070311408606 -2294.36591255877 -966.130305589433
v -0.00122070311408606 -2116.53143990252 -766.525355638261
cstype bspline
deg 1
curv 0 5 136 137 138 139 140
parm u 0 0 1 2 3 4
end
v 417.076416015636 -2198.45770943377 -533.640376390214
v -0.00122070311408606 -2100.17157662127 -785.310145677324
v -0.00122070311408606 -2273.82392037127 -980.221186937089
v 417.076416015636 -2535.12518990252 -911.522761644121
v 417.076416015636 -2198.45770943377 -533.640376390214
cstype bspline
deg 1
curv 0 5 141 142 143 144 145
parm u 0 0 1 2 3 4
end
v 417.076416015636 -2214.81757271502 -514.855433763261
v -0.00122070311408606 -2116.53143990252 -766.525355638261
v -0.00122070311408606 -2294.36591255877 -966.130305589433
v 417.076416015636 -2555.66718209002 -897.431880296464
v 417.076416015636 -2214.81757271502 -514.855433763261
cstype bspline
deg 1
curv 0 5 146 147 148 149 150
parm u 0 0 1 2 3 4
end
v 834.156494140636 -2100.17157662127 -785.310145677324
v 417.076416015636 -2198.45770943377 -533.640376390214
v 417.076416015636 -2535.12518990252 -911.522761644121
v 834.156494140636 -2273.82392037127 -980.221186937089
v 834.156494140636 -2100.17157662127 -785.310145677324
cstype bspline
deg 1
curv 0 5 151 152 153 154 155
parm u 0 0 1 2 3 4
end
v 834.156494140636 -2116.53143990252 -766.525355638261
v 417.076416015636 -2214.81757271502 -514.855433763261
v 417.076416015636 -2555.66718209002 -897.431880296464
v 834.156494140636 -2294.36591255877 -966.130305589433
v 834.156494140636 -2116.53143990252 -766.525355638261
cstype bspline
deg 1
curv 0 5 156 157 158 159 160
parm u 0 0 1 2 3 4
end
v -417.078857421864 -2018.67499459002 -374.789973558183
v -834.156494140614 -2068.73847115252 -109.287654222246
v -834.156494140614 -1862.04657662127 50.1593672621293
v -417.078857421864 -1617.94989693377 -65.6630814683394
v -417.078857421864 -2018.67499459002 -374.789973558183
cstype bspline
deg 1
curv 0 5 161 162 163 164 165
parm u 0 0 1 2 3 4
end
v -417.078857421864 -2006.07001412127 -396.275264085527
v -834.156494140614 -2056.13593209002 -130.773249925371
v -834.156494140614 -1844.46356880877 32.5137984144731
v -417.078857421864 -1600.36688912127 -83.3086503159957
v -417.078857421864 -2006.07001412127 -396.275264085527
cstype bspline
deg 1
curv 0 5 166 167 168 169 170
parm u 0 0 1 2 3 4
end
v -0.00122070311408606 -2068.73847115252 -109.287654222246
v -417.078857421864 -2018.67499459002 -374.789973558183
v -417.078857421864 -1617.94989693377 -65.6630814683394
v -0.00122070311408606 -1862.04657662127 50.1593672621293
v -0.00122070311408606 -2068.73847115252 -109.287654222246
cstype bspline
deg 1
curv 0 5 171 172 173 174 175
parm u 0 0 1 2 3 4
end
v -0.00122070311408606 -2056.13593209002 -130.773249925371
v -417.078857421864 -2006.07001412127 -396.275264085527
v -417.078857421864 -1600.36688912127 -83.3086503159957
v -0.00122070311408606 -1844.46356880877 32.5137984144731
v -0.00122070311408606 -2056.13593209002 -130.773249925371
cstype bspline
deg 1
curv 0 5 176 177 178 179 180
parm u 0 0 1 2 3 4
end
v 417.076416015636 -2018.67499459002 -374.789973558183
v -0.00122070311408606 -2068.73847115252 -109.287654222246
v -0.00122070311408606 -1862.04657662127 50.1593672621293
v 417.076416015636 -1617.94989693377 -65.6630814683394
v 417.076416015636 -2018.67499459002 -374.789973558183
cstype bspline
deg 1
curv 0 5 181 182 183 184 185
parm u 0 0 1 2 3 4
end
v 417.076416015636 -2006.07001412127 -396.275264085527
v -0.00122070311408606 -2056.13593209002 -130.773249925371
v -0.00122070311408606 -1844.46356880877 32.5137984144731
v 417.076416015636 -1600.36688912127 -83.3086503159957
v 417.076416015636 -2006.07001412127 -396.275264085527
cstype bspline
deg 1
curv 0 5 186 187 188 189 190
parm u 0 0 1 2 3 4
end
v 834.156494140636 -2068.73847115252 -109.287654222246
v 417.076416015636 -2018.67499459002 -374.789973558183
v 417.076416015636 -1617.94989693377 -65.6630814683394
v 834.156494140636 -1862.04657662127 50.1593672621293
v 834.156494140636 -2068.73847115252 -109.287654222246
cstype bspline
deg 1
curv 0 5 191 192 193 194 195
parm u 0 0 1 2 3 4
end
v 834.156494140636 -2056.13593209002 -130.773249925371
v 417.076416015636 -2006.07001412127 -396.275264085527
v 417.076416015636 -1600.36688912127 -83.3086503159957
v 834.156494140636 -1844.46356880877 32.5137984144731
v 834.156494140636 -2056.13593209002 -130.773249925371
cstype bspline
deg 1
curv 0 5 196 197 198 199 200
parm u 0 0 1 2 3 4
end
v -417.078857421864 -1905.43280709002 -95.5672562730269
v -834.156494140614 -1838.34296334002 -357.286006273027
v -834.156494140614 -2034.31708443377 -529.737025560136
v -417.078857421864 -2285.37909615252 -429.905330003496
v -417.078857421864 -1905.43280709002 -95.5672562730269
cstype bspline
deg 1
curv 0 5 201 202 203 204 205
parm u 0 0 1 2 3 4
end
v -417.078857421864 -1919.39765084002 -74.9398148667769
v -834.156494140614 -1852.30780709002 -336.658564866777
v -834.156494140614 -2053.00116646502 -513.262721360918
v -417.078857421864 -2304.06317818377 -413.431025804277
v -417.078857421864 -1919.39765084002 -74.9398148667769
cstype bspline
deg 1
curv 0 5 206 207 208 209 210
parm u 0 0 1 2 3 4
end
v -0.00122070311408606 -1838.34296334002 -357.286006273027
v -417.078857421864 -1905.43280709002 -95.5672562730269
v -417.078857421864 -2285.37909615252 -429.905330003496
v -0.00122070311408606 -2034.31708443377 -529.737025560136
v -0.00122070311408606 -1838.34296334002 -357.286006273027
cstype bspline
deg 1
curv 0 5 211 212 213 214 215
parm u 0 0 1 2 3 4
end
v -0.00122070311408606 -1852.30780709002 -336.658564866777
v -417.078857421864 -1919.39765084002 -74.9398148667769
v -417.078857421864 -2304.06317818377 -413.431025804277
v -0.00122070311408606 -2053.00116646502 -513.262721360918
v -0.00122070311408606 -1852.30780709002 -336.658564866777
cstype bspline
deg 1
curv 0 5 216 217 218 219 220
parm u 0 0 1 2 3 4
end
v 417.076416015636 -1905.43280709002 -95.5672562730269
v -0.00122070311408606 -1838.34296334002 -357.286006273027
v -0.00122070311408606 -2034.31708443377 -529.737025560136
v 417.076416015636 -2285.37909615252 -429.905330003496
v 417.076416015636 -1905.43280709002 -95.5672562730269
cstype bspline
deg 1
curv 0 5 221 222 223 224 225
parm u 0 0 1 2 3 4
end
v 417.076416015636 -1919.39765084002 -74.9398148667769
v -0.00122070311408606 -1852.30780709002 -336.658564866777
v -0.00122070311408606 -2053.00116646502 -513.262721360918
v 417.076416015636 -2304.06317818377 -413.431025804277
v 417.076416015636 -1919.39765084002 -74.9398148667769
cstype bspline
deg 1
curv 0 5 226 227 228 229 230
parm u 0 0 1 2 3 4
end
v 834.156494140636 -1838.34296334002 -357.286006273027
v 417.076416015636 -1905.43280709002 -95.5672562730269
v 417.076416015636 -2285.37909615252 -429.905330003496
v 834.156494140636 -2034.31708443377 -529.737025560136
v 834.156494140636 -1838.34296334002 -357.286006273027
cstype bspline
deg 1
curv 0 5 231 232 233 234 235
parm u 0 0 1 2 3 4
end
v 834.156494140636 -1852.30780709002 -336.658564866777
v 417.076416015636 -1919.39765084002 -74.9398148667769
v 417.076416015636 -2304.06317818377 -413.431025804277
v 834.156494140636 -2053.00116646502 -513.262721360918
v 834.156494140636 -1852.30780709002 -336.658564866777
cstype bspline
deg 1
curv 0 5 236 237 238 239 240
parm u 0 0 1 2 3 4
end
v -417.078857421864 -1706.22626412127 38.7985884535356
v -834.156494140614 -1720.51581490252 308.601750074629
v -834.156494140614 -1494.44159615252 439.125126539473
v -417.078857421864 -1267.92792427752 291.850346266036
v -417.078857421864 -1706.22626412127 38.7985884535356
cstype bspline
deg 1
curv 0 5 241 242 243 244 245
parm u 0 0 1 2 3 4
end
v -417.078857421864 -1696.59491646502 15.8267866957231
v -834.156494140614 -1710.88202584002 285.629948316817
v -834.156494140614 -1479.36347115252 419.296940504317
v -417.078857421864 -1252.85224068377 272.021855055098
v -417.078857421864 -1696.59491646502 15.8267866957231
cstype bspline
deg 1
curv 0 5 246 247 248 249 250
parm u 0 0 1 2 3 4
end
v -0.00122070311408606 -1720.51581490252 308.601750074629
v -417.078857421864 -1706.22626412127 38.7985884535356
v -417.078857421864 -1267.92792427752 291.850346266036
v -0.00122070311408606 -1494.44159615252 439.125126539473
v -0.00122070311408606 -1720.51581490252 308.601750074629
cstype bspline
deg 1
curv 0 5 251 252 253 254 255
parm u 0 0 1 2 3 4
end
v -0.00122070311408606 -1710.88202584002 285.629948316817
v -417.078857421864 -1696.59491646502 15.8267866957231
v -417.078857421864 -1252.85224068377 272.021855055098
v -0.00122070311408606 -1479.36347115252 419.296940504317
v -0.00122070311408606 -1710.88202584002 285.629948316817
cstype bspline
deg 1
curv 0 5 256 257 258 259 260
parm u 0 0 1 2 3 4
end
v 417.076416015636 -1706.22626412127 38.7985884535356
v -0.00122070311408606 -1720.51581490252 308.601750074629
v -0.00122070311408606 -1494.44159615252 439.125126539473
v 417.076416015636 -1267.92792427752 291.850346266036
v 417.076416015636 -1706.22626412127 38.7985884535356
cstype bspline
deg 1
curv 0 5 261 262 263 264 265
parm u 0 0 1 2 3 4
end
v 417.076416015636 -1696.59491646502 15.8267866957231
v -0.00122070311408606 -1710.88202584002 285.629948316817
v -0.00122070311408606 -1479.36347115252 419.296940504317
v 417.076416015636 -1252.85224068377 272.021855055098
v 417.076416015636 -1696.59491646502 15.8267866957231
cstype bspline
deg 1
curv 0 5 266 267 268 269 270
parm u 0 0 1 2 3 4
end
v 834.156494140636 -1720.51581490252 308.601750074629
v 417.076416015636 -1706.22626412127 38.7985884535356
v 417.076416015636 -1267.92792427752 291.850346266036
v 834.156494140636 -1494.44159615252 439.125126539473
v 834.156494140636 -1720.51581490252 308.601750074629
cstype bspline
deg 1
curv 0 5 271 272 273 274 275
parm u 0 0 1 2 3 4
end
v 834.156494140636 -1710.88202584002 285.629948316817
v 417.076416015636 -1696.59491646502 15.8267866957231
v 417.076416015636 -1252.85224068377 272.021855055098
v 834.156494140636 -1479.36347115252 419.296940504317
v 834.156494140636 -1710.88202584002 285.629948316817
cstype bspline
deg 1
curv 0 5 276 277 278 279 280
parm u 0 0 1 2 3 4
end
v -417.078857421864 -1557.21503365252 300.671147047286
v -834.156494140614 -1524.84686959002 32.4359785902543
v -834.156494140614 -1741.64862740252 -112.970210374589
v -417.078857421864 -1977.53729927752 18.7665449965043
v -417.078857421864 -1557.21503365252 300.671147047286
cstype bspline
deg 1
curv 0 5 281 282 283 284 285
parm u 0 0 1 2 3 4
end
v -417.078857421864 -1568.36981880877 322.944401441817
v -834.156494140614 -1536.00165474627 54.7089278090043
v -834.156494140614 -1758.02313912127 -94.1988480699019
v -417.078857421864 -1993.91181099627 37.5379073011918
v -417.078857421864 -1568.36981880877 322.944401441817
cstype bspline
deg 1
curv 0 5 286 287 288 289 290
parm u 0 0 1 2 3 4
end
v -0.00122070311408606 -1524.84686959002 32.4359785902543
v -417.078857421864 -1557.21503365252 300.671147047286
v -417.078857421864 -1977.53729927752 18.7665449965043
v -0.00122070311408606 -1741.64862740252 -112.970210374589
v -0.00122070311408606 -1524.84686959002 32.4359785902543
cstype bspline
deg 1
curv 0 5 291 292 293 294 295
parm u 0 0 1 2 3 4
end
v -0.00122070311408606 -1536.00165474627 54.7089278090043
v -417.078857421864 -1568.36981880877 322.944401441817
v -417.078857421864 -1993.91181099627 37.5379073011918
v -0.00122070311408606 -1758.02313912127 -94.1988480699019
v -0.00122070311408606 -1536.00165474627 54.7089278090043
cstype bspline
deg 1
curv 0 5 296 297 298 299 300
parm u 0 0 1 2 3 4
end
v 417.076416015636 -1557.21503365252 300.671147047286
v -0.00122070311408606 -1524.84686959002 32.4359785902543
v -0.00122070311408606 -1741.64862740252 -112.970210374589
v 417.076416015636 -1977.53729927752 18.7665449965043
v 417.076416015636 -1557.21503365252 300.671147047286
cstype bspline
deg 1
curv 0 5 301 302 303 304 305
parm u 0 0 1 2 3 4
end
v 417.076416015636 -1568.36981880877 322.944401441817
v -0.00122070311408606 -1536.00165474627 54.7089278090043
v -0.00122070311408606 -1758.02313912127 -94.1988480699019
v 417.076416015636 -1993.91181099627 37.5379073011918
v 417.076416015636 -1568.36981880877 322.944401441817
cstype bspline
deg 1
curv 0 5 306 307 308 309 310
parm u 0 0 1 2 3 4
end
v 834.156494140636 -1524.84686959002 32.4359785902543
v 417.076416015636 -1557.21503365252 300.671147047286
v 417.076416015636 -1977.53729927752 18.7665449965043
v 834.156494140636 -1741.64862740252 -112.970210374589
v 834.156494140636 -1524.84686959002 32.4359785902543
cstype bspline
deg 1
curv 0 5 311 312 313 314 315
parm u 0 0 1 2 3 4
end
v 834.156494140636 -1536.00165474627 54.7089278090043
v 417.076416015636 -1568.36981880877 322.944401441817
v 417.076416015636 -1993.91181099627 37.5379073011918
v 834.156494140636 -1758.02313912127 -94.1988480699019
v 834.156494140636 -1536.00165474627 54.7089278090043
cstype bspline
deg 1
curv 0 5 316 317 318 319 320
parm u 0 0 1 2 3 4
end
v -417.078857421864 -1341.31659615252 406.895817457442
v -834.156494140614 -1319.57343209002 676.200627027754
v -834.156494140614 -1078.14032662127 775.479191480879
v -417.078857421864 -873.240424277519 599.371098219161
v -417.078857421864 -1341.31659615252 406.895817457442
cstype bspline
deg 1
curv 0 5 321 322 323 324 325
parm u 0 0 1 2 3 4
end
v -417.078857421864 -1334.82489693377 382.846440016036
v -834.156494140614 -1313.08173287127 652.151249586348
v -834.156494140614 -1065.83563912127 753.820866285567
v -417.078857421864 -860.935736777523 577.712773023848
v -417.078857421864 -1334.82489693377 382.846440016036
cstype bspline
deg 1
curv 0 5 326 327 328 329 330
parm u 0 0 1 2 3 4
end
v -0.00122070311408606 -1319.57343209002 676.200627027754
v -417.078857421864 -1341.31659615252 406.895817457442
v -417.078857421864 -873.240424277519 599.371098219161
v -0.00122070311408606 -1078.14032662127 775.479191480879
v -0.00122070311408606 -1319.57343209002 676.200627027754
cstype bspline
deg 1
curv 0 5 331 332 333 334 335
parm u 0 0 1 2 3 4
end
v -0.00122070311408606 -1313.08173287127 652.151249586348
v -417.078857421864 -1334.82489693377 382.846440016036
v -417.078857421864 -860.935736777523 577.712773023848
v -0.00122070311408606 -1065.83563912127 753.820866285567
v -0.00122070311408606 -1313.08173287127 652.151249586348
cstype bspline
deg 1
curv 0 5 336 337 338 339 340
parm u 0 0 1 2 3 4
end
v 417.076416015636 -1341.31659615252 406.895817457442
v -0.00122070311408606 -1319.57343209002 676.200627027754
v -0.00122070311408606 -1078.14032662127 775.479191480879
v 417.076416015636 -873.240424277519 599.371098219161
v 417.076416015636 -1341.31659615252 406.895817457442
cstype bspline
deg 1
curv 0 5 341 342 343 344 345
parm u 0 0 1 2 3 4
end
v 417.076416015636 -1334.82489693377 382.846440016036
v -0.00122070311408606 -1313.08173287127 652.151249586348
v -0.00122070311408606 -1065.83563912127 753.820866285567
v 417.076416015636 -860.935736777523 577.712773023848
v 417.076416015636 -1334.82489693377 382.846440016036
cstype bspline
deg 1
curv 0 5 346 347 348 349 350
parm u 0 0 1 2 3 4
end
v 834.156494140636 -1319.57343209002 676.200627027754
v 417.076416015636 -1341.31659615252 406.895817457442
v 417.076416015636 -873.240424277519 599.371098219161
v 834.156494140636 -1078.14032662127 775.479191480879
v 834.156494140636 -1319.57343209002 676.200627027754
cstype bspline
deg 1
curv 0 5 351 352 353 354 355
parm u 0 0 1 2 3 4
end
v 834.156494140636 -1313.08173287127 652.151249586348
v 417.076416015636 -1334.82489693377 382.846440016036
v 417.076416015636 -860.935736777523 577.712773023848
v 834.156494140636 -1065.83563912127 753.820866285567
v 834.156494140636 -1313.08173287127 652.151249586348
cstype bspline
deg 1
curv 0 5 356 357 358 359 360
parm u 0 0 1 2 3 4
end
v -417.078857421864 -1158.69208443377 646.563175855879
v -834.156494140614 -1162.54950630877 376.409672437911
v -834.156494140614 -1396.87567818377 261.357487379317
v -417.078857421864 -1612.99140084002 423.506535230879
v -417.078857421864 -1158.69208443377 646.563175855879
cstype bspline
deg 1
curv 0 5 361 362 363 364 365
parm u 0 0 1 2 3 4
end
v -417.078857421864 -1166.76093209002 670.129765211348
v -834.156494140614 -1170.61835396502 399.976261793379
v -834.156494140614 -1410.58905709002 282.153080641036
v -417.078857421864 -1626.70233834002 444.302128492599
v -417.078857421864 -1166.76093209002 670.129765211348
cstype bspline
deg 1
curv 0 5 366 367 368 369 370
parm u 0 0 1 2 3 4
end
v -0.00122070311408606 -1162.54950630877 376.409672437911
v -417.078857421864 -1158.69208443377 646.563175855879
v -417.078857421864 -1612.99140084002 423.506535230879
v -0.00122070311408606 -1396.87567818377 261.357487379317
v -0.00122070311408606 -1162.54950630877 376.409672437911
cstype bspline
deg 1
curv 0 5 371 372 373 374 375
parm u 0 0 1 2 3 4
end
v -0.00122070311408606 -1170.61835396502 399.976261793379
v -417.078857421864 -1166.76093209002 670.129765211348
v -417.078857421864 -1626.70233834002 444.302128492599
v -0.00122070311408606 -1410.58905709002 282.153080641036
v -0.00122070311408606 -1170.61835396502 399.976261793379
cstype bspline
deg 1
curv 0 5 376 377 378 379 380
parm u 0 0 1 2 3 4
end
v 417.076416015636 -1158.69208443377 646.563175855879
v -0.00122070311408606 -1162.54950630877 376.409672437911
v -0.00122070311408606 -1396.87567818377 261.357487379317
v 417.076416015636 -1612.99140084002 423.506535230879
v 417.076416015636 -1158.69208443377 646.563175855879
cstype bspline
deg 1
curv 0 5 381 382 383 384 385
parm u 0 0 1 2 3 4
end
v 417.076416015636 -1166.76093209002 670.129765211348
v -0.00122070311408606 -1170.61835396502 399.976261793379
v -0.00122070311408606 -1410.58905709002 282.153080641036
v 417.076416015636 -1626.70233834002 444.302128492599
v 417.076416015636 -1166.76093209002 670.129765211348
cstype bspline
deg 1
curv 0 5 386 387 388 389 390
parm u 0 0 1 2 3 4
end
v 834.156494140636 -1162.54950630877 376.409672437911
v 417.076416015636 -1158.69208443377 646.563175855879
v 417.076416015636 -1612.99140084002 423.506535230879
v 834.156494140636 -1396.87567818377 261.357487379317
v 834.156494140636 -1162.54950630877 376.409672437911
cstype bspline
deg 1
curv 0 5 391 392 393 394 395
parm u 0 0 1 2 3 4
end
v 834.156494140636 -1170.61835396502 399.976261793379
v 417.076416015636 -1166.76093209002 670.129765211348
v 417.076416015636 -1626.70233834002 444.302128492599
v 834.156494140636 -1410.58905709002 282.153080641036
v 834.156494140636 -1170.61835396502 399.976261793379
cstype bspline
deg 1
curv 0 5 396 397 398 399 400
parm u 0 0 1 2 3 4
end
v -417.078857421864 -930.325385215023 722.924259840254
v -834.156494140614 -874.719916465023 987.321537672286
v -834.156494140614 -622.676459433769 1055.29089802385
v -417.078857421864 -441.677924277519 854.699162184004
v -417.078857421864 -930.325385215023 722.924259840254
cstype bspline
deg 1
curv 0 5 401 402 403 404 405
parm u 0 0 1 2 3 4
end
v -417.078857421864 -926.926947715019 698.247440992598
v -834.156494140614 -871.321478965019 962.644718824629
v -834.156494140614 -613.208685996269 1032.25104206682
v -417.078857421864 -432.207709433773 831.659306226973
v -417.078857421864 -926.926947715019 698.247440992598
cstype bspline
deg 1
curv 0 5 406 407 408 409 410
parm u 0 0 1 2 3 4
end
v -0.00122070311408606 -874.719916465023 987.321537672286
v -417.078857421864 -930.325385215023 722.924259840254
v -417.078857421864 -441.677924277519 854.699162184004
v -0.00122070311408606 -622.676459433769 1055.29089802385
v -0.00122070311408606 -874.719916465023 987.321537672286
cstype bspline
deg 1
curv 0 5 411 412 413 414 415
parm u 0 0 1 2 3 4
end
v -0.00122070311408606 -871.321478965019 962.644718824629
v -417.078857421864 -926.926947715019 698.247440992598
v -417.078857421864 -432.207709433773 831.659306226973
v -0.00122070311408606 -613.208685996269 1032.25104206682
v -0.00122070311408606 -871.321478965019 962.644718824629
cstype bspline
deg 1
curv 0 5 416 417 418 419 420
parm u 0 0 1 2 3 4
end
v 417.076416015636 -930.325385215023 722.924259840254
v -0.00122070311408606 -874.719916465023 987.321537672286
v -0.00122070311408606 -622.676459433769 1055.29089802385
v 417.076416015636 -441.677924277519 854.699162184004
v 417.076416015636 -930.325385215023 722.924259840254
cstype bspline
deg 1
curv 0 5 421 422 423 424 425
parm u 0 0 1 2 3 4
end
v 417.076416015636 -926.926947715019 698.247440992598
v -0.00122070311408606 -871.321478965019 962.644718824629
v -0.00122070311408606 -613.208685996269 1032.25104206682
v 417.076416015636 -432.207709433773 831.659306226973
v 417.076416015636 -926.926947715019 698.247440992598
cstype bspline
deg 1
curv 0 5 426 427 428 429 430
parm u 0 0 1 2 3 4
end
v 834.156494140636 -874.719916465023 987.321537672286
v 417.076416015636 -930.325385215023 722.924259840254
v 417.076416015636 -441.677924277519 854.699162184004
v 834.156494140636 -622.676459433769 1055.29089802385
v 834.156494140636 -874.719916465023 987.321537672286
cstype bspline
deg 1
curv 0 5 431 432 433 434 435
parm u 0 0 1 2 3 4
end
v 834.156494140636 -871.321478965019 962.644718824629
v 417.076416015636 -926.926947715019 698.247440992598
v 417.076416015636 -432.207709433773 831.659306226973
v 834.156494140636 -613.208685996269 1032.25104206682
v 834.156494140636 -871.321478965019 962.644718824629
cstype bspline
deg 1
curv 0 5 436 437 438 439 440
parm u 0 0 1 2 3 4
end
v -417.078857421864 -718.425971152519 937.197941480879
v -834.156494140614 -757.498236777523 669.856938062911
v -834.156494140614 -1004.83466255877 586.362980543379
v -417.078857421864 -1197.94257271502 775.324467359786
v -417.078857421864 -718.425971152519 937.197941480879
cstype bspline
deg 1
curv 0 5 441 442 443 444 445
parm u 0 0 1 2 3 4
end
v -417.078857421864 -723.350287558769 961.615666090254
v -834.156494140614 -762.424994590019 694.274967848067
v -834.156494140614 -1015.71601021502 608.77020710588
v -417.078857421864 -1208.82636177752 797.731693922286
v -417.078857421864 -723.350287558769 961.615666090254
cstype bspline
deg 1
curv 0 5 446 447 448 449 450
parm u 0 0 1 2 3 4
end
v -0.00122070311408606 -757.498236777523 669.856938062911
v -417.078857421864 -718.425971152519 937.197941480879
v -417.078857421864 -1197.94257271502 775.324467359786
v -0.00122070311408606 -1004.83466255877 586.362980543379
v -0.00122070311408606 -757.498236777523 669.856938062911
cstype bspline
deg 1
curv 0 5 451 452 453 454 455
parm u 0 0 1 2 3 4
end
v -0.00122070311408606 -762.424994590019 694.274967848067
v -417.078857421864 -723.350287558769 961.615666090254
v -417.078857421864 -1208.82636177752 797.731693922286
v -0.00122070311408606 -1015.71601021502 608.77020710588
v -0.00122070311408606 -762.424994590019 694.274967848067
cstype bspline
deg 1
curv 0 5 456 457 458 459 460
parm u 0 0 1 2 3 4
end
v 417.076416015636 -718.425971152519 937.197941480879
v -0.00122070311408606 -757.498236777523 669.856938062911
v -0.00122070311408606 -1004.83466255877 586.362980543379
v 417.076416015636 -1197.94257271502 775.324467359786
v 417.076416015636 -718.425971152519 937.197941480879
cstype bspline
deg 1
curv 0 5 461 462 463 464 465
parm u 0 0 1 2 3 4
end
v 417.076416015636 -723.350287558769 961.615666090254
v -0.00122070311408606 -762.424994590019 694.274967848067
v -0.00122070311408606 -1015.71601021502 608.77020710588
v 417.076416015636 -1208.82636177752 797.731693922286
v 417.076416015636 -723.350287558769 961.615666090254
cstype bspline
deg 1
curv 0 5 466 467 468 469 470
parm u 0 0 1 2 3 4
end
v 834.156494140636 -757.498236777523 669.856938062911
v 417.076416015636 -718.425971152519 937.197941480879
v 417.076416015636 -1197.94257271502 775.324467359786
v 834.156494140636 -1004.83466255877 586.362980543379
v 834.156494140636 -757.498236777523 669.856938062911
cstype bspline
deg 1
curv 0 5 471 472 473 474 475
parm u 0 0 1 2 3 4
end
v 834.156494140636 -762.424994590019 694.274967848067
v 417.076416015636 -723.350287558769 961.615666090254
v 417.076416015636 -1208.82636177752 797.731693922286
v 834.156494140636 -1015.71601021502 608.77020710588
v 834.156494140636 -762.424994590019 694.274967848067
cstype bspline
deg 1
curv 0 5 476 477 478 479 480
parm u 0 0 1 2 3 4
end
v -417.078857421864 1.41881173476577e-10 1056.30173261786
v -417.078857421864 -482.283393027523 984.278019605879
v -834.156494140614 -396.665717246273 1240.53473347307
v -834.156494140614 -138.482123496269 1279.09155720354
v -465.686848980422 1.41881173476577e-10 1084.67682647965
v -417.078857421864 1.41881173476577e-10 1056.30173261786
cstype bspline
deg 1
curv 0 6 481 482 483 484 485 486
parm u 0 0 1 2 3 4 5
end
v -417.078857421864 1.41881173476577e-10 1031.31694238877
v -417.078857421864 -481.741400840019 959.374149976973
v -834.156494140614 -396.123725058769 1215.63086384416
v -834.156494140614 -131.721869590023 1255.11633747697
v -483.674357368785 1.41881173476577e-10 1070.19231147096
v -417.078857421864 1.41881173476577e-10 1031.31694238877
cstype bspline
deg 1
curv 0 6 487 488 489 490 491 492
parm u 0 0 1 2 3 4 5
end
v -368.470865863306 1.41881173476577e-10 1084.67682647965
v -0.00122070311408606 -138.482123496269 1279.09155720354
v -0.00122070311408606 -396.665717246273 1240.53473347307
v -417.078857421864 -482.283393027523 984.278019605879
v -417.078857421864 1.41881173476577e-10 1056.30173261786
v -368.470865863306 1.41881173476577e-10 1084.67682647965
cstype bspline
deg 1
curv 0 6 493 494 495 496 497 498
parm u 0 0 1 2 3 4 5
end
v -350.483357474943 1.41881173476577e-10 1070.19231147096
v -0.00122070311408606 -131.721869590023 1255.11633747697
v -0.00122070311408606 -396.123725058769 1215.63086384416
v -417.078857421864 -481.741400840019 959.374149976973
v -417.078857421864 1.41881173476577e-10 1031.31694238877
v -350.483357474943 1.41881173476577e-10 1070.19231147096
cstype bspline
deg 1
curv 0 6 499 500 501 502 503 504
parm u 0 0 1 2 3 4 5
end
v 417.076416015636 1.41881173476577e-10 1056.30173261786
v 417.076416015636 -482.283393027523 984.278019605879
v -0.00122070311408606 -396.665717246273 1240.53473347307
v -0.00122070311408606 -138.482123496269 1279.09155720354
v 368.468424457078 1.41881173476577e-10 1084.67682647965
v 417.076416015636 1.41881173476577e-10 1056.30173261786
cstype bspline
deg 1
curv 0 6 505 506 507 508 509 510
parm u 0 0 1 2 3 4 5
end
v 417.076416015636 1.41881173476577e-10 1031.31694238877
v 417.076416015636 -481.741400840019 959.374149976973
v -0.00122070311408606 -396.123725058769 1215.63086384416
v -0.00122070311408606 -131.721869590023 1255.11633747697
v 350.480916068715 1.41881173476577e-10 1070.19231147096
v 417.076416015636 1.41881173476577e-10 1031.31694238877
cstype bspline
deg 1
curv 0 6 511 512 513 514 515 516
parm u 0 0 1 2 3 4 5
end
v 465.684692106002 1.41881173476577e-10 1084.67682647965
v 834.156494140636 -138.482123496269 1279.09155720354
v 834.156494140636 -396.665717246273 1240.53473347307
v 417.076416015636 -482.283393027523 984.278019605879
v 417.076416015636 1.41881173476577e-10 1056.30173261786
v 465.684692106002 1.41881173476577e-10 1084.67682647965
cstype bspline
deg 1
curv 0 6 517 518 519 520 521 522
parm u 0 0 1 2 3 4 5
end
v 483.672305786069 1.41881173476577e-10 1070.19231147096
v 834.156494140636 -131.721869590023 1255.11633747697
v 834.156494140636 -396.123725058769 1215.63086384416
v 417.076416015636 -481.741400840019 959.374149976973
v 417.076416015636 1.41881173476577e-10 1031.31694238877
v 483.672305786069 1.41881173476577e-10 1070.19231147096
cstype bspline
deg 1
curv 0 6 523 524 525 526 527 528
parm u 0 0 1 2 3 4 5
end
v -417.078857421864 -246.550971152523 1172.08929890275
v -834.156494140614 -317.705756308773 911.446598707442
v -834.156494140614 -573.330756308769 858.514469801192
v -417.078857421864 -742.141791465023 1069.46753376604
v -417.078857421864 -246.550971152523 1172.08929890275
cstype bspline
deg 1
curv 0 5 529 530 531 532 533
parm u 0 0 1 2 3 4
end
v -417.078857421864 -248.482123496269 1196.9241988051
v -834.156494140614 -319.639350058769 936.281193434004
v -834.156494140614 -581.419135215019 882.074345289473
v -417.078857421864 -750.230170371273 1093.02740925432
v -417.078857421864 -248.482123496269 1196.9241988051
cstype bspline
deg 1
curv 0 5 534 535 536 537 538
parm u 0 0 1 2 3 4
end
v -0.00122070311408606 -317.705756308773 911.446598707442
v -417.078857421864 -246.550971152523 1172.08929890275
v -417.078857421864 -742.141791465023 1069.46753376604
v -0.00122070311408606 -573.330756308769 858.514469801192
v -0.00122070311408606 -317.705756308773 911.446598707442
cstype bspline
deg 1
curv 0 5 539 540 541 542 543
parm u 0 0 1 2 3 4
end
v -0.00122070311408606 -319.639350058769 936.281193434004
v -417.078857421864 -248.482123496269 1196.9241988051
v -417.078857421864 -750.230170371273 1093.02740925432
v -0.00122070311408606 -581.419135215019 882.074345289473
v -0.00122070311408606 -319.639350058769 936.281193434004
cstype bspline
deg 1
curv 0 5 544 545 546 547 548
parm u 0 0 1 2 3 4
end
v 417.076416015636 -246.550971152523 1172.08929890275
v -0.00122070311408606 -317.705756308773 911.446598707442
v -0.00122070311408606 -573.330756308769 858.514469801192
v 417.076416015636 -742.141791465023 1069.46753376604
v 417.076416015636 -246.550971152523 1172.08929890275
cstype bspline
deg 1
curv 0 5 549 550 551 552 553
parm u 0 0 1 2 3 4
end
v 417.076416015636 -248.482123496269 1196.9241988051
v -0.00122070311408606 -319.639350058769 936.281193434004
v -0.00122070311408606 -581.419135215019 882.074345289473
v 417.076416015636 -750.230170371273 1093.02740925432
v 417.076416015636 -248.482123496269 1196.9241988051
cstype bspline
deg 1
curv 0 5 554 555 556 557 558
parm u 0 0 1 2 3 4
end
v 834.156494140636 -317.705756308773 911.446598707442
v 417.076416015636 -246.550971152523 1172.08929890275
v 417.076416015636 -742.141791465023 1069.46753376604
v 834.156494140636 -573.330756308769 858.514469801192
v 834.156494140636 -317.705756308773 911.446598707442
cstype bspline
deg 1
curv 0 5 559 560 561 562 563
parm u 0 0 1 2 3 4
end
v 834.156494140636 -319.639350058769 936.281193434004
v 417.076416015636 -248.482123496269 1196.9241988051
v 417.076416015636 -750.230170371273 1093.02740925432
v 834.156494140636 -581.419135215019 882.074345289473
v 834.156494140636 -319.639350058769 936.281193434004
cstype bspline
deg 1
curv 0 5 564 565 566 567 568
parm u 0 0 1 2 3 4
end
v -834.156494140614 1.41881173476577e-10 1088.70753986433
v -834.156494140614 -111.404486777523 1078.00604694963
v -417.078857421864 -256.397162558769 1305.9866988051
v -417.078857421864 1.56433088704944e-10 1330.61623384868
v -834.156494140614 1.41881173476577e-10 1088.70753986433
cstype bspline
deg 1
curv 0 5 569 570 571 572 573
parm u 0 0 1 2 3 4
end
v -834.156494140614 1.45519152283669e-10 1113.53203635357
v -834.156494140614 -116.897650840019 1102.30292194963
v -417.078857421864 -261.887885215023 1330.2835738051
v -417.078857421864 1.60071067512035e-10 1355.44060832411
v -834.156494140614 1.45519152283669e-10 1113.53203635357
cstype bspline
deg 1
curv 0 5 574 575 576 577 578
parm u 0 0 1 2 3 4
end
v -417.078857421864 1.56433088704944e-10 1330.61623384868
v -417.078857421864 -256.397162558769 1305.9866988051
v -0.00122070311408606 -111.404486777523 1078.00604694963
v -0.00122070311408606 1.41881173476577e-10 1088.70753986433
v -417.078857421864 1.56433088704944e-10 1330.61623384868
cstype bspline
deg 1
curv 0 5 579 580 581 582 583
parm u 0 0 1 2 3 4
end
v -417.078857421864 1.60071067512035e-10 1355.44060832411
v -417.078857421864 -261.887885215023 1330.2835738051
v -0.00122070311408606 -116.897650840019 1102.30292194963
v -0.00122070311408606 1.45519152283669e-10 1113.53203635357
v -417.078857421864 1.60071067512035e-10 1355.44060832411
cstype bspline
deg 1
curv 0 5 584 585 586 587 588
parm u 0 0 1 2 3 4
end
v -0.00122070311408606 1.41881173476577e-10 1088.70753986433
v -0.00122070311408606 -111.404486777523 1078.00604694963
v 417.076416015636 -256.397162558769 1305.9866988051
v 417.076416015636 1.56433088704944e-10 1330.61623384868
v -0.00122070311408606 1.41881173476577e-10 1088.70753986433
cstype bspline
deg 1
curv 0 5 589 590 591 592 593
parm u 0 0 1 2 3 4
end
v -0.00122070311408606 1.45519152283669e-10 1113.53203635357
v -0.00122070311408606 -116.897650840019 1102.30292194963
v 417.076416015636 -261.887885215023 1330.2835738051
v 417.076416015636 1.60071067512035e-10 1355.44060832411
v -0.00122070311408606 1.45519152283669e-10 1113.53203635357
cstype bspline
deg 1
curv 0 5 594 595 596 597 598
parm u 0 0 1 2 3 4
end
v 417.076416015636 1.56433088704944e-10 1330.61623384868
v 417.076416015636 -256.397162558769 1305.9866988051
v 834.156494140636 -111.404486777523 1078.00604694963
v 834.156494140636 1.41881173476577e-10 1088.70753986433
v 417.076416015636 1.56433088704944e-10 1330.61623384868
cstype bspline
deg 1
curv 0 5 599 600 601 602 603
parm u 0 0 1 2 3 4
end
v 417.076416015636 1.60071067512035e-10 1355.44060832411
v 417.076416015636 -261.887885215023 1330.2835738051
v 834.156494140636 -116.897650840019 1102.30292194963
v 834.156494140636 1.45519152283669e-10 1113.53203635357
v 417.076416015636 1.60071067512035e-10 1355.44060832411
cstype bspline
deg 1
curv 0 5 604 605 606 607 608
parm u 0 0 1 2 3 4
end
v -417.078857421864 2480.71112740255 -1301.55877238658
v -834.156494140614 2592.91571724633 -1055.77798015026
v -834.156494140614 2430.43280709011 -851.462489427587
v -417.078857421864 2165.69892037134 -905.443660081854
v -417.078857421864 2480.71112740255 -1301.55877238658
cstype bspline
deg 1
curv 0 5 609 610 611 612 613
parm u 0 0 1 2 3 4
end
v -417.078857421864 2463.32831490255 -1319.39950114634
v -834.156494140614 2575.53046334007 -1073.61886149791
v -834.156494140614 2409.1339789651 -864.382869066256
v -417.078857421864 2144.40009224634 -918.363887132633
v -417.078857421864 2463.32831490255 -1319.39950114634
cstype bspline
deg 1
curv 0 5 614 615 616 617 618
parm u 0 0 1 2 3 4
end
v -0.00122070311408606 2592.91571724633 -1055.77798015026
v -417.078857421864 2480.71112740255 -1301.55877238658
v -417.078857421864 2165.69892037134 -905.443660081854
v -0.00122070311408606 2430.43280709011 -851.462489427587
v -0.00122070311408606 2592.91571724633 -1055.77798015026
cstype bspline
deg 1
curv 0 5 619 620 621 622 623
parm u 0 0 1 2 3 4
end
v -0.00122070311408606 2575.53046334007 -1073.61886149791
v -417.078857421864 2463.32831490255 -1319.39950114634
v -417.078857421864 2144.40009224634 -918.363887132633
v -0.00122070311408606 2409.1339789651 -864.382869066256
v -0.00122070311408606 2575.53046334007 -1073.61886149791
cstype bspline
deg 1
curv 0 5 624 625 626 627 628
parm u 0 0 1 2 3 4
end
v 417.076416015636 2480.71112740255 -1301.55877238658
v -0.00122070311408606 2592.91571724633 -1055.77798015026
v -0.00122070311408606 2430.43280709011 -851.462489427587
v 417.076416015636 2165.69892037134 -905.443660081854
v 417.076416015636 2480.71112740255 -1301.55877238658
cstype bspline
deg 1
curv 0 5 629 630 631 632 633
parm u 0 0 1 2 3 4
end
v 417.076416015636 2463.32831490255 -1319.39950114634
v -0.00122070311408606 2575.53046334007 -1073.61886149791
v -0.00122070311408606 2409.1339789651 -864.382869066256
v 417.076416015636 2144.40009224634 -918.363887132633
v 417.076416015636 2463.32831490255 -1319.39950114634
cstype bspline
deg 1
curv 0 5 634 635 636 637 638
parm u 0 0 1 2 3 4
end
v 834.156494140636 2592.91571724633 -1055.77798015026
v 417.076416015636 2480.71112740255 -1301.55877238658
v 417.076416015636 2165.69892037134 -905.443660081854
v 834.156494140636 2430.43280709011 -851.462489427587
v 834.156494140636 2592.91571724633 -1055.77798015026
cstype bspline
deg 1
curv 0 5 639 640 641 642 643
parm u 0 0 1 2 3 4
end
v 834.156494140636 2575.53046334007 -1073.61886149791
v 417.076416015636 2463.32831490255 -1319.39950114634
v 417.076416015636 2144.40009224634 -918.363887132633
v 834.156494140636 2409.1339789651 -864.382869066256
v 834.156494140636 2575.53046334007 -1073.61886149791
cstype bspline
deg 1
curv 0 5 644 645 646 647 648
parm u 0 0 1 2 3 4
end
v -417.078857421864 2686.69141465725 -1355.4406083241
v -417.078857421864 2435.79901802759 -1003.53554850962
v -834.156494140614 2310.85761177756 -1243.09258586312
v -834.156494140614 2390.95646462528 -1355.44060832407
v -417.078857421864 2686.69141465725 -1355.4406083241
cstype bspline
deg 1
curv 0 5 649 650 651 652 653
parm u 0 0 1 2 3 4
end
v -417.078857421864 2717.03750490442 -1355.4406083241
v -417.078857421864 2454.09491646508 -986.631099046729
v -834.156494140614 2329.15351021506 -1226.18813640023
v -834.156494140614 2421.30460804796 -1355.44060832407
v -417.078857421864 2717.03750490442 -1355.4406083241
cstype bspline
deg 1
curv 0 5 654 655 656 657 658
parm u 0 0 1 2 3 4
end
v -0.00122070311408606 2390.95646462528 -1355.44060832407
v -0.00122070311408606 2310.85761177756 -1243.09258586312
v -417.078857421864 2435.79901802759 -1003.53554850962
v -417.078857421864 2686.69141465725 -1355.4406083241
v -0.00122070311408606 2390.95646462528 -1355.44060832407
cstype bspline
deg 1
curv 0 5 659 660 661 662 663
parm u 0 0 1 2 3 4
end
v -0.00122070311408606 2421.30460804796 -1355.44060832407
v -0.00122070311408606 2329.15351021506 -1226.18813640023
v -417.078857421864 2454.09491646508 -986.631099046729
v -417.078857421864 2717.03750490442 -1355.4406083241
v -0.00122070311408606 2421.30460804796 -1355.44060832407
cstype bspline
deg 1
curv 0 5 664 665 666 667 668
parm u 0 0 1 2 3 4
end
v 417.076416015636 2686.69141465725 -1355.4406083241
v 417.076416015636 2435.79901802759 -1003.53554850962
v -0.00122070311408606 2310.85761177756 -1243.09258586312
v -0.00122070311408606 2390.95646462528 -1355.44060832407
v 417.076416015636 2686.69141465725 -1355.4406083241
cstype bspline
deg 1
curv 0 5 669 670 671 672 673
parm u 0 0 1 2 3 4
end
v 417.076416015636 2717.03750490442 -1355.4406083241
v 417.076416015636 2454.09491646508 -986.631099046729
v -0.00122070311408606 2329.15351021506 -1226.18813640023
v -0.00122070311408606 2421.30460804796 -1355.44060832407
v 417.076416015636 2717.03750490442 -1355.4406083241
cstype bspline
deg 1
curv 0 5 674 675 676 677 678
parm u 0 0 1 2 3 4
end
v 834.156494140636 2390.95646462528 -1355.44060832407
v 834.156494140636 2310.85761177756 -1243.09258586312
v 417.076416015636 2435.79901802759 -1003.53554850962
v 417.076416015636 2686.69141465725 -1355.4406083241
v 834.156494140636 2390.95646462528 -1355.44060832407
cstype bspline
deg 1
curv 0 5 679 680 681 682 683
parm u 0 0 1 2 3 4
end
v 834.156494140636 2421.30460804796 -1355.44060832407
v 834.156494140636 2329.15351021506 -1226.18813640023
v 417.076416015636 2454.09491646508 -986.631099046729
v 417.076416015636 2717.03750490442 -1355.4406083241
v 834.156494140636 2421.30460804796 -1355.44060832407
cstype bspline
deg 1
curv 0 5 684 685 686 687 688
parm u 0 0 1 2 3 4
end
v -417.078857421864 2276.31415474635 -824.754878343585
v -834.156494140614 2359.53192818388 -567.708979906094
v -834.156494140614 2174.64667427765 -383.417903245918
v -417.078857421864 1917.86933052764 -467.461634935343
v -417.078857421864 2276.31415474635 -824.754878343585
cstype bspline
deg 1
curv 0 5 689 690 691 692 693
parm u 0 0 1 2 3 4
end
v -417.078857421864 2261.09442818386 -844.475184740068
v -834.156494140614 2344.31220162138 -587.429286302577
v -834.156494140614 2154.9762641214 -398.699885667791
v -417.078857421864 1898.19892037139 -482.743617357216
v -417.078857421864 2261.09442818386 -844.475184740068
cstype bspline
deg 1
curv 0 5 694 695 696 697 698
parm u 0 0 1 2 3 4
end
v -0.00122070311408606 2359.53192818388 -567.708979906094
v -417.078857421864 2276.31415474635 -824.754878343585
v -417.078857421864 1917.86933052764 -467.461634935343
v -0.00122070311408606 2174.64667427765 -383.417903245918
v -0.00122070311408606 2359.53192818388 -567.708979906094
cstype bspline
deg 1
curv 0 5 699 700 701 702 703
parm u 0 0 1 2 3 4
end
v -0.00122070311408606 2344.31220162138 -587.429286302577
v -417.078857421864 2261.09442818386 -844.475184740068
v -417.078857421864 1898.19892037139 -482.743617357216
v -0.00122070311408606 2154.9762641214 -398.699885667791
v -0.00122070311408606 2344.31220162138 -587.429286302577
cstype bspline
deg 1
curv 0 5 704 705 706 707 708
parm u 0 0 1 2 3 4
end
v 417.076416015636 2276.31415474635 -824.754878343585
v -0.00122070311408606 2359.53192818388 -567.708979906094
v -0.00122070311408606 2174.64667427765 -383.417903245918
v 417.076416015636 1917.86933052764 -467.461634935343
v 417.076416015636 2276.31415474635 -824.754878343585
cstype bspline
deg 1
curv 0 5 709 710 711 712 713
parm u 0 0 1 2 3 4
end
v 417.076416015636 2261.09442818386 -844.475184740068
v -0.00122070311408606 2344.31220162138 -587.429286302577
v -0.00122070311408606 2154.9762641214 -398.699885667791
v 417.076416015636 1898.19892037139 -482.743617357216
v 417.076416015636 2261.09442818386 -844.475184740068
cstype bspline
deg 1
curv 0 5 714 715 716 717 718
parm u 0 0 1 2 3 4
end
v 834.156494140636 2359.53192818388 -567.708979906094
v 417.076416015636 2276.31415474635 -824.754878343585
v 417.076416015636 1917.86933052764 -467.461634935343
v 834.156494140636 2174.64667427765 -383.417903245918
v 834.156494140636 2359.53192818388 -567.708979906094
cstype bspline
deg 1
curv 0 5 719 720 721 722 723
parm u 0 0 1 2 3 4
end
v 834.156494140636 2344.31220162138 -587.429286302577
v 417.076416015636 2261.09442818386 -844.475184740068
v 417.076416015636 1898.19892037139 -482.743617357216
v 834.156494140636 2154.9762641214 -398.699885667791
v 834.156494140636 2344.31220162138 -587.429286302577
cstype bspline
deg 1
curv 0 5 724 725 726 727 728
parm u 0 0 1 2 3 4
end
v -417.078857421864 2198.45770943389 -533.640376390452
v -834.156494140614 2100.17157662136 -785.310145677551
v -834.156494140614 2273.82392037134 -980.221186937335
v -417.078857421864 2535.12518990259 -911.522761644394
v -417.078857421864 2198.45770943389 -533.640376390452
cstype bspline
deg 1
curv 0 5 729 730 731 732 733
parm u 0 0 1 2 3 4
end
v -417.078857421864 2214.81757271514 -514.855433763501
v -834.156494140614 2116.53143990262 -766.52535563849
v -834.156494140614 2294.36591255884 -966.130305589681
v -417.078857421864 2555.6671820901 -897.43188029674
v -417.078857421864 2214.81757271514 -514.855433763501
cstype bspline
deg 1
curv 0 5 734 735 736 737 738
parm u 0 0 1 2 3 4
end
v -0.00122070311408606 2100.17157662136 -785.310145677551
v -417.078857421864 2198.45770943389 -533.640376390452
v -417.078857421864 2535.12518990259 -911.522761644394
v -0.00122070311408606 2273.82392037134 -980.221186937335
v -0.00122070311408606 2100.17157662136 -785.310145677551
cstype bspline
deg 1
curv 0 5 739 740 741 742 743
parm u 0 0 1 2 3 4
end
v -0.00122070311408606 2116.53143990262 -766.52535563849
v -417.078857421864 2214.81757271514 -514.855433763501
v -417.078857421864 2555.6671820901 -897.43188029674
v -0.00122070311408606 2294.36591255884 -966.130305589681
v -0.00122070311408606 2116.53143990262 -766.52535563849
cstype bspline
deg 1
curv 0 5 744 745 746 747 748
parm u 0 0 1 2 3 4
end
v 417.076416015636 2198.45770943389 -533.640376390452
v -0.00122070311408606 2100.17157662136 -785.310145677551
v -0.00122070311408606 2273.82392037134 -980.221186937335
v 417.076416015636 2535.12518990259 -911.522761644394
v 417.076416015636 2198.45770943389 -533.640376390452
cstype bspline
deg 1
curv 0 5 749 750 751 752 753
parm u 0 0 1 2 3 4
end
v 417.076416015636 2214.81757271514 -514.855433763501
v -0.00122070311408606 2116.53143990262 -766.52535563849
v -0.00122070311408606 2294.36591255884 -966.130305589681
v 417.076416015636 2555.6671820901 -897.43188029674
v 417.076416015636 2214.81757271514 -514.855433763501
cstype bspline
deg 1
curv 0 5 754 755 756 757 758
parm u 0 0 1 2 3 4
end
v 834.156494140636 2100.17157662136 -785.310145677551
v 417.076416015636 2198.45770943389 -533.640376390452
v 417.076416015636 2535.12518990259 -911.522761644394
v 834.156494140636 2273.82392037134 -980.221186937335
v 834.156494140636 2100.17157662136 -785.310145677551
cstype bspline
deg 1
curv 0 5 759 760 761 762 763
parm u 0 0 1 2 3 4
end
v 834.156494140636 2116.53143990262 -766.52535563849
v 417.076416015636 2214.81757271514 -514.855433763501
v 417.076416015636 2555.6671820901 -897.43188029674
v 834.156494140636 2294.36591255884 -966.130305589681
v 834.156494140636 2116.53143990262 -766.52535563849
cstype bspline
deg 1
curv 0 5 764 765 766 767 768
parm u 0 0 1 2 3 4
end
v -417.078857421864 2018.67499459016 -374.789973558401
v -834.156494140614 2068.73847115268 -109.287654222469
v -834.156494140614 1862.04657662145 50.1593672619283
v -417.078857421864 1617.94989693393 -65.6630814685141
v -417.078857421864 2018.67499459016 -374.789973558401
cstype bspline
deg 1
curv 0 5 769 770 771 772 773
parm u 0 0 1 2 3 4
end
v -417.078857421864 2006.0700141214 -396.275264085743
v -834.156494140614 2056.13593209018 -130.773249925593
v -834.156494140614 1844.46356880895 32.5137984142739
v -417.078857421864 1600.36688912144 -83.3086503161685
v -417.078857421864 2006.0700141214 -396.275264085743
cstype bspline
deg 1
curv 0 5 774 775 776 777 778
parm u 0 0 1 2 3 4
end
v -0.00122070311408606 2068.73847115268 -109.287654222469
v -417.078857421864 2018.67499459016 -374.789973558401
v -417.078857421864 1617.94989693393 -65.6630814685141
v -0.00122070311408606 1862.04657662145 50.1593672619283
v -0.00122070311408606 2068.73847115268 -109.287654222469
cstype bspline
deg 1
curv 0 5 779 780 781 782 783
parm u 0 0 1 2 3 4
end
v -0.00122070311408606 2056.13593209018 -130.773249925593
v -417.078857421864 2006.0700141214 -396.275264085743
v -417.078857421864 1600.36688912144 -83.3086503161685
v -0.00122070311408606 1844.46356880895 32.5137984142739
v -0.00122070311408606 2056.13593209018 -130.773249925593
cstype bspline
deg 1
curv 0 5 784 785 786 787 788
parm u 0 0 1 2 3 4
end
v 417.076416015636 2018.67499459016 -374.789973558401
v -0.00122070311408606 2068.73847115268 -109.287654222469
v -0.00122070311408606 1862.04657662145 50.1593672619283
v 417.076416015636 1617.94989693393 -65.6630814685141
v 417.076416015636 2018.67499459016 -374.789973558401
cstype bspline
deg 1
curv 0 5 789 790 791 792 793
parm u 0 0 1 2 3 4
end
v 417.076416015636 2006.0700141214 -396.275264085743
v -0.00122070311408606 2056.13593209018 -130.773249925593
v -0.00122070311408606 1844.46356880895 32.5137984142739
v 417.076416015636 1600.36688912144 -83.3086503161685
v 417.076416015636 2006.0700141214 -396.275264085743
cstype bspline
deg 1
curv 0 5 794 795 796 797 798
parm u 0 0 1 2 3 4
end
v 834.156494140636 2068.73847115268 -109.287654222469
v 417.076416015636 2018.67499459016 -374.789973558401
v 417.076416015636 1617.94989693393 -65.6630814685141
v 834.156494140636 1862.04657662145 50.1593672619283
v 834.156494140636 2068.73847115268 -109.287654222469
cstype bspline
deg 1
curv 0 5 799 800 801 802 803
parm u 0 0 1 2 3 4
end
v 834.156494140636 2056.13593209018 -130.773249925593
v 417.076416015636 2006.0700141214 -396.275264085743
v 417.076416015636 1600.36688912144 -83.3086503161685
v 834.156494140636 1844.46356880895 32.5137984142739
v 834.156494140636 2056.13593209018 -130.773249925593
cstype bspline
deg 1
curv 0 5 804 805 806 807 808
parm u 0 0 1 2 3 4
end
v -417.078857421864 1905.43280709019 -95.5672562732325
v -834.156494140614 1838.34296334016 -357.286006273225
v -834.156494140614 2034.31708443389 -529.737025560356
v -417.078857421864 2285.37909615265 -429.905330003742
v -417.078857421864 1905.43280709019 -95.5672562732325
cstype bspline
deg 1
curv 0 5 809 810 811 812 813
parm u 0 0 1 2 3 4
end
v -417.078857421864 1919.39765084018 -74.9398148669843
v -834.156494140614 1852.30780709016 -336.658564866977
v -834.156494140614 2053.00116646514 -513.262721361139
v -417.078857421864 2304.0631781839 -413.431025804526
v -417.078857421864 1919.39765084018 -74.9398148669843
cstype bspline
deg 1
curv 0 5 814 815 816 817 818
parm u 0 0 1 2 3 4
end
v -0.00122070311408606 1838.34296334016 -357.286006273225
v -417.078857421864 1905.43280709019 -95.5672562732325
v -417.078857421864 2285.37909615265 -429.905330003742
v -0.00122070311408606 2034.31708443389 -529.737025560356
v -0.00122070311408606 1838.34296334016 -357.286006273225
cstype bspline
deg 1
curv 0 5 819 820 821 822 823
parm u 0 0 1 2 3 4
end
v -0.00122070311408606 1852.30780709016 -336.658564866977
v -417.078857421864 1919.39765084018 -74.9398148669843
v -417.078857421864 2304.0631781839 -413.431025804526
v -0.00122070311408606 2053.00116646514 -513.262721361139
v -0.00122070311408606 1852.30780709016 -336.658564866977
cstype bspline
deg 1
curv 0 5 824 825 826 827 828
parm u 0 0 1 2 3 4
end
v 417.076416015636 1905.43280709019 -95.5672562732325
v -0.00122070311408606 1838.34296334016 -357.286006273225
v -0.00122070311408606 2034.31708443389 -529.737025560356
v 417.076416015636 2285.37909615265 -429.905330003742
v 417.076416015636 1905.43280709019 -95.5672562732325
cstype bspline
deg 1
curv 0 5 829 830 831 832 833
parm u 0 0 1 2 3 4
end
v 417.076416015636 1919.39765084018 -74.9398148669843
v -0.00122070311408606 1852.30780709016 -336.658564866977
v -0.00122070311408606 2053.00116646514 -513.262721361139
v 417.076416015636 2304.0631781839 -413.431025804526
v 417.076416015636 1919.39765084018 -74.9398148669843
cstype bspline
deg 1
curv 0 5 834 835 836 837 838
parm u 0 0 1 2 3 4
end
v 834.156494140636 1838.34296334016 -357.286006273225
v 417.076416015636 1905.43280709019 -95.5672562732325
v 417.076416015636 2285.37909615265 -429.905330003742
v 834.156494140636 2034.31708443389 -529.737025560356
v 834.156494140636 1838.34296334016 -357.286006273225
cstype bspline
deg 1
curv 0 5 839 840 841 842 843
parm u 0 0 1 2 3 4
end
v 834.156494140636 1852.30780709016 -336.658564866977
v 417.076416015636 1919.39765084018 -74.9398148669843
v 417.076416015636 2304.0631781839 -413.431025804526
v 834.156494140636 2053.00116646514 -513.262721361139
v 834.156494140636 1852.30780709016 -336.658564866977
cstype bspline
deg 1
curv 0 5 844 845 846 847 848
parm u 0 0 1 2 3 4
end
v -417.078857421864 1706.22626412145 38.7985884533514
v -834.156494140614 1720.51581490273 308.601750074443
v -834.156494140614 1494.44159615274 439.125126539312
v -417.078857421864 1267.92792427773 291.850346265899
v -417.078857421864 1706.22626412145 38.7985884533514
cstype bspline
deg 1
curv 0 5 849 850 851 852 853
parm u 0 0 1 2 3 4
end
v -417.078857421864 1696.59491646519 15.8267866955402
v -834.156494140614 1710.88202584023 285.629948316633
v -834.156494140614 1479.36347115274 419.296940504158
v -417.078857421864 1252.85224068397 272.021855054963
v -417.078857421864 1696.59491646519 15.8267866955402
cstype bspline
deg 1
curv 0 5 854 855 856 857 858
parm u 0 0 1 2 3 4
end
v -0.00122070311408606 1720.51581490273 308.601750074443
v -417.078857421864 1706.22626412145 38.7985884533514
v -417.078857421864 1267.92792427773 291.850346265899
v -0.00122070311408606 1494.44159615274 439.125126539312
v -0.00122070311408606 1720.51581490273 308.601750074443
cstype bspline
deg 1
curv 0 5 859 860 861 862 863
parm u 0 0 1 2 3 4
end
v -0.00122070311408606 1710.88202584023 285.629948316633
v -417.078857421864 1696.59491646519 15.8267866955402
v -417.078857421864 1252.85224068397 272.021855054963
v -0.00122070311408606 1479.36347115274 419.296940504158
v -0.00122070311408606 1710.88202584023 285.629948316633
cstype bspline
deg 1
curv 0 5 864 865 866 867 868
parm u 0 0 1 2 3 4
end
v 417.076416015636 1706.22626412145 38.7985884533514
v -0.00122070311408606 1720.51581490273 308.601750074443
v -0.00122070311408606 1494.44159615274 439.125126539312
v 417.076416015636 1267.92792427773 291.850346265899
v 417.076416015636 1706.22626412145 38.7985884533514
cstype bspline
deg 1
curv 0 5 869 870 871 872 873
parm u 0 0 1 2 3 4
end
v 417.076416015636 1696.59491646519 15.8267866955402
v -0.00122070311408606 1710.88202584023 285.629948316633
v -0.00122070311408606 1479.36347115274 419.296940504158
v 417.076416015636 1252.85224068397 272.021855054963
v 417.076416015636 1696.59491646519 15.8267866955402
cstype bspline
deg 1
curv 0 5 874 875 876 877 878
parm u 0 0 1 2 3 4
end
v 834.156494140636 1720.51581490273 308.601750074443
v 417.076416015636 1706.22626412145 38.7985884533514
v 417.076416015636 1267.92792427773 291.850346265899
v 834.156494140636 1494.44159615274 439.125126539312
v 834.156494140636 1720.51581490273 308.601750074443
cstype bspline
deg 1
curv 0 5 879 880 881 882 883
parm u 0 0 1 2 3 4
end
v 834.156494140636 1710.88202584023 285.629948316633
v 417.076416015636 1696.59491646519 15.8267866955402
v 417.076416015636 1252.85224068397 272.021855054963
v 834.156494140636 1479.36347115274 419.296940504158
v 834.156494140636 1710.88202584023 285.629948316633
cstype bspline
deg 1
curv 0 5 884 885 886 887 888
parm u 0 0 1 2 3 4
end
v -417.078857421864 1557.21503365273 300.671147047117
v -834.156494140614 1524.8468695902 32.4359785900897
v -834.156494140614 1741.64862740268 -112.970210374778
v -417.078857421864 1977.53729927769 18.7665449962906
v -417.078857421864 1557.21503365273 300.671147047117
cstype bspline
deg 1
curv 0 5 889 890 891 892 893
parm u 0 0 1 2 3 4
end
v -417.078857421864 1568.36981880898 322.944401441648
v -834.156494140614 1536.00165474645 54.7089278088383
v -834.156494140614 1758.02313912144 -94.198848070092
v -417.078857421864 1993.91181099645 37.5379073009763
v -417.078857421864 1568.36981880898 322.944401441648
cstype bspline
deg 1
curv 0 5 894 895 896 897 898
parm u 0 0 1 2 3 4
end
v -0.00122070311408606 1524.8468695902 32.4359785900897
v -417.078857421864 1557.21503365273 300.671147047117
v -417.078857421864 1977.53729927769 18.7665449962906
v -0.00122070311408606 1741.64862740268 -112.970210374778
v -0.00122070311408606 1524.8468695902 32.4359785900897
cstype bspline
deg 1
curv 0 5 899 900 901 902 903
parm u 0 0 1 2 3 4
end
v -0.00122070311408606 1536.00165474645 54.7089278088383
v -417.078857421864 1568.36981880898 322.944401441648
v -417.078857421864 1993.91181099645 37.5379073009763
v -0.00122070311408606 1758.02313912144 -94.198848070092
v -0.00122070311408606 1536.00165474645 54.7089278088383
cstype bspline
deg 1
curv 0 5 904 905 906 907 908
parm u 0 0 1 2 3 4
end
v 417.076416015636 1557.21503365273 300.671147047117
v -0.00122070311408606 1524.8468695902 32.4359785900897
v -0.00122070311408606 1741.64862740268 -112.970210374778
v 417.076416015636 1977.53729927769 18.7665449962906
v 417.076416015636 1557.21503365273 300.671147047117
cstype bspline
deg 1
curv 0 5 909 910 911 912 913
parm u 0 0 1 2 3 4
end
v 417.076416015636 1568.36981880898 322.944401441648
v -0.00122070311408606 1536.00165474645 54.7089278088383
v -0.00122070311408606 1758.02313912144 -94.198848070092
v 417.076416015636 1993.91181099645 37.5379073009763
v 417.076416015636 1568.36981880898 322.944401441648
cstype bspline
deg 1
curv 0 5 914 915 916 917 918
parm u 0 0 1 2 3 4
end
v 834.156494140636 1524.8468695902 32.4359785900897
v 417.076416015636 1557.21503365273 300.671147047117
v 417.076416015636 1977.53729927769 18.7665449962906
v 834.156494140636 1741.64862740268 -112.970210374778
v 834.156494140636 1524.8468695902 32.4359785900897
cstype bspline
deg 1
curv 0 5 919 920 921 922 923
parm u 0 0 1 2 3 4
end
v 834.156494140636 1536.00165474645 54.7089278088383
v 417.076416015636 1568.36981880898 322.944401441648
v 417.076416015636 1993.91181099645 37.5379073009763
v 834.156494140636 1758.02313912144 -94.198848070092
v 834.156494140636 1536.00165474645 54.7089278088383
cstype bspline
deg 1
curv 0 5 924 925 926 927 928
parm u 0 0 1 2 3 4
end
v -417.078857421864 1341.31659615274 406.895817457297
v -834.156494140614 1319.57343209027 676.200627027612
v -834.156494140614 1078.14032662152 775.479191480763
v -417.078857421864 873.240424277756 599.371098219066
v -417.078857421864 1341.31659615274 406.895817457297
cstype bspline
deg 1
curv 0 5 929 930 931 932 933
parm u 0 0 1 2 3 4
end
v -417.078857421864 1334.82489693399 382.846440015892
v -834.156494140614 1313.08173287152 652.151249586207
v -834.156494140614 1065.83563912153 753.820866285452
v -417.078857421864 860.935736777763 577.712773023755
v -417.078857421864 1334.82489693399 382.846440015892
cstype bspline
deg 1
curv 0 5 934 935 936 937 938
parm u 0 0 1 2 3 4
end
v -0.00122070311408606 1319.57343209027 676.200627027612
v -417.078857421864 1341.31659615274 406.895817457297
v -417.078857421864 873.240424277756 599.371098219066
v -0.00122070311408606 1078.14032662152 775.479191480763
v -0.00122070311408606 1319.57343209027 676.200627027612
cstype bspline
deg 1
curv 0 5 939 940 941 942 943
parm u 0 0 1 2 3 4
end
v -0.00122070311408606 1313.08173287152 652.151249586207
v -417.078857421864 1334.82489693399 382.846440015892
v -417.078857421864 860.935736777763 577.712773023755
v -0.00122070311408606 1065.83563912153 753.820866285452
v -0.00122070311408606 1313.08173287152 652.151249586207
cstype bspline
deg 1
curv 0 5 944 945 946 947 948
parm u 0 0 1 2 3 4
end
v 417.076416015636 1341.31659615274 406.895817457297
v -0.00122070311408606 1319.57343209027 676.200627027612
v -0.00122070311408606 1078.14032662152 775.479191480763
v 417.076416015636 873.240424277756 599.371098219066
v 417.076416015636 1341.31659615274 406.895817457297
cstype bspline
deg 1
curv 0 5 949 950 951 952 953
parm u 0 0 1 2 3 4
end
v 417.076416015636 1334.82489693399 382.846440015892
v -0.00122070311408606 1313.08173287152 652.151249586207
v -0.00122070311408606 1065.83563912153 753.820866285452
v 417.076416015636 860.935736777763 577.712773023755
v 417.076416015636 1334.82489693399 382.846440015892
cstype bspline
deg 1
curv 0 5 954 955 956 957 958
parm u 0 0 1 2 3 4
end
v 834.156494140636 1319.57343209027 676.200627027612
v 417.076416015636 1341.31659615274 406.895817457297
v 417.076416015636 873.240424277756 599.371098219066
v 834.156494140636 1078.14032662152 775.479191480763
v 834.156494140636 1319.57343209027 676.200627027612
cstype bspline
deg 1
curv 0 5 959 960 961 962 963
parm u 0 0 1 2 3 4
end
v 834.156494140636 1313.08173287152 652.151249586207
v 417.076416015636 1334.82489693399 382.846440015892
v 417.076416015636 860.935736777763 577.712773023755
v 834.156494140636 1065.83563912153 753.820866285452
v 834.156494140636 1313.08173287152 652.151249586207
cstype bspline
deg 1
curv 0 5 964 965 966 967 968
parm u 0 0 1 2 3 4
end
v -417.078857421864 1158.69208443402 646.563175855754
v -834.156494140614 1162.54950630898 376.409672437785
v -834.156494140614 1396.87567818397 261.357487379166
v -417.078857421864 1612.99140084024 423.506535230706
v -417.078857421864 1158.69208443402 646.563175855754
cstype bspline
deg 1
curv 0 5 969 970 971 972 973
parm u 0 0 1 2 3 4
end
v -417.078857421864 1166.76093209027 670.129765211222
v -834.156494140614 1170.61835396524 399.976261793253
v -834.156494140614 1410.58905709023 282.153080640883
v -417.078857421864 1626.70233834024 444.302128492423
v -417.078857421864 1166.76093209027 670.129765211222
cstype bspline
deg 1
curv 0 5 974 975 976 977 978
parm u 0 0 1 2 3 4
end
v -0.00122070311408606 1162.54950630898 376.409672437785
v -417.078857421864 1158.69208443402 646.563175855754
v -417.078857421864 1612.99140084024 423.506535230706
v -0.00122070311408606 1396.87567818397 261.357487379166
v -0.00122070311408606 1162.54950630898 376.409672437785
cstype bspline
deg 1
curv 0 5 979 980 981 982 983
parm u 0 0 1 2 3 4
end
v -0.00122070311408606 1170.61835396524 399.976261793253
v -417.078857421864 1166.76093209027 670.129765211222
v -417.078857421864 1626.70233834024 444.302128492423
v -0.00122070311408606 1410.58905709023 282.153080640883
v -0.00122070311408606 1170.61835396524 399.976261793253
cstype bspline
deg 1
curv 0 5 984 985 986 987 988
parm u 0 0 1 2 3 4
end
v 417.076416015636 1158.69208443402 646.563175855754
v -0.00122070311408606 1162.54950630898 376.409672437785
v -0.00122070311408606 1396.87567818397 261.357487379166
v 417.076416015636 1612.99140084024 423.506535230706
v 417.076416015636 1158.69208443402 646.563175855754
cstype bspline
deg 1
curv 0 5 989 990 991 992 993
parm u 0 0 1 2 3 4
end
v 417.076416015636 1166.76093209027 670.129765211222
v -0.00122070311408606 1170.61835396524 399.976261793253
v -0.00122070311408606 1410.58905709023 282.153080640883
v 417.076416015636 1626.70233834024 444.302128492423
v 417.076416015636 1166.76093209027 670.129765211222
cstype bspline
deg 1
curv 0 5 994 995 996 997 998
parm u 0 0 1 2 3 4
end
v 834.156494140636 1162.54950630898 376.409672437785
v 417.076416015636 1158.69208443402 646.563175855754
v 417.076416015636 1612.99140084024 423.506535230706
v 834.156494140636 1396.87567818397 261.357487379166
v 834.156494140636 1162.54950630898 376.409672437785
cstype bspline
deg 1
curv 0 5 999 1000 1001 1002 1003
parm u 0 0 1 2 3 4
end
v 834.156494140636 1170.61835396524 399.976261793253
v 417.076416015636 1166.76093209027 670.129765211222
v 417.076416015636 1626.70233834024 444.302128492423
v 834.156494140636 1410.58905709023 282.153080640883
v 834.156494140636 1170.61835396524 399.976261793253
cstype bspline
deg 1
curv 0 5 1004 1005 1006 1007 1008
parm u 0 0 1 2 3 4
end
v -417.078857421864 930.325385215274 722.924259840154
v -834.156494140614 874.719916465303 987.321537672191
v -834.156494140614 622.676459434057 1055.29089802378
v -417.078857421864 441.677924277785 854.699162183957
v -417.078857421864 930.325385215274 722.924259840154
cstype bspline
deg 1
curv 0 5 1009 1010 1011 1012 1013
parm u 0 0 1 2 3 4
end
v -417.078857421864 926.92694771527 698.247440992498
v -834.156494140614 871.321478965299 962.644718824536
v -834.156494140614 613.208685996553 1032.25104206675
v -417.078857421864 432.207709434038 831.659306226927
v -417.078857421864 926.92694771527 698.247440992498
cstype bspline
deg 1
curv 0 5 1014 1015 1016 1017 1018
parm u 0 0 1 2 3 4
end
v -0.00122070311408606 874.719916465303 987.321537672191
v -417.078857421864 930.325385215274 722.924259840154
v -417.078857421864 441.677924277785 854.699162183957
v -0.00122070311408606 622.676459434057 1055.29089802378
v -0.00122070311408606 874.719916465303 987.321537672191
cstype bspline
deg 1
curv 0 5 1019 1020 1021 1022 1023
parm u 0 0 1 2 3 4
end
v -0.00122070311408606 871.321478965299 962.644718824536
v -417.078857421864 926.92694771527 698.247440992498
v -417.078857421864 432.207709434038 831.659306226927
v -0.00122070311408606 613.208685996553 1032.25104206675
v -0.00122070311408606 871.321478965299 962.644718824536
cstype bspline
deg 1
curv 0 5 1024 1025 1026 1027 1028
parm u 0 0 1 2 3 4
end
v 417.076416015636 930.325385215274 722.924259840154
v -0.00122070311408606 874.719916465303 987.321537672191
v -0.00122070311408606 622.676459434057 1055.29089802378
v 417.076416015636 441.677924277785 854.699162183957
v 417.076416015636 930.325385215274 722.924259840154
cstype bspline
deg 1
curv 0 5 1029 1030 1031 1032 1033
parm u 0 0 1 2 3 4
end
v 417.076416015636 926.92694771527 698.247440992498
v -0.00122070311408606 871.321478965299 962.644718824536
v -0.00122070311408606 613.208685996553 1032.25104206675
v 417.076416015636 432.207709434038 831.659306226927
v 417.076416015636 926.92694771527 698.247440992498
cstype bspline
deg 1
curv 0 5 1034 1035 1036 1037 1038
parm u 0 0 1 2 3 4
end
v 834.156494140636 874.719916465303 987.321537672191
v 417.076416015636 930.325385215274 722.924259840154
v 417.076416015636 441.677924277785 854.699162183957
v 834.156494140636 622.676459434057 1055.29089802378
v 834.156494140636 874.719916465303 987.321537672191
cstype bspline
deg 1
curv 0 5 1039 1040 1041 1042 1043
parm u 0 0 1 2 3 4
end
v 834.156494140636 871.321478965299 962.644718824536
v 417.076416015636 926.92694771527 698.247440992498
v 417.076416015636 432.207709434038 831.659306226927
v 834.156494140636 613.208685996553 1032.25104206675
v 834.156494140636 871.321478965299 962.644718824536
cstype bspline
deg 1
curv 0 5 1044 1045 1046 1047 1048
parm u 0 0 1 2 3 4
end
v -417.078857421864 718.425971152792 937.197941480802
v -834.156494140614 757.49823677777 669.856938062829
v -834.156494140614 1004.83466255901 586.362980543271
v -417.078857421864 1197.94257271527 775.324467359656
v -417.078857421864 718.425971152792 937.197941480802
cstype bspline
deg 1
curv 0 5 1049 1050 1051 1052 1053
parm u 0 0 1 2 3 4
end
v -417.078857421864 723.350287559049 961.615666090177
v -834.156494140614 762.424994590267 694.274967847984
v -834.156494140614 1015.71601021526 608.77020710577
v -417.078857421864 1208.82636177778 797.731693922155
v -417.078857421864 723.350287559049 961.615666090177
cstype bspline
deg 1
curv 0 5 1054 1055 1056 1057 1058
parm u 0 0 1 2 3 4
end
v -0.00122070311408606 757.49823677777 669.856938062829
v -417.078857421864 718.425971152792 937.197941480802
v -417.078857421864 1197.94257271527 775.324467359656
v -0.00122070311408606 1004.83466255901 586.362980543271
v -0.00122070311408606 757.49823677777 669.856938062829
cstype bspline
deg 1
curv 0 5 1059 1060 1061 1062 1063
parm u 0 0 1 2 3 4
end
v -0.00122070311408606 762.424994590267 694.274967847984
v -417.078857421864 723.350287559049 961.615666090177
v -417.078857421864 1208.82636177778 797.731693922155
v -0.00122070311408606 1015.71601021526 608.77020710577
v -0.00122070311408606 762.424994590267 694.274967847984
cstype bspline
deg 1
curv 0 5 1064 1065 1066 1067 1068
parm u 0 0 1 2 3 4
end
v 417.076416015636 718.425971152792 937.197941480802
v -0.00122070311408606 757.49823677777 669.856938062829
v -0.00122070311408606 1004.83466255901 586.362980543271
v 417.076416015636 1197.94257271527 775.324467359656
v 417.076416015636 718.425971152792 937.197941480802
cstype bspline
deg 1
curv 0 5 1069 1070 1071 1072 1073
parm u 0 0 1 2 3 4
end
v 417.076416015636 723.350287559049 961.615666090177
v -0.00122070311408606 762.424994590267 694.274967847984
v -0.00122070311408606 1015.71601021526 608.77020710577
v 417.076416015636 1208.82636177778 797.731693922155
v 417.076416015636 723.350287559049 961.615666090177
cstype bspline
deg 1
curv 0 5 1074 1075 1076 1077 1078
parm u 0 0 1 2 3 4
end
v 834.156494140636 757.49823677777 669.856938062829
v 417.076416015636 718.425971152792 937.197941480802
v 417.076416015636 1197.94257271527 775.324467359656
v 834.156494140636 1004.83466255901 586.362980543271
v 834.156494140636 757.49823677777 669.856938062829
cstype bspline
deg 1
curv 0 5 1079 1080 1081 1082 1083
parm u 0 0 1 2 3 4
end
v 834.156494140636 762.424994590267 694.274967847984
v 417.076416015636 723.350287559049 961.615666090177
v 417.076416015636 1208.82636177778 797.731693922155
v 834.156494140636 1015.71601021526 608.77020710577
v 834.156494140636 762.424994590267 694.274967847984
cstype bspline
deg 1
curv 0 5 1084 1085 1086 1087 1088
parm u 0 0 1 2 3 4
end
v -417.078857421864 1.45519152283669e-10 1056.30173261786
v -417.078857421864 482.283393027803 984.278019605827
v -834.156494140614 396.665717246578 1240.53473347302
v -834.156494140614 138.482123496578 1279.09155720352
v -465.686848980422 1.52795109897852e-10 1084.67682647965
v -417.078857421864 1.45519152283669e-10 1056.30173261786
cstype bspline
deg 1
curv 0 6 1089 1090 1091 1092 1093 1094
parm u 0 0 1 2 3 4 5
end
v -417.078857421864 1.41881173476577e-10 1031.31694238877
v -417.078857421864 481.741400840299 959.374149976921
v -834.156494140614 396.123725059075 1215.63086384412
v -834.156494140614 131.721869590336 1255.11633747696
v -483.674357368785 1.45519152283669e-10 1070.19231147096
v -417.078857421864 1.41881173476577e-10 1031.31694238877
cstype bspline
deg 1
curv 0 6 1095 1096 1097 1098 1099 1100
parm u 0 0 1 2 3 4 5
end
v -368.470865863306 1.52795109897852e-10 1084.67682647965
v -0.00122070311408606 138.482123496578 1279.09155720352
v -0.00122070311408606 396.665717246578 1240.53473347302
v -417.078857421864 482.283393027803 984.278019605827
v -417.078857421864 1.45519152283669e-10 1056.30173261786
v -368.470865863306 1.52795109897852e-10 1084.67682647965
cstype bspline
deg 1
curv 0 6 1101 1102 1103 1104 1105 1106
parm u 0 0 1 2 3 4 5
end
v -350.483357474943 1.45519152283669e-10 1070.19231147096
v -0.00122070311408606 131.721869590336 1255.11633747696
v -0.00122070311408606 396.123725059075 1215.63086384412
v -417.078857421864 481.741400840299 959.374149976921
v -417.078857421864 1.41881173476577e-10 1031.31694238877
v -350.483357474943 1.45519152283669e-10 1070.19231147096
cstype bspline
deg 1
curv 0 6 1107 1108 1109 1110 1111 1112
parm u 0 0 1 2 3 4 5
end
v 417.076416015636 1.45519152283669e-10 1056.30173261786
v 417.076416015636 482.283393027803 984.278019605827
v -0.00122070311408606 396.665717246578 1240.53473347302
v -0.00122070311408606 138.482123496578 1279.09155720352
v 368.468424457078 1.52795109897852e-10 1084.67682647965
v 417.076416015636 1.45519152283669e-10 1056.30173261786
cstype bspline
deg 1
curv 0 6 1113 1114 1115 1116 1117 1118
parm u 0 0 1 2 3 4 5
end
v 417.076416015636 1.41881173476577e-10 1031.31694238877
v 417.076416015636 481.741400840299 959.374149976921
v -0.00122070311408606 396.123725059075 1215.63086384412
v -0.00122070311408606 131.721869590336 1255.11633747696
v 350.480916068715 1.45519152283669e-10 1070.19231147096
v 417.076416015636 1.41881173476577e-10 1031.31694238877
cstype bspline
deg 1
curv 0 6 1119 1120 1121 1122 1123 1124
parm u 0 0 1 2 3 4 5
end
v 465.684692106002 1.52795109897852e-10 1084.67682647965
v 834.156494140636 138.482123496578 1279.09155720352
v 834.156494140636 396.665717246578 1240.53473347302
v 417.076416015636 482.283393027803 984.278019605827
v 417.076416015636 1.45519152283669e-10 1056.30173261786
v 465.684692106002 1.52795109897852e-10 1084.67682647965
cstype bspline
deg 1
curv 0 6 1125 1126 1127 1128 1129 1130
parm u 0 0 1 2 3 4 5
end
v 483.672305786069 1.45519152283669e-10 1070.19231147096
v 834.156494140636 131.721869590336 1255.11633747696
v 834.156494140636 396.123725059075 1215.63086384412
v 417.076416015636 481.741400840299 959.374149976921
v 417.076416015636 1.41881173476577e-10 1031.31694238877
v 483.672305786069 1.45519152283669e-10 1070.19231147096
cstype bspline
deg 1
curv 0 6 1131 1132 1133 1134 1135 1136
parm u 0 0 1 2 3 4 5
end
v -417.078857421864 246.550971152825 1172.08929890273
v -834.156494140614 317.705756309049 911.446598707408
v -834.156494140614 573.330756309035 858.51446980113
v -417.078857421864 742.14179146531 1069.46753376596
v -417.078857421864 246.550971152825 1172.08929890273
cstype bspline
deg 1
curv 0 5 1137 1138 1139 1140 1141
parm u 0 0 1 2 3 4
end
v -417.078857421864 248.482123496571 1196.92419880507
v -834.156494140614 319.639350059042 936.28119343397
v -834.156494140614 581.419135215288 882.07434528941
v -417.078857421864 750.230170371564 1093.02740925424
v -417.078857421864 248.482123496571 1196.92419880507
cstype bspline
deg 1
curv 0 5 1142 1143 1144 1145 1146
parm u 0 0 1 2 3 4
end
v -0.00122070311408606 317.705756309049 911.446598707408
v -417.078857421864 246.550971152825 1172.08929890273
v -417.078857421864 742.14179146531 1069.46753376596
v -0.00122070311408606 573.330756309035 858.51446980113
v -0.00122070311408606 317.705756309049 911.446598707408
cstype bspline
deg 1
curv 0 5 1147 1148 1149 1150 1151
parm u 0 0 1 2 3 4
end
v -0.00122070311408606 319.639350059042 936.28119343397
v -417.078857421864 248.482123496571 1196.92419880507
v -417.078857421864 750.230170371564 1093.02740925424
v -0.00122070311408606 581.419135215288 882.07434528941
v -0.00122070311408606 319.639350059042 936.28119343397
cstype bspline
deg 1
curv 0 5 1152 1153 1154 1155 1156
parm u 0 0 1 2 3 4
end
v 417.076416015636 246.550971152825 1172.08929890273
v -0.00122070311408606 317.705756309049 911.446598707408
v -0.00122070311408606 573.330756309035 858.51446980113
v 417.076416015636 742.14179146531 1069.46753376596
v 417.076416015636 246.550971152825 1172.08929890273
cstype bspline
deg 1
curv 0 5 1157 1158 1159 1160 1161
parm u 0 0 1 2 3 4
end
v 417.076416015636 248.482123496571 1196.92419880507
v -0.00122070311408606 319.639350059042 936.28119343397
v -0.00122070311408606 581.419135215288 882.07434528941
v 417.076416015636 750.230170371564 1093.02740925424
v 417.076416015636 248.482123496571 1196.92419880507
cstype bspline
deg 1
curv 0 5 1162 1163 1164 1165 1166
parm u 0 0 1 2 3 4
end
v 834.156494140636 317.705756309049 911.446598707408
v 417.076416015636 246.550971152825 1172.08929890273
v 417.076416015636 742.14179146531 1069.46753376596
v 834.156494140636 573.330756309035 858.51446980113
v 834.156494140636 317.705756309049 911.446598707408
cstype bspline
deg 1
curv 0 5 1167 1168 1169 1170 1171
parm u 0 0 1 2 3 4
end
v 834.156494140636 319.639350059042 936.28119343397
v 417.076416015636 248.482123496571 1196.92419880507
v 417.076416015636 750.230170371564 1093.02740925424
v 834.156494140636 581.419135215288 882.07434528941
v 834.156494140636 319.639350059042 936.28119343397
cstype bspline
deg 1
curv 0 5 1172 1173 1174 1175 1176
parm u 0 0 1 2 3 4
end
v -834.156494140614 1.52795109897852e-10 1088.70753986433
v -834.156494140614 111.404486777814 1078.00604694962
v -417.078857421864 256.397162559086 1305.98669880507
v -417.078857421864 1.63709046319127e-10 1330.61623384868
v -834.156494140614 1.52795109897852e-10 1088.70753986433
cstype bspline
deg 1
curv 0 5 1177 1178 1179 1180 1181
parm u 0 0 1 2 3 4
end
v -834.156494140614 1.45519152283669e-10 1113.53203635357
v -834.156494140614 116.89765084031 1102.30292194962
v -417.078857421864 261.887885215343 1330.28357380507
v -417.078857421864 1.60071067512035e-10 1355.44060832411
v -834.156494140614 1.45519152283669e-10 1113.53203635357
cstype bspline
deg 1
curv 0 5 1182 1183 1184 1185 1186
parm u 0 0 1 2 3 4
end
v -417.078857421864 1.63709046319127e-10 1330.61623384868
v -417.078857421864 256.397162559086 1305.98669880507
v -0.00122070311408606 111.404486777814 1078.00604694962
v -0.00122070311408606 1.52795109897852e-10 1088.70753986433
v -417.078857421864 1.63709046319127e-10 1330.61623384868
cstype bspline
deg 1
curv 0 5 1187 1188 1189 1190 1191
parm u 0 0 1 2 3 4
end
v -417.078857421864 1.60071067512035e-10 1355.44060832411
v -417.078857421864 261.887885215343 1330.28357380507
v -0.00122070311408606 116.89765084031 1102.30292194962
v -0.00122070311408606 1.45519152283669e-10 1113.53203635357
v -417.078857421864 1.60071067512035e-10 1355.44060832411
cstype bspline
deg 1
curv 0 5 1192 1193 1194 1195 1196
parm u 0 0 1 2 3 4
end
v -0.00122070311408606 1.52795109897852e-10 1088.70753986433
v -0.00122070311408606 111.404486777814 1078.00604694962
v 417.076416015636 256.397162559086 1305.98669880507
v 417.076416015636 1.63709046319127e-10 1330.61623384868
v -0.00122070311408606 1.52795109897852e-10 1088.70753986433
cstype bspline
deg 1
curv 0 5 1197 1198 1199 1200 1201
parm u 0 0 1 2 3 4
end
v -0.00122070311408606 1.45519152283669e-10 1113.53203635357
v -0.00122070311408606 116.89765084031 1102.30292194962
v 417.076416015636 261.887885215343 1330.28357380507
v 417.076416015636 1.60071067512035e-10 1355.44060832411
v -0.00122070311408606 1.45519152283669e-10 1113.53203635357
cstype bspline
deg 1
curv 0 5 1202 1203 1204 1205 1206
parm u 0 0 1 2 3 4
end
v 417.076416015636 1.63709046319127e-10 1330.61623384868
v 417.076416015636 256.397162559086 1305.98669880507
v 834.156494140636 111.404486777814 1078.00604694962
v 834.156494140636 1.52795109897852e-10 1088.70753986433
v 417.076416015636 1.63709046319127e-10 1330.61623384868
cstype bspline
deg 1
curv 0 5 1207 1208 1209 1210 1211
parm u 0 0 1 2 3 4
end
v 417.076416015636 1.60071067512035e-10 1355.44060832411
v 417.076416015636 261.887885215343 1330.28357380507
v 834.156494140636 116.89765084031 1102.30292194962
v 834.156494140636 1.45519152283669e-10 1113.53203635357
v 417.076416015636 1.60071067512035e-10 1355.44060832411
cstype bspline
deg 1
curv 0 5 1212 1213 1214 1215 1216
parm u 0 0 1 2 3 4
end
