# cross_brg_slab_0 (2024 compas_wood type_plates_name_cross_brg_slab_0.xml)
v 985.300625764139 -500 110.327022351745
v 989.062127372849 -500 246.284911823226
v 989.062127372849 500 246.284911823226
v 985.300625764139 500 110.327022351745
v 985.300625764139 -500 110.327022351745
cstype bspline
deg 1
curv 0 5 1 2 3 4 5
parm u 0 0 1 2 3 4
end
v 1025.19387974064 -500 105.915504858397
v 1029.07743333333 -500 246.284911823226
v 1029.07743333333 500 246.284911823226
v 1025.19387974064 500 105.915504858397
v 1025.19387974064 -500 105.915504858397
cstype bspline
deg 1
curv 0 5 6 7 8 9 10
parm u 0 0 1 2 3 4
end
v 220.004239293817 -500 152.984911823226
v 222.585539293817 -500 246.284911823226
v 222.585539293817 500 246.284911823226
v 220.004239293817 500 152.984911823226
v 220.004239293817 -500 152.984911823226
cstype bspline
deg 1
curv 0 5 11 12 13 14 15
parm u 0 0 1 2 3 4
end
v 179.988933333333 -500 152.984911823226
v 182.570233333333 -500 246.284911823226
v 182.570233333333 500 246.284911823226
v 179.988933333333 500 152.984911823226
v 179.988933333333 -500 152.984911823226
cstype bspline
deg 1
curv 0 5 16 17 18 19 20
parm u 0 0 1 2 3 4
end
v 0 -500 286.284911823226
v 1221.1816 -500 286.284911823226
v 1221.1816 500 286.284911823226
v 0 500 286.284911823226
v 0 -500 286.284911823226
cstype bspline
deg 1
curv 0 5 21 22 23 24 25
parm u 0 0 1 2 3 4
end
v 0 -500 246.284911823226
v 1216.75493333333 -500 246.284911823226
v 1216.75493333333 500 246.284911823226
v 0 500 246.284911823226
v 0 -500 246.284911823226
cstype bspline
deg 1
curv 0 5 26 27 28 29 30
parm u 0 0 1 2 3 4
end
v -217.591103522244 -500 152.984911823226
v -225.335003522244 -500 246.284911823226
v -225.335003522244 500 246.284911823226
v -217.591103522244 500 152.984911823226
v -217.591103522244 -500 152.984911823226
cstype bspline
deg 1
curv 0 5 31 32 33 34 35
parm u 0 0 1 2 3 4
end
v -177.45356 -500 152.984911823226
v -185.19746 -500 246.284911823226
v -185.19746 500 246.284911823226
v -177.45356 500 152.984911823226
v -177.45356 -500 152.984911823226
cstype bspline
deg 1
curv 0 5 36 37 38 39 40
parm u 0 0 1 2 3 4
end
v -981.602501158257 -500 110.735972230866
v -992.853063144423 -500 246.284911823226
v -992.853063144423 500 246.284911823226
v -981.602501158257 500 110.735972230866
v -981.602501158257 -500 110.735972230866
cstype bspline
deg 1
curv 0 5 41 42 43 44 45
parm u 0 0 1 2 3 4
end
v -1021.37499709328 -500 106.337808529433
v -1032.99060666667 -500 246.284911823226
v -1032.99060666667 500 246.284911823226
v -1021.37499709328 500 106.337808529433
v -1021.37499709328 -500 106.337808529433
cstype bspline
deg 1
curv 0 5 46 47 48 49 50
parm u 0 0 1 2 3 4
end
v -1221.1816 -500 286.284911823226
v 0 -500 286.284911823226
v 0 500 286.284911823226
v -1221.1816 500 286.284911823226
v -1221.1816 -500 286.284911823226
cstype bspline
deg 1
curv 0 5 51 52 53 54 55
parm u 0 0 1 2 3 4
end
v -1216.75493333333 -500 246.284911823226
v 0 -500 246.284911823226
v 0 500 246.284911823226
v -1216.75493333333 500 246.284911823226
v -1216.75493333333 -500 246.284911823226
cstype bspline
deg 1
curv 0 5 56 57 58 59 60
parm u 0 0 1 2 3 4
end
v 2192.7322356041 -500 -66.7732747949541
v 2236.03861808628 -500 246.284911823226
v 2236.03861808628 500 246.284911823226
v 2192.7322356041 500 -66.7732747949541
v 2192.7322356041 -500 -66.7732747949541
cstype bspline
deg 1
curv 0 5 61 62 63 64 65
parm u 0 0 1 2 3 4
end
v 2231.9143497093 -500 -75.439258952939
v 2276.41952666667 -500 246.284911823226
v 2276.41952666667 500 246.284911823226
v 2231.9143497093 500 -75.439258952939
v 2231.9143497093 -500 -75.439258952939
cstype bspline
deg 1
curv 0 5 66 67 68 69 70
parm u 0 0 1 2 3 4
end
v 1420.39693257726 -500 62.2127479451543
v 1445.86024858039 -500 246.284911823226
v 1445.86024858039 500 246.284911823226
v 1420.39693257726 500 62.2127479451543
v 1420.39693257726 -500 62.2127479451543
cstype bspline
deg 1
curv 0 5 71 72 73 74 75
parm u 0 0 1 2 3 4
end
v 1380.62443664223 -500 66.6109116465868
v 1405.47934 -500 246.284911823226
v 1405.47934 500 246.284911823226
v 1380.62443664223 500 66.6109116465868
v 1380.62443664223 -500 66.6109116465868
cstype bspline
deg 1
curv 0 5 76 77 78 79 80
parm u 0 0 1 2 3 4
end
v 1221.1816 -500 286.284911823226
v 2486.4528 -500 286.284911823226
v 2486.4528 500 286.284911823226
v 1221.1816 500 286.284911823226
v 1221.1816 -500 286.284911823226
cstype bspline
deg 1
curv 0 5 81 82 83 84 85
parm u 0 0 1 2 3 4
end
v 1216.75493333333 -500 246.284911823226
v 2477.59946666667 -500 246.284911823226
v 2477.59946666667 500 246.284911823226
v 1216.75493333333 500 246.284911823226
v 1216.75493333333 -500 246.284911823226
cstype bspline
deg 1
curv 0 5 86 87 88 89 90
parm u 0 0 1 2 3 4
end
v -1415.69014335996 -500 62.7332390282295
v -1451.23798399125 -500 246.284911823226
v -1451.23798399125 500 246.284911823226
v -1415.69014335996 500 62.7332390282295
v -1415.69014335996 -500 62.7332390282295
cstype bspline
deg 1
curv 0 5 91 92 93 94 95
parm u 0 0 1 2 3 4
end
v -1375.80118460243 -500 67.1442815431848
v -1410.49475333333 -500 246.284911823226
v -1410.49475333333 500 246.284911823226
v -1375.80118460243 500 67.1442815431848
v -1375.80118460243 -500 67.1442815431848
cstype bspline
deg 1
curv 0 5 96 97 98 99 100
parm u 0 0 1 2 3 4
end
v -2184.28254481469 -500 -64.9044402975542
v -2244.54954934208 -500 246.284911823226
v -2244.54954934208 500 246.284911823226
v -2184.28254481469 500 -64.9044402975541
v -2184.28254481469 -500 -64.9044402975542
cstype bspline
deg 1
curv 0 5 101 102 103 104 105
parm u 0 0 1 2 3 4
end
v -2223.35227693592 -500 -73.5455687142138
v -2285.29278 -500 246.284911823226
v -2285.29278 500 246.284911823226
v -2223.35227693592 500 -73.5455687142139
v -2223.35227693592 -500 -73.5455687142138
cstype bspline
deg 1
curv 0 5 106 107 108 109 110
parm u 0 0 1 2 3 4
end
v -2486.4528 -500 286.284911823226
v -1221.1816 -500 286.284911823226
v -1221.1816 500 286.284911823226
v -2486.4528 500 286.284911823226
v -2486.4528 -500 286.284911823226
cstype bspline
deg 1
curv 0 5 111 112 113 114 115
parm u 0 0 1 2 3 4
end
v -2477.59946666667 -500 246.284911823226
v -1216.75493333333 -500 246.284911823226
v -1216.75493333333 500 246.284911823226
v -2477.59946666667 500 246.284911823226
v -2477.59946666667 -500 246.284911823226
cstype bspline
deg 1
curv 0 5 116 117 118 119 120
parm u 0 0 1 2 3 4
end
v 2821.48073380798 -500 -205.834799401872
v 2934.05854190303 -500 246.284911823226
v 2934.05854190303 500 246.284911823226
v 2821.48073380798 500 -205.834799401872
v 2821.48073380798 -500 -205.834799401872
cstype bspline
deg 1
curv 0 5 121 122 123 124 125
parm u 0 0 1 2 3 4
end
v 2860.5504659292 -500 -214.475927818531
v 2975.279915 -500 246.284911823226
v 2975.279915 500 246.284911823226
v 2860.5504659292 500 -214.475927818531
v 2860.5504659292 -500 -214.475927818531
cstype bspline
deg 1
curv 0 5 126 127 128 129 130
parm u 0 0 1 2 3 4
end
v 2514.944584769 -500 -138.037604888859
v 2610.64089143031 -500 246.284911823226
v 2610.64089143031 500 246.284911823226
v 2514.944584769 500 -138.037604888859
v 2514.944584769 -500 -138.037604888859
cstype bspline
deg 1
curv 0 5 131 132 133 134 135
parm u 0 0 1 2 3 4
end
v 2475.87485264777 -500 -129.396476472199
v 2569.41951833333 -500 246.284911823226
v 2569.41951833333 500 246.284911823226
v 2475.87485264777 500 -129.396476472199
v 2475.87485264777 -500 -129.396476472199
cstype bspline
deg 1
curv 0 5 136 137 138 139 140
parm u 0 0 1 2 3 4
end
v 2486.4528 -500 286.284911823226
v 3000 -500 286.284911823226
v 3000 500 286.284911823226
v 2486.4528 500 286.284911823226
v 2486.4528 -500 286.284911823226
cstype bspline
deg 1
curv 0 5 141 142 143 144 145
parm u 0 0 1 2 3 4
end
v 2477.59946666667 -500 246.284911823226
v 3000 -500 246.284911823226
v 3000 500 246.284911823226
v 2477.59946666667 500 246.284911823226
v 2477.59946666667 -500 246.284911823226
cstype bspline
deg 1
curv 0 5 146 147 148 149 150
parm u 0 0 1 2 3 4
end
v -2524.98238929401 -500 -140.257685580806
v -2599.84280565792 -500 246.284911823226
v -2599.84280565792 500 246.284911823226
v -2524.98238929401 500 -140.257685580806
v -2524.98238929401 -500 -140.257685580806
cstype bspline
deg 1
curv 0 5 151 152 153 154 155
parm u 0 0 1 2 3 4
end
v -2485.91265717278 -500 -131.616557164147
v -2559.099575 -500 246.284911823226
v -2559.099575 500 246.284911823226
v -2485.91265717278 500 -131.616557164147
v -2485.91265717278 -500 -131.616557164147
cstype bspline
deg 1
curv 0 5 156 157 158 159 160
parm u 0 0 1 2 3 4
end
v -2833.25836488355 -500 -208.439680905853
v -2921.32336100875 -500 246.284911823226
v -2921.32336100875 500 246.284911823226
v -2833.25836488355 500 -208.439680905853
v -2833.25836488355 -500 -208.439680905853
cstype bspline
deg 1
curv 0 5 161 162 163 164 165
parm u 0 0 1 2 3 4
end
v -2872.32809700478 -500 -217.080809322512
v -2962.06659166667 -500 246.284911823226
v -2962.06659166667 500 246.284911823226
v -2872.32809700478 500 -217.080809322512
v -2872.32809700478 -500 -217.080809322512
cstype bspline
deg 1
curv 0 5 166 167 168 169 170
parm u 0 0 1 2 3 4
end
v -3000 -500 286.284911823226
v -2486.4528 -500 286.284911823226
v -2486.4528 500 286.284911823226
v -3000 500 286.284911823226
v -3000 -500 286.284911823226
cstype bspline
deg 1
curv 0 5 171 172 173 174 175
parm u 0 0 1 2 3 4
end
v -3000 -500 246.284911823226
v -2477.59946666667 -500 246.284911823226
v -2477.59946666667 500 246.284911823226
v -3000 500 246.284911823226
v -3000 -500 246.284911823226
cstype bspline
deg 1
curv 0 5 176 177 178 179 180
parm u 0 0 1 2 3 4
end
v -600.459266666667 -360 152.984911823226
v -605.621866666667 -360 246.284911823226
v 605.621866666667 -360 246.284911823226
v 600.459266666667 -360 152.984911823226
v -600.459266666667 -360 152.984911823226
cstype bspline
deg 1
curv 0 5 181 182 183 184 185
parm u 0 0 1 2 3 4
end
v -600.459266666667 -400 152.984911823226
v -605.621866666667 -400 246.284911823226
v 605.621866666667 -400 246.284911823226
v 600.459266666667 -400 152.984911823226
v -600.459266666667 -400 152.984911823226
cstype bspline
deg 1
curv 0 5 186 187 188 189 190
parm u 0 0 1 2 3 4
end
v -600.459266666667 390 152.984911823226
v -605.621866666667 390 246.284911823226
v 605.621866666667 390 246.284911823226
v 600.459266666667 390 152.984911823226
v -600.459266666667 390 152.984911823226
cstype bspline
deg 1
curv 0 5 191 192 193 194 195
parm u 0 0 1 2 3 4
end
v -600.459266666667 350 152.984911823226
v -605.621866666667 350 246.284911823226
v 605.621866666667 350 246.284911823226
v 600.459266666667 350 152.984911823226
v -600.459266666667 350 152.984911823226
cstype bspline
deg 1
curv 0 5 196 197 198 199 200
parm u 0 0 1 2 3 4
end
v -598.245933333333 -500 112.984911823226
v 598.245933333333 -500 112.984911823226
v 598.245933333333 500 112.984911823226
v -598.245933333333 500 112.984911823226
v -598.245933333333 -500 112.984911823226
cstype bspline
deg 1
curv 0 5 201 202 203 204 205
parm u 0 0 1 2 3 4
end
v -600.459266666667 -500 152.984911823226
v 600.459266666667 -500 152.984911823226
v 600.459266666667 500 152.984911823226
v -600.459266666667 500 152.984911823226
v -600.459266666667 -500 152.984911823226
cstype bspline
deg 1
curv 0 5 206 207 208 209 210
parm u 0 0 1 2 3 4
end
v 600.453714177461 -360 152.884565632763
v 605.621866666667 -360 246.284911823226
v 1838.9104 -360 246.284911823226
v 1801.36114253238 -360 20.0845656327631
v 600.453714177461 -360 152.884565632763
cstype bspline
deg 1
curv 0 5 211 212 213 214 215
parm u 0 0 1 2 3 4
end
v 600.453714177461 -400 152.884565632763
v 605.621866666667 -400 246.284911823226
v 1838.9104 -400 246.284911823226
v 1801.36114253238 -400 20.0845656327631
v 600.453714177461 -400 152.884565632763
cstype bspline
deg 1
curv 0 5 216 217 218 219 220
parm u 0 0 1 2 3 4
end
v 600.453714177461 390 152.884565632763
v 605.621866666667 390 246.284911823226
v 1838.9104 390 246.284911823226
v 1801.36114253238 390 20.0845656327631
v 600.453714177461 390 152.884565632763
cstype bspline
deg 1
curv 0 5 221 222 223 224 225
parm u 0 0 1 2 3 4
end
v 600.453714177461 350 152.884565632763
v 605.621866666667 350 246.284911823226
v 1838.9104 350 246.284911823226
v 1801.36114253238 350 20.0845656327631
v 600.453714177461 350 152.884565632763
cstype bspline
deg 1
curv 0 5 226 227 228 229 230
parm u 0 0 1 2 3 4
end
v 598.240431886703 -500 112.885488088942
v 1794.80108841785 -500 -19.4338326475546
v 1794.80108841785 500 -19.4338326475546
v 598.240431886703 500 112.885488088942
v 598.240431886703 -500 112.885488088942
cstype bspline
deg 1
curv 0 5 231 232 233 234 235
parm u 0 0 1 2 3 4
end
v 600.453714177461 -500 152.884565632763
v 1801.36114253238 -500 20.0845656327632
v 1801.36114253238 500 20.0845656327632
v 600.453714177461 500 152.884565632763
v 600.453714177461 -500 152.884565632763
cstype bspline
deg 1
curv 0 5 236 237 238 239 240
parm u 0 0 1 2 3 4
end
v -1801.36114253238 -360 20.0845656327633
v -1838.9104 -360 246.284911823226
v -605.621866666667 -360 246.284911823226
v -600.453714177461 -360 152.884565632763
v -1801.36114253238 -360 20.0845656327633
cstype bspline
deg 1
curv 0 5 241 242 243 244 245
parm u 0 0 1 2 3 4
end
v -1801.36114253238 -400 20.0845656327633
v -1838.9104 -400 246.284911823226
v -605.621866666667 -400 246.284911823226
v -600.453714177461 -400 152.884565632763
v -1801.36114253238 -400 20.0845656327633
cstype bspline
deg 1
curv 0 5 246 247 248 249 250
parm u 0 0 1 2 3 4
end
v -1801.36114253238 390 20.0845656327633
v -1838.9104 390 246.284911823226
v -605.621866666667 390 246.284911823226
v -600.453714177461 390 152.884565632763
v -1801.36114253238 390 20.0845656327633
cstype bspline
deg 1
curv 0 5 251 252 253 254 255
parm u 0 0 1 2 3 4
end
v -1801.36114253238 350 20.0845656327633
v -1838.9104 350 246.284911823226
v -605.621866666667 350 246.284911823226
v -600.453714177461 350 152.884565632763
v -1801.36114253238 350 20.0845656327633
cstype bspline
deg 1
curv 0 5 256 257 258 259 260
parm u 0 0 1 2 3 4
end
v -1794.80108841785 -500 -19.4338326475546
v -598.240431886703 -500 112.885488088942
v -598.240431886703 500 112.885488088942
v -1794.80108841785 500 -19.4338326475546
v -1794.80108841785 -500 -19.4338326475546
cstype bspline
deg 1
curv 0 5 261 262 263 264 265
parm u 0 0 1 2 3 4
end
v -1801.36114253238 -500 20.0845656327633
v -600.453714177461 -500 152.884565632763
v -600.453714177461 500 152.884565632763
v -1801.36114253238 500 20.0845656327633
v -1801.36114253238 -500 20.0845656327633
cstype bspline
deg 1
curv 0 5 266 267 268 269 270
parm u 0 0 1 2 3 4
end
v 1801.31350057099 -360 19.7975658653511
v 1838.9104 -360 246.284911823226
v 3000 -360 246.284911823226
v 3000 -360 -245.318251687305
v 1801.31350057099 -360 19.7975658653511
cstype bspline
deg 1
curv 0 5 271 272 273 274 275
parm u 0 0 1 2 3 4
end
v 1801.31350057099 -400 19.7975658653511
v 1838.9104 -400 246.284911823226
v 3000 -400 246.284911823226
v 3000 -400 -245.318251687305
v 1801.31350057099 -400 19.7975658653511
cstype bspline
deg 1
curv 0 5 276 277 278 279 280
parm u 0 0 1 2 3 4
end
v 1801.31350057099 390 19.7975658653511
v 1838.9104 390 246.284911823226
v 3000 390 246.284911823226
v 3000 390 -245.318251687305
v 1801.31350057099 390 19.7975658653511
cstype bspline
deg 1
curv 0 5 281 282 283 284 285
parm u 0 0 1 2 3 4
end
v 1801.31350057099 350 19.7975658653511
v 1838.9104 350 246.284911823226
v 3000 350 246.284911823226
v 3000 350 -245.318251687305
v 1801.31350057099 350 19.7975658653511
cstype bspline
deg 1
curv 0 5 286 287 288 289 290
parm u 0 0 1 2 3 4
end
v 1794.7538688617 -500 -19.7182878050906
v 3000 -500 -286.284911823226
v 3000 500 -286.284911823226
v 1794.7538688617 500 -19.7182878050905
v 1794.7538688617 -500 -19.7182878050906
cstype bspline
deg 1
curv 0 5 291 292 293 294 295
parm u 0 0 1 2 3 4
end
v 1801.31350057099 -500 19.7975658653511
v 3000 -500 -245.318251687305
v 3000 500 -245.318251687305
v 1801.31350057099 500 19.7975658653512
v 1801.31350057099 -500 19.7975658653511
cstype bspline
deg 1
curv 0 5 296 297 298 299 300
parm u 0 0 1 2 3 4
end
v -3000 -360 -245.318251687305
v -3000 -360 246.284911823226
v -1838.9104 -360 246.284911823226
v -1801.31350057099 -360 19.7975658653513
v -3000 -360 -245.318251687305
cstype bspline
deg 1
curv 0 5 301 302 303 304 305
parm u 0 0 1 2 3 4
end
v -3000 -400 -245.318251687305
v -3000 -400 246.284911823226
v -1838.9104 -400 246.284911823226
v -1801.31350057099 -400 19.7975658653513
v -3000 -400 -245.318251687305
cstype bspline
deg 1
curv 0 5 306 307 308 309 310
parm u 0 0 1 2 3 4
end
v -3000 390 -245.318251687305
v -3000 390 246.284911823226
v -1838.9104 390 246.284911823226
v -1801.31350057099 390 19.7975658653513
v -3000 390 -245.318251687305
cstype bspline
deg 1
curv 0 5 311 312 313 314 315
parm u 0 0 1 2 3 4
end
v -3000 350 -245.318251687305
v -3000 350 246.284911823226
v -1838.9104 350 246.284911823226
v -1801.31350057099 350 19.7975658653513
v -3000 350 -245.318251687305
cstype bspline
deg 1
curv 0 5 316 317 318 319 320
parm u 0 0 1 2 3 4
end
v -3000 -500 -286.284911823226
v -1794.7538688617 -500 -19.7182878050905
v -1794.7538688617 500 -19.7182878050905
v -3000 500 -286.284911823226
v -3000 -500 -286.284911823226
cstype bspline
deg 1
curv 0 5 321 322 323 324 325
parm u 0 0 1 2 3 4
end
v -3000 -500 -245.318251687305
v -1801.31350057099 -500 19.7975658653512
v -1801.31350057099 500 19.7975658653512
v -3000 500 -245.318251687305
v -3000 -500 -245.318251687305
cstype bspline
deg 1
curv 0 5 326 327 328 329 330
parm u 0 0 1 2 3 4
end
