# type_plates_name_hex_block_rossiniere.xml
v -421.21214509819055 -2308.960126089161 90.24670865647408
v 1018.6012168838827 -1486.8499394313167 224.8475127572503
v 742.6282231005979 -1003.595677721428 278.0196699991307
v -977.4929788112264 -1351.6974426367995 195.35140510434508
v -421.21214509819055 -2308.960126089161 90.24670865647408
cstype bspline
deg 1
curv 0 5 1 2 3 4 5
parm u 0 0 1 2 3 4
end
v -421.5483585561344 -2343.7568987326104 337.9082792358366
v 1027.098064890631 -1516.603176571316 473.3348411794088
v 748.3125035424844 -1028.42384866769 527.0489003036513
v -982.379029041181 -1378.6647365463255 443.8726299874837
v -421.5483585561344 -2343.7568987326104 337.9082792358366
cstype bspline
deg 1
curv 0 5 6 7 8 9 10
parm u 0 0 1 2 3 4
end
v 1016.6161130402628 -1483.3500924643045 224.83067459066845
v 2440.7101197553043 -648.2721363627785 91.11771300535861
v 1896.2344688360308 302.3042060341091 195.0576997585339
v 744.1356069308265 -1006.1863719600121 276.9073832940894
v 1016.6161130402628 -1483.3500924643045 224.83067459066845
cstype bspline
deg 1
curv 0 5 11 12 13 14 15
parm u 0 0 1 2 3 4
end
v 1031.247766783919 -1523.9193287229657 473.3700414819535
v 2480.4399181879135 -674.1240103757144 337.3005309322971
v 1919.9798902308135 304.35876022316245 444.2919230784673
v 747.588300443879 -1027.1791829867634 527.5832826802989
v 1031.247766783919 -1523.9193287229657 473.3700414819535
cstype bspline
deg 1
curv 0 5 16 17 18 19 20
parm u 0 0 1 2 3 4
end
v -975.9169692839164 -1354.1773704659495 222.22756740255903
v 747.718228501602 -996.7134911912551 222.22756833555408
v 1898.2042984073346 301.8298143797864 222.22756796158112
v 1352.7747417192513 1246.5416787534705 222.22756667160775
v -367.98624976104287 889.2327988080887 222.22756574058323
v -1521.05394472015 -409.972496861567 222.22756611327776
v -975.9169692839164 -1354.1773704659495 222.22756740255903
cstype bspline
deg 1
curv 0 7 21 22 23 24 25 26 27
parm u 0 0 1 2 3 4 5 6
end
v -987.8005820867661 -1382.7503194139372 472.22756742067764
v 746.3227161760766 -1023.111317997583 472.2275683593499
v 1924.0715574646765 306.2032330466319 472.22756797651505
v 1364.2836429855797 1275.7845068459035 472.2275666525832
v -369.92476959649866 915.6833257059793 472.227565714283
v -1548.2650140481064 -411.99751418304174 472.22756609514613
v -987.8005820867661 -1382.7503194139372 472.22756742067764
cstype bspline
deg 1
curv 0 7 28 29 30 31 32 33 34
parm u 0 0 1 2 3 4 5 6
end
v -1519.0522090249692 -410.8179955372952 195.15440685362375
v -366.56250240596773 897.1189658193447 277.0733456951838
v -639.9095661290274 1375.8943431613127 224.8271043910737
v -2064.1584756886673 540.7255539670628 91.09960108690956
v -1519.0522090249692 -410.8179955372952 195.15440685362375
cstype bspline
deg 1
curv 0 5 35 36 37 38 39
parm u 0 0 1 2 3 4
end
v -1543.8602427106484 -410.25002246914056 444.1538613163626
v -371.24172466166146 920.5307146767781 527.5035555590479
v -654.4238128656058 1416.5324250653441 473.37749504173144
v -2103.5607882783024 566.7694622794073 337.3131678254971
v -1543.8602427106484 -410.25002246914056 444.1538613163626
cstype bspline
deg 1
curv 0 5 40 41 42 43 44
parm u 0 0 1 2 3 4
end
v -365.7239467224106 895.701018171615 278.0728139150933
v 1354.5458719207568 1244.025017223983 195.37373537354043
v 798.1383322324047 2201.6303515467425 90.22973004681617
v -641.8942609044248 1379.3950089445439 224.85102345255564
v -365.7239467224106 895.701018171615 278.0728139150933
cstype bspline
deg 1
curv 0 5 45 46 47 48 49
parm u 0 0 1 2 3 4
end
v -371.6445978548881 921.2119490172246 527.0233707044719
v 1358.683544700474 1271.572579515945 443.8407551559935
v 798.1662134692459 2236.25107159393 337.92012494004155
v -650.2749663860305 1409.2145618416314 473.3274941784716
v -371.6445978548881 921.2119490172246 527.0233707044719
cstype bspline
deg 1
curv 0 5 50 51 52 53 54
parm u 0 0 1 2 3 4
end
