# type_plates_name_side_to_side_edge_outofplane_inplane_and_top_to_top_hexboxes.xml
v -209.627688231672 -221.948731193959 826.906544628252
v 199.730718113028 -452.294436135717 1005.60503395097
v 297.281232821112 -231.158697659228 1000.25932388033
v -114.717288034555 -6.20654670683325 821.599660320262
v -209.627688231672 -221.948731193959 826.906544628252
cstype bspline
deg 1
curv 0 5 1 2 3 4 5
parm u 0 0 1 2 3 4
end
v -213.284674389057 -166.192874566401 869.483205175001
v 196.140620841038 -396.574712435402 1048.21489413753
v 255.63279678828 -261.713384124545 1044.95610277635
v -156.350343818774 -36.7700259966768 866.303029535129
v -213.284674389057 -166.192874566401 869.483205175001
cstype bspline
deg 1
curv 0 5 6 7 8 9 10
parm u 0 0 1 2 3 4
end
v 499.780510740823 43.479977836032 -798.031188725921
v 448.611071226921 -93.0581198157543 -789.638606052223
v -133.934565623007 61.3989174566832 803.319607523059
v -626.075930705117 460.445787014422 2384.3896902808
v -576.093377903459 597.517097475609 2379.43265562114
v -12.5100051646737 389.888187630686 787.330604904288
v 499.780510740823 43.479977836032 -798.031188725921
cstype bspline
deg 1
curv 0 7 11 12 13 14 15 16 17
parm u 0 0 1 2 3 4 5 6
end
v 455.238267189822 66.1303661735656 -808.406908347984
v 404.347411646513 -69.6674935420797 -800.061000526202
v -175.429680068146 84.0551741711643 785.325468160954
v -665.23262566227 481.20556170805 2358.88373004207
v -615.521343493894 617.533687617697 2353.95263058421
v -54.6145006088018 410.891112003879 769.413614725942
v 455.238267189822 66.1303661735656 -808.406908347984
cstype bspline
deg 1
curv 0 7 18 19 20 21 22 23 24
parm u 0 0 1 2 3 4 5 6
end
v 794.661375435554 -328.221192879437 -752.733862460353
v 359.688473699949 -98.3637704731191 -855.137425206419
v -234.504395390868 59.1811460140525 769.670973708529
v 172.91404994454 -163.271970730279 946.318896767343
v 794.661375435554 -328.221192879437 -752.733862460353
cstype bspline
deg 1
curv 0 5 25 26 27 28 29
parm u 0 0 1 2 3 4
end
v 795.183115418385 -276.200693390103 -708.049992079107
v 360.083498554192 -46.2768601842399 -810.483591408191
v -216.925522677648 106.713365651403 767.335037740646
v 190.621579408556 -115.81201226765 944.039103889924
v 795.183115418385 -276.200693390103 -708.049992079107
cstype bspline
deg 1
curv 0 5 30 31 32 33 34
parm u 0 0 1 2 3 4
end
v 335.350837595385 272.296379263249 925.589916287671
v -79.2585457241416 479.110835448946 749.179002459342
v 443.602534855844 125.554195874773 -868.896451288971
v 881.978751357867 -97.3696286152353 -766.781676432548
v 335.350837595385 272.296379263249 925.589916287671
cstype bspline
deg 1
curv 0 5 35 36 37 38 39
parm u 0 0 1 2 3 4
end
v 317.758062765673 225.144033632088 927.855014332357
v -96.720721424912 431.894048336988 751.49980339798
v 410.695064785622 88.7807582103524 -818.779239483449
v 848.941395576846 -134.075683121726 -716.699892795088
v 317.758062765673 225.144033632088 927.855014332357
cstype bspline
deg 1
curv 0 5 40 41 42 43 44
parm u 0 0 1 2 3 4
end
v 881.978757495618 -97.3696316259593 -766.781687384576
v 443.602526424761 125.554196179075 -868.896435194742
v 359.688483314448 -98.3637764444629 -855.137398222927
v 794.66137515441 -328.221191221293 -752.733836105113
v 881.978757495618 -97.3696316259593 -766.781687384576
cstype bspline
deg 1
curv 0 5 45 46 47 48 49
parm u 0 0 1 2 3 4
end
v 848.941404008233 -134.075688312523 -716.699898634674
v 410.695057180558 88.7807710736743 -818.77924811649
v 360.083504437302 -46.2768608583137 -810.483590124473
v 795.183104352189 -276.200689483669 -708.049998645914
v 848.941404008233 -134.075688312523 -716.699898634674
cstype bspline
deg 1
curv 0 5 50 51 52 53 54
parm u 0 0 1 2 3 4
end
v 887.739742513648 -474.904787921932 -2521.17322376831
v 823.127926650894 -620.226082445963 -2515.60994401079
v 453.495604163897 -617.076667586927 -779.210902637326
v 186.216046153026 -389.479000706207 936.618788462908
v 245.50929500863 -255.201673913924 933.393976124688
v 602.36694318114 -283.192878409531 -793.96115181611
v 887.739742513648 -474.904787921932 -2521.17322376831
cstype bspline
deg 1
curv 0 7 55 56 57 58 59 60 61
parm u 0 0 1 2 3 4 5 6
end
v 843.047601261066 -451.100098894149 -2523.5587010048
v 778.739252926935 -595.740723153282 -2518.02313140682
v 410.673826155734 -592.604984624128 -788.985305353265
v 144.695048541812 -366.115712577079 918.493085072734
v 203.742670426362 -232.396975370093 915.277894171901
v 558.972900920263 -260.259285125194 -804.196991190672
v 843.047601261066 -451.100098894149 -2523.5587010048
cstype bspline
deg 1
curv 0 7 62 63 64 65 66 67 68
parm u 0 0 1 2 3 4 5 6
end
v 579.101312413331 -310.513185660564 -2537.66008865352
v 516.723391222986 -451.213382425718 -2532.26962860971
v 158.930412496538 -448.741714330021 -846.448682590135
v -98.6281637857992 -229.198746380256 812.272669264762
v -41.1508751839806 -98.6821346147517 809.082290124528
v 303.53124335538 -125.26513747772 -864.437182307608
v 579.101312413331 -310.513185660564 -2537.66008865352
cstype bspline
deg 1
curv 0 7 69 70 71 72 73 74 75
parm u 0 0 1 2 3 4 5 6
end
v 534.409660774511 -286.709473169083 -2540.04918286124
v 472.333978329434 -426.728031299934 -2534.68309270857
v 116.104497551814 -424.267085433486 -856.225319119896
v -140.15723448219 -205.830565873151 794.143150201606
v -82.9252875680509 -75.8725661434819 790.966548281286
v 260.132810963925 -102.329591160073 -874.675001463564
v 534.409660774511 -286.709473169083 -2540.04918286124
cstype bspline
deg 1
curv 0 7 76 77 78 79 80 81 82
parm u 0 0 1 2 3 4 5 6
end
v 857.560545142548 -691.030766988812 -2561.21697698716
v 418.006111588495 -448.573737805264 -2585.1212415381
v 53.26415260043 -446.053220280974 -866.553441875996
v 476.258052150778 -687.782716960779 -769.995311730332
v 857.560545142548 -691.030766988812 -2561.21697698716
cstype bspline
deg 1
curv 0 5 83 84 85 86 87
parm u 0 0 1 2 3 4
end
v 867.517089030477 -644.71045280509 -2513.19671897579
v 427.946047686586 -402.24365709783 -2537.09993961758
v 73.2775932346826 -399.792487027211 -866.00191799803
v 496.317620651855 -641.547367351806 -769.436201425247
v 867.517089030477 -644.71045280509 -2513.19671897579
cstype bspline
deg 1
curv 0 5 88 89 90 91 92
parm u 0 0 1 2 3 4
end
v 199.672360566889 -452.260254934603 1005.57915209278
v -209.685537272354 -221.916503626027 826.881402132646
v -114.695076994791 -6.2163058742517 821.608690451408
v 297.298578218571 -231.171390660307 1000.26713984597
v 199.672360566889 -452.260254934603 1005.57915209278
cstype bspline
deg 1
curv 0 5 93 94 95 96 97
parm u 0 0 1 2 3 4
end
v 227.737302817941 -412.843263766375 954.744681792208
v -181.686513007043 -182.461424533838 776.013482085325
v -124.701174755419 -53.0629994192659 772.850880939681
v 287.277583683548 -278.008304294552 951.502489970311
v 227.737302817941 -412.843263766375 954.744681792208
cstype bspline
deg 1
curv 0 5 98 99 100 101 102
parm u 0 0 1 2 3 4
end
v 665.708978698354 -260.066896133865 -783.001900385779
v 236.635028910136 -33.3120263541769 -884.193052930737
v 518.194331616874 -222.587404403896 -2593.78033108085
v 960.980463498612 -458.43017771887 -2570.12287680309
v 665.708978698354 -260.066896133865 -783.001900385779
cstype bspline
deg 1
curv 0 5 103 104 105 106 107
parm u 0 0 1 2 3 4
end
v 645.762939387825 -306.125492380097 -783.728977961179
v 216.734145486919 -79.3950325273599 -884.908648195784
v 489.71947209685 -262.905759209691 -2542.43792167461
v 932.430662761008 -498.709477358781 -2518.78417440344
v 645.762939387825 -306.125492380097 -783.728977961179
cstype bspline
deg 1
curv 0 5 108 109 110 111 112
parm u 0 0 1 2 3 4
end
v 960.980464605862 -458.43017623412 -2570.12287412277
v 518.194337626962 -222.587414614254 -2593.78034407727
v 418.006108720854 -448.573734063411 -2585.12122576621
v 857.560544076799 -691.030770915972 -2561.2169898591
v 960.980464605862 -458.43017623412 -2570.12287412277
cstype bspline
deg 1
curv 0 5 113 114 115 116 117
parm u 0 0 1 2 3 4
end
v 932.430663550575 -498.709474339446 -2518.7841893135
v 489.719490362113 -262.905771345946 -2542.43793801384
v 427.946044382929 -402.243662705392 -2537.09992428725
v 867.517085877152 -644.710453056232 -2513.19672463654
v 932.430663550575 -498.709474339446 -2518.7841893135
cstype bspline
deg 1
curv 0 5 118 119 120 121 122
parm u 0 0 1 2 3 4
end
v 840.333495286177 -394.180179387704 -2576.54288988157
v 402.092531198355 -160.75830641774 -2600.01435104371
v 349.839121310863 -93.1479588492402 -857.456475665589
v 784.399411403832 -322.807131659976 -755.149585279188
v 840.333495286177 -394.180179387704 -2576.54288988157
cstype bspline
deg 1
curv 0 5 123 124 125 126 127
parm u 0 0 1 2 3 4
end
v 859.41796446165 -347.62744284029 -2574.3243306427
v 421.124996018369 -114.178225549189 -2597.79779895156
v 370.531982315156 -48.7153358226478 -910.596849842997
v 805.181638357972 -278.422366400435 -808.267796566066
v 859.41796446165 -347.62744284029 -2574.3243306427
cstype bspline
deg 1
curv 0 5 128 129 130 131 132
parm u 0 0 1 2 3 4
end
v -1023.72607034428 108.686028798453 2314.98637351356
v -653.23828080185 -106.00146822587 2566.60110295826
v 199.730718134266 -452.294440432144 1005.60502226305
v -209.627677863804 -221.948738930862 826.906540630821
v -1023.72607034428 108.686028798453 2314.98637351356
cstype bspline
deg 1
curv 0 5 133 134 135 136 137
parm u 0 0 1 2 3 4
end
v -1002.63074693725 154.389160757566 2312.3193836472
v -632.104613107671 -60.3198257754284 2563.96340680634
v 196.140624808577 -396.57471194665 1048.21491091246
v -213.284657087569 -166.192879940358 869.483191997536
v -1002.63074693725 154.389160757566 2312.3193836472
cstype bspline
deg 1
curv 0 5 138 139 140 141 142
parm u 0 0 1 2 3 4
end
v -114.717282494738 -6.20655122264725 821.599633844224
v 297.281252787378 -231.158699807722 1000.25930078195
v -465.687259825174 322.641112838761 2558.63923948002
v -845.335824659134 523.934083257633 2311.45709169942
v -114.717282494738 -6.20655122264725 821.599633844224
cstype bspline
deg 1
curv 0 5 143 144 145 146 147
parm u 0 0 1 2 3 4
end
v -156.350334337474 -36.7700251738261 866.303057328235
v 255.632832280931 -261.713392656819 1044.95612457796
v -486.810674615341 277.188961744496 2561.41215574958
v -866.41845421744 478.459464918684 2314.25636810067
v -156.350334337474 -36.7700251738261 866.303057328235
cstype bspline
deg 1
curv 0 5 148 149 150 151 152
parm u 0 0 1 2 3 4
end
v 804.415535522959 -111.433108945695 -727.06882465409
v 750.937254225124 -252.819825060453 -718.464549761809
v 149.145026482928 -93.1655273293018 926.057158061577
v -358.623273801501 318.645029271775 2558.60987539755
v -306.420941325958 460.610839232013 2553.70571951707
v 275.668219364276 246.140139396395 909.944124500767
v 804.415535522959 -111.433108945695 -727.06882465409
cstype bspline
deg 1
curv 0 7 153 154 155 156 157 158 159
parm u 0 0 1 2 3 4 5 6
end
v 759.89063314911 -88.7915026540777 -737.441383698781
v 706.692628801738 -229.438962605916 -728.882766081507
v 107.667718187357 -70.5180712736528 908.074517573216
v -397.763831551453 339.396957825464 2533.11536651021
v -345.83400690036 480.619628550287 2528.23545549891
v 233.577155899436 267.135248441156 892.036893432821
v 759.89063314911 -88.7915026540777 -737.441383698781
cstype bspline
deg 1
curv 0 7 160 161 162 163 164 165 166
parm u 0 0 1 2 3 4 5 6
end
v 172.914065335037 -163.271980555546 946.318878387331
v -234.504394843846 59.1811478308355 769.670950765958
v -736.474872918569 466.196785341821 2382.31794388692
v -351.680669601047 262.183104049427 2632.97026821324
v 172.914065335037 -163.271980555546 946.318878387331
cstype bspline
deg 1
curv 0 5 167 168 169 170 171
parm u 0 0 1 2 3 4
end
v 190.621579431833 -115.812011415506 944.039133680866
v -216.925541986191 106.713374540615 767.334992939278
v -704.389526518236 501.96630579363 2333.37847751859
v -319.483400242926 297.893061805098 2584.10354553605
v 190.621579431833 -115.812011415506 944.039133680866
cstype bspline
deg 1
curv 0 5 172 173 174 175 176
parm u 0 0 1 2 3 4
end
v -351.680664836837 262.183109757676 2632.97026509061
v -736.474843538623 466.196775986264 2382.31792833163
v -654.489028693824 691.030770915948 2374.1836353228
v -266.431157294305 494.022943299333 2624.96098787568
v -351.680664836837 262.183109757676 2632.97026509061
cstype bspline
deg 1
curv 0 5 177 178 179 180 181
parm u 0 0 1 2 3 4
end
v -319.483400506805 297.893062006129 2584.10356501439
v -704.389516458822 501.966307597859 2333.37847496765
v -654.948844254889 637.550290061483 2328.47271098562
v -267.008059728498 440.602046196864 2579.17534545717
v -319.483400506805 297.893062006129 2584.10356501439
cstype bspline
deg 1
curv 0 5 182 183 184 185 186
parm u 0 0 1 2 3 4
end
v -266.431156236652 494.022945430956 2624.96101666057
v -654.489019626088 691.03076052124 2374.1836330993
v -79.2585449578282 479.110836134281 749.178985974679
v 335.350838152195 272.296377242776 925.589920994352
v -266.431156236652 494.022945430956 2624.96101666057
cstype bspline
deg 1
curv 0 5 187 188 189 190 191
parm u 0 0 1 2 3 4
end
v -267.00805938442 440.602046801063 2579.17534915419
v -654.948846199716 637.550284535586 2328.47267906324
v -96.7207088608507 431.894038737822 751.499834777426
v 317.758046615691 225.144041294316 927.855058193351
v -267.00805938442 440.602046801063 2579.17534915419
cstype bspline
deg 1
curv 0 5 192 193 194 195 196
parm u 0 0 1 2 3 4
end
v 476.258057755301 -687.782721025678 -769.995327644719
v 53.2641539475353 -446.053222723918 -866.553388993301
v -209.685547833693 -221.916507211889 826.881421015727
v 199.672361722107 -452.26025699184 1005.579171863
v 476.258057755301 -687.782721025678 -769.995327644719
cstype bspline
deg 1
curv 0 5 197 198 199 200 201
parm u 0 0 1 2 3 4
end
v 496.317623717899 -641.547367063349 -769.436251367998
v 73.2775857346364 -399.792483380921 -866.001902366908
v -181.686536692949 -182.461423404922 776.013488794635
v 227.737301677214 -412.843264308471 954.744702182517
v 496.317623717899 -641.547367063349 -769.436251367998
cstype bspline
deg 1
curv 0 5 202 203 204 205 206
parm u 0 0 1 2 3 4
end
v 297.298580034678 -231.171388142538 1000.26712746947
v -114.695091635155 -6.21629896065497 821.608666132084
v 236.635004779743 -33.3120148287981 -884.193052656216
v 665.708987379217 -260.066902704106 -783.001879185131
v 297.298580034678 -231.171388142538 1000.26712746947
cstype bspline
deg 1
curv 0 5 207 208 209 210 211
parm u 0 0 1 2 3 4
end
v 287.27758301084 -278.008307163689 951.502519444786
v -124.701153706972 -53.0630020312528 772.850882486252
v 216.734123672794 -79.3950183001652 -884.908668351311
v 645.762934945899 -306.125490198901 -783.728961589702
v 287.27758301084 -278.008307163689 951.502519444786
cstype bspline
deg 1
curv 0 5 212 213 214 215 216
parm u 0 0 1 2 3 4
end
v 784.39941218648 -322.807127155866 -755.149607798182
v 349.83909898999 -93.1479526084186 -857.456493693935
v 440.813215529612 126.96532012038 -869.54413988519
v 878.60863812527 -95.6489320903656 -767.570261524671
v 784.39941218648 -322.807127155866 -755.149607798182
cstype bspline
deg 1
curv 0 5 217 218 219 220 221
parm u 0 0 1 2 3 4
end
v 805.181637467949 -278.422369093199 -808.267769675833
v 370.53197592873 -48.7153343769078 -910.596875616013
v 425.469970351816 84.204592680564 -917.899120962741
v 863.251708441982 -138.401859419804 -815.922800534555
v 805.181637467949 -278.422369093199 -808.267769675833
cstype bspline
deg 1
curv 0 5 222 223 224 225 226
parm u 0 0 1 2 3 4
end
v 878.608641385667 -95.6489263763251 -767.570290369777
v 440.813219728008 126.965331332807 -869.544119081784
v 578.935541376793 266.324706641317 -2630.55397800935
v 1023.72607034428 48.3930606027843 -2597.44468544962
v 878.608641385667 -95.6489263763251 -767.570290369777
cstype bspline
deg 1
curv 0 5 227 228 229 230 231
parm u 0 0 1 2 3 4
end
v 863.251704601663 -138.401861944894 -815.922781281894
v 425.469975487848 84.204583046796 -917.899119595285
v 559.986816559804 219.930171030101 -2632.97026821324
v 1004.72802235611 2.02392304547902 -2599.86591199753
v 863.251704601663 -138.401861944894 -815.922781281894
cstype bspline
deg 1
curv 0 5 232 233 234 235 236
parm u 0 0 1 2 3 4
end
v 514.194090085642 39.0903302317311 -897.23262794518
v 647.786864264011 173.881351364498 -2600.50670369762
v 509.185792385141 -160.67040779695 -2575.01836339435
v 458.654293334038 -95.2876008517906 -889.852229496513
v 514.194090085642 39.0903302317311 -897.23262794518
cstype bspline
deg 1
curv 0 5 237 238 239 240 241
parm u 0 0 1 2 3 4
end
v 469.830805643115 61.6479464152617 -907.564146289063
v 602.817380589638 195.825680055264 -2603.10309483089
v 464.895748981126 -137.088383839207 -2577.73935984835
v 414.592524704371 -72.0014674727117 -900.224803696253
v 469.830805643115 61.6479464152617 -907.564146289063
cstype bspline
deg 1
curv 0 5 242 243 244 245 246
parm u 0 0 1 2 3 4
end
v 958.18603417417 22.4028299558722 -2582.58469641756
v 814.495116947637 -323.232907223184 -2556.26026634961
v 761.132320331072 -255.143072350882 -818.638379382142
v 818.900386938813 -115.850102225804 -826.254094243603
v 958.18603417417 22.4028299558722 -2582.58469641756
cstype bspline
deg 1
curv 0 5 247 248 249 250 251
parm u 0 0 1 2 3 4
end
v 913.220697165809 44.3461872974167 -2585.18083486495
v 770.209468624096 -299.652838255317 -2558.98113446804
v 717.081784686518 -231.86279162338 -829.008984689626
v 774.548338622559 -93.297368322379 -836.585421991673
v 913.220697165809 44.3461872974167 -2585.18083486495
cstype bspline
deg 1
curv 0 5 252 253 254 255 256
parm u 0 0 1 2 3 4
end
v -925.702142888565 110.141114343131 2359.79300928656
v -787.472654668214 436.183097989977 2359.8887129489
v -72.8037237284288 -82.38428107242 902.555485887081
v -72.7949334559094 -82.3920894093499 902.53668792553
v -130.221180401674 -212.932137651624 905.744410309081
v -925.702142888565 110.141114343131 2359.79300928656
cstype bspline
deg 1
curv 0 6 257 258 259 260 261 262
parm u 0 0 1 2 3 4 5
end
v -964.083850395501 132.23192906182 2335.90481175649
v -826.420285823247 456.939940611524 2336.0000461336
v -114.576906539507 -59.5776407094545 884.429981273465
v -114.57227059653 -59.5815448293906 884.419975388337
v -171.753188485868 -189.562992175923 887.6138401265
v -964.083850395501 132.23192906182 2335.90481175649
cstype bspline
deg 1
curv 0 6 263 264 265 266 267 268
parm u 0 0 1 2 3 4 5
end
v -661.738054624006 -41.7827167932737 2524.07819952762
v -519.311020786472 293.267092577164 2524.36623882224
v 213.852295560556 -238.897950467117 1026.86528104148
v 213.862805460221 -238.907716020698 1026.84280165597
v 154.617427681309 -373.209477622682 1030.08794199679
v -661.738054624006 -41.7827167932737 2524.07819952762
cstype bspline
deg 1
curv 0 6 269 270 271 272 273 274
parm u 0 0 1 2 3 4 5
end
v -700.114755924407 -19.6948280190445 2500.19342166721
v -558.254638734281 314.021983205979 2500.48003661311
v 172.088612182815 -216.096193824716 1008.73981270951
v 172.093507381443 -216.10107777017 1008.7295386038
v 113.09472216828 -349.845217162621 1011.96147970834
v -700.114755924407 -19.6948280190445 2500.19342166721
cstype bspline
deg 1
curv 0 6 275 276 277 278 279 280
parm u 0 0 1 2 3 4 5
end
