# type_plates_name_hexbox_and_corner.xml
v 119.680523 390.349496 -130.886318
v 119.680523 390.349496 16.916421
v 59.840261 16.740537 16.916421
v 59.840261 16.740537 -130.886318
v 119.680523 390.349496 -130.886318
cstype bspline
deg 1
curv 0 5 1 2 3 4 5
parm u 0 0 1 2 3 4
end
v 105.898778 390.349501 -130.886318
v 105.898778 390.349501 16.916421
v 48.238134 30.348848 16.916421
v 48.238134 30.348848 -130.886318
v 105.898778 390.349501 -130.886318
cstype bspline
deg 1
curv 0 5 6 7 8 9 10
parm u 0 0 1 2 3 4
end
v 59.840262 763.958462 -130.886316
v 59.840262 763.958462 16.916422
v 119.680524 390.349502 16.916422
v 119.680524 390.349502 -130.886316
v 59.840262 763.958462 -130.886316
cstype bspline
deg 1
curv 0 5 11 12 13 14 15
parm u 0 0 1 2 3 4
end
v 48.238133 750.350166 -130.886316
v 48.238133 750.350166 16.916422
v 105.898779 390.349498 16.916422
v 105.898779 390.349498 -130.886316
v 48.238133 750.350166 -130.886316
cstype bspline
deg 1
curv 0 5 16 17 18 19 20
parm u 0 0 1 2 3 4
end
v -59.840261 763.958461 -130.886313
v -59.840261 763.958461 16.916421
v 59.840262 763.958461 16.916421
v 59.840262 763.958461 -130.886313
v -59.840261 763.958461 -130.886313
cstype bspline
deg 1
curv 0 5 21 22 23 24 25
parm u 0 0 1 2 3 4
end
v -48.238132 750.350163 -130.886313
v -48.238132 750.350163 16.916421
v 48.238135 750.350163 16.916421
v 48.238135 750.350163 -130.886313
v -48.238132 750.350163 -130.886313
cstype bspline
deg 1
curv 0 5 26 27 28 29 30
parm u 0 0 1 2 3 4
end
v -119.680522 390.349507 -130.886315
v -119.680522 390.349507 16.916423
v -59.840261 763.958466 16.916423
v -59.840261 763.958466 -130.886315
v -119.680522 390.349507 -130.886315
cstype bspline
deg 1
curv 0 5 31 32 33 34 35
parm u 0 0 1 2 3 4
end
v -105.898777 390.349502 -130.886315
v -105.898777 390.349502 16.916423
v -48.238131 750.35017 16.916423
v -48.238131 750.35017 -130.886315
v -105.898777 390.349502 -130.886315
cstype bspline
deg 1
curv 0 5 36 37 38 39 40
parm u 0 0 1 2 3 4
end
v -59.840262 16.740549 -130.886316
v -59.840262 16.740549 16.916422
v -119.680524 390.349508 16.916422
v -119.680524 390.349508 -130.886316
v -59.840262 16.740549 -130.886316
cstype bspline
deg 1
curv 0 5 41 42 43 44 45
parm u 0 0 1 2 3 4
end
v -48.238132 30.348845 -130.886316
v -48.238132 30.348845 16.916422
v -105.898777 390.349498 16.916422
v -105.898777 390.349498 -130.886316
v -48.238132 30.348845 -130.886316
cstype bspline
deg 1
curv 0 5 46 47 48 49 50
parm u 0 0 1 2 3 4
end
v 59.840261 16.740543 -130.886313
v 59.840261 16.740543 16.916421
v -59.840259 16.740543 16.916421
v -59.840259 16.740543 -130.886313
v 59.840261 16.740543 -130.886313
cstype bspline
deg 1
curv 0 5 51 52 53 54 55
parm u 0 0 1 2 3 4
end
v 48.238133 30.348841 -130.886313
v 48.238133 30.348841 16.916421
v -48.238131 30.348841 16.916421
v -48.238131 30.348841 -130.886313
v 48.238133 30.348841 -130.886313
cstype bspline
deg 1
curv 0 5 56 57 58 59 60
parm u 0 0 1 2 3 4
end
v 48.238133 30.348848 -18.414093
v 105.898777 390.349502 -18.414093
v 48.238133 750.35016 -18.414093
v -48.238129 750.35016 -18.414093
v -105.898781 390.349502 -18.414093
v -48.238129 30.348848 -18.414093
v 48.238133 30.348848 -18.414093
cstype bspline
deg 1
curv 0 7 61 62 63 64 65 66 67
parm u 0 0 1 2 3 4 5 6
end
v 48.238133 30.348848 -32.022391
v 105.898777 390.349502 -32.022391
v 48.238133 750.35016 -32.022391
v -48.238129 750.35016 -32.022391
v -105.898781 390.349502 -32.022391
v -48.238129 30.348848 -32.022391
v 48.238133 30.348848 -32.022391
cstype bspline
deg 1
curv 0 7 68 69 70 71 72 73 74
parm u 0 0 1 2 3 4 5 6
end
v 48.238133 30.348848 -81.947503
v 105.898777 390.349502 -81.947503
v 48.238133 750.35016 -81.947503
v -48.238129 750.35016 -81.947503
v -105.898781 390.349502 -81.947503
v -48.238129 30.348848 -81.947503
v 48.238133 30.348848 -81.947503
cstype bspline
deg 1
curv 0 7 75 76 77 78 79 80 81
parm u 0 0 1 2 3 4 5 6
end
v 48.238133 30.348848 -95.555801
v 105.898777 390.349502 -95.555801
v 48.238133 750.35016 -95.555801
v -48.238129 750.35016 -95.555801
v -105.898781 390.349502 -95.555801
v -48.238129 30.348848 -95.555801
v 48.238133 30.348848 -95.555801
cstype bspline
deg 1
curv 0 7 82 83 84 85 86 87 88
parm u 0 0 1 2 3 4 5 6
end
v 98.821438 -763.958466 -29.253205
v 98.821438 -400.336274 -29.253205
v 98.821438 -400.336274 130.886318
v 98.821438 -763.958466 130.886318
v 98.821438 -763.958466 -29.253205
cstype bspline
deg 1
curv 0 5 89 90 91 92 93
parm u 0 0 1 2 3 4
end
v 72.192812 -737.329834 -29.253205
v 72.192812 -400.336274 -29.253205
v 72.192812 -400.336274 130.886318
v 72.192812 -737.329834 130.886318
v 72.192812 -737.329834 -29.253205
cstype bspline
deg 1
curv 0 5 94 95 96 97 98
parm u 0 0 1 2 3 4
end
v -87.946712 -737.329828 37.502242
v -87.946712 -400.336283 37.502242
v 72.192811 -400.336283 37.502242
v 72.192811 -737.329828 37.502242
v -87.946712 -737.329828 37.502242
cstype bspline
deg 1
curv 0 5 99 100 101 102 103
parm u 0 0 1 2 3 4
end
v -87.946712 -737.329828 64.130869
v -87.946712 -400.336283 64.130869
v 72.192811 -400.336283 64.130869
v 72.192811 -737.329828 64.130869
v -87.946712 -737.329828 64.130869
cstype bspline
deg 1
curv 0 5 104 105 106 107 108
parm u 0 0 1 2 3 4
end
v -87.946708 -763.958462 -29.253205
v 98.821434 -763.958462 -29.253205
v 98.821434 -763.958462 130.886314
v -87.946708 -763.958462 130.886314
v -87.946708 -763.958462 -29.253205
cstype bspline
deg 1
curv 0 5 109 110 111 112 113
parm u 0 0 1 2 3 4
end
v -87.946708 -737.329835 -29.253205
v 72.192811 -737.329835 -29.253205
v 72.192811 -737.329835 130.886314
v -87.946708 -737.329835 130.886314
v -87.946708 -737.329835 -29.253205
cstype bspline
deg 1
curv 0 5 114 115 116 117 118
parm u 0 0 1 2 3 4
end
