# type_plates_name_side_to_side_edge_inplane_hilti.xml
v -200.0 900.0 3.0421675377496555
v 0.0 900.0 3.0421675377496555
v 0.0 1100.0 3.0421675377496555
v -200.0 1100.0 3.0421675377496555
v -200.0 900.0 3.0421675377496555
cstype bspline
deg 1
curv 0 5 1 2 3 4 5
parm u 0 0 1 2 3 4
end
v -200.0 900.0 123.04216753774966
v 0.0 900.0 123.04216753774966
v 0.0 1100.0 123.04216753774966
v -200.0 1100.0 123.04216753774966
v -200.0 900.0 123.04216753774966
cstype bspline
deg 1
curv 0 5 6 7 8 9 10
parm u 0 0 1 2 3 4
end
v 0.0 900.0 3.0421675377496555
v 200.0 900.0 3.0421675377496555
v 200.0 1100.0 3.0421675377496555
v 0.0 1100.0 3.0421675377496555
v 0.0 900.0 3.0421675377496555
cstype bspline
deg 1
curv 0 5 11 12 13 14 15
parm u 0 0 1 2 3 4
end
v 0.0 900.0 123.04216753774966
v 200.0 900.0 123.04216753774966
v 200.0 1100.0 123.04216753774966
v 0.0 1100.0 123.04216753774966
v 0.0 900.0 123.04216753774966
cstype bspline
deg 1
curv 0 5 16 17 18 19 20
parm u 0 0 1 2 3 4
end
v -188.78025048863014 500.0 -13.932344782791453
v 5.684341886080801e-13 500.0 2.5837870325480026
v 5.684341886080801e-13 700.0 2.5837870325480026
v -188.78025048863014 700.0 -13.932344782791453
v -188.78025048863014 500.0 -13.932344782791453
cstype bspline
deg 1
curv 0 5 21 22 23 24 25
parm u 0 0 1 2 3 4
end
v -199.23893961834915 500.0 105.611018988218
v 0.0 500.0 123.04216753774966
v 0.0 700.0 123.04216753774966
v -199.23893961834915 700.0 105.611018988218
v -199.23893961834915 500.0 105.611018988218
cstype bspline
deg 1
curv 0 5 26 27 28 29 30
parm u 0 0 1 2 3 4
end
v 4.547473508864641e-13 500.0 2.5837870325479315
v 188.78025048863014 500.0 -13.93234478279144
v 188.78025048863014 700.0 -13.93234478279144
v 4.547473508864641e-13 700.0 2.5837870325479315
v 4.547473508864641e-13 500.0 2.5837870325479315
cstype bspline
deg 1
curv 0 5 31 32 33 34 35
parm u 0 0 1 2 3 4
end
v 0.0 500.0 123.04216753774966
v 199.23893961834915 500.0 105.61101898821804
v 199.23893961834915 700.0 105.61101898821804
v 0.0 700.0 123.04216753774966
v 0.0 500.0 123.04216753774966
cstype bspline
deg 1
curv 0 5 36 37 38 39 40
parm u 0 0 1 2 3 4
end
v -176.12376928240997 100.0 -29.864398357101358
v 2.2737367544323206e-13 100.0 1.1909741114603278
v 2.2737367544323206e-13 300.0 1.1909741114603278
v -176.12376928240997 300.0 -29.864398357101358
v -176.12376928240997 100.0 -29.864398357101358
cstype bspline
deg 1
curv 0 5 41 42 43 44 45
parm u 0 0 1 2 3 4
end
v -196.96155060244155 100.0 88.31253200436362
v 1.1368683772161603e-13 100.0 123.04216753774966
v 1.1368683772161603e-13 300.0 123.04216753774966
v -196.96155060244155 300.0 88.31253200436362
v -196.96155060244155 100.0 88.31253200436362
cstype bspline
deg 1
curv 0 5 46 47 48 49 50
parm u 0 0 1 2 3 4
end
v 2.2737367544323206e-13 100.0 1.1909741114602497
v 176.12376928240997 100.0 -29.864398357101386
v 176.12376928240997 300.0 -29.864398357101386
v 2.2737367544323206e-13 300.0 1.1909741114602497
v 2.2737367544323206e-13 100.0 1.1909741114602497
cstype bspline
deg 1
curv 0 5 51 52 53 54 55
parm u 0 0 1 2 3 4
end
v 0.0 100.0 123.04216753774966
v 196.96155060244155 100.0 88.31253200436359
v 196.96155060244155 300.0 88.31253200436359
v 0.0 300.0 123.04216753774966
v 0.0 100.0 123.04216753774966
cstype bspline
deg 1
curv 0 5 56 57 58 59 60
parm u 0 0 1 2 3 4
end
v -162.1268798455112 -300.0 -44.63274063744269
v 0.0 -300.0 -1.1909741114603136
v 0.0 -100.0 -1.1909741114603136
v -162.1268798455112 -100.0 -44.63274063744269
v -162.1268798455112 -300.0 -44.63274063744269
cstype bspline
deg 1
curv 0 5 61 62 63 64 65
parm u 0 0 1 2 3 4
end
v -193.18516525781365 -300.0 71.27835851724552
v 0.0 -300.0 123.04216753774969
v 0.0 -100.0 123.04216753774969
v -193.18516525781365 -100.0 71.27835851724552
v -193.18516525781365 -300.0 71.27835851724552
cstype bspline
deg 1
curv 0 5 66 67 68 69 70
parm u 0 0 1 2 3 4
end
v -1.1368683772161603e-13 -300.0 -1.1909741114603278
v 162.1268798455112 -300.0 -44.632740637442716
v 162.1268798455112 -100.0 -44.632740637442716
v -1.1368683772161603e-13 -100.0 -1.1909741114603278
v -1.1368683772161603e-13 -300.0 -1.1909741114603278
cstype bspline
deg 1
curv 0 5 71 72 73 74 75
parm u 0 0 1 2 3 4
end
v 0.0 -300.0 123.04216753774966
v 193.18516525781365 -300.0 71.27835851724552
v 193.18516525781365 -100.0 71.27835851724552
v 0.0 -100.0 123.04216753774966
v 0.0 -300.0 123.04216753774966
cstype bspline
deg 1
curv 0 5 76 77 78 79 80
parm u 0 0 1 2 3 4
end
v -146.89610695810143 -700.0 -58.124975621693075
v 0.0 -700.0 -4.6591651593597945
v 0.0 -500.0 -4.6591651593597945
v -146.89610695810143 -500.0 -58.124975621693075
v -146.89610695810143 -700.0 -58.124975621693075
cstype bspline
deg 1
curv 0 5 81 82 83 84 85
parm u 0 0 1 2 3 4
end
v -187.93852415718175 -700.0 54.638138872615905
v 0.0 -700.0 123.04216753774966
v 0.0 -500.0 123.04216753774966
v -187.93852415718175 -500.0 54.638138872615905
v -187.93852415718175 -700.0 54.638138872615905
cstype bspline
deg 1
curv 0 5 86 87 88 89 90
parm u 0 0 1 2 3 4
end
v -1.1368683772161603e-13 -700.0 -4.659165159359723
v 146.89610695810143 -700.0 -58.124975621693075
v 146.89610695810143 -500.0 -58.124975621693075
v -1.1368683772161603e-13 -500.0 -4.659165159359723
v -1.1368683772161603e-13 -700.0 -4.659165159359723
cstype bspline
deg 1
curv 0 5 91 92 93 94 95
parm u 0 0 1 2 3 4
end
v 1.1368683772161603e-13 -700.0 123.04216753774966
v 187.93852415718175 -700.0 54.638138872615905
v 187.93852415718175 -500.0 54.638138872615905
v 1.1368683772161603e-13 -500.0 123.04216753774966
v 1.1368683772161603e-13 -700.0 123.04216753774966
cstype bspline
deg 1
curv 0 5 96 97 98 99 100
parm u 0 0 1 2 3 4
end
v -130.54736599844614 -1100.0 -70.23841925478825
v 2.2737367544323206e-13 -1100.0 -9.363182737749277
v 2.2737367544323206e-13 -900.0 -9.363182737749277
v -130.54736599844614 -900.0 -70.23841925478825
v -130.54736599844614 -1100.0 -70.23841925478825
cstype bspline
deg 1
curv 0 5 101 102 103 104 105
parm u 0 0 1 2 3 4
end
v -181.2615574073301 -1100.0 38.51851518960972
v 0.0 -1100.0 123.04216753774963
v 0.0 -900.0 123.04216753774963
v -181.2615574073301 -900.0 38.51851518960972
v -181.2615574073301 -1100.0 38.51851518960972
cstype bspline
deg 1
curv 0 5 106 107 108 109 110
parm u 0 0 1 2 3 4
end
v 2.2737367544323206e-13 -1100.0 -9.363182737749362
v 130.54736599844614 -1100.0 -70.23841925478823
v 130.54736599844614 -900.0 -70.23841925478823
v 2.2737367544323206e-13 -900.0 -9.363182737749362
v 2.2737367544323206e-13 -1100.0 -9.363182737749362
cstype bspline
deg 1
curv 0 5 111 112 113 114 115
parm u 0 0 1 2 3 4
end
v 2.2737367544323206e-13 -1100.0 123.04216753774963
v 181.2615574073301 -1100.0 38.51851518960974
v 181.2615574073301 -900.0 38.51851518960974
v 2.2737367544323206e-13 -900.0 123.04216753774963
v 2.2737367544323206e-13 -1100.0 123.04216753774963
cstype bspline
deg 1
curv 0 5 116 117 118 119 120
parm u 0 0 1 2 3 4
end
