# type_plates_name_side_to_side_edge_inplane_differentdirections.xml
v -600.0 -200.0 -20.0
v -600.0 -600.0 -20.0
v -200.0 -600.0 -20.0
v -200.0 -200.0 -20.0
v -600.0 -200.0 -20.0
cstype bspline
deg 1
curv 0 5 1 2 3 4 5
parm u 0 0 1 2 3 4
end
v -600.0 -200.0 20.0
v -600.0 -600.0 20.0
v -200.0 -600.0 20.0
v -200.0 -200.0 20.0
v -600.0 -200.0 20.0
cstype bspline
deg 1
curv 0 5 6 7 8 9 10
parm u 0 0 1 2 3 4
end
v -200.0 -200.0 -20.0
v -200.0 -600.0 -20.0
v 200.0 -600.0 -20.0
v 200.0 -200.0 -20.0
v -200.0 -200.0 -20.0
cstype bspline
deg 1
curv 0 5 11 12 13 14 15
parm u 0 0 1 2 3 4
end
v -200.0 -200.0 20.0
v -200.0 -600.0 20.0
v 200.0 -600.0 20.0
v 200.0 -200.0 20.0
v -200.0 -200.0 20.0
cstype bspline
deg 1
curv 0 5 16 17 18 19 20
parm u 0 0 1 2 3 4
end
v -600.0 200.0 -20.0
v -600.0 -200.0 -20.0
v -200.0 -200.0 -20.0
v -200.0 200.0 -20.0
v -600.0 200.0 -20.0
cstype bspline
deg 1
curv 0 5 21 22 23 24 25
parm u 0 0 1 2 3 4
end
v -600.0 200.0 20.0
v -600.0 -200.0 20.0
v -200.0 -200.0 20.0
v -200.0 200.0 20.0
v -600.0 200.0 20.0
cstype bspline
deg 1
curv 0 5 26 27 28 29 30
parm u 0 0 1 2 3 4
end
v -200.0 200.0 -20.0
v -200.0 -200.0 -20.0
v 200.0 -200.0 -20.0
v 200.0 200.0 -20.0
v -200.0 200.0 -20.0
cstype bspline
deg 1
curv 0 5 31 32 33 34 35
parm u 0 0 1 2 3 4
end
v -200.0 200.0 20.0
v -200.0 -200.0 20.0
v 200.0 -200.0 20.0
v 200.0 200.0 20.0
v -200.0 200.0 20.0
cstype bspline
deg 1
curv 0 5 36 37 38 39 40
parm u 0 0 1 2 3 4
end
v -600.0 600.0 -20.0
v -600.0 200.0 -20.0
v -200.0 200.0 -20.0
v -200.0 600.0 -20.0
v -600.0 600.0 -20.0
cstype bspline
deg 1
curv 0 5 41 42 43 44 45
parm u 0 0 1 2 3 4
end
v -600.0 600.0 20.0
v -600.0 200.0 20.0
v -200.0 200.0 20.0
v -200.0 600.0 20.0
v -600.0 600.0 20.0
cstype bspline
deg 1
curv 0 5 46 47 48 49 50
parm u 0 0 1 2 3 4
end
v -200.0 600.0 -20.0
v -200.0 200.0 -20.0
v 200.0 200.0 -20.0
v 200.0 600.0 -20.0
v -200.0 600.0 -20.0
cstype bspline
deg 1
curv 0 5 51 52 53 54 55
parm u 0 0 1 2 3 4
end
v -200.0 600.0 20.0
v -200.0 200.0 20.0
v 200.0 200.0 20.0
v 200.0 600.0 20.0
v -200.0 600.0 20.0
cstype bspline
deg 1
curv 0 5 56 57 58 59 60
parm u 0 0 1 2 3 4
end
v 200.0 -200.0 -20.0
v 200.0 -600.0 -20.0
v 600.0 -600.0 -20.0
v 600.0 -200.0 -20.0
v 200.0 -200.0 -20.0
cstype bspline
deg 1
curv 0 5 61 62 63 64 65
parm u 0 0 1 2 3 4
end
v 200.0 -200.0 20.0
v 200.0 -600.0 20.0
v 600.0 -600.0 20.0
v 600.0 -200.0 20.0
v 200.0 -200.0 20.0
cstype bspline
deg 1
curv 0 5 66 67 68 69 70
parm u 0 0 1 2 3 4
end
v 200.0 200.0 -20.0
v 200.0 -200.0 -20.0
v 600.0 -200.0 -20.0
v 600.0 200.0 -20.0
v 200.0 200.0 -20.0
cstype bspline
deg 1
curv 0 5 71 72 73 74 75
parm u 0 0 1 2 3 4
end
v 200.0 200.0 20.0
v 200.0 -200.0 20.0
v 600.0 -200.0 20.0
v 600.0 200.0 20.0
v 200.0 200.0 20.0
cstype bspline
deg 1
curv 0 5 76 77 78 79 80
parm u 0 0 1 2 3 4
end
v 200.0 600.0 -20.0
v 200.0 200.0 -20.0
v 600.0 200.0 -20.0
v 600.0 600.0 -20.0
v 200.0 600.0 -20.0
cstype bspline
deg 1
curv 0 5 81 82 83 84 85
parm u 0 0 1 2 3 4
end
v 200.0 600.0 20.0
v 200.0 200.0 20.0
v 600.0 200.0 20.0
v 600.0 600.0 20.0
v 200.0 600.0 20.0
cstype bspline
deg 1
curv 0 5 86 87 88 89 90
parm u 0 0 1 2 3 4
end
