# type_plates_name_side_to_side_edge_inplane_2_butterflies.xml
v -346.88777923584 -590.0 0.0
v -314.516201019287 -457.410430908203 0.0
v -590.0 -390.151405334473 0.0
v -590.0 -590.0 0.0
v -346.88777923584 -590.0 0.0
cstype bspline
deg 1
curv 0 5 1 2 3 4 5
parm u 0 0 1 2 3 4
end
v -346.88777923584 -590.0 20.0
v -314.516201019287 -457.410430908203 20.0
v -590.0 -390.151405334473 20.0
v -590.0 -590.0 20.0
v -346.88777923584 -590.0 20.0
cstype bspline
deg 1
curv 0 5 6 7 8 9 10
parm u 0 0 1 2 3 4
end
v -590.0 104.550218582153 0.0
v -590.0 167.465896606445 0.0
v -243.355140686035 366.71760559082 0.0
v -148.699998855591 202.04288482666 0.0
v -22.6037049293518 -17.3310577869415 0.0
v -197.879028320313 20.3194880485535 0.0
v -590.0 104.550218582153 0.0
cstype bspline
deg 1
curv 0 7 11 12 13 14 15 16 17
parm u 0 0 1 2 3 4 5 6
end
v -590.0 104.550218582153 20.0
v -590.0 167.465896606445 20.0
v -243.355140686035 366.71760559082 20.0
v -148.699998855591 202.04288482666 20.0
v -22.6037049293518 -17.3310577869415 20.0
v -197.879028320313 20.3194880485535 20.0
v -590.0 104.550218582153 20.0
cstype bspline
deg 1
curv 0 7 18 19 20 21 22 23 24
parm u 0 0 1 2 3 4 5 6
end
v -371.698036193848 590.0 0.0
v -243.355140686035 366.71760559082 0.0
v -148.699998855591 202.04288482666 0.0
v 526.24195098877 590.0 0.0
v -371.698036193848 590.0 0.0
cstype bspline
deg 1
curv 0 5 25 26 27 28 29
parm u 0 0 1 2 3 4
end
v -371.698036193848 590.0 20.0
v -243.355140686035 366.71760559082 20.0
v -148.699998855591 202.04288482666 20.0
v 526.24195098877 590.0 20.0
v -371.698036193848 590.0 20.0
cstype bspline
deg 1
curv 0 5 30 31 32 33 34
parm u 0 0 1 2 3 4
end
v -114.025630950928 -590.0 0.0
v 590.0 -590.0 0.0
v 590.0 -516.519088745117 0.0
v -57.4893999099731 -358.435325622559 0.0
v -114.025630950928 -590.0 0.0
cstype bspline
deg 1
curv 0 5 35 36 37 38 39
parm u 0 0 1 2 3 4
end
v -114.025630950928 -590.0 20.0
v 590.0 -590.0 20.0
v 590.0 -516.519088745117 20.0
v -57.4893999099731 -358.435325622559 20.0
v -114.025630950928 -590.0 20.0
cstype bspline
deg 1
curv 0 5 40 41 42 43 44
parm u 0 0 1 2 3 4
end
v -590.0 104.550218582153 0.0
v -590.0 -390.151405334473 0.0
v -314.516201019287 -457.410430908203 0.0
v -277.251815795898 -304.780616760254 0.0
v -197.879028320313 20.3194880485535 0.0
v -590.0 104.550218582153 0.0
cstype bspline
deg 1
curv 0 6 45 46 47 48 49 50
parm u 0 0 1 2 3 4 5
end
v -590.0 104.550218582153 20.0
v -590.0 -390.151405334473 20.0
v -314.516201019287 -457.410430908203 20.0
v -277.251815795898 -304.780616760254 20.0
v -197.879028320313 20.3194880485535 20.0
v -590.0 104.550218582153 20.0
cstype bspline
deg 1
curv 0 6 51 52 53 54 55 56
parm u 0 0 1 2 3 4 5
end
v -371.698036193848 590.0 0.0
v -243.355140686035 366.71760559082 0.0
v -590.0 167.465896606445 0.0
v -590.0 590.0 0.0
v -371.698036193848 590.0 0.0
cstype bspline
deg 1
curv 0 5 57 58 59 60 61
parm u 0 0 1 2 3 4
end
v -371.698036193848 590.0 20.0
v -243.355140686035 366.71760559082 20.0
v -590.0 167.465896606445 20.0
v -590.0 590.0 20.0
v -371.698036193848 590.0 20.0
cstype bspline
deg 1
curv 0 5 62 63 64 65 66
parm u 0 0 1 2 3 4
end
v -346.88777923584 -590.0 0.0
v -314.516201019287 -457.410430908203 0.0
v -277.251815795898 -304.780616760254 0.0
v -57.4893999099731 -358.435325622559 0.0
v -114.025630950928 -590.0 0.0
v -346.88777923584 -590.0 0.0
cstype bspline
deg 1
curv 0 6 67 68 69 70 71 72
parm u 0 0 1 2 3 4 5
end
v -346.88777923584 -590.0 20.0
v -314.516201019287 -457.410430908203 20.0
v -277.251815795898 -304.780616760254 20.0
v -57.4893999099731 -358.435325622559 20.0
v -114.025630950928 -590.0 20.0
v -346.88777923584 -590.0 20.0
cstype bspline
deg 1
curv 0 6 73 74 75 76 77 78
parm u 0 0 1 2 3 4 5
end
v 590.0 -516.519088745117 0.0
v 590.0 -148.923244476318 0.0
v -22.6037049293518 -17.3310577869415 0.0
v -197.879028320313 20.3194880485535 0.0
v -277.251815795898 -304.780616760254 0.0
v -57.4893999099731 -358.435325622559 0.0
v 590.0 -516.519088745117 0.0
cstype bspline
deg 1
curv 0 7 79 80 81 82 83 84 85
parm u 0 0 1 2 3 4 5 6
end
v 590.0 -516.519088745117 20.0
v 590.0 -148.923244476318 20.0
v -22.6037049293518 -17.3310577869415 20.0
v -197.879028320313 20.3194880485535 20.0
v -277.251815795898 -304.780616760254 20.0
v -57.4893999099731 -358.435325622559 20.0
v 590.0 -516.519088745117 20.0
cstype bspline
deg 1
curv 0 7 86 87 88 89 90 91 92
parm u 0 0 1 2 3 4 5 6
end
v 590.0 -148.923244476318 0.0
v 590.0 590.0 0.0
v 526.24195098877 590.0 0.0
v -148.699998855591 202.04288482666 0.0
v -22.6037049293518 -17.3310577869415 0.0
v 590.0 -148.923244476318 0.0
cstype bspline
deg 1
curv 0 6 93 94 95 96 97 98
parm u 0 0 1 2 3 4 5
end
v 590.0 -148.923244476318 20.0
v 590.0 590.0 20.0
v 526.24195098877 590.0 20.0
v -148.699998855591 202.04288482666 20.0
v -22.6037049293518 -17.3310577869415 20.0
v 590.0 -148.923244476318 20.0
cstype bspline
deg 1
curv 0 6 99 100 101 102 103 104
parm u 0 0 1 2 3 4 5
end
v 1249.81575012207 396.962203979492 -78.9103507995605
v 1359.26620483398 375.488128662109 26.4760684967041
v 1446.56494140625 516.929893493652 1.39949694275856
v 1359.3701171875 609.333877563477 -134.379796981812
v 1323.23348999023 591.712951660156 -152.167539596558
v 1249.81575012207 396.962203979492 -78.9103507995605
cstype bspline
deg 1
curv 0 6 105 106 107 108 109 110
parm u 0 0 1 2 3 4 5
end
v 1237.76633164058 404.25756203047 -64.5192520789279
v 1348.72420036267 382.487677202158 42.3187023263007
v 1438.07876126859 527.259963994712 16.6516936179485
v 1350.62893450375 619.934005335919 -119.524486610182
v 1311.96543573334 601.080883475776 -138.556102633064
v 1237.76633164058 404.25756203047 -64.5192520789279
cstype bspline
deg 1
curv 0 6 111 112 113 114 115 116
parm u 0 0 1 2 3 4 5
end
v 2397.18338012695 589.842681884766 -154.366540908813
v 2428.83087158203 528.432083129883 -122.095251083374
v 2333.26538085938 473.755378723145 -7.09602892398834
v 2215.15228271484 515.754280090332 38.0866765975952
v 2145.50247192383 630.969390869141 -15.2960312366486
v 2157.42477416992 678.408279418945 -65.5800628662109
v 2397.18338012695 589.842681884766 -154.366540908813
cstype bspline
deg 1
curv 0 7 117 118 119 120 121 122 123
parm u 0 0 1 2 3 4 5 6
end
v 2406.43999915375 601.590546448094 -141.088649065887
v 2439.46575365526 537.505481941922 -107.411930190069
v 2343.57198038946 482.640981771791 7.98235541055249
v 2222.99205839764 525.517015287487 54.1086962972653
v 2151.55296802684 643.691946853387 -0.645375827590975
v 2163.52352196394 691.322652171273 -51.1327529199756
v 2406.43999915375 601.590546448094 -141.088649065887
cstype bspline
deg 1
curv 0 7 124 125 126 127 128 129 130
parm u 0 0 1 2 3 4 5 6
end
v 2395.98587036133 -481.570205688477 -155.626611709595
v 2309.55215454102 -524.086761474609 -112.378129959106
v 2275.70068359375 -237.656860351563 89.7062110900879
v 2401.73522949219 -158.930778503418 36.863009929657
v 2503.2145690918 -163.876152038574 -47.428297996521
v 2395.98587036133 -481.570205688477 -155.626611709595
cstype bspline
deg 1
curv 0 6 131 132 133 134 135 136
parm u 0 0 1 2 3 4 5
end
v 2407.27073474872 -490.178121407199 -141.535602217642
v 2319.09949492808 -533.549327716941 -97.4177697752144
v 2284.87176918493 -243.935124830211 106.913218316065
v 2413.53788563047 -163.565188157859 52.9666196298717
v 2515.82722255051 -168.55001064181 -31.9975007844482
v 2407.27073474872 -490.178121407199 -141.535602217642
cstype bspline
deg 1
curv 0 6 137 138 139 140 141 142
parm u 0 0 1 2 3 4 5
end
v 1601.18377685547 547.373046875 55.7558488845825
v 1653.23364257813 479.979057312012 108.900852203369
v 1908.32550048828 488.275756835938 133.594493865967
v 1931.56433105469 599.71981048584 58.7698841094971
v 1821.1735534668 711.654510498047 -32.3584246635437
v 1698.44421386719 703.002243041992 -40.9937286376953
v 1601.18377685547 547.373046875 55.7558488845825
cstype bspline
deg 1
curv 0 7 143 144 145 146 147 148 149
parm u 0 0 1 2 3 4 5 6
end
v 1595.48437329518 558.251835701954 71.9877296810681
v 1648.67350336983 489.382734922592 126.295955712891
v 1909.18958307667 497.855839476173 151.514681330164
v 1932.94119961697 611.759673931588 75.0385609215
v 1822.94799875925 723.291299091255 -15.7615935896358
v 1692.89587829702 714.122777897011 -24.9121420424876
v 1595.48437329518 558.251835701954 71.9877296810681
cstype bspline
deg 1
curv 0 7 150 151 152 153 154 155 156
parm u 0 0 1 2 3 4 5 6
end
v 1950.87768554688 213.268985748291 220.792484283447
v 1872.35687255859 5.91786921024323 240.765762329102
v 1930.28121948242 -83.5542678833008 229.465255737305
v 2086.27548217773 -107.104682922363 195.952987670898
v 2215.32989501953 178.238830566406 163.910884857178
v 2169.34219360352 216.451606750488 173.347549438477
v 1950.87768554688 213.268985748291 220.792484283447
cstype bspline
deg 1
curv 0 7 157 158 159 160 161 162 163
parm u 0 0 1 2 3 4 5 6
end
v 1952.89207764257 216.258367695454 240.780376970005
v 1872.79438802234 4.74302001828502 261.15478527449
v 1931.88956016406 -86.5377052543651 249.625844233261
v 2091.63874718641 -110.654977409291 215.306922288523
v 2223.35904481906 180.583141694603 182.602910467729
v 2176.50473014547 219.515988144754 192.217392112397
v 1952.89207764257 216.258367695454 240.780376970005
cstype bspline
deg 1
curv 0 7 164 165 166 167 168 169 170
parm u 0 0 1 2 3 4 5 6
end
v 1272.22648620605 -135.874834060669 7.07150876522064
v 1343.55178833008 21.4921498298645 82.2174167633057
v 1267.13714599609 167.073802947998 17.8790020942688
v 1208.22418212891 173.841247558594 -37.1518015861511
v 1216.64016723633 -142.221117019653 -45.5071020126343
v 1272.22648620605 -135.874834060669 7.07150876522064
cstype bspline
deg 1
curv 0 6 171 172 173 174 175 176
parm u 0 0 1 2 3 4 5
end
v 1259.48855823212 -140.074172284126 22.3499031799293
v 1332.33013453557 20.6383315649333 99.0933420526162
v 1254.34775908585 169.206856134969 33.4349190103814
v 1194.45573936164 176.086792026643 -22.5104284323281
v 1203.04593861509 -146.518230052015 -31.0386867247453
v 1259.48855823212 -140.074172284126 22.3499031799293
cstype bspline
deg 1
curv 0 6 177 178 179 180 181 182
parm u 0 0 1 2 3 4 5
end
v 1790.22705078125 -554.855651855469 10.0392949581146
v 1918.31802368164 -413.195419311523 113.164262771606
v 2029.5442199707 -416.798782348633 93.9994812011719
v 2128.03161621094 -577.63484954834 -58.3282041549683
v 1795.40634155273 -603.531150817871 -32.5029110908508
v 1790.22705078125 -554.855651855469 10.0392949581146
cstype bspline
deg 1
curv 0 6 183 184 185 186 187 188
parm u 0 0 1 2 3 4 5
end
v 1788.90383650904 -568.188163214919 25.3016410963465
v 1919.90749086138 -423.306785261074 130.771517698546
v 2033.5721085053 -426.989136704752 111.186566542761
v 2133.58922688039 -590.323013214313 -43.5068235998718
v 1794.07165990998 -616.755916089708 -17.1463991213601
v 1788.90383650904 -568.188163214919 25.3016410963465
cstype bspline
deg 1
curv 0 6 189 190 191 192 193 194
parm u 0 0 1 2 3 4 5
end
v 2401.73522949219 -158.930778503418 36.863009929657
v 2317.38998413086 172.170753479004 113.594007492065
v 2397.95532226563 236.553916931152 48.0680561065674
v 2507.85705566406 215.636310577393 -43.5365915298462
v 2503.2145690918 -163.876152038574 -47.428297996521
v 2401.73522949219 -158.930778503418 36.863009929657
cstype bspline
deg 1
curv 0 6 195 196 197 198 199 200
parm u 0 0 1 2 3 4 5
end
v 2413.53788563047 -163.565188157859 52.9666196298717
v 2327.4455152662 174.394588650922 131.28701238272
v 2409.7087072134 240.134488662749 64.3802202847993
v 2520.67069012105 219.01510203054 -28.1081947786152
v 2515.92961666557 -168.555000570402 -32.0825519362508
v 2413.53788563047 -163.565188157859 52.9666196298717
cstype bspline
deg 1
curv 0 6 201 202 203 204 205 206
parm u 0 0 1 2 3 4 5
end
v 1930.28121948242 -83.5542678833008 229.465255737305
v 1817.19741821289 -297.073707580566 171.059112548828
v 1918.31802368164 -413.195419311523 113.164262771606
v 2029.5442199707 -416.798782348633 93.9994812011719
v 2187.04391479492 -238.025398254395 132.807197570801
v 2086.27548217773 -107.104682922363 195.952987670898
v 1930.28121948242 -83.5542678833008 229.465255737305
cstype bspline
deg 1
curv 0 7 207 208 209 210 211 212 213
parm u 0 0 1 2 3 4 5 6
end
v 1931.88956016406 -86.5377052543651 249.625844233261
v 1816.45114242987 -304.502944469189 190.003592751076
v 1919.90749086138 -423.306785261074 130.771517698546
v 2033.5721085053 -426.989136704752 111.186566542761
v 2194.51232385665 -244.310718470155 150.841969063434
v 2091.63874718641 -110.654977409291 215.306922288523
v 1931.88956016406 -86.5377052543651 249.625844233261
cstype bspline
deg 1
curv 0 7 214 215 216 217 218 219 220
parm u 0 0 1 2 3 4 5 6
end
v 1565.73577880859 -60.7575464248657 188.588237762451
v 1448.2405090332 28.62224817276 142.573986053467
v 1496.70700073242 256.60924911499 140.293254852295
v 1624.48684692383 294.52615737915 179.488296508789
v 1654.71633911133 273.49178314209 191.169490814209
v 1696.44622802734 32.6356863975525 224.298667907715
v 1565.73577880859 -60.7575464248657 188.588237762451
cstype bspline
deg 1
curv 0 7 221 222 223 224 225 226 227
parm u 0 0 1 2 3 4 5 6
end
v 1559.43947984035 -63.3518034785406 207.840682670354
v 1439.43953274657 27.9333109742517 160.845530883173
v 1489.00675688712 261.097650642762 158.51299585182
v 1619.27943954103 299.754284875342 198.472715739914
v 1650.33165888078 278.147390325256 210.471843769536
v 1692.96874775694 32.055458787009 244.321193374475
v 1559.43947984035 -63.3518034785406 207.840682670354
cstype bspline
deg 1
curv 0 7 228 229 230 231 232 233 234
parm u 0 0 1 2 3 4 5 6
end
v 1427.39288330078 -348.466567993164 28.7755656242371
v 1301.79168701172 -437.527503967285 -130.606136322021
v 1216.64016723633 -142.221117019653 -45.5071020126343
v 1272.22648620605 -135.874834060669 7.07150876522064
v 1409.09515380859 -273.859481811523 53.1171560287476
v 1427.39288330078 -348.466567993164 28.7755656242371
cstype bspline
deg 1
curv 0 6 235 236 237 238 239 240
parm u 0 0 1 2 3 4 5
end
v 1417.84925387727 -356.885140108925 44.586202922987
v 1290.19651537621 -447.400899748252 -117.398938077605
v 1203.42460405198 -146.474997793013 -30.6805103350194
v 1259.48855823212 -140.074172284126 22.3499031799293
v 1399.22613056874 -280.951172775308 69.360713209088
v 1417.84925387727 -356.885140108925 44.586202922987
cstype bspline
deg 1
curv 0 6 241 242 243 244 245 246
parm u 0 0 1 2 3 4 5
end
v 1540.73501586914 -437.086181640625 35.0431394577026
v 1510.04440307617 -554.352149963379 -81.6430854797363
v 1795.40634155273 -603.531150817871 -32.5029110908508
v 1790.22705078125 -554.855651855469 10.0392949581146
v 1603.8508605957 -429.957160949707 62.2793912887573
v 1540.73501586914 -437.086181640625 35.0431394577026
cstype bspline
deg 1
curv 0 6 247 248 249 250 251 252
parm u 0 0 1 2 3 4 5
end
v 1533.9710485275 -447.678019086356 51.0074768896742
v 1502.7473024103 -566.980719623023 -67.705425771269
v 1794.11841628776 -617.19533749112 -17.5304518356729
v 1788.90383650904 -568.188163214919 25.3016410963465
v 1598.24295441936 -440.418389433638 78.7426698537025
v 1533.9710485275 -447.678019086356 51.0074768896742
cstype bspline
deg 1
curv 0 6 253 254 255 256 257 258
parm u 0 0 1 2 3 4 5
end
v 2333.26538085938 473.755378723145 -7.09602892398834
v 2397.95532226563 236.553916931152 48.0680561065674
v 2507.85705566406 215.636310577393 -43.5365915298462
v 2428.83087158203 528.432083129883 -122.095251083374
v 2333.26538085938 473.755378723145 -7.09602892398834
cstype bspline
deg 1
curv 0 5 259 260 261 262 263
parm u 0 0 1 2 3 4
end
v 2343.57198038946 482.640981771791 7.98235541055249
v 2409.7087072134 240.134488662749 64.3802202847993
v 2521.54036976413 218.84957596344 -28.8330853194416
v 2440.83562683405 538.289238850123 -109.060374415861
v 2343.57198038946 482.640981771791 7.98235541055249
cstype bspline
deg 1
curv 0 5 264 265 266 267 268
parm u 0 0 1 2 3 4
end
v 2275.70068359375 -237.656860351563 89.7062110900879
v 2187.04391479492 -238.025398254395 132.807197570801
v 2029.5442199707 -416.798782348633 93.9994812011719
v 2128.03161621094 -577.63484954834 -58.3282041549683
v 2309.55215454102 -524.086761474609 -112.378129959106
v 2275.70068359375 -237.656860351563 89.7062110900879
cstype bspline
deg 1
curv 0 6 269 270 271 272 273 274
parm u 0 0 1 2 3 4 5
end
v 2284.87176918493 -243.935124830211 106.913218316065
v 2194.51232385665 -244.310718470155 150.841969063434
v 2033.5721085053 -426.989136704752 111.186566542761
v 2132.53705833318 -588.604759675831 -41.8794669811923
v 2319.10177621838 -533.568630608319 -97.4313885094789
v 2284.87176918493 -243.935124830211 106.913218316065
cstype bspline
deg 1
curv 0 6 275 276 277 278 279 280
parm u 0 0 1 2 3 4 5
end
v 1540.73501586914 -437.086181640625 35.0431394577026
v 1603.8508605957 -429.957160949707 62.2793912887573
v 1704.15420532227 -295.913352966309 157.158613204956
v 1568.27606201172 -130.852298736572 174.376220703125
v 1409.09515380859 -273.859481811523 53.1171560287476
v 1427.39288330078 -348.466567993164 28.7755656242371
v 1540.73501586914 -437.086181640625 35.0431394577026
cstype bspline
deg 1
curv 0 7 281 282 283 284 285 286 287
parm u 0 0 1 2 3 4 5 6
end
v 1533.9710485275 -447.678019086356 51.0074768896742
v 1598.24295441936 -440.418389433638 78.7426698537025
v 1700.8349973602 -303.316171574491 175.786694722801
v 1562.02495981309 -134.693680560711 193.375794796259
v 1399.22613056874 -280.951172775308 69.360713209088
v 1417.84925387727 -356.885140108925 44.586202922987
v 1533.9710485275 -447.678019086356 51.0074768896742
cstype bspline
deg 1
curv 0 7 288 289 290 291 292 293 294
parm u 0 0 1 2 3 4 5 6
end
v 1359.3701171875 609.333877563477 -134.379796981812
v 1698.44421386719 703.002243041992 -40.9937286376953
v 1601.18377685547 547.373046875 55.7558488845825
v 1446.56494140625 516.929893493652 1.39949694275856
v 1359.3701171875 609.333877563477 -134.379796981812
cstype bspline
deg 1
curv 0 5 295 296 297 298 299
parm u 0 0 1 2 3 4
end
v 1349.21231419601 621.435253924056 -121.730436575746
v 1694.59858878632 716.847333772093 -26.6059094059309
v 1595.48437329518 558.251835701954 71.9877296810681
v 1438.07876126859 527.259963994712 16.6516936179485
v 1349.21231419601 621.435253924056 -121.730436575746
cstype bspline
deg 1
curv 0 5 300 301 302 303 304
parm u 0 0 1 2 3 4
end
v 1950.87768554688 213.268985748291 220.792484283447
v 1894.90768432617 304.327564239502 205.26575088501
v 1654.71633911133 273.49178314209 191.169490814209
v 1696.44622802734 32.6356863975525 224.298667907715
v 1872.35687255859 5.91786921024323 240.765762329102
v 1950.87768554688 213.268985748291 220.792484283447
cstype bspline
deg 1
curv 0 6 305 306 307 308 309 310
parm u 0 0 1 2 3 4 5
end
v 1952.89207764257 216.258367695454 240.780376970005
v 1895.5048291929 309.622730139994 224.86048069876
v 1650.33165888078 278.147390325256 210.471843769536
v 1692.96874775694 32.055458787009 244.321193374475
v 1872.79438802234 4.74302001828502 261.15478527449
v 1952.89207764257 216.258367695454 240.780376970005
cstype bspline
deg 1
curv 0 6 311 312 313 314 315 316
parm u 0 0 1 2 3 4 5
end
v 2333.26538085938 473.755378723145 -7.09602892398834
v 2397.95532226563 236.553916931152 48.0680561065674
v 2317.38998413086 172.170753479004 113.594007492065
v 2215.32989501953 178.238830566406 163.910884857178
v 2169.34219360352 216.451606750488 173.347549438477
v 2121.7692565918 416.923828125 123.067283630371
v 2215.15228271484 515.754280090332 38.0866765975952
v 2333.26538085938 473.755378723145 -7.09602892398834
cstype bspline
deg 1
curv 0 8 317 318 319 320 321 322 323 324
parm u 0 0 1 2 3 4 5 6 7
end
v 2343.57198038946 482.640981771791 7.98235541055249
v 2409.7087072134 240.134488662749 64.3802202847993
v 2327.4455152662 174.394588650922 131.28701238272
v 2223.35904481906 180.583141694603 182.602910467729
v 2176.50473014547 219.515988144754 192.217392112397
v 2127.79737557544 424.769112213337 140.738018550779
v 2222.99205839764 525.517015287487 54.1086962972653
v 2343.57198038946 482.640981771791 7.98235541055249
cstype bspline
deg 1
curv 0 8 325 326 327 328 329 330 331 332
parm u 0 0 1 2 3 4 5 6 7
end
v 1446.56494140625 516.929893493652 1.39949694275856
v 1601.18377685547 547.373046875 55.7558488845825
v 1653.23364257813 479.979057312012 108.900852203369
v 1624.48684692383 294.52615737915 179.488296508789
v 1496.70700073242 256.60924911499 140.293254852295
v 1372.07214355469 314.416828155518 59.5193004608154
v 1359.26620483398 375.488128662109 26.4760684967041
v 1446.56494140625 516.929893493652 1.39949694275856
cstype bspline
deg 1
curv 0 8 333 334 335 336 337 338 339 340
parm u 0 0 1 2 3 4 5 6 7
end
v 1438.07876126859 527.259963994712 16.6516936179485
v 1595.48437329518 558.251835701954 71.9877296810681
v 1648.67350336983 489.382734922592 126.295955712891
v 1619.27943954103 299.754284875342 198.472715739914
v 1489.00675688712 261.097650642762 158.51299585182
v 1361.80740693457 320.094723746214 76.077021899891
v 1348.72420036267 382.487677202158 42.3187023263007
v 1438.07876126859 527.259963994712 16.6516936179485
cstype bspline
deg 1
curv 0 8 341 342 343 344 345 346 347 348
parm u 0 0 1 2 3 4 5 6 7
end
v 1704.15420532227 -295.913352966309 157.158613204956
v 1817.19741821289 -297.073707580566 171.059112548828
v 1918.31802368164 -413.195419311523 113.164262771606
v 1790.22705078125 -554.855651855469 10.0392949581146
v 1603.8508605957 -429.957160949707 62.2793912887573
v 1704.15420532227 -295.913352966309 157.158613204956
cstype bspline
deg 1
curv 0 6 349 350 351 352 353 354
parm u 0 0 1 2 3 4 5
end
v 1700.8349973602 -303.316171574491 175.786694722801
v 1816.45114242987 -304.502944469189 190.003592751076
v 1919.90749086138 -423.306785261074 130.771517698546
v 1788.90383650904 -568.188163214919 25.3016410963465
v 1598.24295441936 -440.418389433638 78.7426698537025
v 1700.8349973602 -303.316171574491 175.786694722801
cstype bspline
deg 1
curv 0 6 355 356 357 358 359 360
parm u 0 0 1 2 3 4 5
end
v 2145.50247192383 630.969390869141 -15.2960312366486
v 1931.56433105469 599.71981048584 58.7698841094971
v 1908.32550048828 488.275756835938 133.594493865967
v 1936.0905456543 442.21378326416 154.957008361816
v 2121.7692565918 416.923828125 123.067283630371
v 2215.15228271484 515.754280090332 38.0866765975952
v 2145.50247192383 630.969390869141 -15.2960312366486
cstype bspline
deg 1
curv 0 7 361 362 363 364 365 366 367
parm u 0 0 1 2 3 4 5 6
end
v 2151.55296802684 643.691946853387 -0.645375827590975
v 1932.94119961697 611.759673931588 75.0385609215
v 1909.18958307667 497.855839476173 151.514681330164
v 1937.63181222663 450.670215870793 173.398321169042
v 2127.79737557544 424.769112213337 140.738018550779
v 2222.99205839764 525.517015287487 54.1086962972653
v 2151.55296802684 643.691946853387 -0.645375827590975
cstype bspline
deg 1
curv 0 7 368 369 370 371 372 373 374
parm u 0 0 1 2 3 4 5 6
end
v 2157.42477416992 678.408279418945 -65.5800628662109
v 1821.1735534668 711.654510498047 -32.3584246635437
v 1931.56433105469 599.71981048584 58.7698841094971
v 2145.50247192383 630.969390869141 -15.2960312366486
v 2157.42477416992 678.408279418945 -65.5800628662109
cstype bspline
deg 1
curv 0 5 375 376 377 378 379
parm u 0 0 1 2 3 4
end
v 2163.72759204659 692.134644834463 -51.9934451878969
v 1820.17532019327 726.10275783686 -18.0504590852935
v 1932.94119961697 611.759673931588 75.0385609215
v 2151.55296802684 643.691946853387 -0.645375827590975
v 2163.72759204659 692.134644834463 -51.9934451878969
cstype bspline
deg 1
curv 0 5 380 381 382 383 384
parm u 0 0 1 2 3 4
end
v 1950.87768554688 213.268985748291 220.792484283447
v 1894.90768432617 304.327564239502 205.26575088501
v 1936.0905456543 442.21378326416 154.957008361816
v 2121.7692565918 416.923828125 123.067283630371
v 2169.34219360352 216.451606750488 173.347549438477
v 1950.87768554688 213.268985748291 220.792484283447
cstype bspline
deg 1
curv 0 6 385 386 387 388 389 390
parm u 0 0 1 2 3 4 5
end
v 1952.89207764257 216.258367695454 240.780376970005
v 1895.5048291929 309.622730139994 224.86048069876
v 1937.63181222663 450.670215870793 173.398321169042
v 2127.79737557544 424.769112213337 140.738018550779
v 2176.50473014547 219.515988144754 192.217392112397
v 1952.89207764257 216.258367695454 240.780376970005
cstype bspline
deg 1
curv 0 6 391 392 393 394 395 396
parm u 0 0 1 2 3 4 5
end
v 1249.81575012207 396.962203979492 -78.9103507995605
v 1208.22418212891 173.841247558594 -37.1518015861511
v 1267.13714599609 167.073802947998 17.8790020942688
v 1372.07214355469 314.416828155518 59.5193004608154
v 1359.26620483398 375.488128662109 26.4760684967041
v 1249.81575012207 396.962203979492 -78.9103507995605
cstype bspline
deg 1
curv 0 6 397 398 399 400 401 402
parm u 0 0 1 2 3 4 5
end
v 1237.35512251637 404.338241078991 -64.9151928280539
v 1194.79981105836 176.047267708939 -22.1890298435627
v 1254.34775908585 169.206856134969 33.4349190103814
v 1361.80740693457 320.094723746214 76.077021899891
v 1348.72420036267 382.487677202158 42.3187023263007
v 1237.35512251637 404.338241078991 -64.9151928280539
cstype bspline
deg 1
curv 0 6 403 404 405 406 407 408
parm u 0 0 1 2 3 4 5
end
v 1568.27606201172 -130.852298736572 174.376220703125
v 1565.73577880859 -60.7575464248657 188.588237762451
v 1696.44622802734 32.6356863975525 224.298667907715
v 1872.35687255859 5.91786921024323 240.765762329102
v 1930.28121948242 -83.5542678833008 229.465255737305
v 1817.19741821289 -297.073707580566 171.059112548828
v 1704.15420532227 -295.913352966309 157.158613204956
v 1568.27606201172 -130.852298736572 174.376220703125
cstype bspline
deg 1
curv 0 8 409 410 411 412 413 414 415 416
parm u 0 0 1 2 3 4 5 6 7
end
v 1562.02495981309 -134.693680560711 193.375794796259
v 1559.43947984035 -63.3518034785406 207.840682670354
v 1692.96874775694 32.055458787009 244.321193374475
v 1872.79438802234 4.74302001828502 261.15478527449
v 1931.88956016406 -86.5377052543651 249.625844233261
v 1816.45114242987 -304.502944469189 190.003592751076
v 1700.8349973602 -303.316171574491 175.786694722801
v 1562.02495981309 -134.693680560711 193.375794796259
cstype bspline
deg 1
curv 0 8 417 418 419 420 421 422 423 424
parm u 0 0 1 2 3 4 5 6 7
end
v 2401.73522949219 -158.930778503418 36.863009929657
v 2317.38998413086 172.170753479004 113.594007492065
v 2215.32989501953 178.238830566406 163.910884857178
v 2086.27548217773 -107.104682922363 195.952987670898
v 2187.04391479492 -238.025398254395 132.807197570801
v 2275.70068359375 -237.656860351563 89.7062110900879
v 2401.73522949219 -158.930778503418 36.863009929657
cstype bspline
deg 1
curv 0 7 425 426 427 428 429 430 431
parm u 0 0 1 2 3 4 5 6
end
v 2413.53788563047 -163.565188157859 52.9666196298717
v 2327.4455152662 174.394588650922 131.28701238272
v 2223.35904481906 180.583141694603 182.602910467729
v 2091.63874718641 -110.654977409291 215.306922288523
v 2194.51232385665 -244.310718470155 150.841969063434
v 2284.87176918493 -243.935124830211 106.913218316065
v 2413.53788563047 -163.565188157859 52.9666196298717
cstype bspline
deg 1
curv 0 7 432 433 434 435 436 437 438
parm u 0 0 1 2 3 4 5 6
end
v 1409.09515380859 -273.859481811523 53.1171560287476
v 1272.22648620605 -135.874834060669 7.07150876522064
v 1343.55178833008 21.4921498298645 82.2174167633057
v 1448.2405090332 28.62224817276 142.573986053467
v 1565.73577880859 -60.7575464248657 188.588237762451
v 1568.27606201172 -130.852298736572 174.376220703125
v 1409.09515380859 -273.859481811523 53.1171560287476
cstype bspline
deg 1
curv 0 7 439 440 441 442 443 444 445
parm u 0 0 1 2 3 4 5 6
end
v 1399.22613056874 -280.951172775308 69.360713209088
v 1259.48855823212 -140.074172284126 22.3499031799293
v 1332.33013453557 20.6383315649333 99.0933420526162
v 1439.43953274657 27.9333109742517 160.845530883173
v 1559.43947984035 -63.3518034785406 207.840682670354
v 1562.02495981309 -134.693680560711 193.375794796259
v 1399.22613056874 -280.951172775308 69.360713209088
cstype bspline
deg 1
curv 0 7 446 447 448 449 450 451 452
parm u 0 0 1 2 3 4 5 6
end
v 1343.55178833008 21.4921498298645 82.2174167633057
v 1448.2405090332 28.62224817276 142.573986053467
v 1496.70700073242 256.60924911499 140.293254852295
v 1372.07214355469 314.416828155518 59.5193004608154
v 1267.13714599609 167.073802947998 17.8790020942688
v 1343.55178833008 21.4921498298645 82.2174167633057
cstype bspline
deg 1
curv 0 6 453 454 455 456 457 458
parm u 0 0 1 2 3 4 5
end
v 1332.33013453557 20.6383315649333 99.0933420526162
v 1439.43953274657 27.9333109742517 160.845530883173
v 1489.00675688712 261.097650642762 158.51299585182
v 1361.80740693457 320.094723746214 76.077021899891
v 1254.34775908585 169.206856134969 33.4349190103814
v 1332.33013453557 20.6383315649333 99.0933420526162
cstype bspline
deg 1
curv 0 6 459 460 461 462 463 464
parm u 0 0 1 2 3 4 5
end
v 1908.32550048828 488.275756835938 133.594493865967
v 1936.0905456543 442.21378326416 154.957008361816
v 1894.90768432617 304.327564239502 205.26575088501
v 1654.71633911133 273.49178314209 191.169490814209
v 1624.48684692383 294.52615737915 179.488296508789
v 1653.23364257813 479.979057312012 108.900852203369
v 1908.32550048828 488.275756835938 133.594493865967
cstype bspline
deg 1
curv 0 7 465 466 467 468 469 470 471
parm u 0 0 1 2 3 4 5 6
end
v 1909.18958307667 497.855839476173 151.514681330164
v 1937.63181222663 450.670215870793 173.398321169042
v 1895.5048291929 309.622730139994 224.86048069876
v 1650.33165888078 278.147390325256 210.471843769536
v 1619.27943954103 299.754284875342 198.472715739914
v 1648.67350336983 489.382734922592 126.295955712891
v 1909.18958307667 497.855839476173 151.514681330164
cstype bspline
deg 1
curv 0 7 472 473 474 475 476 477 478
parm u 0 0 1 2 3 4 5 6
end
v 1510.04440307617 -554.352149963379 -81.6430854797363
v 1540.73501586914 -437.086181640625 35.0431394577026
v 1427.39288330078 -348.466567993164 28.7755656242371
v 1301.79168701172 -437.527503967285 -130.606136322021
v 1323.67492675781 -483.303146362305 -152.730197906494
v 1510.04440307617 -554.352149963379 -81.6430854797363
cstype bspline
deg 1
curv 0 6 479 480 481 482 483 484
parm u 0 0 1 2 3 4 5
end
v 1502.9091164642 -566.362444879739 -67.0902075986128
v 1533.9710485275 -447.678019086356 51.0074768896742
v 1417.84925387727 -356.885140108925 44.586202922987
v 1291.34770415131 -446.584617013626 -115.938135291531
v 1314.21997837117 -494.429118993685 -139.062117583071
v 1502.9091164642 -566.362444879739 -67.0902075986128
cstype bspline
deg 1
curv 0 6 485 486 487 488 489 490
parm u 0 0 1 2 3 4 5
end
