# type_plates_name_side_to_side_edge_inplane_hexshell.xml
v -574.484989140568 -574.3002410107 -182.36992052296
v -620.030313568357 -480.440928048971 -136.145310982658
v -527.510392033695 -476.289296728602 -53.7226675830861
v -431.548038673354 -637.846046202962 -118.351304735817
v -574.484989140568 -574.3002410107 -182.36992052296
cstype bspline
deg 1
curv 0 5 1 2 3 4 5
parm u 0 0 1 2 3 4
end
v -545.760732961157 -545.585221804336 -211.068945668358
v -589.02880627416 -456.418843359166 -167.155551273147
v -501.134802343458 -452.474790083503 -88.853970134991
v -409.970515944893 -605.953787450417 -150.251209579797
v -545.760732961157 -545.585221804336 -211.068945668358
cstype bspline
deg 1
curv 0 5 6 7 8 9 10
parm u 0 0 1 2 3 4
end
v -224.289059789013 -691.253531281928 -65.0967340319943
v -125.301566925984 -566.359296275121 58.4806333206543
v 125.182348714766 -566.359296275103 58.4806333206429
v 212.578706735105 -691.253531281938 -65.0967340319949
v -224.289059789013 -691.253531281928 -65.0967340319943
cstype bspline
deg 1
curv 0 5 11 12 13 14 15
parm u 0 0 1 2 3 4
end
v -213.074629171119 -656.690861180069 -99.6594040644834
v -119.036503919577 -538.041329051593 17.7391036989757
v 118.923247339251 -538.041329051593 17.7391036989695
v 201.949793666867 -656.690861180075 -99.6594040644741
v -213.074629171119 -656.690861180069 -99.6594040644834
cstype bspline
deg 1
curv 0 5 16 17 18 19 20
parm u 0 0 1 2 3 4
end
v 456.308957452104 -628.504370966548 -127.534194276963
v 523.009873470823 -466.370468228677 -45.1030277549762
v 622.145614429799 -472.434039677777 -134.185754239257
v 574.882374216166 -574.852237463485 -181.916426727708
v 456.308957452104 -628.504370966548 -127.534194276963
cstype bspline
deg 1
curv 0 5 21 22 23 24 25
parm u 0 0 1 2 3 4
end
v 433.49339300067 -597.079194869562 -158.974955894471
v 496.859300870688 -443.051895744975 -80.6653011666822
v 591.038343533495 -448.812294050062 -165.293971078467
v 546.138248474326 -546.10961847342 -210.638126965423
v 433.49339300067 -597.079194869562 -158.974955894471
cstype bspline
deg 1
curv 0 5 26 27 28 29 30
parm u 0 0 1 2 3 4
end
v -431.100369948195 -638.599715757184 -118.652800255575
v -527.51039203367 -476.289296728624 -53.722667583108
v -481.982175929625 -362.650576025873 39.7847294863859
v -234.425892510197 -365.822877266364 142.949867731757
v -125.30156692598 -566.359296275114 58.4806333206179
v -223.832489809836 -690.677469027694 -64.5267456990732
v -431.100369948195 -638.599715757184 -118.652800255575
cstype bspline
deg 1
curv 0 7 31 32 33 34 35 36 37
parm u 0 0 1 2 3 4 5 6
end
v -409.545233191522 -606.669769258238 -150.537628615919
v -501.134802343455 -452.474790083492 -88.8539701349982
v -457.88303230804 -344.518093433642 -0.0220153442314768
v -222.704586934589 -347.531779306155 97.984856039413
v -119.036503919568 -538.041329051586 17.7391036989393
v -212.64088603326 -656.143599947085 -99.1179130787823
v -409.545233191522 -606.669769258238 -150.537628615919
cstype bspline
deg 1
curv 0 7 38 39 40 41 42 43 44
parm u 0 0 1 2 3 4 5 6
end
v 212.525989520887 -691.178195463697 -65.0221925442784
v 125.182348714754 -566.359296275084 58.4806333206616
v 238.785417738436 -380.979209446035 136.565771605874
v 478.593446146704 -374.909290068535 36.9151819550134
v 523.009873470823 -466.370468228706 -45.1030277549689
v 455.692071614067 -630.003872239351 -128.296561906613
v 212.525989520887 -691.178195463697 -65.0221925442784
cstype bspline
deg 1
curv 0 7 45 46 47 48 49 50 51
parm u 0 0 1 2 3 4 5 6
end
v 201.899711015016 -656.619290297356 -99.588587815324
v 118.923247339244 -538.041329051579 17.7391036989757
v 226.846134356645 -361.930293160804 91.919965442572
v 454.663740459167 -356.163870280812 -2.74808604688224
v 496.859300870696 -443.051895744953 -80.6653011666604
v 432.907352941656 -598.503717463893 -159.699203304805
v 201.899711015016 -656.619290297356 -99.588587815324
cstype bspline
deg 1
curv 0 7 52 53 54 55 56 57 58
parm u 0 0 1 2 3 4 5 6
end
v -481.982175929647 -362.65057602587 39.7847294864296
v -527.51039203367 -476.289296728602 -53.7226675830352
v -620.400840627721 -480.457554649161 -136.475400104839
v -698.045963064244 -172.509450228055 -57.8837895739453
v -595.888518798736 -174.723008669443 29.8993441258317
v -481.982175929647 -362.65057602587 39.7847294864296
cstype bspline
deg 1
curv 0 6 59 60 61 62 63 64
parm u 0 0 1 2 3 4 5
end
v -457.883032308047 -344.518093433624 -0.022015344195097
v -501.134802343469 -452.474790083506 -88.853970134991
v -589.380806532725 -456.434638609237 -167.469135540294
v -663.14366341928 -163.883976802201 -92.8071150790238
v -566.094086532623 -165.986857426264 -9.4131339100386
v -457.883032308047 -344.518093433624 -0.022015344195097
cstype bspline
deg 1
curv 0 6 65 66 67 68 69 70
parm u 0 0 1 2 3 4 5
end
v -125.301566925988 -566.359296275103 58.4806333206429
v -234.425892510219 -365.822877266393 142.949867731815
v -149.707479032426 -204.102979474039 211.068945668343
v 150.115860257228 -204.102979474031 211.068945668334
v 238.785417738403 -380.97920944609 136.565771605874
v 125.182348714748 -566.359296275114 58.4806333206616
v -125.301566925988 -566.359296275103 58.4806333206429
cstype bspline
deg 1
curv 0 7 71 72 73 74 75 76 77
parm u 0 0 1 2 3 4 5 6
end
v -119.036503919564 -538.041329051593 17.7391036989695
v -222.704586934582 -347.531779306177 97.9848560394275
v -142.222101906471 -193.897891246761 162.697973826882
v 142.610063050876 -193.897891246754 162.697973826856
v 226.846134356638 -361.930293160829 91.9199654426011
v 118.923247339248 -538.041329051601 17.739103699012
v -119.036503919564 -538.041329051593 17.7391036989695
cstype bspline
deg 1
curv 0 7 78 79 80 81 82 83 84
parm u 0 0 1 2 3 4 5 6
end
v 478.593446146697 -374.909290068521 36.9151819550789
v 596.483664152198 -174.710112996203 29.387940140452
v 698.045963064258 -172.509450228064 -57.8837895739453
v 622.419639949716 -472.450800265877 -134.431991773763
v 523.009873470819 -466.370468228688 -45.1030277549398
v 478.593446146697 -374.909290068521 36.9151819550789
cstype bspline
deg 1
curv 0 6 85 86 87 88 89 90
parm u 0 0 1 2 3 4 5
end
v 454.663740459171 -356.163870280812 -2.74808604688951
v 566.659474369517 -165.974606542077 -9.89896748226965
v 663.143663419294 -163.883976802201 -92.8071150790092
v 591.298667242372 -448.828216576017 -165.527896255506
v 496.85930087071 -443.051895744978 -80.6653011666822
v 454.663740459171 -356.163870280812 -2.74808604688951
cstype bspline
deg 1
curv 0 6 91 92 93 94 95 96
parm u 0 0 1 2 3 4 5
end
v -481.982175929617 -362.650576025902 39.7847294864296
v -595.888518798711 -174.723008669462 29.8993441258172
v -515.847643186236 -5.42816315726193e-12 98.6778745193405
v -247.813900105568 -2.82249797540213e-13 211.068945668358
v -149.707479032415 -204.102979474033 211.068945668334
v -234.425892510215 -365.822877266368 142.949867731786
v -481.982175929617 -362.650576025902 39.7847294864296
cstype bspline
deg 1
curv 0 7 97 98 99 100 101 102 103
parm u 0 0 1 2 3 4 5 6
end
v -457.883032308011 -344.518093433639 -0.0220153442242008
v -566.094086532605 -165.986857426258 -9.41313391004587
v -490.055255071653 -3.60917375371607e-12 55.9264696450664
v -235.423231125016 -2.82249797540213e-13 162.697973826867
v -142.222101906464 -193.897891246761 162.697973826856
v -222.704586934573 -347.531779306151 97.9848560393839
v -457.883032308011 -344.518093433639 -0.0220153442242008
cstype bspline
deg 1
curv 0 7 104 105 106 107 108 109 110
parm u 0 0 1 2 3 4 5 6
end
v 238.785417738407 -380.979209446064 136.565771605932
v 150.115860257225 -204.102979474024 211.068945668329
v 252.07094562639 2.88050533756442e-14 211.068945668334
v 512.707290061495 2.88050533756442e-14 101.376356653414
v 596.483664152198 -174.710112996217 29.3879401404811
v 478.593446146675 -374.909290068546 36.9151819550716
v 238.785417738407 -380.979209446064 136.565771605932
cstype bspline
deg 1
curv 0 7 111 112 113 114 115 116 117
parm u 0 0 1 2 3 4 5 6
end
v 226.84613435663 -361.930293160811 91.9199654426011
v 142.610063050874 -193.897891246746 162.697973826853
v 239.467424496095 -9.06614196435364e-12 162.697973826856
v 487.07191936906 -2.70004146374575e-13 58.4900278736568
v 566.659474369524 -165.97460654209 -9.8989674822551
v 454.66374045916 -356.163870280805 -2.74808604689679
v 226.84613435663 -361.930293160811 91.9199654426011
cstype bspline
deg 1
curv 0 7 118 119 120 121 122 123 124
parm u 0 0 1 2 3 4 5 6
end
v -515.847643186236 9.38299755148572e-13 98.6778745193405
v -595.888518798696 -174.723008669443 29.8993441258463
v -698.269025917718 -172.50461687827 -58.075465828475
v -698.269025917714 172.504616878271 -58.0754658284666
v -595.888518798711 174.723008669444 29.8993441258463
v -515.847643186236 9.38299755148572e-13 98.6778745193405
cstype bspline
deg 1
curv 0 6 125 126 127 128 129 130
parm u 0 0 1 2 3 4 5
end
v -490.05525507166 -8.80689648397284e-13 55.9264696450664
v -566.094086532612 -165.986857426265 -9.41313391003132
v -663.355573138695 -163.87938511971 -92.9892075282296
v -663.355573138699 163.879385119709 -92.9892075282214
v -566.094086532612 165.986857426265 -9.41313391003496
v -490.05525507166 -8.80689648397284e-13 55.9264696450664
cstype bspline
deg 1
curv 0 6 131 132 133 134 135 136
parm u 0 0 1 2 3 4 5
end
v -149.707479032417 -204.102979474031 211.068945668334
v -247.813900105557 2.88050533756442e-14 211.068945668334
v -149.707479032419 204.102979474032 211.068945668334
v 150.115860257227 204.102979474032 211.068945668334
v 252.07094562639 2.88050533756442e-14 211.068945668334
v 150.115860257225 -204.102979474032 211.068945668334
v -149.707479032417 -204.102979474031 211.068945668334
cstype bspline
deg 1
curv 0 7 137 138 139 140 141 142 143
parm u 0 0 1 2 3 4 5 6
end
v -142.222101906467 -193.897891246754 162.697973826856
v -235.423231125009 -1.79018435017021e-12 162.697973826856
v -142.222101906467 193.897891246754 162.697973826856
v 142.610063050874 193.897891246754 162.697973826856
v 239.467424496099 2.88050533756442e-14 162.697973826856
v 142.610063050874 -193.897891246754 162.697973826856
v -142.222101906467 -193.897891246754 162.697973826856
cstype bspline
deg 1
curv 0 7 144 145 146 147 148 149 150
parm u 0 0 1 2 3 4 5 6
end
v 512.707290061487 2.88050533756442e-14 101.3763566534
v 596.483664152198 174.710112996198 29.3879401404956
v 698.269025917718 172.50461687827 -58.0754658284604
v 698.269025917714 -172.504616878271 -58.0754658284666
v 596.483664152169 -174.710112996198 29.3879401404702
v 512.707290061487 2.88050533756442e-14 101.3763566534
cstype bspline
deg 1
curv 0 6 151 152 153 154 155 156
parm u 0 0 1 2 3 4 5
end
v 487.071919369031 2.88050533756442e-14 58.490027873584
v 566.659474369517 165.974606542073 -9.89896748224055
v 663.355573138702 163.87938511971 -92.989207528215
v 663.355573138699 -163.879385119709 -92.9892075282214
v 566.659474369495 -165.974606542073 -9.89896748227329
v 487.071919369031 2.88050533756442e-14 58.490027873584
cstype bspline
deg 1
curv 0 6 157 158 159 160 161 162
parm u 0 0 1 2 3 4 5
end
v -515.847643186229 -2.82249797540213e-13 98.677874519326
v -595.888518798711 174.723008669465 29.8993441258317
v -481.982175929632 362.650576025888 39.7847294864296
v -234.425892510233 365.822877266393 142.949867731801
v -149.70747903243 204.102979474032 211.068945668358
v -247.813900105561 -3.60917375371607e-12 211.068945668334
v -515.847643186229 -2.82249797540213e-13 98.677874519326
cstype bspline
deg 1
curv 0 7 163 164 165 166 167 168 169
parm u 0 0 1 2 3 4 5 6
end
v -490.055255071653 -2.82249797540213e-13 55.9264696450518
v -566.094086532605 165.986857426245 -9.41313391001677
v -457.883032308055 344.518093433642 -0.0220153441805451
v -222.704586934568 347.531779306162 97.9848560393693
v -142.222101906475 193.897891246761 162.697973826882
v -235.423231125013 -3.60917375371607e-12 162.697973826856
v -490.055255071653 -2.82249797540213e-13 55.9264696450518
cstype bspline
deg 1
curv 0 7 170 171 172 173 174 175 176
parm u 0 0 1 2 3 4 5 6
end
v 252.070945626394 2.88050533756442e-14 211.068945668329
v 150.115860257229 204.102979474028 211.068945668334
v 238.785417738392 380.979209446061 136.565771605874
v 478.593446146689 374.909290068536 36.9151819550862
v 596.483664152183 174.71011299621 29.3879401404665
v 512.707290061487 -4.518668455489e-12 101.376356653385
v 252.070945626394 2.88050533756442e-14 211.068945668329
cstype bspline
deg 1
curv 0 7 177 178 179 180 181 182 183
parm u 0 0 1 2 3 4 5 6
end
v 239.467424496077 -2.70004146374575e-13 162.697973826809
v 142.610063050874 193.89789124675 162.697973826856
v 226.846134356634 361.930293160822 91.9199654426011
v 454.663740459146 356.163870280798 -2.74808604694044
v 566.659474369517 165.974606542084 -9.89896748228421
v 487.071919369031 -1.36136154732183e-11 58.4900278735913
v 239.467424496077 -2.70004146374575e-13 162.697973826809
cstype bspline
deg 1
curv 0 7 184 185 186 187 188 189 190
parm u 0 0 1 2 3 4 5 6
end
v -481.982175929632 362.650576025859 39.784729486415
v -595.888518798725 174.72300866944 29.8993441258172
v -698.045963064265 172.509450228064 -57.8837895739453
v -622.419639949716 472.450800265862 -134.431991773763
v -523.549742081399 466.403488932032 -45.5881501468357
v -481.982175929632 362.650576025859 39.784729486415
cstype bspline
deg 1
curv 0 6 191 192 193 194 195 196
parm u 0 0 1 2 3 4 5
end
v -457.883032308033 344.518093433624 -0.0220153442169249
v -566.094086532583 165.986857426251 -9.41313391004587
v -663.143663419287 163.883976802199 -92.8071150790165
v -591.298667242372 448.82821657601 -165.527896255506
v -497.372182127652 443.083265784859 -81.1261728995923
v -457.883032308033 344.518093433624 -0.0220153442169249
cstype bspline
deg 1
curv 0 6 197 198 199 200 201 202
parm u 0 0 1 2 3 4 5
end
v -149.707479032431 204.102979474032 211.068945668334
v -234.425892510215 365.822877266382 142.949867731772
v -125.301566925988 566.359296275092 58.4806333206179
v 125.182348714774 566.359296275103 58.4806333206429
v 238.785417738396 380.979209446072 136.565771605903
v 150.115860257229 204.102979474032 211.068945668329
v -149.707479032431 204.102979474032 211.068945668334
cstype bspline
deg 1
curv 0 7 203 204 205 206 207 208 209
parm u 0 0 1 2 3 4 5 6
end
v -142.222101906477 193.897891246754 162.697973826856
v -222.704586934571 347.531779306155 97.9848560393693
v -119.036503919575 538.041329051586 17.7391036989538
v 118.923247339229 538.041329051593 17.7391036989695
v 226.846134356645 361.930293160833 91.919965442572
v 142.610063050874 193.89789124675 162.697973826853
v -142.222101906477 193.897891246754 162.697973826856
cstype bspline
deg 1
curv 0 7 210 211 212 213 214 215 216
parm u 0 0 1 2 3 4 5 6
end
v 478.593446146689 374.909290068517 36.9151819550716
v 527.833816799553 476.303809715275 -54.010794979873
v 620.400840627721 480.457554649162 -136.475400104846
v 698.045963064258 172.509450228063 -57.8837895739453
v 596.483664152187 174.710112996197 29.387940140452
v 478.593446146689 374.909290068517 36.9151819550716
cstype bspline
deg 1
curv 0 6 217 218 219 220 221 222
parm u 0 0 1 2 3 4 5
end
v 454.663740459175 356.16387028079 -2.74808604689679
v 501.442050442129 452.488577177228 -89.1276863255443
v 589.380806532739 456.434638609237 -167.469135540279
v 663.14366341928 163.883976802201 -92.8071150790092
v 566.659474369513 165.974606542072 -9.89896748228421
v 454.663740459175 356.16387028079 -2.74808604689679
cstype bspline
deg 1
curv 0 6 223 224 225 226 227 228
parm u 0 0 1 2 3 4 5
end
v -481.982175929639 362.650576025881 39.7847294863859
v -523.549742081406 466.40348893205 -45.588150146843
v -441.383344164577 636.01603422498 -121.33810211263
v -223.832489809829 690.677469027723 -64.5267456990441
v -125.301566925989 566.359296275114 58.4806333206398
v -234.425892510215 365.822877266401 142.949867731815
v -481.982175929639 362.650576025881 39.7847294863859
cstype bspline
deg 1
curv 0 7 229 230 231 232 233 234 235
parm u 0 0 1 2 3 4 5 6
end
v -457.883032308047 344.518093433639 -0.0220153441805451
v -497.372182127667 443.083265784888 -81.1261728996142
v -419.314061867226 604.215271006156 -153.088666207939
v -212.640886033285 656.143599947092 -99.117913078775
v -119.036503919577 538.041329051615 17.7391036989611
v -222.704586934564 347.531779306184 97.984856039413
v -457.883032308047 344.518093433639 -0.0220153441805451
cstype bspline
deg 1
curv 0 7 236 237 238 239 240 241 242
parm u 0 0 1 2 3 4 5 6
end
v 238.785417738385 380.979209446065 136.565771605874
v 125.182348714767 566.359296275106 58.4806333206179
v 212.525989520891 691.178195463697 -65.0221925442929
v 446.072896532874 632.423808936524 -125.793551487546
v 527.833816799539 476.30380971526 -54.0107949799312
v 478.593446146704 374.909290068532 36.9151819550643
v 238.785417738385 380.979209446065 136.565771605874
cstype bspline
deg 1
curv 0 7 243 244 245 246 247 248 249
parm u 0 0 1 2 3 4 5 6
end
v 226.846134356696 361.93029316084 91.9199654426448
v 118.92324733924 538.041329051586 17.7391036989975
v 201.899711015034 656.619290297371 -99.5885878153094
v 423.769133403861 600.802658133936 -157.321342571235
v 501.442050442136 452.488577177253 -89.1276863255516
v 454.663740459182 356.163870280816 -2.74808604691134
v 226.846134356696 361.93029316084 91.9199654426448
cstype bspline
deg 1
curv 0 7 250 251 252 253 254 255 256
parm u 0 0 1 2 3 4 5 6
end
v -622.145614429821 472.434039677777 -134.185754239235
v -574.882374216166 574.852237463481 -181.916426727708
v -441.853705587484 635.045087461258 -120.904471625046
v -523.549742081414 466.403488932047 -45.588150146843
v -622.145614429821 472.434039677777 -134.185754239235
cstype bspline
deg 1
curv 0 5 257 258 259 260 261
parm u 0 0 1 2 3 4
end
v -591.038343533481 448.81229405004 -165.293971078489
v -546.138248474326 546.10961847342 -210.638126965419
v -419.760903180919 603.292875787636 -152.676719123654
v -497.372182127656 443.083265784837 -81.1261728996433
v -591.038343533481 448.81229405004 -165.293971078489
cstype bspline
deg 1
curv 0 5 262 263 264 265 266
parm u 0 0 1 2 3 4
end
v -125.301566925983 566.359296275103 58.4806333206429
v -224.289059789015 691.253531281938 -65.0967340319803
v 212.578706735109 691.253531281928 -65.0967340319943
v 125.182348714765 566.359296275106 58.480633320647
v -125.301566925983 566.359296275103 58.4806333206429
cstype bspline
deg 1
curv 0 5 267 268 269 270 271
parm u 0 0 1 2 3 4
end
v -119.036503919565 538.041329051593 17.7391036989695
v -213.07462917114 656.690861180061 -99.6594040644886
v 201.94979366688 656.690861180069 -99.6594040644834
v 118.923247339246 538.041329051593 17.7391036989684
v -119.036503919565 538.041329051593 17.7391036989695
cstype bspline
deg 1
curv 0 5 272 273 274 275 276
parm u 0 0 1 2 3 4
end
v 527.833816799579 476.303809715271 -54.0107949798985
v 446.779506987747 631.074557689106 -125.17317630017
v 574.484989140568 574.3002410107 -182.36992052296
v 620.030313568357 480.440928048978 -136.145310982651
v 527.833816799579 476.303809715271 -54.0107949798985
cstype bspline
deg 1
curv 0 5 277 278 279 280 281
parm u 0 0 1 2 3 4
end
v 501.44205044214 452.488577177228 -89.1276863255553
v 424.440411420946 599.520873105517 -156.731987824587
v 545.760732961156 545.585221804336 -211.068945668358
v 589.028806274167 456.418843359152 -167.155551273147
v 501.44205044214 452.488577177228 -89.1276863255553
cstype bspline
deg 1
curv 0 5 282 283 284 285 286
parm u 0 0 1 2 3 4
end
