# a floor and a wall mitred at a right angle, the oracle's out-of-plane fixture: ss_e_op_5 puts material outside both stocks here by 2024's construction
v 0 0 0
v 300 0 0
v 300 400 0
v 0 400 0
v 0 0 0
cstype bspline
deg 1
curv 0 5 1 2 3 4 5
end
v 0 0 40
v 260 0 40
v 260 400 40
v 0 400 40
v 0 0 40
cstype bspline
deg 1
curv 0 5 6 7 8 9 10
end
v 300 0 0
v 300 400 0
v 300 400 300
v 300 0 300
v 300 0 0
cstype bspline
deg 1
curv 0 5 11 12 13 14 15
end
v 260 0 40
v 260 400 40
v 260 400 300
v 260 0 300
v 260 0 40
cstype bspline
deg 1
curv 0 5 16 17 18 19 20
end
