# type_plates_name_side_to_side_edge_outofplane_tetra.xml
v 384.813350756865 384.813343286534 384.813342115643
v -384.813372978741 384.813374955951 -384.813349950548
v 384.813360847095 -384.813358869886 -384.813349950548
v 384.813350756865 384.813343286534 384.813342115643
cstype bspline
deg 1
curv 0 4 1 2 3 4
parm u 0 0 1 2 3
end
v 333.333343073492 333.333335603161 333.333337759265
v -333.33334001379 333.333326205254 -333.333354725923
v 333.333333675585 -333.333347484121 -333.333354725923
v 333.333343073492 333.333335603161 333.333337759265
cstype bspline
deg 1
curv 0 4 5 6 7 8
parm u 0 0 1 2 3
end
v -384.813346723719 384.813341966536 -384.813351124992
v -384.81335053777 -384.813352514979 384.813347170574
v 384.813343943745 -384.813348700928 -384.813351124992
v -384.813346723719 384.813341966536 -384.813351124992
cstype bspline
deg 1
curv 0 4 9 10 11 12
parm u 0 0 1 2 3
end
v -333.333347360769 333.333345930582 -333.333343441618
v -333.333355313145 -333.333357290354 333.333367731694
v 333.333347907791 -333.333349337978 -333.333343441618
v -333.333347360769 333.333345930582 -333.333343441618
cstype bspline
deg 1
curv 0 4 13 14 15 16
parm u 0 0 1 2 3
end
v 384.813356892677 384.813358869886 384.813351124991
v -384.813376933159 -384.81337495595 384.813351124991
v -384.813345263743 384.813348779656 -384.813340941199
v 384.813356892677 384.813358869886 384.813351124991
cstype bspline
deg 1
curv 0 4 17 18 19 20
parm u 0 0 1 2 3
end
v 333.333345506912 333.333331698376 333.333355900367
v -333.333328182463 -333.333341990999 333.333355900367
v -333.33333758037 333.333341096283 -333.333336584821
v 333.333345506912 333.333331698376 333.333355900367
cstype bspline
deg 1
curv 0 4 21 22 23 24
parm u 0 0 1 2 3
end
v -384.813356892677 -384.813362824304 384.813351124991
v 384.81337693316 384.813371001533 384.813351124991
v 384.813345263743 -384.813352734074 -384.813340941199
v -384.813356892677 -384.813362824304 384.813351124991
cstype bspline
deg 1
curv 0 4 25 26 27 28
parm u 0 0 1 2 3
end
v -333.333345506912 -333.333335652794 333.333355900367
v 333.333328182463 333.333338036581 333.333355900367
v 333.33333758037 -333.333345050701 -333.333336584821
v -333.333345506912 -333.333335652794 333.333355900367
cstype bspline
deg 1
curv 0 4 29 30 31 32
parm u 0 0 1 2 3
end
