# type_plates_name_side_to_side_edge_outofplane_octahedron.xml
v -4.58118287873101e-06 1092.79002920627 1.4437408495034e-05
v 1092.79000052358 2.41015091685239e-05 1.4437408495034e-05
v -3.09586721449075e-06 4.00763839501626e-06 1092.79003815073
v -4.58118287873101e-06 1092.79002920627 1.4437408495034e-05
cstype bspline
deg 1
curv 0 4 1 2 3 4
parm u 0 0 1 2 3
end
v 3.08852349568885e-07 1000.00000715683 -7.87890358856937e-06
v 1000.00000005332 7.41235790223248e-06 -7.87890358856937e-06
v -4.94681131961509e-07 6.60882450596721e-06 999.999993472632
v 3.08852349568885e-07 1000.00000715683 -7.87890358856937e-06
cstype bspline
deg 1
curv 0 4 5 6 7 8
parm u 0 0 1 2 3
end
v 1092.79002920627 -4.58118287873101e-06 -1.44374086946828e-05
v 2.41015091685239e-05 1092.79000052358 -1.44374086946828e-05
v 4.00763839501626e-06 -3.09586721449075e-06 -1092.79003815073
v 1092.79002920627 -4.58118287873101e-06 -1.44374086946828e-05
cstype bspline
deg 1
curv 0 4 9 10 11 12
parm u 0 0 1 2 3
end
v 1000.00000715683 3.08852349568885e-07 7.8789033889206e-06
v 7.41235790223248e-06 1000.00000005332 7.8789033889206e-06
v 6.60882450596721e-06 -4.94681131961509e-07 -999.999993472632
v 1000.00000715683 3.08852349568885e-07 7.8789033889206e-06
cstype bspline
deg 1
curv 0 4 13 14 15 16
parm u 0 0 1 2 3
end
v -3.09586721449075e-06 -4.00763859466503e-06 1092.79003815073
v 1092.79000052358 -2.41015093681727e-05 1.4437408495034e-05
v -4.58118287873101e-06 -1092.79002920627 1.4437408495034e-05
v -3.09586721449075e-06 -4.00763859466503e-06 1092.79003815073
cstype bspline
deg 1
curv 0 4 17 18 19 20
parm u 0 0 1 2 3
end
v -4.94681131961509e-07 -6.60882470561598e-06 999.999993472632
v 1000.00000005332 -7.41235810188125e-06 -7.87890358856937e-06
v 3.08852349568885e-07 -1000.00000715683 -7.87890358856937e-06
v -4.94681131961509e-07 -6.60882470561598e-06 999.999993472632
cstype bspline
deg 1
curv 0 4 21 22 23 24
parm u 0 0 1 2 3
end
v 1092.79003340667 -6.72271851022567e-06 1.06688806021514e-06
v 1.4437408495034e-05 -1.44374086946828e-05 -1092.79001018768
v 6.7227183105769e-06 -1092.79003340667 1.06688806021514e-06
v 1092.79003340667 -6.72271851022567e-06 1.06688806021514e-06
cstype bspline
deg 1
curv 0 4 25 26 27 28
parm u 0 0 1 2 3
end
v 1000.00002047766 2.24251817964995e-05 -1.5342980223141e-06
v -7.87890358856937e-06 7.8789033889206e-06 -1000.00001534458
v -2.24251819961483e-05 -1000.00002047766 -1.5342980223141e-06
v 1000.00002047766 2.24251817964995e-05 -1.5342980223141e-06
cstype bspline
deg 1
curv 0 4 29 30 31 32
parm u 0 0 1 2 3
end
v -6.72271851022567e-06 1092.79003340667 -1.06688825986391e-06
v -1.44374086946828e-05 1.4437408495034e-05 1092.79001018768
v -1092.79003340667 6.7227183105769e-06 -1.06688825986391e-06
v -6.72271851022567e-06 1092.79003340667 -1.06688825986391e-06
cstype bspline
deg 1
curv 0 4 33 34 35 36
parm u 0 0 1 2 3
end
v 2.24251817964995e-05 1000.00002047766 1.53429782266533e-06
v 7.8789033889206e-06 -7.87890358856937e-06 1000.00001534458
v -1000.00002047766 -2.24251819961483e-05 1.53429782266533e-06
v 2.24251817964995e-05 1000.00002047766 1.53429782266533e-06
cstype bspline
deg 1
curv 0 4 37 38 39 40
parm u 0 0 1 2 3
end
v -4.00763859466503e-06 -3.09586721449075e-06 -1092.79003815073
v -2.41015093681727e-05 1092.79000052358 -1.44374086946828e-05
v -1092.79002920627 -4.58118287873101e-06 -1.44374086946828e-05
v -4.00763859466503e-06 -3.09586721449075e-06 -1092.79003815073
cstype bspline
deg 1
curv 0 4 41 42 43 44
parm u 0 0 1 2 3
end
v -6.60882470561598e-06 -4.94681131961509e-07 -999.999993472632
v -7.41235810188125e-06 1000.00000005332 7.8789033889206e-06
v -1000.00000715683 3.08852349568885e-07 7.8789033889206e-06
v -6.60882470561598e-06 -4.94681131961509e-07 -999.999993472632
cstype bspline
deg 1
curv 0 4 45 46 47 48
parm u 0 0 1 2 3
end
v -6.72271839653883e-06 -1092.79003340667 -1.06688825986391e-06
v -1.44374086378394e-05 -1.44374086378394e-05 1092.79001018768
v -1092.79003340667 -6.72271851022567e-06 -1.06688825986391e-06
v -6.72271839653883e-06 -1092.79003340667 -1.06688825986391e-06
cstype bspline
deg 1
curv 0 4 49 50 51 52
parm u 0 0 1 2 3
end
v 2.24251819101864e-05 -1000.00002047766 1.53429782266533e-06
v 7.87890344576401e-06 7.87890344576401e-06 1000.00001534458
v -1000.00002047766 2.24251817964995e-05 1.53429782266533e-06
v 2.24251819101864e-05 -1000.00002047766 1.53429782266533e-06
cstype bspline
deg 1
curv 0 4 53 54 55 56
parm u 0 0 1 2 3
end
v 4.58118267908224e-06 -1092.79002920627 -1.4437408580996e-05
v -1092.79000052358 -2.41015093681727e-05 -1.4437408580996e-05
v 3.09586701484198e-06 -4.00763859466503e-06 -1092.79003815073
v 4.58118267908224e-06 -1092.79002920627 -1.4437408580996e-05
cstype bspline
deg 1
curv 0 4 57 58 59 60
parm u 0 0 1 2 3
end
v -3.08852549217657e-07 -1000.00000715683 7.87890350260743e-06
v -1000.00000005332 -7.41235810188125e-06 7.87890350260743e-06
v 4.94680932312737e-07 -6.60882470561598e-06 -999.999993472632
v -3.08852549217657e-07 -1000.00000715683 7.87890350260743e-06
cstype bspline
deg 1
curv 0 4 61 62 63 64
parm u 0 0 1 2 3
end
