# type_plates_name_side_to_side_edge_outofplane_box.xml
v -410.914361442733 -410.914304254645 -303.875
v -410.914361442733 -410.914304254645 303.875
v 410.914373908829 -410.914304254645 303.875
v 410.914373908829 -410.914304254645 -303.875
v -410.914361442733 -410.914304254645 -303.875
cstype bspline
deg 1
curv 0 5 1 2 3 4 5
parm u 0 0 1 2 3 4
end
v -367.114312614608 -367.114255426521 -260.074993133545
v -367.114312614608 -367.114255426521 260.074981689453
v 367.114325080704 -367.114255426521 260.074981689453
v 367.114325080704 -367.114255426521 -260.074993133545
v -367.114312614608 -367.114255426521 -260.074993133545
cstype bspline
deg 1
curv 0 5 6 7 8 9 10
parm u 0 0 1 2 3 4
end
v 410.914379889342 -410.914309026604 303.874985100058
v 410.914379889342 410.914288995857 303.874985100058
v 410.914379889342 410.914288995857 -303.874984382363
v 410.914379889342 -410.914309026604 -303.874984382363
v 410.914379889342 -410.914309026604 303.874985100058
cstype bspline
deg 1
curv 0 5 11 12 13 14 15
parm u 0 0 1 2 3 4
end
v 367.114331061217 -367.114252569085 260.07499730709
v 367.114331061217 367.114240167732 260.07499730709
v 367.114331061217 367.114240167732 -260.074996589395
v 367.114331061217 -367.114252569085 -260.074996589395
v 367.114331061217 -367.114252569085 260.07499730709
cstype bspline
deg 1
curv 0 5 16 17 18 19 20
parm u 0 0 1 2 3 4
end
v 410.914382934571 410.914309026605 303.874985100058
v -410.91438293457 410.914309026605 303.874985100058
v -410.91438293457 410.914309026605 -303.874984382364
v 410.914382934571 410.914309026605 -303.874984382364
v 410.914382934571 410.914309026605 303.874985100058
cstype bspline
deg 1
curv 0 5 21 22 23 24 25
parm u 0 0 1 2 3 4
end
v 367.114334106446 367.114260198479 260.074997307089
v -367.114334106445 367.114260198479 260.074997307089
v -367.114334106445 367.114260198479 -260.074996589396
v 367.114334106446 367.114260198479 -260.074996589396
v 367.114334106446 367.114260198479 260.074997307089
cstype bspline
deg 1
curv 0 5 26 27 28 29 30
parm u 0 0 1 2 3 4
end
v -410.91435546222 -410.914309026604 -303.874984382363
v -410.91435546222 410.914288995857 -303.874984382363
v -410.91435546222 410.914288995857 303.874985100058
v -410.91435546222 -410.914309026604 303.874985100058
v -410.91435546222 -410.914309026604 -303.874984382363
cstype bspline
deg 1
curv 0 5 31 32 33 34 35
parm u 0 0 1 2 3 4
end
v -367.114306634095 -367.114252569085 -260.074996589395
v -367.114306634095 367.114240167732 -260.074996589395
v -367.114306634095 367.114240167732 260.07499730709
v -367.114306634095 -367.114252569085 260.07499730709
v -367.114306634095 -367.114252569085 -260.074996589395
cstype bspline
deg 1
curv 0 5 36 37 38 39 40
parm u 0 0 1 2 3 4
end
v 410.914380114508 410.914309026605 -303.874996548105
v -410.91434760766 410.914309026605 -303.874996548105
v -410.91434760766 -410.914304254645 -303.874996548105
v 410.914380114508 -410.914304254645 -303.874996548105
v 410.914380114508 410.914309026605 -303.874996548105
cstype bspline
deg 1
curv 0 5 41 42 43 44 45
parm u 0 0 1 2 3 4
end
v 367.114331286383 367.11426019848 -260.074993496347
v -367.114298779535 367.11426019848 -260.074993496347
v -367.114298779535 -367.11425542652 -260.074993496347
v 367.114331286383 -367.11425542652 -260.074993496347
v 367.114331286383 367.11426019848 -260.074993496347
cstype bspline
deg 1
curv 0 5 46 47 48 49 50
parm u 0 0 1 2 3 4
end
v 410.914380114508 -410.914304254645 303.874972934317
v -410.91434760766 -410.914304254645 303.874972934317
v -410.91434760766 410.914309026604 303.874972934317
v 410.914380114508 410.914309026604 303.874972934317
v 410.914380114508 -410.914304254645 303.874972934317
cstype bspline
deg 1
curv 0 5 51 52 53 54 55
parm u 0 0 1 2 3 4
end
v 367.114331286383 -367.11425542652 260.074985141348
v -367.114298779535 -367.11425542652 260.074985141348
v -367.114298779535 367.114260198479 260.074985141348
v 367.114331286383 367.114260198479 260.074985141348
v 367.114331286383 -367.11425542652 260.074985141348
cstype bspline
deg 1
curv 0 5 56 57 58 59 60
parm u 0 0 1 2 3 4
end
