# type_beams_name_phanomema_node.xml
v 1515.6900668678 147.230332996318 25.0814586697325
v 2667.35279287788 2592.61140256139 -5451.97668882373
cstype bspline
deg 1
curv 0 2 1 2
parm u 0 0 1
end
v -562.484288106731 -4265.4576112566 9908.42796781505
v 1515.6900668678 147.230332996318 25.0814586697325
cstype bspline
deg 1
curv 0 2 3 4
parm u 0 0 1
end
v 1607.17582656903 341.486463594076 -410.004972656968
v -16235.4272966571 3086.57299393509 -4847.0979756921
cstype bspline
deg 1
curv 0 2 5 6
parm u 0 0 1
end
v -1458.68078974524 470.740985115292 25.0814586697315
v 4490.06092348084 -176.280319122627 25.0814586697325
cstype bspline
deg 1
curv 0 2 7 8
parm u 0 0 1
end
v 19260.0024556229 -3187.17984169966 175.081458669692
v 1484.14952005417 80.2587671379442 175.081458669714
cstype bspline
deg 1
curv 0 2 9 10
parm u 0 0 1
end
v 1484.14952005417 80.2587671379442 175.081458669714
v -15767.6787964333 682.527726337721 175.081458669712
cstype bspline
deg 1
curv 0 2 11 12
parm u 0 0 1
end
