# type_plates_name_side_to_side_edge_inplane_outofplane_simple_corners_combined.xml
v 302.62144518501 4.29267453544887 -259.874976962907
v -217.128501409228 -43.138203150098 -259.874976962907
v -217.128501409228 -515.457294946973 -259.874976962907
v 302.62144518501 -515.457294946973 -259.874976962907
v 302.62144518501 4.29267453544887 -259.874976962907
cstype bspline
deg 1
curv 0 5 1 2 3 4 5
parm u 0 0 1 2 3 4
end
v 241.821607118909 -1.25575686103551 -199.075141757828
v -217.128501409228 -43.138203150098 -199.075141757828
v -217.128501409228 -515.457294946973 -199.075141757828
v 241.821607118909 -515.457294946973 -199.075141757828
v 241.821607118909 -1.25575686103551 -199.075141757828
cstype bspline
deg 1
curv 0 5 6 7 8 9 10
parm u 0 0 1 2 3 4
end
v 302.62144598034 4.29266182373186 -259.874968216213
v 302.62144598034 -515.457300029296 -259.874968216213
v 302.62144598034 -515.457300029296 259.874970748631
v 302.62144598034 4.29266182373186 259.874970748631
v 302.62144598034 4.29266182373186 -259.874968216213
cstype bspline
deg 1
curv 0 5 11 12 13 14 15
parm u 0 0 1 2 3 4
end
v 241.821606960564 -1.25575431396345 -199.075148269924
v 241.821606960564 -515.457300029296 -199.075148269924
v 241.821606960564 -515.457300029296 259.874970748631
v 241.821606960564 -1.25575431396345 259.874970748631
v 241.821606960564 -1.25575431396345 -199.075148269924
cstype bspline
deg 1
curv 0 5 16 17 18 19 20
parm u 0 0 1 2 3 4
end
v -302.621459960937 421.379054866331 -259.874976962907
v -217.128494262695 -43.1382047314469 -259.874976962907
v 302.621459960938 4.2926729541 -259.874976962907
v 208.543197631836 515.457300029295 -259.874976962907
v -302.621459960937 421.379054866331 -259.874976962907
cstype bspline
deg 1
curv 0 5 21 22 23 24 25
parm u 0 0 1 2 3 4
end
v -302.621459960937 421.379054866331 -199.075141757829
v -217.128494262695 -43.1382047314469 -199.075141757829
v 241.821594238281 -1.25575844238438 -199.075141757829
v 148.747650146484 504.452112041014 -199.075141757829
v -302.621459960937 421.379054866331 -199.075141757829
cstype bspline
deg 1
curv 0 5 26 27 28 29 30
parm u 0 0 1 2 3 4
end
v 208.543192594852 515.457294775669 259.874977111816
v 208.543192594852 515.457294775669 -259.874977111817
v 302.621445461713 4.29266240026865 -259.874977111817
v 302.621445461713 4.29266240026865 259.874977111816
v 208.543192594852 515.457294775669 259.874977111816
cstype bspline
deg 1
curv 0 5 31 32 33 34 35
parm u 0 0 1 2 3 4
end
v 148.7476526625 504.452112329455 259.874977111816
v 148.7476526625 504.452112329455 -199.075141906738
v 241.821606509598 -1.25575313540668 -199.075141906738
v 241.821606509598 -1.25575313540668 259.874977111816
v 148.7476526625 504.452112329455 259.874977111816
cstype bspline
deg 1
curv 0 5 36 37 38 39 40
parm u 0 0 1 2 3 4
end
