# type_plates_name_side_to_side_edge_inplane_outofplane_simple_corners.xml
v -1988.69482480591 -190.693172312757 623.41189604992
v -1988.69482480591 -688.929531048278 711.264436474076
v -2485.86865293091 -688.929531048278 711.264436474076
v -2485.86865293091 -190.693172312757 623.41189604992
v -1988.69482480591 -190.693172312757 623.41189604992
cstype bspline
deg 1
curv 0 5 1 2 3 4 5
parm u 0 0 1 2 3 4
end
v -1988.69482480591 -208.057979711505 524.931119874458
v -1988.69482480591 -697.678398125294 611.264434666463
v -2485.86865293091 -697.678398125294 611.264434666463
v -2485.86865293091 -208.057979711505 524.931119874458
v -1988.69482480591 -208.057979711505 524.931119874458
cstype bspline
deg 1
curv 0 5 6 7 8 9 10
parm u 0 0 1 2 3 4
end
v -2485.86865161536 -688.929522358945 711.264435012834
v -1988.69482349036 -688.929522358945 711.264435012834
v -1988.69482349036 -1194.78554997327 712.024017535246
v -2485.86865161536 -1194.78554997327 712.024017535246
v -2485.86865161536 -688.929522358945 711.264435012834
cstype bspline
deg 1
curv 0 5 11 12 13 14 15
parm u 0 0 1 2 3 4
end
v -2485.86865161536 -697.678383741374 611.264437270153
v -1988.69482349036 -697.678383741374 611.264437270153
v -1988.69482349036 -1194.85197890581 611.264437697013
v -2485.86865161536 -1194.85197890581 611.264437697013
v -2485.86865161536 -697.678383741374 611.264437270153
cstype bspline
deg 1
curv 0 5 16 17 18 19 20
parm u 0 0 1 2 3 4
end
v -1242.93408261841 -24.2274112879206 -706.431148885795
v -1242.93408261841 194.661513415757 -105.038760513612
v -1740.10791074341 194.661513415757 -105.038760513612
v -1740.10791074341 -24.2274112879206 -706.431148885795
v -1242.93408261841 -24.2274112879206 -706.431148885795
cstype bspline
deg 1
curv 0 5 21 22 23 24 25
parm u 0 0 1 2 3 4
end
v -1242.93408261841 -118.19664684272 -672.229154081645
v -1242.93408261841 51.8467454597583 -205.038794036975
v -1740.10791074341 51.8467454597583 -205.038794036975
v -1740.10791074341 -118.19664684272 -672.229154081645
v -1242.93408261841 -118.19664684272 -672.229154081645
cstype bspline
deg 1
curv 0 5 26 27 28 29 30
parm u 0 0 1 2 3 4
end
v -1740.10791074341 -445.32686645643 -105.038787642808
v -1740.10791074341 194.661475828727 -105.038787642808
v -1242.93408261841 194.661475828727 -105.038787642808
v -1242.93408261841 -445.32686645643 -105.038787642808
v -1740.10791074341 -445.32686645643 -105.038787642808
cstype bspline
deg 1
curv 0 5 31 32 33 34 35
parm u 0 0 1 2 3 4
end
v -1740.10791074341 -445.32686645643 -205.038787642807
v -1740.10791074341 51.8467480455236 -205.038787642807
v -1242.93408261841 51.8467480455236 -205.038787642807
v -1242.93408261841 -445.32686645643 -205.038787642807
v -1740.10791074341 -445.32686645643 -205.038787642807
cstype bspline
deg 1
curv 0 5 36 37 38 39 40
parm u 0 0 1 2 3 4
end
v -497.174324149513 -110.137508152135 -685.603760368929
v -497.174324149513 225.051825520943 -105.038783909916
v -994.347175712013 225.051825520943 -105.038783909916
v -994.347175712013 -110.137508152135 -685.603760368929
v -497.174324149513 -110.137508152135 -685.603760368929
cstype bspline
deg 1
curv 0 5 41 42 43 44 45
parm u 0 0 1 2 3 4
end
v -497.174324149513 -196.740050231641 -635.603758489408
v -497.174324149513 51.8467499436586 -205.038782963908
v -994.347175712013 51.8467499436586 -205.038782963908
v -994.347175712013 -196.740050231641 -635.603758489408
v -497.174324149513 -196.740050231641 -635.603758489408
cstype bspline
deg 1
curv 0 5 46 47 48 49 50
parm u 0 0 1 2 3 4
end
v -994.347175712019 -445.326869382951 -105.038787642808
v -994.347175712019 225.051823244002 -105.038787642808
v -497.174324149519 225.051823244002 -105.038787642808
v -497.174324149519 -445.326869382951 -105.038787642808
v -994.347175712019 -445.326869382951 -105.038787642808
cstype bspline
deg 1
curv 0 5 51 52 53 54 55
parm u 0 0 1 2 3 4
end
v -994.347175712019 -445.326869382951 -205.038787642808
v -994.347175712019 51.8467451190019 -205.038787642808
v -497.174324149519 51.8467451190019 -205.038787642808
v -497.174324149519 -445.326869382951 -205.038787642808
v -994.347175712019 -445.326869382951 -205.038787642808
cstype bspline
deg 1
curv 0 5 56 57 58 59 60
parm u 0 0 1 2 3 4
end
v 248.586425194093 -191.125847659719 -650.174618624886
v 248.586425194093 266.297444758231 -105.038768665653
v -248.587402930907 266.297444758231 -105.038768665653
v -248.587402930907 -191.125847659719 -650.174618624886
v 248.586425194093 -191.125847659719 -650.174618624886
cstype bspline
deg 1
curv 0 5 61 62 63 64 65
parm u 0 0 1 2 3 4
end
v 248.586425194093 -267.730311786097 -585.895877864633
v 248.586425194093 51.8467460487662 -205.038788873127
v -248.587402930907 51.8467460487662 -205.038788873127
v -248.587402930907 -267.730311786097 -585.895877864633
v 248.586425194093 -267.730311786097 -585.895877864633
cstype bspline
deg 1
curv 0 5 66 67 68 69 70
parm u 0 0 1 2 3 4
end
v -248.587402930907 -445.326865948614 -105.038787642808
v -248.587402930907 266.297401629511 -105.038787642808
v 248.586425194093 266.297401629511 -105.038787642808
v 248.586425194093 -445.326865948614 -105.038787642808
v -248.587402930907 -445.326865948614 -105.038787642808
cstype bspline
deg 1
curv 0 5 71 72 73 74 75
parm u 0 0 1 2 3 4
end
v -248.587402930907 -445.326865948614 -205.038787642808
v -248.587402930907 51.8467485533389 -205.038787642808
v 248.586425194093 51.8467485533389 -205.038787642808
v 248.586425194093 -445.326865948614 -205.038787642808
v -248.587402930907 -445.326865948614 -205.038787642808
cstype bspline
deg 1
curv 0 5 76 77 78 79 80
parm u 0 0 1 2 3 4
end
v 994.347167381595 -264.731596300687 -601.220278128743
v 994.347167381595 326.594508082466 -105.038769902152
v 497.173339256595 326.594508082466 -105.038769902152
v 497.173339256595 -264.731596300687 -601.220278128743
v 994.347167381595 -264.731596300687 -601.220278128743
cstype bspline
deg 1
curv 0 5 81 82 83 84 85
parm u 0 0 1 2 3 4
end
v 994.347167381595 -329.010342054458 -524.615812817147
v 994.347167381595 51.8467439955087 -205.038787084385
v 497.173339256595 51.8467439955087 -205.038787084385
v 497.173339256595 -329.010342054458 -524.615812817147
v 994.347167381595 -329.010342054458 -524.615812817147
cstype bspline
deg 1
curv 0 5 86 87 88 89 90
parm u 0 0 1 2 3 4
end
v 497.173339256591 -445.326871631719 -105.038787642808
v 497.173339256591 326.594515087031 -105.038787642808
v 994.347167381591 326.594515087031 -105.038787642808
v 994.347167381591 -445.326871631719 -105.038787642808
v 497.173339256591 -445.326871631719 -105.038787642808
cstype bspline
deg 1
curv 0 5 91 92 93 94 95
parm u 0 0 1 2 3 4
end
v 497.173339256591 -445.326871631719 -205.038787642808
v 497.173339256591 51.846742870234 -205.038787642808
v 994.347167381591 51.846742870234 -205.038787642808
v 994.347167381591 -445.326871631719 -205.038787642808
v 497.173339256591 -445.326871631719 -205.038787642808
cstype bspline
deg 1
curv 0 5 96 97 98 99 100
parm u 0 0 1 2 3 4
end
v 1740.10693202973 -328.718232778939 -540.228137475735
v 1740.10693202973 425.051768876703 -105.038783863413
v 1242.93408046723 425.051768876703 -105.038783863413
v 1242.93408046723 -328.718232778939 -540.228137475735
v 1740.10693202973 -328.718232778939 -540.228137475735
cstype bspline
deg 1
curv 0 5 101 102 103 104 105
parm u 0 0 1 2 3 4
end
v 1740.10693202973 -378.718224576093 -453.62559266565
v 1740.10693202973 51.8467523542164 -205.03877966476
v 1242.93408046723 51.8467523542164 -205.03877966476
v 1242.93408046723 -378.718224576093 -453.62559266565
v 1740.10693202973 -378.718224576093 -453.62559266565
cstype bspline
deg 1
curv 0 5 106 107 108 109 110
parm u 0 0 1 2 3 4
end
v 1242.93408046723 -445.32686203346 -105.038787642808
v 1242.93408046723 425.051769558337 -105.038787642808
v 1740.10693202973 425.051769558337 -105.038787642808
v 1740.10693202973 -445.32686203346 -105.038787642808
v 1242.93408046723 -445.32686203346 -105.038787642808
cstype bspline
deg 1
curv 0 5 111 112 113 114 115
parm u 0 0 1 2 3 4
end
v 1242.93408046723 -445.32686203346 -205.038787642808
v 1242.93408046723 51.846752468493 -205.038787642808
v 1740.10693202973 51.846752468493 -205.038787642808
v 1740.10693202973 -445.32686203346 -205.038787642808
v 1242.93408046723 -445.32686203346 -205.038787642808
cstype bspline
deg 1
curv 0 5 116 117 118 119 120
parm u 0 0 1 2 3 4
end
v -2734.45556337378 151.846745240757 -702.212399437499
v -2734.45556337378 151.846745240757 -105.038800194335
v -3231.62841493628 151.846745240757 -105.038800194335
v -3231.62841493628 151.846745240757 -702.212399437499
v -2734.45556337378 151.846745240757 -702.212399437499
cstype bspline
deg 1
curv 0 5 121 122 123 124 125
parm u 0 0 1 2 3 4
end
v -2734.45556337378 51.8467452407568 -702.212399437499
v -2734.45556337378 51.8467452407568 -205.038800194335
v -3231.62841493628 51.8467452407568 -205.038800194335
v -3231.62841493628 51.8467452407568 -702.212399437499
v -2734.45556337378 51.8467452407568 -702.212399437499
cstype bspline
deg 1
curv 0 5 126 127 128 129 130
parm u 0 0 1 2 3 4
end
v -3231.62841493629 -445.326868458589 -105.038787642808
v -3231.62841493629 151.84673841397 -105.038787642808
v -2734.45556337379 151.84673841397 -105.038787642808
v -2734.45556337379 -445.326868458589 -105.038787642808
v -3231.62841493629 -445.326868458589 -105.038787642808
cstype bspline
deg 1
curv 0 5 131 132 133 134 135
parm u 0 0 1 2 3 4
end
v -3231.62841493629 -445.326868458589 -205.038787642808
v -3231.62841493629 51.8467384139695 -205.038787642808
v -2734.45556337379 51.8467384139695 -205.038787642808
v -2734.45556337379 -445.326868458589 -205.038787642808
v -3231.62841493629 -445.326868458589 -205.038787642808
cstype bspline
deg 1
curv 0 5 136 137 138 139 140
parm u 0 0 1 2 3 4
end
v -1988.69482480591 63.9942061076819 -712.024017535245
v -1988.69482480591 171.022100901462 -105.038778246638
v -2485.86865293091 171.022100901462 -105.038778246638
v -2485.86865293091 63.9942061076819 -712.024017535245
v -1988.69482480591 63.9942061076819 -712.024017535245
cstype bspline
deg 1
curv 0 5 141 142 143 144 145
parm u 0 0 1 2 3 4
end
v -1988.69482480591 -34.4865698557962 -694.659211663992
v -1988.69482480591 51.8467439397931 -205.038800821598
v -2485.86865293091 51.8467439397931 -205.038800821598
v -2485.86865293091 -34.4865698557962 -694.659211663992
v -1988.69482480591 -34.4865698557962 -694.659211663992
cstype bspline
deg 1
curv 0 5 146 147 148 149 150
parm u 0 0 1 2 3 4
end
v -2485.86865293091 -445.326867943501 -105.038787642808
v -2485.86865293091 171.022092932964 -105.038787642808
v -1988.69482480591 171.022092932964 -105.038787642808
v -1988.69482480591 -445.326867943501 -105.038787642808
v -2485.86865293091 -445.326867943501 -105.038787642808
cstype bspline
deg 1
curv 0 5 151 152 153 154 155
parm u 0 0 1 2 3 4
end
v -2485.86865293091 -445.326867943501 -205.038787642808
v -2485.86865293091 51.846738929058 -205.038787642808
v -1988.69482480591 51.846738929058 -205.038787642808
v -1988.69482480591 -445.326867943501 -205.038787642808
v -2485.86865293091 -445.326867943501 -205.038787642808
cstype bspline
deg 1
curv 0 5 156 157 158 159 160
parm u 0 0 1 2 3 4
end
v 2485.86767519409 -381.141628216869 -469.051437417301
v 2485.86767519409 618.974845433084 -105.038792229066
v 1988.69384706909 618.974845433084 -105.038792229066
v 1988.69384706909 -381.141628216869 -469.051437417301
v 2485.86767519409 -381.141628216869 -469.051437417301
cstype bspline
deg 1
curv 0 5 161 162 163 164 165
parm u 0 0 1 2 3 4
end
v 2485.86767519409 -415.343626335047 -375.082178638547
v 2485.86767519409 51.8467367757731 -205.038794760249
v 1988.69384706909 51.8467367757731 -205.038794760249
v 1988.69384706909 -415.343626335047 -375.082178638547
v 2485.86767519409 -415.343626335047 -375.082178638547
cstype bspline
deg 1
curv 0 5 166 167 168 169 170
parm u 0 0 1 2 3 4
end
v 1988.69384706909 -445.32687041356 -105.038787642808
v 1988.69384706909 618.974841622573 -105.038787642808
v 2485.86767519409 618.974841622573 -105.038787642808
v 2485.86767519409 -445.32687041356 -105.038787642808
v 1988.69384706909 -445.32687041356 -105.038787642808
cstype bspline
deg 1
curv 0 5 171 172 173 174 175
parm u 0 0 1 2 3 4
end
v 1988.69384706909 -445.32687041356 -205.038787642808
v 1988.69384706909 51.8467593471823 -205.038787642808
v 2485.86767519409 51.8467593471823 -205.038787642808
v 2485.86767519409 -445.32687041356 -205.038787642808
v 1988.69384706909 -445.32687041356 -205.038787642808
cstype bspline
deg 1
curv 0 5 176 177 178 179 180
parm u 0 0 1 2 3 4
end
v 3231.62841738159 -420.408871762375 -389.852851980566
v 3231.62841738159 1194.85198875934 -105.038777851317
v 2734.45458925659 1194.85198875934 -105.038777851317
v 2734.45458925659 -420.408871762375 -389.852851980566
v 3231.62841738159 -420.408871762375 -389.852851980566
cstype bspline
deg 1
curv 0 5 181 182 183 184 185
parm u 0 0 1 2 3 4
end
v 3231.62841738159 -437.77368950352 -291.372079669714
v 3231.62841738159 51.8467402245226 -205.038785108094
v 2734.45458925659 51.8467402245226 -205.038785108094
v 2734.45458925659 -437.77368950352 -291.372079669714
v 3231.62841738159 -437.77368950352 -291.372079669714
cstype bspline
deg 1
curv 0 5 186 187 188 189 190
parm u 0 0 1 2 3 4
end
v 2734.45458925659 -445.326864375338 -105.038787642808
v 2734.45458925659 1194.85187707974 -105.038787642808
v 3231.62841738159 1194.85187707974 -105.038787642808
v 3231.62841738159 -445.326864375338 -105.038787642808
v 2734.45458925659 -445.326864375338 -105.038787642808
cstype bspline
deg 1
curv 0 5 191 192 193 194 195
parm u 0 0 1 2 3 4
end
v 2734.45458925659 -445.326864375338 -205.038787642808
v 2734.45458925659 51.8467501266156 -205.038787642808
v 3231.62841738159 51.8467501266156 -205.038787642808
v 3231.62841738159 -445.326864375338 -205.038787642808
v 2734.45458925659 -445.326864375338 -205.038787642808
cstype bspline
deg 1
curv 0 5 196 197 198 199 200
parm u 0 0 1 2 3 4
end
v -497.174316794506 -217.113400460392 449.280183041105
v -497.174316794506 -670.883459552038 711.264427977169
v -994.347168357006 -670.883459552038 711.264427977169
v -994.347168357006 -217.113400460392 449.280183041105
v -497.174316794506 -217.113400460392 449.280183041105
cstype bspline
deg 1
curv 0 5 201 202 203 204 205
parm u 0 0 1 2 3 4
end
v -497.174316794506 -267.113430137894 362.677642726858
v -497.174316794506 -697.678397621738 611.264441571928
v -994.347168357006 -697.678397621738 611.264441571928
v -994.347168357006 -267.113430137894 362.677642726858
v -497.174316794506 -267.113430137894 362.677642726858
cstype bspline
deg 1
curv 0 5 206 207 208 209 210
parm u 0 0 1 2 3 4
end
v -994.347168356997 -1194.85198249161 711.264435013442
v -994.347168356997 -670.88346900284 711.264435013442
v -497.174316794497 -670.88346900284 711.264435013442
v -497.174316794497 -1194.85198249161 711.264435013442
v -994.347168356997 -1194.85198249161 711.264435013442
cstype bspline
deg 1
curv 0 5 211 212 213 214 215
parm u 0 0 1 2 3 4
end
v -994.347168356997 -1194.85198249161 611.264435013443
v -994.347168356997 -697.67839087784 611.264435013443
v -497.174316794497 -697.67839087784 611.264435013443
v -497.174316794497 -1194.85198249161 611.264435013443
v -994.347168356997 -1194.85198249161 611.264435013443
cstype bspline
deg 1
curv 0 5 216 217 218 219 220
parm u 0 0 1 2 3 4
end
v 248.586425194091 -252.542565504227 368.291838121107
v 248.586425194091 -661.281357062008 711.264426211116
v -248.587402930909 -661.281357062008 711.264426211116
v -248.587402930909 -252.542565504227 368.291838121107
v 248.586425194091 -252.542565504227 368.291838121107
cstype bspline
deg 1
curv 0 5 221 222 223 224 225
parm u 0 0 1 2 3 4
end
v 248.586425194091 -316.821316782333 291.687408936961
v 248.586425194091 -697.678398048635 611.264440370673
v -248.587402930909 -697.678398048635 611.264440370673
v -248.587402930909 -316.821316782333 291.687408936961
v 248.586425194091 -316.821316782333 291.687408936961
cstype bspline
deg 1
curv 0 5 226 227 228 229 230
parm u 0 0 1 2 3 4
end
v -248.587402930907 -1194.8519837017 711.264435013442
v -248.587402930907 -661.281381284711 711.264435013442
v 248.586425194093 -661.281381284711 711.264435013442
v 248.586425194093 -1194.8519837017 711.264435013442
v -248.587402930907 -1194.8519837017 711.264435013442
cstype bspline
deg 1
curv 0 5 231 232 233 234 235
parm u 0 0 1 2 3 4
end
v -248.587402930907 -1194.8519837017 611.264435013442
v -248.587402930907 -697.67838445854 611.264435013442
v 248.586425194093 -697.67838445854 611.264435013442
v 248.586425194093 -1194.8519837017 611.264435013442
v -248.587402930907 -1194.8519837017 611.264435013442
cstype bspline
deg 1
curv 0 5 236 237 238 239 240
parm u 0 0 1 2 3 4
end
v 994.347167381591 -301.49691198065 294.686125447053
v 994.347167381591 -651.047625858297 711.264435092502
v 497.173339256591 -651.047625858297 711.264435092502
v 497.173339256591 -301.49691198065 294.686125447053
v 994.347167381591 -301.49691198065 294.686125447053
cstype bspline
deg 1
curv 0 5 241 242 243 244 245
parm u 0 0 1 2 3 4
end
v 994.347167381591 -378.101346398175 230.407319980283
v 994.347167381591 -697.678385759298 611.264434432566
v 497.173339256591 -697.678385759298 611.264434432566
v 497.173339256591 -378.101346398175 230.407319980283
v 994.347167381591 -378.101346398175 230.407319980283
cstype bspline
deg 1
curv 0 5 246 247 248 249 250
parm u 0 0 1 2 3 4
end
v 497.173339256593 -1194.85198192831 711.264435013442
v 497.173339256593 -651.047614862882 711.264435013442
v 994.347167381593 -651.047614862882 711.264435013442
v 994.347167381593 -1194.85198192831 711.264435013442
v 497.173339256593 -1194.85198192831 711.264435013442
cstype bspline
deg 1
curv 0 5 251 252 253 254 255
parm u 0 0 1 2 3 4
end
v 497.173339256593 -1194.85198192831 611.264435013442
v 497.173339256593 -697.678382685148 611.264435013442
v 994.347167381593 -697.678382685148 611.264435013442
v 994.347167381593 -1194.85198192831 611.264435013442
v 497.173339256593 -1194.85198192831 611.264435013442
cstype bspline
deg 1
curv 0 5 256 257 258 259 260
parm u 0 0 1 2 3 4
end
v 2485.86767519409 -433.66573521009 178.276058807664
v 2485.86767519409 -627.657629014562 711.264421228958
v 1988.69384706909 -627.657629014562 711.264421228958
v 1988.69384706909 -433.66573521009 178.276058807664
v 2485.86767519409 -433.66573521009 178.276058807664
cstype bspline
deg 1
curv 0 5 261 262 263 264 265
parm u 0 0 1 2 3 4
end
v 2485.86767519409 -527.635005744806 144.07406750993
v 2485.86767519409 -697.678388268592 611.264422994721
v 1988.69384706909 -697.678388268592 611.264422994721
v 1988.69384706909 -527.635005744806 144.07406750993
v 2485.86767519409 -527.635005744806 144.07406750993
cstype bspline
deg 1
curv 0 5 266 267 268 269 270
parm u 0 0 1 2 3 4
end
v 1988.69384706909 -1194.85198263527 711.264435013442
v 1988.69384706909 -627.657623809584 711.264435013442
v 2485.86767519409 -627.657623809584 711.264435013442
v 2485.86767519409 -1194.85198263527 711.264435013442
v 1988.69384706909 -1194.85198263527 711.264435013442
cstype bspline
deg 1
curv 0 5 271 272 273 274 275
parm u 0 0 1 2 3 4
end
v 1988.69384706909 -1194.85198263527 611.264435013442
v 1988.69384706909 -697.678375762709 611.264435013442
v 2485.86767519409 -697.678375762709 611.264435013442
v 2485.86767519409 -1194.85198263527 611.264435013442
v 1988.69384706909 -1194.85198263527 611.264435013442
cstype bspline
deg 1
curv 0 5 276 277 278 279 280
parm u 0 0 1 2 3 4
end
v 3231.62841738159 -512.864329780317 139.008820867796
v 3231.62841738159 -613.768429720772 711.264444210473
v 2734.45458925659 -613.768429720772 711.264444210473
v 2734.45458925659 -512.864329780317 139.008820867796
v 3231.62841738159 -512.864329780317 139.008820867796
cstype bspline
deg 1
curv 0 5 281 282 283 284 285
parm u 0 0 1 2 3 4
end
v 3231.62841738159 -611.345101219679 121.644012517524
v 3231.62841738159 -697.678387271397 611.264435999002
v 2734.45458925659 -697.678387271397 611.264435999002
v 2734.45458925659 -611.345101219679 121.644012517524
v 3231.62841738159 -611.345101219679 121.644012517524
cstype bspline
deg 1
curv 0 5 286 287 288 289 290
parm u 0 0 1 2 3 4
end
v 2734.45458925659 -1194.85198875934 711.264435013442
v 2734.45458925659 -613.768431630431 711.264435013442
v 3231.62841738159 -613.768431630431 711.264435013442
v 3231.62841738159 -1194.85198875934 711.264435013442
v 2734.45458925659 -1194.85198875934 711.264435013442
cstype bspline
deg 1
curv 0 5 291 292 293 294 295
parm u 0 0 1 2 3 4
end
v 2734.45458925659 -1194.85198875934 611.264435013443
v 2734.45458925659 -697.678404774962 611.264435013443
v 3231.62841738159 -697.678404774962 611.264435013443
v 3231.62841738159 -1194.85198875934 611.264435013443
v 2734.45458925659 -1194.85198875934 611.264435013443
cstype bspline
deg 1
curv 0 5 296 297 298 299 300
parm u 0 0 1 2 3 4
end
v -3231.62841738159 -697.678396359543 711.264435013442
v -2734.45556581909 -697.678396359543 711.264435013442
v -2734.45556581909 -1194.85198034392 711.264435013442
v -3231.62841738159 -1194.85198034392 711.264435013442
v -3231.62841738159 -697.678396359543 711.264435013442
cstype bspline
deg 1
curv 0 5 301 302 303 304 305
parm u 0 0 1 2 3 4
end
v -3231.62841738159 -697.678396359543 611.264435013442
v -2734.45556581909 -697.678396359543 611.264435013442
v -2734.45556581909 -1194.85198034392 611.264435013442
v -3231.62841738159 -1194.85198034392 611.264435013442
v -3231.62841738159 -697.678396359543 611.264435013442
cstype bspline
deg 1
curv 0 5 306 307 308 309 310
parm u 0 0 1 2 3 4
end
v -2734.45556220672 -200.504815039595 711.264435013442
v -2734.45556220672 -697.678391394575 711.264435013442
v -3231.62841376922 -697.678391394575 711.264435013442
v -3231.62841376922 -200.504815039595 711.264435013442
v -2734.45556220672 -200.504815039595 711.264435013442
cstype bspline
deg 1
curv 0 5 311 312 313 314 315
parm u 0 0 1 2 3 4
end
v -2734.45556220672 -200.504815039595 611.264435013443
v -2734.45556220672 -697.678391394575 611.264435013443
v -3231.62841376922 -697.678391394575 611.264435013443
v -3231.62841376922 -200.504815039595 611.264435013443
v -2734.45556220672 -200.504815039595 611.264435013443
cstype bspline
deg 1
curv 0 5 316 317 318 319 320
parm u 0 0 1 2 3 4
end
v -1242.93408261841 -196.286003299118 535.190276233997
v -1242.93408261841 -680.045692898013 711.2644368232
v -1740.10791074341 -680.045692898013 711.2644368232
v -1740.10791074341 -196.286003299118 535.190276233997
v -1242.93408261841 -196.286003299118 535.190276233997
cstype bspline
deg 1
curv 0 5 321 322 323 324 325
parm u 0 0 1 2 3 4
end
v -1242.93408261841 -230.488030784675 441.2210423727
v -1242.93408261841 -697.6783752516 611.264432860965
v -1740.10791074341 -697.6783752516 611.264432860965
v -1740.10791074341 -230.488030784675 441.2210423727
v -1242.93408261841 -230.488030784675 441.2210423727
cstype bspline
deg 1
curv 0 5 326 327 328 329 330
parm u 0 0 1 2 3 4
end
v 1740.10693793865 -362.489039845022 230.69943287284
v 1740.10693793865 -639.943362258569 711.264434619012
v 1242.93408637615 -639.943362258569 711.264434619012
v 1242.93408637615 -362.489039845022 230.69943287284
v 1740.10693793865 -362.489039845022 230.69943287284
cstype bspline
deg 1
curv 0 5 331 332 333 334 335
parm u 0 0 1 2 3 4
end
v 1740.10693793865 -449.091578086709 180.699459638083
v 1740.10693793865 -697.678392498653 611.264444563386
v 1242.93408637615 -697.678392498653 611.264444563386
v 1242.93408637615 -449.091578086709 180.699459638083
v 1740.10693793865 -449.091578086709 180.699459638083
cstype bspline
deg 1
curv 0 5 336 337 338 339 340
parm u 0 0 1 2 3 4
end
v 1242.93407651205 -1194.85198434708 711.264435013442
v 1242.93407651205 -639.943369234776 711.264435013442
v 1740.10692807455 -639.943369234776 711.264435013442
v 1740.10692807455 -1194.85198434708 711.264435013442
v 1242.93407651205 -1194.85198434708 711.264435013442
cstype bspline
deg 1
curv 0 5 341 342 343 344 345
parm u 0 0 1 2 3 4
end
v 1242.93407651205 -1194.85198434708 611.264435013443
v 1242.93407651205 -697.678385103917 611.264435013443
v 1740.10692807455 -697.678385103917 611.264435013443
v 1740.10692807455 -1194.85198434708 611.264435013443
v 1242.93407651205 -1194.85198434708 611.264435013443
cstype bspline
deg 1
curv 0 5 346 347 348 349 350
parm u 0 0 1 2 3 4
end
v -1740.10790724191 -680.045698834481 711.264435013442
v -1242.93407911691 -680.045698834481 711.264435013442
v -1242.93407911691 -1194.85197324854 711.264435013442
v -1740.10790724191 -1194.85197324854 711.264435013442
v -1740.10790724191 -680.045698834481 711.264435013442
cstype bspline
deg 1
curv 0 5 351 352 353 354 355
parm u 0 0 1 2 3 4
end
v -1740.10790724191 -697.678389264168 611.264435013443
v -1242.93407911691 -697.678389264168 611.264435013443
v -1242.93407911691 -1194.85197324854 611.264435013443
v -1740.10790724191 -1194.85197324854 611.264435013443
v -1740.10790724191 -697.678389264168 611.264435013443
cstype bspline
deg 1
curv 0 5 356 357 358 359 360
parm u 0 0 1 2 3 4
end
