# type_plates_name_side_to_side_edge_inplane_outofplane_simple_corners_different_lengths.xml
v -640.904467319294 0.65080874987143 171.825621404152
v -473.36458168312 0.65080874987143 -128.218654684331
v -473.36458168312 1241.5533966405 -128.218654684331
v -640.904467319294 1241.5533966405 171.825621404152
v -640.904467319294 0.65080874987143 171.825621404152
cstype bspline
deg 1
curv 0 5 1 2 3 4 5
parm u 0 0 1 2 3 4
end
v -606.830096789929 0.65080874987143 151.825622548944
v -455.902443132097 0.65080874987143 -118.468078322489
v -455.902443132097 1241.5533966405 -118.468078322489
v -606.830096789929 1241.5533966405 151.825622548944
v -606.830096789929 0.65080874987143 151.825622548944
cstype bspline
deg 1
curv 0 5 6 7 8 9 10
parm u 0 0 1 2 3 4
end
v 640.904478530357 100.42646141541 171.825622755078
v 317.253241042564 100.42646141541 171.825622755078
v 317.253241042564 1251.52472801697 171.825622755078
v 640.904478530357 1251.52472801697 171.825622755078
v 640.904478530357 100.42646141541 171.825622755078
cstype bspline
deg 1
curv 0 5 11 12 13 14 15
parm u 0 0 1 2 3 4
end
v 640.904478530357 100.42646141541 151.825622755078
v 317.253241042564 100.42646141541 151.825622755078
v 317.253241042564 1251.52472801697 151.825622755078
v 640.904478530357 1251.52472801697 151.825622755078
v 640.904478530357 100.42646141541 151.825622755078
cstype bspline
deg 1
curv 0 5 16 17 18 19 20
parm u 0 0 1 2 3 4
end
v 317.25323320093 100.42646141541 171.825622755078
v -6.39803861913873 100.42646141541 171.825622755078
v -6.39803861913873 1251.52472801697 171.825622755078
v 317.25323320093 1251.52472801697 171.825622755078
v 317.25323320093 100.42646141541 171.825622755078
cstype bspline
deg 1
curv 0 5 21 22 23 24 25
parm u 0 0 1 2 3 4
end
v 317.25323320093 100.42646141541 151.825622755078
v -6.39803861913873 100.42646141541 151.825622755078
v -6.39803861913873 1251.52472801697 151.825622755078
v 317.25323320093 1251.52472801697 151.825622755078
v 317.25323320093 100.42646141541 151.825622755078
cstype bspline
deg 1
curv 0 5 26 27 28 29 30
parm u 0 0 1 2 3 4
end
v -317.253224651847 -803.094139235314 151.825622755078
v -606.830090801749 -803.094139235314 151.825622755078
v -606.830090801749 -276.20061317214 151.825622755078
v -317.253224651847 -276.20061317214 151.825622755078
v -317.253224651847 -803.094139235314 151.825622755078
cstype bspline
deg 1
curv 0 5 31 32 33 34 35
parm u 0 0 1 2 3 4
end
v -317.253224651847 -803.094139235314 171.825622755078
v -640.90446213964 -803.094139235314 171.825622755078
v -640.90446213964 -276.20061317214 171.825622755078
v -317.253224651847 -276.20061317214 171.825622755078
v -317.253224651847 -803.094139235314 171.825622755078
cstype bspline
deg 1
curv 0 5 36 37 38 39 40
parm u 0 0 1 2 3 4
end
v -317.253222366365 0.650808511682953 171.825622755078
v -640.90447129825 0.650808511682953 171.825622755078
v -640.90447129825 1241.55339640231 171.825622755078
v -317.253222366365 1241.55339640231 171.825622755078
v -317.253222366365 0.650808511682953 171.825622755078
cstype bspline
deg 1
curv 0 5 41 42 43 44 45
parm u 0 0 1 2 3 4
end
v -317.253222366365 0.650808511682953 151.825622755078
v -606.830099960359 0.650808511682953 151.825622755078
v -606.830099960359 1241.55339640231 151.825622755078
v -317.253222366365 1241.55339640231 151.825622755078
v -317.253222366365 0.650808511682953 151.825622755078
cstype bspline
deg 1
curv 0 5 46 47 48 49 50
parm u 0 0 1 2 3 4
end
v -640.90446807363 -1251.52472801697 171.825624465942
v -640.90446807363 -1251.52472801697 -171.825624465942
v -640.90446807363 -957.374642567754 -171.825624465942
v -640.90446807363 -957.374642567754 171.825624465942
v -640.90446807363 -1251.52472801697 171.825624465942
cstype bspline
deg 1
curv 0 5 51 52 53 54 55
parm u 0 0 1 2 3 4
end
v -620.90446807363 -1251.52472801697 151.825624465942
v -620.90446807363 -1251.52472801697 -171.825624465942
v -620.90446807363 -957.374642567754 -171.825624465942
v -620.90446807363 -957.374642567754 151.825624465942
v -620.90446807363 -1251.52472801697 151.825624465942
cstype bspline
deg 1
curv 0 5 56 57 58 59 60
parm u 0 0 1 2 3 4
end
v 317.253231367211 -754.85181967099 151.825622755078
v -6.39801374997597 -754.85181967099 151.825622755078
v -6.39801374997597 -389.313428557709 151.825622755078
v 317.253231367211 -389.313428557709 151.825622755078
v 317.253231367211 -754.85181967099 151.825622755078
cstype bspline
deg 1
curv 0 5 61 62 63 64 65
parm u 0 0 1 2 3 4
end
v 317.253231367211 -754.85181967099 171.825622755078
v -6.39801374997597 -754.85181967099 171.825622755078
v -6.39801374997597 -389.313428557709 171.825622755078
v 317.253231367211 -389.313428557709 171.825622755078
v 317.253231367211 -754.85181967099 171.825622755078
cstype bspline
deg 1
curv 0 5 66 67 68 69 70
parm u 0 0 1 2 3 4
end
v 371.808728006869 -1233.31435336528 171.825622624418
v 170.693487453415 -1233.31435336528 77.8221254738447
v 170.693487453415 -959.314353365281 77.8221254738447
v 371.808728006869 -959.314353365281 171.825622624418
v 371.808728006869 -1233.31435336528 171.825622624418
cstype bspline
deg 1
curv 0 5 71 72 73 74 75
parm u 0 0 1 2 3 4
end
v 376.252126246301 -1233.31435336528 151.825623543028
v 179.162270520356 -1233.31435336528 59.7036352228742
v 179.162270520356 -959.314353365281 59.7036352228742
v 376.252126246301 -959.314353365281 151.825623543028
v 376.252126246301 -1233.31435336528 151.825623543028
cstype bspline
deg 1
curv 0 5 76 77 78 79 80
parm u 0 0 1 2 3 4
end
v -606.830097026223 -803.094140120303 151.825623037054
v -455.902442438504 -803.094140120303 -118.468079499698
v -455.902442438504 -276.200614057128 -118.468079499698
v -606.830097026223 -276.200614057128 151.825623037054
v -606.830097026223 -803.094140120303 151.825623037054
cstype bspline
deg 1
curv 0 5 81 82 83 84 85
parm u 0 0 1 2 3 4
end
v -640.904468513116 -803.094140120303 171.825623542147
v -473.364581017167 -803.094140120303 -128.218655876974
v -473.364581017167 -276.200614057128 -128.218655876974
v -640.904468513116 -276.200614057128 171.825623542147
v -640.904468513116 -803.094140120303 171.825623542147
cstype bspline
deg 1
curv 0 5 86 87 88 89 90
parm u 0 0 1 2 3 4
end
v -317.253221969079 -1251.52472801697 171.825622755078
v -640.904478530358 -1251.52472801697 171.825622755078
v -640.904478530358 -957.374642567754 171.825622755078
v -317.253221969079 -957.374642567754 171.825622755078
v -317.253221969079 -1251.52472801697 171.825622755078
cstype bspline
deg 1
curv 0 5 91 92 93 94 95
parm u 0 0 1 2 3 4
end
v -317.253221969079 -1251.52472801697 151.825622755078
v -620.904463271569 -1251.52472801697 151.825622755078
v -620.904463271569 -957.374642567754 151.825622755078
v -317.253221969079 -957.374642567754 151.825622755078
v -317.253221969079 -1251.52472801697 151.825622755078
cstype bspline
deg 1
curv 0 5 96 97 98 99 100
parm u 0 0 1 2 3 4
end
v 593.808727814905 -1233.31435336528 171.825622755078
v 371.808731629602 -1233.31435336528 171.825622755078
v 371.808731629602 -959.314353365281 171.825622755078
v 593.808727814905 -959.314353365281 171.825622755078
v 593.808727814905 -1233.31435336528 171.825622755078
cstype bspline
deg 1
curv 0 5 101 102 103 104 105
parm u 0 0 1 2 3 4
end
v 593.808727814905 -1233.31435336528 151.825622755078
v 376.252121522181 -1233.31435336528 151.825622755078
v 376.252121522181 -959.314353365281 151.825622755078
v 593.808727814905 -959.314353365281 151.825622755078
v 593.808727814905 -1233.31435336528 151.825622755078
cstype bspline
deg 1
curv 0 5 106 107 108 109 110
parm u 0 0 1 2 3 4
end
v 640.904477853461 -754.85181967099 151.825622755078
v 317.253236550971 -754.85181967099 151.825622755078
v 317.253236550971 -389.313428557709 151.825622755078
v 640.904477853461 -389.313428557709 151.825622755078
v 640.904477853461 -754.85181967099 151.825622755078
cstype bspline
deg 1
curv 0 5 111 112 113 114 115
parm u 0 0 1 2 3 4
end
v 640.904477853461 -754.85181967099 171.825622755078
v 317.253236550971 -754.85181967099 171.825622755078
v 317.253236550971 -389.313428557709 171.825622755078
v 640.904477853461 -389.313428557709 171.825622755078
v 640.904477853461 -754.85181967099 171.825622755078
cstype bspline
deg 1
curv 0 5 116 117 118 119 120
parm u 0 0 1 2 3 4
end
