# type_plates_name_top_to_side_box.xml
v -258.661806199302 414.503345682701 -196.046112060547
v -258.661806199302 414.503345682701 196.046112060547
v 258.661802199136 414.503345682701 196.046112060547
v 258.661802199136 414.503345682701 -196.046112060547
v -258.661806199302 414.503345682701 -196.046112060547
cstype bspline
deg 1
curv 0 5 1 2 3 4 5
parm u 0 0 1 2 3 4
end
v -258.661806199302 434.503345561967 -196.046112060547
v -258.661806199302 434.503345561967 196.046112060547
v 258.661802199136 434.503345561967 196.046112060547
v 258.661802199136 434.503345561967 -196.046112060547
v -258.661806199302 434.503345561967 -196.046112060547
cstype bspline
deg 1
curv 0 5 6 7 8 9 10
parm u 0 0 1 2 3 4
end
v -258.661802199137 414.503334850611 103.266169141628
v -258.661802199137 -414.503348498999 103.266169141628
v 258.661806199301 -414.503348498999 103.266169141628
v 258.661806199301 414.503334850611 103.266169141628
v -258.661802199137 414.503334850611 103.266169141628
cstype bspline
deg 1
curv 0 5 11 12 13 14 15
parm u 0 0 1 2 3 4
end
v -258.661802199137 414.503334850611 123.266169141628
v -258.661802199137 -414.503348498999 123.266169141628
v 258.661806199301 -414.503348498999 123.266169141628
v 258.661806199301 414.503334850611 123.266169141628
v -258.661802199137 414.503334850611 123.266169141628
cstype bspline
deg 1
curv 0 5 16 17 18 19 20
parm u 0 0 1 2 3 4
end
v -258.661806199302 -434.503345561967 -196.046112060547
v -258.661806199302 -434.503345561967 196.046112060547
v 258.661802199136 -434.503345561967 196.046112060547
v 258.661802199136 -434.503345561967 -196.046112060547
v -258.661806199302 -434.503345561967 -196.046112060547
cstype bspline
deg 1
curv 0 5 21 22 23 24 25
parm u 0 0 1 2 3 4
end
v -258.661806199302 -414.503345417037 -196.046112060547
v -258.661806199302 -414.503345417037 196.046112060547
v 258.661802199136 -414.503345417037 196.046112060547
v 258.661802199136 -414.503345417037 -196.046112060547
v -258.661806199302 -414.503345417037 -196.046112060547
cstype bspline
deg 1
curv 0 5 26 27 28 29 30
parm u 0 0 1 2 3 4
end
v -258.661802199137 414.503334850611 -103.266160417698
v -258.661802199137 -414.503348498999 -103.266160417698
v 258.661806199301 -414.503348498999 -103.266160417698
v 258.661806199301 414.503334850611 -103.266160417698
v -258.661802199137 414.503334850611 -103.266160417698
cstype bspline
deg 1
curv 0 5 31 32 33 34 35
parm u 0 0 1 2 3 4
end
v -258.661802199137 414.503334850611 -123.266159957136
v -258.661802199137 -414.503348498999 -123.266159957136
v 258.661806199301 -414.503348498999 -123.266159957136
v 258.661806199301 414.503334850611 -123.266159957136
v -258.661802199137 414.503334850611 -123.266159957136
cstype bspline
deg 1
curv 0 5 36 37 38 39 40
parm u 0 0 1 2 3 4
end
v 123.266159509254 414.503338422009 -103.26616183561
v 123.266159509254 -414.5033449276 -103.26616183561
v 123.266159509252 -414.5033449276 103.266167723716
v 123.266159509252 414.503338422009 103.266167723716
v 123.266159509254 414.503338422009 -103.26616183561
cstype bspline
deg 1
curv 0 5 41 42 43 44 45
parm u 0 0 1 2 3 4
end
v 103.266160324965 414.503338422009 -103.26616183561
v 103.266160324965 -414.5033449276 -103.26616183561
v 103.266160324963 -414.5033449276 103.266167723716
v 103.266160324963 414.503338422009 103.266167723716
v 103.266160324965 414.503338422009 -103.26616183561
cstype bspline
deg 1
curv 0 5 46 47 48 49 50
parm u 0 0 1 2 3 4
end
v -103.266169589509 414.503338422009 -103.26616183561
v -103.266169589509 -414.5033449276 -103.26616183561
v -103.266169589509 -414.5033449276 103.266167723716
v -103.266169589509 414.503338422009 103.266167723716
v -103.266169589509 414.503338422009 -103.26616183561
cstype bspline
deg 1
curv 0 5 51 52 53 54 55
parm u 0 0 1 2 3 4
end
v -123.266169234362 414.503338422009 -103.26616183561
v -123.266169234362 -414.5033449276 -103.26616183561
v -123.266169234362 -414.5033449276 103.266167723716
v -123.266169234362 414.503338422009 103.266167723716
v -123.266169234362 414.503338422009 -103.26616183561
cstype bspline
deg 1
curv 0 5 56 57 58 59 60
parm u 0 0 1 2 3 4
end
