# type_plates_name_top_to_side_corners.xml
v 4860.25323349628 10.9735244288899 140.38215704073
v 4860.25323349628 10.9735244288899 308.069285480923
v 4314.97307740848 -534.306631658915 308.069285480923
v 4314.97307740848 -534.306631658915 140.382157040731
v 4860.25323349628 10.9735244288899 140.38215704073
cstype bspline
deg 1
curv 0 5 1 2 3 4 5
parm u 0 0 1 2 3 4
end
v 4769.58191586192 101.644842063255 140.382157040731
v 4769.58191586192 101.644842063255 308.069285480923
v 4224.30175977411 -443.63531402455 308.069285480923
v 4224.30175977411 -443.63531402455 140.382157040731
v 4769.58191586192 101.644842063255 140.382157040731
cstype bspline
deg 1
curv 0 5 6 7 8 9 10
parm u 0 0 1 2 3 4
end
v 3649.13059618316 71.7538345601046 286.382157040728
v 3649.13059618316 71.7538345601046 162.069285480924
v 4423.51334937541 -244.423724423259 162.069285480924
v 4423.51334937541 -244.423724423259 286.382157040729
v 3649.13059618316 71.7538345601046 286.382157040728
cstype bspline
deg 1
curv 0 5 11 12 13 14 15
parm u 0 0 1 2 3 4
end
v 3714.53809134888 231.950011507963 286.382157040729
v 3714.53809134888 231.950011507963 162.069285480924
v 4556.2281906369 -111.708883161767 162.069285480925
v 4556.2281906369 -111.708883161767 286.382157040729
v 3714.53809134888 231.950011507963 286.382157040729
cstype bspline
deg 1
curv 0 5 16 17 18 19 20
parm u 0 0 1 2 3 4
end
v 2542.2131316219 386.945197417 -428.423879227894
v 2542.2131316219 386.945197417 380.993606152774
v 1996.9329755341 -158.334958670805 380.993606152769
v 1996.93297553409 -158.334958670805 -428.423879227899
v 2542.2131316219 386.945197417 -428.423879227894
cstype bspline
deg 1
curv 0 5 21 22 23 24 25
parm u 0 0 1 2 3 4
end
v 2670.09296634452 334.732342960833 -450.111007668086
v 2670.09296634452 334.732342960833 359.306477712583
v 2124.81281025671 -210.547813126972 359.306477712578
v 2124.81281025671 -210.547813126972 -450.11100766809
v 2670.09296634452 334.732342960833 -450.111007668086
cstype bspline
deg 1
curv 0 5 26 27 28 29 30
parm u 0 0 1 2 3 4
end
v 1326.29296628281 123.23168908789 286.382157040728
v 1582.6381527692 751.072867687667 286.382157040729
v 2522.57012204388 367.302187838973 286.382157040729
v 2002.43384948839 -152.83408471651 286.382157040729
v 1326.29296628281 123.23168908789 286.382157040728
cstype bspline
deg 1
curv 0 5 31 32 33 34 35
parm u 0 0 1 2 3 4
end
v 1326.29296628281 123.23168908789 162.069285480924
v 1582.6381527692 751.072867687667 162.069285480924
v 2522.57012204388 367.302187838973 162.069285480925
v 2002.43384948839 -152.83408471651 162.069285480924
v 1326.29296628281 123.23168908789 162.069285480924
cstype bspline
deg 1
curv 0 5 36 37 38 39 40
parm u 0 0 1 2 3 4
end
v -3913.69011096998 -751.072830456214 -123.072040747841
v -3913.69011096998 -751.072830456214 376.749355126182
v -3913.69011096998 577.73326085238 376.749355126182
v -3913.69011096998 577.73326085238 -123.072040747841
v -3913.69011096998 -751.072830456214 -123.072040747841
cstype bspline
deg 1
curv 0 5 41 42 43 44 45
parm u 0 0 1 2 3 4
end
v -3813.69011113249 -751.072867678669 -273.370868470958
v -3813.69010764882 -751.072830456214 443.283473778526
v -3813.69010764882 577.73326085238 443.283473778526
v -3813.69011113249 577.733223629924 -273.370868470958
v -3813.69011113249 -751.072867678669 -273.370868470958
cstype bspline
deg 1
curv 0 5 46 47 48 49 50
parm u 0 0 1 2 3 4
end
v -4860.25323128771 -150.133640455354 273.370853613591
v -3913.69012093614 -150.133640455354 -123.072063256526
v -3913.69012093614 -150.133640455354 376.749340246892
v -4860.25323128771 -150.133640455354 773.192249487615
v -4860.25323128771 -150.133640455354 273.370853613591
cstype bspline
deg 1
curv 0 5 51 52 53 54 55
parm u 0 0 1 2 3 4
end
v -4860.25323128771 -287.570419349643 273.370853613591
v -3913.69012093614 -287.570419349643 -123.072063256526
v -3913.69012093614 -287.570419349643 376.749340246892
v -4860.25323128771 -287.570419349643 773.192249487615
v -4860.25323128771 -287.570419349643 273.370853613591
cstype bspline
deg 1
curv 0 5 56 57 58 59 60
parm u 0 0 1 2 3 4
end
v -3813.69011113249 -751.072867678669 -273.370868470958
v -4860.25323349629 -751.072867678669 164.954395687267
v -4860.25323349629 577.733284665081 164.954395687267
v -3813.69011113249 577.733284665081 -273.370868470958
v -3813.69011113249 -751.072867678669 -273.370868470958
cstype bspline
deg 1
curv 0 5 61 62 63 64 65
parm u 0 0 1 2 3 4
end
v -3913.69011096998 -751.072830456214 -123.07204069472
v -4860.2532077163 -751.072867678669 273.370856295499
v -4860.2532077163 577.733284665081 273.370856295499
v -3913.69011096998 577.733321887536 -123.07204069472
v -3913.69011096998 -751.072830456214 -123.07204069472
cstype bspline
deg 1
curv 0 5 66 67 68 69 70
parm u 0 0 1 2 3 4
end
v -1341.92500165809 -751.072867687667 323.642067419776
v -2388.48812526816 -751.072867687667 761.967328602345
v -2388.48812526816 577.733284656083 761.967328602345
v -1341.92500165809 577.733284656083 323.642067419776
v -1341.92500165809 -751.072867687667 323.642067419776
cstype bspline
deg 1
curv 0 5 71 72 73 74 75
parm u 0 0 1 2 3 4
end
v -1441.92500012528 -751.072867687667 257.107948524717
v -2388.48809621444 -751.072867687667 653.550840921957
v -2388.48809621444 577.733284656083 653.550840921958
v -1441.92500012528 577.733284656083 257.107948524717
v -1441.92500012528 -751.072867687667 257.107948524717
cstype bspline
deg 1
curv 0 5 76 77 78 79 80
parm u 0 0 1 2 3 4
end
v -1341.92500260201 -751.072830456214 -284.59578824405
v -1341.92500260201 -751.072830456214 323.642081018646
v -1341.92500260201 577.73326085238 323.642081018646
v -1341.92500260201 577.73326085238 -284.59578824405
v -1341.92500260201 -751.072830456214 -284.59578824405
cstype bspline
deg 1
curv 0 5 81 82 83 84 85
parm u 0 0 1 2 3 4
end
v -1441.92500230434 -751.072830456214 -242.713433507721
v -1441.92500230434 -751.072830456214 257.107962366302
v -1441.92500230434 577.73326085238 257.107962366302
v -1441.92500230434 577.73326085238 -242.713433507721
v -1441.92500230434 -751.072830456214 -242.713433507721
cstype bspline
deg 1
curv 0 5 86 87 88 89 90
parm u 0 0 1 2 3 4
end
v -2388.48810736328 -287.570419349643 153.729460853711
v -2388.48810736328 -287.570419349643 653.550856727735
v -1441.92499701171 -287.570419349643 257.107947487012
v -1441.92500230434 -287.570419349643 -242.713433507721
v -2388.48810736328 -287.570419349643 153.729460853711
cstype bspline
deg 1
curv 0 5 91 92 93 94 95
parm u 0 0 1 2 3 4
end
v -2388.48810736328 -150.133640455354 153.729460853711
v -2388.48810736328 -150.133640455354 653.550856727735
v -1441.92499701171 -150.133640455354 257.107947487012
v -1441.92500230434 -150.133640455354 -242.713433507721
v -2388.48810736328 -150.133640455354 153.729460853711
cstype bspline
deg 1
curv 0 5 96 97 98 99 100
parm u 0 0 1 2 3 4
end
v -1727.58562729111 -150.133636512729 -231.488515952102
v -2674.14873764267 -150.133636512729 164.954397103318
v -2674.14873764267 -150.133636512729 -773.192239859572
v -1727.58562729111 -150.133636512729 -773.192239859572
v -1727.58562729111 -150.133636512729 -231.488515952102
cstype bspline
deg 1
curv 0 5 101 102 103 104 105
parm u 0 0 1 2 3 4
end
v -1727.58562729111 -287.570419161083 -231.488515952102
v -2674.14873764267 -287.570419161083 164.954397103318
v -2674.14873764267 -287.570419161083 -773.192239859572
v -1727.58562729111 -287.570419161083 -773.192239859572
v -1727.58562729111 -287.570419161083 -231.488515952102
cstype bspline
deg 1
curv 0 5 106 107 108 109 110
parm u 0 0 1 2 3 4
end
v -1727.58562722672 -751.072830446455 -773.192249487612
v -1727.58562722672 -751.072830446455 -231.488529394838
v -1727.58562722672 577.733260862138 -231.488529394838
v -1727.58562722672 577.733260862138 -773.192249487612
v -1727.58562722672 -751.072830446455 -773.192249487612
cstype bspline
deg 1
curv 0 5 111 112 113 114 115
parm u 0 0 1 2 3 4
end
v -1627.5856275244 -751.072830446455 -773.192249487612
v -1627.5856275244 -751.072830446455 -164.954380224916
v -1627.5856275244 577.733260862138 -164.954380224916
v -1627.5856275244 577.733260862138 -773.192249487612
v -1627.5856275244 -751.072830446455 -773.192249487612
cstype bspline
deg 1
curv 0 5 116 117 118 119 120
parm u 0 0 1 2 3 4
end
v -1727.5856325661 -751.072867678669 -231.488512704929
v -1727.5856325661 577.733284665081 -231.488512704929
v -2674.14875385642 577.733284665081 164.954398518671
v -2674.14875385642 -751.072867678669 164.954398518671
v -1727.5856325661 -751.072867678669 -231.488512704929
cstype bspline
deg 1
curv 0 5 121 122 123 124 125
parm u 0 0 1 2 3 4
end
v -1627.5856335514 -751.072867678669 -164.954392502631
v -1627.5856335514 577.733284665081 -164.954392502631
v -2674.148729013 577.733284665081 273.370856890696
v -2674.148729013 -751.072867678669 273.370856890696
v -1627.5856335514 -751.072867678669 -164.954392502631
cstype bspline
deg 1
curv 0 5 126 127 128 129 130
parm u 0 0 1 2 3 4
end
v 457.610275253811 51.5353652847796 -428.423865441115
v -488.423233046971 51.5353652847796 -428.423865441115
v -488.423233046971 51.5353652847796 374.886620398729
v 457.610275253811 51.5353652847796 66.4016140663311
v 457.610275253811 51.5353652847796 -428.423865441115
cstype bspline
deg 1
curv 0 5 131 132 133 134 135
parm u 0 0 1 2 3 4
end
v 457.610275253811 -63.3563227849776 -428.423865441115
v -488.423233046971 -63.3563227849776 -428.423865441115
v -488.423233046971 -63.3563227849776 374.886620398729
v 457.610275253811 -63.3563227849776 66.4016140663311
v 457.610275253811 -63.3563227849776 -428.423865441115
cstype bspline
deg 1
curv 0 5 136 137 138 139 140
parm u 0 0 1 2 3 4
end
v 457.610300880203 -465.451596580592 175.66063458092
v 457.610300880203 338.73895517722 175.66063458092
v -488.423265837684 338.73895517722 484.14564929323
v -488.423265837684 -465.451596580592 484.14564929323
v 457.610300880203 -465.451596580592 175.66063458092
cstype bspline
deg 1
curv 0 5 141 142 143 144 145
parm u 0 0 1 2 3 4
end
v 457.610301284901 -465.451596580592 66.4016090131295
v 457.610301284901 338.73895517722 66.4016090131295
v -488.423265837684 338.73895517722 374.886626277511
v -488.423265837684 -465.451596580592 374.886626277511
v 457.610301284901 -465.451596580592 66.4016090131295
cstype bspline
deg 1
curv 0 5 146 147 148 149 150
parm u 0 0 1 2 3 4
end
v 561.486239207317 -465.451596466748 -428.423879227898
v 561.486239207317 338.738955291065 -428.423879227898
v 561.486239207317 338.738955291065 642.666510920879
v 561.486239207317 -465.451596466748 642.666510920879
v 561.486239207317 -465.451596466748 -428.423879227898
cstype bspline
deg 1
curv 0 5 151 152 153 154 155
parm u 0 0 1 2 3 4
end
v 457.610285533001 -465.451596466748 -428.423879227898
v 457.610285533001 338.738955291065 -428.423879227898
v 457.610285533001 338.738955291065 675.562781672832
v 457.610285533001 -465.451596466748 675.562781672832
v 457.610285533001 -465.451596466748 -428.423879227898
cstype bspline
deg 1
curv 0 5 156 157 158 159 160
parm u 0 0 1 2 3 4
end
