# type_plates_name_top_to_top_pairs.xml
v -647.360536068873 -180.0 40.0
v -507.360536068873 -180.0 40.0
v -507.360536068873 -39.0 40.0
v -647.360536068873 -39.0 40.0
v -647.360536068873 -180.0 40.0
cstype bspline
deg 1
curv 0 5 1 2 3 4 5
parm u 0 0 1 2 3 4
end
v -647.360536068873 -180.0 0.0
v -507.360536068873 -180.0 0.0
v -507.360536068873 -39.0 0.0
v -647.360536068873 -39.0 0.0
v -647.360536068873 -180.0 0.0
cstype bspline
deg 1
curv 0 5 6 7 8 9 10
parm u 0 0 1 2 3 4
end
v -594.264040406354 -196.400569666947 40.0
v -479.582754205895 -116.099868577801 40.0
v -560.457031731392 -0.599430333052808 40.0
v -675.138317931851 -80.9001314221993 40.0
v -594.264040406354 -196.400569666947 40.0
cstype bspline
deg 1
curv 0 5 11 12 13 14 15
parm u 0 0 1 2 3 4
end
v -594.264040406354 -196.400569666947 80.0
v -479.582754205895 -116.099868577801 80.0
v -560.457031731392 -0.599430333052808 80.0
v -675.138317931851 -80.9001314221993 80.0
v -594.264040406354 -196.400569666947 80.0
cstype bspline
deg 1
curv 0 5 16 17 18 19 20
parm u 0 0 1 2 3 4
end
v -597.360536068873 90.0 40.0
v -557.360536068873 90.0 40.0
v -557.360536068873 231.0 40.0
v -597.360536068873 231.0 40.0
v -597.360536068873 90.0 40.0
cstype bspline
deg 1
curv 0 5 21 22 23 24 25
parm u 0 0 1 2 3 4
end
v -597.360536068873 90.0 0.0
v -557.360536068873 90.0 0.0
v -557.360536068873 231.0 0.0
v -597.360536068873 231.0 0.0
v -597.360536068873 90.0 0.0
cstype bspline
deg 1
curv 0 5 26 27 28 29 30
parm u 0 0 1 2 3 4
end
v -553.306438191904 92.2782521506051 80.0
v -520.540356420344 115.221309604647 80.0
v -601.414633945842 230.721747849395 80.0
v -634.180715717401 207.778690395353 80.0
v -553.306438191904 92.2782521506051 80.0
cstype bspline
deg 1
curv 0 5 31 32 33 34 35
parm u 0 0 1 2 3 4
end
v -553.306438191904 92.2782521506051 40.0
v -520.540356420344 115.221309604647 40.0
v -601.414633945842 230.721747849395 40.0
v -634.180715717401 207.778690395353 40.0
v -553.306438191904 92.2782521506051 40.0
cstype bspline
deg 1
curv 0 5 36 37 38 39 40
parm u 0 0 1 2 3 4
end
v -333.306438191904 172.278252150605 80.0
v -300.540356420344 195.221309604647 80.0
v -381.414633945842 310.721747849395 80.0
v -414.180715717402 287.778690395353 80.0
v -333.306438191904 172.278252150605 80.0
cstype bspline
deg 1
curv 0 5 41 42 43 44 45
parm u 0 0 1 2 3 4
end
v -333.306438191904 172.278252150605 40.0
v -300.540356420344 195.221309604647 40.0
v -381.414633945842 310.721747849395 40.0
v -414.180715717402 287.778690395353 40.0
v -333.306438191904 172.278252150605 40.0
cstype bspline
deg 1
curv 0 5 46 47 48 49 50
parm u 0 0 1 2 3 4
end
v -377.360536068873 90.0 0.0
v -337.360536068873 90.0 0.0
v -337.360536068873 231.0 0.0
v -377.360536068873 231.0 0.0
v -377.360536068873 90.0 0.0
cstype bspline
deg 1
curv 0 5 51 52 53 54 55
parm u 0 0 1 2 3 4
end
v -377.360536068873 90.0 40.0
v -337.360536068873 90.0 40.0
v -337.360536068873 231.0 40.0
v -377.360536068873 231.0 40.0
v -377.360536068873 90.0 40.0
cstype bspline
deg 1
curv 0 5 56 57 58 59 60
parm u 0 0 1 2 3 4
end
v -334.264040406354 -126.400569666947 80.0
v -219.582754205895 -46.0998685778007 80.0
v -300.457031731392 69.4005696669472 80.0
v -415.138317931851 -10.9001314221993 80.0
v -334.264040406354 -126.400569666947 80.0
cstype bspline
deg 1
curv 0 5 61 62 63 64 65
parm u 0 0 1 2 3 4
end
v -334.264040406354 -126.400569666947 40.0
v -219.582754205895 -46.0998685778007 40.0
v -300.457031731392 69.4005696669472 40.0
v -415.138317931851 -10.9001314221993 40.0
v -334.264040406354 -126.400569666947 40.0
cstype bspline
deg 1
curv 0 5 66 67 68 69 70
parm u 0 0 1 2 3 4
end
v -427.360536068873 -180.0 40.0
v -287.360536068873 -180.0 40.0
v -287.360536068873 -39.0 40.0
v -427.360536068873 -39.0 40.0
v -427.360536068873 -180.0 40.0
cstype bspline
deg 1
curv 0 5 71 72 73 74 75
parm u 0 0 1 2 3 4
end
v -427.360536068873 -180.0 0.0
v -287.360536068873 -180.0 0.0
v -287.360536068873 -39.0 0.0
v -427.360536068873 -39.0 0.0
v -427.360536068873 -180.0 0.0
cstype bspline
deg 1
curv 0 5 76 77 78 79 80
parm u 0 0 1 2 3 4
end
v -207.360536068873 -133.904772100827 40.0
v -67.360536068873 -133.904772100827 40.0
v -67.360536068873 7.09522789917283 40.0
v -207.360536068873 7.09522789917283 40.0
v -207.360536068873 -133.904772100827 40.0
cstype bspline
deg 1
curv 0 5 81 82 83 84 85
parm u 0 0 1 2 3 4
end
v -207.360536068873 -133.904772100827 80.0
v -67.360536068873 -133.904772100827 80.0
v -67.360536068873 7.09522789917283 80.0
v -207.360536068873 7.09522789917283 80.0
v -207.360536068873 -133.904772100827 80.0
cstype bspline
deg 1
curv 0 5 86 87 88 89 90
parm u 0 0 1 2 3 4
end
v -207.360536068873 -180.0 40.0
v -67.360536068873 -180.0 40.0
v -67.360536068873 -39.0 40.0
v -207.360536068873 -39.0 40.0
v -207.360536068873 -180.0 40.0
cstype bspline
deg 1
curv 0 5 91 92 93 94 95
parm u 0 0 1 2 3 4
end
v -207.360536068873 -180.0 0.0
v -67.360536068873 -180.0 0.0
v -67.360536068873 -39.0 0.0
v -207.360536068873 -39.0 0.0
v -207.360536068873 -180.0 0.0
cstype bspline
deg 1
curv 0 5 96 97 98 99 100
parm u 0 0 1 2 3 4
end
v -157.360536068873 90.0 40.0
v -117.360536068873 90.0 40.0
v -117.360536068873 231.0 40.0
v -157.360536068873 231.0 40.0
v -157.360536068873 90.0 40.0
cstype bspline
deg 1
curv 0 5 101 102 103 104 105
parm u 0 0 1 2 3 4
end
v -157.360536068873 90.0 0.0
v -117.360536068873 90.0 0.0
v -117.360536068873 231.0 0.0
v -157.360536068873 231.0 0.0
v -157.360536068873 90.0 0.0
cstype bspline
deg 1
curv 0 5 106 107 108 109 110
parm u 0 0 1 2 3 4
end
v -66.860536068873 140.5 80.0
v -66.860536068873 180.5 80.0
v -207.860536068873 180.5 80.0
v -207.860536068873 140.5 80.0
v -66.860536068873 140.5 80.0
cstype bspline
deg 1
curv 0 5 111 112 113 114 115
parm u 0 0 1 2 3 4
end
v -66.860536068873 140.5 40.0
v -66.860536068873 180.5 40.0
v -207.860536068873 180.5 40.0
v -207.860536068873 140.5 40.0
v -66.860536068873 140.5 40.0
cstype bspline
deg 1
curv 0 5 116 117 118 119 120
parm u 0 0 1 2 3 4
end
v 143.631922405167 92.2782521506051 80.432817104759
v 176.398004176727 115.221309604647 80.432817104759
v 95.523726651229 230.721747849395 80.432817104759
v 62.75764487967 207.778690395353 80.432817104759
v 143.631922405167 92.2782521506051 80.432817104759
cstype bspline
deg 1
curv 0 5 121 122 123 124 125
parm u 0 0 1 2 3 4
end
v 143.631922405167 92.2782521506051 40.0
v 176.398004176727 115.221309604647 40.0
v 95.523726651229 230.721747849395 40.0
v 62.75764487967 207.778690395353 40.0
v 143.631922405167 92.2782521506051 40.0
cstype bspline
deg 1
curv 0 5 126 127 128 129 130
parm u 0 0 1 2 3 4
end
v 99.577824528198 90.0 21.911892221847
v 139.577824528198 90.0 21.911892221847
v 139.577824528198 231.0 21.911892221847
v 99.577824528198 231.0 21.911892221847
v 99.577824528198 90.0 21.911892221847
cstype bspline
deg 1
curv 0 5 131 132 133 134 135
parm u 0 0 1 2 3 4
end
v 99.577824528198 90.0 40.0
v 139.577824528198 90.0 40.0
v 139.577824528198 231.0 40.0
v 99.577824528198 231.0 40.0
v 99.577824528198 90.0 40.0
cstype bspline
deg 1
curv 0 5 136 137 138 139 140
parm u 0 0 1 2 3 4
end
v 102.674320190717 -196.400569666947 40.0
v 217.355606391176 -116.099868577801 40.0
v 136.481328865679 -0.599430333052808 40.0
v 21.80004266522 -80.9001314221993 40.0
v 102.674320190717 -196.400569666947 40.0
cstype bspline
deg 1
curv 0 5 141 142 143 144 145
parm u 0 0 1 2 3 4
end
v 102.674320190717 -196.400569666947 80.0
v 217.355606391176 -116.099868577801 80.0
v 136.481328865679 -0.599430333052808 80.0
v 21.80004266522 -80.9001314221993 80.0
v 102.674320190717 -196.400569666947 80.0
cstype bspline
deg 1
curv 0 5 146 147 148 149 150
parm u 0 0 1 2 3 4
end
v 49.577824528198 -180.0 40.0
v 189.577824528198 -180.0 40.0
v 189.577824528198 -39.0 40.0
v 49.577824528198 -39.0 40.0
v 49.577824528198 -180.0 40.0
cstype bspline
deg 1
curv 0 5 151 152 153 154 155
parm u 0 0 1 2 3 4
end
v 49.577824528198 -180.0 -12.3729955829877
v 189.577824528198 -180.0 -12.3729955829877
v 189.577824528198 -39.0 -12.3729955829877
v 49.577824528198 -39.0 -12.3729955829877
v 49.577824528198 -180.0 -12.3729955829877
cstype bspline
deg 1
curv 0 5 156 157 158 159 160
parm u 0 0 1 2 3 4
end
v 362.674320190717 -126.400569666947 64.9929338792629
v 477.355606391176 -46.0998685778007 64.9929338792629
v 396.481328865679 69.4005696669472 64.9929338792629
v 281.80004266522 -10.9001314221993 64.9929338792629
v 362.674320190717 -126.400569666947 64.9929338792629
cstype bspline
deg 1
curv 0 5 161 162 163 164 165
parm u 0 0 1 2 3 4
end
v 362.674320190717 -126.400569666947 40.0
v 477.355606391176 -46.0998685778007 40.0
v 396.481328865679 69.4005696669472 40.0
v 281.80004266522 -10.9001314221993 40.0
v 362.674320190717 -126.400569666947 40.0
cstype bspline
deg 1
curv 0 5 166 167 168 169 170
parm u 0 0 1 2 3 4
end
v 269.577824528198 -180.0 40.0
v 409.577824528198 -180.0 40.0
v 409.577824528198 -39.0 40.0
v 269.577824528198 -39.0 40.0
v 269.577824528198 -180.0 40.0
cstype bspline
deg 1
curv 0 5 171 172 173 174 175
parm u 0 0 1 2 3 4
end
v 269.577824528198 -180.0 0.0
v 409.577824528198 -180.0 0.0
v 409.577824528198 -39.0 0.0
v 269.577824528198 -39.0 0.0
v 269.577824528198 -180.0 0.0
cstype bspline
deg 1
curv 0 5 176 177 178 179 180
parm u 0 0 1 2 3 4
end
v 319.577824528198 90.0 0.0
v 359.577824528198 90.0 0.0
v 359.577824528198 231.0 0.0
v 319.577824528198 231.0 0.0
v 319.577824528198 90.0 0.0
cstype bspline
deg 1
curv 0 5 181 182 183 184 185
parm u 0 0 1 2 3 4
end
v 319.577824528198 90.0 40.0
v 359.577824528198 90.0 40.0
v 359.577824528198 231.0 40.0
v 319.577824528198 231.0 40.0
v 319.577824528198 90.0 40.0
cstype bspline
deg 1
curv 0 5 186 187 188 189 190
parm u 0 0 1 2 3 4
end
v 363.631922405167 172.278252150605 40.0
v 396.398004176727 195.221309604647 40.0
v 315.523726651229 310.721747849395 40.0
v 282.757644879669 287.778690395353 40.0
v 363.631922405167 172.278252150605 40.0
cstype bspline
deg 1
curv 0 5 191 192 193 194 195
parm u 0 0 1 2 3 4
end
v 363.631922405167 172.278252150605 63.2673861392988
v 396.398004176727 195.221309604647 63.2673861392988
v 315.523726651229 310.721747849395 63.2673861392988
v 282.757644879669 287.778690395353 63.2673861392988
v 363.631922405167 172.278252150605 63.2673861392988
cstype bspline
deg 1
curv 0 5 196 197 198 199 200
parm u 0 0 1 2 3 4
end
v 630.077824528198 140.5 65.8227199950678
v 630.077824528198 180.5 65.8227199950678
v 489.077824528198 180.5 65.8227199950678
v 489.077824528198 140.5 65.8227199950678
v 630.077824528198 140.5 65.8227199950678
cstype bspline
deg 1
curv 0 5 201 202 203 204 205
parm u 0 0 1 2 3 4
end
v 630.077824528198 140.5 40.0
v 630.077824528198 180.5 40.0
v 489.077824528198 180.5 40.0
v 489.077824528198 140.5 40.0
v 630.077824528198 140.5 40.0
cstype bspline
deg 1
curv 0 5 206 207 208 209 210
parm u 0 0 1 2 3 4
end
v 539.577824528198 90.0 0.0
v 579.577824528198 90.0 0.0
v 579.577824528198 231.0 0.0
v 539.577824528198 231.0 0.0
v 539.577824528198 90.0 0.0
cstype bspline
deg 1
curv 0 5 211 212 213 214 215
parm u 0 0 1 2 3 4
end
v 539.577824528198 90.0 40.0
v 579.577824528198 90.0 40.0
v 579.577824528198 231.0 40.0
v 539.577824528198 231.0 40.0
v 539.577824528198 90.0 40.0
cstype bspline
deg 1
curv 0 5 216 217 218 219 220
parm u 0 0 1 2 3 4
end
v 489.577824528198 -133.904772100827 40.0
v 629.577824528198 -133.904772100827 40.0
v 629.577824528198 7.09522789917283 40.0
v 489.577824528198 7.09522789917283 40.0
v 489.577824528198 -133.904772100827 40.0
cstype bspline
deg 1
curv 0 5 221 222 223 224 225
parm u 0 0 1 2 3 4
end
v 489.577824528198 -133.904772100827 49.17880502221
v 629.577824528198 -133.904772100827 49.17880502221
v 629.577824528198 7.09522789917283 49.17880502221
v 489.577824528198 7.09522789917283 49.17880502221
v 489.577824528198 -133.904772100827 49.17880502221
cstype bspline
deg 1
curv 0 5 226 227 228 229 230
parm u 0 0 1 2 3 4
end
v 489.577824528198 -180.0 40.0
v 629.577824528198 -180.0 40.0
v 629.577824528198 -39.0 40.0
v 489.577824528198 -39.0 40.0
v 489.577824528198 -180.0 40.0
cstype bspline
deg 1
curv 0 5 231 232 233 234 235
parm u 0 0 1 2 3 4
end
v 489.577824528198 -180.0 0.0
v 629.577824528198 -180.0 0.0
v 629.577824528198 -39.0 0.0
v 489.577824528198 -39.0 0.0
v 489.577824528198 -180.0 0.0
cstype bspline
deg 1
curv 0 5 236 237 238 239 240
parm u 0 0 1 2 3 4
end
