# top_to_side_snap_fit (2024 compas_wood type_plates_name_top_to_side_pairs.xml)
v -1187.11964889849 -969.0912251856 40
v -187.119648898486 -969.0912251856 40
v -187.119648898486 -581.45473511136 40
v -1187.11964889849 -581.45473511136 40
v -1187.11964889849 -969.0912251856 40
cstype bspline
deg 1
curv 0 5 1 2 3 4 5
parm u 0 0 1 2 3 4
end
v -1187.11964889849 -969.0912251856 0
v -187.119648898486 -969.0912251856 0
v -187.119648898486 -581.45473511136 0
v -1187.11964889849 -581.45473511136 0
v -1187.11964889849 -969.0912251856 0
cstype bspline
deg 1
curv 0 5 6 7 8 9 10
parm u 0 0 1 2 3 4
end
v -1187.11964889849 -752.178969380895 40
v -187.119648898486 -752.178969380895 40
v -187.119648898486 -564.134227035671 365.703047838126
v -1187.11964889849 -564.134227035671 365.703047838126
v -1187.11964889849 -752.178969380895 40
cstype bspline
deg 1
curv 0 5 11 12 13 14 15
parm u 0 0 1 2 3 4
end
v -1187.11964889849 -798.366990916065 40
v -187.119648898486 -798.366990916065 40
v -187.119648898486 -598.775243187049 385.703047838126
v -1187.11964889849 -598.775243187049 385.703047838126
v -1187.11964889849 -798.366990916065 40
cstype bspline
deg 1
curv 0 5 16 17 18 19 20
parm u 0 0 1 2 3 4
end
v -1187.11964889849 -193.81824503712 40
v -187.119648898486 -193.81824503712 40
v -187.119648898486 193.81824503712 40
v -1187.11964889849 193.81824503712 40
v -1187.11964889849 -193.81824503712 40
cstype bspline
deg 1
curv 0 5 21 22 23 24 25
parm u 0 0 1 2 3 4
end
v -1187.11964889849 -193.81824503712 0
v -187.119648898486 -193.81824503712 0
v -187.119648898486 193.81824503712 0
v -1187.11964889849 193.81824503712 0
v -1187.11964889849 -193.81824503712 0
cstype bspline
deg 1
curv 0 5 26 27 28 29 30
parm u 0 0 1 2 3 4
end
v -1187.11964889849 20 40
v -187.119648898486 20 40
v -187.119648898486 19.9999999999999 427.63649007424
v -1187.11964889849 19.9999999999999 427.63649007424
v -1187.11964889849 20 40
cstype bspline
deg 1
curv 0 5 31 32 33 34 35
parm u 0 0 1 2 3 4
end
v -1187.11964889849 -20 40
v -187.119648898486 -20 40
v -187.119648898486 -20.0000000000001 427.63649007424
v -1187.11964889849 -20.0000000000001 427.63649007424
v -1187.11964889849 -20 40
cstype bspline
deg 1
curv 0 5 36 37 38 39 40
parm u 0 0 1 2 3 4
end
v -1187.11964889849 798.366990916065 40
v -187.119648898486 798.366990916065 40
v -187.119648898486 598.775243187048 385.703047838126
v -1187.11964889849 598.775243187048 385.703047838126
v -1187.11964889849 798.366990916065 40
cstype bspline
deg 1
curv 0 5 41 42 43 44 45
parm u 0 0 1 2 3 4
end
v -1187.11964889849 752.178969380895 40
v -187.119648898486 752.178969380895 40
v -187.119648898486 564.134227035671 365.703047838126
v -1187.11964889849 564.134227035671 365.703047838126
v -1187.11964889849 752.178969380895 40
cstype bspline
deg 1
curv 0 5 46 47 48 49 50
parm u 0 0 1 2 3 4
end
v -1187.11964889849 581.45473511136 40
v -187.119648898486 581.45473511136 40
v -187.119648898486 969.0912251856 40
v -1187.11964889849 969.0912251856 40
v -1187.11964889849 581.45473511136 40
cstype bspline
deg 1
curv 0 5 51 52 53 54 55
parm u 0 0 1 2 3 4
end
v -1187.11964889849 581.45473511136 0
v -187.119648898486 581.45473511136 0
v -187.119648898486 969.0912251856 0
v -1187.11964889849 969.0912251856 0
v -1187.11964889849 581.45473511136 0
cstype bspline
deg 1
curv 0 5 56 57 58 59 60
parm u 0 0 1 2 3 4
end
v 200.516841175754 -969.0912251856 40
v 588.153331249994 -969.0912251856 40
v 588.153331249994 -581.45473511136 40
v 200.516841175754 -581.45473511136 40
v 200.516841175754 -969.0912251856 40
cstype bspline
deg 1
curv 0 5 61 62 63 64 65
parm u 0 0 1 2 3 4
end
v 200.516841175754 -969.0912251856 0
v 588.153331249994 -969.0912251856 0
v 588.153331249994 -581.45473511136 0
v 200.516841175754 -581.45473511136 0
v 200.516841175754 -969.0912251856 0
cstype bspline
deg 1
curv 0 5 66 67 68 69 70
parm u 0 0 1 2 3 4
end
v 200.516841175754 -752.178969380895 40
v 588.153331249994 -752.178969380895 40
v 588.153331249994 -564.134227035671 365.703047838126
v 200.516841175754 -564.134227035671 365.703047838126
v 200.516841175754 -752.178969380895 40
cstype bspline
deg 1
curv 0 5 71 72 73 74 75
parm u 0 0 1 2 3 4
end
v 200.516841175754 -798.366990916065 40
v 588.153331249994 -798.366990916065 40
v 588.153331249994 -598.775243187049 385.703047838126
v 200.516841175754 -598.775243187049 385.703047838126
v 200.516841175754 -798.366990916065 40
cstype bspline
deg 1
curv 0 5 76 77 78 79 80
parm u 0 0 1 2 3 4
end
v 200.516841175754 -193.81824503712 40
v 588.153331249994 -193.81824503712 40
v 588.153331249994 193.81824503712 40
v 200.516841175754 193.81824503712 40
v 200.516841175754 -193.81824503712 40
cstype bspline
deg 1
curv 0 5 81 82 83 84 85
parm u 0 0 1 2 3 4
end
v 200.516841175754 -193.81824503712 0
v 588.153331249994 -193.81824503712 0
v 588.153331249994 193.81824503712 0
v 200.516841175754 193.81824503712 0
v 200.516841175754 -193.81824503712 0
cstype bspline
deg 1
curv 0 5 86 87 88 89 90
parm u 0 0 1 2 3 4
end
v 200.516841175754 20 40
v 588.153331249994 20 40
v 588.153331249994 19.9999999999999 427.63649007424
v 200.516841175754 19.9999999999999 427.63649007424
v 200.516841175754 20 40
cstype bspline
deg 1
curv 0 5 91 92 93 94 95
parm u 0 0 1 2 3 4
end
v 200.516841175754 -20 40
v 588.153331249994 -20 40
v 588.153331249994 -20.0000000000001 427.63649007424
v 200.516841175754 -20.0000000000001 427.63649007424
v 200.516841175754 -20 40
cstype bspline
deg 1
curv 0 5 96 97 98 99 100
parm u 0 0 1 2 3 4
end
v 200.516841175754 798.366990916065 40
v 588.153331249994 798.366990916065 40
v 588.153331249994 598.775243187048 385.703047838126
v 200.516841175754 598.775243187048 385.703047838126
v 200.516841175754 798.366990916065 40
cstype bspline
deg 1
curv 0 5 101 102 103 104 105
parm u 0 0 1 2 3 4
end
v 200.516841175754 752.178969380895 40
v 588.153331249994 752.178969380895 40
v 588.153331249994 564.134227035671 365.703047838126
v 200.516841175754 564.134227035671 365.703047838126
v 200.516841175754 752.178969380895 40
cstype bspline
deg 1
curv 0 5 106 107 108 109 110
parm u 0 0 1 2 3 4
end
v 200.516841175754 581.45473511136 40
v 588.153331249994 581.45473511136 40
v 588.153331249994 969.0912251856 40
v 200.516841175754 969.0912251856 40
v 200.516841175754 581.45473511136 40
cstype bspline
deg 1
curv 0 5 111 112 113 114 115
parm u 0 0 1 2 3 4
end
v 200.516841175754 581.45473511136 0
v 588.153331249994 581.45473511136 0
v 588.153331249994 969.0912251856 0
v 200.516841175754 969.0912251856 0
v 200.516841175754 581.45473511136 0
cstype bspline
deg 1
curv 0 5 116 117 118 119 120
parm u 0 0 1 2 3 4
end
v 975.789821324234 -969.0912251856 40
v 1363.42631139847 -969.0912251856 40
v 1363.42631139847 -581.45473511136 40
v 975.789821324234 -581.45473511136 40
v 975.789821324234 -969.0912251856 40
cstype bspline
deg 1
curv 0 5 121 122 123 124 125
parm u 0 0 1 2 3 4
end
v 975.789821324234 -969.0912251856 0
v 1363.42631139847 -969.0912251856 0
v 1363.42631139847 -581.45473511136 0
v 975.789821324234 -581.45473511136 0
v 975.789821324234 -969.0912251856 0
cstype bspline
deg 1
curv 0 5 126 127 128 129 130
parm u 0 0 1 2 3 4
end
v 975.789821324234 -610.615865363664 39.9999999999996
v 1363.42631139847 -883.448622112515 40.0000000000001
v 1471.65849005144 -729.674044799771 365.703047838126
v 1084.0219999772 -456.84128805092 365.703047838126
v 975.789821324234 -610.615865363664 39.9999999999996
cstype bspline
deg 1
curv 0 5 131 132 133 134 135
parm u 0 0 1 2 3 4
end
v 975.789821324234 -667.097338184445 39.9999999999997
v 1363.42631139847 -939.930094933295 40.0000000000001
v 1478.30455488697 -776.712893221827 385.703047838126
v 1090.66806481273 -503.880136472976 385.703047838126
v 975.789821324234 -667.097338184445 39.9999999999997
cstype bspline
deg 1
curv 0 5 136 137 138 139 140
parm u 0 0 1 2 3 4
end
v 975.789821324234 -193.81824503712 40
v 1363.42631139847 -193.81824503712 40
v 1363.42631139847 193.81824503712 40
v 975.789821324234 193.81824503712 40
v 975.789821324234 -193.81824503712 40
cstype bspline
deg 1
curv 0 5 141 142 143 144 145
parm u 0 0 1 2 3 4
end
v 975.789821324234 -193.81824503712 0
v 1363.42631139847 -193.81824503712 0
v 1363.42631139847 193.81824503712 0
v 975.789821324234 193.81824503712 0
v 975.789821324234 -193.81824503712 0
cstype bspline
deg 1
curv 0 5 146 147 148 149 150
parm u 0 0 1 2 3 4
end
v 975.789821324234 160.873573527403 40
v 1363.42631139847 -111.959183221448 40
v 1363.42631139847 -111.959183221448 427.63649007424
v 975.789821324234 160.873573527403 427.63649007424
v 975.789821324234 160.873573527403 40
cstype bspline
deg 1
curv 0 5 151 152 153 154 155
parm u 0 0 1 2 3 4
end
v 975.789821324234 111.959183221447 40
v 1363.42631139847 -160.873573527403 40
v 1363.42631139847 -160.873573527403 427.63649007424
v 975.789821324234 111.959183221447 427.63649007424
v 975.789821324234 111.959183221447 40
cstype bspline
deg 1
curv 0 5 156 157 158 159 160
parm u 0 0 1 2 3 4
end
v 975.789821324234 581.45473511136 40
v 1363.42631139847 581.45473511136 40
v 1363.42631139847 969.0912251856 40
v 975.789821324234 969.0912251856 40
v 975.789821324234 581.45473511136 40
cstype bspline
deg 1
curv 0 5 161 162 163 164 165
parm u 0 0 1 2 3 4
end
v 975.789821324234 581.45473511136 0
v 1363.42631139847 581.45473511136 0
v 1363.42631139847 969.0912251856 0
v 975.789821324234 969.0912251856 0
v 975.789821324234 581.45473511136 0
cstype bspline
deg 1
curv 0 5 166 167 168 169 170
parm u 0 0 1 2 3 4
end
v 975.789821324234 939.930094933295 39.9999999999989
v 1363.42631139847 667.097338184445 40
v 1248.54806790998 503.880136472977 385.703047838127
v 860.911577835741 776.712893221828 385.703047838126
v 975.789821324234 939.930094933295 39.9999999999989
cstype bspline
deg 1
curv 0 5 171 172 173 174 175
parm u 0 0 1 2 3 4
end
v 975.789821324234 883.448622112516 39.9999999999988
v 1363.42631139847 610.615865363665 40
v 1255.1941327455 456.84128805092 365.703047838127
v 867.557642671263 729.674044799771 365.703047838126
v 975.789821324234 883.448622112516 39.9999999999988
cstype bspline
deg 1
curv 0 5 176 177 178 179 180
parm u 0 0 1 2 3 4
end
