# vda_floor_1 (2024 compas_wood type_plates_name_vda_floor_1.xml)
v 941.170006328805 -234.277819824219 71.4725768011381
v 944.109843051792 -218.545495136253 72.9715529703242
v 944.109843051792 -218.545495136253 98.8833190917969
v 941.170006328805 -234.277819824219 98.8833190917969
v 941.170006328805 -234.277819824219 71.4725768011381
cstype bspline
deg 1
curv 0 5 1 2 3 4 5
parm u 0 0 1 2 3 4
end
v 942.664804866443 -236.077819824219 70.9373860855404
v 946.162045445337 -217.362588509204 72.7205736498978
v 946.162045445337 -217.362588509204 100.683319091797
v 942.664804866443 -236.077819824219 100.683319091797
v 942.664804866443 -236.077819824219 70.9373860855404
cstype bspline
deg 1
curv 0 5 6 7 8 9 10
parm u 0 0 1 2 3 4
end
v 910.947925087179 -206.804573454961 98.8833190917969
v 909.283907187423 -234.277819824219 98.8833190917969
v 941.170006328805 -234.277819824219 98.8833190917969
v 944.109843051792 -218.545495136253 98.8833190917969
v 910.947925087179 -206.804573454961 98.8833190917969
cstype bspline
deg 1
curv 0 5 11 12 13 14 15
parm u 0 0 1 2 3 4
end
v 909.295711840379 -204.310124656115 100.683319091797
v 907.371584903096 -236.077819824219 100.683319091797
v 942.664804866443 -236.077819824219 100.683319091797
v 946.162045445337 -217.362588509204 100.683319091797
v 909.295711840379 -204.310124656115 100.683319091797
cstype bspline
deg 1
curv 0 5 16 17 18 19 20
parm u 0 0 1 2 3 4
end
