# type_plates_name_vda_floor_0.xml
v 281.825437985896 81.3623659544901 232.673141479492
v 378.724365921055 -260.277038763486 232.673141479492
v 446.940917968749 -250.789977990487 232.673141479492
v 446.94091796875 104.384093820415 232.673141479492
v 281.825437985896 81.3623659544901 232.673141479492
cstype bspline
deg 1
curv 0 5 1 2 3 4 5
parm u 0 0 1 2 3 4
end
v 304.782307370233 66.3890778219808 214.673141479492
v 396.724361417233 -257.773730606449 214.673141479492
v 428.940917968749 -253.293286773883 214.673141479492
v 428.94091796875 83.7002696357783 214.673141479492
v 304.782307370233 66.3890778219808 214.673141479492
cstype bspline
deg 1
curv 0 5 6 7 8 9 10
parm u 0 0 1 2 3 4
end
v 281.825437985895 81.3623659544895 -43.2582620874871
v 378.724365921054 -260.277038763485 -225.049575280849
v 378.724365921055 -260.277038763486 232.673141479492
v 281.825437985896 81.3623659544901 232.673141479492
v 281.825437985895 81.3623659544895 -43.2582620874871
cstype bspline
deg 1
curv 0 5 11 12 13 14 15
parm u 0 0 1 2 3 4
end
v 304.782307370232 66.3890778219803 -54.2987365575886
v 396.724361417232 -257.773730606448 -226.790497808898
v 396.724361417233 -257.773730606449 214.673141479492
v 304.782307370233 66.3890778219808 214.673141479492
v 304.782307370232 66.3890778219803 -54.2987365575886
cstype bspline
deg 1
curv 0 5 16 17 18 19 20
parm u 0 0 1 2 3 4
end
v 281.825437985895 81.3623659544895 -43.2582620874871
v 281.825437985896 81.3623659544901 232.673141479492
v 446.94091796875 104.384093820415 232.673141479492
v 446.940917968751 104.384093820415 -59.1994052075936
v 281.825437985895 81.3623659544895 -43.2582620874871
cstype bspline
deg 1
curv 0 5 21 22 23 24 25
parm u 0 0 1 2 3 4
end
v 304.782307370232 66.3890778219803 -54.2987365575886
v 304.782307370233 66.3890778219808 214.673141479492
v 428.94091796875 83.7002696357783 214.673141479492
v 428.940917968751 83.7002696357779 -66.2856815814596
v 304.782307370232 66.3890778219803 -54.2987365575886
cstype bspline
deg 1
curv 0 5 26 27 28 29 30
parm u 0 0 1 2 3 4
end
v 446.94091796875 -250.789977990487 -231.647339834226
v 446.940917968751 104.384093820415 -59.1994052075936
v 446.94091796875 104.384093820415 232.673141479492
v 446.940917968749 -250.789977990487 232.673141479492
v 446.94091796875 -250.789977990487 -231.647339834226
cstype bspline
deg 1
curv 0 5 31 32 33 34 35
parm u 0 0 1 2 3 4
end
v 428.94091796875 -253.293286773883 -229.906416870577
v 428.940917968751 83.7002696357779 -66.2856815814596
v 428.94091796875 83.7002696357783 214.673141479492
v 428.940917968749 -253.293286773883 214.673141479492
v 428.94091796875 -253.293286773883 -229.906416870577
cstype bspline
deg 1
curv 0 5 36 37 38 39 40
parm u 0 0 1 2 3 4
end
v 166.97986231142 18.6421521080807 232.673141479492
v 328.328343364045 -280.719433966411 232.673141479492
v 378.724366001883 -260.277036716561 232.673141479492
v 281.825438595637 81.362366136608 232.673141479492
v 166.97986231142 18.6421521080807 232.673141479492
cstype bspline
deg 1
curv 0 5 41 42 43 44 45
parm u 0 0 1 2 3 4
end
v 191.317995559137 11.4244796805464 214.673141479492
v 345.107867938928 -273.913069315606 214.673141479492
v 361.944843007448 -267.083400726282 214.673141479492
v 270.661720968355 54.7561917107185 214.673141479492
v 191.317995559137 11.4244796805464 214.673141479492
cstype bspline
deg 1
curv 0 5 46 47 48 49 50
parm u 0 0 1 2 3 4
end
v 166.979862311421 18.6421521080797 -39.0213541843721
v 328.328343364046 -280.719433966412 -217.748396846584
v 328.328343364045 -280.719433966411 232.673141479492
v 166.97986231142 18.6421521080807 232.673141479492
v 166.979862311421 18.6421521080797 -39.0213541843721
cstype bspline
deg 1
curv 0 5 51 52 53 54 55
parm u 0 0 1 2 3 4
end
v 191.317995559138 11.4244796805454 -49.8250402411505
v 345.107867938929 -273.913069315606 -220.179349761265
v 345.107867938928 -273.913069315606 214.673141479492
v 191.317995559137 11.4244796805464 214.673141479492
v 191.317995559138 11.4244796805454 -49.8250402411505
cstype bspline
deg 1
curv 0 5 56 57 58 59 60
parm u 0 0 1 2 3 4
end
v 166.979862311421 18.6421521080797 -39.0213541843721
v 166.97986231142 18.6421521080807 232.673141479492
v 281.825438595637 81.362366136608 232.673141479492
v 281.825438595639 81.3623661366075 -48.788858158266
v 166.979862311421 18.6421521080797 -39.0213541843721
cstype bspline
deg 1
curv 0 5 61 62 63 64 65
parm u 0 0 1 2 3 4
end
v 191.317995559138 11.4244796805454 -49.8250402411505
v 191.317995559137 11.4244796805464 214.673141479492
v 270.661720968355 54.7561917107185 214.673141479492
v 270.661720968357 54.756191710718 -56.5731465096947
v 191.317995559138 11.4244796805454 -49.8250402411505
cstype bspline
deg 1
curv 0 5 66 67 68 69 70
parm u 0 0 1 2 3 4
end
v 378.724366001886 -260.277036716561 -225.049578567974
v 281.825438595639 81.3623661366075 -48.788858158266
v 281.825438595637 81.362366136608 232.673141479492
v 378.724366001883 -260.277036716561 232.673141479492
v 378.724366001886 -260.277036716561 -225.049578567974
cstype bspline
deg 1
curv 0 5 71 72 73 74 75
parm u 0 0 1 2 3 4
end
v 361.944843007451 -267.083400726281 -222.618625882263
v 270.661720968357 54.756191710718 -56.5731465096947
v 270.661720968355 54.7561917107185 214.673141479492
v 361.944843007448 -267.083400726282 214.673141479492
v 361.944843007451 -267.083400726281 -222.618625882263
cstype bspline
deg 1
curv 0 5 76 77 78 79 80
parm u 0 0 1 2 3 4
end
v 64.8872081098063 -74.4996943023981 232.673141479492
v 280.088004552123 -314.617850555765 232.673141479492
v 328.32833622191 -280.719424703322 232.673141479492
v 166.979859858745 18.6421526704737 232.673141479492
v 64.8872081098063 -74.4996943023981 232.673141479492
cstype bspline
deg 1
curv 0 5 81 82 83 84 85
parm u 0 0 1 2 3 4
end
v 90.1990950155397 -75.7724964500497 214.673141479492
v 294.918951687926 -304.196160977718 214.673141479492
v 313.497384126023 -291.141117766814 214.673141479492
v 162.075740942239 -10.197516849253 214.673141479492
v 90.1990950155397 -75.7724964500497 214.673141479492
cstype bspline
deg 1
curv 0 5 86 87 88 89 90
parm u 0 0 1 2 3 4
end
v 64.8872081098073 -74.4996943023992 -29.6359075078351
v 280.088004552123 -314.617850555765 -212.626031033367
v 280.088004552123 -314.617850555765 232.673141479492
v 64.8872081098063 -74.4996943023981 232.673141479492
v 64.8872081098073 -74.4996943023992 -29.6359075078351
cstype bspline
deg 1
curv 0 5 91 92 93 94 95
parm u 0 0 1 2 3 4
end
v 90.1990950155406 -75.7724964500508 -40.122900236792
v 294.918951687926 -304.196160977718 -214.200842697617
v 294.918951687926 -304.196160977718 214.673141479492
v 90.1990950155397 -75.7724964500497 214.673141479492
v 90.1990950155406 -75.7724964500508 -40.122900236792
cstype bspline
deg 1
curv 0 5 96 97 98 99 100
parm u 0 0 1 2 3 4
end
v 64.8872081098073 -74.4996943023992 -29.6359075078351
v 64.8872081098063 -74.4996943023981 232.673141479492
v 166.979859858745 18.6421526704737 232.673141479492
v 166.979859858747 18.6421526704731 -31.7188851386173
v 64.8872081098073 -74.4996943023992 -29.6359075078351
cstype bspline
deg 1
curv 0 5 101 102 103 104 105
parm u 0 0 1 2 3 4
end
v 90.1990950155406 -75.7724964500508 -40.122900236792
v 90.1990950155397 -75.7724964500497 214.673141479492
v 162.075740942239 -10.197516849253 214.673141479492
v 162.07574094224 -10.1975168492536 -41.5893862480394
v 90.1990950155406 -75.7724964500508 -40.122900236792
cstype bspline
deg 1
curv 0 5 106 107 108 109 110
parm u 0 0 1 2 3 4
end
v 328.328336221912 -280.719424703321 -217.748390131893
v 166.979859858747 18.6421526704731 -31.7188851386173
v 166.979859858745 18.6421526704737 232.673141479492
v 328.32833622191 -280.719424703322 232.673141479492
v 328.328336221912 -280.719424703321 -217.748390131893
cstype bspline
deg 1
curv 0 5 111 112 113 114 115
parm u 0 0 1 2 3 4
end
v 313.497384126024 -291.141117766813 -216.173577940962
v 162.07574094224 -10.1975168492536 -41.5893862480394
v 162.075740942239 -10.197516849253 214.673141479492
v 313.497384126023 -291.141117766814 214.673141479492
v 313.497384126024 -291.141117766813 -216.173577940962
cstype bspline
deg 1
curv 0 5 116 117 118 119 120
parm u 0 0 1 2 3 4
end
v -18.5875254777199 -188.412298011049 232.673141479492
v 239.3461940437 -361.490416571338 232.673141479492
v 280.08801188593 -314.617859557773 232.673141479492
v 64.8872057098918 -74.4996924436505 232.673141479492
v -18.5875254777199 -188.412298011049 232.673141479492
cstype bspline
deg 1
curv 0 5 121 122 123 124 125
parm u 0 0 1 2 3 4
end
v 7.02070279460486 -183.919025152937 214.673141479492
v 251.246771745513 -347.799066102327 214.673141479492
v 268.187431564076 -328.309213041083 214.673141479492
v 66.2913096745413 -103.036233831573 214.673141479492
v 7.02070279460486 -183.919025152937 214.673141479492
cstype bspline
deg 1
curv 0 5 126 127 128 129 130
parm u 0 0 1 2 3 4
end
v -18.5875254777196 -188.412298011048 -32.2476465842841
v 239.3461940437 -361.490416571338 -213.283622852506
v 239.3461940437 -361.490416571338 232.673141479492
v -18.5875254777199 -188.412298011049 232.673141479492
v -18.5875254777196 -188.412298011048 -32.2476465842841
cstype bspline
deg 1
curv 0 5 131 132 133 134 135
parm u 0 0 1 2 3 4
end
v 7.02070279460509 -183.919025152936 -41.6765566993016
v 251.246771745513 -347.799066102326 -213.091542319304
v 251.246771745513 -347.799066102327 214.673141479492
v 7.02070279460486 -183.919025152937 214.673141479492
v 7.02070279460509 -183.919025152936 -41.6765566993016
cstype bspline
deg 1
curv 0 5 136 137 138 139 140
parm u 0 0 1 2 3 4
end
v -18.5875254777196 -188.412298011048 -32.2476465842841
v -18.5875254777199 -188.412298011049 232.673141479492
v 64.8872057098918 -74.4996924436505 232.673141479492
v 64.8872057098915 -74.4996924436509 -23.8535266870288
v -18.5875254777196 -188.412298011048 -32.2476465842841
cstype bspline
deg 1
curv 0 5 141 142 143 144 145
parm u 0 0 1 2 3 4
end
v 7.02070279460509 -183.919025152936 -41.6765566993016
v 7.02070279460486 -183.919025152937 214.673141479492
v 66.2913096745413 -103.036233831573 214.673141479492
v 66.2913096745411 -103.036233831573 -35.7163748160552
v 7.02070279460509 -183.919025152936 -41.6765566993016
cstype bspline
deg 1
curv 0 5 146 147 148 149 150
parm u 0 0 1 2 3 4
end
v 280.088011885929 -314.617859557773 -212.626032079112
v 64.8872057098915 -74.4996924436509 -23.8535266870288
v 64.8872057098918 -74.4996924436505 232.673141479492
v 280.08801188593 -314.617859557773 232.673141479492
v 280.088011885929 -314.617859557773 -212.626032079112
cstype bspline
deg 1
curv 0 5 151 152 153 154 155
parm u 0 0 1 2 3 4
end
v 268.187431564076 -328.309213041084 -212.818112654603
v 66.2913096745411 -103.036233831573 -35.7163748160552
v 66.2913096745413 -103.036233831573 214.673141479492
v 268.187431564076 -328.309213041083 214.673141479492
v 268.187431564076 -328.309213041084 -212.818112654603
cstype bspline
deg 1
curv 0 5 156 157 158 159 160
parm u 0 0 1 2 3 4
end
v -59.0362530351691 -313.637632697334 232.673141479492
v 212.46655304496 -414.061951725357 232.673141479492
v 239.34619349657 -361.490413199007 232.673141479492
v -18.58752645786 -188.41229434816 232.673141479492
v -59.0362530351691 -313.637632697334 232.673141479492
cstype bspline
deg 1
curv 0 5 161 162 163 164 165
parm u 0 0 1 2 3 4
end
v -36.6017839568926 -302.7439025807 214.673141479492
v 220.718648276025 -397.922400188422 214.673141479492
v 231.094099927304 -377.629961485775 214.673141479492
v -8.79587877780828 -216.65951429963 214.673141479492
v -36.6017839568926 -302.7439025807 214.673141479492
cstype bspline
deg 1
curv 0 5 166 167 168 169 170
parm u 0 0 1 2 3 4
end
v -59.036253035169 -313.637632697333 -46.9542950709177
v 212.466553044961 -414.061951725357 -218.727992855244
v 212.46655304496 -414.061951725357 232.673141479492
v -59.0362530351691 -313.637632697334 232.673141479492
v -59.036253035169 -313.637632697333 -46.9542950709177
cstype bspline
deg 1
curv 0 5 171 172 173 174 175
parm u 0 0 1 2 3 4
end
v -36.6017839568925 -302.743902580699 -54.2557333234553
v 220.718648276026 -397.922400188421 -217.056563260603
v 220.718648276025 -397.922400188422 214.673141479492
v -36.6017839568926 -302.7439025807 214.673141479492
v -36.6017839568925 -302.743902580699 -54.2557333234553
cstype bspline
deg 1
curv 0 5 176 177 178 179 180
parm u 0 0 1 2 3 4
end
v -59.036253035169 -313.637632697333 -46.9542950709177
v -59.0362530351691 -313.637632697334 232.673141479492
v -18.58752645786 -188.41229434816 232.673141479492
v -18.58752645786 -188.41229434816 -22.2002794177779
v -59.036253035169 -313.637632697333 -46.9542950709177
cstype bspline
deg 1
curv 0 5 181 182 183 184 185
parm u 0 0 1 2 3 4
end
v -36.6017839568925 -302.743902580699 -54.2557333234553
v -36.6017839568926 -302.7439025807 214.673141479492
v -8.79587877780828 -216.65951429963 214.673141479492
v -8.79587877780828 -216.65951429963 -37.23893526092
v -36.6017839568925 -302.743902580699 -54.2557333234553
cstype bspline
deg 1
curv 0 5 186 187 188 189 190
parm u 0 0 1 2 3 4
end
v 239.346193496571 -361.490413199007 -213.283626874711
v -18.58752645786 -188.41229434816 -22.2002794177779
v -18.58752645786 -188.41229434816 232.673141479492
v 239.34619349657 -361.490413199007 232.673141479492
v 239.346193496571 -361.490413199007 -213.283626874711
cstype bspline
deg 1
curv 0 5 191 192 193 194 195
parm u 0 0 1 2 3 4
end
v 231.094099927304 -377.629961485776 -214.955056132761
v -8.79587877780828 -216.65951429963 -37.23893526092
v -8.79587877780828 -216.65951429963 214.673141479492
v 231.094099927304 -377.629961485775 214.673141479492
v 231.094099927304 -377.629961485776 -214.955056132761
cstype bspline
deg 1
curv 0 5 196 197 198 199 200
parm u 0 0 1 2 3 4
end
v -94.0086667026539 -500.789978027344 232.673141479492
v 196.940917445451 -500.789978027344 232.673141479492
v 212.46655246733 -414.061952655211 232.673141479492
v -59.0362549796769 -313.637633121603 232.673141479492
v -94.0086667026539 -500.789978027344 232.673141479492
cstype bspline
deg 1
curv 0 5 201 202 203 204 205
parm u 0 0 1 2 3 4
end
v -72.3335050108395 -482.789978027344 214.673141479492
v 200.163191089924 -482.789978027344 214.673141479492
v 209.244279175731 -432.061950684011 214.673141479492
v -45.2629777567173 -337.923999278867 214.673141479492
v -72.3335050108395 -482.789978027344 214.673141479492
cstype bspline
deg 1
curv 0 5 206 207 208 209 210
parm u 0 0 1 2 3 4
end
v -94.0086667026539 -500.789978027344 -64.7861753726265
v 196.940917445451 -500.789978027344 -232.673144526213
v 196.940917445451 -500.789978027344 232.673141479492
v -94.0086667026539 -500.789978027344 232.673141479492
v -94.0086667026539 -500.789978027344 -64.7861753726265
cstype bspline
deg 1
curv 0 5 211 212 213 214 215
parm u 0 0 1 2 3 4
end
v -72.3335050108395 -482.789978027344 -72.539813669363
v 200.163191089924 -482.789978027344 -229.778891864557
v 200.163191089924 -482.789978027344 214.673141479492
v -72.3335050108395 -482.789978027344 214.673141479492
v -72.3335050108395 -482.789978027344 -72.539813669363
cstype bspline
deg 1
curv 0 5 216 217 218 219 220
parm u 0 0 1 2 3 4
end
v -94.0086667026539 -500.789978027344 -64.7861753726265
v -94.0086667026539 -500.789978027344 232.673141479492
v -59.0362549796769 -313.637633121603 232.673141479492
v -59.036254979677 -313.637633121603 -35.5414402465106
v -94.0086667026539 -500.789978027344 -64.7861753726265
cstype bspline
deg 1
curv 0 5 221 222 223 224 225
parm u 0 0 1 2 3 4
end
v -72.3335050108395 -482.789978027344 -72.539813669363
v -72.3335050108395 -482.789978027344 214.673141479492
v -45.2629777567173 -337.923999278867 214.673141479492
v -45.2629777567173 -337.923999278867 -49.9028160970458
v -72.3335050108395 -482.789978027344 -72.539813669363
cstype bspline
deg 1
curv 0 5 226 227 228 229 230
parm u 0 0 1 2 3 4
end
v 212.46655246733 -414.061952655211 -218.727987955466
v -59.036254979677 -313.637633121603 -35.5414402465106
v -59.0362549796769 -313.637633121603 232.673141479492
v 212.46655246733 -414.061952655211 232.673141479492
v 212.46655246733 -414.061952655211 -218.727987955466
cstype bspline
deg 1
curv 0 5 231 232 233 234 235
parm u 0 0 1 2 3 4
end
v 209.244279175732 -432.061950684011 -221.622240300169
v -45.2629777567173 -337.923999278867 -49.9028160970458
v -45.2629777567173 -337.923999278867 214.673141479492
v 209.244279175731 -432.061950684011 214.673141479492
v 209.244279175732 -432.061950684011 -221.622240300169
cstype bspline
deg 1
curv 0 5 236 237 238 239 240
parm u 0 0 1 2 3 4
end
v 162.23047083154 475.124817486069 232.673141479492
v 281.825437965771 81.3623661431667 232.673141479492
v 446.940917968751 104.384094011898 232.673141479492
v 446.94091796875 500.789977665505 232.673141479492
v 162.23047083154 475.124817486069 232.673141479492
cstype bspline
deg 1
curv 0 5 241 242 243 244 245
parm u 0 0 1 2 3 4
end
v 185.883973548951 459.184070492419 214.673141479492
v 294.577432800293 101.314471249912 214.673141479492
v 428.940917968751 120.048508730751 214.673141479492
v 428.94091796875 481.094384897749 214.673141479492
v 185.883973548951 459.184070492419 214.673141479492
cstype bspline
deg 1
curv 0 5 246 247 248 249 250
parm u 0 0 1 2 3 4
end
v 162.23047083154 475.124817486069 44.2621826418176
v 281.825437965771 81.3623661431667 -43.2582633753347
v 281.825437965771 81.3623661431667 232.673141479492
v 162.23047083154 475.124817486069 232.673141479492
v 162.23047083154 475.124817486069 44.2621826418176
cstype bspline
deg 1
curv 0 5 251 252 253 254 255
parm u 0 0 1 2 3 4
end
v 185.883973548951 459.184070492419 37.8751801489914
v 294.577432800293 101.314471249912 -41.6674650038557
v 294.577432800293 101.314471249912 214.673141479492
v 185.883973548951 459.184070492419 214.673141479492
v 185.883973548951 459.184070492419 37.8751801489914
cstype bspline
deg 1
curv 0 5 256 257 258 259 260
parm u 0 0 1 2 3 4
end
v 162.23047083154 475.124817486069 44.2621826418176
v 162.23047083154 475.124817486069 232.673141479492
v 446.94091796875 500.789977665505 232.673141479492
v 446.940917968749 500.789977665505 5.74707552235618
v 162.23047083154 475.124817486069 44.2621826418176
cstype bspline
deg 1
curv 0 5 261 262 263 264 265
parm u 0 0 1 2 3 4
end
v 185.883973548951 459.184070492419 37.8751801489914
v 185.883973548951 459.184070492419 214.673141479492
v 428.94091796875 481.094384897749 214.673141479492
v 428.940917968749 481.094384897749 4.99488248311039
v 185.883973548951 459.184070492419 37.8751801489914
cstype bspline
deg 1
curv 0 5 266 267 268 269 270
parm u 0 0 1 2 3 4
end
v 281.825437965771 81.3623661431667 -43.2582633753347
v 446.94091796875 104.384094011898 -64.1597340163021
v 446.940917968751 104.384094011898 232.673141479492
v 281.825437965771 81.3623661431667 232.673141479492
v 281.825437965771 81.3623661431667 -43.2582633753347
cstype bspline
deg 1
curv 0 5 271 272 273 274 275
parm u 0 0 1 2 3 4
end
v 294.577432800293 101.314471249912 -41.6674650038557
v 428.94091796875 120.048508730751 -58.6761333638175
v 428.940917968751 120.048508730751 214.673141479492
v 294.577432800293 101.314471249912 214.673141479492
v 294.577432800293 101.314471249912 -41.6674650038557
cstype bspline
deg 1
curv 0 5 276 277 278 279 280
parm u 0 0 1 2 3 4
end
v 446.94091796875 104.384094011898 -64.1597340163021
v 446.940917968749 500.789977665505 5.74707552235618
v 446.94091796875 500.789977665505 232.673141479492
v 446.940917968751 104.384094011898 232.673141479492
v 446.94091796875 104.384094011898 -64.1597340163021
cstype bspline
deg 1
curv 0 5 281 282 283 284 285
parm u 0 0 1 2 3 4
end
v 428.94091796875 120.048508730751 -58.6761333638175
v 428.940917968749 481.094384897749 4.99488248311039
v 428.94091796875 481.094384897749 214.673141479492
v 428.940917968751 120.048508730751 214.673141479492
v 428.94091796875 120.048508730751 -58.6761333638175
cstype bspline
deg 1
curv 0 5 286 287 288 289 290
parm u 0 0 1 2 3 4
end
v -71.3360628392281 422.070007716224 232.673141479492
v 166.979860463542 18.6421506523954 232.673141479492
v 281.825437500112 81.3623650918022 232.673141479492
v 162.230470430175 475.124816223021 232.673141479492
v -71.3360628392281 422.070007716224 232.673141479492
cstype bspline
deg 1
curv 0 5 291 292 293 294 295
parm u 0 0 1 2 3 4
end
v -43.2894632047409 409.982276647438 214.673141479492
v 173.626250462293 42.7812926956241 214.673141479492
v 260.346997139559 90.1417916220361 214.673141479492
v 149.877114506368 453.860205762203 214.673141479492
v -43.2894632047409 409.982276647438 214.673141479492
cstype bspline
deg 1
curv 0 5 296 297 298 299 300
parm u 0 0 1 2 3 4
end
v -71.3360628392273 422.070007716224 66.3663589937013
v 166.979860463543 18.642150652395 -39.0213587728288
v 166.979860463542 18.6421506523954 232.673141479492
v -71.3360628392281 422.070007716224 232.673141479492
v -71.3360628392273 422.070007716224 66.3663589937013
cstype bspline
deg 1
curv 0 5 301 302 303 304 305
parm u 0 0 1 2 3 4
end
v -43.2894632047402 409.982276647438 60.3704783375962
v 173.626250462293 42.7812926956237 -35.5536701383064
v 173.626250462293 42.7812926956241 214.673141479492
v -43.2894632047409 409.982276647438 214.673141479492
v -43.2894632047402 409.982276647438 60.3704783375962
cstype bspline
deg 1
curv 0 5 306 307 308 309 310
parm u 0 0 1 2 3 4
end
v -71.3360628392273 422.070007716224 66.3663589937013
v -71.3360628392281 422.070007716224 232.673141479492
v 162.230470430175 475.124816223021 232.673141479492
v 162.230470430176 475.12481622302 44.2621859090977
v -71.3360628392273 422.070007716224 66.3663589937013
cstype bspline
deg 1
curv 0 5 311 312 313 314 315
parm u 0 0 1 2 3 4
end
v -43.2894632047402 409.982276647438 60.3704783375962
v -43.2894632047409 409.982276647438 214.673141479492
v 149.877114506368 453.860205762203 214.673141479492
v 149.87711450637 453.860205762202 42.0896595570992
v -43.2894632047402 409.982276647438 60.3704783375962
cstype bspline
deg 1
curv 0 5 316 317 318 319 320
parm u 0 0 1 2 3 4
end
v 166.979860463543 18.642150652395 -39.0213587728288
v 281.825437500115 81.3623650918025 -43.2582652494415
v 281.825437500112 81.3623650918022 232.673141479492
v 166.979860463542 18.6421506523954 232.673141479492
v 166.979860463543 18.642150652395 -39.0213587728288
cstype bspline
deg 1
curv 0 5 321 322 323 324 325
parm u 0 0 1 2 3 4
end
v 173.626250462293 42.7812926956237 -35.5536701383064
v 260.346997139561 90.1417916220363 -38.7529896309203
v 260.346997139559 90.1417916220361 214.673141479492
v 173.626250462293 42.7812926956241 214.673141479492
v 173.626250462293 42.7812926956237 -35.5536701383064
cstype bspline
deg 1
curv 0 5 326 327 328 329 330
parm u 0 0 1 2 3 4
end
v 281.825437500115 81.3623650918025 -43.2582652494415
v 162.230470430176 475.12481622302 44.2621859090977
v 162.230470430175 475.124816223021 232.673141479492
v 281.825437500112 81.3623650918022 232.673141479492
v 281.825437500115 81.3623650918025 -43.2582652494415
cstype bspline
deg 1
curv 0 5 331 332 333 334 335
parm u 0 0 1 2 3 4
end
v 260.346997139561 90.1417916220363 -38.7529896309203
v 149.87711450637 453.860205762202 42.0896595570992
v 149.877114506368 453.860205762203 214.673141479492
v 260.346997139559 90.1417916220361 214.673141479492
v 260.346997139561 90.1417916220363 -38.7529896309203
cstype bspline
deg 1
curv 0 5 336 337 338 339 340
parm u 0 0 1 2 3 4
end
v -240.740783437316 266.517762478118 232.673141479492
v 64.8872068875334 -74.4996956415395 232.673141479492
v 166.979860163508 18.6421527244873 232.673141479492
v -71.3360605577496 422.070005418258 232.673141479492
v -240.740783437316 266.517762478118 232.673141479492
cstype bspline
deg 1
curv 0 5 341 342 343 344 345
parm u 0 0 1 2 3 4
end
v -215.46711338347 265.28753016635 214.673141479492
v 66.171367674861 -48.9626103954129 214.673141479492
v 144.042316321084 22.0811313253443 214.673141479492
v -75.5309528752347 393.780899568821 214.673141479492
v -215.46711338347 265.28753016635 214.673141479492
cstype bspline
deg 1
curv 0 5 346 347 348 349 350
parm u 0 0 1 2 3 4
end
v -240.740783437316 266.517762478118 70.5452197415842
v 64.8872068875336 -74.4996956415397 -29.6359052417461
v 64.8872068875334 -74.4996956415395 232.673141479492
v -240.740783437316 266.517762478118 232.673141479492
v -240.740783437316 266.517762478118 70.5452197415842
cstype bspline
deg 1
curv 0 5 351 352 353 354 355
parm u 0 0 1 2 3 4
end
v -215.467113383469 265.28753016635 66.2800131965989
v 66.1713676748612 -48.9626103954131 -26.037643445486
v 66.171367674861 -48.9626103954129 214.673141479492
v -215.46711338347 265.28753016635 214.673141479492
v -215.467113383469 265.28753016635 66.2800131965989
cstype bspline
deg 1
curv 0 5 356 357 358 359 360
parm u 0 0 1 2 3 4
end
v -240.740783437316 266.517762478118 70.5452197415842
v -240.740783437316 266.517762478118 232.673141479492
v -71.3360605577496 422.070005418258 232.673141479492
v -71.3360605577498 422.070005418258 66.3663573944619
v -240.740783437316 266.517762478118 70.5452197415842
cstype bspline
deg 1
curv 0 5 361 362 363 364 365
parm u 0 0 1 2 3 4
end
v -215.467113383469 265.28753016635 66.2800131965989
v -215.46711338347 265.28753016635 214.673141479492
v -75.5309528752347 393.780899568821 214.673141479492
v -75.5309528752349 393.780899568821 62.8280790225768
v -215.467113383469 265.28753016635 66.2800131965989
cstype bspline
deg 1
curv 0 5 366 367 368 369 370
parm u 0 0 1 2 3 4
end
v 64.8872068875336 -74.4996956415397 -29.6359052417461
v 166.979860163508 18.6421527244868 -32.2441114338961
v 166.979860163508 18.6421527244873 232.673141479492
v 64.8872068875334 -74.4996956415395 232.673141479492
v 64.8872068875336 -74.4996956415397 -29.6359052417461
cstype bspline
deg 1
curv 0 5 371 372 373 374 375
parm u 0 0 1 2 3 4
end
v 66.1713676748612 -48.9626103954131 -26.037643445486
v 144.042316321084 22.0811313253439 -28.0270470306651
v 144.042316321084 22.0811313253443 214.673141479492
v 66.171367674861 -48.9626103954129 214.673141479492
v 66.1713676748612 -48.9626103954131 -26.037643445486
cstype bspline
deg 1
curv 0 5 376 377 378 379 380
parm u 0 0 1 2 3 4
end
v 166.979860163508 18.6421527244868 -32.2441114338961
v -71.3360605577498 422.070005418258 66.3663573944619
v -71.3360605577496 422.070005418258 232.673141479492
v 166.979860163508 18.6421527244873 232.673141479492
v 166.979860163508 18.6421527244868 -32.2441114338961
cstype bspline
deg 1
curv 0 5 381 382 383 384 385
parm u 0 0 1 2 3 4
end
v 144.042316321084 22.0811313253439 -28.0270470306651
v -75.5309528752349 393.780899568821 62.8280790225768
v -75.5309528752347 393.780899568821 214.673141479492
v 144.042316321084 22.0811313253443 214.673141479492
v 144.042316321084 22.0811313253439 -28.0270470306651
cstype bspline
deg 1
curv 0 5 386 387 388 389 390
parm u 0 0 1 2 3 4
end
v -380.15179181143 77.4976196634628 232.673141479492
v -18.5875220899372 -188.412295429545 232.673141479492
v 64.8872055865961 -74.49969465349 232.673141479492
v -240.740784705212 266.5177634293 232.673141479492
v -380.15179181143 77.4976196634628 232.673141479492
cstype bspline
deg 1
curv 0 5 391 392 393 394 395
parm u 0 0 1 2 3 4
end
v -354.966892636985 81.3193294175143 214.673141479492
v -22.4487410525957 -163.228821102993 214.673141479492
v 41.736940917356 -75.6387424133756 214.673141479492
v -239.383287797371 238.033136004621 214.673141479492
v -354.966892636985 81.3193294175143 214.673141479492
cstype bspline
deg 1
curv 0 5 396 397 398 399 400
parm u 0 0 1 2 3 4
end
v -380.151791811429 77.4976196634623 66.3607106458874
v -18.5875220899379 -188.412295429545 -32.2476396290897
v -18.5875220899372 -188.412295429545 232.673141479492
v -380.15179181143 77.4976196634628 232.673141479492
v -380.151791811429 77.4976196634623 66.3607106458874
cstype bspline
deg 1
curv 0 5 401 402 403 404 405
parm u 0 0 1 2 3 4
end
v -354.966892636984 81.3193294175138 62.7266702882722
v -22.4487410525963 -163.228821102993 -27.9600183866853
v -22.4487410525957 -163.228821102993 214.673141479492
v -354.966892636985 81.3193294175143 214.673141479492
v -354.966892636984 81.3193294175138 62.7266702882722
cstype bspline
deg 1
curv 0 5 406 407 408 409 410
parm u 0 0 1 2 3 4
end
v -380.151791811429 77.4976196634623 66.3607106458874
v -380.15179181143 77.4976196634628 232.673141479492
v -240.740784705212 266.5177634293 232.673141479492
v -240.740784705212 266.517763429299 70.5452187545257
v -380.151791811429 77.4976196634623 66.3607106458874
cstype bspline
deg 1
curv 0 5 411 412 413 414 415
parm u 0 0 1 2 3 4
end
v -354.966892636984 81.3193294175138 62.7266702882722
v -354.966892636985 81.3193294175143 214.673141479492
v -239.383287797371 238.033136004621 214.673141479492
v -239.38328779737 238.03313600462 66.1959840943801
v -354.966892636984 81.3193294175138 62.7266702882722
cstype bspline
deg 1
curv 0 5 416 417 418 419 420
parm u 0 0 1 2 3 4
end
v -18.5875220899379 -188.412295429545 -32.2476396290897
v 64.8872055865956 -74.4996946534894 -29.6359020252661
v 64.8872055865961 -74.49969465349 232.673141479492
v -18.5875220899372 -188.412295429545 232.673141479492
v -18.5875220899379 -188.412295429545 -32.2476396290897
cstype bspline
deg 1
curv 0 5 421 422 423 424 425
parm u 0 0 1 2 3 4
end
v -22.4487410525963 -163.228821102993 -27.9600183866853
v 41.7369409173555 -75.638742413375 -25.9517918983334
v 41.736940917356 -75.6387424133756 214.673141479492
v -22.4487410525957 -163.228821102993 214.673141479492
v -22.4487410525963 -163.228821102993 -27.9600183866853
cstype bspline
deg 1
curv 0 5 426 427 428 429 430
parm u 0 0 1 2 3 4
end
v 64.8872055865956 -74.4996946534894 -29.6359020252661
v -240.740784705212 266.517763429299 70.5452187545257
v -240.740784705212 266.5177634293 232.673141479492
v 64.8872055865961 -74.49969465349 232.673141479492
v 64.8872055865956 -74.4996946534894 -29.6359020252661
cstype bspline
deg 1
curv 0 5 431 432 433 434 435
parm u 0 0 1 2 3 4
end
v 41.7369409173555 -75.638742413375 -25.9517918983334
v -239.38328779737 238.03313600462 66.1959840943801
v -239.383287797371 238.033136004621 214.673141479492
v 41.736940917356 -75.6387424133756 214.673141479492
v 41.7369409173555 -75.638742413375 -25.9517918983334
cstype bspline
deg 1
curv 0 5 436 437 438 439 440
parm u 0 0 1 2 3 4
end
v -427.699645145509 -183.112976486968 232.673141479492
v -59.036252984043 -313.637634884171 232.673141479492
v -18.5875254485451 -188.412293568538 232.673141479492
v -380.151795094482 77.4976214689031 232.673141479492
v -427.699645145509 -183.112976486968 232.673141479492
cstype bspline
deg 1
curv 0 5 441 442 443 444 445
parm u 0 0 1 2 3 4
end
v -407.240277232638 -171.2617269563 214.673141479492
v -70.4759380247498 -290.492578920625 214.673141479492
v -39.7041193950419 -195.226009967962 214.673141479492
v -367.613609412584 45.9327326144299 214.673141479492
v -407.240277232638 -171.2617269563 214.673141479492
cstype bspline
deg 1
curv 0 5 446 447 448 449 450
parm u 0 0 1 2 3 4
end
v -427.699645145508 -183.112976486968 43.5466700295044
v -59.0362529840427 -313.63763488417 -46.9542959240087
v -59.036252984043 -313.637634884171 232.673141479492
v -427.699645145509 -183.112976486968 232.673141479492
v -427.699645145508 -183.112976486968 43.5466700295044
cstype bspline
deg 1
curv 0 5 451 452 453 454 455
parm u 0 0 1 2 3 4
end
v -407.240277232637 -171.2617269563 40.8977050528774
v -70.4759380247496 -290.492578920623 -41.7725536303118
v -70.4759380247498 -290.492578920625 214.673141479492
v -407.240277232638 -171.2617269563 214.673141479492
v -407.240277232637 -171.2617269563 40.8977050528774
cstype bspline
deg 1
curv 0 5 456 457 458 459 460
parm u 0 0 1 2 3 4
end
v -427.699645145508 -183.112976486968 43.5466700295044
v -427.699645145509 -183.112976486968 232.673141479492
v -380.151795094482 77.4976214689031 232.673141479492
v -380.151795094481 77.497621468902 66.3607126061068
v -427.699645145508 -183.112976486968 43.5466700295044
cstype bspline
deg 1
curv 0 5 461 462 463 464 465
parm u 0 0 1 2 3 4
end
v -407.240277232637 -171.2617269563 40.8977050528774
v -407.240277232638 -171.2617269563 214.673141479492
v -367.613609412584 45.9327326144299 214.673141479492
v -367.613609412583 45.932732614429 59.9110670838713
v -407.240277232637 -171.2617269563 40.8977050528774
cstype bspline
deg 1
curv 0 5 466 467 468 469 470
parm u 0 0 1 2 3 4
end
v -59.0362529840427 -313.63763488417 -46.9542959240087
v -18.5875254485454 -188.412293568538 -39.5382828433327
v -18.5875254485451 -188.412293568538 232.673141479492
v -59.036252984043 -313.637634884171 232.673141479492
v -59.0362529840427 -313.63763488417 -46.9542959240087
cstype bspline
deg 1
curv 0 5 471 472 473 474 475
parm u 0 0 1 2 3 4
end
v -70.4759380247496 -290.492578920623 -41.7725536303118
v -39.7041193950422 -195.226009967963 -36.1307393291368
v -39.7041193950419 -195.226009967962 214.673141479492
v -70.4759380247498 -290.492578920625 214.673141479492
v -70.4759380247496 -290.492578920623 -41.7725536303118
cstype bspline
deg 1
curv 0 5 476 477 478 479 480
parm u 0 0 1 2 3 4
end
v -18.5875254485454 -188.412293568538 -39.5382828433327
v -380.151795094481 77.497621468902 66.3607126061068
v -380.151795094482 77.4976214689031 232.673141479492
v -18.5875254485451 -188.412293568538 232.673141479492
v -18.5875254485454 -188.412293568538 -39.5382828433327
cstype bspline
deg 1
curv 0 5 481 482 483 484 485
parm u 0 0 1 2 3 4
end
v -39.7041193950422 -195.226009967963 -36.1307393291368
v -367.613609412583 45.932732614429 59.9110670838713
v -367.613609412584 45.9327326144299 214.673141479492
v -39.7041193950419 -195.226009967962 214.673141479492
v -39.7041193950422 -195.226009967963 -36.1307393291368
cstype bspline
deg 1
curv 0 5 486 487 488 489 490
parm u 0 0 1 2 3 4
end
v -446.940918179713 -500.789978027344 232.673141479492
v -94.0086665636404 -500.789978027344 232.673141479492
v -59.036255027343 -313.637634120605 232.673141479492
v -427.699645771122 -183.112976225331 232.673141479492
v -446.940918179713 -500.789978027344 232.673141479492
cstype bspline
deg 1
curv 0 5 491 492 493 494 495
parm u 0 0 1 2 3 4
end
v -427.817695336439 -482.789978027344 214.673141479492
v -108.956651940024 -482.789978027344 214.673141479492
v -79.5582789627908 -325.466700391103 214.673141479492
v -411.177513303122 -208.057464213793 214.673141479492
v -427.817695336439 -482.789978027344 214.673141479492
cstype bspline
deg 1
curv 0 5 496 497 498 499 500
parm u 0 0 1 2 3 4
end
v -446.940918179711 -500.789978027344 5.30980458590251
v -94.0086665636385 -500.789978027344 -64.7861705957151
v -94.0086665636404 -500.789978027344 232.673141479492
v -446.940918179713 -500.789978027344 232.673141479492
v -446.940918179711 -500.789978027344 5.30980458590251
cstype bspline
deg 1
curv 0 5 501 502 503 504 505
parm u 0 0 1 2 3 4
end
v -427.817695336437 -482.789978027344 3.89481935718792
v -108.956651940023 -482.789978027344 -59.434263439738
v -108.956651940024 -482.789978027344 214.673141479492
v -427.817695336439 -482.789978027344 214.673141479492
v -427.817695336437 -482.789978027344 3.89481935718792
cstype bspline
deg 1
curv 0 5 506 507 508 509 510
parm u 0 0 1 2 3 4
end
v -446.940918179711 -500.789978027344 5.30980458590251
v -446.940918179713 -500.789978027344 232.673141479492
v -427.699645771122 -183.112976225331 232.673141479492
v -427.69964577112 -183.112976225331 43.5466692257967
v -446.940918179711 -500.789978027344 5.30980458590251
cstype bspline
deg 1
curv 0 5 511 512 513 514 515
parm u 0 0 1 2 3 4
end
v -427.817695336437 -482.789978027344 3.89481935718792
v -427.817695336439 -482.789978027344 214.673141479492
v -411.177513303122 -208.057464213793 214.673141479492
v -411.177513303121 -208.057464213793 36.9627149973439
v -427.817695336437 -482.789978027344 3.89481935718792
cstype bspline
deg 1
curv 0 5 516 517 518 519 520
parm u 0 0 1 2 3 4
end
v -94.0086665636385 -500.789978027344 -64.7861705957151
v -59.0362550273411 -313.637634120604 -46.9542920216527
v -59.036255027343 -313.637634120605 232.673141479492
v -94.0086665636404 -500.789978027344 232.673141479492
v -94.0086665636385 -500.789978027344 -64.7861705957151
cstype bspline
deg 1
curv 0 5 521 522 523 524 525
parm u 0 0 1 2 3 4
end
v -108.956651940023 -482.789978027344 -59.434263439738
v -79.5582789627891 -325.466700391103 -44.4444988173888
v -79.5582789627908 -325.466700391103 214.673141479492
v -108.956651940024 -482.789978027344 214.673141479492
v -108.956651940023 -482.789978027344 -59.434263439738
cstype bspline
deg 1
curv 0 5 526 527 528 529 530
parm u 0 0 1 2 3 4
end
v -59.0362550273411 -313.637634120604 -46.9542920216527
v -427.69964577112 -183.112976225331 43.5466692257967
v -427.699645771122 -183.112976225331 232.673141479492
v -59.036255027343 -313.637634120605 232.673141479492
v -59.0362550273411 -313.637634120604 -46.9542920216527
cstype bspline
deg 1
curv 0 5 531 532 533 534 535
parm u 0 0 1 2 3 4
end
v -79.5582789627891 -325.466700391103 -44.4444988173888
v -411.177513303121 -208.057464213793 36.9627149973439
v -411.177513303122 -208.057464213793 214.673141479492
v -79.5582789627908 -325.466700391103 214.673141479492
v -79.5582789627891 -325.466700391103 -44.4444988173888
cstype bspline
deg 1
curv 0 5 536 537 538 539 540
parm u 0 0 1 2 3 4
end
