# type_plates_name_vda_floor_2.xml
v 667.940146493425 53.7952540116417 201.297258976423
v 549.935838253504 405.522729059305 31.7113334141799
v 549.095910880792 436.7206695333 1.29431022083969
v 657.581042229972 438.569853190916 -173.846027074773
v 667.993187074671 407.535075980828 -158.882563054575
v 677.512363965412 53.958417275549 185.843699803281
v 667.940146493425 53.7952540116417 201.297258976423
cstype bspline
deg 1
curv 0 7 1 2 3 4 5 6 7
parm u 0 0 1 2 3 4 5 6
end
v 667.957928635502 45.0963940782099 200.48635740507
v 547.286947886224 404.772239846272 27.0681130706068
v 546.428039755368 436.675194327395 -4.03627688735393
v 657.364728354938 438.566166012059 -183.134452076445
v 668.012167832815 406.830061973701 -167.832842282228
v 677.746459982523 45.2632445209744 184.683577241327
v 667.957928635502 45.0963940782099 200.48635740507
cstype bspline
deg 1
curv 0 7 8 9 10 11 12 13 14
parm u 0 0 1 2 3 4 5 6
end
v 668.034984584501 7.40133436667216 196.972450595873
v 535.808422961343 401.520119923129 6.94749158178974
v 534.867264878529 436.478135101806 -27.1354876895263
v 656.427368229789 438.550188237011 -223.384293750359
v 668.094417784773 403.775001276148 -206.617385602057
v 678.760876056671 7.58416258448442 179.656379472858
v 668.034984584501 7.40133436667216 196.972450595873
cstype bspline
deg 1
curv 0 7 15 16 17 18 19 20 21
parm u 0 0 1 2 3 4 5 6
end
v 668.052766726578 -1.29752556675985 196.161549024519
v 533.159532594063 400.769630710096 2.30427123821646
v 532.199393753104 436.4326598959 -32.4660747977201
v 656.211054354754 438.546501058154 -232.672718752031
v 668.113398542917 403.06998726902 -215.567664829711
v 678.994972073782 -1.11101017009041 178.496256910904
v 668.052766726578 -1.29752556675985 196.161549024519
cstype bspline
deg 1
curv 0 7 22 23 24 25 26 27 28
parm u 0 0 1 2 3 4 5 6
end
v 574.106553750437 -412.145246035279 32.9377034244729
v 671.139239146545 -58.5334942332828 201.470248512662
v 680.540953042444 -58.5334942332828 185.92072835948
v 690.061025133192 -412.145246035279 -158.839711798104
v 681.499317598242 -443.346282958984 -173.710230482356
v 574.946560111386 -443.346282958984 2.51766458703907
v 574.106553750437 -412.145246035279 32.9377034244729
cstype bspline
deg 1
curv 0 7 29 30 31 32 33 34 35
parm u 0 0 1 2 3 4 5 6
end
v 571.471816041252 -411.441389567604 28.2976051147759
v 670.693437765306 -49.852597798629 200.632034164836
v 680.307242597446 -49.852597798629 184.731736236037
v 690.042075637652 -411.441389567604 -167.806069340416
v 681.287226662 -443.346282958984 -183.012048374245
v 572.33077189774 -443.346282958984 -2.80867184785228
v 571.471816041252 -411.441389567604 28.2976051147759
cstype bspline
deg 1
curv 0 7 36 37 38 39 40 41 42
parm u 0 0 1 2 3 4 5 6
end
v 560.054619301446 -408.391344874347 8.19051243942141
v 668.761631779934 -12.2353799151284 196.999771990924
v 679.294497335787 -12.2353799151284 179.579437034449
v 689.959961156977 -408.391344874347 -206.660285357101
v 680.368165938287 -443.346282958984 -223.319925905763
v 560.99568963861 -443.346282958984 -25.8894630657154
v 560.054619301446 -408.391344874347 8.19051243942141
cstype bspline
deg 1
curv 0 7 43 44 45 46 47 48 49
parm u 0 0 1 2 3 4 5 6
end
v 557.41988159226 -407.687488406673 3.55041412972412
v 668.315830398694 -3.55448348047421 196.161557643098
v 679.060786890789 -3.55448348047424 178.390444911006
v 689.941011661436 -407.687488406673 -215.626642899413
v 680.156075002045 -443.346282958984 -232.621743797652
v 558.379901424964 -443.346282958984 -31.215799500607
v 557.41988159226 -407.687488406673 3.55041412972412
cstype bspline
deg 1
curv 0 7 50 51 52 53 54 55 56
parm u 0 0 1 2 3 4 5 6
end
v 412.891957524325 30.293132327232 211.54174512737
v 521.597698616889 426.444465373932 21.5357271585746
v 542.855268165011 426.627276075831 21.5357271584423
v 675.068648617829 32.5477976506472 211.541745125737
v 665.47696558025 -2.40673173582631 228.306982005337
v 424.557844034868 -4.47858635734302 228.306982006837
v 412.891957524325 30.293132327232 211.54174512737
cstype bspline
deg 1
curv 0 7 57 58 59 60 61 62 63
parm u 0 0 1 2 3 4 5 6
end
v 415.514710809939 29.6074839737978 206.889147150269
v 522.031976384527 417.783456335104 20.7083505029381
v 542.861586286174 417.962586672548 20.7083505028084
v 672.413232930256 31.8167581356062 206.889147148669
v 663.014650673674 -2.4340629550973 223.316864499904
v 426.945738455005 -4.46420677946178 223.316864501374
v 415.514710809939 29.6074839737978 206.889147150269
cstype bspline
deg 1
curv 0 7 64 65 66 67 68 69 70
parm u 0 0 1 2 3 4 5 6
end
v 426.879975047601 26.6363411089161 186.727889249499
v 523.913846710959 380.252417166847 17.1230516618461
v 542.888964811216 380.415599258321 17.1230516617279
v 660.906431617439 28.6489202370949 186.727889248042
v 652.344619411849 -2.5524982386049 201.693021976365
v 437.293280942267 -4.40189527530971 201.693021977704
v 426.879975047601 26.6363411089161 186.727889249499
cstype bspline
deg 1
curv 0 7 71 72 73 74 75 76 77
parm u 0 0 1 2 3 4 5 6
end
v 429.502728333215 25.9506927554819 182.075291272399
v 524.348124478597 371.591408128019 16.2956750062093
v 542.89528293238 371.750909855038 16.2956750060938
v 658.251015929866 27.9178807220538 182.075291270974
v 649.882304505273 -2.57982945787589 196.702904470932
v 439.681175362405 -4.38751569742847 196.702904472241
v 429.502728333215 25.9506927554819 182.075291272399
cstype bspline
deg 1
curv 0 7 78 79 80 81 82 83 84
parm u 0 0 1 2 3 4 5 6
end
v 546.950298084164 -433.777161299258 22.715033372624
v 414.656190681543 -39.4570729630113 211.6373673232
v 424.253730249144 -4.48120166928192 228.306985026814
v 665.31995275125 -2.4080820099278 228.306985050526
v 676.992962227952 -37.201030980773 211.637367349004
v 568.220847128468 -433.594238976373 22.7150333747162
v 546.950298084164 -433.777161299258 22.715033372624
cstype bspline
deg 1
curv 0 7 85 86 87 88 89 90 91
parm u 0 0 1 2 3 4 5 6
end
v 546.955525649395 -425.026209768324 21.908433571806
v 417.35342411466 -38.7300010474878 206.986453958045
v 426.75566675377 -4.46584135305602 223.316867523586
v 662.916518198419 -2.43490687033133 223.316867546815
v 674.351997745601 -36.5198664633463 206.986453983324
v 567.793247835688 -424.847009666907 21.9084335738556
v 546.955525649395 -425.026209768324 21.908433571806
cstype bspline
deg 1
curv 0 7 92 93 94 95 96 97 98
parm u 0 0 1 2 3 4 5 6
end
v 546.978178432063 -387.105419800943 18.4131677682621
v 429.041435658171 -35.5793560802191 186.832496042372
v 437.597391607151 -4.39927998274379 201.693025009599
v 652.501635136151 -2.55114793207998 201.693025030738
v 662.907818322083 -33.5681535544968 186.832496065375
v 565.940317566974 -386.942349325884 18.4131677701273
v 546.978178432063 -387.105419800943 18.4131677682621
cstype bspline
deg 1
curv 0 7 99 100 101 102 103 104 105
parm u 0 0 1 2 3 4 5 6
end
v 546.983405997294 -378.354468270009 17.6065679674442
v 431.738669091289 -34.8522841646956 182.181582677216
v 440.099328111777 -4.38391966651789 196.702907506372
v 650.09820058332 -2.57797279248351 196.702907527028
v 660.266853839732 -32.88698903707 182.181582699695
v 565.512718274195 -378.195120016418 17.6065679692668
v 546.983405997294 -378.354468270009 17.6065679674442
cstype bspline
deg 1
curv 0 7 106 107 108 109 110 111 112
parm u 0 0 1 2 3 4 5 6
end
v 409.000913798733 50.8771690255957 186.117704146909
v 397.524440323708 403.046055919978 -159.041233872344
v 406.096042519631 434.283151493607 -174.023478458263
v 514.717340881788 436.134681100352 1.33668758724679
v 515.72997089429 405.060955786142 31.7918880007103
v 418.585146007159 51.0405392850144 201.590659974454
v 409.000913798733 50.8771690255957 186.117704146909
cstype bspline
deg 1
curv 0 7 113 114 115 116 117 118 119
parm u 0 0 1 2 3 4 5 6
end
v 409.276918499814 42.4076449536774 184.854807228095
v 397.546819083255 402.359337751984 -167.932019342864
v 406.307850608853 434.286761917658 -183.245366152621
v 517.329640648852 436.179209663657 -4.00980342557049
v 518.364649420901 404.418766181454 27.1184459777494
v 419.072958797461 42.5746256371479 200.669709821658
v 409.276918499814 42.4076449536774 184.854807228095
cstype bspline
deg 1
curv 0 7 120 121 122 123 124 125 126
parm u 0 0 1 2 3 4 5 6
end
v 410.472938871167 5.70637397536442 179.382253913237
v 397.643793707959 399.383559024013 -206.458756381782
v 407.225685662145 434.302407088549 -223.206879494838
v 528.649606306128 436.372166771313 -27.1779311477791
v 529.781589702882 401.635944561138 6.86686387825196
v 421.186814222107 5.88899982972591 196.678925826212
v 410.472938871167 5.70637397536442 179.382253913237
cstype bspline
deg 1
curv 0 7 127 128 129 130 131 132 133
parm u 0 0 1 2 3 4 5 6
end
v 410.748943572249 -2.76315009655395 178.119356994423
v 397.666172467506 398.69684085602 -215.349541852302
v 407.437493751367 434.306017512601 -232.428767189195
v 531.261906073192 436.416695334618 -32.5244221605964
v 532.416268229493 400.99375495645 2.19342185529104
v 421.67462701241 -2.57691381814069 195.757975673417
v 410.748943572249 -2.76315009655395 178.119356994423
cstype bspline
deg 1
curv 0 7 134 135 136 137 138 139 140
parm u 0 0 1 2 3 4 5 6
end
v 424.097622842491 -412.383243371029 -158.350193803093
v 412.662053387466 -61.4687947075339 185.579300458486
v 422.041109978756 -61.4687947075339 201.091347522539
v 539.772654135067 -412.383243371029 32.9650533202282
v 540.781674969334 -443.346282958984 2.61833323832417
v 434.485700268048 -443.346282958984 -173.184866820944
v 424.097622842491 -412.383243371029 -158.350193803093
cstype bspline
deg 1
curv 0 7 141 142 143 144 145 146 147
parm u 0 0 1 2 3 4 5 6
end
v 424.073891533625 -411.655019105558 -167.500126200767
v 412.36936724479 -52.4873621000553 184.518296236648
v 421.969011242481 -52.4873621000553 200.395173408775
v 542.469500838483 -411.655019105558 28.3146922554674
v 543.502252981616 -443.346282958984 -2.74575678312792
v 434.706287674449 -443.346282958984 -182.683698067235
v 424.073891533625 -411.655019105558 -167.500126200767
cstype bspline
deg 1
curv 0 7 148 149 150 151 152 153 154
parm u 0 0 1 2 3 4 5 6
end
v 423.971055861874 -408.499380621849 -207.149833257355
v 411.101060626529 -13.5678208009816 179.920611275348
v 421.656583385292 -13.5678208009816 197.378418915796
v 554.155836553286 -408.499380621849 8.16312764150438
v 555.291424368169 -443.346282958984 -25.990146876087
v 435.662166435521 -443.346282958984 -223.845300134498
v 423.971055861874 -408.499380621849 -207.149833257355
cstype bspline
deg 1
curv 0 7 155 156 157 158 159 160 161
parm u 0 0 1 2 3 4 5 6
end
v 423.947324553009 -407.771156356378 -216.299765655029
v 410.808374483854 -4.58638819350299 178.85960705351
v 421.584484649018 -4.58638819350301 196.682244802032
v 556.852683256702 -407.771156356378 3.51276657674368
v 558.012002380451 -443.346282958984 -31.3542368975391
v 435.882753841922 -443.346282958984 -233.344131380789
v 423.947324553009 -407.771156356378 -216.299765655029
cstype bspline
deg 1
curv 0 7 162 163 164 165 166 167 168
parm u 0 0 1 2 3 4 5 6
end
