# type_plates_name_side_to_side_edge_outofplane_folding.xml
v -134.661134817851 -311.33490649263 -7.58916809121399
v -11.9877726927995 -385.011777647504 -0.675600091431033
v -6.14527017987116 -387.397718184992 11.6216438767001
v -140.503637330779 -282.149292110653 265.713805356668
v -146.648907323341 -278.643412435891 263.396680750497
v -146.648907323341 -302.827160979754 5.67399792457133
v -134.661134817851 -311.33490649263 -7.58916809121399
cstype bspline
deg 1
curv 0 7 1 2 3 4 5 6 7
parm u 0 0 1 2 3 4 5 6
end
v -134.661134817851 -318.311398888679 -6.93451967124007
v -10.2042005020916 -393.059472594895 0.079566056347648
v -4.36169798916323 -395.445413132383 12.3768100244788
v -140.503637330779 -288.799841723202 269.841978505816
v -146.648907323341 -285.29396204844 267.524853899644
v -146.648907323341 -309.803653375802 6.32864634454525
v -134.661134817851 -318.311398888679 -6.93451967124007
cstype bspline
deg 1
curv 0 7 8 9 10 11 12 13 14
parm u 0 0 1 2 3 4 5 6
end
v -152.794177315904 -282.149287904455 265.713802745769
v -287.152543338776 -387.397713095157 11.6216433990887
v -281.310040825848 -385.011772557669 -0.675600569042392
v -158.636679828832 -311.334902080287 -7.58916850525205
v -146.648907323341 -302.827156567411 5.67399751053327
v -146.648907323341 -278.643408229693 263.396678139598
v -152.794177315904 -282.149287904455 265.713802745769
cstype bspline
deg 1
curv 0 7 15 16 17 18 19 20 21
parm u 0 0 1 2 3 4 5 6
end
v -152.794177315904 -288.799837517004 269.841975894917
v -288.936115529484 -395.445408042549 12.3768095468674
v -283.093613016556 -393.059467505061 0.0795655787362965
v -158.636679828832 -318.311394476336 -6.93452008527813
v -146.648907323341 -309.803648963459 6.32864593050719
v -146.648907323341 -285.293957842242 267.524851288745
v -152.794177315904 -288.799837517004 269.841975894917
cstype bspline
deg 1
curv 0 7 22 23 24 25 26 27 28
parm u 0 0 1 2 3 4 5 6
end
v -6.14527294768749 -11.621642683509 387.397705564024
v -140.503638097542 -265.713805532127 282.149290841644
v -140.503638110929 -282.149290300697 265.713806087903
v -6.14527293430121 -387.397705612019 11.6216426206845
v -2.97345931053423e-06 -382.312052554092 9.89949466674947
v -2.9734590676515e-06 -9.89949473023569 382.312052490606
v -6.14527294768749 -11.621642683509 387.397705564024
cstype bspline
deg 1
curv 0 7 29 30 31 32 33 34 35
parm u 0 0 1 2 3 4 5 6
end
v -6.14527294768749 -14.7786574914986 395.019413830672
v -141.809879806476 -271.341122659261 288.747766435311
v -141.809879819862 -287.776607427831 272.312281681571
v -6.14527293430121 -394.048255417655 15.7498158896863
v -2.97345931135676e-06 -388.962602359728 14.0276679357513
v -2.97345906619559e-06 -13.0565095382253 389.933760757254
v -6.14527294768749 -14.7786574914986 395.019413830672
cstype bspline
deg 1
curv 0 7 36 37 38 39 40 41 42
parm u 0 0 1 2 3 4 5 6
end
v -287.152550558649 -387.397718392202 11.6216295226292
v -152.794175386643 -282.149295251091 265.713811892633
v -152.794175400029 -265.713810482521 282.149296646373
v -287.152550545262 -11.6216287311178 387.397719198543
v -293.297820519491 -9.89948077784453 382.312066125125
v -293.297820519491 -382.312065334275 9.89948156869422
v -287.152550558649 -387.397718392202 11.6216295226292
cstype bspline
deg 1
curv 0 7 43 44 45 46 47 48 49
parm u 0 0 1 2 3 4 5 6
end
v -290.85254501589 -396.946625533262 8.75254887877425
v -151.487933677709 -287.776612378225 272.3122874863
v -151.487933691095 -271.341127609655 288.74777224004
v -290.852545002504 -7.78138964189149 397.917784784975
v -296.997814976732 -6.05924168861819 392.832131711556
v -296.997814976732 -391.860972475335 7.03040092483922
v -290.85254501589 -396.946625533262 8.75254887877425
cstype bspline
deg 1
curv 0 7 50 51 52 53 54 55 56
parm u 0 0 1 2 3 4 5 6
end
v -140.503637349113 -265.713804623759 282.149292651987
v -6.14527236978033 -11.6216428552341 387.397709069823
v -6.14527236978034 11.6216428552328 387.397709069824
v -140.503637349113 265.713804623757 282.149292651988
v -146.648907323341 263.335447478991 277.335450705138
v -146.648907323341 -263.335447478992 277.335450705137
v -140.503637349113 -265.713804623759 282.149292651987
cstype bspline
deg 1
curv 0 7 57 58 59 60 61 62 63
parm u 0 0 1 2 3 4 5 6
end
v -140.503637349113 -268.870819314454 289.771000635462
v -4.47591220886344 -11.6216428552341 396.327095316536
v -4.47591220886345 11.6216428552328 396.327095316536
v -140.503637349113 268.870819314453 289.771000635463
v -146.648907323341 266.492462169687 284.957158688614
v -146.648907323341 -266.492462169688 284.957158688613
v -140.503637349113 -268.870819314454 289.771000635462
cstype bspline
deg 1
curv 0 7 64 65 66 67 68 69 70
parm u 0 0 1 2 3 4 5 6
end
v -152.79417729757 265.713802284128 282.149287003623
v -287.152541039757 11.6216428552328 387.397702452352
v -287.152541039757 -11.6216428552342 387.397702452352
v -152.794177297569 -265.713802284129 282.149287003622
v -146.648907323341 -263.335445139363 277.335445056772
v -146.648907323341 263.335445139362 277.335445056773
v -152.79417729757 265.713802284128 282.149287003623
cstype bspline
deg 1
curv 0 7 71 72 73 74 75 76 77
parm u 0 0 1 2 3 4 5 6
end
v -152.79417729757 268.870816974824 289.770994987099
v -288.821901200674 11.6216428552328 396.327088699065
v -288.821901200674 -11.6216428552342 396.327088699065
v -152.794177297569 -268.870816974825 289.770994987097
v -146.648907323341 -266.492459830059 284.957153040248
v -146.648907323341 266.492459830057 284.957153040249
v -152.79417729757 268.870816974824 289.770994987099
cstype bspline
deg 1
curv 0 7 78 79 80 81 82 83 84
parm u 0 0 1 2 3 4 5 6
end
v -6.14527293430121 387.397705612018 11.6216426206856
v -140.503638110929 282.149290300696 265.713806087905
v -140.503638097542 265.713805532126 282.149290841645
v -6.1452729476875 11.621642683508 387.397705564025
v -2.9734590676515e-06 9.89949473023475 382.312052490607
v -2.97345931053423e-06 382.312052554091 9.89949466675055
v -6.14527293430121 387.397705612018 11.6216426206856
cstype bspline
deg 1
curv 0 7 85 86 87 88 89 90 91
parm u 0 0 1 2 3 4 5 6
end
v -6.14527293430121 394.048255417654 15.7498158896873
v -141.809879819863 287.77660742783 272.312281681572
v -141.809879806476 271.34112265926 288.747766435312
v -6.1452729476875 14.7786574914977 395.019413830673
v -2.97345906619559e-06 13.0565095382244 389.933760757255
v -2.97345931135676e-06 388.962602359727 14.0276679357523
v -6.14527293430121 394.048255417654 15.7498158896873
cstype bspline
deg 1
curv 0 7 92 93 94 95 96 97 98
parm u 0 0 1 2 3 4 5 6
end
v -287.152550545262 11.6216287311168 387.397719198544
v -152.794175400029 265.71381048252 282.149296646374
v -152.794175386643 282.14929525109 265.713811892634
v -287.152550558649 387.397718392201 11.6216295226301
v -293.297820519491 382.312065334274 9.89948156869508
v -293.297820519491 9.89948077784348 382.312066125126
v -287.152550545262 11.6216287311168 387.397719198544
cstype bspline
deg 1
curv 0 7 99 100 101 102 103 104 105
parm u 0 0 1 2 3 4 5 6
end
v -290.852545002504 7.78138964189041 397.917784784976
v -151.487933691095 271.341127609654 288.747772240042
v -151.487933677709 287.776612378223 272.312287486302
v -290.85254501589 396.946625533261 8.75254887877507
v -296.997814976732 391.860972475335 7.03040092484004
v -296.997814976732 6.05924168861711 392.832131711557
v -290.852545002504 7.78138964189041 397.917784784976
cstype bspline
deg 1
curv 0 7 106 107 108 109 110 111 112
parm u 0 0 1 2 3 4 5 6
end
v -140.503637330779 282.149292110653 265.71380535667
v -6.1452701798704 387.397718184992 11.6216438767001
v -11.9877726927987 385.011777647504 -0.675600091430998
v -134.661134817851 311.33490649263 -7.589168091214
v -146.648907323341 302.827160979754 5.67399792457132
v -146.648907323341 278.643412435891 263.396680750498
v -140.503637330779 282.149292110653 265.71380535667
cstype bspline
deg 1
curv 0 7 113 114 115 116 117 118 119
parm u 0 0 1 2 3 4 5 6
end
v -140.503637330779 288.799841723202 269.841978505818
v -4.36169798916247 395.445413132384 12.3768100244788
v -10.2042005020908 393.059472594896 0.0795660563476903
v -134.661134817851 318.311398888679 -6.93451967124008
v -146.648907323341 309.803653375802 6.32864634454524
v -146.648907323341 285.29396204844 267.524853899646
v -140.503637330779 288.799841723202 269.841978505818
cstype bspline
deg 1
curv 0 7 120 121 122 123 124 125 126
parm u 0 0 1 2 3 4 5 6
end
v -158.636679828832 311.334902080287 -7.58916850525205
v -281.310040825848 385.01177255767 -0.675600569042342
v -287.152543338777 387.397713095158 11.6216433990887
v -152.794177315904 282.149287904455 265.713802745771
v -146.648907323341 278.643408229693 263.396678139599
v -146.648907323341 302.827156567411 5.67399751053327
v -158.636679828832 311.334902080287 -7.58916850525205
cstype bspline
deg 1
curv 0 7 127 128 129 130 131 132 133
parm u 0 0 1 2 3 4 5 6
end
v -158.636679828832 318.311394476336 -6.93452008527813
v -283.093613016556 393.059467505062 0.0795655787363393
v -288.936115529485 395.44540804255 12.3768095468674
v -152.794177315904 288.799837517004 269.841975894919
v -146.648907323341 285.293957842242 267.524851288747
v -146.648907323341 309.803648963459 6.32864593050719
v -158.636679828832 318.311394476336 -6.93452008527813
cstype bspline
deg 1
curv 0 7 134 135 136 137 138 139 140
parm u 0 0 1 2 3 4 5 6
end
v 158.636673881914 -311.334910595933 -7.5891677061751
v 281.310037055992 -385.011782380846 -0.675599647271398
v 287.152539568921 -387.397722918334 11.6216443208597
v 152.794171368985 -282.149296022249 265.713807784699
v 146.648901376423 -278.643416347487 263.396683178528
v 146.648901376423 -302.827165083057 5.67399830961021
v 158.636673881914 -311.334910595933 -7.5891677061751
cstype bspline
deg 1
curv 0 7 141 142 143 144 145 146 147
parm u 0 0 1 2 3 4 5 6
end
v 158.636673881914 -318.311402991982 -6.93451928620118
v 283.0936092467 -393.059477328238 0.0795665005072899
v 288.936111759629 -395.445417865726 12.3768104686384
v 152.794171368985 -288.799845634798 269.841980933847
v 146.648901376423 -285.293965960036 267.524856327676
v 146.648901376423 -309.803657479105 6.32864672958413
v 158.636673881914 -318.311402991982 -6.93451928620118
cstype bspline
deg 1
curv 0 7 148 149 150 151 152 153 154
parm u 0 0 1 2 3 4 5 6
end
v 140.50363138386 -282.149288479745 265.713803102866
v 6.1452652067047 -387.397713791304 11.6216434644125
v 11.987767719633 -385.011773253816 -0.675600503718548
v 134.661128870932 -311.334902683772 -7.58916844862333
v 146.648901376423 -302.827157170895 5.67399756716197
v 146.648901376423 -278.643408804983 263.396678496695
v 140.50363138386 -282.149288479745 265.713803102866
cstype bspline
deg 1
curv 0 7 155 156 157 158 159 160 161
parm u 0 0 1 2 3 4 5 6
end
v 140.50363138386 -288.799838092294 269.841976252014
v 4.36169301599677 -395.445408738695 12.3768096121912
v 10.2041955289251 -393.059468201207 0.0795656440601464
v 134.661128870932 -318.31139507982 -6.93452002864941
v 146.648901376423 -309.803649566944 6.3286459871359
v 146.648901376423 -285.293958417532 267.524851645843
v 140.50363138386 -288.799838092294 269.841976252014
cstype bspline
deg 1
curv 0 7 162 163 164 165 166 167 168
parm u 0 0 1 2 3 4 5 6
end
v 287.152521612982 -11.6216655801434 387.397685211552
v 152.79417219211 -265.713798682855 282.149282810329
v 152.794172178723 -282.149283451425 265.713798056589
v 287.152521626368 -387.39768644159 11.6216643352756
v 293.29779158721 -382.312033383663 9.89951638134054
v 293.29779158721 -9.89951762687005 382.312032138134
v 287.152521612982 -11.6216655801434 387.397685211552
cstype bspline
deg 1
curv 0 7 169 170 171 172 173 174 175
parm u 0 0 1 2 3 4 5 6
end
v 290.852516070223 -7.78142649091704 397.917750797984
v 151.487930483176 -271.341115809989 288.747758403996
v 151.48793046979 -287.776600578559 272.312273650256
v 290.85251608361 -396.94659358265 8.75258369142054
v 296.997786044451 -391.860940524724 7.03043573748551
v 296.997786044451 -6.05927853764374 392.832097724565
v 290.852516070223 -7.78142649091704 397.917750797984
cstype bspline
deg 1
curv 0 7 176 177 178 179 180 181 182
parm u 0 0 1 2 3 4 5 6
end
v 6.14526698738259 -387.397707350957 11.6216437000894
v 140.503632505557 -282.149291772088 265.713807813226
v 140.503632492171 -265.713807003518 282.149292566966
v 6.14526700076937 -11.6216435089826 387.397707556894
v -2.9734590676515e-06 -9.89949555570925 382.312054483476
v -2.97345931053423e-06 -382.31205429303 9.89949574615439
v 6.14526698738259 -387.397707350957 11.6216437000894
cstype bspline
deg 1
curv 0 7 183 184 185 186 187 188 189
parm u 0 0 1 2 3 4 5 6
end
v 6.14526698738259 -394.048257156593 15.7498169690912
v 141.809874214491 -287.776608899221 272.312283406893
v 141.809874201105 -271.341124130652 288.747768160633
v 6.14526700076937 -14.7786583169722 395.019415823542
v -2.97345906619559e-06 -13.0565103636989 389.933762750123
v -2.97345931135676e-06 -388.962604098666 14.0276690151562
v 6.14526698738259 -394.048257156593 15.7498169690912
cstype bspline
deg 1
curv 0 7 190 191 192 193 194 195 196
parm u 0 0 1 2 3 4 5 6
end
v 152.794171350651 -265.713806658209 282.149297563585
v 287.152537405757 -11.6216428552341 387.397714824118
v 287.152537405757 11.6216428552328 387.397714824118
v 152.794171350651 265.713806658208 282.149297563586
v 146.648901376423 263.335449513441 277.335455616736
v 146.648901376423 -263.335449513442 277.335455616735
v 152.794171350651 -265.713806658209 282.149297563585
cstype bspline
deg 1
curv 0 7 197 198 199 200 201 202 203
parm u 0 0 1 2 3 4 5 6
end
v 152.794171350651 -268.870821348905 289.77100554706
v 288.821897566673 -11.6216428552341 396.327101070831
v 288.821897566673 11.6216428552328 396.327101070831
v 152.794171350651 268.870821348904 289.771005547061
v 146.648901376423 266.492464204137 284.957163600212
v 146.648901376423 -266.492464204138 284.957163600211
v 152.794171350651 -268.870821348905 289.77100554706
cstype bspline
deg 1
curv 0 7 204 205 206 207 208 209 210
parm u 0 0 1 2 3 4 5 6
end
v 140.503631402195 265.713802427804 282.149287350487
v 6.14526758403425 11.6216428552328 387.397702858729
v 6.14526758403425 -11.6216428552341 387.397702858729
v 140.503631402195 -265.713802427805 282.149287350486
v 146.648901376423 -263.335445283039 277.335445403637
v 146.648901376423 263.335445283038 277.335445403638
v 140.503631402195 265.713802427804 282.149287350487
cstype bspline
deg 1
curv 0 7 211 212 213 214 215 216 217
parm u 0 0 1 2 3 4 5 6
end
v 140.503631402195 268.8708171185 289.770995333963
v 4.47590742311733 11.6216428552328 396.327089105441
v 4.47590742311732 -11.6216428552341 396.327089105441
v 140.503631402195 -268.870817118501 289.770995333962
v 146.648901376423 -266.492459973735 284.957153387112
v 146.648901376423 266.492459973733 284.957153387113
v 140.503631402195 268.8708171185 289.770995333963
cstype bspline
deg 1
curv 0 7 218 219 220 221 222 223 224
parm u 0 0 1 2 3 4 5 6
end
v 287.152521626368 387.397686441589 11.6216643352765
v 152.794172178724 282.149283451424 265.71379805659
v 152.79417219211 265.713798682854 282.14928281033
v 287.152521612982 11.6216655801424 387.397685211553
v 293.29779158721 9.89951762686912 382.312032138135
v 293.29779158721 382.312033383662 9.89951638134145
v 287.152521626368 387.397686441589 11.6216643352765
cstype bspline
deg 1
curv 0 7 225 226 227 228 229 230 231
parm u 0 0 1 2 3 4 5 6
end
v 290.85251608361 396.946593582649 8.75258369142147
v 151.48793046979 287.776600578558 272.312273650257
v 151.487930483176 271.341115809988 288.747758403997
v 290.852516070223 7.7814264909161 397.917750797985
v 296.997786044451 6.0592785376428 392.832097724566
v 296.997786044451 391.860940524723 7.03043573748645
v 290.85251608361 396.946593582649 8.75258369142147
cstype bspline
deg 1
curv 0 7 232 233 234 235 236 237 238
parm u 0 0 1 2 3 4 5 6
end
v 6.14526700076937 11.6216435089816 387.397707556895
v 140.503632492171 265.713807003517 282.149292566967
v 140.503632505557 282.149291772087 265.713807813227
v 6.14526698738259 387.397707350956 11.6216437000905
v -2.97345931053423e-06 382.312054293029 9.89949574615546
v -2.9734590676515e-06 9.89949555570835 382.312054483477
v 6.14526700076937 11.6216435089816 387.397707556895
cstype bspline
deg 1
curv 0 7 239 240 241 242 243 244 245
parm u 0 0 1 2 3 4 5 6
end
v 6.14526700076937 14.7786583169713 395.019415823543
v 141.809874201105 271.341124130651 288.747768160634
v 141.809874214491 287.77660889922 272.312283406894
v 6.14526698738259 394.048257156592 15.7498169690923
v -2.97345931135676e-06 388.962604098665 14.0276690151573
v -2.97345906619559e-06 13.056510363698 389.933762750124
v 6.14526700076937 14.7786583169713 395.019415823543
cstype bspline
deg 1
curv 0 7 246 247 248 249 250 251 252
parm u 0 0 1 2 3 4 5 6
end
v 152.794171368985 282.149296022249 265.713807784701
v 287.152539568922 387.397722918335 11.6216443208598
v 281.310037055993 385.011782380847 -0.675599647271362
v 158.636673881914 311.334910595933 -7.58916770617509
v 146.648901376423 302.827165083057 5.67399830961022
v 146.648901376423 278.643416347487 263.39668317853
v 152.794171368985 282.149296022249 265.713807784701
cstype bspline
deg 1
curv 0 7 253 254 255 256 257 258 259
parm u 0 0 1 2 3 4 5 6
end
v 152.794171368985 288.799845634798 269.841980933849
v 288.93611175963 395.445417865726 12.3768104686384
v 283.093609246701 393.059477328238 0.079566500507333
v 158.636673881914 318.311402991982 -6.93451928620117
v 146.648901376423 309.803657479105 6.32864672958414
v 146.648901376423 285.293965960036 267.524856327678
v 152.794171368985 288.799845634798 269.841980933849
cstype bspline
deg 1
curv 0 7 260 261 262 263 264 265 266
parm u 0 0 1 2 3 4 5 6
end
v 134.661128870932 311.334902683772 -7.58916844862333
v 11.9877677196322 385.011773253816 -0.675600503718505
v 6.14526520670387 387.397713791304 11.6216434644126
v 140.50363138386 282.149288479745 265.713803102868
v 146.648901376423 278.643408804983 263.396678496697
v 146.648901376423 302.827157170895 5.67399756716197
v 134.661128870932 311.334902683772 -7.58916844862333
cstype bspline
deg 1
curv 0 7 267 268 269 270 271 272 273
parm u 0 0 1 2 3 4 5 6
end
v 134.661128870932 318.31139507982 -6.93452002864941
v 10.2041955289243 393.059468201208 0.0795656440601894
v 4.36169301599594 395.445408738696 12.3768096121913
v 140.50363138386 288.799838092294 269.841976252016
v 146.648901376423 285.293958417532 267.524851645845
v 146.648901376423 309.803649566944 6.3286459871359
v 134.661128870932 318.31139507982 -6.93452002864941
cstype bspline
deg 1
curv 0 7 274 275 276 277 278 279 280
parm u 0 0 1 2 3 4 5 6
end
