# type_plates_name_joint_linking_vidychapel_one_axis_two_layers.xml
v -531.498725445181 698.767901784782 9.2797188160761
v -493.01805808499 702.003613392837 377.595576035066
v -535.056364317046 652.461095220424 340.903316148178
v -535.056364317046 652.461095220424 340.903316148178
v -567.442161976721 652.461095230055 9.27971881607615
v -531.498725445181 698.767901784782 9.2797188160761
cstype bspline
deg 1
curv 0 6 1 2 3 4 5 6
parm u 0 0 1 2 3 4 5
end
v -526.06548263161 699.224765141041 9.27971881607622
v -488.099549538344 702.417194452899 372.668821751171
v -530.491981563842 652.457335880041 335.667470542336
v -530.491981563842 652.457335880041 335.667470542336
v -562.366455428311 652.457335889523 9.27971881607616
v -526.06548263161 699.224765141041 9.27971881607622
cstype bspline
deg 1
curv 0 6 7 8 9 10 11 12
parm u 0 0 1 2 3 4 5
end
v -512.482375597686 700.366923531688 9.2797188160762
v -475.803278171749 703.45114710305 360.351936041423
v -519.081024680832 652.447937529091 322.577856527736
v -519.081024680832 652.447937529091 322.577856527736
v -549.677189057283 652.447937538199 9.27971881607611
v -512.482375597686 700.366923531688 9.2797188160762
cstype bspline
deg 1
curv 0 6 13 14 15 16 17 18
parm u 0 0 1 2 3 4 5
end
v -507.049132784116 700.823786887946 9.27971881607589
v -470.88476962511 703.864728163112 355.425181757526
v -514.516641927625 652.444178188715 317.342010921897
v -514.516641927625 652.444178188715 317.342010921897
v -544.601482508872 652.444178197669 9.27971881607609
v -507.049132784116 700.823786887946 9.27971881607589
cstype bspline
deg 1
curv 0 6 19 20 21 22 23 24
parm u 0 0 1 2 3 4 5
end
v 407.843937273307 777.754108787106 401.685164046237
v 530.949618679647 660.038260708959 305.969178611138
v 526.296238562994 652.444178201836 300.2763188492
v -524.336714964283 652.444178220883 340.479939782856
v -529.019018020355 659.576061885826 346.172717338487
v -493.017996871592 702.003618540069 377.595514719047
v 407.843937273307 777.754108787106 401.685164046237
cstype bspline
deg 1
curv 0 7 25 26 27 28 29 30 31
parm u 0 0 1 2 3 4 5 6
end
v 404.333410043107 777.458920203113 396.533012324345
v 527.126455652864 660.042020049313 301.060104568606
v 522.473075536211 652.44793754219 295.367244806669
v -519.765952663404 652.447937561092 335.249662992124
v -524.448255719475 659.579821226034 340.942440547757
v -488.09948891224 702.417199550746 372.668761023427
v 404.333410043107 777.458920203113 396.533012324345
cstype bspline
deg 1
curv 0 7 32 33 34 35 36 37 38
parm u 0 0 1 2 3 4 5 6
end
v 395.557091967534 776.720948743125 383.652633019671
v 517.568548085912 660.051418400183 288.787419462251
v 512.915167969259 652.45733589306 283.094559700313
v -508.339046911232 652.457335911555 322.173971015292
v -513.021349967303 659.589219576498 327.866748570923
v -475.803219013875 703.45115207744 360.351876784374
v 395.557091967534 776.720948743125 383.652633019671
cstype bspline
deg 1
curv 0 7 39 40 41 42 43 44 45
parm u 0 0 1 2 3 4 5 6
end
v 392.046564737307 776.42576015913 378.500481297796
v 513.745385059142 660.055177740537 283.878345419713
v 509.092004942489 652.461095233414 278.185485657775
v -503.768284610367 652.461095251735 316.943694224554
v -508.450587666438 659.592978916678 322.636471780185
v -470.884711054511 703.864733088119 355.425123088767
v 392.046564737307 776.42576015913 378.500481297796
cstype bspline
deg 1
curv 0 7 46 47 48 49 50 51 52
parm u 0 0 1 2 3 4 5 6
end
v 624.714672085765 652.461094798721 9.27971881607622
v 538.873756743851 652.461094835286 299.808154686263
v 538.873756743851 652.461094835286 299.808154686263
v 407.843925175359 777.754107769829 401.685146290882
v 516.430736585976 786.884812361676 9.2797188160762
v 624.714672085765 652.461094798721 9.27971881607622
cstype bspline
deg 1
curv 0 6 53 54 55 56 57 58
parm u 0 0 1 2 3 4 5
end
v 619.447106856559 652.457335648797 9.27971881607624
v 535.05845626667 652.45733568474 294.892967037165
v 535.05845626667 652.45733568474 294.892967037165
v 404.333397880627 777.45891918041 396.532994474329
v 511.494500831337 786.469740679528 9.27971881607627
v 619.447106856559 652.457335648797 9.27971881607624
cstype bspline
deg 1
curv 0 6 59 60 61 62 63 64
parm u 0 0 1 2 3 4 5
end
v 606.278193783539 652.447937773981 9.27971881607622
v 525.520205073724 652.447937808385 282.604997914415
v 525.520205073724 652.447937808385 282.604997914415
v 395.557079643787 776.720947706862 383.652614932945
v 499.153911444738 785.432061474157 9.27971881607601
v 606.278193783539 652.447937773981 9.27971881607622
cstype bspline
deg 1
curv 0 6 65 66 67 68 69 70
parm u 0 0 1 2 3 4 5
end
v 601.010628554331 652.444178624056 9.27971881607627
v 521.704904596547 652.444178657836 277.689810265314
v 521.704904596547 652.444178657836 277.689810265314
v 392.046552349032 776.425759117441 378.500463116406
v 494.217675690097 785.016989792009 9.27971881607626
v 601.010628554331 652.444178624056 9.27971881607627
cstype bspline
deg 1
curv 0 6 71 72 73 74 75 76
parm u 0 0 1 2 3 4 5
end
v -567.442147886415 652.461095219616 9.27971881607608
v -535.058895282549 652.461095209612 340.877250132067
v -535.058895282549 652.461095209612 340.877250132067
v -462.194501623429 566.325081116091 404.475488687968
v -457.222607700301 559.168928565491 398.683279045538
v -510.182139877918 578.464245247452 9.27971881607618
v -567.442147886415 652.461095219616 9.27971881607608
cstype bspline
deg 1
curv 0 7 77 78 79 80 81 82 83
parm u 0 0 1 2 3 4 5 6
end
v -562.366441378878 652.457335879118 9.27971881607587
v -530.49338323337 652.457335869265 335.65296877432
v -530.49338323337 652.457335869265 335.65296877432
v -457.855792816079 566.589435270616 399.053246626027
v -452.883898892951 559.433282720016 393.261036983597
v -505.105997127271 578.459922151949 9.27971881607623
v -562.366441378878 652.457335879118 9.27971881607587
cstype bspline
deg 1
curv 0 7 84 85 86 87 88 89 90
parm u 0 0 1 2 3 4 5 6
end
v -549.677175110037 652.447937527869 9.27971881607636
v -519.079603110418 652.44793751841 322.592265379946
v -519.079603110418 652.44793751841 322.592265379946
v -447.009020797703 567.250320656902 385.497641471172
v -442.037126874574 560.094168106302 379.705431828742
v -492.415640250654 578.449114413192 9.2797188160761
v -549.677175110037 652.447937527869 9.27971881607636
cstype bspline
deg 1
curv 0 7 91 92 93 94 95 96 97
parm u 0 0 1 2 3 4 5 6
end
v -544.601468602501 652.44417818737 9.27971881607596
v -514.514091061235 652.44417817807 317.367984022199
v -514.514091061235 652.44417817807 317.367984022199
v -442.670311990352 567.514674811428 380.075399409235
v -437.698418067224 560.358522260828 374.283189766805
v -487.339497500007 578.44479131769 9.27971881607608
v -544.601468602501 652.44417818737 9.27971881607596
cstype bspline
deg 1
curv 0 7 98 99 100 101 102 103 104
parm u 0 0 1 2 3 4 5 6
end
v 398.48913644132 517.80162305526 408.938268579499
v 398.48913644132 517.80162305526 408.938268579499
v -456.665313692734 559.788857855281 409.301430593812
v -456.665313692734 559.788857855281 409.301430593812
v -529.008244658758 645.308413508322 346.158367400994
v -524.323232177842 652.444178210617 340.479437651872
v 526.282379438892 652.444178192281 300.27686204981
v 530.939597665012 644.843444342602 305.956660558005
v 398.48913644132 517.80162305526 408.938268579499
cstype bspline
deg 1
curv 0 9 105 106 107 108 109 110 111 112 113
parm u 0 0 1 2 3 4 5 6 7 8
end
v 394.830928722571 517.951868686535 403.90998295552
v 394.830928722571 517.951868686535 403.90998295552
v -451.879358639402 559.524503474895 404.269558951943
v -451.879358639402 559.524503474895 404.269558951943
v -524.449093080136 645.3121728485 340.928534936354
v -519.76408059922 652.447937550796 335.249605187232
v 522.471448966311 652.447937532577 295.367319951729
v 527.12866719243 644.847203682899 301.047118459924
v 394.830928722571 517.951868686535 403.90998295552
cstype bspline
deg 1
curv 0 9 114 115 116 117 118 119 120 121 122
parm u 0 0 1 2 3 4 5 6 7 8
end
v 385.685409425721 518.327482764726 391.339268895586
v 385.685409425721 518.327482764726 391.339268895586
v -439.914471006079 558.863617523908 391.689879847268
v -439.914471006079 558.863617523908 391.689879847268
v -513.051214133575 645.321571198934 327.853953774753
v -508.366201652659 652.457335901231 322.175024025633
v 512.944122784853 652.457335883389 283.093464706537
v 517.601341010972 644.85660203371 288.773263214732
v 385.685409425721 518.327482764726 391.339268895586
cstype bspline
deg 1
curv 0 9 123 124 125 126 127 128 129 130 131
parm u 0 0 1 2 3 4 5 6 7 8
end
v 382.02720170698 518.477728395985 386.310983271622
v 382.02720170698 518.477728395985 386.310983271622
v -435.128515952747 558.599263143522 386.658008205406
v -435.128515952747 558.599263143522 386.658008205406
v -508.492062554953 645.325330539085 322.624121310108
v -503.807050074036 652.461095241381 316.945191560986
v 509.133192312258 652.461095223685 278.183922608463
v 513.790410538378 644.860361374007 283.863721116658
v 382.02720170698 518.477728395985 386.310983271622
cstype bspline
deg 1
curv 0 9 132 133 134 135 136 137 138 139 140
parm u 0 0 1 2 3 4 5 6 7 8
end
v 500.877538758029 498.25580900735 9.27971881607615
v 402.079971820359 517.903758751514 397.062580897977
v 406.559922279021 525.542859286543 402.663100479081
v 538.881554710468 652.461094821323 299.781696281127
v 538.881554710468 652.461094821323 299.781696281127
v 624.714658906121 652.461094789316 9.27971881607618
v 500.877538758029 498.25580900735 9.27971881607615
cstype bspline
deg 1
curv 0 7 141 142 143 144 145 146 147
parm u 0 0 1 2 3 4 5 6
end
v 495.687021689053 498.347992137704 9.27971881607614
v 398.108480050922 517.753513362981 392.277876838353
v 402.588430509584 525.392613898009 397.878396419458
v 535.062785661132 652.457335670945 294.878248765832
v 535.062785661132 652.457335670945 294.878248765832
v 619.447093792909 652.457335639476 9.27971881607597
v 495.687021689053 498.347992137704 9.27971881607614
cstype bspline
deg 1
curv 0 7 148 149 150 151 152 153 154
parm u 0 0 1 2 3 4 5 6
end
v 482.710729016611 498.578449963593 9.27971881607613
v 388.179750627328 517.377899891648 380.316116689328
v 392.65970108599 525.017000426677 385.916636270433
v 525.515863037777 652.447937794983 282.619629977602
v 525.515863037777 652.447937794983 282.619629977602
v 606.278181009879 652.447937764868 9.27971881607602
v 482.710729016611 498.578449963593 9.27971881607613
cstype bspline
deg 1
curv 0 7 155 156 157 158 159 160 161
parm u 0 0 1 2 3 4 5 6
end
v 477.520211947636 498.670633093949 9.2797188160762
v 384.208258857895 517.227654503122 375.531412629715
v 388.688209316557 524.86675503815 381.131932210819
v 521.697093988434 652.444178644601 277.716182462309
v 521.697093988434 652.444178644601 277.716182462309
v 601.010615896667 652.444178615021 9.27971881607613
v 477.520211947636 498.670633093949 9.2797188160762
cstype bspline
deg 1
curv 0 7 162 163 164 165 166 167 168
parm u 0 0 1 2 3 4 5 6
end
v -510.182101549933 578.46424521481 9.27971881607611
v -457.336004602782 559.210261081129 397.849136497789
v -462.102308820039 551.774415279221 403.073389830334
v -574.099445493521 427.275679784376 305.31894622344
v -574.099445493521 427.275679784376 305.31894622344
v -625.555333240437 427.275680190354 9.27971881607613
v -510.182101549933 578.46424521481 9.27971881607611
cstype bspline
deg 1
curv 0 7 169 170 171 172 173 174 175
parm u 0 0 1 2 3 4 5 6
end
v -505.105958745391 578.459922119261 9.27971881607642
v -452.895614586139 559.437568603507 393.174541686588
v -457.661918803396 552.001722801599 398.398795019133
v -569.792775581569 427.35434079275 300.52763651378
v -569.792775581569 427.35434079275 300.52763651378
v -620.41586459185 427.354341192157 9.27971881607618
v -505.105958745391 578.459922119261 9.27971881607642
cstype bspline
deg 1
curv 0 7 176 177 178 179 180 181 182
parm u 0 0 1 2 3 4 5 6
end
v -492.415601734041 578.449114380389 9.2797188160764
v -441.794639544526 560.005837409461 381.488054658573
v -446.560943761783 552.569991607552 386.712307991118
v -559.026100801708 427.550993313689 288.549362239632
v -559.026100801708 427.550993313689 288.549362239632
v -607.567192970382 427.550993696667 9.27971881607616
v -492.415601734041 578.449114380389 9.2797188160764
cstype bspline
deg 1
curv 0 7 183 184 185 186 187 188 189
parm u 0 0 1 2 3 4 5 6
end
v -487.339458929504 578.44479128484 9.27971881607633
v -437.354249527876 560.233144931839 376.813459847366
v -442.120553745133 552.797299129931 382.03771317991
v -554.71943088976 427.629654322063 283.758052529971
v -554.71943088976 427.629654322063 283.758052529971
v -602.427724321797 427.629654698471 9.2797188160761
v -487.339458929504 578.44479128484 9.27971881607633
cstype bspline
deg 1
curv 0 7 190 191 192 193 194 195 196
parm u 0 0 1 2 3 4 5 6
end
v 476.074919265724 435.042147185146 349.508293025218
v 471.520571045082 427.629654263229 343.765303865458
v -562.149953787643 427.629654220625 306.0215919652
v -567.058592323752 435.102474396078 311.464433595661
v -454.967648446589 559.705504614438 409.30078463511
v -454.967648446589 559.705504614438 409.30078463511
v 399.639221805861 517.745155173383 408.937808962
v 399.639221805861 517.745155173383 408.937808962
v 476.074919265724 435.042147185146 349.508293025218
cstype bspline
deg 1
curv 0 9 197 198 199 200 201 202 203 204 205
parm u 0 0 1 2 3 4 5 6 7 8
end
v 472.140277893879 434.963486181778 344.297698854571
v 467.585929673238 427.550993259861 338.554709694811
v -557.984808327797 427.550993217577 301.106755498087
v -562.893446863905 435.02381339303 306.549597128547
v -450.936223252036 559.478196899363 404.269233093932
v -450.936223252036 559.478196899363 404.269233093932
v 395.469823632724 517.920499749322 403.90974054212
v 395.469823632724 517.920499749322 403.90974054212
v 472.140277893879 434.963486181778 344.297698854571
cstype bspline
deg 1
curv 0 9 206 207 208 209 210 211 212 213 214
parm u 0 0 1 2 3 4 5 6 7 8
end
v 462.303674464231 434.766833673335 331.271213427979
v 457.74932624359 427.354340751418 325.528224268219
v -547.571944678222 427.354340709978 288.819664330305
v -552.480583214331 434.827160885431 294.262505960766
v -440.857660265669 558.909927611661 391.690354241
v -440.857660265669 558.909927611661 391.690354241
v 385.046328199867 518.358861189117 391.339569492411
v 385.046328199867 518.358861189117 391.339569492411
v 462.303674464231 434.766833673335 331.271213427979
cstype bspline
deg 1
curv 0 9 215 216 217 218 219 220 221 222 223
parm u 0 0 1 2 3 4 5 6 7 8
end
v 458.369033092386 434.688172669967 326.060619257333
v 453.814684871745 427.27567974805 320.317630097573
v -543.406799218375 427.275679706945 283.904827863192
v -548.315437754484 434.748499882398 289.347669493653
v -436.826235071123 558.682619896572 386.658802699829
v -436.826235071123 558.682619896572 386.658802699829
v 380.87693002673 518.534205765042 386.311501072523
v 380.87693002673 518.534205765042 386.311501072523
v 458.369033092386 434.688172669967 326.060619257333
cstype bspline
deg 1
curv 0 9 224 225 226 227 228 229 230 231 232
parm u 0 0 1 2 3 4 5 6 7 8
end
v 555.471448389152 427.275679861043 9.27971881607614
v 483.252830706777 427.275680263032 343.92738420338
v 483.252830706777 427.275680263032 343.92738420338
v 406.288646393108 510.550527652397 403.767841135506
v 401.941137256724 517.931371089311 397.607557607544
v 500.87753410149 498.255809090049 9.27971881607629
v 555.471448389152 427.275679861043 9.27971881607614
cstype bspline
deg 1
curv 0 7 233 234 235 236 237 238 239
parm u 0 0 1 2 3 4 5 6
end
v 550.29133164577 427.35434086626 9.27971881607614
v 479.172789202043 427.35434126213 338.829839800343
v 479.172789202043 427.35434126213 338.829839800343
v 402.443361364184 510.375183364848 398.487771121295
v 398.095852227799 517.756026801762 392.327487593333
v 495.687016899876 498.34799222276 9.27971881607607
v 550.29133164577 427.35434086626 9.27971881607614
cstype bspline
deg 1
curv 0 7 240 241 242 243 244 245 246
parm u 0 0 1 2 3 4 5 6
end
v 537.341039787316 427.550993379304 9.27971881607618
v 468.972685440192 427.550993759862 326.085978792747
v 468.972685440192 427.550993759862 326.085978792747
v 392.830148791896 509.93682264599 385.28759608575
v 388.482639655512 517.317666082904 379.127312557788
v 482.710723895844 498.578450054536 9.27971881607628
v 537.341039787316 427.550993379304 9.27971881607618
cstype bspline
deg 1
curv 0 7 247 248 249 250 251 252 253
parm u 0 0 1 2 3 4 5 6
end
v 532.160923043935 427.629654384522 9.27971881607619
v 464.892643935451 427.629654758956 320.98843438971
v 464.892643935451 427.629654758956 320.98843438971
v 388.984863762971 509.761478358442 380.007526071535
v 384.637354626587 517.142321795356 373.847242543573
v 477.520206694231 498.670633187246 9.27971881607612
v 532.160923043935 427.629654384522 9.27971881607619
cstype bspline
deg 1
curv 0 7 254 255 256 257 258 259 260
parm u 0 0 1 2 3 4 5 6
end
