# type_plates_name_joint_linking_vidychapel_full.xml
v -531.498725445181 698.767901784782 9.2797188160761
v -493.01805808499 702.003613392837 377.595576035066
v -535.056364317046 652.461095220424 340.903316148178
v -535.056364317046 652.461095220424 340.903316148178
v -567.442161976721 652.461095230055 9.27971881607615
v -531.498725445181 698.767901784782 9.2797188160761
cstype bspline
deg 1
curv 0 6 1 2 3 4 5 6
parm u 0 0 1 2 3 4 5
end
v -526.06548263161 699.224765141041 9.27971881607622
v -488.099549538344 702.417194452899 372.668821751171
v -530.491981563842 652.457335880041 335.667470542336
v -530.491981563842 652.457335880041 335.667470542336
v -562.366455428311 652.457335889523 9.27971881607616
v -526.06548263161 699.224765141041 9.27971881607622
cstype bspline
deg 1
curv 0 6 7 8 9 10 11 12
parm u 0 0 1 2 3 4 5
end
v -512.482375597686 700.366923531688 9.2797188160762
v -475.803278171749 703.45114710305 360.351936041423
v -519.081024680832 652.447937529091 322.577856527736
v -519.081024680832 652.447937529091 322.577856527736
v -549.677189057283 652.447937538199 9.27971881607611
v -512.482375597686 700.366923531688 9.2797188160762
cstype bspline
deg 1
curv 0 6 13 14 15 16 17 18
parm u 0 0 1 2 3 4 5
end
v -507.049132784116 700.823786887946 9.27971881607589
v -470.88476962511 703.864728163112 355.425181757526
v -514.516641927625 652.444178188715 317.342010921897
v -514.516641927625 652.444178188715 317.342010921897
v -544.601482508872 652.444178197669 9.27971881607609
v -507.049132784116 700.823786887946 9.27971881607589
cstype bspline
deg 1
curv 0 6 19 20 21 22 23 24
parm u 0 0 1 2 3 4 5
end
v 407.843937273307 777.754108787106 401.685164046237
v 530.949618679647 660.038260708959 305.969178611138
v 526.296238562994 652.444178201836 300.2763188492
v -524.336714964283 652.444178220883 340.479939782856
v -529.019018020355 659.576061885826 346.172717338487
v -493.017996871592 702.003618540069 377.595514719047
v 407.843937273307 777.754108787106 401.685164046237
cstype bspline
deg 1
curv 0 7 25 26 27 28 29 30 31
parm u 0 0 1 2 3 4 5 6
end
v 404.333410043107 777.458920203113 396.533012324345
v 527.126455652864 660.042020049313 301.060104568606
v 522.473075536211 652.44793754219 295.367244806669
v -519.765952663404 652.447937561092 335.249662992124
v -524.448255719475 659.579821226034 340.942440547757
v -488.09948891224 702.417199550746 372.668761023427
v 404.333410043107 777.458920203113 396.533012324345
cstype bspline
deg 1
curv 0 7 32 33 34 35 36 37 38
parm u 0 0 1 2 3 4 5 6
end
v 395.557091967534 776.720948743125 383.652633019671
v 517.568548085912 660.051418400183 288.787419462251
v 512.915167969259 652.45733589306 283.094559700313
v -508.339046911232 652.457335911555 322.173971015292
v -513.021349967303 659.589219576498 327.866748570923
v -475.803219013875 703.45115207744 360.351876784374
v 395.557091967534 776.720948743125 383.652633019671
cstype bspline
deg 1
curv 0 7 39 40 41 42 43 44 45
parm u 0 0 1 2 3 4 5 6
end
v 392.046564737307 776.42576015913 378.500481297796
v 513.745385059142 660.055177740537 283.878345419713
v 509.092004942489 652.461095233414 278.185485657775
v -503.768284610367 652.461095251735 316.943694224554
v -508.450587666438 659.592978916678 322.636471780185
v -470.884711054511 703.864733088119 355.425123088767
v 392.046564737307 776.42576015913 378.500481297796
cstype bspline
deg 1
curv 0 7 46 47 48 49 50 51 52
parm u 0 0 1 2 3 4 5 6
end
v 624.714672085765 652.461094798721 9.27971881607622
v 538.873756743851 652.461094835286 299.808154686263
v 538.873756743851 652.461094835286 299.808154686263
v 407.843925175359 777.754107769829 401.685146290882
v 516.430736585976 786.884812361676 9.2797188160762
v 624.714672085765 652.461094798721 9.27971881607622
cstype bspline
deg 1
curv 0 6 53 54 55 56 57 58
parm u 0 0 1 2 3 4 5
end
v 619.447106856559 652.457335648797 9.27971881607624
v 535.05845626667 652.45733568474 294.892967037165
v 535.05845626667 652.45733568474 294.892967037165
v 404.333397880627 777.45891918041 396.532994474329
v 511.494500831337 786.469740679528 9.27971881607627
v 619.447106856559 652.457335648797 9.27971881607624
cstype bspline
deg 1
curv 0 6 59 60 61 62 63 64
parm u 0 0 1 2 3 4 5
end
v 606.278193783539 652.447937773981 9.27971881607622
v 525.520205073724 652.447937808385 282.604997914415
v 525.520205073724 652.447937808385 282.604997914415
v 395.557079643787 776.720947706862 383.652614932945
v 499.153911444738 785.432061474157 9.27971881607601
v 606.278193783539 652.447937773981 9.27971881607622
cstype bspline
deg 1
curv 0 6 65 66 67 68 69 70
parm u 0 0 1 2 3 4 5
end
v 601.010628554331 652.444178624056 9.27971881607627
v 521.704904596547 652.444178657836 277.689810265314
v 521.704904596547 652.444178657836 277.689810265314
v 392.046552349032 776.425759117441 378.500463116406
v 494.217675690097 785.016989792009 9.27971881607626
v 601.010628554331 652.444178624056 9.27971881607627
cstype bspline
deg 1
curv 0 6 71 72 73 74 75 76
parm u 0 0 1 2 3 4 5
end
v -567.442147886415 652.461095219616 9.27971881607608
v -535.058895282549 652.461095209612 340.877250132067
v -535.058895282549 652.461095209612 340.877250132067
v -462.194501623429 566.325081116091 404.475488687968
v -457.222607700301 559.168928565491 398.683279045538
v -510.182139877918 578.464245247452 9.27971881607618
v -567.442147886415 652.461095219616 9.27971881607608
cstype bspline
deg 1
curv 0 7 77 78 79 80 81 82 83
parm u 0 0 1 2 3 4 5 6
end
v -562.366441378878 652.457335879118 9.27971881607587
v -530.49338323337 652.457335869265 335.65296877432
v -530.49338323337 652.457335869265 335.65296877432
v -457.855792816079 566.589435270616 399.053246626027
v -452.883898892951 559.433282720016 393.261036983597
v -505.105997127271 578.459922151949 9.27971881607623
v -562.366441378878 652.457335879118 9.27971881607587
cstype bspline
deg 1
curv 0 7 84 85 86 87 88 89 90
parm u 0 0 1 2 3 4 5 6
end
v -549.677175110037 652.447937527869 9.27971881607636
v -519.079603110418 652.44793751841 322.592265379946
v -519.079603110418 652.44793751841 322.592265379946
v -447.009020797703 567.250320656902 385.497641471172
v -442.037126874574 560.094168106302 379.705431828742
v -492.415640250654 578.449114413192 9.2797188160761
v -549.677175110037 652.447937527869 9.27971881607636
cstype bspline
deg 1
curv 0 7 91 92 93 94 95 96 97
parm u 0 0 1 2 3 4 5 6
end
v -544.601468602501 652.44417818737 9.27971881607596
v -514.514091061235 652.44417817807 317.367984022199
v -514.514091061235 652.44417817807 317.367984022199
v -442.670311990352 567.514674811428 380.075399409235
v -437.698418067224 560.358522260828 374.283189766805
v -487.339497500007 578.44479131769 9.27971881607608
v -544.601468602501 652.44417818737 9.27971881607596
cstype bspline
deg 1
curv 0 7 98 99 100 101 102 103 104
parm u 0 0 1 2 3 4 5 6
end
v 398.48913644132 517.80162305526 408.938268579499
v 398.48913644132 517.80162305526 408.938268579499
v -456.665313692734 559.788857855281 409.301430593812
v -456.665313692734 559.788857855281 409.301430593812
v -529.008244658758 645.308413508322 346.158367400994
v -524.323232177842 652.444178210617 340.479437651872
v 526.282379438892 652.444178192281 300.27686204981
v 530.939597665012 644.843444342602 305.956660558005
v 398.48913644132 517.80162305526 408.938268579499
cstype bspline
deg 1
curv 0 9 105 106 107 108 109 110 111 112 113
parm u 0 0 1 2 3 4 5 6 7 8
end
v 394.830928722571 517.951868686535 403.90998295552
v 394.830928722571 517.951868686535 403.90998295552
v -451.879358639402 559.524503474895 404.269558951943
v -451.879358639402 559.524503474895 404.269558951943
v -524.449093080136 645.3121728485 340.928534936354
v -519.76408059922 652.447937550796 335.249605187232
v 522.471448966311 652.447937532577 295.367319951729
v 527.12866719243 644.847203682899 301.047118459924
v 394.830928722571 517.951868686535 403.90998295552
cstype bspline
deg 1
curv 0 9 114 115 116 117 118 119 120 121 122
parm u 0 0 1 2 3 4 5 6 7 8
end
v 385.685409425721 518.327482764726 391.339268895586
v 385.685409425721 518.327482764726 391.339268895586
v -439.914471006079 558.863617523908 391.689879847268
v -439.914471006079 558.863617523908 391.689879847268
v -513.051214133575 645.321571198934 327.853953774753
v -508.366201652659 652.457335901231 322.175024025633
v 512.944122784853 652.457335883389 283.093464706537
v 517.601341010972 644.85660203371 288.773263214732
v 385.685409425721 518.327482764726 391.339268895586
cstype bspline
deg 1
curv 0 9 123 124 125 126 127 128 129 130 131
parm u 0 0 1 2 3 4 5 6 7 8
end
v 382.02720170698 518.477728395985 386.310983271622
v 382.02720170698 518.477728395985 386.310983271622
v -435.128515952747 558.599263143522 386.658008205406
v -435.128515952747 558.599263143522 386.658008205406
v -508.492062554953 645.325330539085 322.624121310108
v -503.807050074036 652.461095241381 316.945191560986
v 509.133192312258 652.461095223685 278.183922608463
v 513.790410538378 644.860361374007 283.863721116658
v 382.02720170698 518.477728395985 386.310983271622
cstype bspline
deg 1
curv 0 9 132 133 134 135 136 137 138 139 140
parm u 0 0 1 2 3 4 5 6 7 8
end
v 500.877538758029 498.25580900735 9.27971881607615
v 402.079971820359 517.903758751514 397.062580897977
v 406.559922279021 525.542859286543 402.663100479081
v 538.881554710468 652.461094821323 299.781696281127
v 538.881554710468 652.461094821323 299.781696281127
v 624.714658906121 652.461094789316 9.27971881607618
v 500.877538758029 498.25580900735 9.27971881607615
cstype bspline
deg 1
curv 0 7 141 142 143 144 145 146 147
parm u 0 0 1 2 3 4 5 6
end
v 495.687021689053 498.347992137704 9.27971881607614
v 398.108480050922 517.753513362981 392.277876838353
v 402.588430509584 525.392613898009 397.878396419458
v 535.062785661132 652.457335670945 294.878248765832
v 535.062785661132 652.457335670945 294.878248765832
v 619.447093792909 652.457335639476 9.27971881607597
v 495.687021689053 498.347992137704 9.27971881607614
cstype bspline
deg 1
curv 0 7 148 149 150 151 152 153 154
parm u 0 0 1 2 3 4 5 6
end
v 482.710729016611 498.578449963593 9.27971881607613
v 388.179750627328 517.377899891648 380.316116689328
v 392.65970108599 525.017000426677 385.916636270433
v 525.515863037777 652.447937794983 282.619629977602
v 525.515863037777 652.447937794983 282.619629977602
v 606.278181009879 652.447937764868 9.27971881607602
v 482.710729016611 498.578449963593 9.27971881607613
cstype bspline
deg 1
curv 0 7 155 156 157 158 159 160 161
parm u 0 0 1 2 3 4 5 6
end
v 477.520211947636 498.670633093949 9.2797188160762
v 384.208258857895 517.227654503122 375.531412629715
v 388.688209316557 524.86675503815 381.131932210819
v 521.697093988434 652.444178644601 277.716182462309
v 521.697093988434 652.444178644601 277.716182462309
v 601.010615896667 652.444178615021 9.27971881607613
v 477.520211947636 498.670633093949 9.2797188160762
cstype bspline
deg 1
curv 0 7 162 163 164 165 166 167 168
parm u 0 0 1 2 3 4 5 6
end
v -510.182101549933 578.46424521481 9.27971881607611
v -457.336004602782 559.210261081129 397.849136497789
v -462.102308820039 551.774415279221 403.073389830334
v -574.099445493521 427.275679784376 305.31894622344
v -574.099445493521 427.275679784376 305.31894622344
v -625.555333240437 427.275680190354 9.27971881607613
v -510.182101549933 578.46424521481 9.27971881607611
cstype bspline
deg 1
curv 0 7 169 170 171 172 173 174 175
parm u 0 0 1 2 3 4 5 6
end
v -505.105958745391 578.459922119261 9.27971881607642
v -452.895614586139 559.437568603507 393.174541686588
v -457.661918803396 552.001722801599 398.398795019133
v -569.792775581569 427.35434079275 300.52763651378
v -569.792775581569 427.35434079275 300.52763651378
v -620.41586459185 427.354341192157 9.27971881607618
v -505.105958745391 578.459922119261 9.27971881607642
cstype bspline
deg 1
curv 0 7 176 177 178 179 180 181 182
parm u 0 0 1 2 3 4 5 6
end
v -492.415601734041 578.449114380389 9.2797188160764
v -441.794639544526 560.005837409461 381.488054658573
v -446.560943761783 552.569991607552 386.712307991118
v -559.026100801708 427.550993313689 288.549362239632
v -559.026100801708 427.550993313689 288.549362239632
v -607.567192970382 427.550993696667 9.27971881607616
v -492.415601734041 578.449114380389 9.2797188160764
cstype bspline
deg 1
curv 0 7 183 184 185 186 187 188 189
parm u 0 0 1 2 3 4 5 6
end
v -487.339458929504 578.44479128484 9.27971881607633
v -437.354249527876 560.233144931839 376.813459847366
v -442.120553745133 552.797299129931 382.03771317991
v -554.71943088976 427.629654322063 283.758052529971
v -554.71943088976 427.629654322063 283.758052529971
v -602.427724321797 427.629654698471 9.2797188160761
v -487.339458929504 578.44479128484 9.27971881607633
cstype bspline
deg 1
curv 0 7 190 191 192 193 194 195 196
parm u 0 0 1 2 3 4 5 6
end
v 476.074919265724 435.042147185146 349.508293025218
v 471.520571045082 427.629654263229 343.765303865458
v -562.149953787643 427.629654220625 306.0215919652
v -567.058592323752 435.102474396078 311.464433595661
v -454.967648446589 559.705504614438 409.30078463511
v -454.967648446589 559.705504614438 409.30078463511
v 399.639221805861 517.745155173383 408.937808962
v 399.639221805861 517.745155173383 408.937808962
v 476.074919265724 435.042147185146 349.508293025218
cstype bspline
deg 1
curv 0 9 197 198 199 200 201 202 203 204 205
parm u 0 0 1 2 3 4 5 6 7 8
end
v 472.140277893879 434.963486181778 344.297698854571
v 467.585929673238 427.550993259861 338.554709694811
v -557.984808327797 427.550993217577 301.106755498087
v -562.893446863905 435.02381339303 306.549597128547
v -450.936223252036 559.478196899363 404.269233093932
v -450.936223252036 559.478196899363 404.269233093932
v 395.469823632724 517.920499749322 403.90974054212
v 395.469823632724 517.920499749322 403.90974054212
v 472.140277893879 434.963486181778 344.297698854571
cstype bspline
deg 1
curv 0 9 206 207 208 209 210 211 212 213 214
parm u 0 0 1 2 3 4 5 6 7 8
end
v 462.303674464231 434.766833673335 331.271213427979
v 457.74932624359 427.354340751418 325.528224268219
v -547.571944678222 427.354340709978 288.819664330305
v -552.480583214331 434.827160885431 294.262505960766
v -440.857660265669 558.909927611661 391.690354241
v -440.857660265669 558.909927611661 391.690354241
v 385.046328199867 518.358861189117 391.339569492411
v 385.046328199867 518.358861189117 391.339569492411
v 462.303674464231 434.766833673335 331.271213427979
cstype bspline
deg 1
curv 0 9 215 216 217 218 219 220 221 222 223
parm u 0 0 1 2 3 4 5 6 7 8
end
v 458.369033092386 434.688172669967 326.060619257333
v 453.814684871745 427.27567974805 320.317630097573
v -543.406799218375 427.275679706945 283.904827863192
v -548.315437754484 434.748499882398 289.347669493653
v -436.826235071123 558.682619896572 386.658802699829
v -436.826235071123 558.682619896572 386.658802699829
v 380.87693002673 518.534205765042 386.311501072523
v 380.87693002673 518.534205765042 386.311501072523
v 458.369033092386 434.688172669967 326.060619257333
cstype bspline
deg 1
curv 0 9 224 225 226 227 228 229 230 231 232
parm u 0 0 1 2 3 4 5 6 7 8
end
v 555.471448389152 427.275679861043 9.27971881607614
v 483.252830706777 427.275680263032 343.92738420338
v 483.252830706777 427.275680263032 343.92738420338
v 406.288646393108 510.550527652397 403.767841135506
v 401.941137256724 517.931371089311 397.607557607544
v 500.87753410149 498.255809090049 9.27971881607629
v 555.471448389152 427.275679861043 9.27971881607614
cstype bspline
deg 1
curv 0 7 233 234 235 236 237 238 239
parm u 0 0 1 2 3 4 5 6
end
v 550.29133164577 427.35434086626 9.27971881607614
v 479.172789202043 427.35434126213 338.829839800343
v 479.172789202043 427.35434126213 338.829839800343
v 402.443361364184 510.375183364848 398.487771121295
v 398.095852227799 517.756026801762 392.327487593333
v 495.687016899876 498.34799222276 9.27971881607607
v 550.29133164577 427.35434086626 9.27971881607614
cstype bspline
deg 1
curv 0 7 240 241 242 243 244 245 246
parm u 0 0 1 2 3 4 5 6
end
v 537.341039787316 427.550993379304 9.27971881607618
v 468.972685440192 427.550993759862 326.085978792747
v 468.972685440192 427.550993759862 326.085978792747
v 392.830148791896 509.93682264599 385.28759608575
v 388.482639655512 517.317666082904 379.127312557788
v 482.710723895844 498.578450054536 9.27971881607628
v 537.341039787316 427.550993379304 9.27971881607618
cstype bspline
deg 1
curv 0 7 247 248 249 250 251 252 253
parm u 0 0 1 2 3 4 5 6
end
v 532.160923043935 427.629654384522 9.27971881607619
v 464.892643935451 427.629654758956 320.98843438971
v 464.892643935451 427.629654758956 320.98843438971
v 388.984863762971 509.761478358442 380.007526071535
v 384.637354626587 517.142321795356 373.847242543573
v 477.520206694231 498.670633187246 9.27971881607612
v 532.160923043935 427.629654384522 9.27971881607619
cstype bspline
deg 1
curv 0 7 254 255 256 257 258 259 260
parm u 0 0 1 2 3 4 5 6
end
v -625.5553476094 427.275679970431 9.27971881607634
v -574.003199891376 427.275679561186 305.872756047997
v -574.003199891376 427.275679561186 305.872756047997
v -454.732494234875 302.929113741916 409.975757456622
v -449.662855832891 295.585901504987 404.767582282506
v -502.464457358872 275.995594161587 9.27971881607612
v -625.5553476094 427.275679970431 9.27971881607634
cstype bspline
deg 1
curv 0 7 261 262 263 264 265 266 267
parm u 0 0 1 2 3 4 5 6
end
v -620.415878932155 427.354340972673 9.2797188160761
v -569.739309368946 427.354340570375 300.835325101587
v -569.739309368946 427.354340570375 300.835325101587
v -450.373175452634 302.908285305445 405.02161911933
v -445.30353705065 295.565073068516 399.813443945213
v -497.443711355837 276.220166663088 9.27971881607617
v -620.415878932155 427.354340972673 9.2797188160761
cstype bspline
deg 1
curv 0 7 268 269 270 271 272 273 274
parm u 0 0 1 2 3 4 5 6
end
v -607.567207239048 427.550993478281 9.27971881607604
v -559.079583062852 427.550993093359 288.241747735568
v -559.079583062852 427.550993093359 288.241747735568
v -439.474878497025 302.856214214279 392.636273276102
v -434.405240095041 295.51300197735 387.428098101985
v -484.891846348245 276.781597916838 9.27971881607613
v -607.567207239048 427.550993478281 9.27971881607604
cstype bspline
deg 1
curv 0 7 275 276 277 278 279 280 281
parm u 0 0 1 2 3 4 5 6
end
v -602.427738561805 427.629654480522 9.279718816076
v -554.815692540418 427.629654102552 283.204316789159
v -554.815692540418 427.629654102552 283.204316789159
v -435.115559714788 302.835385777812 387.682134938809
v -430.045921312804 295.492173540883 382.473959764692
v -479.871100345212 277.006170418338 9.27971881607616
v -602.427738561805 427.629654480522 9.279718816076
cstype bspline
deg 1
curv 0 7 282 283 284 285 286 287 288
parm u 0 0 1 2 3 4 5 6
end
v 394.575001702935 337.407701245524 413.329673756831
v 394.575001702935 337.407701245524 413.329673756831
v -448.117227859839 296.03229980456 415.749793575611
v -448.117227859839 296.03229980456 415.749793575611
v -567.283546570619 420.27008549424 311.737808806439
v -562.436010403944 427.6296540395 306.011135154622
v 471.805695640769 427.629654105431 343.775704812429
v 476.283831900492 420.323340416398 349.80017865458
v 394.575001702935 337.407701245524 413.329673756831
cstype bspline
deg 1
curv 0 9 289 290 291 292 293 294 295 296 297
parm u 0 0 1 2 3 4 5 6 7 8
end
v 390.063034590261 336.994919597928 408.366022854461
v 390.063034590261 336.994919597928 408.366022854461
v -443.79786540044 296.053128190936 410.760780061624
v -443.79786540044 296.053128190936 410.760780061624
v -562.86875594249 420.191424490449 306.832087898455
v -558.021219775815 427.55099303571 301.105414246638
v 467.622986158867 427.550993101102 338.556052557559
v 472.10112241859 420.24467941207 344.580526399711
v 390.063034590261 336.994919597928 408.366022854461
cstype bspline
deg 1
curv 0 9 298 299 300 301 302 303 304 305 306
parm u 0 0 1 2 3 4 5 6 7 8
end
v 378.78311680859 335.962965478888 395.956895598531
v 378.78311680859 335.962965478888 395.956895598531
v -432.999459251936 296.105199156882 398.288246276665
v -432.999459251936 296.105199156882 398.288246276665
v -551.831779372125 419.994771980974 294.567785628514
v -546.98424320545 427.354340526234 288.841111976697
v 457.166212454106 427.354340590258 325.50692192039
v 461.644348713829 420.048026901226 331.531395762542
v 378.78311680859 335.962965478888 395.956895598531
cstype bspline
deg 1
curv 0 9 307 308 309 310 311 312 313 314 315
parm u 0 0 1 2 3 4 5 6 7 8
end
v 374.271149695916 335.550183831285 390.993244696154
v 374.271149695916 335.550183831285 390.993244696154
v -428.680096792537 296.126027543258 393.299232762685
v -428.680096792537 296.126027543258 393.299232762685
v -547.416988743982 419.916110977198 289.662064720538
v -542.569452577307 427.275679522458 283.93539106872
v 452.983502972203 427.275679585915 320.28726966552
v 457.461639231926 419.969365896883 326.311743507673
v 374.271149695916 335.550183831285 390.993244696154
cstype bspline
deg 1
curv 0 9 316 317 318 319 320 321 322 323 324
parm u 0 0 1 2 3 4 5 6 7 8
end
v 497.106498752869 356.107350447933 9.27971881607609
v 395.878118973636 336.167452739902 402.578036259484
v 400.499555951576 343.419767541198 408.723251582713
v 483.135015620348 427.275680066261 344.473377684582
v 483.135015620348 427.275680066261 344.473377684582
v 555.471463455542 427.275679632256 9.27971881607624
v 497.106498752869 356.107350447933 9.27971881607609
cstype bspline
deg 1
curv 0 7 325 326 327 328 329 330 331
parm u 0 0 1 2 3 4 5 6
end
v 491.967713921286 356.236410115866 9.27971881607614
v 392.179700097778 336.580234718532 396.981843688535
v 396.801137075718 343.832549519829 403.127059011764
v 479.107338614871 427.354341063103 339.133186512943
v 479.107338614871 427.354341063103 339.133186512943
v 550.291346808395 427.354340636013 9.27971881607601
v 491.967713921286 356.236410115866 9.27971881607614
cstype bspline
deg 1
curv 0 7 332 333 334 335 336 337 338
parm u 0 0 1 2 3 4 5 6
end
v 479.120751842328 356.559059285698 9.27971881607609
v 382.933652908137 337.612189665111 382.99136226116
v 387.555089886077 344.864504466407 389.136577584388
v 469.038146101193 427.550993555208 325.782708583843
v 469.038146101193 427.550993555208 325.782708583843
v 537.341055190531 427.550993145403 9.27971881607625
v 479.120751842328 356.559059285698 9.27971881607609
cstype bspline
deg 1
curv 0 7 339 340 341 342 343 344 345
parm u 0 0 1 2 3 4 5 6
end
v 473.981967010744 356.688118953632 9.27971881607615
v 379.235234032283 338.024971643748 377.395169690218
v 383.856671010223 345.277286445044 383.540385013446
v 465.01046909572 427.629654552049 320.442517412204
v 465.01046909572 427.629654552049 320.442517412204
v 532.160938543386 427.629654149159 9.27971881607624
v 473.981967010744 356.688118953632 9.27971881607615
cstype bspline
deg 1
curv 0 7 346 347 348 349 350 351 352
parm u 0 0 1 2 3 4 5 6
end
v -502.46449329646 275.995592554138 9.2797188160763
v -449.653581291858 295.589353826247 404.837308810984
v -454.08870104658 288.276315990812 410.670318194871
v -518.866344152746 202.03434376702 354.130428676817
v -518.866344152746 202.03434376702 354.130428676817
v -553.191513432243 202.034344471872 9.27971881607616
v -502.46449329646 275.995592554138 9.2797188160763
cstype bspline
deg 1
curv 0 7 353 354 355 356 357 358 359
parm u 0 0 1 2 3 4 5 6
end
v -497.443747429572 276.220165049549 9.27971881607593
v -445.303169266334 295.565220878751 399.816459355444
v -449.738289021057 288.252183043317 405.64946873933
v -514.358162395009 202.220258178644 349.247285423626
v -514.358162395009 202.220258178644 349.247285423626
v -548.197281583873 202.220258873513 9.27971881607618
v -497.443747429572 276.220165049549 9.27971881607593
cstype bspline
deg 1
curv 0 7 360 361 362 363 364 365 366
parm u 0 0 1 2 3 4 5 6
end
v -484.891882762351 276.781596288077 9.27971881607635
v -434.427139202539 295.504888510008 387.264335716595
v -438.862258957262 288.191850674574 393.097345100482
v -503.087708000654 202.685044207694 337.039427290652
v -503.087708000654 202.685044207694 337.039427290652
v -535.711701962942 202.685044877613 9.27971881607617
v -484.891882762351 276.781596288077 9.27971881607635
cstype bspline
deg 1
curv 0 7 367 368 369 370 371 372 373
parm u 0 0 1 2 3 4 5 6
end
v -479.871136895462 277.006168783488 9.27971881607615
v -430.076727177026 295.480755562513 382.243486261054
v -434.511846931748 288.167717727078 388.076495644941
v -498.579526242913 202.870958619316 332.156284037461
v -498.579526242913 202.870958619316 332.156284037461
v -530.717470114571 202.870959279253 9.27971881607614
v -479.871136895462 277.006168783488 9.27971881607615
cstype bspline
deg 1
curv 0 7 374 375 376 377 378 379 380
parm u 0 0 1 2 3 4 5 6
end
v 508.58966874724 210.683199930842 322.633997460911
v 503.788855962307 202.870960334452 317.473481050125
v -508.000746868186 202.870960364318 354.306234647194
v -512.788968482668 210.125472970631 359.434932626925
v -448.268623836091 296.02486559996 415.750207458259
v -448.268623836091 296.02486559996 415.750207458259
v 391.931074651256 337.277885690812 413.337235449901
v 391.931074651256 337.277885690812 413.337235449901
v 508.58966874724 210.683199930842 322.633997460911
cstype bspline
deg 1
curv 0 9 381 382 383 384 385 386 387 388 389
parm u 0 0 1 2 3 4 5 6 7 8
end
v 505.096887669553 210.497285524777 317.788181183587
v 500.29607488462 202.685045928387 312.627664772801
v -503.77185120093 202.685045958034 349.179321770238
v -508.560072815413 209.939558564347 354.308019749969
v -443.881958431986 296.04899849961 410.761000697719
v -443.881958431986 296.04899849961 410.761000697719
v 388.594187607909 336.922799382388 408.37020998256
v 388.594187607909 336.922799382388 408.37020998256
v 505.096887669553 210.497285524777 317.788181183587
cstype bspline
deg 1
curv 0 9 390 391 392 393 394 395 396 397 398
parm u 0 0 1 2 3 4 5 6 7 8
end
v 496.364934975308 210.032499509616 305.673640490288
v 491.564122190375 202.220259913227 300.513124079501
v -493.19961203281 202.2202599423 336.362039577851
v -497.987833647291 209.474772548613 341.490737557582
v -432.91529492171 296.109330748725 398.28798379637
v -432.91529492171 296.109330748725 398.28798379637
v 380.251969999546 336.035083611307 395.952646314225
v 380.251969999546 336.035083611307 395.952646314225
v 496.364934975308 210.032499509616 305.673640490288
cstype bspline
deg 1
curv 0 9 399 400 401 402 403 404 405 406 407
parm u 0 0 1 2 3 4 5 6 7 8
end
v 492.872153897622 209.846585103551 300.827824212972
v 488.071341112689 202.034345507161 295.667307802185
v -488.970716365554 202.034345536009 331.235126700894
v -493.758937980036 209.288858142322 336.363824680625
v -428.528629517597 296.133463648381 393.298777035838
v -428.528629517597 296.133463648381 393.298777035838
v 376.915082956206 335.679997302876 390.985620846892
v 376.915082956206 335.679997302876 390.985620846892
v 492.872153897622 209.846585103551 300.827824212972
cstype bspline
deg 1
curv 0 9 408 409 410 411 412 413 414 415 416
parm u 0 0 1 2 3 4 5 6 7 8
end
v 606.693105164208 202.034343917312 9.27971881607617
v 516.559704314102 202.034343166685 316.437225160316
v 516.559704314102 202.034343166685 316.437225160316
v 400.092460108099 328.421394824673 406.991712376064
v 396.181165995328 336.227144312193 401.400662978141
v 497.106460031691 356.107351420407 9.27971881607614
v 606.693105164208 202.034343917312 9.27971881607617
cstype bspline
deg 1
curv 0 7 417 418 419 420 421 422 423
parm u 0 0 1 2 3 4 5 6
end
v 601.513881767531 202.220258320287 9.27971881607617
v 512.724278342313 202.220257580852 311.857818834069
v 512.724278342313 202.220257580852 311.857818834069
v 396.101139898044 328.776481380574 402.533515432787
v 392.189845785274 336.582230868095 396.942466034864
v 491.967675387328 356.236411083638 9.27971881607592
v 601.513881767531 202.220258320287 9.27971881607617
cstype bspline
deg 1
curv 0 7 424 425 426 427 428 429 430
parm u 0 0 1 2 3 4 5 6
end
v 588.565823275844 202.685044327726 9.27971881607615
v 503.13571341283 202.685043616268 300.409303018449
v 503.13571341283 202.685043616268 300.409303018449
v 386.122839372903 329.664197770341 391.388023074585
v 382.211545260133 337.469947257861 385.796973676661
v 479.120713776417 356.559060241717 9.2797188160761
v 588.565823275844 202.685044327726 9.27971881607615
cstype bspline
deg 1
curv 0 7 431 432 433 434 435 436 437
parm u 0 0 1 2 3 4 5 6
end
v 583.386599879169 202.870958730701 9.27971881607617
v 499.300287441038 202.870958030435 295.829896692203
v 499.300287441038 202.870958030435 295.829896692203
v 382.131519162845 330.019284326245 386.929826131305
v 378.220225050075 337.825033813766 381.338776733381
v 473.981929132054 356.688119904946 9.27971881607632
v 583.386599879169 202.870958730701 9.27971881607617
cstype bspline
deg 1
curv 0 7 438 439 440 441 442 443 444
parm u 0 0 1 2 3 4 5 6
end
v -553.191512062176 202.034344522875 9.27971881607643
v -518.743401514177 202.03434384571 355.365560352773
v -518.743401514177 202.03434384571 355.365560352773
v -441.948596253647 114.618057457246 422.394389449093
v -436.826984345424 107.515895336529 416.612055429807
v -493.569292044693 127.708476042086 9.27971881607616
v -553.191512062176 202.034344522875 9.27971881607643
cstype bspline
deg 1
curv 0 7 445 446 447 448 449 450 451
parm u 0 0 1 2 3 4 5 6
end
v -548.197280117436 202.220258928103 9.27971881607626
v -514.289860009507 202.220258261565 349.933468345851
v -514.289860009507 202.220258261565 349.933468345851
v -437.830465679695 115.185773453016 416.669540635563
v -432.708853771472 108.083611332299 410.887206616276
v -488.653677196325 127.992395586399 9.27971881607618
v -548.197280117436 202.220258928103 9.27971881607626
cstype bspline
deg 1
curv 0 7 452 453 454 455 456 457 458
parm u 0 0 1 2 3 4 5 6
end
v -535.711700255581 202.685044941171 9.27971881607623
v -503.156006247817 202.685044301205 336.353238328546
v -503.156006247817 202.685044301205 336.353238328546
v -427.535139244811 116.605063442441 402.357418601727
v -422.413527336588 109.502901321724 396.575084582441
v -476.364640075405 128.702194447183 9.27971881607616
v -535.711700255581 202.685044941171 9.27971881607623
cstype bspline
deg 1
curv 0 7 459 460 461 462 463 464 465
parm u 0 0 1 2 3 4 5 6
end
v -530.717468310839 202.870959346398 9.27971881607581
v -498.702464743146 202.870958717062 330.921146321623
v -498.702464743146 202.870958717062 330.921146321623
v -423.417008670852 117.172779438209 396.632569788197
v -418.295396762629 110.070617317492 390.850235768911
v -471.449025227037 128.986113991496 9.27971881607623
v -530.717468310839 202.870959346398 9.27971881607581
cstype bspline
deg 1
curv 0 7 466 467 468 469 470 471 472
parm u 0 0 1 2 3 4 5 6
end
v 373.535092128979 69.6738105783227 428.607394528954
v 373.535092128979 69.6738105783227 428.607394528954
v -437.445358981015 109.492009849281 426.324894562145
v -437.445358981015 109.492009849281 426.324894562145
v -513.245184889341 195.775677523866 360.164555881663
v -508.586283478104 202.870960178892 354.327545309808
v 504.382176376004 202.870960148887 317.451877105879
v 508.99261062624 195.354580320514 323.287805275416
v 373.535092128979 69.6738105783227 428.607394528954
cstype bspline
deg 1
curv 0 9 473 474 475 476 477 478 479 480 481
parm u 0 0 1 2 3 4 5 6 7 8
end
v 369.533301989439 69.5537480044824 423.727508352262
v 369.533301989439 69.5537480044824 423.727508352262
v -432.32975662376 108.92429388161 421.470669235918
v -432.32975662376 108.92429388161 421.470669235918
v -508.464993539181 195.589763117394 355.017573869493
v -503.806092127944 202.685045772419 349.180563297637
v 500.309411768231 202.685045742683 312.627174295361
v 504.919846018467 195.16866591431 318.463102464898
v 369.533301989439 69.5537480044824 423.727508352262
cstype bspline
deg 1
curv 0 9 482 483 484 485 486 487 488 489 490
parm u 0 0 1 2 3 4 5 6 7 8
end
v 359.528826640599 69.2535915698867 411.527792910543
v 359.528826640599 69.2535915698867 411.527792910543
v -419.540750730645 107.505003962444 409.335105920312
v -419.540750730645 107.505003962444 409.335105920312
v -496.514515163814 195.124977101229 342.15011883908
v -491.855613752577 202.220259756255 336.313108267224
v 490.127500248779 202.220259727174 300.565417269034
v 494.737934499016 194.703879898801 306.401345438571
v 359.528826640599 69.2535915698867 411.527792910543
cstype bspline
deg 1
curv 0 9 491 492 493 494 495 496 497 498 499
parm u 0 0 1 2 3 4 5 6 7 8
end
v 355.527036501058 69.1335289960463 406.647906733859
v 355.527036501058 69.1335289960463 406.647906733859
v -414.42514837339 106.937287994773 404.48088059407
v -414.42514837339 106.937287994773 404.48088059407
v -491.734323813653 194.939062694764 337.003136826916
v -487.075422402417 202.034345349789 331.16612625506
v 486.054735640993 202.03434532097 295.740714458509
v 490.66516989123 194.517965492598 301.576642628046
v 355.527036501058 69.1335289960463 406.647906733859
cstype bspline
deg 1
curv 0 9 500 501 502 503 504 505 506 507 508
parm u 0 0 1 2 3 4 5 6 7 8
end
v 478.455758405279 47.8818965651827 9.27971881607616
v 375.830588358593 68.5538553439555 417.609942295003
v 380.481097701513 76.1184567805584 423.206863221956
v 516.192008997612 202.034343493593 317.690229617565
v 516.192008997612 202.034343493593 317.690229617565
v 606.693102463805 202.034344014248 9.27971881607637
v 478.455758405279 47.8818965651827 9.27971881607616
cstype bspline
deg 1
curv 0 7 509 510 511 512 513 514 515
parm u 0 0 1 2 3 4 5 6
end
v 473.435743323047 48.259193302351 9.27971881607615
v 372.087602718923 68.6739179154347 412.528832880697
v 376.738112061843 76.2385193520375 418.125753807649
v 512.519997829928 202.220257907706 312.553936819066
v 512.519997829928 202.220257907706 312.553936819066
v 601.513878998401 202.220258419691 9.27971881607612
v 473.435743323047 48.259193302351 9.27971881607615
cstype bspline
deg 1
curv 0 7 516 517 518 519 520 521 522
parm u 0 0 1 2 3 4 5 6
end
v 460.885705617467 49.2024351452718 9.27971881607611
v 362.73013861974 68.974074344127 399.82605934492
v 367.38064796266 76.5386757807297 405.422980271872
v 503.339969910721 202.685043942989 299.713204822823
v 503.339969910721 202.685043942989 299.713204822823
v 588.565820334892 202.685044433296 9.27971881607635
v 460.885705617467 49.2024351452718 9.27971881607611
cstype bspline
deg 1
curv 0 7 523 524 525 526 527 528 529
parm u 0 0 1 2 3 4 5 6
end
v 455.865690535236 49.57973188244 9.27971881607617
v 358.987152980066 69.0941369156044 394.744949930603
v 363.637662322986 76.6587383522071 400.341870857555
v 499.667958743037 202.870958357104 294.576912024328
v 499.667958743037 202.870958357104 294.576912024328
v 583.386596869488 202.870958838737 9.27971881607622
v 455.865690535236 49.57973188244 9.27971881607617
cstype bspline
deg 1
curv 0 7 530 531 532 533 534 535 536
parm u 0 0 1 2 3 4 5 6
end
v -493.569278909957 127.708476800731 9.27971881607627
v -437.012964129497 107.582084232743 415.276882947262
v -440.750652937685 100.04375274114 420.500314010616
v -529.575179864172 -23.3089905764709 342.9716024425
v -529.575179864172 -23.3089905764709 342.9716024425
v -586.206413260409 -23.3089894851096 9.27971881607612
v -493.569278909957 127.708476800731 9.27971881607627
cstype bspline
deg 1
curv 0 7 537 538 539 540 541 542 543
parm u 0 0 1 2 3 4 5 6
end
v -488.653664087214 127.992396343564 9.27971881607639
v -432.68764279167 108.076068353759 411.039381232142
v -436.425331599859 100.537736862157 416.262812295495
v -525.361814356969 -22.9704821930163 338.636382320077
v -525.361814356969 -22.9704821930163 338.636382320077
v -581.25731255968 -22.9704811158335 9.27971881607623
v -488.653664087214 127.992396343564 9.27971881607639
cstype bspline
deg 1
curv 0 7 544 545 546 547 548 549 550
parm u 0 0 1 2 3 4 5 6
end
v -476.364627030357 128.702195200648 9.27971881607638
v -421.874339447118 109.311028656295 400.445626944343
v -425.612028255307 101.772697164692 405.669058007696
v -514.828400588969 -22.1242112343796 327.798332014023
v -514.828400588969 -22.1242112343796 327.798332014023
v -568.884560807871 -22.1242101926433 9.27971881607616
v -476.364627030357 128.702195200648 9.27971881607638
cstype bspline
deg 1
curv 0 7 551 552 553 554 555 556 557
parm u 0 0 1 2 3 4 5 6
end
v -471.449012207613 128.986114743481 9.27971881607623
v -417.549018109296 109.805012777309 396.208125229222
v -421.286706917484 102.266681285706 401.431556292575
v -510.615035081763 -21.7857028509247 323.4631118916
v -510.615035081763 -21.7857028509247 323.4631118916
v -563.935460107145 -21.785701823367 9.27971881607614
v -471.449012207613 128.986114743481 9.27971881607623
cstype bspline
deg 1
curv 0 7 558 559 560 561 562 563 564
parm u 0 0 1 2 3 4 5 6
end
v 435.3584649166 -14.1750593475559 379.88181827418
v 430.571480603532 -21.7857031923027 375.120985133962
v -517.897125778454 -21.7857046117466 344.273159228719
v -522.967334041785 -14.1325017276434 348.739150930291
v -434.06656804985 109.326115131535 426.334404104135
v -434.06656804985 109.326115131535 426.334404104135
v 372.692760843973 69.715167945886 428.605021926902
v 372.692760843973 69.715167945886 428.605021926902
v 435.3584649166 -14.1750593475559 379.88181827418
cstype bspline
deg 1
curv 0 9 565 566 567 568 569 570 571 572 573
parm u 0 0 1 2 3 4 5 6 7 8
end
v 431.880505610201 -14.5135677341428 374.886789194146
v 427.093521297133 -22.1242115788888 370.125956053929
v -514.171270234769 -22.1242129875507 339.512425754105
v -519.241478498099 -14.471010103447 343.978417455677
v -430.452668336642 108.832131020212 421.475952225024
v -430.452668336642 108.832131020212 421.475952225024
v 369.065354430364 69.5767235652694 423.726189448324
v 369.065354430364 69.5767235652694 423.726189448324
v 431.880505610201 -14.5135677341428 374.886789194146
cstype bspline
deg 1
curv 0 9 574 575 576 577 578 579 580 581 582
parm u 0 0 1 2 3 4 5 6 7 8
end
v 423.185607344261 -15.3598387006056 362.399216494062
v 418.398623031194 -22.9704825453524 357.638383353845
v -504.856631375512 -22.9704839270631 327.61059206755
v -509.926839638842 -15.3172810429603 332.076583769122
v -421.417919053616 107.597170741892 409.329822527245
v -421.417919053616 107.597170741892 409.329822527245
v 359.996838396342 69.2306126137356 411.52910825186
v 359.996838396342 69.2306126137356 411.52910825186
v 423.185607344261 -15.3598387006056 362.399216494062
cstype bspline
deg 1
curv 0 9 583 584 585 586 587 588 589 590 591
parm u 0 0 1 2 3 4 5 6 7 8
end
v 419.707648037876 -15.6983470871921 357.404187414029
v 414.920663724807 -23.3089909319384 352.643354273812
v -501.130775831811 -23.3089923028671 322.849858592936
v -506.200984095142 -15.6557894187639 327.315850294508
v -417.804019340401 107.103186630566 404.471370648127
v -417.804019340401 107.103186630566 404.471370648127
v 356.369431982734 69.092168233121 406.650275773281
v 356.369431982734 69.092168233121 406.650275773281
v 419.707648037876 -15.6983470871921 357.404187414029
cstype bspline
deg 1
curv 0 9 592 593 594 595 596 597 598 599 600
parm u 0 0 1 2 3 4 5 6 7 8
end
v 522.539474680743 -23.3089923082727 9.2797188160762
v 442.181466454771 -23.308992667468 374.576837381581
v 442.181466454771 -23.308992667468 374.576837381581
v 379.288932936947 60.8849162158278 423.476443681314
v 375.908945894002 68.5380717008012 417.298170801787
v 478.455762470113 47.8818962596759 9.27971881607599
v 522.539474680743 -23.3089923082727 9.2797188160762
cstype bspline
deg 1
curv 0 7 601 602 603 604 605 606 607
parm u 0 0 1 2 3 4 5 6
end
v 517.54347855426 -22.9704839254917 9.27971881607616
v 438.197777975285 -22.9704842801621 369.975017666104
v 438.197777975285 -22.9704842801621 369.975017666104
v 375.454691525204 61.0233605875761 418.758427298824
v 372.074704482259 68.67651607255 412.580154419298
v 473.435747331167 48.259193001107 9.27971881607623
v 517.54347855426 -22.9704839254917 9.27971881607616
cstype bspline
deg 1
curv 0 7 608 609 610 611 612 613 614
parm u 0 0 1 2 3 4 5 6
end
v 505.053488238053 -22.1242129685392 9.27971881607619
v 428.238556776578 -22.1242133118975 358.470468377414
v 428.238556776578 -22.1242133118975 358.470468377414
v 365.869087995849 61.3694715169476 406.963386342584
v 362.489100952904 69.0226270019214 400.785113463058
v 460.8857094838 49.2024348546842 9.27971881607593
v 505.053488238053 -22.1242129685392 9.27971881607619
cstype bspline
deg 1
curv 0 7 615 616 617 618 619 620 621
parm u 0 0 1 2 3 4 5 6
end
v 500.05749211157 -21.7857045857584 9.27971881607615
v 424.254868297099 -21.7857049245915 353.868648661937
v 424.254868297099 -21.7857049245915 353.868648661937
v 362.034846584103 61.5079158886956 402.245369960092
v 358.654859541158 69.1610713736691 396.067097080566
v 455.865694344853 49.5797315961153 9.27971881607627
v 500.05749211157 -21.7857045857584 9.27971881607615
cstype bspline
deg 1
curv 0 7 622 623 624 625 626 627 628
parm u 0 0 1 2 3 4 5 6
end
v -586.206414704029 -23.3089895838504 9.27971881607623
v -529.206499331383 -23.3089908182581 345.144022836736
v -529.206499331383 -23.3089908182581 345.144022836736
v -410.601757535529 -145.874178636099 448.665772750652
v -405.462540291215 -153.177753779701 443.47197530608
v -461.431078729994 -174.672072444462 9.27971881607617
v -586.206414704029 -23.3089895838504 9.27971881607623
cstype bspline
deg 1
curv 0 7 629 630 631 632 633 634 635
parm u 0 0 1 2 3 4 5 6
end
v -581.257314043399 -22.9704812173167 9.27971881607591
v -525.156990817151 -22.9704824322425 339.84329759574
v -525.156990817151 -22.9704824322425 339.84329759574
v -406.588086746357 -145.498635832759 443.333767276212
v -401.448869502043 -152.80221097636 438.13996983164
v -456.730098232068 -174.032573241448 9.27971881607616
v -581.257314043399 -22.9704812173167 9.27971881607591
cstype bspline
deg 1
curv 0 7 636 637 638 639 640 641 642
parm u 0 0 1 2 3 4 5 6
end
v -568.884562391825 -22.1242103009824 9.27971881607611
v -515.033219531557 -22.1242114672038 326.591484493249
v -515.033219531557 -22.1242114672038 326.591484493249
v -396.553909773436 -144.559778824418 430.003753590083
v -391.414692529123 -151.863353968019 424.809956145511
v -444.977646987254 -172.433825233915 9.27971881607611
v -568.884562391825 -22.1242103009824 9.27971881607611
cstype bspline
deg 1
curv 0 7 643 644 645 646 647 648 649
parm u 0 0 1 2 3 4 5 6
end
v -563.935461731193 -21.7857019344487 9.2797188160761
v -510.983711017314 -21.7857030811882 321.29075925225
v -510.983711017314 -21.7857030811882 321.29075925225
v -392.540238984264 -144.184236021079 424.671748115636
v -387.40102173995 -151.487811164681 419.477950671063
v -440.276666489328 -171.794326030903 9.27971881607611
v -563.935461731193 -21.7857019344487 9.2797188160761
cstype bspline
deg 1
curv 0 7 650 651 652 653 654 655 656
parm u 0 0 1 2 3 4 5 6
end
v 350.868804627426 -113.801302979937 447.351546343387
v 350.868804627426 -113.801302979937 447.351546343387
v -405.692004683377 -150.94788731166 452.95116978015
v -405.692004683377 -150.94788731166 452.95116978015
v -523.596996448386 -29.1057853685014 350.040123559892
v -518.771035319136 -21.7857048087999 344.244733525749
v 431.44611434452 -21.785703533633 375.149426626211
v 435.91698330905 -29.0793790551238 381.225713766504
v 350.868804627426 -113.801302979937 447.351546343387
cstype bspline
deg 1
curv 0 9 657 658 659 660 661 662 663 664 665
parm u 0 0 1 2 3 4 5 6 7 8
end
v 345.89945204465 -114.653591833325 442.725793794467
v 345.89945204465 -114.653591833325 442.725793794467
v -400.951517958492 -151.323430131881 448.253550643538
v -400.951517958492 -151.323430131881 448.253550643538
v -518.892347465086 -29.4442937451438 345.311224157486
v -514.066386335836 -22.1242131854426 339.515834123344
v 426.992520737925 -22.1242119225661 370.122666175218
v 431.463389702455 -29.4178874440578 376.19895331551
v 345.89945204465 -114.653591833325 442.725793794467
cstype bspline
deg 1
curv 0 9 666 667 668 669 670 671 672 673 674
parm u 0 0 1 2 3 4 5 6 7 8
end
v 333.47607058772 -116.784313966793 431.161412422203
v 333.47607058772 -116.784313966793 431.161412422203
v -389.100301146274 -152.262287182431 436.509502802
v -389.100301146274 -152.262287182431 436.509502802
v -507.130725006855 -30.290564686754 333.488975651453
v -502.304763877605 -22.9704841270524 327.693585617311
v 415.858536721466 -22.9704828949026 357.555765047737
v 420.329405685997 -30.2641584163938 363.63205218803
v 333.47607058772 -116.784313966793 431.161412422203
cstype bspline
deg 1
curv 0 9 675 676 677 678 679 680 681 682 683
parm u 0 0 1 2 3 4 5 6 7 8
end
v 328.506718004944 -117.636602820181 426.535659873298
v 328.506718004944 -117.636602820181 426.535659873298
v -384.35981442139 -152.637830002652 431.811883665396
v -384.35981442139 -152.637830002652 431.811883665396
v -502.426076023568 -30.6290730633984 328.760076249047
v -497.600114894318 -23.3089925036968 322.964686214906
v 411.404943114872 -23.3089912838368 352.529004596744
v 415.875812079402 -30.6026668053281 358.605291737036
v 328.506718004944 -117.636602820181 426.535659873298
cstype bspline
deg 1
curv 0 9 684 685 686 687 688 689 690 691 692
parm u 0 0 1 2 3 4 5 6 7 8
end
v 462.674112623585 -95.2490983226872 9.27971881607608
v 350.237307941638 -117.013586045687 438.070655481301
v 354.90257477299 -109.783017809011 444.21527132501
v 441.709602702023 -23.3089934109869 376.721918752526
v 441.709602702023 -23.3089934109869 376.721918752526
v 522.539480402879 -23.3089926959813 9.27971881607617
v 462.674112623585 -95.2490983226872 9.27971881607608
cstype bspline
deg 1
curv 0 7 693 694 695 696 697 698 699
parm u 0 0 1 2 3 4 5 6
end
v 457.85408227193 -94.6991323101629 9.27971881607616
v 346.979097314385 -116.161297263374 432.114472855662
v 351.644364145737 -108.930729026699 438.259088699371
v 437.935633158078 -22.9704850242202 371.166743962742
v 437.935633158078 -22.9704850242202 371.166743962742
v 517.543484377105 -22.9704843200241 9.27971881607617
v 457.85408227193 -94.6991323101629 9.27971881607616
cstype bspline
deg 1
curv 0 7 700 701 702 703 704 705 706
parm u 0 0 1 2 3 4 5 6
end
v 445.804006392791 -93.3242172788522 9.2797188160762
v 338.833570746256 -114.030575307599 417.22401629157
v 343.498837577609 -106.800007070924 423.36863213528
v 428.500709298231 -22.1242140573025 357.278806988277
v 428.500709298231 -22.1242140573025 357.278806988277
v 505.053494312668 -22.1242133801306 9.27971881607605
v 445.804006392791 -93.3242172788522 9.2797188160762
cstype bspline
deg 1
curv 0 7 707 708 709 710 711 712 713
parm u 0 0 1 2 3 4 5 6
end
v 440.983976041136 -92.7742512663281 9.27971881607619
v 335.575360118996 -113.178286525288 411.267833665931
v 340.240626950349 -105.947718288613 417.412449509641
v 424.726739754285 -21.7857056705352 351.723632198493
v 424.726739754285 -21.7857056705352 351.723632198493
v 500.057498286893 -21.7857050041732 9.27971881607636
v 440.983976041136 -92.7742512663281 9.27971881607619
cstype bspline
deg 1
curv 0 7 714 715 716 717 718 719 720
parm u 0 0 1 2 3 4 5 6
end
v -461.431092718221 -174.672074347354 9.27971881607626
v -405.531131643097 -153.204093541922 442.939928526917
v -408.197898198067 -160.459044835495 448.741441070101
v -452.487681852639 -249.193332364462 410.083998420909
v -452.487681852639 -249.193332364462 410.083998420909
v -495.169490695263 -249.193332261839 9.27971881607613
v -461.431092718221 -174.672074347354 9.27971881607626
cstype bspline
deg 1
curv 0 7 721 722 723 724 725 726 727
parm u 0 0 1 2 3 4 5 6
end
v -456.730112215254 -174.032575143655 9.2797188160762
v -401.386902380685 -152.778410675766 438.620768815629
v -404.053668935655 -160.033361969338 444.422281358813
v -448.190786195068 -248.461783389099 405.898090487543
v -448.190786195068 -248.461783389099 405.898090487543
v -490.426836019302 -248.461783287541 9.27971881607608
v -456.730112215254 -174.032575143655 9.2797188160762
cstype bspline
deg 1
curv 0 7 728 729 730 731 732 733 734
parm u 0 0 1 2 3 4 5 6
end
v -444.977660957836 -172.433827134407 9.27971881607606
v -391.026329224664 -151.714203510369 427.822869537413
v -393.693095779635 -158.969154803941 433.624382080598
v -437.448547051154 -246.63291095068 395.433320654105
v -437.448547051154 -246.63291095068 395.433320654105
v -478.570199329396 -246.632910851803 9.27971881607617
v -444.977660957836 -172.433827134407 9.27971881607606
cstype bspline
deg 1
curv 0 7 735 736 737 738 739 740 741
parm u 0 0 1 2 3 4 5 6
end
v -440.276680454868 -171.794327930709 9.27971881607647
v -386.882099962259 -151.288520644211 423.503709826124
v -389.54886651723 -158.543471937783 429.305222369309
v -433.151651393589 -245.901361975309 391.247412720732
v -433.151651393589 -245.901361975309 391.247412720732
v -473.827544653435 -245.901361877506 9.27971881607612
v -440.276680454868 -171.794327930709 9.27971881607647
cstype bspline
deg 1
curv 0 7 742 743 744 745 746 747 748
parm u 0 0 1 2 3 4 5 6
end
v 420.873757718802 -238.087260614576 389.308720054559
v 415.755562021141 -245.901358508149 385.940424580581
v -442.372334882838 -245.901362600237 411.268091120982
v -447.31776835852 -238.835459136008 414.596438697974
v -403.394304737973 -150.835071564798 452.934166255232
v -403.394304737973 -150.835071564798 452.934166255232
v 346.176936171687 -114.031669045464 447.386282454638
v 346.176936171687 -114.031669045464 447.386282454638
v 420.873757718802 -238.087260614576 389.308720054559
cstype bspline
deg 1
curv 0 9 749 750 751 752 753 754 755 756 757
parm u 0 0 1 2 3 4 5 6 7 8
end
v 417.978633527879 -238.818809645313 384.676126058297
v 412.860437830217 -246.632907538886 381.307830584318
v -438.805712422962 -246.632911600153 406.444778509197
v -443.751145898645 -239.567008135925 409.77312608619
v -399.675015916509 -151.260754453964 448.244105461396
v -399.675015916509 -151.260754453964 448.244105461396
v 343.292863424809 -114.781572182844 442.745095844686
v 343.292863424809 -114.781572182844 442.745095844686
v 417.978633527879 -238.818809645313 384.676126058297
cstype bspline
deg 1
curv 0 9 758 759 760 761 762 763 764 765 766
parm u 0 0 1 2 3 4 5 6 7 8
end
v 410.740823050563 -240.647682222157 373.094641067637
v 405.622627352901 -248.46178011573 369.726345593658
v -429.88915627327 -248.461784099966 394.386496979728
v -434.834589748952 -241.395880635737 397.714844556721
v -390.376793862852 -152.324961676881 436.518953476771
v -390.376793862852 -152.324961676881 436.518953476771
v 336.0826815576 -116.656330026293 431.142129319822
v 336.0826815576 -116.656330026293 431.142129319822
v 410.740823050563 -240.647682222157 373.094641067637
cstype bspline
deg 1
curv 0 9 767 768 769 770 771 772 773 774 775
parm u 0 0 1 2 3 4 5 6 7 8
end
v 407.845698859639 -241.379231252898 368.462047071381
v 402.727503161978 -249.193329146471 365.093751597403
v -426.322533813395 -249.193333099897 389.563184367943
v -431.267967289078 -242.127429635669 392.891531944936
v -386.657505041396 -152.750644566051 431.828892682926
v -386.657505041396 -152.750644566051 431.828892682926
v 333.198608810722 -117.406233163674 426.50094270987
v 333.198608810722 -117.406233163674 426.50094270987
v 407.845698859639 -241.379231252898 368.462047071381
cstype bspline
deg 1
curv 0 9 776 777 778 779 780 781 782 783 784
parm u 0 0 1 2 3 4 5 6 7 8
end
v 534.756649461772 -249.193329862589 9.27971881607616
v 427.561002433562 -249.193333779061 384.109345974492
v 427.561002433562 -249.193333779061 384.109345974492
v 352.544908176007 -124.607532305041 442.435103499165
v 350.50327407052 -116.962100453759 437.056333926187
v 462.674115074423 -95.2490986023282 9.27971881607634
v 534.756649461772 -249.193329862589 9.27971881607616
cstype bspline
deg 1
curv 0 7 785 786 787 788 789 790 791
parm u 0 0 1 2 3 4 5 6
end
v 529.851594968369 -248.46178085514 9.27971881607614
v 423.784911944407 -248.461784730363 380.16171219906
v 423.784911944407 -248.461784730363 380.16171219906
v 348.757766269295 -123.857629198768 438.496062310526
v 346.716132163807 -116.212197347487 433.117292737549
v 457.854084628996 -94.6991325791043 9.27971881607595
v 529.851594968369 -248.46178085514 9.27971881607614
cstype bspline
deg 1
curv 0 7 792 793 794 795 796 797 798
parm u 0 0 1 2 3 4 5 6
end
v 517.588958734855 -246.632908336512 9.27971881607615
v 414.344685721513 -246.632912108618 370.292627760486
v 414.344685721513 -246.632912108618 370.292627760486
v 339.289911502527 -121.982871433085 428.648459338919
v 337.248277397039 -114.337439581804 423.269689765941
v 445.804008515429 -93.3242175210458 9.2797188160763
v 517.588958734855 -246.632908336512 9.27971881607615
cstype bspline
deg 1
curv 0 7 799 800 801 802 803 804 805
parm u 0 0 1 2 3 4 5 6
end
v 512.683904241452 -245.901359329061 9.27971881607611
v 410.568595232355 -245.901363059918 366.344993985054
v 410.568595232355 -245.901363059918 366.344993985054
v 335.502769595818 -121.232968326812 424.70941815028
v 333.46113549033 -113.58753647553 419.330648577303
v 440.98397807 -92.7742514978217 9.27971881607662
v 512.683904241452 -245.901359329061 9.27971881607611
cstype bspline
deg 1
curv 0 7 806 807 808 809 810 811 812
parm u 0 0 1 2 3 4 5 6
end
v -495.169499751419 -249.19333365874 9.27971881607618
v -452.016912975509 -249.193333738549 414.504845458265
v -452.016912975509 -249.193333738549 414.504845458265
v -360.406180972946 -341.375572802779 494.465413335887
v -354.818935631441 -348.252187620857 488.72281740788
v -427.333596458553 -324.447113720192 9.27971881607609
v -495.169499751419 -249.19333365874 9.27971881607618
cstype bspline
deg 1
curv 0 7 813 814 815 816 817 818 819
parm u 0 0 1 2 3 4 5 6
end
v -490.426845077597 -248.461784684774 9.27971881607639
v -447.929251449925 -248.461784763374 408.354120756136
v -447.929251449925 -248.461784763374 408.354120756136
v -356.96724790168 -339.991248326787 487.748459170552
v -351.380002560175 -346.867863144865 482.005863242546
v -422.878739590447 -323.396296162451 9.27971881607615
v -490.426845077597 -248.461784684774 9.27971881607639
cstype bspline
deg 1
curv 0 7 820 821 822 823 824 825 826
parm u 0 0 1 2 3 4 5 6
end
v -478.570208393044 -246.632912249859 9.27971881607612
v -437.710097635958 -246.632912325429 392.977309000835
v -437.710097635958 -246.632912325429 392.977309000835
v -348.369915223512 -336.530437136771 470.956073757233
v -342.782669882008 -343.407051954849 465.213477829227
v -411.741597420182 -320.7692522681 9.2797188160762
v -478.570208393044 -246.632912249859 9.27971881607612
cstype bspline
deg 1
curv 0 7 827 828 829 830 831 832 833
parm u 0 0 1 2 3 4 5 6
end
v -473.827553719223 -245.901363275894 9.27971881607612
v -433.62243611037 -245.901363350251 386.826584298713
v -433.62243611037 -245.901363350251 386.826584298713
v -344.930982152246 -335.146112660779 464.239119591899
v -339.343736810742 -342.022727478857 458.496523663893
v -407.286740552076 -319.718434710359 9.27971881607609
v -473.827553719223 -245.901363275894 9.27971881607612
cstype bspline
deg 1
curv 0 7 834 835 836 837 838 839 840
parm u 0 0 1 2 3 4 5 6
end
v 276.827257483717 -373.856077465891 504.784383817532
v 276.827257483717 -373.856077465891 504.784383817532
v -359.159360998266 -342.630184801193 495.55370257677
v -359.159360998266 -342.630184801193 495.55370257677
v -448.417479959064 -252.81520580414 417.646505891724
v -443.848879899458 -245.901362897157 411.311669514805
v 417.136727481611 -245.901359527045 385.899652833491
v 421.592836730423 -253.104615690426 392.227656232799
v 276.827257483717 -373.856077465891 504.784383817532
cstype bspline
deg 1
curv 0 9 841 842 843 844 845 846 847 848 849
parm u 0 0 1 2 3 4 5 6 7 8
end
v 271.746432490323 -374.687002729872 500.305416575298
v 271.746432490323 -374.687002729872 500.305416575298
v -352.968943849846 -344.0145094404 491.238325637183
v -352.968943849846 -344.0145094404 491.238325637183
v -442.875791193867 -253.546754799051 412.764899119662
v -438.307191134261 -246.632911892068 406.430062742744
v 412.175041892344 -246.632908563064 381.328053478538
v 416.631151141155 -253.836164726446 387.656056877846
v 271.746432490323 -374.687002729872 500.305416575298
cstype bspline
deg 1
curv 0 9 850 851 852 853 854 855 856 857 858
parm u 0 0 1 2 3 4 5 6 7 8
end
v 259.044370006835 -376.764315889821 489.107998469721
v 259.044370006835 -376.764315889821 489.107998469721
v -337.492900978788 -347.475321038408 480.449883288238
v -337.492900978788 -347.475321038408 480.449883288238
v -429.021569280849 -255.375627286327 400.56088218953
v -424.452969221244 -248.461784379344 394.226045812611
v 399.770827919183 -248.461781153114 369.899055091155
v 404.226937167994 -255.665037316495 376.227058490463
v 259.044370006835 -376.764315889821 489.107998469721
cstype bspline
deg 1
curv 0 9 859 860 861 862 863 864 865 866 867
parm u 0 0 1 2 3 4 5 6 7 8
end
v 253.963545013445 -377.595241153802 484.629031227494
v 253.963545013445 -377.595241153802 484.629031227494
v -331.302483830375 -348.859645677607 476.134506348659
v -331.302483830375 -348.859645677607 476.134506348659
v -423.479880515626 -256.107176281238 395.679275417482
v -418.91128045602 -249.193333374255 389.344439040564
v 394.809142329916 -249.193330189141 365.327455736203
v 399.265251578727 -256.396586352522 371.655459135511
v 253.963545013445 -377.595241153802 484.629031227494
cstype bspline
deg 1
curv 0 9 868 869 870 871 872 873 874 875 876
parm u 0 0 1 2 3 4 5 6 7 8
end
v 391.566837505825 -402.781750586807 9.27971881607619
v 275.165407419563 -378.191187181207 496.463016779634
v 280.357881439399 -370.911103701845 502.039239008431
v 426.281948720694 -249.193333595802 388.581791093093
v 426.281948720694 -249.193333595802 388.581791093093
v 534.756646909495 -249.193329481938 9.27971881607635
v 391.566837505825 -402.781750586807 9.27971881607619
cstype bspline
deg 1
curv 0 7 877 878 879 880 881 882 883
parm u 0 0 1 2 3 4 5 6
end
v 387.038096195168 -401.646560149879 9.27971881607618
v 272.076929251011 -377.360261752796 490.434979606995
v 277.269403270847 -370.080178273434 496.011201835791
v 423.074330979063 -248.461784530987 382.646386151457
v 423.074330979063 -248.461784530987 382.646386151457
v 529.85159246311 -248.461780481502 9.27971881607593
v 387.038096195168 -401.646560149879 9.27971881607618
cstype bspline
deg 1
curv 0 7 884 885 886 887 888 889 890
parm u 0 0 1 2 3 4 5 6
end
v 375.716242918525 -398.808584057563 9.27971881607614
v 264.35573382964 -375.282948181778 475.364886675415
v 269.548207849476 -368.002864702415 480.941108904211
v 415.055286624974 -246.632911868957 367.807873797356
v 415.055286624974 -246.632911868957 367.807873797356
v 517.588956347134 -246.632907980404 9.27971881607614
v 375.716242918525 -398.808584057563 9.27971881607614
cstype bspline
deg 1
curv 0 7 891 892 893 894 895 896 897
parm u 0 0 1 2 3 4 5 6
end
v 371.187501607868 -397.673393620635 9.27971881607611
v 261.267255661091 -374.452022753367 469.336849502782
v 266.459729680927 -367.171939274005 474.913071731578
v 411.847668883343 -245.901362804143 361.872468855716
v 411.847668883343 -245.901362804143 361.872468855716
v 512.683901900745 -245.901358979965 9.27971881607623
v 371.187501607868 -397.673393620635 9.27971881607611
cstype bspline
deg 1
curv 0 7 898 899 900 901 902 903 904
parm u 0 0 1 2 3 4 5 6
end
v -427.333624710945 -324.447120384404 9.27971881607644
v -354.879015622277 -348.232474112903 488.325699819027
v -355.655005930954 -354.035981886324 492.73826870043
v -392.299640036024 -475.508813890701 460.753735491176
v -392.299640036024 -475.508813890701 460.753735491176
v -466.377917861925 -475.508814083852 9.27971881607624
v -427.333624710945 -324.447120384404 9.27971881607644
cstype bspline
deg 1
curv 0 7 905 906 907 908 909 910 911
parm u 0 0 1 2 3 4 5 6
end
v -422.878767766594 -323.396302808678 9.27971881607622
v -350.985161641575 -346.997490835352 484.61653323257
v -351.761151950251 -352.800998608774 489.029102113972
v -388.381281070408 -474.192599350026 457.065957588842
v -388.381281070408 -474.192599350026 457.065957588842
v -461.854464857855 -474.192599541598 9.27971881607614
v -422.878767766594 -323.396302808678 9.27971881607622
cstype bspline
deg 1
curv 0 7 912 913 914 915 916 917 918
parm u 0 0 1 2 3 4 5 6
end
v -411.741625405716 -320.769258869364 9.27971881607604
v -341.250526689814 -343.910032641483 475.343616766433
v -342.026516998491 -349.713540414904 479.756185647836
v -378.58538365638 -470.902062998342 447.846512833003
v -378.58538365638 -470.902062998342 447.846512833003
v -450.545832347674 -470.902063185969 9.27971881607616
v -411.741625405716 -320.769258869364 9.27971881607604
cstype bspline
deg 1
curv 0 7 919 920 921 922 923 924 925
parm u 0 0 1 2 3 4 5 6
end
v -407.286768461365 -319.718441293639 9.27971881607627
v -337.356672709115 -342.675049363932 471.634450179973
v -338.132663017792 -348.478557137353 476.047019061376
v -374.667024690771 -469.585848457667 444.158734930668
v -374.667024690771 -469.585848457667 444.158734930668
v -446.022379343603 -469.585848643718 9.2797188160762
v -407.286768461365 -319.718441293639 9.27971881607627
cstype bspline
deg 1
curv 0 7 926 927 928 929 930 931 932
parm u 0 0 1 2 3 4 5 6
end
v 300.573786946326 -463.383281230956 482.583760887382
v 295.858946971815 -469.585845705973 480.873690125977
v -383.852301140503 -469.585851097968 462.493397751354
v -388.646873722493 -463.400305506351 463.941979078781
v -352.315595423439 -342.966208285143 495.653008640969
v -352.315595423439 -342.966208285143 495.653008640969
v 272.108404930597 -373.624396237028 504.715867535022
v 272.108404930597 -373.624396237028 504.715867535022
v 300.573786946326 -463.383281230956 482.583760887382
cstype bspline
deg 1
curv 0 9 933 934 935 936 937 938 939 940 941
parm u 0 0 1 2 3 4 5 6 7 8
end
v 297.711464708823 -464.699495770256 478.040964081946
v 292.996624734312 -470.902060245273 476.330893320542
v -380.728065480293 -470.902065589763 458.112485400216
v -385.522638062284 -464.716519998146 459.561066727642
v -349.166854814102 -344.201191629479 491.293484944516
v -349.166854814102 -344.201191629479 491.293484944516
v 269.12483775472 -374.558293389047 500.267339828279
v 269.12483775472 -374.558293389047 500.267339828279
v 297.711464708823 -464.699495770256 478.040964081946
cstype bspline
deg 1
curv 0 9 942 943 944 945 946 947 948 949 950
parm u 0 0 1 2 3 4 5 6 7 8
end
v 290.555659115085 -467.990032118483 466.683972068369
v 285.840819140574 -474.192596593501 464.973901306964
v -372.917476329761 -474.192601819277 447.160204522366
v -377.712048911751 -468.007056227659 448.608785849794
v -341.295003290768 -347.288649990332 480.394675703406
v -341.295003290768 -347.288649990332 480.394675703406
v 261.665919815037 -376.89303626911 489.146020561442
v 261.665919815037 -376.89303626911 489.146020561442
v 290.555659115085 -467.990032118483 466.683972068369
cstype bspline
deg 1
curv 0 9 951 952 953 954 955 956 957 958 959
parm u 0 0 1 2 3 4 5 6 7 8
end
v 287.693336877583 -469.306246657783 462.141175262933
v 282.978496903071 -475.508811132801 460.431104501529
v -369.793240669551 -475.508816311079 442.779292171232
v -374.587813251542 -469.323270719461 444.227873498659
v -338.146262681432 -348.523633334676 476.03515200696
v -338.146262681432 -348.523633334676 476.03515200696
v 258.68235263916 -377.826933421136 484.697492854706
v 258.68235263916 -377.826933421136 484.697492854706
v 287.693336877583 -469.306246657783 462.141175262933
cstype bspline
deg 1
curv 0 9 960 961 962 963 964 965 966 967 968
parm u 0 0 1 2 3 4 5 6 7 8
end
v 410.582981387643 -475.508812827626 9.27971881607614
v 304.419175624021 -475.508817816742 479.593929117822
v 304.419175624021 -475.508817816742 479.593929117822
v 275.621603061306 -384.702391814707 501.984353920434
v 275.160967451103 -378.190250173831 496.481702191831
v 391.566847915952 -402.781753196246 9.27971881607634
v 410.582981387643 -475.508812827626 9.27971881607614
cstype bspline
deg 1
curv 0 7 969 970 971 972 973 974 975
parm u 0 0 1 2 3 4 5 6
end
v 406.006907225197 -474.192598273409 9.27971881607622
v 300.722027005202 -474.192603221221 475.700218168124
v 300.722027005202 -474.192603221221 475.700218168124
v 272.045699282581 -383.768494533496 497.99637379339
v 271.585063672378 -377.256352892619 492.493722064788
v 387.038106600019 -401.646562757997 9.2797188160762
v 406.006907225197 -474.192598273409 9.27971881607622
cstype bspline
deg 1
curv 0 7 976 977 978 979 980 981 982
parm u 0 0 1 2 3 4 5 6
end
v 394.566721819082 -470.902061887868 9.2797188160762
v 291.479155458146 -470.902066732415 465.965940793885
v 291.479155458146 -470.902066732415 465.965940793885
v 263.105939835779 -381.433751330458 488.026423475795
v 262.645304225576 -374.921609689581 482.523771747193
v 375.716253310186 -398.808586662373 9.27971881607607
v 394.566721819082 -470.902061887868 9.2797188160762
cstype bspline
deg 1
curv 0 7 983 984 985 986 987 988 989
parm u 0 0 1 2 3 4 5 6
end
v 389.990647656636 -469.585847333651 9.27971881607612
v 287.782006839323 -469.585852136897 462.072229844187
v 287.782006839323 -469.585852136897 462.072229844187
v 259.530036057055 -380.499854049243 484.038443348752
v 259.069400446853 -373.987712408366 478.53579162015
v 371.187511994253 -397.673396224123 9.27971881607629
v 389.990647656636 -469.585847333651 9.27971881607612
cstype bspline
deg 1
curv 0 7 990 991 992 993 994 995 996
parm u 0 0 1 2 3 4 5 6
end
v -466.37792693134 -475.508816722832 9.27971881607629
v -390.997246083425 -475.508816857749 468.691307141562
v -390.997246083425 -475.508816857749 468.691307141562
v -243.859795662143 -590.840963274589 597.117254095962
v -237.460556698703 -597.455049448134 592.056530976986
v -301.627415091303 -626.232647825969 9.27971881607625
v -466.37792693134 -475.508816722832 9.27971881607629
cstype bspline
deg 1
curv 0 7 997 998 999 1000 1001 1002 1003
parm u 0 0 1 2 3 4 5 6
end
v -461.854474018303 -474.192602207068 9.27971881607589
v -387.657730313214 -474.19260233987 461.475738946297
v -387.657730313214 -474.19260233987 461.475738946297
v -240.670717557308 -589.406829771439 589.770379427902
v -234.271478593868 -596.020915944984 584.709656308926
v -297.629406609315 -624.435724650824 9.27971881607614
v -461.854474018303 -474.192602207068 9.27971881607589
cstype bspline
deg 1
curv 0 7 1004 1005 1006 1007 1008 1009 1010
parm u 0 0 1 2 3 4 5 6
end
v -450.545841735712 -470.90206591766 9.27971881607597
v -379.308940887691 -470.902066045164 443.436818458133
v -379.308940887691 -470.902066045164 443.436818458133
v -232.698022295206 -585.821496013565 571.403192757738
v -226.298783331766 -592.435582187111 566.342469638763
v -287.634385404343 -619.943416712958 9.27971881607619
v -450.545841735712 -470.90206591766 9.27971881607597
cstype bspline
deg 1
curv 0 7 1011 1012 1013 1014 1015 1016 1017
parm u 0 0 1 2 3 4 5 6
end
v -446.022388822675 -469.585851401897 9.279718816076
v -375.969425117473 -469.585851527277 436.221250262864
v -375.969425117473 -469.585851527277 436.221250262864
v -229.508944190371 -584.387362510415 564.056318089665
v -223.109705226931 -591.001448683961 558.995594970689
v -283.636376922356 -618.146493537809 9.27971881607622
v -446.022388822675 -469.585851401897 9.279718816076
cstype bspline
deg 1
curv 0 7 1018 1019 1020 1021 1022 1023 1024
parm u 0 0 1 2 3 4 5 6
end
v 176.230831114399 -569.767027062757 585.737574919745
v 176.230831114399 -569.767027062757 585.737574919745
v -244.396990514997 -590.419880729416 596.648353841978
v -244.396990514997 -590.419880729416 596.648353841978
v -390.186853432957 -476.14400144277 469.398556502778
v -385.660959567059 -469.585852748572 462.444483680868
v 297.65886017905 -469.585849109904 480.922350566333
v 301.789194812246 -476.14785675731 488.11466318245
v 176.230831114399 -569.767027062757 585.737574919745
cstype bspline
deg 1
curv 0 9 1025 1026 1027 1028 1029 1030 1031 1032 1033
parm u 0 0 1 2 3 4 5 6 7 8
end
v 168.685146012753 -571.907907365123 581.957975461388
v 168.685146012753 -571.907907365123 581.957975461388
v -237.548660212899 -591.854013930133 592.495384121845
v -237.548660212899 -591.854013930133 592.495384121845
v -383.488960437886 -477.460215913094 465.114280555683
v -378.963066571988 -470.902067218896 458.160207733773
v 291.21918449134 -470.902063650193 476.282817478577
v 295.349519124536 -477.4640712976 483.475130094693
v 168.685146012753 -571.907907365123 581.957975461388
cstype bspline
deg 1
curv 0 9 1034 1035 1036 1037 1038 1039 1040 1041 1042
parm u 0 0 1 2 3 4 5 6 7 8
end
v 149.820933258638 -577.260108121023 572.508976815501
v 149.820933258638 -577.260108121023 572.508976815501
v -220.427834457652 -595.439346931911 582.112959821505
v -220.427834457652 -595.439346931911 582.112959821505
v -366.744227950193 -480.75075208894 454.403590687909
v -362.218334084296 -474.192603394741 447.449517865999
v 275.119995272071 -474.192600000924 464.683984759141
v 279.250329905268 -480.75460764833 471.876297375258
v 149.820933258638 -577.260108121023 572.508976815501
cstype bspline
deg 1
curv 0 9 1043 1044 1045 1046 1047 1048 1049 1050 1051
parm u 0 0 1 2 3 4 5 6 7 8
end
v 142.275248156993 -579.400988423382 568.729377357147
v 142.275248156993 -579.400988423382 568.729377357147
v -213.579504155554 -596.873480132621 577.959990101372
v -213.579504155554 -596.873480132621 577.959990101372
v -360.046334955115 -482.066966559278 450.1193147408
v -355.520441089217 -475.50881786508 443.165241918889
v 268.680319584361 -475.508814541214 460.044451671385
v 272.810654217557 -482.07082218862 467.236764287501
v 142.275248156993 -579.400988423382 568.729377357147
cstype bspline
deg 1
curv 0 9 1052 1053 1054 1055 1056 1057 1058 1059 1060
parm u 0 0 1 2 3 4 5 6 7 8
end
v 328.776719131735 -549.489573281985 9.27971881607613
v 167.098669590656 -578.716111208919 582.354921993285
v 172.814181230172 -572.314542468 588.394009698981
v 302.646225809847 -475.508819957962 487.448271289599
v 302.646225809847 -475.508819957962 487.448271289599
v 410.582992030263 -475.508815888758 9.27971881607663
v 328.776719131735 -549.489573281985 9.27971881607613
cstype bspline
deg 1
curv 0 7 1061 1062 1063 1064 1065 1066 1067
parm u 0 0 1 2 3 4 5 6
end
v 324.647601990746 -547.769157293285 9.27971881607623
v 165.295513464744 -576.575231291946 574.110447340843
v 171.01102510426 -570.173662551028 580.149535046539
v 299.737060849482 -474.192605358949 480.063729782647
v 299.737060849482 -474.192605358949 480.063729782647
v 406.006917930523 -474.192601352578 9.27971881607581
v 324.647601990746 -547.769157293285 9.27971881607623
cstype bspline
deg 1
curv 0 7 1068 1069 1070 1071 1072 1073 1074
parm u 0 0 1 2 3 4 5 6
end
v 314.324809138273 -543.468117321535 9.27971881607624
v 160.787623149971 -571.223031499536 553.499260709732
v 166.503134789487 -564.821462758617 559.538348415428
v 292.464148448569 -470.902068861389 461.602376015282
v 292.464148448569 -470.902068861389 461.602376015282
v 394.566732681167 -470.902065012124 9.27971881607625
v 314.324809138273 -543.468117321535 9.27971881607624
cstype bspline
deg 1
curv 0 7 1075 1076 1077 1078 1079 1080 1081
parm u 0 0 1 2 3 4 5 6
end
v 310.195691997283 -541.747701332835 9.27971881607624
v 158.984467024058 -569.082151582577 545.25478605729
v 164.699978663575 -562.680582841659 551.293873762986
v 289.554983488204 -469.585854262368 454.21783450833
v 289.554983488204 -469.585854262368 454.21783450833
v 389.990658581424 -469.585850475944 9.27971881607593
v 310.195691997283 -541.747701332835 9.27971881607624
cstype bspline
deg 1
curv 0 7 1082 1083 1084 1085 1086 1087 1088
parm u 0 0 1 2 3 4 5 6
end
v -301.627393626442 -626.232638178489 9.27971881607603
v -237.289099835019 -597.378154343374 593.613660022443
v -236.915136950272 -600.202033860757 596.605495574822
v -235.274397024215 -699.065163877501 598.037579389863
v -235.530088921032 -701.796871741732 595.361411850967
v -300.494654149967 -701.796867525728 9.2797188160761
v -301.627393626442 -626.232638178489 9.27971881607603
cstype bspline
deg 1
curv 0 7 1089 1090 1091 1092 1093 1094 1095
parm u 0 0 1 2 3 4 5 6
end
v -297.629385130151 -624.435714996914 9.27971881607598
v -233.744155758875 -595.784421815713 589.498833491571
v -233.370192874128 -598.608301333096 592.490669043949
v -231.734347756155 -697.176493656937 593.918480533239
v -231.990039652972 -699.908201521168 591.242312994343
v -296.498020979809 -699.908197334795 9.27971881607616
v -297.629385130151 -624.435714996914 9.27971881607598
cstype bspline
deg 1
curv 0 7 1096 1097 1098 1099 1100 1101 1102
parm u 0 0 1 2 3 4 5 6
end
v -287.634363889423 -619.943407042978 9.279718816076
v -224.881795568511 -591.800090496568 579.211767164395
v -224.507832683764 -594.623970013952 582.203602716774
v -222.884224586012 -692.454818105529 583.620733391674
v -223.139916482829 -695.186525969759 580.944565852779
v -286.506438054414 -695.186521857461 9.27971881607626
v -287.634363889423 -619.943407042978 9.279718816076
cstype bspline
deg 1
curv 0 7 1103 1104 1105 1106 1107 1108 1109
parm u 0 0 1 2 3 4 5 6
end
v -283.636355393131 -618.146483861404 9.27971881607614
v -221.336851492365 -590.206357968914 575.09694063353
v -220.962888607619 -593.030237486297 578.088776185908
v -219.344175317954 -690.566147884958 579.501634535058
v -219.599867214771 -693.297855749188 576.825466996162
v -282.509804884256 -693.297851666527 9.2797188160761
v -283.636355393131 -618.146483861404 9.27971881607614
cstype bspline
deg 1
curv 0 7 1110 1111 1112 1113 1114 1115 1116
parm u 0 0 1 2 3 4 5 6
end
v 163.767231101998 -693.297872092277 587.89282435293
v 163.767231101998 -693.297872092277 587.89282435293
v -235.370135732163 -693.297869539434 597.954064926882
v -235.370135732163 -693.297869539434 597.954064926882
v -237.083462616045 -590.060798382576 596.458618523298
v -237.083462616045 -590.060798382576 596.458618523298
v 162.718359980437 -570.430498271121 586.088060628794
v 166.135589487315 -573.749971693018 586.051394042014
v 163.767231101998 -693.297872092277 587.89282435293
cstype bspline
deg 1
curv 0 9 1117 1118 1119 1120 1121 1122 1123 1124 1125
parm u 0 0 1 2 3 4 5 6 7 8
end
v 160.678248386852 -695.186542278636 583.997123607012
v 160.678248386852 -695.186542278636 583.997123607012
v -231.767397490925 -695.18653976859 593.88968286974
v -231.767397490925 -695.18653976859 593.88968286974
v -233.485619177553 -591.654530673135 592.38996412605
v -233.485619177553 -591.654530673135 592.38996412605
v 159.628715217023 -572.35258674461 582.192874634257
v 163.0459447239 -575.672060166508 582.156208047477
v 160.678248386852 -695.186542278636 583.997123607012
cstype bspline
deg 1
curv 0 9 1126 1127 1128 1129 1130 1131 1132 1133 1134
parm u 0 0 1 2 3 4 5 6 7 8
end
v 152.95579159899 -699.90821774453 574.257871742222
v 152.95579159899 -699.90821774453 574.257871742222
v -222.760551887832 -699.908215341486 583.728727726884
v -222.760551887832 -699.908215341486 583.728727726884
v -224.491010581321 -595.638861399551 582.218328132934
v -224.491010581321 -595.638861399551 582.218328132934
v 151.904603308485 -577.157807928338 572.454909647917
v 155.321832815362 -580.477281350235 572.418243061137
v 152.95579159899 -699.90821774453 574.257871742222
cstype bspline
deg 1
curv 0 9 1135 1136 1137 1138 1139 1140 1141 1142 1143
parm u 0 0 1 2 3 4 5 6 7 8
end
v 149.866808883844 -701.796887930883 570.362170996304
v 149.866808883844 -701.796887930883 570.362170996304
v -219.157813646593 -701.796885570646 579.664345669742
v -219.157813646593 -701.796885570646 579.664345669742
v -220.893167142829 -597.232593690111 578.149673735687
v -220.893167142829 -597.232593690111 578.149673735687
v 148.81495854507 -579.079896401835 568.559723653384
v 152.232188051947 -582.399369823732 568.523057066603
v 149.866808883844 -701.796887930883 570.362170996304
cstype bspline
deg 1
curv 0 9 1144 1145 1146 1147 1148 1149 1150 1151 1152
parm u 0 0 1 2 3 4 5 6 7 8
end
v 326.419384630058 -701.796876198114 9.2797188160762
v 164.354212614985 -701.796866061481 585.338786213888
v 163.654086538235 -699.008574591735 587.98077496493
v 166.033387659731 -578.908680372821 586.130851409434
v 166.033387659731 -578.908680372821 586.130851409434
v 328.776731065111 -549.489578254082 9.27971881607616
v 326.419384630058 -701.796876198114 9.2797188160762
cstype bspline
deg 1
curv 0 7 1153 1154 1155 1156 1157 1158 1159
parm u 0 0 1 2 3 4 5 6
end
v 322.29287163153 -699.908205991779 9.27971881607612
v 161.340062784831 -699.908195924708 581.384902221329
v 160.639936708081 -697.119904454962 584.026890972371
v 163.019899876188 -576.986592133958 582.176452670923
v 163.019899876188 -576.986592133958 582.176452670923
v 324.647613900778 -547.769162255656 9.27971881607588
v 322.29287163153 -699.908205991779 9.27971881607612
cstype bspline
deg 1
curv 0 7 1160 1161 1162 1163 1164 1165 1166
parm u 0 0 1 2 3 4 5 6
end
v 311.97658913521 -695.186530475942 9.2797188160761
v 153.804688209448 -695.186520582817 571.500192239922
v 153.104562132699 -692.398229113072 574.142180990963
v 155.486180417329 -572.181371536812 572.290455824652
v 155.486180417329 -572.181371536812 572.290455824652
v 314.324820989944 -543.46812225959 9.27971881607622
v 311.97658913521 -695.186530475942 9.2797188160761
cstype bspline
deg 1
curv 0 7 1167 1168 1169 1170 1171 1172 1173
parm u 0 0 1 2 3 4 5 6
end
v 307.850076136682 -693.297860269606 9.2797188160761
v 150.790538379298 -693.297850446058 567.546308247363
v 150.090412302548 -690.509558976312 570.188296998404
v 152.472692633786 -570.25928329795 568.336057086133
v 152.472692633786 -570.25928329795 568.336057086133
v 310.195703825609 -541.747706261163 9.27971881607622
v 307.850076136682 -693.297860269606 9.2797188160761
cstype bspline
deg 1
curv 0 7 1174 1175 1176 1177 1178 1179 1180
parm u 0 0 1 2 3 4 5 6
end
v -300.494652649211 -701.796866816522 9.27971881607613
v -234.122922761322 -701.796870713617 608.056223769396
v -234.122922761322 -701.796870713617 608.056223769396
v -178.963725258838 -743.341421245622 656.200816578408
v -262.570972533369 -733.419519961735 9.27971881607627
v -300.494652649211 -701.796866816522 9.27971881607613
cstype bspline
deg 1
curv 0 6 1181 1182 1183 1184 1185 1186
parm u 0 0 1 2 3 4 5
end
v -296.498019482347 -699.908196627145 9.27971881607606
v -231.074492013337 -699.908200468577 599.501959305853
v -231.074492013337 -699.908200468577 599.501959305853
v -172.368523099657 -744.124091969798 650.742279991821
v -255.270316154601 -734.285908872494 9.27971881607624
v -296.498019482347 -699.908196627145 9.27971881607606
cstype bspline
deg 1
curv 0 6 1187 1188 1189 1190 1191 1192
parm u 0 0 1 2 3 4 5
end
v -286.506436565189 -695.186521153705 9.27971881607612
v -223.453415143369 -695.186524855948 578.116298146997
v -223.453415143369 -695.186524855948 578.116298146997
v -155.880517701672 -746.08076878024 637.095938525358
v -237.018675207682 -736.451881149391 9.27971881607636
v -286.506436565189 -695.186521153705 9.27971881607612
cstype bspline
deg 1
curv 0 6 1193 1194 1195 1196 1197 1198
parm u 0 0 1 2 3 4 5
end
v -282.509803398325 -693.297850964328 9.27971881607622
v -220.404984395383 -693.297854610879 569.56203368344
v -220.404984395383 -693.297854610879 569.56203368344
v -149.28531554247 -746.863439504418 631.637401938782
v -229.718018828912 -737.31827006015 9.27971881607619
v -282.509803398325 -693.297850964328 9.27971881607622
cstype bspline
deg 1
curv 0 6 1199 1200 1201 1202 1203 1204
parm u 0 0 1 2 3 4 5
end
v -178.963824855696 -743.34140942619 656.200899010009
v -237.243073258638 -699.446905908743 605.333012863362
v -232.951533158439 -693.297862290803 597.89311337387
v 160.218988593747 -693.297863726395 587.982284099346
v 164.327115701284 -699.548367768798 595.331424124195
v 51.5604354929087 -770.698355495823 683.008615031766
v -178.963824855696 -743.34140942619 656.200899010009
cstype bspline
deg 1
curv 0 7 1205 1206 1207 1208 1209 1210 1211
parm u 0 0 1 2 3 4 5 6
end
v -172.368622796232 -744.124080138532 650.742362505956
v -229.179422630296 -701.335576143015 601.156182569693
v -224.887882530097 -695.186532525074 593.716283080201
v 152.478265244883 -695.186533902954 584.203841893311
v 156.586392352419 -701.437037945357 591.552981918159
v 47.5646465454591 -770.224164265036 676.318449896207
v -172.368622796232 -744.124080138532 650.742362505956
cstype bspline
deg 1
curv 0 7 1212 1213 1214 1215 1216 1217 1218
parm u 0 0 1 2 3 4 5 6
end
v -155.880617647563 -746.080756919387 637.096021245822
v -209.020296059437 -706.057251728681 590.714106835492
v -204.728755959238 -699.908208110739 583.274207346
v 133.12645687272 -699.908209344364 574.757736378235
v 137.234583980257 -706.158713386768 582.106876403084
v 37.5751741768391 -769.038686188069 659.593037057309
v -155.880617647563 -746.080756919387 637.096021245822
cstype bspline
deg 1
curv 0 7 1219 1220 1221 1222 1223 1224 1225
parm u 0 0 1 2 3 4 5 6
end
v -149.2854155881 -746.863427631729 631.637484741764
v -200.956645431094 -707.945921962951 586.537276541808
v -196.665105330896 -701.79687834501 579.097377052316
v 125.385733523857 -701.796879520909 570.979294172185
v 129.493860631394 -708.047383563313 578.328434197034
v 33.5793852293845 -768.564494957281 652.90287192175
v -149.2854155881 -746.863427631729 631.637484741764
cstype bspline
deg 1
curv 0 7 1226 1227 1228 1229 1230 1231 1232
parm u 0 0 1 2 3 4 5 6
end
v 216.819667178836 -790.310121658328 9.27971881607596
v 51.5604655635214 -770.698359064386 683.008665379105
v 160.763424201163 -701.796864297183 598.102196521373
v 160.763424201163 -701.796864297183 598.102196521373
v 326.419375287094 -701.796871921919 9.27971881607639
v 216.819667178836 -790.310121658328 9.27971881607596
cstype bspline
deg 1
curv 0 6 1233 1234 1235 1236 1237 1238
parm u 0 0 1 2 3 4 5
end
v 211.182844843153 -789.641184495669 9.27971881607657
v 47.5646762510405 -770.224167790279 676.318499632309
v 159.009462495462 -699.908194193515 589.668985821831
v 159.009462495462 -699.908194193515 589.668985821831
v 322.292862274273 -699.908201709045 9.27971881607583
v 211.182844843153 -789.641184495669 9.27971881607657
cstype bspline
deg 1
curv 0 6 1239 1240 1241 1242 1243 1244
parm u 0 0 1 2 3 4 5
end
v 197.09078900394 -787.968841589024 9.27971881607659
v 37.5752029697376 -769.038689605001 659.593085265437
v 154.624558231204 -695.186518934322 568.585959072989
v 154.624558231204 -695.186518934322 568.585959072989
v 311.976579742225 -695.186526176853 9.27971881607603
v 197.09078900394 -787.968841589024 9.27971881607659
cstype bspline
deg 1
curv 0 6 1245 1246 1247 1248 1249 1250
parm u 0 0 1 2 3 4 5
end
v 191.453966668255 -787.299904426366 9.27971881607638
v 33.5794136572567 -768.564498330894 652.902919518652
v 152.870596525501 -693.297848830654 560.152748373454
v 152.870596525501 -693.297848830654 560.152748373454
v 307.850066729405 -693.297855963975 9.27971881607614
v 191.453966668255 -787.299904426366 9.27971881607638
cstype bspline
deg 1
curv 0 6 1251 1252 1253 1254 1255 1256
parm u 0 0 1 2 3 4 5
end
