# type_plates_name_joint_linking_vidychapel_one_layer.xml
v -512.482375597686 700.366923531688 9.2797188160762
v -475.803278171749 703.45114710305 360.351936041423
v -519.081024680832 652.447937529091 322.577856527736
v -519.081024680832 652.447937529091 322.577856527736
v -549.677189057283 652.447937538199 9.27971881607611
v -512.482375597686 700.366923531688 9.2797188160762
cstype bspline
deg 1
curv 0 6 1 2 3 4 5 6
parm u 0 0 1 2 3 4 5
end
v -507.049132784116 700.823786887946 9.27971881607589
v -470.88476962511 703.864728163112 355.425181757526
v -514.516641927625 652.444178188715 317.342010921897
v -514.516641927625 652.444178188715 317.342010921897
v -544.601482508872 652.444178197669 9.27971881607609
v -507.049132784116 700.823786887946 9.27971881607589
cstype bspline
deg 1
curv 0 6 7 8 9 10 11 12
parm u 0 0 1 2 3 4 5
end
v 395.557091967534 776.720948743125 383.652633019671
v 517.568548085912 660.051418400183 288.787419462251
v 512.915167969259 652.45733589306 283.094559700313
v -508.339046911232 652.457335911555 322.173971015292
v -513.021349967303 659.589219576498 327.866748570923
v -475.803219013875 703.45115207744 360.351876784374
v 395.557091967534 776.720948743125 383.652633019671
cstype bspline
deg 1
curv 0 7 13 14 15 16 17 18 19
parm u 0 0 1 2 3 4 5 6
end
v 392.046564737307 776.42576015913 378.500481297796
v 513.745385059142 660.055177740537 283.878345419713
v 509.092004942489 652.461095233414 278.185485657775
v -503.768284610367 652.461095251735 316.943694224554
v -508.450587666438 659.592978916678 322.636471780185
v -470.884711054511 703.864733088119 355.425123088767
v 392.046564737307 776.42576015913 378.500481297796
cstype bspline
deg 1
curv 0 7 20 21 22 23 24 25 26
parm u 0 0 1 2 3 4 5 6
end
v 606.278193783539 652.447937773981 9.27971881607622
v 525.520205073724 652.447937808385 282.604997914415
v 525.520205073724 652.447937808385 282.604997914415
v 395.557079643787 776.720947706862 383.652614932945
v 499.153911444738 785.432061474157 9.27971881607601
v 606.278193783539 652.447937773981 9.27971881607622
cstype bspline
deg 1
curv 0 6 27 28 29 30 31 32
parm u 0 0 1 2 3 4 5
end
v 601.010628554331 652.444178624056 9.27971881607627
v 521.704904596547 652.444178657836 277.689810265314
v 521.704904596547 652.444178657836 277.689810265314
v 392.046552349032 776.425759117441 378.500463116406
v 494.217675690097 785.016989792009 9.27971881607626
v 601.010628554331 652.444178624056 9.27971881607627
cstype bspline
deg 1
curv 0 6 33 34 35 36 37 38
parm u 0 0 1 2 3 4 5
end
v -549.677175110037 652.447937527869 9.27971881607636
v -519.079603110418 652.44793751841 322.592265379946
v -519.079603110418 652.44793751841 322.592265379946
v -447.009020797703 567.250320656902 385.497641471172
v -442.037126874574 560.094168106302 379.705431828742
v -492.415640250654 578.449114413192 9.2797188160761
v -549.677175110037 652.447937527869 9.27971881607636
cstype bspline
deg 1
curv 0 7 39 40 41 42 43 44 45
parm u 0 0 1 2 3 4 5 6
end
v -544.601468602501 652.44417818737 9.27971881607596
v -514.514091061235 652.44417817807 317.367984022199
v -514.514091061235 652.44417817807 317.367984022199
v -442.670311990352 567.514674811428 380.075399409235
v -437.698418067224 560.358522260828 374.283189766805
v -487.339497500007 578.44479131769 9.27971881607608
v -544.601468602501 652.44417818737 9.27971881607596
cstype bspline
deg 1
curv 0 7 46 47 48 49 50 51 52
parm u 0 0 1 2 3 4 5 6
end
v 385.685409425721 518.327482764726 391.339268895586
v 385.685409425721 518.327482764726 391.339268895586
v -439.914471006079 558.863617523908 391.689879847268
v -439.914471006079 558.863617523908 391.689879847268
v -513.051214133575 645.321571198934 327.853953774753
v -508.366201652659 652.457335901231 322.175024025633
v 512.944122784853 652.457335883389 283.093464706537
v 517.601341010972 644.85660203371 288.773263214732
v 385.685409425721 518.327482764726 391.339268895586
cstype bspline
deg 1
curv 0 9 53 54 55 56 57 58 59 60 61
parm u 0 0 1 2 3 4 5 6 7 8
end
v 382.02720170698 518.477728395985 386.310983271622
v 382.02720170698 518.477728395985 386.310983271622
v -435.128515952747 558.599263143522 386.658008205406
v -435.128515952747 558.599263143522 386.658008205406
v -508.492062554953 645.325330539085 322.624121310108
v -503.807050074036 652.461095241381 316.945191560986
v 509.133192312258 652.461095223685 278.183922608463
v 513.790410538378 644.860361374007 283.863721116658
v 382.02720170698 518.477728395985 386.310983271622
cstype bspline
deg 1
curv 0 9 62 63 64 65 66 67 68 69 70
parm u 0 0 1 2 3 4 5 6 7 8
end
v 482.710729016611 498.578449963593 9.27971881607613
v 388.179750627328 517.377899891648 380.316116689328
v 392.65970108599 525.017000426677 385.916636270433
v 525.515863037777 652.447937794983 282.619629977602
v 525.515863037777 652.447937794983 282.619629977602
v 606.278181009879 652.447937764868 9.27971881607602
v 482.710729016611 498.578449963593 9.27971881607613
cstype bspline
deg 1
curv 0 7 71 72 73 74 75 76 77
parm u 0 0 1 2 3 4 5 6
end
v 477.520211947636 498.670633093949 9.2797188160762
v 384.208258857895 517.227654503122 375.531412629715
v 388.688209316557 524.86675503815 381.131932210819
v 521.697093988434 652.444178644601 277.716182462309
v 521.697093988434 652.444178644601 277.716182462309
v 601.010615896667 652.444178615021 9.27971881607613
v 477.520211947636 498.670633093949 9.2797188160762
cstype bspline
deg 1
curv 0 7 78 79 80 81 82 83 84
parm u 0 0 1 2 3 4 5 6
end
v -492.415601734041 578.449114380389 9.2797188160764
v -441.794639544526 560.005837409461 381.488054658573
v -446.560943761783 552.569991607552 386.712307991118
v -559.026100801708 427.550993313689 288.549362239632
v -559.026100801708 427.550993313689 288.549362239632
v -607.567192970382 427.550993696667 9.27971881607616
v -492.415601734041 578.449114380389 9.2797188160764
cstype bspline
deg 1
curv 0 7 85 86 87 88 89 90 91
parm u 0 0 1 2 3 4 5 6
end
v -487.339458929504 578.44479128484 9.27971881607633
v -437.354249527876 560.233144931839 376.813459847366
v -442.120553745133 552.797299129931 382.03771317991
v -554.71943088976 427.629654322063 283.758052529971
v -554.71943088976 427.629654322063 283.758052529971
v -602.427724321797 427.629654698471 9.2797188160761
v -487.339458929504 578.44479128484 9.27971881607633
cstype bspline
deg 1
curv 0 7 92 93 94 95 96 97 98
parm u 0 0 1 2 3 4 5 6
end
v 462.303674464231 434.766833673335 331.271213427979
v 457.74932624359 427.354340751418 325.528224268219
v -547.571944678222 427.354340709978 288.819664330305
v -552.480583214331 434.827160885431 294.262505960766
v -440.857660265669 558.909927611661 391.690354241
v -440.857660265669 558.909927611661 391.690354241
v 385.046328199867 518.358861189117 391.339569492411
v 385.046328199867 518.358861189117 391.339569492411
v 462.303674464231 434.766833673335 331.271213427979
cstype bspline
deg 1
curv 0 9 99 100 101 102 103 104 105 106 107
parm u 0 0 1 2 3 4 5 6 7 8
end
v 458.369033092386 434.688172669967 326.060619257333
v 453.814684871745 427.27567974805 320.317630097573
v -543.406799218375 427.275679706945 283.904827863192
v -548.315437754484 434.748499882398 289.347669493653
v -436.826235071123 558.682619896572 386.658802699829
v -436.826235071123 558.682619896572 386.658802699829
v 380.87693002673 518.534205765042 386.311501072523
v 380.87693002673 518.534205765042 386.311501072523
v 458.369033092386 434.688172669967 326.060619257333
cstype bspline
deg 1
curv 0 9 108 109 110 111 112 113 114 115 116
parm u 0 0 1 2 3 4 5 6 7 8
end
v 537.341039787316 427.550993379304 9.27971881607618
v 468.972685440192 427.550993759862 326.085978792747
v 468.972685440192 427.550993759862 326.085978792747
v 392.830148791896 509.93682264599 385.28759608575
v 388.482639655512 517.317666082904 379.127312557788
v 482.710723895844 498.578450054536 9.27971881607628
v 537.341039787316 427.550993379304 9.27971881607618
cstype bspline
deg 1
curv 0 7 117 118 119 120 121 122 123
parm u 0 0 1 2 3 4 5 6
end
v 532.160923043935 427.629654384522 9.27971881607619
v 464.892643935451 427.629654758956 320.98843438971
v 464.892643935451 427.629654758956 320.98843438971
v 388.984863762971 509.761478358442 380.007526071535
v 384.637354626587 517.142321795356 373.847242543573
v 477.520206694231 498.670633187246 9.27971881607612
v 532.160923043935 427.629654384522 9.27971881607619
cstype bspline
deg 1
curv 0 7 124 125 126 127 128 129 130
parm u 0 0 1 2 3 4 5 6
end
v -607.567207239048 427.550993478281 9.27971881607604
v -559.079583062852 427.550993093359 288.241747735568
v -559.079583062852 427.550993093359 288.241747735568
v -439.474878497025 302.856214214279 392.636273276102
v -434.405240095041 295.51300197735 387.428098101985
v -484.891846348245 276.781597916838 9.27971881607613
v -607.567207239048 427.550993478281 9.27971881607604
cstype bspline
deg 1
curv 0 7 131 132 133 134 135 136 137
parm u 0 0 1 2 3 4 5 6
end
v -602.427738561805 427.629654480522 9.279718816076
v -554.815692540418 427.629654102552 283.204316789159
v -554.815692540418 427.629654102552 283.204316789159
v -435.115559714788 302.835385777812 387.682134938809
v -430.045921312804 295.492173540883 382.473959764692
v -479.871100345212 277.006170418338 9.27971881607616
v -602.427738561805 427.629654480522 9.279718816076
cstype bspline
deg 1
curv 0 7 138 139 140 141 142 143 144
parm u 0 0 1 2 3 4 5 6
end
v 378.78311680859 335.962965478888 395.956895598531
v 378.78311680859 335.962965478888 395.956895598531
v -432.999459251936 296.105199156882 398.288246276665
v -432.999459251936 296.105199156882 398.288246276665
v -551.831779372125 419.994771980974 294.567785628514
v -546.98424320545 427.354340526234 288.841111976697
v 457.166212454106 427.354340590258 325.50692192039
v 461.644348713829 420.048026901226 331.531395762542
v 378.78311680859 335.962965478888 395.956895598531
cstype bspline
deg 1
curv 0 9 145 146 147 148 149 150 151 152 153
parm u 0 0 1 2 3 4 5 6 7 8
end
v 374.271149695916 335.550183831285 390.993244696154
v 374.271149695916 335.550183831285 390.993244696154
v -428.680096792537 296.126027543258 393.299232762685
v -428.680096792537 296.126027543258 393.299232762685
v -547.416988743982 419.916110977198 289.662064720538
v -542.569452577307 427.275679522458 283.93539106872
v 452.983502972203 427.275679585915 320.28726966552
v 457.461639231926 419.969365896883 326.311743507673
v 374.271149695916 335.550183831285 390.993244696154
cstype bspline
deg 1
curv 0 9 154 155 156 157 158 159 160 161 162
parm u 0 0 1 2 3 4 5 6 7 8
end
v 479.120751842328 356.559059285698 9.27971881607609
v 382.933652908137 337.612189665111 382.99136226116
v 387.555089886077 344.864504466407 389.136577584388
v 469.038146101193 427.550993555208 325.782708583843
v 469.038146101193 427.550993555208 325.782708583843
v 537.341055190531 427.550993145403 9.27971881607625
v 479.120751842328 356.559059285698 9.27971881607609
cstype bspline
deg 1
curv 0 7 163 164 165 166 167 168 169
parm u 0 0 1 2 3 4 5 6
end
v 473.981967010744 356.688118953632 9.27971881607615
v 379.235234032283 338.024971643748 377.395169690218
v 383.856671010223 345.277286445044 383.540385013446
v 465.01046909572 427.629654552049 320.442517412204
v 465.01046909572 427.629654552049 320.442517412204
v 532.160938543386 427.629654149159 9.27971881607624
v 473.981967010744 356.688118953632 9.27971881607615
cstype bspline
deg 1
curv 0 7 170 171 172 173 174 175 176
parm u 0 0 1 2 3 4 5 6
end
v -484.891882762351 276.781596288077 9.27971881607635
v -434.427139202539 295.504888510008 387.264335716595
v -438.862258957262 288.191850674574 393.097345100482
v -503.087708000654 202.685044207694 337.039427290652
v -503.087708000654 202.685044207694 337.039427290652
v -535.711701962942 202.685044877613 9.27971881607617
v -484.891882762351 276.781596288077 9.27971881607635
cstype bspline
deg 1
curv 0 7 177 178 179 180 181 182 183
parm u 0 0 1 2 3 4 5 6
end
v -479.871136895462 277.006168783488 9.27971881607615
v -430.076727177026 295.480755562513 382.243486261054
v -434.511846931748 288.167717727078 388.076495644941
v -498.579526242913 202.870958619316 332.156284037461
v -498.579526242913 202.870958619316 332.156284037461
v -530.717470114571 202.870959279253 9.27971881607614
v -479.871136895462 277.006168783488 9.27971881607615
cstype bspline
deg 1
curv 0 7 184 185 186 187 188 189 190
parm u 0 0 1 2 3 4 5 6
end
v 496.364934975308 210.032499509616 305.673640490288
v 491.564122190375 202.220259913227 300.513124079501
v -493.19961203281 202.2202599423 336.362039577851
v -497.987833647291 209.474772548613 341.490737557582
v -432.91529492171 296.109330748725 398.28798379637
v -432.91529492171 296.109330748725 398.28798379637
v 380.251969999546 336.035083611307 395.952646314225
v 380.251969999546 336.035083611307 395.952646314225
v 496.364934975308 210.032499509616 305.673640490288
cstype bspline
deg 1
curv 0 9 191 192 193 194 195 196 197 198 199
parm u 0 0 1 2 3 4 5 6 7 8
end
v 492.872153897622 209.846585103551 300.827824212972
v 488.071341112689 202.034345507161 295.667307802185
v -488.970716365554 202.034345536009 331.235126700894
v -493.758937980036 209.288858142322 336.363824680625
v -428.528629517597 296.133463648381 393.298777035838
v -428.528629517597 296.133463648381 393.298777035838
v 376.915082956206 335.679997302876 390.985620846892
v 376.915082956206 335.679997302876 390.985620846892
v 492.872153897622 209.846585103551 300.827824212972
cstype bspline
deg 1
curv 0 9 200 201 202 203 204 205 206 207 208
parm u 0 0 1 2 3 4 5 6 7 8
end
v 588.565823275844 202.685044327726 9.27971881607615
v 503.13571341283 202.685043616268 300.409303018449
v 503.13571341283 202.685043616268 300.409303018449
v 386.122839372903 329.664197770341 391.388023074585
v 382.211545260133 337.469947257861 385.796973676661
v 479.120713776417 356.559060241717 9.2797188160761
v 588.565823275844 202.685044327726 9.27971881607615
cstype bspline
deg 1
curv 0 7 209 210 211 212 213 214 215
parm u 0 0 1 2 3 4 5 6
end
v 583.386599879169 202.870958730701 9.27971881607617
v 499.300287441038 202.870958030435 295.829896692203
v 499.300287441038 202.870958030435 295.829896692203
v 382.131519162845 330.019284326245 386.929826131305
v 378.220225050075 337.825033813766 381.338776733381
v 473.981929132054 356.688119904946 9.27971881607632
v 583.386599879169 202.870958730701 9.27971881607617
cstype bspline
deg 1
curv 0 7 216 217 218 219 220 221 222
parm u 0 0 1 2 3 4 5 6
end
v -535.711700255581 202.685044941171 9.27971881607623
v -503.156006247817 202.685044301205 336.353238328546
v -503.156006247817 202.685044301205 336.353238328546
v -427.535139244811 116.605063442441 402.357418601727
v -422.413527336588 109.502901321724 396.575084582441
v -476.364640075405 128.702194447183 9.27971881607616
v -535.711700255581 202.685044941171 9.27971881607623
cstype bspline
deg 1
curv 0 7 223 224 225 226 227 228 229
parm u 0 0 1 2 3 4 5 6
end
v -530.717468310839 202.870959346398 9.27971881607581
v -498.702464743146 202.870958717062 330.921146321623
v -498.702464743146 202.870958717062 330.921146321623
v -423.417008670852 117.172779438209 396.632569788197
v -418.295396762629 110.070617317492 390.850235768911
v -471.449025227037 128.986113991496 9.27971881607623
v -530.717468310839 202.870959346398 9.27971881607581
cstype bspline
deg 1
curv 0 7 230 231 232 233 234 235 236
parm u 0 0 1 2 3 4 5 6
end
v 359.528826640599 69.2535915698867 411.527792910543
v 359.528826640599 69.2535915698867 411.527792910543
v -419.540750730645 107.505003962444 409.335105920312
v -419.540750730645 107.505003962444 409.335105920312
v -496.514515163814 195.124977101229 342.15011883908
v -491.855613752577 202.220259756255 336.313108267224
v 490.127500248779 202.220259727174 300.565417269034
v 494.737934499016 194.703879898801 306.401345438571
v 359.528826640599 69.2535915698867 411.527792910543
cstype bspline
deg 1
curv 0 9 237 238 239 240 241 242 243 244 245
parm u 0 0 1 2 3 4 5 6 7 8
end
v 355.527036501058 69.1335289960463 406.647906733859
v 355.527036501058 69.1335289960463 406.647906733859
v -414.42514837339 106.937287994773 404.48088059407
v -414.42514837339 106.937287994773 404.48088059407
v -491.734323813653 194.939062694764 337.003136826916
v -487.075422402417 202.034345349789 331.16612625506
v 486.054735640993 202.03434532097 295.740714458509
v 490.66516989123 194.517965492598 301.576642628046
v 355.527036501058 69.1335289960463 406.647906733859
cstype bspline
deg 1
curv 0 9 246 247 248 249 250 251 252 253 254
parm u 0 0 1 2 3 4 5 6 7 8
end
v 460.885705617467 49.2024351452718 9.27971881607611
v 362.73013861974 68.974074344127 399.82605934492
v 367.38064796266 76.5386757807297 405.422980271872
v 503.339969910721 202.685043942989 299.713204822823
v 503.339969910721 202.685043942989 299.713204822823
v 588.565820334892 202.685044433296 9.27971881607635
v 460.885705617467 49.2024351452718 9.27971881607611
cstype bspline
deg 1
curv 0 7 255 256 257 258 259 260 261
parm u 0 0 1 2 3 4 5 6
end
v 455.865690535236 49.57973188244 9.27971881607617
v 358.987152980066 69.0941369156044 394.744949930603
v 363.637662322986 76.6587383522071 400.341870857555
v 499.667958743037 202.870958357104 294.576912024328
v 499.667958743037 202.870958357104 294.576912024328
v 583.386596869488 202.870958838737 9.27971881607622
v 455.865690535236 49.57973188244 9.27971881607617
cstype bspline
deg 1
curv 0 7 262 263 264 265 266 267 268
parm u 0 0 1 2 3 4 5 6
end
v -476.364627030357 128.702195200648 9.27971881607638
v -421.874339447118 109.311028656295 400.445626944343
v -425.612028255307 101.772697164692 405.669058007696
v -514.828400588969 -22.1242112343796 327.798332014023
v -514.828400588969 -22.1242112343796 327.798332014023
v -568.884560807871 -22.1242101926433 9.27971881607616
v -476.364627030357 128.702195200648 9.27971881607638
cstype bspline
deg 1
curv 0 7 269 270 271 272 273 274 275
parm u 0 0 1 2 3 4 5 6
end
v -471.449012207613 128.986114743481 9.27971881607623
v -417.549018109296 109.805012777309 396.208125229222
v -421.286706917484 102.266681285706 401.431556292575
v -510.615035081763 -21.7857028509247 323.4631118916
v -510.615035081763 -21.7857028509247 323.4631118916
v -563.935460107145 -21.785701823367 9.27971881607614
v -471.449012207613 128.986114743481 9.27971881607623
cstype bspline
deg 1
curv 0 7 276 277 278 279 280 281 282
parm u 0 0 1 2 3 4 5 6
end
v 423.185607344261 -15.3598387006056 362.399216494062
v 418.398623031194 -22.9704825453524 357.638383353845
v -504.856631375512 -22.9704839270631 327.61059206755
v -509.926839638842 -15.3172810429603 332.076583769122
v -421.417919053616 107.597170741892 409.329822527245
v -421.417919053616 107.597170741892 409.329822527245
v 359.996838396342 69.2306126137356 411.52910825186
v 359.996838396342 69.2306126137356 411.52910825186
v 423.185607344261 -15.3598387006056 362.399216494062
cstype bspline
deg 1
curv 0 9 283 284 285 286 287 288 289 290 291
parm u 0 0 1 2 3 4 5 6 7 8
end
v 419.707648037876 -15.6983470871921 357.404187414029
v 414.920663724807 -23.3089909319384 352.643354273812
v -501.130775831811 -23.3089923028671 322.849858592936
v -506.200984095142 -15.6557894187639 327.315850294508
v -417.804019340401 107.103186630566 404.471370648127
v -417.804019340401 107.103186630566 404.471370648127
v 356.369431982734 69.092168233121 406.650275773281
v 356.369431982734 69.092168233121 406.650275773281
v 419.707648037876 -15.6983470871921 357.404187414029
cstype bspline
deg 1
curv 0 9 292 293 294 295 296 297 298 299 300
parm u 0 0 1 2 3 4 5 6 7 8
end
v 505.053488238053 -22.1242129685392 9.27971881607619
v 428.238556776578 -22.1242133118975 358.470468377414
v 428.238556776578 -22.1242133118975 358.470468377414
v 365.869087995849 61.3694715169476 406.963386342584
v 362.489100952904 69.0226270019214 400.785113463058
v 460.8857094838 49.2024348546842 9.27971881607593
v 505.053488238053 -22.1242129685392 9.27971881607619
cstype bspline
deg 1
curv 0 7 301 302 303 304 305 306 307
parm u 0 0 1 2 3 4 5 6
end
v 500.05749211157 -21.7857045857584 9.27971881607615
v 424.254868297099 -21.7857049245915 353.868648661937
v 424.254868297099 -21.7857049245915 353.868648661937
v 362.034846584103 61.5079158886956 402.245369960092
v 358.654859541158 69.1610713736691 396.067097080566
v 455.865694344853 49.5797315961153 9.27971881607627
v 500.05749211157 -21.7857045857584 9.27971881607615
cstype bspline
deg 1
curv 0 7 308 309 310 311 312 313 314
parm u 0 0 1 2 3 4 5 6
end
v -568.884562391825 -22.1242103009824 9.27971881607611
v -515.033219531557 -22.1242114672038 326.591484493249
v -515.033219531557 -22.1242114672038 326.591484493249
v -396.553909773436 -144.559778824418 430.003753590083
v -391.414692529123 -151.863353968019 424.809956145511
v -444.977646987254 -172.433825233915 9.27971881607611
v -568.884562391825 -22.1242103009824 9.27971881607611
cstype bspline
deg 1
curv 0 7 315 316 317 318 319 320 321
parm u 0 0 1 2 3 4 5 6
end
v -563.935461731193 -21.7857019344487 9.2797188160761
v -510.983711017314 -21.7857030811882 321.29075925225
v -510.983711017314 -21.7857030811882 321.29075925225
v -392.540238984264 -144.184236021079 424.671748115636
v -387.40102173995 -151.487811164681 419.477950671063
v -440.276666489328 -171.794326030903 9.27971881607611
v -563.935461731193 -21.7857019344487 9.2797188160761
cstype bspline
deg 1
curv 0 7 322 323 324 325 326 327 328
parm u 0 0 1 2 3 4 5 6
end
v 333.47607058772 -116.784313966793 431.161412422203
v 333.47607058772 -116.784313966793 431.161412422203
v -389.100301146274 -152.262287182431 436.509502802
v -389.100301146274 -152.262287182431 436.509502802
v -507.130725006855 -30.290564686754 333.488975651453
v -502.304763877605 -22.9704841270524 327.693585617311
v 415.858536721466 -22.9704828949026 357.555765047737
v 420.329405685997 -30.2641584163938 363.63205218803
v 333.47607058772 -116.784313966793 431.161412422203
cstype bspline
deg 1
curv 0 9 329 330 331 332 333 334 335 336 337
parm u 0 0 1 2 3 4 5 6 7 8
end
v 328.506718004944 -117.636602820181 426.535659873298
v 328.506718004944 -117.636602820181 426.535659873298
v -384.35981442139 -152.637830002652 431.811883665396
v -384.35981442139 -152.637830002652 431.811883665396
v -502.426076023568 -30.6290730633984 328.760076249047
v -497.600114894318 -23.3089925036968 322.964686214906
v 411.404943114872 -23.3089912838368 352.529004596744
v 415.875812079402 -30.6026668053281 358.605291737036
v 328.506718004944 -117.636602820181 426.535659873298
cstype bspline
deg 1
curv 0 9 338 339 340 341 342 343 344 345 346
parm u 0 0 1 2 3 4 5 6 7 8
end
v 445.804006392791 -93.3242172788522 9.2797188160762
v 338.833570746256 -114.030575307599 417.22401629157
v 343.498837577609 -106.800007070924 423.36863213528
v 428.500709298231 -22.1242140573025 357.278806988277
v 428.500709298231 -22.1242140573025 357.278806988277
v 505.053494312668 -22.1242133801306 9.27971881607605
v 445.804006392791 -93.3242172788522 9.2797188160762
cstype bspline
deg 1
curv 0 7 347 348 349 350 351 352 353
parm u 0 0 1 2 3 4 5 6
end
v 440.983976041136 -92.7742512663281 9.27971881607619
v 335.575360118996 -113.178286525288 411.267833665931
v 340.240626950349 -105.947718288613 417.412449509641
v 424.726739754285 -21.7857056705352 351.723632198493
v 424.726739754285 -21.7857056705352 351.723632198493
v 500.057498286893 -21.7857050041732 9.27971881607636
v 440.983976041136 -92.7742512663281 9.27971881607619
cstype bspline
deg 1
curv 0 7 354 355 356 357 358 359 360
parm u 0 0 1 2 3 4 5 6
end
v -444.977660957836 -172.433827134407 9.27971881607606
v -391.026329224664 -151.714203510369 427.822869537413
v -393.693095779635 -158.969154803941 433.624382080598
v -437.448547051154 -246.63291095068 395.433320654105
v -437.448547051154 -246.63291095068 395.433320654105
v -478.570199329396 -246.632910851803 9.27971881607617
v -444.977660957836 -172.433827134407 9.27971881607606
cstype bspline
deg 1
curv 0 7 361 362 363 364 365 366 367
parm u 0 0 1 2 3 4 5 6
end
v -440.276680454868 -171.794327930709 9.27971881607647
v -386.882099962259 -151.288520644211 423.503709826124
v -389.54886651723 -158.543471937783 429.305222369309
v -433.151651393589 -245.901361975309 391.247412720732
v -433.151651393589 -245.901361975309 391.247412720732
v -473.827544653435 -245.901361877506 9.27971881607612
v -440.276680454868 -171.794327930709 9.27971881607647
cstype bspline
deg 1
curv 0 7 368 369 370 371 372 373 374
parm u 0 0 1 2 3 4 5 6
end
v 410.740823050563 -240.647682222157 373.094641067637
v 405.622627352901 -248.46178011573 369.726345593658
v -429.88915627327 -248.461784099966 394.386496979728
v -434.834589748952 -241.395880635737 397.714844556721
v -390.376793862852 -152.324961676881 436.518953476771
v -390.376793862852 -152.324961676881 436.518953476771
v 336.0826815576 -116.656330026293 431.142129319822
v 336.0826815576 -116.656330026293 431.142129319822
v 410.740823050563 -240.647682222157 373.094641067637
cstype bspline
deg 1
curv 0 9 375 376 377 378 379 380 381 382 383
parm u 0 0 1 2 3 4 5 6 7 8
end
v 407.845698859639 -241.379231252898 368.462047071381
v 402.727503161978 -249.193329146471 365.093751597403
v -426.322533813395 -249.193333099897 389.563184367943
v -431.267967289078 -242.127429635669 392.891531944936
v -386.657505041396 -152.750644566051 431.828892682926
v -386.657505041396 -152.750644566051 431.828892682926
v 333.198608810722 -117.406233163674 426.50094270987
v 333.198608810722 -117.406233163674 426.50094270987
v 407.845698859639 -241.379231252898 368.462047071381
cstype bspline
deg 1
curv 0 9 384 385 386 387 388 389 390 391 392
parm u 0 0 1 2 3 4 5 6 7 8
end
v 517.588958734855 -246.632908336512 9.27971881607615
v 414.344685721513 -246.632912108618 370.292627760486
v 414.344685721513 -246.632912108618 370.292627760486
v 339.289911502527 -121.982871433085 428.648459338919
v 337.248277397039 -114.337439581804 423.269689765941
v 445.804008515429 -93.3242175210458 9.2797188160763
v 517.588958734855 -246.632908336512 9.27971881607615
cstype bspline
deg 1
curv 0 7 393 394 395 396 397 398 399
parm u 0 0 1 2 3 4 5 6
end
v 512.683904241452 -245.901359329061 9.27971881607611
v 410.568595232355 -245.901363059918 366.344993985054
v 410.568595232355 -245.901363059918 366.344993985054
v 335.502769595818 -121.232968326812 424.70941815028
v 333.46113549033 -113.58753647553 419.330648577303
v 440.98397807 -92.7742514978217 9.27971881607662
v 512.683904241452 -245.901359329061 9.27971881607611
cstype bspline
deg 1
curv 0 7 400 401 402 403 404 405 406
parm u 0 0 1 2 3 4 5 6
end
v -478.570208393044 -246.632912249859 9.27971881607612
v -437.710097635958 -246.632912325429 392.977309000835
v -437.710097635958 -246.632912325429 392.977309000835
v -348.369915223512 -336.530437136771 470.956073757233
v -342.782669882008 -343.407051954849 465.213477829227
v -411.741597420182 -320.7692522681 9.2797188160762
v -478.570208393044 -246.632912249859 9.27971881607612
cstype bspline
deg 1
curv 0 7 407 408 409 410 411 412 413
parm u 0 0 1 2 3 4 5 6
end
v -473.827553719223 -245.901363275894 9.27971881607612
v -433.62243611037 -245.901363350251 386.826584298713
v -433.62243611037 -245.901363350251 386.826584298713
v -344.930982152246 -335.146112660779 464.239119591899
v -339.343736810742 -342.022727478857 458.496523663893
v -407.286740552076 -319.718434710359 9.27971881607609
v -473.827553719223 -245.901363275894 9.27971881607612
cstype bspline
deg 1
curv 0 7 414 415 416 417 418 419 420
parm u 0 0 1 2 3 4 5 6
end
v 259.044370006835 -376.764315889821 489.107998469721
v 259.044370006835 -376.764315889821 489.107998469721
v -337.492900978788 -347.475321038408 480.449883288238
v -337.492900978788 -347.475321038408 480.449883288238
v -429.021569280849 -255.375627286327 400.56088218953
v -424.452969221244 -248.461784379344 394.226045812611
v 399.770827919183 -248.461781153114 369.899055091155
v 404.226937167994 -255.665037316495 376.227058490463
v 259.044370006835 -376.764315889821 489.107998469721
cstype bspline
deg 1
curv 0 9 421 422 423 424 425 426 427 428 429
parm u 0 0 1 2 3 4 5 6 7 8
end
v 253.963545013445 -377.595241153802 484.629031227494
v 253.963545013445 -377.595241153802 484.629031227494
v -331.302483830375 -348.859645677607 476.134506348659
v -331.302483830375 -348.859645677607 476.134506348659
v -423.479880515626 -256.107176281238 395.679275417482
v -418.91128045602 -249.193333374255 389.344439040564
v 394.809142329916 -249.193330189141 365.327455736203
v 399.265251578727 -256.396586352522 371.655459135511
v 253.963545013445 -377.595241153802 484.629031227494
cstype bspline
deg 1
curv 0 9 430 431 432 433 434 435 436 437 438
parm u 0 0 1 2 3 4 5 6 7 8
end
v 375.716242918525 -398.808584057563 9.27971881607614
v 264.35573382964 -375.282948181778 475.364886675415
v 269.548207849476 -368.002864702415 480.941108904211
v 415.055286624974 -246.632911868957 367.807873797356
v 415.055286624974 -246.632911868957 367.807873797356
v 517.588956347134 -246.632907980404 9.27971881607614
v 375.716242918525 -398.808584057563 9.27971881607614
cstype bspline
deg 1
curv 0 7 439 440 441 442 443 444 445
parm u 0 0 1 2 3 4 5 6
end
v 371.187501607868 -397.673393620635 9.27971881607611
v 261.267255661091 -374.452022753367 469.336849502782
v 266.459729680927 -367.171939274005 474.913071731578
v 411.847668883343 -245.901362804143 361.872468855716
v 411.847668883343 -245.901362804143 361.872468855716
v 512.683901900745 -245.901358979965 9.27971881607623
v 371.187501607868 -397.673393620635 9.27971881607611
cstype bspline
deg 1
curv 0 7 446 447 448 449 450 451 452
parm u 0 0 1 2 3 4 5 6
end
v -411.741625405716 -320.769258869364 9.27971881607604
v -341.250526689814 -343.910032641483 475.343616766433
v -342.026516998491 -349.713540414904 479.756185647836
v -378.58538365638 -470.902062998342 447.846512833003
v -378.58538365638 -470.902062998342 447.846512833003
v -450.545832347674 -470.902063185969 9.27971881607616
v -411.741625405716 -320.769258869364 9.27971881607604
cstype bspline
deg 1
curv 0 7 453 454 455 456 457 458 459
parm u 0 0 1 2 3 4 5 6
end
v -407.286768461365 -319.718441293639 9.27971881607627
v -337.356672709115 -342.675049363932 471.634450179973
v -338.132663017792 -348.478557137353 476.047019061376
v -374.667024690771 -469.585848457667 444.158734930668
v -374.667024690771 -469.585848457667 444.158734930668
v -446.022379343603 -469.585848643718 9.2797188160762
v -407.286768461365 -319.718441293639 9.27971881607627
cstype bspline
deg 1
curv 0 7 460 461 462 463 464 465 466
parm u 0 0 1 2 3 4 5 6
end
v 290.555659115085 -467.990032118483 466.683972068369
v 285.840819140574 -474.192596593501 464.973901306964
v -372.917476329761 -474.192601819277 447.160204522366
v -377.712048911751 -468.007056227659 448.608785849794
v -341.295003290768 -347.288649990332 480.394675703406
v -341.295003290768 -347.288649990332 480.394675703406
v 261.665919815037 -376.89303626911 489.146020561442
v 261.665919815037 -376.89303626911 489.146020561442
v 290.555659115085 -467.990032118483 466.683972068369
cstype bspline
deg 1
curv 0 9 467 468 469 470 471 472 473 474 475
parm u 0 0 1 2 3 4 5 6 7 8
end
v 287.693336877583 -469.306246657783 462.141175262933
v 282.978496903071 -475.508811132801 460.431104501529
v -369.793240669551 -475.508816311079 442.779292171232
v -374.587813251542 -469.323270719461 444.227873498659
v -338.146262681432 -348.523633334676 476.03515200696
v -338.146262681432 -348.523633334676 476.03515200696
v 258.68235263916 -377.826933421136 484.697492854706
v 258.68235263916 -377.826933421136 484.697492854706
v 287.693336877583 -469.306246657783 462.141175262933
cstype bspline
deg 1
curv 0 9 476 477 478 479 480 481 482 483 484
parm u 0 0 1 2 3 4 5 6 7 8
end
v 394.566721819082 -470.902061887868 9.2797188160762
v 291.479155458146 -470.902066732415 465.965940793885
v 291.479155458146 -470.902066732415 465.965940793885
v 263.105939835779 -381.433751330458 488.026423475795
v 262.645304225576 -374.921609689581 482.523771747193
v 375.716253310186 -398.808586662373 9.27971881607607
v 394.566721819082 -470.902061887868 9.2797188160762
cstype bspline
deg 1
curv 0 7 485 486 487 488 489 490 491
parm u 0 0 1 2 3 4 5 6
end
v 389.990647656636 -469.585847333651 9.27971881607612
v 287.782006839323 -469.585852136897 462.072229844187
v 287.782006839323 -469.585852136897 462.072229844187
v 259.530036057055 -380.499854049243 484.038443348752
v 259.069400446853 -373.987712408366 478.53579162015
v 371.187511994253 -397.673396224123 9.27971881607629
v 389.990647656636 -469.585847333651 9.27971881607612
cstype bspline
deg 1
curv 0 7 492 493 494 495 496 497 498
parm u 0 0 1 2 3 4 5 6
end
v -450.545841735712 -470.90206591766 9.27971881607597
v -379.308940887691 -470.902066045164 443.436818458133
v -379.308940887691 -470.902066045164 443.436818458133
v -232.698022295206 -585.821496013565 571.403192757738
v -226.298783331766 -592.435582187111 566.342469638763
v -287.634385404343 -619.943416712958 9.27971881607619
v -450.545841735712 -470.90206591766 9.27971881607597
cstype bspline
deg 1
curv 0 7 499 500 501 502 503 504 505
parm u 0 0 1 2 3 4 5 6
end
v -446.022388822675 -469.585851401897 9.279718816076
v -375.969425117473 -469.585851527277 436.221250262864
v -375.969425117473 -469.585851527277 436.221250262864
v -229.508944190371 -584.387362510415 564.056318089665
v -223.109705226931 -591.001448683961 558.995594970689
v -283.636376922356 -618.146493537809 9.27971881607622
v -446.022388822675 -469.585851401897 9.279718816076
cstype bspline
deg 1
curv 0 7 506 507 508 509 510 511 512
parm u 0 0 1 2 3 4 5 6
end
v 149.820933258638 -577.260108121023 572.508976815501
v 149.820933258638 -577.260108121023 572.508976815501
v -220.427834457652 -595.439346931911 582.112959821505
v -220.427834457652 -595.439346931911 582.112959821505
v -366.744227950193 -480.75075208894 454.403590687909
v -362.218334084296 -474.192603394741 447.449517865999
v 275.119995272071 -474.192600000924 464.683984759141
v 279.250329905268 -480.75460764833 471.876297375258
v 149.820933258638 -577.260108121023 572.508976815501
cstype bspline
deg 1
curv 0 9 513 514 515 516 517 518 519 520 521
parm u 0 0 1 2 3 4 5 6 7 8
end
v 142.275248156993 -579.400988423382 568.729377357147
v 142.275248156993 -579.400988423382 568.729377357147
v -213.579504155554 -596.873480132621 577.959990101372
v -213.579504155554 -596.873480132621 577.959990101372
v -360.046334955115 -482.066966559278 450.1193147408
v -355.520441089217 -475.50881786508 443.165241918889
v 268.680319584361 -475.508814541214 460.044451671385
v 272.810654217557 -482.07082218862 467.236764287501
v 142.275248156993 -579.400988423382 568.729377357147
cstype bspline
deg 1
curv 0 9 522 523 524 525 526 527 528 529 530
parm u 0 0 1 2 3 4 5 6 7 8
end
v 314.324809138273 -543.468117321535 9.27971881607624
v 160.787623149971 -571.223031499536 553.499260709732
v 166.503134789487 -564.821462758617 559.538348415428
v 292.464148448569 -470.902068861389 461.602376015282
v 292.464148448569 -470.902068861389 461.602376015282
v 394.566732681167 -470.902065012124 9.27971881607625
v 314.324809138273 -543.468117321535 9.27971881607624
cstype bspline
deg 1
curv 0 7 531 532 533 534 535 536 537
parm u 0 0 1 2 3 4 5 6
end
v 310.195691997283 -541.747701332835 9.27971881607624
v 158.984467024058 -569.082151582577 545.25478605729
v 164.699978663575 -562.680582841659 551.293873762986
v 289.554983488204 -469.585854262368 454.21783450833
v 289.554983488204 -469.585854262368 454.21783450833
v 389.990658581424 -469.585850475944 9.27971881607593
v 310.195691997283 -541.747701332835 9.27971881607624
cstype bspline
deg 1
curv 0 7 538 539 540 541 542 543 544
parm u 0 0 1 2 3 4 5 6
end
v -287.634363889423 -619.943407042978 9.279718816076
v -225.341274129639 -592.006157769002 575.038686053566
v -224.438111211354 -598.826326275306 582.264500327516
v -223.015187203417 -684.563745389013 583.506429150298
v -220.385789118087 -695.924369047621 569.380024073718
v -286.506438054414 -695.186521857461 9.27971881607626
v -287.634363889423 -619.943407042978 9.279718816076
cstype bspline
deg 1
curv 0 7 545 546 547 548 549 550 551
parm u 0 0 1 2 3 4 5 6
end
v -283.636355393131 -618.146483861404 9.27971881607614
v -221.796330053493 -590.412425241348 570.923859522702
v -220.893167142829 -597.232593690111 578.149673735687
v -219.425536786319 -685.665140317495 579.430668366115
v -220.139943584951 -693.297855714139 571.953135867839
v -282.509804884256 -693.297851666527 9.2797188160761
v -283.636355393131 -618.146483861404 9.27971881607614
cstype bspline
deg 1
curv 0 7 552 553 554 555 556 557 558
parm u 0 0 1 2 3 4 5 6
end
v 150.163879724498 -686.801608715453 570.131194445685
v 152.099466965114 -589.098742190504 568.626245190164
v 142.123777922708 -579.408425934386 568.733283499188
v -205.916241257043 -596.497225481993 577.761183568305
v -220.644286874613 -612.228955564229 578.366904379487
v -219.406693914809 -686.800523696529 579.447115025942
v -204.16257699827 -701.796885666554 579.286353790458
v 134.871572235521 -701.796887834975 570.740162875588
v 150.163879724498 -686.801608715453 570.131194445685
cstype bspline
deg 1
curv 0 9 559 560 561 562 563 564 565 566 567
parm u 0 0 1 2 3 4 5 6 7 8
end
v 153.252862439644 -684.9129385291 574.026895191603
v 155.189111728529 -587.176653717007 572.521431184697
v 145.213423302262 -577.486337162478 572.628492263436
v -209.514084695535 -594.903493191433 581.829837965552
v -224.242130313105 -610.635223273669 582.435558776734
v -223.009432156048 -684.911853467368 583.511497083084
v -207.765315239509 -699.908215437394 583.3507358476
v 137.960554950667 -699.908217648622 574.635863621506
v 153.252862439644 -684.9129385291 574.026895191603
cstype bspline
deg 1
curv 0 9 568 569 570 571 572 573 574 575 576
parm u 0 0 1 2 3 4 5 6 7 8
end
v 307.850076136682 -693.297860269606 9.2797188160761
v 151.795053672759 -693.297850687642 563.975812771714
v 150.163879724498 -686.801608715453 570.131194445685
v 152.175620892912 -585.25456251338 568.567032478928
v 156.540665455451 -569.523916152649 553.916943650009
v 310.195703825609 -541.747706261163 9.27971881607622
v 307.850076136682 -693.297860269606 9.2797188160761
cstype bspline
deg 1
curv 0 7 577 578 579 580 581 582 583
parm u 0 0 1 2 3 4 5 6
end
v 311.97658913521 -695.186530475942 9.2797188160761
v 154.809191953553 -695.186520645645 567.929693515044
v 153.178031778145 -688.690287707414 574.085070047678
v 155.189108676455 -587.176650752242 572.521431217445
v 159.554153238994 -571.446004391511 557.871342388528
v 314.324820989944 -543.46812225959 9.27971881607622
v 311.97658913521 -695.186530475942 9.2797188160761
cstype bspline
deg 1
curv 0 7 584 585 586 587 588 589 590
parm u 0 0 1 2 3 4 5 6
end
v -286.506436565189 -695.186521153705 9.27971881607612
v -223.453415143369 -695.186524855948 578.116298146997
v -223.453415143369 -695.186524855948 578.116298146997
v -155.880517701672 -746.08076878024 637.095938525358
v -237.018675207682 -736.451881149391 9.27971881607636
v -286.506436565189 -695.186521153705 9.27971881607612
cstype bspline
deg 1
curv 0 6 591 592 593 594 595 596
parm u 0 0 1 2 3 4 5
end
v -282.509803398325 -693.297850964328 9.27971881607622
v -220.404984395383 -693.297854610879 569.56203368344
v -220.404984395383 -693.297854610879 569.56203368344
v -149.28531554247 -746.863439504418 631.637401938782
v -229.718018828912 -737.31827006015 9.27971881607619
v -282.509803398325 -693.297850964328 9.27971881607622
cstype bspline
deg 1
curv 0 6 597 598 599 600 601 602
parm u 0 0 1 2 3 4 5
end
v -155.880617647563 -746.080756919387 637.096021245822
v -209.020296059437 -706.057251728681 590.714106835492
v -204.728755959238 -699.908208110739 583.274207346
v 133.12645687272 -699.908209344364 574.757736378235
v 137.234583980257 -706.158713386768 582.106876403084
v 37.5751741768391 -769.038686188069 659.593037057309
v -155.880617647563 -746.080756919387 637.096021245822
cstype bspline
deg 1
curv 0 7 603 604 605 606 607 608 609
parm u 0 0 1 2 3 4 5 6
end
v -149.2854155881 -746.863427631729 631.637484741764
v -200.956645431094 -707.945921962951 586.537276541808
v -196.665105330896 -701.79687834501 579.097377052316
v 125.385733523857 -701.796879520909 570.979294172185
v 129.493860631394 -708.047383563313 578.328434197034
v 33.5793852293845 -768.564494957281 652.90287192175
v -149.2854155881 -746.863427631729 631.637484741764
cstype bspline
deg 1
curv 0 7 610 611 612 613 614 615 616
parm u 0 0 1 2 3 4 5 6
end
v 197.09078900394 -787.968841589024 9.27971881607659
v 37.5752029697376 -769.038689605001 659.593085265437
v 154.624558231204 -695.186518934322 568.585959072989
v 154.624558231204 -695.186518934322 568.585959072989
v 311.976579742225 -695.186526176853 9.27971881607603
v 197.09078900394 -787.968841589024 9.27971881607659
cstype bspline
deg 1
curv 0 6 617 618 619 620 621 622
parm u 0 0 1 2 3 4 5
end
v 191.453966668255 -787.299904426366 9.27971881607638
v 33.5794136572567 -768.564498330894 652.902919518652
v 152.870596525501 -693.297848830654 560.152748373454
v 152.870596525501 -693.297848830654 560.152748373454
v 307.850066729405 -693.297855963975 9.27971881607614
v 191.453966668255 -787.299904426366 9.27971881607638
cstype bspline
deg 1
curv 0 6 623 624 625 626 627 628
parm u 0 0 1 2 3 4 5
end
