# type_plates_name_joint_linking_vidychapel_corner.xml
v -1102.29981763999 -801.603994135349 -5.32309829281985e-06
v -1502.29981763999 -801.603994135349 -5.32309829281985e-06
v -1502.29981763999 -801.603994135349 221.415819567038
v -1102.29981763999 -801.603994135349 221.415819567038
v -1102.29981763999 -801.603994135349 -5.32309829281985e-06
cstype bspline
deg 1
curv 0 5 1 2 3 4 5
parm u 0 0 1 2 3 4
end
v -1102.29981763999 -789.603994369507 -5.32309829281985e-06
v -1502.29981763999 -789.603994369507 -5.32309829281985e-06
v -1502.29981763999 -789.603994369507 202.579588335349
v -1102.29981763999 -789.603994369507 202.579588335349
v -1102.29981763999 -789.603994369507 -5.32309829281985e-06
cstype bspline
deg 1
curv 0 5 6 7 8 9 10
parm u 0 0 1 2 3 4
end
v -1102.29981521836 -801.603996568962 221.415817638746
v -1502.29981521836 -801.603996568962 221.415817638746
v -1502.29981521836 -600.933117212467 127.841449826115
v -1102.29981521836 -600.933117212467 127.841449826115
v -1102.29981521836 -801.603996568962 221.415817638746
cstype bspline
deg 1
curv 0 5 11 12 13 14 15
parm u 0 0 1 2 3 4
end
v -1102.29981521836 -789.603995993602 202.579590640887
v -1502.29981521836 -789.603995993602 202.579590640887
v -1502.29981521836 -606.004536195002 116.965756578136
v -1102.29981521836 -606.004536195002 116.965756578136
v -1102.29981521836 -789.603995993602 202.579590640887
cstype bspline
deg 1
curv 0 5 16 17 18 19 20
parm u 0 0 1 2 3 4
end
v -1102.29980377822 -44.7268169559739 9.09276508309631e-07
v -1502.29980377822 -44.7268169559739 9.09276508309631e-07
v -1502.29980377822 -44.7268169559742 214.579590753027
v -1102.29980377822 -44.7268169559742 214.579590753027
v -1102.29980377822 -44.7268169559739 9.09276508309631e-07
cstype bspline
deg 1
curv 0 5 21 22 23 24 25
parm u 0 0 1 2 3 4
end
v -1102.29980377822 -32.7268171310423 9.09276508309631e-07
v -1502.29980377822 -32.7268171310423 9.09276508309631e-07
v -1502.29980377822 -32.7268171310425 202.579590753027
v -1102.29980377822 -32.7268171310425 202.579590753027
v -1102.29980377822 -32.7268171310423 9.09276508309631e-07
cstype bspline
deg 1
curv 0 5 26 27 28 29 30
parm u 0 0 1 2 3 4
end
v -1102.29980428107 -44.7268195856382 214.579589578524
v -1502.29980428107 -44.7268195856382 214.579589578524
v -1502.29980428107 169.852770258112 214.579589578524
v -1102.29980428107 169.852770258112 214.579589578524
v -1102.29980428107 -44.7268195856382 214.579589578524
cstype bspline
deg 1
curv 0 5 31 32 33 34 35
parm u 0 0 1 2 3 4
end
v -1102.29980428107 -32.7268195856382 202.57958984375
v -1502.29980428107 -32.7268195856382 202.57958984375
v -1502.29980428107 169.852770258112 202.57958984375
v -1102.29980428107 169.852770258112 202.57958984375
v -1102.29980428107 -32.7268195856382 202.57958984375
cstype bspline
deg 1
curv 0 5 36 37 38 39 40
parm u 0 0 1 2 3 4
end
v -1102.29981555645 712.150360223401 4.38984147876909e-06
v -1502.29981555645 712.150360223401 4.38984147876909e-06
v -1502.29981555645 712.150360223401 210.224430659373
v -1102.29981555645 712.150360223401 210.224430659373
v -1102.29981555645 712.150360223401 4.38984147876909e-06
cstype bspline
deg 1
curv 0 5 41 42 43 44 45
parm u 0 0 1 2 3 4
end
v -1102.29981555645 724.150360107422 4.38984147876909e-06
v -1502.29981555645 724.150360107422 4.38984147876909e-06
v -1502.29981555645 724.150360107422 202.579590418894
v -1102.29981555645 724.150360107422 202.579590418894
v -1102.29981555645 724.150360107422 4.38984147876909e-06
cstype bspline
deg 1
curv 0 5 46 47 48 49 50
parm u 0 0 1 2 3 4
end
v -1102.29981709328 712.150366276426 210.224435530786
v -1502.29981709328 712.150366276426 210.224435530786
v -1502.29981709328 902.678400829815 299.069117136251
v -1102.29981709328 902.678400829815 299.069117136251
v -1102.29981709328 712.150366276426 210.224435530786
cstype bspline
deg 1
curv 0 5 51 52 53 54 55
parm u 0 0 1 2 3 4
end
v -1102.29981709328 724.150360347017 202.579589110827
v -1502.29981709328 724.150360347017 202.579589110827
v -1502.29981709328 907.749819742577 288.1934240379
v -1102.29981709328 907.749819742577 288.1934240379
v -1102.29981709328 724.150360347017 202.579589110827
cstype bspline
deg 1
curv 0 5 56 57 58 59 60
parm u 0 0 1 2 3 4
end
v -302.299817639993 -801.603994135349 -5.32309829281985e-06
v -702.299817639993 -801.603994135349 -5.32309829281985e-06
v -702.299817639993 -801.603994135349 221.415819567038
v -302.299817639993 -801.603994135349 221.415819567038
v -302.299817639993 -801.603994135349 -5.32309829281985e-06
cstype bspline
deg 1
curv 0 5 61 62 63 64 65
parm u 0 0 1 2 3 4
end
v -302.299817639993 -789.603994369507 -5.32309829281985e-06
v -702.299817639993 -789.603994369507 -5.32309829281985e-06
v -702.299817639993 -789.603994369507 202.579588335349
v -302.299817639993 -789.603994369507 202.579588335349
v -302.299817639993 -789.603994369507 -5.32309829281985e-06
cstype bspline
deg 1
curv 0 5 66 67 68 69 70
parm u 0 0 1 2 3 4
end
v -302.299809415434 -600.933117212467 127.841449826115
v -302.299809415434 -801.603996568962 221.415817638746
v -702.299809415434 -801.603996568962 221.415817638746
v -702.299809415434 -600.933117212467 127.841449826115
v -302.299809415434 -600.933117212467 127.841449826115
cstype bspline
deg 1
curv 0 5 71 72 73 74 75
parm u 0 0 1 2 3 4
end
v -302.299809415434 -606.004536195002 116.965756578136
v -302.299809415434 -789.603995993602 202.579590640887
v -702.299809415434 -789.603995993602 202.579590640887
v -702.299809415434 -606.004536195002 116.965756578136
v -302.299809415434 -606.004536195002 116.965756578136
cstype bspline
deg 1
curv 0 5 76 77 78 79 80
parm u 0 0 1 2 3 4
end
v -302.299816441854 -881.603994135349 346.990665746054
v -302.299816441854 -881.603994135349 -3.50443474417261e-06
v -702.299816441854 -881.603994135349 -3.50443474417261e-06
v -702.299816441854 -881.603994135349 346.990665746054
v -302.299816441854 -881.603994135349 346.990665746054
cstype bspline
deg 1
curv 0 5 81 82 83 84 85
parm u 0 0 1 2 3 4
end
v -302.299816441854 -869.603994369507 328.154438329061
v -302.299816441854 -869.603994369506 -3.50443474417261e-06
v -702.299816441854 -869.603994369506 -3.50443474417261e-06
v -702.299816441854 -869.603994369507 328.154438329061
v -302.299816441854 -869.603994369507 328.154438329061
cstype bspline
deg 1
curv 0 5 86 87 88 89 90
parm u 0 0 1 2 3 4
end
v -302.299817142491 -567.123655044299 200.346072215996
v -302.299817142491 -881.604000615075 346.990665694879
v -702.299817142491 -881.604000615075 346.990665694879
v -702.299817142491 -567.123655044299 200.346072215996
v -302.299817142491 -567.123655044299 200.346072215996
cstype bspline
deg 1
curv 0 5 91 92 93 94 95
parm u 0 0 1 2 3 4
end
v -302.299817142491 -572.195073982286 189.470379063551
v -302.299817142491 -869.604000262682 328.154438218866
v -702.299817142491 -869.604000262682 328.154438218866
v -702.299817142491 -572.195073982286 189.470379063551
v -302.299817142491 -572.195073982286 189.470379063551
cstype bspline
deg 1
curv 0 5 96 97 98 99 100
parm u 0 0 1 2 3 4
end
v -302.299803778224 -44.7268169559739 9.09276508309631e-07
v -702.299803778224 -44.7268169559739 9.09276508309631e-07
v -702.299803778224 -44.7268169559742 214.579590753027
v -302.299803778224 -44.7268169559742 214.579590753027
v -302.299803778224 -44.7268169559739 9.09276508309631e-07
cstype bspline
deg 1
curv 0 5 101 102 103 104 105
parm u 0 0 1 2 3 4
end
v -302.299803778224 -32.7268171310423 9.09276508309631e-07
v -702.299803778224 -32.7268171310423 9.09276508309631e-07
v -702.299803778224 -32.7268171310425 202.579590753027
v -302.299803778224 -32.7268171310425 202.579590753027
v -302.299803778224 -32.7268171310423 9.09276508309631e-07
cstype bspline
deg 1
curv 0 5 106 107 108 109 110
parm u 0 0 1 2 3 4
end
v -302.299805093927 169.852770258112 214.579589578524
v -302.299805093927 -44.7268195856382 214.579589578524
v -702.299805093927 -44.7268195856382 214.579589578524
v -702.299805093927 169.852770258112 214.579589578524
v -302.299805093927 169.852770258112 214.579589578524
cstype bspline
deg 1
curv 0 5 111 112 113 114 115
parm u 0 0 1 2 3 4
end
v -302.299805093927 169.852770258112 202.57958984375
v -302.299805093927 -32.7268195856382 202.57958984375
v -702.299805093927 -32.7268195856382 202.57958984375
v -702.299805093927 169.852770258112 202.57958984375
v -302.299805093927 169.852770258112 202.57958984375
cstype bspline
deg 1
curv 0 5 116 117 118 119 120
parm u 0 0 1 2 3 4
end
v -302.299815496489 -124.726816955974 294.579593023345
v -302.299815496489 -124.726816955974 -4.44979991698347e-06
v -702.299815496489 -124.726816955974 -4.44979991698347e-06
v -702.299815496489 -124.726816955974 294.579593023345
v -302.299815496489 -124.726816955974 294.579593023345
cstype bspline
deg 1
curv 0 5 121 122 123 124 125
parm u 0 0 1 2 3 4
end
v -302.299815496489 -112.726817131043 282.579593023345
v -302.299815496489 -112.726817131042 -4.44979991698347e-06
v -702.299815496489 -112.726817131042 -4.44979991698347e-06
v -702.299815496489 -112.726817131043 282.579593023345
v -302.299815496489 -112.726817131043 282.579593023345
cstype bspline
deg 1
curv 0 5 126 127 128 129 130
parm u 0 0 1 2 3 4
end
v -302.299814720187 169.852774162325 294.579589578524
v -302.299814720187 -124.726823310819 294.579589578524
v -702.299814720187 -124.726823310819 294.579589578524
v -702.299814720187 169.852774162325 294.579589578524
v -302.299814720187 169.852774162325 294.579589578524
cstype bspline
deg 1
curv 0 5 131 132 133 134 135
parm u 0 0 1 2 3 4
end
v -302.299814720187 169.852774162325 282.57958984375
v -302.299814720187 -112.726823310819 282.57958984375
v -702.299814720187 -112.726823310819 282.57958984375
v -702.299814720187 169.852774162325 282.57958984375
v -302.299814720187 169.852774162325 282.57958984375
cstype bspline
deg 1
curv 0 5 136 137 138 139 140
parm u 0 0 1 2 3 4
end
v -302.299815556448 712.150360223401 4.38984147876909e-06
v -702.299815556448 712.150360223401 4.38984147876909e-06
v -702.299815556448 712.150360223401 210.224430659373
v -302.299815556448 712.150360223401 210.224430659373
v -302.299815556448 712.150360223401 4.38984147876909e-06
cstype bspline
deg 1
curv 0 5 141 142 143 144 145
parm u 0 0 1 2 3 4
end
v -302.299815556448 724.150360107422 4.38984147876909e-06
v -702.299815556448 724.150360107422 4.38984147876909e-06
v -702.299815556448 724.150360107422 202.579590418894
v -302.299815556448 724.150360107422 202.579590418894
v -302.299815556448 724.150360107422 4.38984147876909e-06
cstype bspline
deg 1
curv 0 5 146 147 148 149 150
parm u 0 0 1 2 3 4
end
v -302.299817093276 712.150366276426 210.224435530786
v -702.299817093276 712.150366276426 210.224435530786
v -702.299817093276 902.678400829815 299.069117136251
v -302.299817093276 902.678400829815 299.069117136251
v -302.299817093276 712.150366276426 210.224435530786
cstype bspline
deg 1
curv 0 5 151 152 153 154 155
parm u 0 0 1 2 3 4
end
v -302.299817093276 724.150360347017 202.579589110827
v -702.299817093276 724.150360347017 202.579589110827
v -702.299817093276 907.749819742577 288.1934240379
v -302.299817093276 907.749819742577 288.1934240379
v -302.299817093276 724.150360347017 202.579589110827
cstype bspline
deg 1
curv 0 5 156 157 158 159 160
parm u 0 0 1 2 3 4
end
v -302.299812092396 632.150360223401 261.19005562267
v -302.299812092396 632.150360223401 7.40489630857155e-06
v -702.299812092396 632.150360223401 7.40489630857155e-06
v -702.299812092396 632.150360223401 261.19005562267
v -302.299812092396 632.150360223401 261.19005562267
cstype bspline
deg 1
curv 0 5 161 162 163 164 165
parm u 0 0 1 2 3 4
end
v -302.299812092396 644.150360107422 253.545211567494
v -302.299812092396 644.150360107422 7.40489630857155e-06
v -702.299812092396 644.150360107422 7.40489630857155e-06
v -702.299812092396 644.150360107422 253.545211567494
v -302.299812092396 644.150360107422 253.545211567494
cstype bspline
deg 1
curv 0 5 166 167 168 169 170
parm u 0 0 1 2 3 4
end
v -302.299808750148 868.868940071724 371.573740183662
v -302.299808750148 632.150365475477 261.190056021897
v -702.299808750148 632.150365475477 261.190056021897
v -702.299808750148 868.868940071724 371.573740183662
v -302.299808750148 868.868940071724 371.573740183662
cstype bspline
deg 1
curv 0 5 171 172 173 174 175
parm u 0 0 1 2 3 4
end
v -302.299808750148 873.940359248986 360.698046518089
v -302.299808750148 644.150359298954 253.545210131875
v -702.299808750148 644.150359298954 253.545210131875
v -702.299808750148 873.940359248986 360.698046518089
v -302.299808750148 873.940359248986 360.698046518089
cstype bspline
deg 1
curv 0 5 176 177 178 179 180
parm u 0 0 1 2 3 4
end
v 497.700194042699 -801.603994135349 -5.08449855374238e-06
v 97.7001940426987 -801.603994135349 -5.08449855374238e-06
v 97.7001940426987 -801.603994135349 221.415819805638
v 497.700194042699 -801.603994135349 221.415819805638
v 497.700194042699 -801.603994135349 -5.08449855374238e-06
cstype bspline
deg 1
curv 0 5 181 182 183 184 185
parm u 0 0 1 2 3 4
end
v 497.700194042699 -789.603994369507 -5.08449855374238e-06
v 97.7001940426987 -789.603994369507 -5.08449855374238e-06
v 97.7001940426987 -789.603994369507 202.579588573949
v 497.700194042699 -789.603994369507 202.579588573949
v 497.700194042699 -789.603994369507 -5.08449855374238e-06
cstype bspline
deg 1
curv 0 5 186 187 188 189 190
parm u 0 0 1 2 3 4
end
v 497.700196464336 -801.603996352717 221.41581753791
v 97.7001964643359 -801.603996352717 221.41581753791
v 97.7001964643359 -600.933116996222 127.841449725278
v 497.700196464336 -600.933116996222 127.841449725278
v 497.700196464336 -801.603996352717 221.41581753791
cstype bspline
deg 1
curv 0 5 191 192 193 194 195
parm u 0 0 1 2 3 4
end
v 497.700196464336 -789.603995777357 202.57959054005
v 97.7001964643359 -789.603995777357 202.57959054005
v 97.7001964643359 -606.004535978757 116.9657564773
v 497.700196464336 -606.004535978757 116.9657564773
v 497.700196464336 -789.603995777357 202.57959054005
cstype bspline
deg 1
curv 0 5 196 197 198 199 200
parm u 0 0 1 2 3 4
end
v 497.700194535674 -881.603994135349 346.990666212617
v 497.700194535674 -881.603994135349 -3.0378708970602e-06
v 97.7001945356736 -881.603994135349 -3.0378708970602e-06
v 97.7001945356736 -881.603994135349 346.990666212617
v 497.700194535674 -881.603994135349 346.990666212617
cstype bspline
deg 1
curv 0 5 201 202 203 204 205
parm u 0 0 1 2 3 4
end
v 497.700194535674 -869.603994369507 328.154438795625
v 497.700194535674 -869.603994369506 -3.0378708970602e-06
v 97.7001945356736 -869.603994369506 -3.0378708970602e-06
v 97.7001945356736 -869.603994369507 328.154438795625
v 497.700194535674 -869.603994369507 328.154438795625
cstype bspline
deg 1
curv 0 5 206 207 208 209 210
parm u 0 0 1 2 3 4
end
v 497.700193835037 -567.123654621449 200.346072018818
v 497.700193835037 -881.604000192225 346.990665497701
v 97.7001938350369 -881.604000192225 346.990665497701
v 97.7001938350369 -567.123654621449 200.346072018818
v 497.700193835037 -567.123654621449 200.346072018818
cstype bspline
deg 1
curv 0 5 211 212 213 214 215
parm u 0 0 1 2 3 4
end
v 497.700193835037 -572.195073559435 189.470378866372
v 497.700193835037 -869.603999839832 328.154438021688
v 97.7001938350369 -869.603999839832 328.154438021688
v 97.7001938350369 -572.195073559435 189.470378866372
v 497.700193835037 -572.195073559435 189.470378866372
cstype bspline
deg 1
curv 0 5 216 217 218 219 220
parm u 0 0 1 2 3 4
end
v 497.700192633652 -44.7268169559739 1.13584979999359e-06
v 97.7001926336525 -44.7268169559739 1.13584979999359e-06
v 97.7001926336525 -44.7268169559741 214.5795909796
v 497.700192633652 -44.7268169559741 214.5795909796
v 497.700192633652 -44.7268169559739 1.13584979999359e-06
cstype bspline
deg 1
curv 0 5 221 222 223 224 225
parm u 0 0 1 2 3 4
end
v 497.700192633652 -32.7268171310423 1.13584979999359e-06
v 97.7001926336525 -32.7268171310423 1.13584979999359e-06
v 97.7001926336525 -32.7268171310425 202.5795909796
v 497.700192633652 -32.7268171310425 202.5795909796
v 497.700192633652 -32.7268171310423 1.13584979999359e-06
cstype bspline
deg 1
curv 0 5 226 227 228 229 230
parm u 0 0 1 2 3 4
end
v 497.700192130803 -44.7268193590649 214.579589578524
v 97.7001921308033 -44.7268193590649 214.579589578524
v 97.7001921308033 169.852770484685 214.579589578524
v 497.700192130803 169.852770484685 214.579589578524
v 497.700192130803 -44.7268193590649 214.579589578524
cstype bspline
deg 1
curv 0 5 231 232 233 234 235
parm u 0 0 1 2 3 4
end
v 497.700192130803 -32.7268193590649 202.57958984375
v 97.7001921308033 -32.7268193590649 202.57958984375
v 97.7001921308033 169.852770484685 202.57958984375
v 497.700192130803 169.852770484685 202.57958984375
v 497.700192130803 -32.7268193590649 202.57958984375
cstype bspline
deg 1
curv 0 5 236 237 238 239 240
parm u 0 0 1 2 3 4
end
v 497.700195576065 -124.726816955974 294.579585765488
v 497.700195576065 -124.726816955974 -4.07826175319315e-06
v 97.7001955760645 -124.726816955974 -4.07826175319315e-06
v 97.7001955760645 -124.726816955974 294.579585765488
v 497.700195576065 -124.726816955974 294.579585765488
cstype bspline
deg 1
curv 0 5 241 242 243 244 245
parm u 0 0 1 2 3 4
end
v 497.700195576065 -112.726817131043 282.579585765488
v 497.700195576065 -112.726817131042 -4.07826172477144e-06
v 97.7001955760645 -112.726817131042 -4.07826172477144e-06
v 97.7001955760645 -112.726817131043 282.579585765488
v 497.700195576065 -112.726817131043 282.579585765488
cstype bspline
deg 1
curv 0 5 246 247 248 249 250
parm u 0 0 1 2 3 4
end
v 497.700196352367 169.852774533863 294.579589578524
v 497.700196352367 -124.726822939281 294.579589578524
v 97.7001963523671 -124.726822939281 294.579589578524
v 97.7001963523671 169.852774533863 294.579589578524
v 497.700196352367 169.852774533863 294.579589578524
cstype bspline
deg 1
curv 0 5 251 252 253 254 255
parm u 0 0 1 2 3 4
end
v 497.700196352367 169.852774533863 282.57958984375
v 497.700196352367 -112.726822939281 282.57958984375
v 97.7001963523671 -112.726822939281 282.57958984375
v 97.7001963523671 169.852774533863 282.57958984375
v 497.700196352367 169.852774533863 282.57958984375
cstype bspline
deg 1
curv 0 5 256 257 258 259 260
parm u 0 0 1 2 3 4
end
v 497.70019610662 712.150360223401 4.6088176475223e-06
v 97.7001961066204 712.150360223401 4.6088176475223e-06
v 97.7001961066204 712.150360223401 210.224430878349
v 497.70019610662 712.150360223401 210.224430878349
v 497.70019610662 712.150360223401 4.6088176475223e-06
cstype bspline
deg 1
curv 0 5 261 262 263 264 265
parm u 0 0 1 2 3 4
end
v 497.70019610662 724.150360107422 4.6088176475223e-06
v 97.7001961066204 724.150360107422 4.6088176475223e-06
v 97.7001961066204 724.150360107422 202.57959063787
v 497.70019610662 724.150360107422 202.57959063787
v 497.70019610662 724.150360107422 4.6088176475223e-06
cstype bspline
deg 1
curv 0 5 266 267 268 269 270
parm u 0 0 1 2 3 4
end
v 497.700194569792 712.150366474886 210.22443562333
v 97.7001945697921 712.150366474886 210.22443562333
v 97.7001945697921 902.678401028274 299.069117228795
v 497.700194569792 902.678401028274 299.069117228795
v 497.700194569792 712.150366474886 210.22443562333
cstype bspline
deg 1
curv 0 5 271 272 273 274 275
parm u 0 0 1 2 3 4
end
v 497.700194569792 724.150360545477 202.579589203371
v 97.7001945697921 724.150360545477 202.579589203371
v 97.7001945697921 907.749819941037 288.193424130443
v 497.700194569792 907.749819941037 288.193424130443
v 497.700194569792 724.150360545477 202.579589203371
cstype bspline
deg 1
curv 0 5 276 277 278 279 280
parm u 0 0 1 2 3 4
end
v 497.700183782587 632.150360223401 261.190055932989
v 497.700183782587 632.150360223401 -7.54357384380455e-06
v 97.7001837825875 632.150360223401 -7.54357384380455e-06
v 97.7001837825875 632.150360223401 261.190055932989
v 497.700183782587 632.150360223401 261.190055932989
cstype bspline
deg 1
curv 0 5 281 282 283 284 285
parm u 0 0 1 2 3 4
end
v 497.700183782587 644.150360107422 253.545211877813
v 497.700183782587 644.150360107422 -7.54357384380455e-06
v 97.7001837825875 644.150360107422 -7.54357384380455e-06
v 97.7001837825875 644.150360107422 253.545211877813
v 497.700183782587 644.150360107422 253.545211877813
cstype bspline
deg 1
curv 0 5 286 287 288 289 290
parm u 0 0 1 2 3 4
end
v 497.700187124836 868.868940352968 371.573740314808
v 497.700187124836 632.150365756722 261.190056153044
v 97.7001871248357 632.150365756722 261.190056153044
v 97.7001871248357 868.868940352968 371.573740314808
v 497.700187124836 868.868940352968 371.573740314808
cstype bspline
deg 1
curv 0 5 291 292 293 294 295
parm u 0 0 1 2 3 4
end
v 497.700187124836 873.94035953023 360.698046649235
v 497.700187124836 644.150359580199 253.545210263021
v 97.7001871248357 644.150359580199 253.545210263021
v 97.7001871248357 873.94035953023 360.698046649235
v 497.700187124836 873.94035953023 360.698046649235
cstype bspline
deg 1
curv 0 5 296 297 298 299 300
parm u 0 0 1 2 3 4
end
v 1297.70018236001 -801.603994135349 -5.32309829281985e-06
v 897.700182360007 -801.603994135349 -5.32309829281985e-06
v 897.700182360007 -801.603994135349 221.415819567038
v 1297.70018236001 -801.603994135349 221.415819567038
v 1297.70018236001 -801.603994135349 -5.32309829281985e-06
cstype bspline
deg 1
curv 0 5 301 302 303 304 305
parm u 0 0 1 2 3 4
end
v 1297.70018236001 -789.603994369507 -5.32309829281985e-06
v 897.700182360007 -789.603994369507 -5.32309829281985e-06
v 897.700182360007 -789.603994369507 202.579588335349
v 1297.70018236001 -789.603994369507 202.579588335349
v 1297.70018236001 -789.603994369507 -5.32309829281985e-06
cstype bspline
deg 1
curv 0 5 306 307 308 309 310
parm u 0 0 1 2 3 4
end
v 1297.70018478164 -801.603996568962 221.415817638746
v 897.700184781645 -801.603996568962 221.415817638746
v 897.700184781645 -600.933117212467 127.841449826115
v 1297.70018478164 -600.933117212467 127.841449826115
v 1297.70018478164 -801.603996568962 221.415817638746
cstype bspline
deg 1
curv 0 5 311 312 313 314 315
parm u 0 0 1 2 3 4
end
v 1297.70018478164 -789.603995993602 202.579590640887
v 897.700184781645 -789.603995993602 202.579590640887
v 897.700184781645 -606.004536195002 116.965756578136
v 1297.70018478164 -606.004536195002 116.965756578136
v 1297.70018478164 -789.603995993602 202.579590640887
cstype bspline
deg 1
curv 0 5 316 317 318 319 320
parm u 0 0 1 2 3 4
end
v 1297.70018355815 -881.603994135349 346.990665746054
v 1297.70018355815 -881.603994135349 -3.50443474417261e-06
v 897.700183558146 -881.603994135349 -3.50443474417261e-06
v 897.700183558146 -881.603994135349 346.990665746054
v 1297.70018355815 -881.603994135349 346.990665746054
cstype bspline
deg 1
curv 0 5 321 322 323 324 325
parm u 0 0 1 2 3 4
end
v 1297.70018355815 -869.603994369507 328.154438329061
v 1297.70018355815 -869.603994369506 -3.50443474417261e-06
v 897.700183558146 -869.603994369506 -3.50443474417261e-06
v 897.700183558146 -869.603994369507 328.154438329061
v 1297.70018355815 -869.603994369507 328.154438329061
cstype bspline
deg 1
curv 0 5 326 327 328 329 330
parm u 0 0 1 2 3 4
end
v 1297.70018285751 -567.123655044299 200.346072215996
v 1297.70018285751 -881.604000615075 346.990665694879
v 897.700182857509 -881.604000615075 346.990665694879
v 897.700182857509 -567.123655044299 200.346072215996
v 1297.70018285751 -567.123655044299 200.346072215996
cstype bspline
deg 1
curv 0 5 331 332 333 334 335
parm u 0 0 1 2 3 4
end
v 1297.70018285751 -572.195073982286 189.470379063551
v 1297.70018285751 -869.604000262682 328.154438218866
v 897.700182857509 -869.604000262682 328.154438218866
v 897.700182857509 -572.195073982286 189.470379063551
v 1297.70018285751 -572.195073982286 189.470379063551
cstype bspline
deg 1
curv 0 5 336 337 338 339 340
parm u 0 0 1 2 3 4
end
v 1297.70019622178 -44.7268169559739 9.09276508309631e-07
v 897.700196221777 -44.7268169559739 9.09276508309631e-07
v 897.700196221777 -44.7268169559742 214.579590753027
v 1297.70019622178 -44.7268169559742 214.579590753027
v 1297.70019622178 -44.7268169559739 9.09276508309631e-07
cstype bspline
deg 1
curv 0 5 341 342 343 344 345
parm u 0 0 1 2 3 4
end
v 1297.70019622178 -32.7268171310423 9.09276508309631e-07
v 897.700196221777 -32.7268171310423 9.09276508309631e-07
v 897.700196221777 -32.7268171310425 202.579590753027
v 1297.70019622178 -32.7268171310425 202.579590753027
v 1297.70019622178 -32.7268171310423 9.09276508309631e-07
cstype bspline
deg 1
curv 0 5 346 347 348 349 350
parm u 0 0 1 2 3 4
end
v 1297.70019571893 -44.7268195856382 214.579589578524
v 897.700195718927 -44.7268195856382 214.579589578524
v 897.700195718927 169.852770258112 214.579589578524
v 1297.70019571893 169.852770258112 214.579589578524
v 1297.70019571893 -44.7268195856382 214.579589578524
cstype bspline
deg 1
curv 0 5 351 352 353 354 355
parm u 0 0 1 2 3 4
end
v 1297.70019571893 -32.7268195856382 202.57958984375
v 897.700195718927 -32.7268195856382 202.57958984375
v 897.700195718927 169.852770258112 202.57958984375
v 1297.70019571893 169.852770258112 202.57958984375
v 1297.70019571893 -32.7268195856382 202.57958984375
cstype bspline
deg 1
curv 0 5 356 357 358 359 360
parm u 0 0 1 2 3 4
end
v 1297.70018450351 -124.726816955974 294.579593023345
v 1297.70018450351 -124.726816955974 -4.44979991698347e-06
v 897.700184503511 -124.726816955974 -4.44979991698347e-06
v 897.700184503511 -124.726816955974 294.579593023345
v 1297.70018450351 -124.726816955974 294.579593023345
cstype bspline
deg 1
curv 0 5 361 362 363 364 365
parm u 0 0 1 2 3 4
end
v 1297.70018450351 -112.726817131043 282.579593023345
v 1297.70018450351 -112.726817131042 -4.44979988856176e-06
v 897.700184503511 -112.726817131042 -4.44979988856176e-06
v 897.700184503511 -112.726817131043 282.579593023345
v 1297.70018450351 -112.726817131043 282.579593023345
cstype bspline
deg 1
curv 0 5 366 367 368 369 370
parm u 0 0 1 2 3 4
end
v 1297.70018527981 169.852774162325 294.579589578524
v 1297.70018527981 -124.726823310819 294.579589578524
v 897.700185279813 -124.726823310819 294.579589578524
v 897.700185279813 169.852774162325 294.579589578524
v 1297.70018527981 169.852774162325 294.579589578524
cstype bspline
deg 1
curv 0 5 371 372 373 374 375
parm u 0 0 1 2 3 4
end
v 1297.70018527981 169.852774162325 282.57958984375
v 1297.70018527981 -112.726823310819 282.57958984375
v 897.700185279813 -112.726823310819 282.57958984375
v 897.700185279813 169.852774162325 282.57958984375
v 1297.70018527981 169.852774162325 282.57958984375
cstype bspline
deg 1
curv 0 5 376 377 378 379 380
parm u 0 0 1 2 3 4
end
v 1297.70018444355 712.150360223401 4.38984147876909e-06
v 897.700184443552 712.150360223401 4.38984147876909e-06
v 897.700184443552 712.150360223401 210.224430659373
v 1297.70018444355 712.150360223401 210.224430659373
v 1297.70018444355 712.150360223401 4.38984147876909e-06
cstype bspline
deg 1
curv 0 5 381 382 383 384 385
parm u 0 0 1 2 3 4
end
v 1297.70018444355 724.150360107422 4.38984147876909e-06
v 897.700184443552 724.150360107422 4.38984147876909e-06
v 897.700184443552 724.150360107422 202.579590418894
v 1297.70018444355 724.150360107422 202.579590418894
v 1297.70018444355 724.150360107422 4.38984147876909e-06
cstype bspline
deg 1
curv 0 5 386 387 388 389 390
parm u 0 0 1 2 3 4
end
v 1297.70018290672 712.150366276426 210.224435530786
v 897.700182906724 712.150366276426 210.224435530786
v 897.700182906724 902.678400829815 299.069117136251
v 1297.70018290672 902.678400829815 299.069117136251
v 1297.70018290672 712.150366276426 210.224435530786
cstype bspline
deg 1
curv 0 5 391 392 393 394 395
parm u 0 0 1 2 3 4
end
v 1297.70018290672 724.150360347017 202.579589110827
v 897.700182906724 724.150360347017 202.579589110827
v 897.700182906724 907.749819742577 288.1934240379
v 1297.70018290672 907.749819742577 288.1934240379
v 1297.70018290672 724.150360347017 202.579589110827
cstype bspline
deg 1
curv 0 5 396 397 398 399 400
parm u 0 0 1 2 3 4
end
v 1297.7001879076 632.150360223401 261.19005562267
v 1297.7001879076 632.1503602234 7.40489622330642e-06
v 897.700187907604 632.1503602234 7.40489622330642e-06
v 897.700187907604 632.150360223401 261.19005562267
v 1297.7001879076 632.150360223401 261.19005562267
cstype bspline
deg 1
curv 0 5 401 402 403 404 405
parm u 0 0 1 2 3 4
end
v 1297.7001879076 644.150360107422 253.545211567494
v 1297.7001879076 644.150360107422 7.40489619488471e-06
v 897.700187907604 644.150360107422 7.40489619488471e-06
v 897.700187907604 644.150360107422 253.545211567494
v 1297.7001879076 644.150360107422 253.545211567494
cstype bspline
deg 1
curv 0 5 406 407 408 409 410
parm u 0 0 1 2 3 4
end
v 1297.70019124985 868.868940071724 371.573740183662
v 1297.70019124985 632.150365475477 261.190056021897
v 897.700191249852 632.150365475477 261.190056021897
v 897.700191249852 868.868940071724 371.573740183662
v 1297.70019124985 868.868940071724 371.573740183662
cstype bspline
deg 1
curv 0 5 411 412 413 414 415
parm u 0 0 1 2 3 4
end
v 1297.70019124985 873.940359248986 360.698046518089
v 1297.70019124985 644.150359298954 253.545210131875
v 897.700191249852 644.150359298954 253.545210131875
v 897.700191249852 873.940359248986 360.698046518089
v 1297.70019124985 873.940359248986 360.698046518089
cstype bspline
deg 1
curv 0 5 416 417 418 419 420
parm u 0 0 1 2 3 4
end
